<?xml version="1.0" encoding="utf-8"?>
<!-- Generator: Adobe Illustrator 19.2.0, SVG Export Plug-In . SVG Version: 6.00 Build 0)  -->
<svg version="1.1" baseProfile="tiny" id="Layer_1" xmlns="http://www.w3.org/2000/svg" xmlns:xlink="http://www.w3.org/1999/xlink"
	 x="0px" y="0px" viewBox="0 0 170 244" xml:space="preserve">
<metadata><?xpacket begin="﻿" id="W5M0MpCehiHzreSzNTczkc9d"?>
<x:xmpmeta xmlns:x="adobe:ns:meta/" x:xmptk="Adobe XMP Core 5.6-c111 79.158366, 2015/09/25-01:12:00        ">
   <rdf:RDF xmlns:rdf="http://www.w3.org/1999/02/22-rdf-syntax-ns#">
      <rdf:Description rdf:about=""/>
   </rdf:RDF>
</x:xmpmeta>
                                                                                                    
                                                                                                    
                                                                                                    
                                                                                                    
                                                                                                    
                                                                                                    
                                                                                                    
                                                                                                    
                                                                                                    
                                                                                                    
                                                                                                    
                                                                                                    
                                                                                                    
                                                                                                    
                                                                                                    
                                                                                                    
                                                                                                    
                                                                                                    
                                                                                                    
                                                                                                    
                           
<?xpacket end="w"?></metadata>
<g id="Layer_41">
	<path fill="#FFFFFF" d="M17,0h136c9.4,0,17,7.6,17,17.1v209.8c0,9.4-7.6,17.1-17,17.1H17c-9.4,0-17-7.6-17-17.1V17.1
		C0,7.6,7.6,0,17,0z"/>
	<path fill="#171717" d="M116.1,229.7c0,0-5.8-8.1-9.1-17.6c-3.2-9.5-4.4-22.3-4.4-22.3s9.2,14.4,25.2,14.2
		c15.9-0.2,27.4-13.8,27.4-27.5c0-13.8-12.1-27.1-24.6-27.7c-12.5-0.6-16.1,2.2-16.1,2.2s9.9-8.5,9.7-24.7
		c-0.4-25.5-26.4-26.3-26.4-26.3s-26,0.8-26.4,26.3c-0.3,16.2,9.7,24.7,9.7,24.7s-3.6-2.8-16.1-2.2s-24.6,14-24.6,27.7
		c0,13.8,11.5,27.3,27.4,27.5c16,0.2,25.2-14.2,25.2-14.2s-1.2,12.8-4.4,22.3c-3.2,9.5-9.1,17.6-9.1,17.6H116.1z"/>
	<path fill="#171717" d="M81.6,66.8c0,0-2.5-3.4-3.9-7.5c-1.4-4-1.9-9.5-1.9-9.5s3.9,6.1,10.7,6c6.8-0.1,11.7-5.9,11.7-11.7
		c0-5.9-5.1-11.5-10.5-11.8c-5.3-0.3-6.9,0.9-6.9,0.9s4.2-3.6,4.1-10.5c0-10.7-11.1-11-11.1-11s-11,0.3-11.2,11.2
		c-0.1,6.9,4.1,10.5,4.1,10.5s-1.5-1.2-6.9-0.9c-5.3,0.3-10.5,5.9-10.5,11.8S54.2,55.9,61,56s10.7-6,10.7-6s-0.5,5.4-1.9,9.5
		c-1.4,4-3.9,7.5-3.9,7.5h15.7V66.8z"/>
	<path fill="#1F1A17" d="M27.2,67.7L27.2,67.7c-6.4,0-11.6-5.3-11.6-11.7v-7.2c0-0.2,0-0.5,0-0.7l0,0V27.6v-1.7v-1.6
		c0-6.4,5.2-11.7,11.6-11.7l0,0c6.4,0,11.6,5.3,11.6,11.7v3.3h-4.4v-2.1c0-4-3.3-7.3-7.2-7.3l0,0c-4,0-7.2,3.3-7.2,7.3v0.4h0.1v13.7
		c2-1.5,4.4-2.4,7.1-2.4l0,0c6.4,0,11.6,5.3,11.6,11.7V56C38.8,62.5,33.6,67.7,27.2,67.7L27.2,67.7z M27.2,61.7c4,0,7.2-3.3,7.2-7.3
		V50c0-4-3.3-7.3-7.2-7.3l0,0c-4,0-7.2,3.3-7.2,7.3v4.4C19.9,58.4,23.2,61.7,27.2,61.7L27.2,61.7z"/>
</g>
</svg>
