<?xml version="1.0" encoding="utf-8"?>
<!-- Generator: Adobe Illustrator 19.2.0, SVG Export Plug-In . SVG Version: 6.00 Build 0)  -->
<svg version="1.1" baseProfile="tiny" id="Layer_1" xmlns="http://www.w3.org/2000/svg" xmlns:xlink="http://www.w3.org/1999/xlink"
	 x="0px" y="0px" viewBox="0 0 170 244" xml:space="preserve">
<metadata><?xpacket begin="﻿" id="W5M0MpCehiHzreSzNTczkc9d"?>
<x:xmpmeta xmlns:x="adobe:ns:meta/" x:xmptk="Adobe XMP Core 5.6-c111 79.158366, 2015/09/25-01:12:00        ">
   <rdf:RDF xmlns:rdf="http://www.w3.org/1999/02/22-rdf-syntax-ns#">
      <rdf:Description rdf:about=""/>
   </rdf:RDF>
</x:xmpmeta>
                                                                                                    
                                                                                                    
                                                                                                    
                                                                                                    
                                                                                                    
                                                                                                    
                                                                                                    
                                                                                                    
                                                                                                    
                                                                                                    
                                                                                                    
                                                                                                    
                                                                                                    
                                                                                                    
                                                                                                    
                                                                                                    
                                                                                                    
                                                                                                    
                                                                                                    
                                                                                                    
                           
<?xpacket end="w"?></metadata>
<g id="Layer_38">
	<path fill="#FFFFFF" d="M17,0h136c9.4,0,17,7.6,17,17.1v209.8c0,9.4-7.6,17.1-17,17.1H17c-9.4,0-17-7.6-17-17.1V17.1
		C0,7.6,7.6,0,17,0z"/>
	<polygon fill="#C80813" points="35.7,13.6 37.1,13.6 41.9,13.6 23.5,67.3 17.2,67.3 33.8,19.2 20.1,19.2 20.1,25.7 15.5,25.7 
		15.5,19.2 15.5,19.2 15.5,13.6 15.5,13.6 20.1,13.6 	"/>
	<path fill="#C80813" d="M96.7,234.5c0,0,7.7-19.6,26.3-40.4s33.4-31.8,33.4-31.8s-19.4-11.9-33-30.1
		c-13.5-18.3-26.2-41.6-26.2-41.6S85.9,112.9,70,131.9c-14.6,17.4-32,30.3-32,30.3s14.8,11,33.4,31.8
		C90,214.9,96.7,234.5,96.7,234.5z"/>
	<path fill="#C80813" d="M74.1,66.8c0,0,3.1-7.8,10.5-16.1C92.1,42.4,98,38,98,38s-7.8-4.7-13.2-12C79.4,18.7,74.4,9.4,74.4,9.4
		s-4.5,9-10.9,16.5C57.7,32.9,50.7,38,50.7,38s5.9,4.4,13.3,12.7C71.5,59,74.1,66.8,74.1,66.8z"/>
</g>
</svg>
