<?xml version="1.0" encoding="utf-8"?>
<!-- Generator: Adobe Illustrator 19.2.0, SVG Export Plug-In . SVG Version: 6.00 Build 0)  -->
<svg version="1.1" baseProfile="tiny" id="Layer_1" xmlns="http://www.w3.org/2000/svg" xmlns:xlink="http://www.w3.org/1999/xlink"
	 x="0px" y="0px" viewBox="0 0 170 244" xml:space="preserve">
<metadata><?xpacket begin="﻿" id="W5M0MpCehiHzreSzNTczkc9d"?>
<x:xmpmeta xmlns:x="adobe:ns:meta/" x:xmptk="Adobe XMP Core 5.6-c111 79.158366, 2015/09/25-01:12:00        ">
   <rdf:RDF xmlns:rdf="http://www.w3.org/1999/02/22-rdf-syntax-ns#">
      <rdf:Description rdf:about=""/>
   </rdf:RDF>
</x:xmpmeta>
                                                                                                    
                                                                                                    
                                                                                                    
                                                                                                    
                                                                                                    
                                                                                                    
                                                                                                    
                                                                                                    
                                                                                                    
                                                                                                    
                                                                                                    
                                                                                                    
                                                                                                    
                                                                                                    
                                                                                                    
                                                                                                    
                                                                                                    
                                                                                                    
                                                                                                    
                                                                                                    
                           
<?xpacket end="w"?></metadata>
<g id="Layer_39">
	<path fill="#FFFFFF" d="M17,0h135.8c9.4,0,17,7.6,17,17.1v209.8c0,9.4-7.6,17.1-17,17.1H17c-9.4,0-17-7.6-17-17.1V17.1
		C0,7.6,7.6,0,17,0z"/>
	<polygon fill="#C80813" points="35.7,13.6 37.1,13.6 41.9,13.6 23.5,67.3 17.2,67.3 33.8,19.2 20.1,19.2 20.1,25.7 15.5,25.7 
		15.5,19.2 15.5,19.2 15.5,13.6 15.5,13.6 20.1,13.6 	"/>
	<path fill="#C80813" d="M93.5,228.6c0,0,14.1-28.9,29.8-49s27.8-31,28-48.7c0.1-10.9-8.8-26.1-26.7-26.6c-24.1-0.7-31.1,22-31.1,22
		s-7-22.7-31.1-22c-17.8,0.5-26.8,15.7-26.7,26.6c0.2,17.7,12.3,28.6,28,48.7S93.5,228.6,93.5,228.6z"/>
	<path fill="#C80813" d="M74.8,66.8c0,0,5.9-12.2,12.5-20.6c6.6-8.5,11.7-13,11.8-20.5c0-4.6-3.7-11-11.2-11.2
		c-10.1-0.3-13.1,9.2-13.1,9.2s-3-9.5-13.1-9.2c-7.5,0.2-11.3,6.6-11.2,11.2c0.1,7.4,5.2,12,11.8,20.5
		C68.9,54.7,74.8,66.8,74.8,66.8z"/>
</g>
</svg>
