<?xml version="1.0" encoding="utf-8"?>
<!-- Generator: Adobe Illustrator 19.2.0, SVG Export Plug-In . SVG Version: 6.00 Build 0)  -->
<svg version="1.1" baseProfile="tiny" id="Layer_1" xmlns="http://www.w3.org/2000/svg" xmlns:xlink="http://www.w3.org/1999/xlink"
	 x="0px" y="0px" viewBox="0 0 170 244" xml:space="preserve">
<metadata><?xpacket begin="﻿" id="W5M0MpCehiHzreSzNTczkc9d"?>
<x:xmpmeta xmlns:x="adobe:ns:meta/" x:xmptk="Adobe XMP Core 5.6-c111 79.158366, 2015/09/25-01:12:00        ">
   <rdf:RDF xmlns:rdf="http://www.w3.org/1999/02/22-rdf-syntax-ns#">
      <rdf:Description rdf:about=""/>
   </rdf:RDF>
</x:xmpmeta>
                                                                                                    
                                                                                                    
                                                                                                    
                                                                                                    
                                                                                                    
                                                                                                    
                                                                                                    
                                                                                                    
                                                                                                    
                                                                                                    
                                                                                                    
                                                                                                    
                                                                                                    
                                                                                                    
                                                                                                    
                                                                                                    
                                                                                                    
                                                                                                    
                                                                                                    
                                                                                                    
                           
<?xpacket end="w"?></metadata>
<g id="Layer_33">
	<path fill="#FFFFFF" d="M17,0h136c9.4,0,17,7.6,17,17.1v209.8c0,9.4-7.6,17.1-17,17.1H17c-9.4,0-17-7.6-17-17.1V17.1
		C0,7.6,7.6,0,17,0z"/>
	<path fill="#171717" d="M115.8,228.8c0,0-5.8-8.1-9.1-17.6c-3.2-9.5-4.4-22.3-4.4-22.3s9.2,14.4,25.2,14.2
		c15.9-0.2,27.4-13.8,27.4-27.5c0-13.8-12.1-27.1-24.6-27.7c-12.5-0.6-16.1,2.2-16.1,2.2s9.9-8.5,9.7-24.7
		C123.5,99.8,97.5,99,97.5,99s-26,0.8-26.4,26.3c-0.3,16.2,9.7,24.7,9.7,24.7s-3.6-2.8-16.1-2.2s-24.6,14-24.6,27.7
		c0,13.8,11.5,27.3,27.4,27.5c16,0.2,25.2-14.2,25.2-14.2s-1.2,12.8-4.4,22.3c-3.2,9.5-9.1,17.6-9.1,17.6L115.8,228.8L115.8,228.8z"
		/>
	<path fill="#171717" d="M81.6,66.8c0,0-2.5-3.4-3.9-7.5c-1.4-4-1.9-9.5-1.9-9.5s3.9,6.1,10.7,6c6.8-0.1,11.6-5.9,11.6-11.7
		c0-5.9-5.1-11.5-10.4-11.8s-6.9,0.9-6.9,0.9s4.2-3.6,4.1-10.5c-0.1-10.7-11.1-11-11.1-11s-11,0.3-11.2,11.2
		c-0.1,6.9,4.1,10.5,4.1,10.5s-1.5-1.2-6.9-0.9c-5.3,0.3-10.4,5.9-10.4,11.8S54.3,55.9,61,56c6.8,0.1,10.7-6,10.7-6
		s-0.5,5.4-1.9,9.5c-1.4,4-3.9,7.5-3.9,7.5h15.7V66.8z"/>
	<path fill="#1F1A17" d="M35.8,38.9c3.3,2.3,5.6,6.1,5.6,10.4V55c0,7-5.8,12.7-12.9,12.7l0,0c-7.1,0-12.9-5.7-12.9-12.7v-5.7
		c0-4.3,2.2-8.1,5.6-10.4c-2.8-2.2-4.7-5.5-4.7-9.3v-5.3c0-6.5,5.4-11.8,12-11.8l0,0c6.6,0,12,5.3,12,11.8v5.3
		C40.4,33.4,38.6,36.8,35.8,38.9L35.8,38.9z M28.4,18.7c-4.1,0-7.5,3.3-7.5,7.3v2.5c0,4,3.4,7.3,7.5,7.3l0,0c4.1,0,7.5-3.3,7.5-7.3
		V26C35.9,22,32.5,18.7,28.4,18.7L28.4,18.7L28.4,18.7z M28.4,43.2c-4.4,0-8,3.5-8,7.9v2.6c0,4.3,3.6,7.9,8,7.9l0,0
		c4.4,0,8-3.6,8-7.9v-2.6C36.5,46.7,32.8,43.2,28.4,43.2L28.4,43.2z"/>
</g>
</svg>
