<?xml version="1.0" encoding="utf-8"?>
<!-- Generator: Adobe Illustrator 19.2.0, SVG Export Plug-In . SVG Version: 6.00 Build 0)  -->
<svg version="1.1" baseProfile="tiny" id="Layer_1" xmlns="http://www.w3.org/2000/svg" xmlns:xlink="http://www.w3.org/1999/xlink"
	 x="0px" y="0px" viewBox="0 0 170 244" xml:space="preserve">
<metadata><?xpacket begin="﻿" id="W5M0MpCehiHzreSzNTczkc9d"?>
<x:xmpmeta xmlns:x="adobe:ns:meta/" x:xmptk="Adobe XMP Core 5.6-c111 79.158366, 2015/09/25-01:12:00        ">
   <rdf:RDF xmlns:rdf="http://www.w3.org/1999/02/22-rdf-syntax-ns#">
      <rdf:Description rdf:about=""/>
   </rdf:RDF>
</x:xmpmeta>
                                                                                                    
                                                                                                    
                                                                                                    
                                                                                                    
                                                                                                    
                                                                                                    
                                                                                                    
                                                                                                    
                                                                                                    
                                                                                                    
                                                                                                    
                                                                                                    
                                                                                                    
                                                                                                    
                                                                                                    
                                                                                                    
                                                                                                    
                                                                                                    
                                                                                                    
                                                                                                    
                           
<?xpacket end="w"?></metadata>
<g id="Layer_34">
	<path fill="#FFFFFF" d="M17,0h136c9.4,0,17,7.6,17,17.1v209.8c0,9.4-7.6,17.1-17,17.1H17c-9.4,0-17-7.6-17-17.1V17.1
		C0,7.6,7.6,0,17,0z"/>
	<path fill="#C80813" d="M96.7,234.6c0,0,7.7-19.6,26.3-40.4s33.4-31.8,33.4-31.8s-19.4-11.9-33-30.1C109.9,114,97.2,90.7,97.2,90.7
		S85.9,113.1,70,132.1c-14.6,17.4-32,30.3-32,30.3s14.8,11,33.4,31.8C90,215.1,96.7,234.6,96.7,234.6z"/>
	<path fill="#C80813" d="M74.1,66.8c0,0,3.1-7.8,10.5-16.1C92.1,42.4,98,38,98,38s-7.8-4.7-13.2-12C79.4,18.7,74.4,9.4,74.4,9.4
		s-4.5,9-10.9,16.5C57.7,32.9,50.7,38,50.7,38s5.9,4.4,13.3,12.7C71.5,59,74.1,66.8,74.1,66.8z"/>
	<path fill="#C80813" d="M35.8,38.9c3.3,2.3,5.6,6.1,5.6,10.4V55c0,7-5.8,12.7-12.9,12.7l0,0c-7.1,0-12.9-5.7-12.9-12.7v-5.7
		c0-4.3,2.2-8.1,5.6-10.4c-2.8-2.2-4.7-5.5-4.7-9.3v-5.3c0-6.5,5.4-11.8,12-11.8l0,0c6.6,0,12,5.3,12,11.8v5.3
		C40.5,33.4,38.6,36.8,35.8,38.9L35.8,38.9z M28.5,18.7C24.4,18.7,21,22,21,26v2.5c0,4,3.4,7.3,7.5,7.3l0,0c4.1,0,7.5-3.3,7.5-7.3
		V26C35.9,22,32.5,18.7,28.5,18.7L28.5,18.7L28.5,18.7z M28.5,43.2c-4.4,0-8,3.5-8,7.9v2.6c0,4.3,3.6,7.9,8,7.9l0,0
		c4.4,0,8-3.6,8-7.9v-2.6C36.5,46.7,32.9,43.2,28.5,43.2L28.5,43.2z"/>
</g>
</svg>
