<?xml version="1.0" encoding="utf-8"?>
<!-- Generator: Adobe Illustrator 19.2.0, SVG Export Plug-In . SVG Version: 6.00 Build 0)  -->
<svg version="1.1" baseProfile="tiny" id="Layer_1" xmlns="http://www.w3.org/2000/svg" xmlns:xlink="http://www.w3.org/1999/xlink"
	 x="0px" y="0px" viewBox="0 0 170 244" xml:space="preserve">
<metadata><?xpacket begin="﻿" id="W5M0MpCehiHzreSzNTczkc9d"?>
<x:xmpmeta xmlns:x="adobe:ns:meta/" x:xmptk="Adobe XMP Core 5.6-c111 79.158366, 2015/09/25-01:12:00        ">
   <rdf:RDF xmlns:rdf="http://www.w3.org/1999/02/22-rdf-syntax-ns#">
      <rdf:Description rdf:about=""/>
   </rdf:RDF>
</x:xmpmeta>
                                                                                                    
                                                                                                    
                                                                                                    
                                                                                                    
                                                                                                    
                                                                                                    
                                                                                                    
                                                                                                    
                                                                                                    
                                                                                                    
                                                                                                    
                                                                                                    
                                                                                                    
                                                                                                    
                                                                                                    
                                                                                                    
                                                                                                    
                                                                                                    
                                                                                                    
                                                                                                    
                           
<?xpacket end="w"?></metadata>
<g id="Layer_35">
	<path fill="#FFFFFF" d="M17,0h136c9.4,0,17,7.6,17,17.1v209.8c0,9.4-7.6,17.1-17,17.1H17c-9.4,0-17-7.6-17-17.1V17.1
		C0,7.6,7.6,0,17,0z"/>
	<path fill="#C80813" d="M93.6,228.8c0,0,14.1-28.9,29.8-49s27.9-31,28-48.7c0.1-10.9-8.8-26.1-26.7-26.6c-24.1-0.7-31.1,22-31.1,22
		s-7-22.7-31.1-22c-17.9,0.5-26.8,15.7-26.7,26.6c0.2,17.7,12.3,28.6,28,48.7C79.5,199.8,93.6,228.8,93.6,228.8z"/>
	<path fill="#C80813" d="M74.9,66.8c0,0,5.9-12.2,12.5-20.6c6.6-8.5,11.7-13,11.8-20.5c0-4.6-3.7-11-11.2-11.2
		c-10.1-0.3-13.1,9.2-13.1,9.2s-3-9.5-13.1-9.2c-7.5,0.2-11.3,6.6-11.2,11.2c0.1,7.4,5.2,12,11.8,20.5C69,54.7,74.9,66.8,74.9,66.8z
		"/>
	<path fill="#C80813" d="M35.8,38.9c3.3,2.3,5.6,6.1,5.6,10.4V55c0,7-5.8,12.7-12.9,12.7l0,0c-7.1,0-12.9-5.7-12.9-12.7v-5.7
		c0-4.3,2.2-8.1,5.6-10.4c-2.8-2.2-4.7-5.5-4.7-9.3v-5.3c0-6.5,5.4-11.8,12-11.8l0,0c6.6,0,12,5.3,12,11.8v5.3
		C40.5,33.4,38.6,36.8,35.8,38.9L35.8,38.9z M28.5,18.7C24.4,18.7,21,22,21,26v2.5c0,4,3.4,7.3,7.5,7.3l0,0c4.1,0,7.5-3.3,7.5-7.3
		V26C35.9,22,32.6,18.7,28.5,18.7L28.5,18.7L28.5,18.7z M28.5,43.2c-4.4,0-8,3.5-8,7.9v2.6c0,4.3,3.6,7.9,8,7.9l0,0
		c4.4,0,8-3.6,8-7.9v-2.6C36.5,46.7,32.9,43.2,28.5,43.2L28.5,43.2z"/>
</g>
</svg>
