<?xml version="1.0" encoding="utf-8"?>
<!-- Generator: Adobe Illustrator 19.2.0, SVG Export Plug-In . SVG Version: 6.00 Build 0)  -->
<svg version="1.1" baseProfile="tiny" id="Layer_1" xmlns="http://www.w3.org/2000/svg" xmlns:xlink="http://www.w3.org/1999/xlink"
	 x="0px" y="0px" viewBox="0 0 170 244" xml:space="preserve">
<metadata><?xpacket begin="﻿" id="W5M0MpCehiHzreSzNTczkc9d"?>
<x:xmpmeta xmlns:x="adobe:ns:meta/" x:xmptk="Adobe XMP Core 5.6-c111 79.158366, 2015/09/25-01:12:00        ">
   <rdf:RDF xmlns:rdf="http://www.w3.org/1999/02/22-rdf-syntax-ns#">
      <rdf:Description rdf:about=""/>
   </rdf:RDF>
</x:xmpmeta>
                                                                                                    
                                                                                                    
                                                                                                    
                                                                                                    
                                                                                                    
                                                                                                    
                                                                                                    
                                                                                                    
                                                                                                    
                                                                                                    
                                                                                                    
                                                                                                    
                                                                                                    
                                                                                                    
                                                                                                    
                                                                                                    
                                                                                                    
                                                                                                    
                                                                                                    
                                                                                                    
                           
<?xpacket end="w"?></metadata>
<g id="Layer_30">
	<path fill="#FFFFFF" d="M17,0h136c9.4,0,17,7.6,17,17.1v209.8c0,9.4-7.6,17.1-17,17.1H17c-9.4,0-17-7.6-17-17.1V17.1
		C0,7.6,7.6,0,17,0z"/>
	<path fill="#C80813" d="M27.2,12.6L27.2,12.6c6.4,0,11.6,5.3,11.6,11.7v7.2c0,0.2,0,0.5,0,0.7l0,0v20.5v1.7V56
		c0,6.4-5.2,11.7-11.6,11.7l0,0c-6.4,0-11.6-5.3-11.6-11.7v-3.3H20v2.1c0,4,3.3,7.3,7.2,7.3l0,0c4,0,7.2-3.3,7.2-7.3v-0.4h-0.1V40.7
		c-2,1.5-4.4,2.4-7.1,2.4l0,0c-6.4,0-11.6-5.3-11.6-11.7v-7.2C15.5,17.8,20.8,12.6,27.2,12.6L27.2,12.6z M27.2,18.6
		c-4,0-7.2,3.3-7.2,7.3v4.4c0,4,3.3,7.3,7.2,7.3l0,0c4,0,7.2-3.3,7.2-7.3v-4.4C34.4,21.9,31.2,18.6,27.2,18.6L27.2,18.6z"/>
	<path fill="#C80813" d="M96.7,234.8c0,0,7.7-19.6,26.3-40.4s33.4-31.8,33.4-31.8s-19.4-11.9-33-30.1
		c-13.5-18.3-26.2-41.6-26.2-41.6S85.9,113.3,70,132.3c-14.6,17.4-32,30.3-32,30.3s14.8,11,33.4,31.8S96.7,234.8,96.7,234.8z"/>
	<path fill="#C80813" d="M74.1,66.8c0,0,3.1-7.8,10.5-16.1C92.1,42.4,98,38,98,38s-7.8-4.7-13.2-12C79.4,18.7,74.4,9.4,74.4,9.4
		s-4.5,9-10.9,16.5C57.7,32.9,50.7,38,50.7,38s5.9,4.4,13.3,12.7C71.5,59,74.1,66.8,74.1,66.8z"/>
</g>
</svg>
