<?xml version="1.0" encoding="utf-8"?>
<!-- Generator: Adobe Illustrator 19.2.0, SVG Export Plug-In . SVG Version: 6.00 Build 0)  -->
<svg version="1.1" baseProfile="tiny" id="Layer_1" xmlns="http://www.w3.org/2000/svg" xmlns:xlink="http://www.w3.org/1999/xlink"
	 x="0px" y="0px" viewBox="0 0 170 244" xml:space="preserve">
<metadata><?xpacket begin="﻿" id="W5M0MpCehiHzreSzNTczkc9d"?>
<x:xmpmeta xmlns:x="adobe:ns:meta/" x:xmptk="Adobe XMP Core 5.6-c111 79.158366, 2015/09/25-01:12:00        ">
   <rdf:RDF xmlns:rdf="http://www.w3.org/1999/02/22-rdf-syntax-ns#">
      <rdf:Description rdf:about=""/>
   </rdf:RDF>
</x:xmpmeta>
                                                                                                    
                                                                                                    
                                                                                                    
                                                                                                    
                                                                                                    
                                                                                                    
                                                                                                    
                                                                                                    
                                                                                                    
                                                                                                    
                                                                                                    
                                                                                                    
                                                                                                    
                                                                                                    
                                                                                                    
                                                                                                    
                                                                                                    
                                                                                                    
                                                                                                    
                                                                                                    
                           
<?xpacket end="w"?></metadata>
<g id="Layer_62">
	<path fill="#FFFFFF" d="M17,0h136c9.4,0,17,7.6,17,17.1v209.8c0,9.4-7.6,17.1-17,17.1H17c-9.4,0-17-7.6-17-17.1V17.1
		C0,7.6,7.6,0,17,0z"/>
	<path fill="#C80813" d="M74,66.8c0,0,3.1-7.8,10.5-16.1S97.8,38,97.8,38S90,33.3,84.6,26C79.3,18.7,74.2,9.4,74.2,9.4
		s-4.5,9-10.9,16.5C57.6,32.9,50.6,38,50.6,38s5.9,4.4,13.3,12.7C71.4,59,74,66.8,74,66.8z"/>
	<path fill="#C80813" d="M96.9,234.6c0,0,7.7-19.6,26.3-40.4s33.4-31.8,33.4-31.8s-19.4-11.9-33-30.1C110.1,114,97.4,90.7,97.4,90.7
		s-11.3,22.4-27.2,41.4c-14.6,17.4-32,30.3-32,30.3s14.8,11,33.4,31.8C90.2,215.1,96.9,234.6,96.9,234.6z"/>
	<path fill="#C80813" d="M9.5,61.8h3.3c5-16.3,10.2-33.6,15.1-49.6h4.7c5,16.3,10,32.9,15,49.3H51V67c-5.5,0-11-0.1-16.6-0.1v-5.5
		h7.5l-3.6-11.7H22.2l-3.6,12h6.6v5.5H9.5V61.8L9.5,61.8z M30.2,23.2l-6.4,21.1h12.8L30.2,23.2z"/>
</g>
</svg>
