<?xml version="1.0" encoding="utf-8"?>
<!-- Generator: Adobe Illustrator 19.2.0, SVG Export Plug-In . SVG Version: 6.00 Build 0)  -->
<svg version="1.1" baseProfile="tiny" id="Layer_1" xmlns="http://www.w3.org/2000/svg" xmlns:xlink="http://www.w3.org/1999/xlink"
	 x="0px" y="0px" viewBox="0 0 170 244" xml:space="preserve">
<metadata><?xpacket begin="﻿" id="W5M0MpCehiHzreSzNTczkc9d"?>
<x:xmpmeta xmlns:x="adobe:ns:meta/" x:xmptk="Adobe XMP Core 5.6-c111 79.158366, 2015/09/25-01:12:00        ">
   <rdf:RDF xmlns:rdf="http://www.w3.org/1999/02/22-rdf-syntax-ns#">
      <rdf:Description rdf:about=""/>
   </rdf:RDF>
</x:xmpmeta>
                                                                                                    
                                                                                                    
                                                                                                    
                                                                                                    
                                                                                                    
                                                                                                    
                                                                                                    
                                                                                                    
                                                                                                    
                                                                                                    
                                                                                                    
                                                                                                    
                                                                                                    
                                                                                                    
                                                                                                    
                                                                                                    
                                                                                                    
                                                                                                    
                                                                                                    
                                                                                                    
                           
<?xpacket end="w"?></metadata>
<g id="Layer_63">
	<path fill="#FFFFFF" d="M17,0h136c9.4,0,17,7.6,17,17.1v209.8c0,9.4-7.6,17.1-17,17.1H17c-9.4,0-17-7.6-17-17.1V17.1
		C0,7.6,7.6,0,17,0z"/>
	<path fill="#C80813" d="M74.8,66.8c0,0,5.9-12.2,12.5-20.6c6.6-8.5,11.7-13,11.8-20.5c0-4.6-3.7-11-11.2-11.2
		c-10.1-0.3-13.1,9.2-13.1,9.2s-3-9.5-13.1-9.2c-7.5,0.2-11.3,6.6-11.2,11.2c0.1,7.4,5.2,12,11.8,20.5
		C68.9,54.7,74.8,66.8,74.8,66.8z"/>
	<path fill="#C80813" d="M93.8,228.8c0,0,14.1-28.9,29.8-49s27.9-31,28-48.7c0.1-10.9-8.8-26.1-26.7-26.6c-24.1-0.7-31.1,22-31.1,22
		s-7-22.7-31.1-22C44.8,104.9,35.9,120.1,36,131c0.2,17.7,12.3,28.6,28,48.7S93.8,228.8,93.8,228.8z"/>
	<path fill="#C80813" d="M9.5,61.8h3.3c5-16.3,10.2-33.6,15.1-49.6h4.7c5,16.3,10,32.9,15,49.3H51V67c-5.5,0-11-0.1-16.6-0.1v-5.5
		h7.5l-3.6-11.7H22.1l-3.6,12H25v5.5H9.5V61.8L9.5,61.8z M30.2,23.2l-6.4,21.1h12.8L30.2,23.2z"/>
</g>
</svg>
