<?xml version="1.0" encoding="utf-8"?>
<!-- Generator: Adobe Illustrator 19.2.0, SVG Export Plug-In . SVG Version: 6.00 Build 0)  -->
<svg version="1.1" baseProfile="tiny" id="Layer_1" xmlns="http://www.w3.org/2000/svg" xmlns:xlink="http://www.w3.org/1999/xlink"
	 x="0px" y="0px" viewBox="0 0 170 244" xml:space="preserve">
<metadata><?xpacket begin="﻿" id="W5M0MpCehiHzreSzNTczkc9d"?>
<x:xmpmeta xmlns:x="adobe:ns:meta/" x:xmptk="Adobe XMP Core 5.6-c111 79.158366, 2015/09/25-01:12:00        ">
   <rdf:RDF xmlns:rdf="http://www.w3.org/1999/02/22-rdf-syntax-ns#">
      <rdf:Description rdf:about=""/>
   </rdf:RDF>
</x:xmpmeta>
                                                                                                    
                                                                                                    
                                                                                                    
                                                                                                    
                                                                                                    
                                                                                                    
                                                                                                    
                                                                                                    
                                                                                                    
                                                                                                    
                                                                                                    
                                                                                                    
                                                                                                    
                                                                                                    
                                                                                                    
                                                                                                    
                                                                                                    
                                                                                                    
                                                                                                    
                                                                                                    
                           
<?xpacket end="w"?></metadata>
<g id="Layer_17">
	<path fill="#FFFFFF" d="M17,0h136c9.4,0,17,7.6,17,17.1v209.8c0,9.4-7.6,17.1-17,17.1H17c-9.4,0-17-7.6-17-17.1V17.1
		C0,7.6,7.6,0,17,0z"/>
	<path fill="#171717" d="M81.6,70.2c0,0-2.5-3.4-3.9-7.5c-1.4-4-1.9-9.5-1.9-9.5s3.9,6.1,10.7,6c6.8-0.1,11.6-5.9,11.6-11.7
		c0-5.9-5.1-11.5-10.4-11.8s-6.9,0.9-6.9,0.9S85,33,84.9,26.1C84.8,15.4,73.8,15,73.8,15s-11,0.3-11.2,11.2
		c-0.1,6.9,4.1,10.5,4.1,10.5s-1.5-1.2-6.9-0.9c-5.3,0.3-10.4,5.9-10.4,11.8S54.3,59.2,61,59.3c6.8,0.1,10.7-6,10.7-6
		s-0.5,5.4-1.9,9.5c-1.4,4-3.9,7.5-3.9,7.5h15.7V70.2z"/>
	<path fill="#171717" d="M39.4,22.2h6.1v-5.4H27.6v5.4H34v35.5l0,0c-0.2,4.2-3.6,7.5-7.8,7.5s-7.6-3.3-7.8-7.5v-8.5H13V58h0.1
		c0.3,7,6.1,12.6,13.2,12.6c7.2,0,13-5.7,13.2-12.9l0,0L39.4,22.2L39.4,22.2z"/>
	<g>
		<path fill="none" d="M94,198.7c0,1.9,0,3.7,0,5.6C94.6,203.3,94.6,199.8,94,198.7z"/>
		<path fill="none" d="M108.4,176.4c0.8,0.4,0.1,2.3,0.4,3.4C109.6,179.4,109.2,175.1,108.4,176.4z"/>
		<path fill="none" d="M105.5,166.3c0.4,1.3-1.2,0.6-1.9,0.8c0,0.8,1.6,0.2,2.2,0.4c0.1-0.8-0.1-1.4-0.7-1.5
			C104.5,166.2,105.1,166.4,105.5,166.3z"/>
		<path fill="none" d="M102.5,173c-1,0.3-3.5-0.8-3.3,0.7C99.6,172.9,102.1,174,102.5,173z"/>
		<path fill="none" d="M99.9,220.7c1.9-1.9,6.5-1.2,8.9-2.6C106.1,218.9,100.4,218.6,99.9,220.7z"/>
		<path fill="none" d="M110.3,161.5c-1.1-0.8-2.6-1.1-4.5-1.1C106.9,161.1,108.8,161.1,110.3,161.5z"/>
		<path fill="none" d="M109.9,202.1c0-2.1,0-4.2,0-6.3C109.3,197,109.3,200.8,109.9,202.1z"/>
		<path fill="none" d="M109.9,194.3c0-1.4,0-2.7,0-4.1C109.3,190.7,109.3,193.8,109.9,194.3z"/>
		<path fill="none" d="M102.9,182.4c-0.3,0.9-0.7-0.2-1.9,0.7c1.1,0,2.4,0.2,2.2-1.1c0.1-1.4-2.3-0.2-2.6-1.1
			C99.5,182.3,103.4,180.8,102.9,182.4z"/>
		<path fill="none" d="M128.8,230.8c0,0.6-0.1,1.1-0.3,1.6h1.7C129.8,231.6,129.4,231,128.8,230.8z"/>
		<path fill="none" d="M115.9,232.4h0.4c-0.2-0.5-0.4-1-0.5-1.6C115.6,231.2,115.7,231.8,115.9,232.4z"/>
		<path fill="none" d="M105.8,226.3c0.5,0.8-1,1.4,0,1.5c0.8,0.1,0.2-1.3,0.4-1.9c-1.2-0.2-1.7,0.3-2.6,0.4c0-0.4-0.3-0.4-0.4-0.7
			C102.6,226.6,104.4,226.7,105.8,226.3z"/>
		<path fill="none" d="M126.6,222.6c-1.5,0.2-1.6,1.9-2.2,3c0.5,0.7,0.9,1.6,1.1,2.6c-1,1.2-3,1.5-2.6,4.1c0.1,0,0.2,0.1,0.4,0.1
			h2.5C126.8,229.8,127.5,225.9,126.6,222.6z"/>
		<path fill="none" d="M108.1,193.5c-0.9,2.1-0.1,5.8-0.4,8.6C108.6,200,107.8,196.3,108.1,193.5z"/>
		<path fill="none" d="M102.9,211.8c0,0.4,0,0.7,0,1.1c0.1,0,0.2,0,0.4,0c0.6-0.7,0-0.5,0-1.5c-1,0-2.1,0.1-2.6-0.4
			C100.3,212.4,102.1,211.6,102.9,211.8z"/>
		<path fill="none" d="M101.8,197.3c-0.4,1-3.2,1-4.1,0.4c0-2.1,0-4.2,0-6.3c-0.7,1.4-0.6,5.3,0,6.7c1.2,0.7,4.5,0.7,4.4-1.1
			c0.2-1.3-2-0.2-2.2-1.1C98.5,196.9,102.2,195.9,101.8,197.3z"/>
		<path fill="none" d="M107.3,188.7c-2.5,0-4.9,0-7.4,0C101.5,189.3,105.7,189.3,107.3,188.7z"/>
		<path fill="none" d="M120.7,90.3c0.5-1.7-0.6-4.2-1.5-2.2C120.9,86.5,119.8,89.9,120.7,90.3z"/>
		<path fill="none" d="M105.1,223.3c1.6,0.1,2.8-1.4,4.1-0.4c0-0.4-0.3-0.4-0.4-0.7c-1.7,0.3-4,0.3-4.1,1.5c0.6,1,3.7-0.5,3,1.9
			C109.2,223.9,106,223.8,105.1,223.3z"/>
		<path fill="none" d="M79.5,227.1c-1.4,1.8,0.6,3.5,1.5,5.4h2.3c-0.4-0.9-0.9-1.7-1.6-2.4C81.3,228.8,81.1,227.3,79.5,227.1z"/>
		<path fill="none" d="M79.1,222.6c0,2.6-1.4,3.2-2.6,4.8c-0.9,1.3-2.1,2.9-2.2,4.1c0,0.3,0,0.6,0,0.9h0.9
			C74.8,228.7,80.5,226.3,79.1,222.6z"/>
		<path fill="none" d="M108.4,227.8c-0.2,3-4.7,1.8-6.3,3.4c2.4-0.3,4-1.2,6.3-1.5C108.6,229.3,109.2,226.8,108.4,227.8z"/>
		<path fill="none" d="M62.1,226.3c2.8,0.2,4.4,1.2,4.8,3c0.2,1.1-0.1,2.1-0.7,3.1H67c0.6-0.9,1-1.8,0.9-2.8
			C67.9,227.8,66,224.9,62.1,226.3z"/>
		<path fill="none" d="M94,188.7c-0.9,2-0.1,5.6-0.4,8.2C94.5,194.9,93.7,191.3,94,188.7z"/>
		<path fill="none" d="M102.5,209.2c0.1-1.1,2.2-0.3,2.6-1.1c-1.3,0.1-2.8-0.1-3,1.1c0,0.8,1.6,0.2,2.2,0.4
			C104.4,208.7,103,209.4,102.5,209.2z"/>
		<path fill="none" d="M58.7,228.6c0.3,1.6,0.9,2.7,1.6,3.9h2.4c-0.2-0.5-0.5-0.9-0.6-1.3C61,230.2,60.9,227.3,58.7,228.6z"/>
		<path fill="none" d="M53.9,231.2c-0.3,0.4-0.6,0.8-1,1.3h3.4c0.2-0.4,0.4-0.8,0.5-1.3C55.9,231.2,54.9,231.2,53.9,231.2z"/>
		<path fill="none" d="M102.5,178.3c1.3-1.4,2.2-0.3,4.4-0.4c-1.4-1.1-2.9-0.4-4.4-0.7c0.1,0.7-0.4,0.8-0.4,1.5
			c0.5,0.6,2.1,0.1,2.6,0.8C105.8,178.6,102.7,178.9,102.5,178.3z"/>
		<path fill="none" d="M102.5,171.6c1.9-0.4,5.4,1.7,5.9-0.8C107.4,172.8,103.8,170.3,102.5,171.6z"/>
		<path fill="none" d="M105.1,211c-0.3,1,0.8,3.5-0.7,3.4C105.6,216,105.9,211.6,105.1,211z"/>
		<path fill="none" d="M108.1,164.8c-0.8-0.6-2-0.7-2.6-1.5c-0.1-0.7,0.5-0.7,0.7-1.1c-1-0.1-1.2,0.5-1.1,1.5c0.8,0.5,2,0.7,2.6,1.5
			c0,0.5,0,1,0,1.5C108.5,166.8,107.9,165.4,108.1,164.8z"/>
		<path fill="none" d="M101.4,184.6c-1.5,0-3,0-4.4,0C97.6,185.2,100.7,185.2,101.4,184.6z"/>
		<path fill="none" d="M103.2,192.8c0.6-0.1,1.4,0.1,2.6,0c0.2,0.8-0.5,2.4,0.4,2.6c0-1.1,0.2-2.4-0.4-3c-1.9-0.1-5.5-0.2-4.4,1.5
			c0.1,0,0.2,0,0.4,0C102.2,193.3,101.5,193.1,103.2,192.8z"/>
		<path fill="none" d="M95.8,199.9c0-2.1,0-4.2,0-6.3C95.2,194.8,95.2,198.6,95.8,199.9z"/>
		<path fill="none" d="M96.6,186.8c0,0.5-1.5,1.1-0.4,1.5c-0.1-2,2.9-0.8,4.4-1.1C100,186.3,97.8,187.1,96.6,186.8z"/>
		<path fill="none" d="M152.2,216.6c-2.4,4.4-4.6,8.8-4.5,15.3c1.2-0.3,1.6-1.7,2.2-2.6c3-4.4,5.8-9.8,4.8-16.4
			C153.3,213.5,152.9,215.3,152.2,216.6z"/>
		<path fill="none" d="M113.6,141.7c0,1.6,0,3.2,0,4.8C114.2,145.8,114.2,142.5,113.6,141.7z"/>
		<path fill="none" d="M121.8,164.5c0.1,0.3,0,0.7,0.4,0.7c0.8-2.2,3.5-2.4,3.3-5.6C124.8,161.8,123.5,163.4,121.8,164.5z"/>
		<path fill="none" d="M154.4,183.1c1.7-4.1-3,0-3.3,1.1C152,184,155.1,179.3,154.4,183.1z"/>
		<path fill="none" d="M152.9,192.4c-0.3,0.5-0.8,0.7-1.1,1.1c-0.4,0.6-0.4,1.2-0.7,1.9c-0.2,0.4-0.9,0.7-1.1,1.1
			c-1.3,2.3-2.3,6.2-1.5,8.9c2.8-4.6,6.8-8.1,6.7-15.6C153.7,189.7,153.5,191.5,152.9,192.4z"/>
		<path fill="none" d="M154.8,175.6c-1.9,0.5-4.5,0.2-6.3,0.7c-0.4,2.7,1.5,3,3.7,3c0.6-0.4,0.6-1.4,1.1-1.9
			c0.8,0.2,0.1,1.9,1.5,1.5C156,178.6,155.6,176.2,154.8,175.6z"/>
		<path fill="none" d="M148.1,179.4c0.2,1.3-0.5,3.5,0.4,4.1c0.6-1.3,2.1-1.7,1.9-3.7C149.5,179.8,149.2,179.1,148.1,179.4z"/>
		<path fill="none" d="M151.8,160.7c2.2-0.7,1.5-3.9-0.7-4.1C148.9,157.2,149.3,160.9,151.8,160.7z"/>
		<path fill="none" d="M149.2,175.3c0.4-0.8,0.1-2.4,1.1-2.6c1,0.9-0.5,2.3,0.4,3c2.1,0.3,1.3-2.4,2.6-3c0,0.7,0,1.5,0,2.2
			c0.6,0,1.2,0,1.9,0c0.2-1.3,0.6-2.2,0-3.3c-2.9-0.2-8.2-0.8-8.5,2.6C146.9,175.1,147.8,175.5,149.2,175.3z"/>
		<path fill="none" d="M150.3,123.1c2.7-4,5.8-9,4.8-15.3c-1.4,0.5-2.1,2.7-2.6,3.7c-0.1,0.1-0.7,0.2-0.7,0.4
			c-0.4,0.7-0.7,1.7-1.1,2.6c-1.4,2.9-2.5,5.9-2.2,10.4C149.5,125,149.8,123.9,150.3,123.1z"/>
		<path fill="none" d="M149.2,111.9c0.6-0.4,1.3-1.5,1.5-2.2C150,110.2,149.5,110.9,149.2,111.9z"/>
		<path fill="none" d="M148.5,110.1c-0.2,1.9,0.2,2.2,0.7,1.9C148.2,112.1,149.5,109.9,148.5,110.1z"/>
		<path fill="none" d="M148.5,100.8c1.9-0.7,3.1-3,4.1-4.8c1-1.9,2.5-4.1,1.9-6.3c-0.7,0-1.5,0-2.2,0c-0.8,1.6-0.3,2.8-0.7,4.1
			C150.6,96.2,147.6,97.2,148.5,100.8z"/>
		<path fill="none" d="M145.2,123.5c0,2.6,0,5.2,0,7.8C145.8,129.6,145.8,125.2,145.2,123.5z"/>
		<path fill="none" d="M154.8,155.2c-0.3,0.9-0.5,2-0.4,3.4C156.1,158.9,155.9,155.2,154.8,155.2z"/>
		<path fill="none" d="M146.6,167.1c-1,1.4-0.9,3.6,1.5,3.3c0.9-0.6,0.4-2.6,1.1-3.3c0.8,0.4,0.1,2.3,0.4,3.3c0.7,0,1.5,0,2.2,0
			c0.6-0.6-0.2-2.7,1.1-2.6c0,0.9,0,1.7,0,2.6c1.2,0.2,1.7-0.3,2.6-0.4c-0.1-1.5,0.3-3.6-0.4-4.5
			C151.8,165.5,149.4,166.5,146.6,167.1z"/>
		<path fill="none" d="M154.8,132.8c-1.7,3.2-4.3,5.7-5.2,9.7c0,0.1,0,0.2,0,0.4c-0.9,1.4-1.7,4.6-0.4,5.2
			C151.6,143.7,156.1,139.6,154.8,132.8z"/>
		<path fill="none" d="M154.8,120.5c0,0-0.7,1-0.7,1.1c-0.2,0.3-0.6,0.7-0.7,1.1c0.1,0,0.2,0,0.4,0c0.4-0.7,0.6-1.6,1.5-1.9
			c0,1,0,2,0,3C155.8,122.4,156,120.7,154.8,120.5z"/>
		<path fill="none" d="M145.5,170.1c-1.4-2.1,1.1-3,1.1-4.8c-0.5,0.3-0.9,2.5-1.5,1.5c-0.2-0.7,0.4-2.2-0.4-2.2c0,2,0,4,0,6
			C145.8,170.5,146.1,171.1,145.5,170.1z"/>
		<path fill="none" d="M147,192.4c0-2.4,0-4.7,0-7.1C146.4,186.8,146.4,190.9,147,192.4z"/>
		<path fill="none" d="M117.7,151.8c-1.4-0.5-1.4-2.3-2.2-3.4C115.5,150,116.9,152.2,117.7,151.8z"/>
		<path fill="none" d="M144.8,189.4c0,1.4,0,2.7,0,4.1C145.4,193,145.4,190,144.8,189.4z"/>
		<path fill="none" d="M144.8,172.3c0,5.6,0,11.2,0,16.8C145.4,184.3,145.4,177,144.8,172.3z"/>
		<path fill="none" d="M146.6,220.4c0-4.5,0-8.9,0-13.4C146,210.6,146,216.8,146.6,220.4z"/>
		<path fill="none" d="M115.5,125.7c0,1.4,0,2.7,0,4.1C116.1,129.3,116.1,126.2,115.5,125.7z"/>
		<path fill="none" d="M138.8,229.3c-0.6-1.8,0.2-3.9-0.4-5.6c-0.1-0.4-0.6-1.2-0.7-1.5c-0.7-1.3-2-2.1-2.6-3.7
			c0.3-2,0.6-3.8,0.4-5.6c-0.4-2.8-2.4-4.8-3.3-6.7c2.5-3.8,1.3-9.9-0.4-12.7c1.8-1.9,2.7-9.2-0.7-9.3c-0.6,0-1,0.9-1.9,0.7
			c-1.6,2.7-0.6,8,0.7,10.1c-1.3,1.8-1.7,4.5-1.5,7.8c0.4,1.2,1.7,2.5,1.9,4.1c0.1,1.2-0.7,2.5-0.7,3.7c-0.4,5.2,2.2,6.1,4.1,9.3
			c-0.4,2.2-1,4.1-0.4,6c0.7,2.1,3.4,3.4,4.1,5.6c0,0.3,0,0.6,0,0.9h4.1C140.4,231.5,139.2,230.6,138.8,229.3z M130.3,185.7
			c0.4,0,0.7,0,1.1,0c1.1,1.6,1,5.2-0.4,6.3C128.9,191.5,129.4,187.2,130.3,185.7z M131.4,196.9c1.6,2.1,0.8,5,0,7.5
			C128.8,204.1,128.8,197.2,131.4,196.9z M133.7,217.4c-2.3-1.3-2.8-4.4-2.6-8.2C133.2,208.2,135.6,215.2,133.7,217.4z M137,228.2
			c-1.8-1.1-3.1-4.1-2.2-6.7C137,222,137.9,225.7,137,228.2z"/>
		<path fill="none" d="M146.6,230.4c0-3.2,0-6.5,0-9.7C146,223.1,146,228.1,146.6,230.4z"/>
		<path fill="none" d="M148.9,166c1.1-0.4,0.3-2.7,1.1-3.4c0.5,0.5,0.2,1.8,0.7,2.2c1.9,0,3.9,0.2,4.8-0.7c-0.1-1.2,0.2-2.7-0.4-3.3
			c-0.8-0.2-2.1,0.1-3.3,0.4c-1.1,0.2-2.8,0.4-3.3,0.7C147,163,145.8,165.4,148.9,166z"/>
		<path fill="none" d="M149.2,83.6c0.8,0.4,2.9-2.8,4.8-3.3h-0.8C151.8,80.9,150.6,82.9,149.2,83.6z"/>
		<path fill="none" d="M146.6,232.4L146.6,232.4v-0.1C146.6,232.3,146.6,232.4,146.6,232.4z"/>
		<path fill="none" d="M16.8,176.4c0,0.5-0.5,0.5-0.4,1.1c0.7,0.2,0.9,0.8,1.9,0.7C18.5,177,18.2,176.1,16.8,176.4z"/>
		<path fill="none" d="M154.8,86.6c0-1.6-2.8-0.4-4.1-0.7C151.3,86.8,154.1,85.6,154.8,86.6z"/>
		<path fill="none" d="M145.2,144c0,2.4,0,4.7,0,7.1C145.8,149.6,145.8,145.5,145.2,144z"/>
		<path fill="none" d="M154.8,228.2c0.1,0.5-0.1,1.4,0.4,1.5c0-1,0.2-2.2-0.7-2.2c-0.2,1.2-1.2,1.8-1.5,3
			C154.1,230.2,153.7,228.4,154.8,228.2z"/>
		<path fill="none" d="M157.4,232.4h0.3v-34.1C157.3,208.5,157.3,221,157.4,232.4z"/>
		<path fill="none" d="M145.5,87.3c0.8-1.5,2.8-1.7,3.3-3.4c-1,1.4-4.2,2.4-3.7,4.1c2.5,0,4.9,0,7.4,0C151.1,87,147,88.4,145.5,87.3
			z"/>
		<path fill="none" d="M123.3,82.1c1.6,0.5,3.1,1.3,4.1,1.9c0.4,0.2,1.2,0.5,1.5,0.7c1.4,1.2,1.9,3.2,3.3,4.5c0,0.1,0,0.3,0,0.4
			c0.7,2.5,1.4,5,1.9,7.8c0.1,1.3-0.3,3,0.4,3.7c-0.3,2.9,1.5,3.7,1.9,6c-2.7,1-5.2-0.2-7-1.1c-0.4-0.2-0.4-0.5-0.7-0.7
			c-0.5-0.3-1.1-0.1-1.5-0.4c-0.8-0.6-2.1-2-3-3c-2.9-3.2-4.4-7.2-6.3-10.8c-2.2,4.2-3.7,12.2-1.5,17.5c0,0.2,0,0.5,0,0.7
			c0.2,1.9,0.6,3.6,1.1,5.2c0.1,2.5,0.3,4.9,0.7,7.1c0,1.4,0,2.7,0,4.1c0,0.1,0,0.2,0,0.4c-0.5,3.7-0.5,7.9-1.1,11.6
			c0,0.1,0,0.3,0,0.4c-0.4,1.4-1.3,4.4-0.4,6c3.5-4.1,10.6-0.7,9.3,5.6c0,0.1,0,0.2,0,0.4c-0.6,1.4-1.4,2.6-1.9,4.1
			c3.1,1.4,5.9,3.3,9.6,4.1c2-1.6,3.9-3.6,6.3-4.8c1.3-0.7,2.7-0.7,4.1-1.5c0.3-5-0.5-8.9-0.4-13.8c-0.1-8.8,0.4-10.7,0-17.5
			c0.4-1.6,0.2-3.7,0-6.7c0-0.1,0-0.2,0-0.4c0-5.5,0-10.9,0-16.4c1.3-2.2,3.9-4.2,3-7.5c-1.7-1.2-4.4,0.8-5.9-0.4
			c2.4-2.5,6.2-5.7,8.5-7.8c0.5-0.5,1.4-0.7,1.7-1.1h-27C123.6,80.7,123.3,81.3,123.3,82.1z"/>
		<path fill="none" d="M75.4,218.1c-1.3-1.3-1.6-4.2-3.3-4.5c-1.7,1.4,0.1,3,0.7,4.5c0.7,1.5,1.4,3.2,2.2,4.5
			c0.5,0.8,0.8,1.9,1.9,1.9c0.8-0.9,0.7-1.8,0.4-3C77.1,220.8,75.4,218.1,75.4,218.1z"/>
		<path fill="none" d="M43.9,220.4c-0.9-0.1-1.2,0.6-1.9,0.7c0,0.9,0.5,1.4,1.5,1.5C44,222.2,44,221.3,43.9,220.4z"/>
		<path fill="none" d="M60.2,205.1c-0.5-3.4,3.1-6.8,2.6-9.7c-0.6,2.4-3.7,6.4-3.3,9.7c0.3,2.5,2.4,4.3,5.2,3.3
			C62.2,207.7,60.5,207,60.2,205.1z"/>
		<path fill="none" d="M68.4,205.1c-0.5-0.9-1-2.3-1.5-3c-0.6-1-2-1.5-1.9-2.6c-0.5,0-0.5-0.5-1.1-0.4c-0.2,0.4-0.4,0.8-0.7,1.1
			c1.3,3.5,3.8,5.9,5.2,9.3C71.5,208.9,68.9,206,68.4,205.1z"/>
		<path fill="none" d="M88,206.2c-1.3-0.6-2.3,0.9-3.3,1.5c-2.4,1.5-4.5,3.1-6.3,4.8c-1.1,1-2.1,2.1-2.6,3.4
			c0.4,0.7,0.6,1.6,1.5,1.9c1-1.4,2.1-2.3,3.3-3.3c1-0.9,1.7-1.8,2.6-2.6c0.9-0.7,2-1.3,3-2.2C87.1,208.7,88.8,208.3,88,206.2z"/>
		<path fill="none" d="M93.6,222.2c-0.3-1.1,0.5-1,0.4-1.9c-0.6,0-1.2,0-1.9,0C92.1,221.5,93,221.7,93.6,222.2z"/>
		<path fill="none" d="M95.1,228.9c0.5-0.5,0.5-1.8,0-2.2C93.1,226.4,93.3,229.1,95.1,228.9z"/>
		<path fill="none" d="M85.4,230.8c3.5,1.2,6.1-2.7,5.2-6C88.2,226.2,86.5,228.4,85.4,230.8z"/>
		<path fill="none" d="M92.5,212.5c-0.5,0-1,0-1.5,0c0,1.1,0.3,1.9,1.1,2.2C92.5,214.3,92.5,213.5,92.5,212.5z"/>
		<path fill="none" d="M127.7,85.5c1.5,1.5,2.6,3.3,3.7,5.2C130.8,88.3,129.5,86.7,127.7,85.5z"/>
		<path fill="none" d="M43.9,226.7c0.2,0.9,0.5,1.7,1.5,1.9c0.4-0.4,0.4-1.3,0.4-2.2C44.9,226.2,44.3,226.4,43.9,226.7z"/>
		<path fill="none" d="M57.3,227.1c-1.4,0-2.6-1.1-3.3-0.7c1.5,0.9,4.4,1.6,5.9,0.4C58.9,226.3,58.1,227.1,57.3,227.1z"/>
		<path fill="none" d="M57.6,224.5c0.3-1.5-1-3.3-1.9-4.8c-0.4-0.7-1-1.5-1.5-2.2c-0.6-0.8-0.8-2.3-2.2-1.9c-1,1.8,1,3.3,1.9,4.8
			C54.8,221.8,55.2,224.8,57.6,224.5z"/>
		<path fill="none" d="M118.8,197.6c-1.8-0.3-2.1,0.9-2.6,1.9c0.7,0.3,1.1,0.9,1.9,1.1c1.5-1.2,3.8-3.6,4.4-6.3
			c0.3-1,0.5-2.8,0.4-3.7c0-0.4-0.1-1.9-1.1-1.9c-1.2,0.4-0.3,2.1-0.4,3.4C121.2,194.9,120.4,196.9,118.8,197.6z"/>
		<path fill="none" d="M56.9,211.8c-3.3-0.3-7.5,2.9-10,1.5c-0.1-0.4-0.4-0.6-0.7-0.7c0.1-0.6-0.4-0.9-0.4,0
			c2.8,5.1,13.3-3.8,14.5,3.4c0.3,2.1-1.2,2.5-0.7,4.1C63,216.7,60.7,212.2,56.9,211.8z"/>
		<path fill="none" d="M92.1,173c1.2,0,1.3-1,1.5-1.9c-0.6,0-1.2,0-1.9,0C91.4,172.2,92.3,172.1,92.1,173z"/>
		<path fill="none" d="M121.8,89.2c2-0.1,2,1.8,3.3,2.2c-1-1-1.4-2.5-3.3-2.6c-0.5,0.5-0.4,1.6-0.4,2.6
			C122.2,91.4,121.6,89.9,121.8,89.2z"/>
		<path fill="none" d="M116.2,182c1.2-1.3,2-3,2.6-4.5c-1.1-1.4-3.2-1.8-3.7-3.7c0.9-2.2,2.8-3.4,4.1-5.2c-0.9,0.1-1.6,2.3-2.2,1.5
			c2.4-1,0-3.1-0.4-4.5c1.2,0.5,1.3,2.2,2.6,2.6c-1.1-1.7-2.6-2.9-3.3-4.8c1.2-1.3,2.4-2.5,4.4-3c0.2-1.2-0.5-1.5-1.1-1.9
			c0.3,0.7,1.2,1.1,0.4,1.9c-0.6,0.1-0.6-0.3-1.1-0.4c-0.8,1.9-2.8,1.9-3,3.7c-0.2,2,2.1,3,2.2,5.2c-1.1,1.9-3.3,2.6-3.3,5.6
			c0.6,1.7,3,1.7,3.3,3.7c-1.6,2-2.8,4.4-3.3,7.4c1.5-0.5,1-2.3,1.5-3.4C115.8,182.4,116.2,182,116.2,182z"/>
		<path fill="none" d="M68.4,220.4c-1.4-3.1,0.7-4.9,1.5-6.3c0.5-0.8,0.8-1.3,1.1-1.9c0.6-1,1.6-2.4,0.7-3.3c-0.6,2.1-2,4.3-3,5.6
			c-0.3,0.4-0.5,0.7-0.7,1.1c-2.1,3.6-0.5,8.1,4.4,7.5C70.4,222.1,69.1,221.9,68.4,220.4z"/>
		<path fill="none" d="M91,111.9c-1.5,0.1-0.9,2.3-2.2,2.6c-2.5,0.5-2.5-1.5-3.7-2.2C83.5,116.6,91.9,117.5,91,111.9z"/>
		<path fill="none" d="M112.1,132.4c0.8-0.5,0.1-2.6,0.4-3.7c0.4-1.3,0.4-2.6,0-4.5c0.3-2.8-0.5-4.4-0.4-7.1
			c-2.4,0.4-7.1,0.6-8.2-0.4c-0.6-0.5-1.6-0.6-1.5-1.5c0.1-1.3,1.8-2,3-2.6c2-1.1,4.6-2,6.7-1.1c-1.8-4-7.4,0.8-8.5,0
			c0.8-1.3,2.4-1.9,4.4-2.2c1.9-0.3,4.2,0.8,5.2-0.4c-0.5-4.4-5.8-1.7-8.5-1.1c-0.7,2.4-3.1,3.8-3.3,6.7c-0.1,0.9,0.6,2.6,0.7,4.1
			c0.2,2.6,0.5,5.3,1.1,6.7c0,0.1,0,0.3,0,0.4c-0.2,1.7,0.2,2.8,0.4,4.1c0,0.1,0,0.3,0,0.4c-0.5,2.9-4,3-4.1,6.3
			c-0.5-0.2-0.7-0.8-0.7-1.5c0-0.1,0-0.3,0-0.4c0.9-1.3,2.2-2.3,3.7-3c0.1-3.8-0.3-7.1-1.1-10.1c0-0.1,0-0.3,0-0.4
			c-0.2-1.4-0.3-2.9-0.7-4.1c0-1.4,0-2.7,0-4.1c1.1-1.5,2.2-3.5,3-4.8c0.7-1.1,1.2-1.9,2.2-2.6c1.3-0.9,2.8-0.7,4.5-1.5
			c1.4,0.5,1.3,2.4,3,2.6c0.4-1.2-0.4-3.9-1.1-5.2c-10.5-2.6-22.4-2.6-34.1-3.3c-1.9,3.9-3.3,9-4.1,14.5c-0.5,3.9-0.6,7.9,0,11.9
			c0,0.1,0,0.2,0,0.4c0.2,1.3-0.5,3.5,0.4,4.1c0,0.1,0,0.3,0,0.4c0.1,2.9,0.5,5.4,1.1,7.8c0,0.1,0,0.2,0,0.4
			c0.1,4.7,0.8,7.4,0.4,11.2c2.6,1.7,5.8,2.9,8.9,4.1c3.3,1.3,6.9,2.8,10.4,2.6c1-0.1,2.7-0.4,3.3-0.7c0.3-0.2,0.5-0.7,1.1-1.1
			c0.4-0.3,1.1-0.4,1.5-0.7c2.5-2.1,4.3-4.9,5.9-7.5c2.5-3.9,5.1-8.4,5.2-12.7C112.1,132.7,112.1,132.6,112.1,132.4z M93.6,134.3
			c-0.8-0.1-0.8-0.9-0.7-1.9c1-1.1,2.7-1.3,4.4-0.7C96.9,132.9,93.1,131.3,93.6,134.3z M81.4,105.2c0.3-0.3,5-2.9,6.3-2.6
			c2.4,0.6,5.2,1.6,8.2,1.9c-1.3,2.8-4,1-5.9,0.7c-1.6-0.2-3.4-0.3-4.8,0c-2.9,0.6-4.5,2.2-7.4,3C77.8,106.6,80.2,106.3,81.4,105.2z
			 M93.6,110.8c-2.4-1.2-4.3-2.5-7-1.5c-2.2,0.8-5.1,3-7.4,3.7c0-1.4,2-2.3,3.3-3c2.9-1.5,6.5-2.3,11.1-2.6c0.1,0.8-0.3,1.2-1.1,1.1
			C92.3,109.9,93.8,109.5,93.6,110.8z M80.6,114.9c-1.1-0.3-1.4,0.4-2.2,0.4c0.5-1.3,2.5-2.2,4.1-3c2.4-1.1,4.5-2,8.5-1.9
			c1.3,0.8,2.1,2.1,3.3,3c0,0.4,0,0.7,0,1.1c-2,0-2.1,1.9-3.7,2.2C86.6,116.9,82.6,116.9,80.6,114.9z M91.7,134.3
			c-1.1,0-1.4-0.8-1.9-1.5c0.1-1.5,0.7-2.5,1.1-3.7c1.1,0.5,0,1.6,0,2.2C91,132.6,91.4,133.2,91.7,134.3z M88,118.6
			c-0.1-1.6,3.1-1.4,3.7-1.1C91,118.4,89.5,118.5,88,118.6z M98.4,146.2c-0.9-0.3-3.2,0.7-3-0.7c1,0,2,0,3,0
			C98.4,145.7,98.4,146,98.4,146.2z M99.5,144.3c-1.1-0.4-3.8,0.8-3.7-0.7c1.1,0,2.2,0,3.3,0c1,0.1,0.3-1.4,1.5-1.1
			C100.7,143.6,99.9,143.8,99.5,144.3z M104.4,142.5c-1.9,0.3-2.2-1-3.7-1.1s-2.3,0.5-3,1.1c-1.2-0.3-1.9-0.7-3.3-0.7
			c-2,0-4.1,1.4-5.6,0.7c-0.5-0.2-1.3-1.4-1.1-2.2c1.3-0.1,0.7,1.8,2.2,1.5c2.7-0.6,4.3-5.1,7.8-2.6c1.2,0,1.4-1.1,3-0.7
			c1.5,0.3,2.1,1.6,2.6,3c1.3,0.2,1.9-0.3,2.2-1.1C106.6,141,104.9,142.2,104.4,142.5z M103.2,117.5c1,0.6,2.7,0.5,3.7,1.1
			C106.1,119.3,103.2,119,103.2,117.5z"/>
		<path fill="none" d="M113.3,122.4c0,1.4,0,2.7,0,4.1C113.9,125.9,113.9,122.9,113.3,122.4z"/>
		<path fill="none" d="M81.4,114.5c0.8,0.4,1.5,1,3,0.7c-0.1-0.9-0.4-1.5-0.7-2.2C82.5,113.2,81.8,113.7,81.4,114.5z"/>
		<path fill="none" d="M111.4,140.2c0,1.2,0,2.5,0,3.7C112,143.6,112,140.6,111.4,140.2z"/>
		<path fill="none" d="M107,113c-0.7,0.7-0.2,2.1,0,3c2.3,1.2,6.7-0.1,4.8-3C111.4,116.2,107.4,116.1,107,113z"/>
		<path fill="none" d="M112.9,147.3c0-2.4,0-4.7,0-7.1C112.3,141.7,112.3,145.8,112.9,147.3z"/>
		<path fill="none" d="M93.2,164.5c0.2,0.7-0.5,2.2,0.4,2.2c0.3-0.7,1-0.9,0.7-2.2C94,164.5,93.6,164.5,93.2,164.5z"/>
		<path fill="none" d="M103.6,115.7c0.6,0.2,2,1.4,2.6,0.4c-0.6-0.3-0.5-1.2-0.7-1.9C104.3,114.1,103.7,114.6,103.6,115.7z"/>
		<path fill="none" d="M126.6,101.5c-0.7,1.3,0.3,1.2,0.7,2.2c0.4,0,0.4,0.3,0.7,0.4c-0.3-0.3-0.4-0.8-0.4-1.5
			C126.9,102.7,127.3,101.5,126.6,101.5z"/>
		<path fill="none" d="M121.8,92.9c0,0.1,0,0.2,0,0.4c-0.1,0.3,0,0.7-0.4,0.7c-0.1-1.3-0.9-1.8-0.7-3.4c-0.6,0-0.2,1-0.7,1.1
			c-0.1-0.7-0.2-1.2-0.7-1.5c0.6,1.2,0.6,2.9,1.5,3.7c0-0.3,0-0.5,0-0.7C121,94.8,122.9,94.2,121.8,92.9z"/>
		<path fill="none" d="M108.4,148.8c0-0.9-0.1-1.9-1.1-1.9c0,0.7-1,0.5-0.7,1.5C107.5,148.3,107.4,149.1,108.4,148.8z"/>
		<path fill="none" d="M129.9,93.7c0,0.1,0,0.2,0,0.4c-0.1,0.3,0,0.7-0.4,0.7c-0.2-0.4-1.6-2.4-1.5-0.7c0.7,0.3,1.1,0.9,1.9,1.1
			C130.1,94.9,130.9,93.7,129.9,93.7z"/>
		<path fill="none" d="M111.4,144.3c0,1.2,0,2.5,0,3.7C112,147.7,112,144.8,111.4,144.3z"/>
		<path fill="none" d="M121,85.1c0.2,0,0.4-0.3,0-0.4c-1.3,1.6,1.4,1.6,3,1.5C123.8,85,120.7,86.8,121,85.1z"/>
		<path fill="none" d="M125.1,88.1c0.7,0,2.5,1.3,3.7,0.7c-1.6,0-3.3-1.9-4.8-0.7C125.4,89.4,124.6,88.1,125.1,88.1z"/>
		<path fill="none" d="M109.2,144c0.5-0.1,0.6-0.6,1.1-0.7c0.2,0.9-0.5,2.7,0.4,3c0-1.2,0-2.5,0-3.7
			C109.5,142.3,109.6,143.4,109.2,144z"/>
		<path fill="none" d="M31.7,212.2c1-1.1-0.9-2.6-1.1-3.7C29.9,209.3,31.9,210.5,31.7,212.2z"/>
		<path fill="none" d="M19.1,201.4c-0.7,0.6-1.5,1.3-1.9,1.9c1.5-0.9,2.7-2,4.1-3C21.2,199.8,19.7,200.9,19.1,201.4z"/>
		<path fill="none" d="M21.7,197.3c-0.3-1.7-1.3-2.6-2.2-3.7c0.2,1.7,1.9,2,1.9,4.1C21.6,197.7,21.6,197.5,21.7,197.3z"/>
		<path fill="none" d="M31.3,220c1-1.6,3.6-2.5,4.4-0.4c0.1-1.1-0.7-1.3-1.1-1.9c-1.3,0.8-3.8,0.4-3.7,2.6c0.6,0,1.2,0,1.9,0
			C32.7,219.9,31.8,220,31.3,220z"/>
		<path fill="none" d="M17.2,194.3c-1.5-0.8,1.2-2.7,2.6-3c0.2,0.5,0.6,0.9,1.1,1.1c-0.5-0.6-0.8-1.5-1.9-1.5c-1,1.1-2.6,1.7-3,3.4
			c1.1,1,1.7-0.7,3-0.7c0-0.1,0-0.3,0-0.4C18.1,193.2,17.8,193.8,17.2,194.3z"/>
		<path fill="none" d="M118.8,165.2c0.9,1.2,2,2.2,3,3.4C122.2,167.9,119.7,166,118.8,165.2z"/>
		<path fill="none" d="M21.3,189.4c0-0.1,0-0.3,0-0.4c-0.5-0.6-0.9-1.3-1.9-1.5c-2,1.9-4.3,3.4-5.9,5.6c2.2-1.6,3.9-3.8,6.3-5.2
			C20.1,188.6,20.6,189.1,21.3,189.4z"/>
		<path fill="none" d="M19.1,196.1c-1.5-0.4-1.4,0.8-2.6,0.7c0,0.1,0,0.3,0,0.4c0.9,0.3,1.5-1.6,2.2-0.4c-1.3,0.4-1.9,1.6-3.3,1.9
			c-1-1.7-2.4-3-3.4-4.7v0.6c1.1,1.4,2.3,2.8,3.1,4.5C16.8,198.6,18.5,198,19.1,196.1z"/>
		<path fill="none" d="M23.9,193.2c-0.7-1.3-1.4-2.5-2.6-3.4C22.2,190.9,22.6,192.5,23.9,193.2z"/>
		<path fill="none" d="M37.6,227.1c-0.4-0.1-0.7,0.1-0.7,0.4c1.9,0.2,1-2.8,0.4-3.4C37.1,225.3,37.9,225.7,37.6,227.1z"/>
		<path fill="none" d="M124,159.6c-1.6-1-3.6-1.6-3.7-4.1h-0.4c-0.4,1.8,2.3,3.3,3.7,4.5c-0.1,0.3,0,0.7-0.4,0.7
			C123.4,161.7,124.3,160.4,124,159.6z"/>
		<path fill="none" d="M117.3,127.2c0-1.2,0-2.5,0-3.7C116.7,123.9,116.7,126.8,117.3,127.2z"/>
		<path fill="none" d="M123.6,212.2c-0.4,0.5-0.6,1.1-1.1,1.5c0.1,2,0.6,4.1,1.9,4.5C124.7,216.1,125.2,213.2,123.6,212.2z"/>
		<path fill="none" d="M31.7,232c-0.1,0.1-0.2,0.3-0.3,0.5h0.2C31.7,232.3,31.7,232.2,31.7,232z"/>
		<path fill="none" d="M12.4,224.5c-0.6,2-0.9,6.1,1.1,6.7c0-1.5,1.4-2.9,1.1-4.5C14.4,225.7,13.2,224.4,12.4,224.5z"/>
		<path fill="none" d="M19.4,229.7c-0.9-0.1-1.5-0.4-2.2-0.7c-0.6,0.9-1.1,2.1-1.5,3.5h3C19.3,231.8,19.6,231,19.4,229.7z"/>
		<path fill="none" d="M11.9,200.8v0.6c1.1,1.8,2,3.7,3.4,5.2C14.1,204.7,13.2,202.6,11.9,200.8z"/>
		<path fill="none" d="M15.7,221.1c0.4-1.3-1.2-0.6-1.9-0.7C13.8,221.9,14.8,221.3,15.7,221.1z"/>
		<path fill="none" d="M41.7,217c0.4-1.1,0.4-1.6,0-2.6C39.1,214.1,40.5,216.8,41.7,217z"/>
		<path fill="none" d="M17.9,183.1c0.2,0,0.5,0,0.7,0c-2.2-2.5-4.5-5.1-6.8-7.6v0.8C14,178.5,16.6,180.3,17.9,183.1z"/>
		<path fill="none" d="M13.1,187.9c0.6-1.1-0.2-0.4-1.2,0.6v0.4C12.3,188.6,12.7,188.2,13.1,187.9z"/>
		<path fill="none" d="M11.9,181.3v0.4c0.7,1,2.4,2.5,3.1,3.3C14.4,183.3,12.9,182.6,11.9,181.3z"/>
		<path fill="none" d="M12.4,172.7c-0.5,0-0.5-1,0-1.1c1.3-0.3,1.3,1.3,0.7,1.9c2,0.5,0.3-2.4-0.4-2.6c-0.3,0.2-0.6,0.4-0.8,0.6v1.4
			c0.2,0.1,0.5,0.2,0.8,0.2C12.7,172.8,12.7,172.6,12.4,172.7z"/>
		<path fill="none" d="M40.6,223.3c0.4,1.3,0.6,2.9,1.5,3.7C41.6,225.8,41.5,224.2,40.6,223.3z"/>
		<path fill="none" d="M15,164.8c-0.9,0.6-0.1,2.8-0.4,4.1c-1.2-0.4-2-1.2-2.7-2.1v0.6c0.8,0.8,1.7,1.6,2.7,2.3
			C15.1,168.5,15,166.6,15,164.8z"/>
		<path fill="none" d="M118.1,211.4c2.4,2.1,3.5-1.6,4.1-3.7c0.8-2.5,1.4-5.5,0-7.4c-3.1,2.1-0.4,5.5-1.1,8.9
			C120.5,210.4,118.2,209.8,118.1,211.4z"/>
		<path fill="none" d="M15.7,151.4c6.8-4.7,14.3-7.7,23.4-10.1c-0.1-0.3,0-0.7-0.4-0.7c-1.2-2.9-1-5.4,1.1-6.7c2.3-1.5,4.6,0,7-0.4
			c1.6-6.8,0.8-15.5,1.5-22.7c0.4-4.5,2.4-8,3.3-11.2c-0.3-1.2-1.4-1.8-2.2-2.6c-1.7-1.9-3.7-4.4-5.6-5.6c-2.9-1.9-4.2-4.2-7-7.1
			c-1.3-1.3-2.8-3-4.1-4H11.9v74c0.3-0.2,0.6-0.5,0.8-0.7C13.9,152.7,14.7,152.2,15.7,151.4z"/>
		<path fill="none" d="M29.8,203.6c0.4-0.4-0.5-2.7-1.9-2.6c-1.7,1-3.5,1.9-4.8,3.4c1.9-0.8,3-2.4,5.2-3
			C29.3,201.7,29.3,202.9,29.8,203.6z"/>
		<path fill="none" d="M31.7,214.4c0.7,0.8,3.9-1,2.6-2.2C34.4,214,32.8,213.9,31.7,214.4z"/>
		<path fill="none" d="M19.4,205.1c-0.1,0.9,0.7,1.2,0.7,2.2h0.4c-1.3-3-0.3-3.1,1.5-4.8C21,203.2,19.5,203.7,19.4,205.1z"/>
		<path fill="none" d="M25.7,218.1c1.3-1.3,3.4-1.8,4.8-3C28.7,215.9,26.2,216.6,25.7,218.1z"/>
		<path fill="none" d="M26.5,208.8c-0.1,1.9-2.5,3.1-4.1,2.2c0,0.1,0,0.3,0,0.4C23.9,212.8,28,209.6,26.5,208.8z"/>
		<path fill="none" d="M114,117.9c0.3-1.2-0.7-5.2-0.7-2.6C114.1,115.6,113.1,117.7,114,117.9z"/>
		<path fill="none" d="M120.3,221.5c0.3,0.7,0.7,1.3,1.9,1.1c0.9-0.9,1.2-2.3,1.9-3.4C122.2,219.4,120.4,219.6,120.3,221.5z"/>
		<path fill="none" d="M31.7,231.9c2.1-0.8,5.4-1.9,7-2.6c0.5-0.2,2.6,0,1.5-1.1C38.5,230.1,33.4,230,31.7,231.9z"/>
		<path fill="none" d="M30.6,217.4c-0.6-0.9-1.8,0.7-2.6,0.7c0.1,0.6-0.1,1.4,0.4,1.5c0-0.5,0-1,0-1.5
			C29.4,218.2,29.5,217.3,30.6,217.4z"/>
		<path fill="none" d="M16.5,187.2c-1.3,0.8-2,2-3,3c-0.5,0.5-1.1,0.9-1.6,1.3v0.5C13.3,190.3,15.2,189.1,16.5,187.2z"/>
		<path fill="none" d="M60.2,141c-0.3,0.9-2.4,2.1-1.5,3c0.3-1.6,1.5-2.2,2.2-3.4c-2.7-0.1-3.5,1.7-4.1,3.7
			C58,143.3,58.1,141.1,60.2,141z"/>
		<path fill="none" d="M39.1,152.2c0.1,0.3,0,0.7,0.4,0.7c0-1.6,0-3.2,0-4.8c-0.4,0.1-0.4,0.6-0.4,1.1c-0.8,0-1.4-2.2-2.2-1.1
			c0.1,0,0.2,0,0.4,0c2.6,1,2.2,5.7-1.5,5.2C37,154.5,38.3,152.6,39.1,152.2z"/>
		<path fill="none" d="M55.4,139.1c0,0.8-2,1.4-1.1,1.9c0-0.1,0-0.3,0-0.4c0.9-0.6,1.6-1.3,2.2-2.2c-2.4,0-3.4,1.3-4.1,3
			C53.4,140.6,53.6,139,55.4,139.1z"/>
		<path fill="none" d="M64.3,125.7c-0.2-1.6,0.5-4.2-0.4-5.2C64.2,122.1,63.4,124.7,64.3,125.7z"/>
		<path fill="none" d="M39.1,143.6c0.2,1-0.5,3,0.4,3.4c-0.1-1.3,0.3-3-0.4-3.7c-1-0.2-1.7,0.2-2.6,0.4c-0.6,0.2-2.3,0-2.2,1.1
			C35.6,144,37,143.5,39.1,143.6z"/>
		<path fill="none" d="M67.6,98.5c-1.3,0-1.4,1.1-1.9,1.9c0.9,0,0.5-1.5,1.5-1.5c0.4,0.7-1.1,1.2,0,1.5
			C67.1,99.5,67.9,99.6,67.6,98.5z"/>
		<path fill="none" d="M62.4,142.5c0.5-0.2,0.9-0.6,1.1-1.1c-1.9-0.2-2.7,0.8-3.3,1.9c0.8-0.4,1.2-1.2,2.2-1.5
			C62.4,142,62.4,142.2,62.4,142.5z"/>
		<path fill="none" d="M40.6,135c0,0.5-0.2,0.8-0.4,1.1c0.4-0.6,2.3-1.6,1.5-2.2c-1,0.7-2.4,1.1-2.6,2.6
			C39.7,136.2,39.7,135.1,40.6,135z"/>
		<path fill="none" d="M49.8,140.2c1.2-0.6,1.6-2.1,3.3-2.2c-0.1,0.9-2.3,1.7-1.5,2.2c0.5-1.1,1.7-1.5,2.2-2.6
			C51.7,137.7,50.6,138.7,49.8,140.2z"/>
		<path fill="none" d="M52.8,159.3c0.3-1.3-1-1.7-1.5-1.1C51.2,159.1,51.8,159.4,52.8,159.3z"/>
		<path fill="none" d="M50.2,144c0-0.4-0.2-0.9-0.4-0.4c0.4,0.5,0.3,1.4,1.1,1.5c0-1.1,0-2.2,0-3.3C49.9,141.7,51.3,144,50.2,144z"
			/>
		<path fill="none" d="M39.1,163.7c-0.8-0.3-1.1-1.1-2.2-1.1c0.8,0.5,1.5,1.2,2.2,1.9c0.8-1.3,0.2-4,0.4-6
			C38.6,159.5,39.3,162.1,39.1,163.7z"/>
		<path fill="none" d="M52.4,145.1c0,0.1,0,0.3,0,0.4c1.6,1.4,1-1.7,1.1-3C52.5,142.7,54,146.5,52.4,145.1z"/>
		<path fill="none" d="M71.4,142.5c-0.2-0.6-1.2-0.3-0.7-1.5c-1.1,0.8,0.5,1.9,1.5,1.9c-0.2-0.7,0.4-2.2-0.4-2.2
			C71.5,141.2,72.2,142.6,71.4,142.5z"/>
		<path fill="none" d="M124.7,147c0.2-4.8-7.9-4.8-8.2-0.4C117.9,142.6,123.7,142.5,124.7,147z"/>
		<path fill="none" d="M65.4,126.5c0,1.2,0,2.5,0,3.7C66,129.8,66,126.9,65.4,126.5z"/>
		<path fill="none" d="M28,174.5c3.4,0.2,6.2,1.4,8.5,1.1c0-1.5-1.9-1.2-3-1.5c-2.3-0.5-5.3-0.5-8.2-0.7c-2.2-0.2-5.5-1.5-6.3,0.7
			C21.7,175,25,174.3,28,174.5z"/>
		<path fill="none" d="M43.2,135.8c0,0.8-2.5,1.7-0.7,1.9c0.1-1.7,2-1.5,2.2-3c-2.1,0.1-2.9,1.5-3.7,3
			C41.8,137.4,42.4,134.9,43.2,135.8z"/>
		<path fill="none" d="M68.4,129.8c0,1.4,0,2.7,0,4.1C69,133.4,69,130.3,68.4,129.8z"/>
		<path fill="none" d="M70.2,136.5c0.9-0.9,0.1-3.3,0.4-4.8C69.8,132.6,70.5,135,70.2,136.5z"/>
		<path fill="none" d="M64.7,135.4c0-2,0-4,0-6C64.1,130.6,64.1,134.3,64.7,135.4z"/>
		<path fill="none" d="M31.3,157c0,0.5,0.7,0.3,0.7,0.7c-0.8,0.1-2.3,1.4-1.5,1.9c0.3-0.8,0.7-1.5,1.9-1.5c-0.3-0.8,1.9-0.7,0.7-1.1
			c-0.5-0.2-1.9,0.4-1.9-0.4C31.1,156.6,30.9,156.9,31.3,157z"/>
		<path fill="none" d="M67.6,132.8c-0.2-1.3,0.5-3.5-0.4-4.1C67.5,130,66.8,132.2,67.6,132.8z"/>
		<path fill="none" d="M62.4,114.5c0,2.9,0,5.7,0,8.6C63.1,121.1,63.1,116.5,62.4,114.5z"/>
		<path fill="none" d="M68.8,99.6c0.7,0,0.5-1,1.5-0.7c-0.3,0.7-0.6,1.4-0.7,2.2c0.7-0.5,0.8-1.7,1.1-2.6
			C69.4,98.3,69.1,99,68.8,99.6z"/>
		<path fill="none" d="M28,163c0.3-0.8,2.4,0.1,2.6-0.7c-2.3-0.7-3.6,1.5-4.4,1.1c0.2-3.4-0.5-7.7,0.4-10.4c0.2,0.9,1.1,0.9,0.4,0
			c-0.8-1-0.4-3.4,0.7-3.7c-0.7-1-1,1.6-1.5,0.4c-0.7-1.6,0.9-2.9,3-3.3c-0.1,0.9,0.6,1.1,0.7,1.9c-0.9,0-1.8-0.1-1.9,0.7
			c0.4-0.4,1.3-0.4,2.2-0.4c-0.3-1.1-0.6-2.1-1.5-2.6c-1,0.6-2.2,1.1-3,1.9c0,5.8,0,11.7,0,17.5C27,165,26.6,163.1,28,163z"/>
		<path fill="none" d="M69.9,117.9c0-1.4,0-2.7,0-4.1C69.3,114.3,69.3,117.4,69.9,117.9z"/>
		<path fill="none" d="M66.9,123.5c0-3,0-6,0-8.9C66.3,116.7,66.3,121.4,66.9,123.5z"/>
		<path fill="none" d="M47.6,139.9c0.8-0.9,1.5-2,2.6-2.6c-0.3,0.7-0.9,1.1-1.1,1.9c0.6-1,1.9-1.3,2.2-2.6
			C49.5,137,48.3,138.2,47.6,139.9z"/>
		<path fill="none" d="M54.7,113c0,1.6,0,3.2,0,4.8C55.3,117.1,55.3,113.8,54.7,113z"/>
		<path fill="none" d="M58.4,101.1c0.7,0,0.3-1.2,1.1-1.1c0.1,0.3,0,0.7,0.4,0.7c-0.1-0.7,0.4-0.8,0.4-1.5
			C59.2,99.4,58.5,100,58.4,101.1z"/>
		<path fill="none" d="M58.7,168.2c-0.4,4.2,0,11-0.4,15.7c-0.1,1-0.6,2.2-0.4,3c0.2,0.9,1.9,2.7,2.6,2.6c0.6-6.3,0.4-13.5,0.7-20.1
			C60.6,168.8,59.8,168.3,58.7,168.2z"/>
		<path fill="none" d="M56.5,133.9c0-3,0-6,0-8.9C55.9,127.1,55.9,131.8,56.5,133.9z"/>
		<path fill="none" d="M73.2,152.2c-0.3,1.2-2.1,0.8-2.2,2.2c3.6,1.7,7.2,3.5,11.1,4.8c1.6-1.6,4.7-1.7,5.6-4.1
			c-4.3-1.4-8.1-3.3-12.2-4.8C74.5,150.7,74.2,151.8,73.2,152.2z"/>
		<path fill="none" d="M52.1,195.4c1,0.7,3.3,1,4.4-0.4c-1.5,0-3,0.1-4.1-0.4c-1.1-2.1-1.4-3.4-0.7-5.6c0.6-1.8,3.2-4.8,1.1-6.7
			c1,3.5-2.9,7-2.2,10.4C50.7,193.4,51.9,195.3,52.1,195.4z"/>
		<path fill="none" d="M74.3,161.9c-0.8-0.3-1.1-1.1-2.2-1.1c0,0.5,0,1,0,1.5C73,162.9,73.9,163.2,74.3,161.9z"/>
		<path fill="none" d="M70.6,166.3c-0.2,1.2,0.3,1.7,1.5,1.5C72.3,166.7,71.8,166.2,70.6,166.3z"/>
		<path fill="none" d="M78,209.9c0-8.5,1.1-18.2,1.5-25.7c0.1-2.4,0.2-5.3,0-6c-0.3-1.1-0.2-1.9-2.2-1.9c-0.4,6.4-1.2,12.4-1.5,18.3
			c-0.4,6.9-0.6,11.8-0.7,17.5C75.7,212.5,77.4,210.8,78,209.9z"/>
		<path fill="none" d="M54.7,152.9c-0.1,0.4,0.1,1.1-0.4,1.1c-0.2-0.5-0.8-0.7-1.5-0.8C53.2,155,56.6,153.9,54.7,152.9z"/>
		<path fill="none" d="M62.8,156.6c-0.6,1.8,2.1,2.1,1.9,0.4C63.8,157.2,63.9,156.3,62.8,156.6z"/>
		<path fill="none" d="M83.6,170.4c-1.7,0.2-2.2-0.5-3.3,0c0.1,1,1,1.3,1.9,1.5C82.5,171.4,83.6,171.5,83.6,170.4z"/>
		<path fill="none" d="M62.4,150.3c0,0.1,0,0.3,0,0.4c1.7,1.2,0.9-1.2,0.7-2.2C61.8,148.7,64.3,150.6,62.4,150.3z"/>
		<path fill="none" d="M45,139.9c0.6-1.5,1.5-2.7,3-3.4c0.2,0.5-1.4,0.9-0.4,1.1c0.2-0.5,0.6-0.9,1.1-1.1c-0.1-0.3,0-0.7-0.4-0.7
			C47.2,137.1,45,137.3,45,139.9z"/>
		<path fill="none" d="M50.6,129.4c0-1.4,0-2.7,0-4.1C50,125.9,50,128.9,50.6,129.4z"/>
		<path fill="none" d="M55.8,144c-1-0.2,0.3,2-0.7,1.9c0.1-0.4-0.1-0.7-0.4-0.7c-0.2,1.2,0.5,1.5,1.1,1.9
			C55.8,146,55.8,145,55.8,144z"/>
		<path fill="none" d="M58,139.9c0.1,0-2.3,2.7-1.1,1.5c0.9-0.3,1-1.2,1.9-1.5c0.1,0.2,0.5-0.3,0.4-0.4c-1.4-0.7-3.6,1.2-4.1,2.2
			C56.1,141,57.3,139.5,58,139.9z"/>
		<path fill="none" d="M43.9,141.7c-0.3-3.3,1.2-4.7,2.6-6.3C44,135.7,41.4,139.8,43.9,141.7z"/>
		<path fill="none" d="M60.2,130.2c0,1.4,0,2.7,0,4.1C60.8,133.8,60.8,130.7,60.2,130.2z"/>
		<path fill="none" d="M59.9,113.8c0,2,0,4,0,6C60.5,118.6,60.5,114.9,59.9,113.8z"/>
		<path fill="none" d="M57.3,119.4c0,1.9,0,3.7,0,5.6C57.9,124,57.9,120.4,57.3,119.4z"/>
		<path fill="none" d="M59.1,129.8c-0.2-1.4,0.5-3.7-0.4-4.5C59,126.7,58.3,129.1,59.1,129.8z"/>
		<path fill="none" d="M53.9,101.5c2-2.9-2.8,0.7-2.6,2.2C52.3,103.5,53.5,99.3,53.9,101.5z"/>
		<path fill="none" d="M58.7,124.2c0-2.1,0-4.2,0-6.3C58.1,119.1,58.1,123,58.7,124.2z"/>
		<path fill="none" d="M50.6,119.4c0.9-0.8,0.1-3.1,0.4-4.5C50.1,115.7,50.8,118,50.6,119.4z"/>
		<path fill="none" d="M63.6,100.4c0.9,0.1,0.4-1.1,1.1-1.1c0.1,1.1-0.8,1.1-0.7,2.2c0.6-0.6,1.1-1.4,1.1-2.6
			C63.9,98.7,64,99.8,63.6,100.4z"/>
		<path fill="none" d="M63.9,144.7c0.5-1.3,2.1-1.6,2.6-3c-0.9-0.1-1.5,0.2-1.9,0.7C66.8,142.7,62.7,144.2,63.9,144.7z"/>
		<path fill="none" d="M147.4,147.3c0-4.5,0-8.9,0-13.4C146.8,137.5,146.8,143.7,147.4,147.3z"/>
		<path fill="none" d="M75.1,147.7c0-1.7,0-3.5,0-5.2C74.4,143.4,74.4,146.8,75.1,147.7z"/>
		<path fill="none" d="M35,203.2c-0.7-0.1-0.8-0.6-0.7-1.5c0.4,0,0.7,0,1.1,0c-2.2-1.1-1.8,1.9,0,2.2c0.1-0.5,0.5-0.7,0.4-1.5
			C35.3,202.5,35.4,203.1,35,203.2z"/>
		<path fill="none" d="M71.3,144c-1.4-1.7-5.8-0.5-6.3,1.1C66.4,144,69,143,71.3,144z"/>
		<path fill="none" d="M72.8,123.9c0-3.4,0-6.7,0-10.1C72.2,116.3,72.2,121.4,72.8,123.9z"/>
		<path fill="none" d="M69.5,147.7c1.6-2.3-2.8-3-2.6-0.4C67.2,146,70,144.8,69.5,147.7z"/>
		<path fill="none" d="M71.7,144.7c-0.1-0.3-0.2-0.5-0.4-0.7C71.3,144.4,71.4,144.6,71.7,144.7z"/>
		<path fill="none" d="M91.4,201c0-1.1,1.1-2.6-0.7-2.6C89.2,198.7,89.9,201.3,91.4,201z"/>
		<path fill="none" d="M92.1,206.2c-0.5,0-0.5-0.5-1.1-0.4c-0.8,0.8-0.1,2,0.7,2.2C91.6,207.2,92.4,207.3,92.1,206.2z"/>
		<path fill="none" d="M90.6,178.6c0.8,0.1,0.1,1.6,1.1,1.5c-0.1-1.1,0.8-1.1,0.7-2.2C91.6,177.8,90.7,177.8,90.6,178.6z"/>
		<path fill="none" d="M91.4,185c-0.5,0-1,0-1.5,0c0.1,0.9,0.4,1.6,1.1,1.9C91.3,186.4,91.5,185.8,91.4,185z"/>
		<path fill="none" d="M25.7,179.4c-1.1-0.7-1.2-2.5-2.6-3c0.1,3,3.4,5.1,6.3,4.5c0.2,0,1.2-0.6,1.5-0.7c0.7-0.5,2.4-2.2,1.5-3
			C31.1,179.5,28.1,180.8,25.7,179.4z"/>
		<path fill="none" d="M90.6,194.3c0.6-0.5,1.2-1.8,0.4-2.6c-0.4,0-0.7,0-1.1,0C89.1,192.5,89.8,194,90.6,194.3z"/>
		<path fill="none" d="M128.5,179c-0.2-1,0.5-3-0.4-3.4c0,1.2,0,2.5,0,3.7c0.6,0,1.2-0.1,1.5-0.4C129.4,178.4,129.1,179.1,128.5,179
			z"/>
		<path fill="none" d="M47.2,199.5c1.2,0.3,2.9,1.9,3.3,3c0.5,1.5-0.4,2.6,0,4.1c2.1-2.5,0.4-5.9-1.5-7.5c-1.9-0.4-4.9-0.5-6.3,0
			c-1.1,0.4-3.2,1.8-3.3,2.6C42,201,44.4,198.9,47.2,199.5z"/>
		<path fill="none" d="M143.7,177.9c-0.4-3.4,1-6.6-0.7-8.2c-1.6-0.6-2.4,1.5-3.3,0.4c0.7-2.2,5-2.6,3.7-5.6c-0.9-0.1-1.1,1-1.5,1.5
			c-1.4,1.7-2.7,3.3-4.8,4.1c0.5-0.7,0.9-1.3,1.5-1.9c1.6-1.8,3.8-3.5,4.4-6c-0.2-1.6-2.3-1.4-3-2.6c2.1-0.4,3.7-1.3,5.2-2.2
			c1.4,0.3,1.7,1.8,3.3,1.9c0.4-1.6,1.3-2.6,1.9-4.1c-0.8-0.9-1.8-1.4-2.6-2.2c-7.5-0.8-10.7,2.9-13.7,6.7c-0.4,5.8-1,11.4-1.1,17.5
			C135.1,179,140.6,179,143.7,177.9z"/>
		<path fill="none" d="M72.5,149.2c-0.8,2.6-5.8,2.2-6.7,0c0,0.1,0,0.2,0,0.4C66.7,152.4,73,151.5,72.5,149.2z"/>
		<path fill="none" d="M147.4,132c0-11.6,0-23.1,0-34.6C146.8,108.1,146.8,121.4,147.4,132z"/>
		<path fill="none" d="M48,211c0.6,0.4,0.7,0.5,1.9,0.4c0-1.6-1.4-2.6-2.2-3.7c-1.3-1.8-2.4-3.9-4.4-4.5c-0.4,0-0.4,0.3-0.7,0.4
			c0.1,1,0.9,1.5,1.5,2.2c0.4,0.5,0.9,1.3,1.1,1.5c0.9,0.9,1.3,1.7,2.2,2.6C47.7,210.4,47.4,210.7,48,211z"/>
		<path fill="none" d="M145.2,98.9c0,7.5,0,14.9,0,22.4C145.8,114.7,145.8,105.5,145.2,98.9z"/>
		<path fill="none" d="M39.8,199.1c-0.8-1.8-3-4.2-5.2-3.4C35.7,197.4,36.9,200.6,39.8,199.1z"/>
		<path fill="none" d="M73.2,142.9c0,1.6,0,3.2,0,4.8C73.8,146.9,73.8,143.6,73.2,142.9z"/>
		<path fill="none" d="M129.9,178.6c1.8,0.1,1.5-2,1.5-3.7C130.6,175.8,131.5,178.5,129.9,178.6z"/>
		<path fill="none" d="M70.6,117.5c0,2,0,4,0,6C71.2,122.4,71.2,118.7,70.6,117.5z"/>
		<path fill="none" d="M39.1,210.3c0-0.7,0-1.5,0-2.2C36.8,207.7,36.9,210.6,39.1,210.3z"/>
		<path fill="none" d="M114.7,105.6c-0.1-1.3-0.6-2.1-0.4-3.7C112.8,102.1,113.9,105.4,114.7,105.6z"/>
		<path fill="none" d="M51.7,115.7c0,2,0,4,0,6C52.3,120.5,52.3,116.8,51.7,115.7z"/>
		<path fill="none" d="M26.8,187.6c-1.6,0.6-0.2,2.7,1.1,2.6C27.9,189,28.1,187.5,26.8,187.6z"/>
		<path fill="none" d="M53.5,123.9c0-3,0-6,0-8.9C52.9,117,52.9,121.7,53.5,123.9z"/>
		<path fill="none" d="M40.2,194.6c0.8-5-4.2-6.8-6.3-5.2c4.4-0.4,6.1,1.8,5.6,6.3C40.3,195.8,40.1,195.4,40.2,194.6z"/>
		<path fill="none" d="M45.8,184.6c-1.1,1-3.2,0.8-4.8,0.4c-2.1-1.9-1.2-7-2.6-9.7c0.1,5.6,0.1,12.9,7,10.4
			C45.2,185.2,46.8,184.8,45.8,184.6z"/>
		<path fill="none" d="M31.7,194.3c-3-0.3-1.2,3.1,0.4,1.9C32.3,195.1,31.5,195.2,31.7,194.3z"/>
		<path fill="none" d="M57.3,192.4c0,0.1,0.7,0.2,0.7,0.4c0.8,1.2,1.2,3,3,3c0.9-1.9-1.1-3.9-2.2-5.2c-1.1-1.4-2.9-4-4.4-3.4
			c-0.1,2.2,1.9,3.1,3,4.5C57.4,191.8,57.2,192.2,57.3,192.4z"/>
		<path fill="none" d="M118.8,154c1.9,0.2,3.3-0.2,4.1-1.1c-0.2-1-1.7,1.7-2.2,0.4c0.8-1.1,2.4-1.4,2.6-3c-1,1-1.5,2.5-3.7,2.2
			C121.5,153.3,119.9,153.4,118.8,154z"/>
		<path fill="none" d="M89.1,162.2c1.3,1.6,3.1-0.2,3.3-1.9C90.7,160.3,89.9,161.3,89.1,162.2z M89.5,162.2c0.5-0.8,1.2-1.3,2.2-1.5
			C91.9,162.1,90.3,162.9,89.5,162.2z"/>
		<path fill="none" d="M46.9,182.4c0.4,0.3,1.1,0.5,1.5,0.7c0.8,0.6,1.5,1.7,2.6,1.1c0.4-2.9-2.8-3.8-4.4-4.8
			c-0.4-0.3-0.6-0.8-1.1-1.1c-1.6-0.9-3.5-1.7-4.8-1.5c0,2.9,3.7,3.3,5.6,4.5C46.4,181.4,46.6,182.1,46.9,182.4z"/>
		<path fill="none" d="M22.4,181.6c-0.1,0.4-0.4,0.6-0.7,0.7c0,1.3,1.1,1.4,1.9,1.9C23.9,183.7,23.6,181.7,22.4,181.6z"/>
		<path fill="none" d="M53.2,132.4c0.8-0.5,0.1-2.6,0.4-3.7C52.7,129.2,53.4,131.3,53.2,132.4z"/>
		<path fill="#B32621" d="M34.6,80.6c0.7,1.1,2,2.1,3.3,3.3c0.8,0.8,2,2.2,2.6,2.6c0.3,0.2,0.1,0.5,0.4,0.7c0.3,0.3,0.9,0.1,1.1,0.4
			c0.2,0.2,0.1,0.9,0.4,1.1c0.2,0.2,0.9,0.2,1.1,0.4c0.9,0.7,1.6,2,2.2,2.6c2.1,1.9,3.4,0.8,6.3,0.4c1.5-0.2,3-0.2,4.4-0.4
			c3.1-0.3,6.3-0.9,8.9-1.1c16.7-1.2,35.4,1.8,49.3,3.4c1.7-2.1,2.7-5,4.1-7.5c0.7-1.2,1.5-2.2,2.2-3.4c0.6-0.9,1.5-1.9,1.6-2.9H118
			c-0.9,1.5-1.9,3.1-2.8,4.8c-1,1.8-1.6,4.2-3.3,5.6c-2.4-0.4-5-0.8-7.8-1.1c-2.7-0.3-5.8,0.2-7.8-1.1c-0.1-2.8,1.2-5.5,0.6-8.1h-6
			c-1,2.6-1.5,5.8-3.2,7.8c-6.3,0-11,0.2-15.9-0.7c-0.4-2.2-0.4-4.9-0.9-7h-6.5c-0.1,2.8,0.7,4.8,0.4,7.8c-5.2,0.8-10.8,1.1-16,1.9
			c-2.9-2.9-5.1-6.5-7.8-9.6h-6.6C34.4,80.5,34.4,80.6,34.6,80.6z"/>
		<path fill="#B32621" d="M59.9,84.7c0-1.6-0.2-3.1-0.5-4.4H47c0.6,2.5,2.5,3.6,3.6,5.5C52.8,85.4,56.8,85.4,59.9,84.7z"/>
		<path fill="#B32621" d="M75.8,84c3.1-0.1,7.3,0.2,9.3,0c0.3-1.1,1.1-2.6,1.2-3.7H75.4C75.3,81.8,76,82.4,75.8,84z"/>
		<path fill="#B32621" d="M101,85.1c2.2,0.9,5.6,0.6,8.2,1.1c0.9-0.8,1.5-1.9,1.9-3.3c0.7-0.5,1.5-1.6,1.6-2.6h-11.5
			C100.8,81.7,101.2,83.6,101,85.1z"/>
		<path fill="#B32621" d="M65.4,92.6c7.3-0.3,13.8-0.5,20.8,0c1.6,0.1,3.2,0.6,4.8,0.7c2.1,0.2,4.3,0.2,6.3,0.4
			c2.1,0.2,4,0.5,5.9,0.7c4,0.5,7.7,1.5,11.1,1.1c-4.6-1.3-9.8-1.7-15.2-2.2C94,92.8,88.5,92,83.2,91.8c-2.4-0.1-4.9,0.1-7.4,0
			c-2.4-0.1-4.8-0.5-7-0.4c-1,0.1-4.3,0.7-4.8,0.7c-0.5,0-0.8-0.4-1.1-0.4c-1.4,0.1-2.8,0.6-4.1,0.7c-1.8,0.2-3.6,0.1-5.2,0.4
			c-1.5,0.2-3.3,0.4-4.4,1.5c2.5,0.4,4.9-0.8,7.4-1.1C59.3,92.9,62.4,92.7,65.4,92.6z"/>
		<path fill="#B32621" d="M68,122c0-2.5,0-5,0-7.5C67.4,116.2,67.4,120.4,68,122z"/>
		<path fill="#B32621" d="M54.3,121.2c0.2,1.1-0.5,3.2,0.4,3.7C54.4,123.8,55.1,121.8,54.3,121.2z"/>
		<path fill="#B32621" d="M59.9,124.6c0.2,1.4-0.5,3.7,0.4,4.5C60,127.7,60.7,125.4,59.9,124.6z"/>
		<path fill="#B32621" d="M62.8,128.7c0,1.7,0,3.5,0,5.2C63.4,133,63.4,129.6,62.8,128.7z"/>
		<path fill="#171717" d="M98.4,146.2c0-0.3,0-0.5,0-0.7c-1,0-2,0-3,0C95.2,146.9,97.5,145.9,98.4,146.2z"/>
		<path fill="#B32621" d="M45.8,145.8c0,0.4,0,0.7,0,1.1c0,7.4,0,16.4,0,23.5c0,2.8-0.7,5.6,1.1,6.7c1.7,0,1-2,1.1-3
			c0.1-1.3,0-3.2,0-4.5c-0.1-5.4,0-11.4,0-17.1c0-0.9-0.4-2.9-0.4-3c0.1-1,1.2-3.8-1.1-3.7C46.3,145.8,46,145.8,45.8,145.8z"/>
		<path fill="#B32621" d="M18.3,152.5c-0.1-0.3-0.3-0.4-0.7-0.4c-0.1,0.5-0.8,0.4-1.1,0.7c-0.4,3.8,0.4,8.1,0.4,11.9
			c0,1-0.5,2.5-0.4,3.7c0.1,0.9-0.2,2.8,1.5,2.6C19.3,164.1,18.1,161.5,18.3,152.5z"/>
		<path fill="#B32621" d="M50.2,156.6c0.8-0.8,1.3-3.8-0.4-4.1C50.1,153.8,49.4,156,50.2,156.6z"/>
		<path fill="#B32621" d="M61.3,157c-0.4-1.7-2.8-2.3-4.1-1.9c-3.8,1.1-2.4,5.9,0,6.3C59.9,161.9,61.9,159.3,61.3,157z M56.1,159.3
			c-0.7-3,2.2-3.7,3.7-2.2C60.5,160.3,57.6,160.9,56.1,159.3z"/>
		<path fill="#171717" d="M56.1,159.3c1.5,1.6,4.3,1.1,3.7-2.2C58.3,155.6,55.4,156.3,56.1,159.3z"/>
		<path fill="#B32621" d="M66.9,165.6c1.5,0.2,1.6-0.3,3-0.7c0.3-1.4,0.7-3.5,0-4.8C64.3,155.6,62.3,165,66.9,165.6z M66.2,160.4
			c1.4-0.2,2.4,0.1,3,0.7c0.4,2-0.5,2.7-1.5,3.4C65.8,164.2,64.8,161.8,66.2,160.4z"/>
		<path fill="#171717" d="M67.6,164.5c1-0.6,1.9-1.4,1.5-3.4c-0.6-0.6-1.6-0.9-3-0.7C64.8,161.8,65.8,164.2,67.6,164.5z"/>
		<path fill="#F7CC00" d="M89.5,162.2c0.8,0.7,2.4-0.1,2.2-1.5C90.7,161,90,161.5,89.5,162.2z"/>
		<path fill="#B32621" d="M76.2,163.3c-1.9,0.7-2.6,1.8-2.2,3.7c0.2,1.4,1.9,2.7,3.3,2.6C81.4,169.5,81.1,161.7,76.2,163.3z
			 M78,168.2c-0.7,0-1.5,0-2.2,0c-0.8-1.1-0.5-3.5,0.7-3.7C78.3,164.5,78.8,166.6,78,168.2z"/>
		<path fill="#B32621" d="M86.2,169.3c2.9,0.5,4.6-3.4,2.2-6C82.8,162.1,82.7,168.8,86.2,169.3z M87.7,167.8c-0.6,0-1.2,0-1.8,0
			c-1.5-1.4-0.1-4.5,2.2-3C88.3,166.3,88.3,166.6,87.7,167.8z"/>
		<path fill="#B32621" d="M53.5,180.1c1.1,1.4,1.4,3.5,3,4.5c0.5-5.5,0.4-11.5,0.4-17.5c-2.4-0.8-4.3-2.1-6.7-3
			c-1.3,4.3-0.5,10-0.4,14.9C50.7,179.7,52.3,179.7,53.5,180.1z"/>
		<path fill="#171717" d="M76.5,164.5c-1.2,0.2-1.5,2.7-0.7,3.7c0.7,0,1.5,0,2.2,0C78.8,166.6,78.3,164.5,76.5,164.5z"/>
		<path fill="#171717" d="M85.8,167.8c0.6,0,1.2,0,1.8,0c0.6-1.2,0.6-1.6,0.4-3C85.7,163.3,84.3,166.5,85.8,167.8z"/>
		<path fill="#B32621" d="M39.1,167.1c0,1.4,0,2.7,0,4.1C39.7,170.7,39.7,167.6,39.1,167.1z"/>
		<path fill="#B32621" d="M62.4,190.9c0.4,1.6,2.3,2.2,2.6,3.7c0.4,0.9,0.5,2.2,0.7,3.4c2.8,2.6,3.5,7.4,7.8,8.6
			c0.5-9.9,2-19.8,1.5-30.9c-1.4-1.3-3.4-2.2-5.2-3c-1.9-0.8-3.9-1.7-5.9-2.2c-0.1-0.3-0.3-0.4-0.7-0.4c0.1,0.5-0.3,0.8-0.4,1.1
			c-0.1,1.1,0.4,2.9,0.4,4.8c0,2.4-0.3,7.3-0.7,9.7c-0.1,0.3,0.4,0.4,0.4,0.4C62.7,188.2,62.2,189.8,62.4,190.9z"/>
		<path fill="#B32621" d="M89.5,174.5c-0.1-0.4-0.4-0.6-0.7-0.7c-2.3,1.4-5.3,2.1-7.4,3.7c-0.3,6.6-0.8,13.7-1.1,20.5
			c-0.2,3.5-1.1,7.8,0,10.1c1.1-1.1,1.9-2.2,3.3-3.4c1.3-1.1,3.1-1.6,3.7-3.3c0.8-2.6-0.1-6.5,0-9.7
			C87.6,185.3,88.8,179.4,89.5,174.5z"/>
		<path fill="#B32621" d="M26.5,177.1c0.4,0.8,3.5,1.5,3.3-0.4C28.8,177,26.9,176.3,26.5,177.1z"/>
		<path fill="#B32621" d="M137.4,187.9c0.1-1.3,0.7-2.5,0.7-3.7c0.1-2,0.6-4.4-1.5-3.7c-0.1,0-0.2,0-0.4,0c0,0.5-0.2,0.8-0.4,1.1
			c-1.8,11.8-0.4,25,1.9,34.6c0.3,1.3,0.4,2.8,0.7,4.1c0.2,0.5,0.6,0.9,0.7,1.5c0.7,2.3,1,3.9,1.9,5.6c0.5,1,1.1,2.5,2.2,2.6
			c1.2-2.4-0.2-4.7-1.1-7.1C138.6,213.5,136.4,201.1,137.4,187.9z"/>
		<path fill="#B32621" d="M44.3,183.1c-0.2-1.6-1.7-1.8-3-2.2C41,182.9,42.3,183.3,44.3,183.1z"/>
		<path fill="#B32621" d="M131.4,225.6c-0.4-1.1-0.4-2.5-0.7-3.7c-0.7-2.2-1.3-4.4-1.9-6.7c-1.2-4.9-2-10-2.2-15.3
			c-0.2-5.5,0.5-9.1,0-10.8c-0.1-0.4,1.3-2.5-0.4-2.2c-0.2,0-0.5,0-0.7,0c0,0.5-0.5,0.5-0.4,1.1c-1,3.9-0.9,10-0.7,14.5
			c0.5,10.9,4.1,21.3,7,29.1c0.1,0.3,0.2,0.6,0.3,0.9h2.5c-0.8-1.8-1.5-3.6-2.1-5.4C132,226.4,131.6,226.2,131.4,225.6z"/>
		<path fill="#B32621" d="M118.8,195.4c0.8-1.3,1.8-4.2,0.4-5.6c-1.1,0.7-2.6,1.2-3.7,1.9C116.1,193.4,116.7,195.2,118.8,195.4z"/>
		<path fill="#B32621" d="M55.8,192.8c-0.8-0.6-1.5-2.7-2.6-1.9C53.2,192.2,54.6,194,55.8,192.8z"/>
		<path fill="#B32621" d="M35.4,191.7c0.5,1.3,1.2,2.5,3,2.6C38.3,192.4,36.7,192.2,35.4,191.7z"/>
		<path fill="#B32621" d="M46.5,202.1c0.3,1.2,1,1.9,2.2,2.2C49.1,202.5,47.4,201.5,46.5,202.1z"/>
		<path fill="#B32621" d="M116.2,202.1c0,1.5,0,3,0,4.5c0.9,0.8,1.7,1.7,3.3,1.9C119.8,205,118.5,203.1,116.2,202.1z"/>
		<path fill="#B32621" d="M64.3,206.2c-0.5-1.1-0.6-2.7-1.9-3C62.3,205,62.7,206.1,64.3,206.2z"/>
		<path fill="#B32621" d="M42.8,211c0.6,1.3,1,6.4,3,4.1c-1.4-0.6-2-2-1.8-4.1C43.5,211,43.2,211,42.8,211z"/>
		<path fill="#B32621" d="M121.8,218.1c0.1-1.1-0.9-2.1-1.5-2.6c-0.7-0.6-1.7-1.6-3-1.5c-0.2,1.7,0.3,2.7,0.7,3.7
			C119.1,218.1,120.8,219,121.8,218.1z"/>
		<path fill="#B32621" d="M14.2,215.1c-0.6-0.2-1.4-0.3-2.3-0.4v2.7c1,0.5,2.1,0.9,3.4,1C15.3,217,14.5,216.3,14.2,215.1z"/>
		<path fill="#B32621" d="M57.3,215.1c-0.5,0-1,0-1.5,0c0,1.5,0.8,2.1,1.5,3C58.3,217.4,58,216.1,57.3,215.1z"/>
		<path fill="#B32621" d="M71.7,220.4c-0.3-1.3-0.8-2.5-1.9-3C69.7,219.2,70.3,220.1,71.7,220.4z"/>
		<path fill="#B32621" d="M15,223.3c-0.5,0.1-0.2,0.4,0,0.7c0.2,1.3,1.2,1.6,1.9,1.9c0.8,0.4,1.1,2.4,2.6,1.9
			C19.2,225.2,17.9,222,15,223.3z"/>
		<path fill="#B32621" d="M119.6,224.1c0.5,1.8,1,5.4,3.7,3.7C122.9,225.9,121.3,223.4,119.6,224.1z"/>
		<path fill="#B32621" d="M64.7,231.5c0.9-1.3-0.1-3.2-1.9-3C63.3,229.7,63.4,231.2,64.7,231.5z"/>
		<path fill="#B32621" d="M77.7,230.8c-0.2,0.6-0.3,1.1-0.2,1.6H79C78.6,231.8,78.2,231.2,77.7,230.8z"/>
		<path fill="#F7CC00" d="M149.2,83.6c-0.2,0-0.4,0.1-0.4,0.4c-0.5,1.7-2.6,1.9-3.3,3.4c1.5,1.1,5.6-0.4,7,0.7
			c1.3,0.1,2.6,0.1,2.2-1.5c-0.7-1-3.5,0.2-4.1-0.7c-0.3-0.1-0.4-0.3-0.4-0.7c1.1-1.7,4.6-2.9,4.5-4.8H154
			C152.1,80.8,150.1,84,149.2,83.6z"/>
		<path fill="#F7CC00" d="M126.6,101.5c-0.8-3.4,1.1-8-1.5-10.1c-1.4-0.5-1.4-2.3-3.3-2.2c-0.2,0.7,0.5,2.2-0.4,2.2
			c0,0.7,0.1,1.2,0.4,1.5c1.1,1.3-0.8,1.8-1.1,0.4c0,0.3,0,0.5,0,0.7c1.1,4.3,3.7,7.2,6.7,9.7C126.9,102.7,125.9,102.8,126.6,101.5z
			"/>
		<path fill="#F7CC00" d="M121.8,83.2c0.3,1-0.7,0.8-0.7,1.5c0.4,0.1,0.2,0.4,0,0.4c-0.4,1.7,2.8-0.1,3,1.1c1.4,1.1,4.3,0.6,4.8,2.6
			c-1.2,0.5-3-0.8-3.7-0.7c-0.5,0,0.3,1.3-1.1,0c0,0.1,0,0.3,0,0.4c1.8,2,4.8,2.7,5.9,5.2c0.9,0.1,0.1,1.3,0,1.5
			c-0.8-0.2-1.2-0.8-1.9-1.1c0,3.4,4.5,4.1,4.1,6.7c-0.8-0.4-1.2-1.2-2.2-1.5c0,2.6,1.7,3.5,2.2,5.6c-2.4-1.2-2.3-4.9-4.4-6.3
			c-0.9,1.1-0.1,2.9,0,4.1c0,0.6,0.1,1.2,0.4,1.5c1.6,1.5,3.8,2.4,6.7,2.6c-0.4-2.2-1.5-4.9-1.1-6.3c0.1-0.3-0.4-0.5-0.4-0.7
			c-0.2-3.8-0.7-6.1-1.9-8.9c-1.1-1.9-2.2-3.8-3.7-5.2C126.2,84.3,124.7,83.1,121.8,83.2z"/>
		<path fill="#F7CC00" d="M145.2,121.2c0,0.7,0,1.5,0,2.2c0.6,1.7,0.6,6.1,0,7.8c-0.2,4.3,0.1,7.7,0,12.7c0.6,1.5,0.6,5.6,0,7.1
			c1.9,2.5,2.7-1.4,2.2-3.7c-0.6-3.6-0.6-9.8,0-13.4c0-0.6,0-1.2,0-1.9c-0.6-10.7-0.6-24,0-34.6c0.6-0.9,2-1.9,2.6-3.4
			c0.6-1.4,1.4-3.9-0.4-4.5c-2.3-0.2-1.5,2.7-2.2,4.1c-0.5,1.6-2.2,2-1.9,4.5c-0.3,0.1-0.4,0.3-0.4,0.7
			C145.8,105.5,145.8,114.7,145.2,121.2z"/>
		<path fill="#F7CC00" d="M152.2,101.1c-1.6,2.4-3.1,6.2-3.7,8.9c1-0.2-0.3,2,0.7,1.9l0,0c0.2-1,0.7-1.7,1.5-2.2
			c2.1-3.4,4.4-6.5,4.8-11.6C154.2,97.7,153.1,99.8,152.2,101.1z"/>
		<path fill="#F7CC00" d="M72.8,113.8c0.8-5.5,2.5-10.2,3.3-15.6c-2.5-0.1-2.3,3.2-3,4.8c-0.2,0.6-1,1-1.1,1.5
			c-0.2,0.6-0.2,1.5-0.4,2.2c-0.7,3.5-1.2,7.1-1.1,10.8c0.6,1.1,0.6,4.8,0,6c0.4,6.9,1.7,13,2.6,19.4c0.6,0.8,0.6,4.1,0,4.8
			c-0.7,0.1-0.2,1.3-0.7,1.5c0.5,2.3-5.8,3.2-6.7,0.4c0-0.1,0-0.2,0-0.4c-0.3-3,0.7-4.7,3.7-4.5c1,0.3,1.9,3.2,0.4,3.7
			c0-0.4-0.3-0.4-0.4-0.7c0.5-2.9-2.2-1.7-2.6-0.4c-1.1,4.9,7.6,2.9,4.8-2.6c-0.3-0.1-0.4-0.3-0.4-0.7l0,0c-2.3-1-5,0-6.3,1.1
			c-0.1,0-0.2,0-0.4,0c-0.3,1.7-0.9,3.3-0.4,4.8c0.3,0.9,2.1,2.8,3,3c3.8,1.1,6.8-1.8,7.8-5.2c-0.6-0.9-0.6-4.3,0-5.2
			c-0.9-6-1.6-12.3-2.2-18.6C72.2,121.4,72.2,116.3,72.8,113.8z"/>
		<path fill="#F7CC00" d="M67.3,98.9c-1,0-0.5,1.5-1.5,1.5c-2.2,3.6-3.1,8.5-3.3,14.2c0.6,2,0.6,6.6,0,8.6c-0.1,2.1,0.7,3.3,0.4,5.6
			c0.6,0.9,0.6,4.3,0,5.2c0.4,2.3-1.1,4.2-0.4,5.6c2.5,0.4,1.4-2.8,2.2-4.1c-0.6-1.1-0.6-4.8,0-6c0.3-1.7-0.5-2.2-0.4-3.7
			c-0.9-1-0.1-3.6-0.4-5.2c0.3-7.6,0.6-15.1,3.3-20.1C66.2,100.1,67.6,99.6,67.3,98.9z"/>
		<path fill="#F7CC00" d="M68.8,99.6c-3.9,6.5-4.4,17.5-3.3,26.8c0.6,0.4,0.6,3.3,0,3.7c0.4,3.8-0.5,8.1-0.4,10.4
			c3.4-0.1,1.4-5.5,2.6-7.8c-0.8-0.6-0.1-2.8-0.4-4.1c0-1.8,0.2-3.9-0.4-5.2c-0.6-2.1-0.6-6.8,0-8.9c0.1-5.1,1.7-9.5,2.6-13.4
			c0.1-0.9,0.4-1.5,0.7-2.2C69.2,98.6,69.5,99.6,68.8,99.6z"/>
		<path fill="#F7CC00" d="M60.2,101.5c-0.6,1.1-0.7,2.6-1.1,3.7c-1.4,4.1-2.3,8.7-1.9,14.2c0.6,1,0.6,4.6,0,5.6
			c1.1,4.4-0.8,8.9,0,12.7c2.5-0.7,1.7-4.8,1.9-7.8c-0.9-0.8-0.1-3.1-0.4-4.5c0-0.4,0-0.7,0-1.1c-0.6-1.2-0.6-5.1,0-6.3
			c0-7.6,1.5-13.6,4.1-18.6C61.5,99.1,60.7,100.6,60.2,101.5z"/>
		<path fill="#F7CC00" d="M63.6,100.4c-2.4,3.3-3.3,8.1-3.7,13.4c0.6,1.1,0.6,4.8,0,6c0,1.6,0,3.2,0,4.8c0.8,0.8,0.1,3.1,0.4,4.5
			c0,0.4,0,0.7,0,1.1c0.6,0.5,0.6,3.6,0,4.1c-0.1,1.2-1.8,4.4,0.4,4.5c1.4-0.9,1.1-4.7,1.1-5.6c0-1.1,0.2-2,0-2.6s0.4-1.8,0.4-2.6
			c-0.2-4.4-1-9.2-0.7-13.8c0.3-4.7,1.3-8.7,2.6-12.7c-0.1-1.1,0.8-1.1,0.7-2.2C64,99.3,64.4,100.5,63.6,100.4z"/>
		<path fill="#F7CC00" d="M59.5,100c-0.9-0.1-0.4,1.1-1.1,1.1c-2,3.2-3.3,7.1-3.7,11.9c0.6,0.8,0.6,4.1,0,4.8
			c-0.3,0.9-0.5,2-0.4,3.3c0.8,0.5,0.1,2.6,0.4,3.7c0.4,3.2-0.6,6-0.7,8.2c-0.1,1.3-1,3.7,1.1,3.3c0.8,0.9,1-1.9,1.5-2.6
			c-0.6-2.1-0.6-6.8,0-8.9c-1.1-8.8,0.1-18.5,3.3-24.2C59.5,100.7,59.6,100.3,59.5,100z"/>
		<path fill="#F7CC00" d="M52.1,135.8c1-0.5,1.1-1.9,1.1-3.3c0.2-1.1-0.5-3.2,0.4-3.7c0-1.6,0-3.2,0-4.8c-0.6-2.1-0.6-6.8,0-8.9
			c0.8-3.4,0.7-7.5,1.9-10.4c0.6-1.7,2.3-2.9,2.2-4.8c-2.2,0-3,3-3.7,4.8c-1.3,3.3-2,7.5-2.2,11.2c0.6,1.1,0.6,4.8,0,6
			c-0.6,2.3-0.2,5-0.4,7.8C51.1,131.9,49.5,135.5,52.1,135.8z"/>
		<path fill="#F7CC00" d="M50.6,129.4c-0.6-0.5-0.6-3.6,0-4.1c-0.2-2.4,0.3-4.4,0-6c0.2-1.4-0.5-3.7,0.4-4.5c0.2-5.2,1.6-9.3,3-13.4
			c-0.4-2.2-1.7,2-2.6,2.2c-1.2,2.4-2,6.2-2.2,9.7c-0.3,4-0.2,8.6-0.4,12.7c-0.2,3.2-1,5.9-0.7,8.6C50.8,134.9,49.6,131,50.6,129.4z
			"/>
		<path fill="#F7CC00" d="M114.7,114.9c0.5,3.4,0.7,7.1,0.7,10.8c0.6,0.5,0.6,3.6,0,4.1c-0.7,3.9-1.6,7.6-1.9,11.9
			c0.6,0.8,0.6,4.1,0,4.8c0.4,3.8,1.8,6.7,5.2,7.5c1.1-0.6,2.6-0.7,0.7-1.5c-0.5-0.4-1.4-0.4-1.9-0.7c-0.8,0.4-2.2-1.8-2.2-3.4
			c-0.8-7.3,1.2-14.2,1.9-21.2c-0.6-0.4-0.6-3.3,0-3.7c-0.2-5.9-0.7-11.4-3-15.3C113.1,110.1,114.4,112.6,114.7,114.9z"/>
		<path fill="#F7CC00" d="M43.2,135.8c-0.8-0.8-1.3,1.6-2.2,1.9c-0.8,1-0.6,4.1,1.1,3.7c0.1-1.3-0.3-3,0.4-3.7
			C40.6,137.5,43.2,136.5,43.2,135.8z"/>
		<path fill="#F7CC00" d="M47.6,137.6c-1.1-0.2,0.6-0.6,0.4-1.1c-1.5,0.6-2.3,1.9-3,3.4c-0.7,0.9,0.1,2.6,1.1,3
			c-0.5-3.5,1.2-4.7,2.6-6.3C48.2,136.7,47.8,137.1,47.6,137.6z"/>
		<path fill="#F7CC00" d="M47.6,139.9c-1.2,1-0.6,3.2,0.7,3.7c-0.3-2.1,0.7-2.8,0.7-4.5c0.2-0.8,0.8-1.2,1.1-1.9
			C49.1,137.9,48.4,139,47.6,139.9z"/>
		<path fill="#F7CC00" d="M55,145.8c1,0.2-0.3-2,0.7-1.9c0.5-1.8,2-2.7,3-4.1c-0.9,0.3-1,1.2-1.9,1.5c-1.2,1.2,1.2-1.4,1.1-1.5
			c-0.7-0.4-1.9,1.1-3,1.9c-0.6,0.4-1.3,2.7-0.4,3.3C54.9,145.2,55.1,145.4,55,145.8z"/>
		<path fill="#F7CC00" d="M62.4,141.7c-1,0.2-1.4,1.1-2.2,1.5c-1.5,1-1.7,5.8,0.4,6.3c-0.6-2.7,0.2-5.5,1.9-7.1
			C62.4,142.2,62.4,142,62.4,141.7z"/>
		<path fill="#F7CC00" d="M63.2,148.4c-0.2-1.7,0.3-2.7,0.7-3.7c-1.2-0.5,2.8-2.1,0.7-2.2c-2.9,0.5-4.4,5.5-2.2,7.8
			C64.3,150.6,61.8,148.7,63.2,148.4z"/>
		<path fill="#F7CC00" d="M32.4,158.1c2.6-0.3,3.6,2.3,2.6,4.5c0.6,0,1.2,0,1.9,0c1.1,0,1.4,0.8,2.2,1.1c0.2-1.6-0.5-4.2,0.4-5.2
			c0-1.9,0-3.7,0-5.6c-0.4,0-0.3-0.5-0.4-0.7c-0.8,0.4-2.1,2.3-3.3,1.1c-0.9,0-1.8,0.1-2.2-0.4c-0.3,1.9,1,2.2,1.1,3.7
			c-0.6,0.1-1.4-0.1-1.5,0.4C34.3,157.4,32.1,157.4,32.4,158.1z"/>
		<path fill="#F7CC00" d="M110.3,143.2c-0.5,0.1-0.6,0.7-1.1,0.7c-1,1.1,0.1,5,1.5,5.2c0-1,0-2,0-3
			C109.8,145.9,110.5,144.1,110.3,143.2z"/>
		<path fill="#F7CC00" d="M152.2,155.2c1.5-2.9,4.4-8,2.6-10.8c-0.7,1.1-2.5,3.3-3.3,5.2C150.6,151.4,149.2,154.4,152.2,155.2z"/>
		<path fill="#F7CC00" d="M103.6,152.2c1.7,0.4,4.1,1.7,5.9,0.7c0-0.6,0-1.2,0-1.9C107.7,149.9,104,149.2,103.6,152.2z"/>
		<path fill="#F7CC00" d="M109.5,223c-0.1,0-0.2,0-0.4,0c-1.3-1.1-2.5,0.5-4.1,0.4c0.9,0.5,4.1,0.6,2.6,2.2c0.7,0.3-0.1,2.1,0.7,2.2
			c0.7-1,0.2,1.5,0,1.9c-2.3,0.3-4,1.2-6.3,1.5c-0.4,0-0.7,0-1.1,0c-1.4-3.9-2.4-8.3-3-13c3.3-0.5,6.7-1,9.6-1.9
			c0.2-2.2-0.3-6.2-1.1-8.6c-0.6,0.1-1.4-0.1-1.5,0.4c-0.4,0.8-2.4,0-2.6,1.1c0.5,0.2,1.9-0.4,1.9,0.4c0.2,0.6,0.5,0.9,0.7,1.5
			c0.8,0.5,0.5,4.9-0.7,3.4c-2.1,0.7-4.5,1-7,1.1c-0.6-3.7-1-7.7-1.1-11.9c1.8-1.3,6.8-0.6,9.6-1.9c-0.2-2.5,0.7-3.8,0.4-6.3
			c-0.8-0.2-0.2-1.8-0.4-2.6c-1.1,0.1-2-0.1-2.6,0c-1.7,0.3-1,0.6-1.5,1.1c3.3-0.2,2,3.9,1.5,6c-2.5-0.2-5.3,1.1-7.4,0
			c-0.6-1.3-0.6-5.1,0-6.3c-0.3-2.2,0.5-3.2,0.4-5.2c-1.1-0.4,0.4-1,0.4-1.5c1.2,0.2,3.4-0.5,4.1,0.4c2.6-0.2,3.2-0.1,5.6-0.4
			c0.6-2.7,0.3-6.4,1.1-8.9c-0.1,0-0.2,0-0.4,0c-2.3,0.1-3.1-1-4.4,0.4c0.2,0.7,3.3,0.3,2.2,1.1c0.5,1.4,0.4,5-1.1,5.6
			c-1.1,0.3-1.1-0.6-2.2-0.4c-0.6,0.6-3.8,0.6-4.4,0c-1.4-1.3-0.3-3.6,0-6c0.3-2.8,0-5.7,1.1-7.5c1.6,0,3.3-0.1,4.5,0.4
			c1.3-1.2,4.9,1.3,5.9-0.8c0.7-2.3,1.1-4.8,1.5-7.5c-0.8-0.8-2.3-0.9-3.7-1.1c-0.2,0.4-0.9,0.4-0.7,1.1c0.6,0.8,1.8,0.9,2.6,1.5
			c-0.2,0.5,0.4,1.9-0.4,1.9c-0.7,0.6-0.3,2.5-1.5,2.6c-1.5-0.1-2.6-0.6-4.1-0.8c-1-0.8-3.6,0.2-3.7-1.5c1.6-3.3,1.4-8.3,3.3-11.2
			c3.7,0.2,6.1,1.8,10,1.9c0.7-1.6,2.1-4,1.1-6c-2.6-0.6-1.8,2.2-3,3c-2.6,0.4-5.8-1.9-7.8-1.5c-0.7,0.1-3.1,2.3-3.3,3
			c-1.5,4.2-3.9,17.5-4.5,24.6c-0.2,2.6-0.4,5.7-0.4,7.8c-0.2,2.6,0.5,6.2-0.4,8.2c-0.3,1.1,0.5,1,0.4,1.9c0.6,1,0.6,4.6,0,5.6
			c0.4,4.6,0.9,8.1,1.5,11.9c0.9,5.9,2.2,11.2,3.7,16.2h6.8c1.8-0.6,3.7-1.1,5.1-2C110.9,227.6,109.7,225.8,109.5,223z"/>
		<path fill="#F7CC00" d="M14.6,168.9c0.2-1.3-0.5-3.5,0.4-4.1c0-3.6,0-7.2,0-10.8c-1.2,0.3-2.2,0.9-3.1,1.6v11.2
			C12.7,167.7,13.5,168.5,14.6,168.9z"/>
		<path fill="#F7CC00" d="M115.9,230.8c-3.1-8.5-4.8-18.3-5.9-28.7c-0.6-1.3-0.6-5.1,0-6.3c0-0.5,0-1,0-1.5c-0.6-0.5-0.6-3.6,0-4.1
			c0.5-5,1.1-11.5,1.9-15.6c1.1-6.2,2.4-10.7,3.7-15.7c0.4-1.5,2.1-4.4-0.7-4.8c-1.3,1.5-0.8,4.6-2.6,5.6c-3.1-0.6-5.8-1.6-9.3-1.9
			c-1.2,2.4-1.8,5.4-2.2,8.6c0.8,0.4,1.5,1,3,0.8c0.7-0.2,2.2,0.5,1.9-0.8c-0.4,0-0.9-0.2-0.4-0.4c-0.6-0.7-2.2-0.3-2.2-1.5
			c0.9-1,0.4-3.6,1.9-4.1c0.4,0,0.7,0,1.1,0c1.8,0,3.3,0.4,4.5,1.1c2.2,0.5,1.2,1.8,0.7,3.7c-0.3,1.1-0.5,1.9-0.7,3
			c-0.5,2.3-0.3,4.7-1.5,5.6c-2.4,0.1-4.5-0.2-6.3-0.7c-0.4,0.9-2.9-0.2-3.3,0.7c-0.7,2.5-0.8,5.4-0.7,8.6c0.8,0.3,1.3,1,2.6,0.7
			c1.1-1,1.6,0.1,1.9-0.7c0.5-1.6-3.4-0.1-2.2-1.5c0-2.1-0.2-4.4,1.1-5.2c2.5,0,4.7,0.2,6.7,0.7c0.8-1.3,1.2,3,0.4,3.4
			c-1,2.5,0,7-1.5,8.9c-1.6,0.6-5.8,0.6-7.4,0c-1-0.3-1,0.5-1.9,0.4c-0.4,0.4-0.4,1.3-0.4,2.2c0,2.1,0,4.2,0,6.3
			c0.9,0.6,3.7,0.6,4.1-0.4c0.5-1.4-3.3-0.4-1.9-1.5c-0.7-1.3-0.3-4.1,0.7-4.8c2.4,0.2,5.6-0.4,7.4,0.4c0.3,1.3-0.7,1.6,0,2.2
			c-0.2,2.7,0.5,6.5-0.4,8.6c0,0.5,0.5,0.5,0.4,1.1c-2.6,1.3-7.1,0.8-10,1.9c-0.1,3.2,0,6.2,0.7,8.6c1.5-0.1,3-0.2,4.1-0.7
			c0-0.4,0-0.8,0-1.1c-0.8-0.2-2.6,0.6-2.2-0.7c0-1.5,0-3,0-4.5c2-0.6,5.1-0.1,7-0.7c1.2,3.4,1.5,7.7,1.9,11.9
			c-0.3,0.1-0.7,0-0.7,0.4c-2.4,1.4-7,0.7-8.9,2.6c0.7,2.7,1.3,5.4,1.9,8.2c1.5-0.3,3-0.5,4.1-1.1c-1-0.1,0.5-0.6,0-1.5
			c-1.4,0.3-3.3,0.3-2.6-0.7c-0.4-1.1-0.7-2.3-0.7-3.7c2.2-0.9,4.9-1.3,7.4-1.9c0.6,0.7,0.9,1.7,1.1,2.6c0.8,3.2,1.2,6.4,2.2,9.3
			c-0.4,0.1-0.7,0.3-1,0.5h3.7C115.7,231.8,115.6,231.2,115.9,230.8z"/>
		<path fill="#F7CC00" d="M120.3,155.5c0.1,2.5,2.1,3.1,3.7,4.1c0.3,0.8-0.6,2.1-0.7,1.1c-1.9,0.9-6.7,1.8-4.4,4.5
			c0.8,0.8,3.4,2.7,3,3.4c0,0.2,0.1,0.4,0.4,0.4c-1.2,2-3.9,2.5-4.8,4.8c0.9,1.9,3.5,1.9,4.4,3.7c-1.3,2.3-4.5,4.4-4.1,7.1
			c2.3-0.3,3.6-1.6,5.6-2.2c2-2.7,1.5-6.5-0.7-8.6c2.9-2.1,3.3-7.1-0.4-8.6c-0.4,0-0.3-0.5-0.4-0.7c1.8-1.1,3-2.7,3.7-4.8
			C125.8,156.4,122.7,154.7,120.3,155.5z"/>
		<path fill="#F7CC00" d="M119.2,158.5c-0.3-0.5-0.6-1.2-1.5-1.1c-0.4,1.5,1.1,1.1,0.7,2.6c0.5,0,0.5,0.5,1.1,0.4
			C120.4,159.6,119.5,159.2,119.2,158.5z"/>
		<path fill="#F7CC00" d="M95.1,158.1c-0.9,0.3-1,2.6-0.4,3.4C96.4,161.9,97,158,95.1,158.1z"/>
		<path fill="#F7CC00" d="M146.6,230.4c-0.6-2.4-0.6-7.3,0-9.7c0-0.1,0-0.2,0-0.4c-0.6-3.6-0.6-9.8,0-13.4c-0.1-6,0.5-8.2,0.4-14.5
			c-0.6-1.5-0.6-5.6,0-7.1c-0.2-5.4,1.1-8.3-1.1-11.9c1-1.3,1.5-2.6-0.4-3.3c0.5,1.1,0.3,0.4-0.7,0.4c0,0.6,0,1.2,0,1.9
			c0.6,4.7,0.6,12,0,16.8c0,0.1,0,0.2,0,0.4c0.6,0.5,0.6,3.6,0,4.1c-0.1,15.1-0.1,25.2,0,38.9h1.9v-0.1
			C146.6,231.7,146.6,231,146.6,230.4z"/>
		<path fill="#F7CC00" d="M145.2,166.7c0.6,1,1-1.2,1.5-1.5c-1.3-1.7,2.4-5.9-1.5-6c-0.7,1.1-0.2,3.5-0.4,5.2
			C145.6,164.5,144.9,166.1,145.2,166.7z"/>
		<path fill="#F7CC00" d="M128.1,175.6c0.8,0.4,0.1,2.3,0.4,3.4c0.6,0.1,0.9-0.6,1.1,0c0.2,0,0.4-0.1,0.4-0.4
			c1.6-0.1,0.7-2.8,1.5-3.7c0.6-1.8,0.2-3.7,0.4-6c0.2-2.8,1.8-9.3-1.5-9.3c-1.2,1.5-1.4,4.1-3,5.2c0.3,1.4,1,2.1,1.1,3.4
			C128.8,171.7,126.3,173.7,128.1,175.6z"/>
		<path fill="#F7CC00" d="M40.6,223.3c-4.9-15.8-12.5-28.9-21.9-40.2c-0.2,0-0.5,0-0.7,0c-1.4-2.8-4-4.6-6-6.8v2.3
			c0.7,0.8,1.3,1.6,2,2.2c1.2,1.8,5.5,3.9,2.6,6.3c-1.2,1.9-3.1,3.1-4.5,4.8v2.1c1,1.7,2.4,3,3.4,4.7c1.5-0.3,2-1.5,3.3-1.9
			c-0.7-1.3-1.3,0.6-2.2,0.4c0-0.1,0-0.3,0-0.4c-1.7-0.5-2.4-2.1-3-3.7c1.6-2.2,4-3.7,5.9-5.6c0.9,0.2,1.3,0.9,1.9,1.5
			c0,0.1,0,0.2,0,0.4c0,0.1,0,0.3,0,0.4c1.2,0.8,1.9,2.1,2.6,3.4c0.7,2.2,2.5,3.2,3,5.6c-1.7,1.2-3.4,2.3-4.8,3.7
			c-1.8,1.7-2.8,1.8-1.5,4.8c0,0-0.3,0-0.4,0c0.8,1.2,1.4,2.6,2.2,3.7c1.6,0.8,4-0.3,4.1-2.2c0-0.1,0-0.3,0-0.4
			c-1.1,0.1-1.7,0.8-2.6,1.1c-0.7-1.4-3.1-4.1-0.7-5.2c1.3-1.4,3.1-2.3,4.8-3.4c1.3-0.1,2.3,2.2,1.9,2.6c1.6,2.7,2.9,5.8,4.4,8.6
			c1.3,1.2-1.9,3-2.6,2.2c-0.4,0.2-0.8,0.4-1.1,0.7c-1.4,1.2-3.6,1.6-4.8,3c0.7,1.3,1,2.4,1.5,3.7c0.5,1.2,0.6,3,1.9,3.3
			c0.8,0.3,3.6-0.6,3.7-2.2c-0.9-0.9-1.6,0.3-3,0c-0.5-1.1-0.8-2.5-1.5-3.3c-0.5-0.1-0.3-0.9-0.4-1.5c0.8-0.1,2-1.7,2.6-0.7
			c1.9-0.5,3.2-1.8,5.6-1.9c1.3,4.3,3.2,7.9,4.1,12.7c1.1,1.1-1,0.9-1.5,1.1c-1.6,0.7-4.9,1.8-7,2.6c0,0,0,0.1-0.1,0.1
			c0,0.2,0,0.4-0.1,0.5h4.7c1.6-0.4,3.3-0.9,5-1.3c0.2,0.4,0.3,0.8,0.4,1.3h2.1c-0.5-1.9-1.1-3.7-1.8-5.4
			C41.1,226.2,41,224.6,40.6,223.3z"/>
		<path fill="#F7CC00" d="M116.6,165.6c0.4,1.4,2.8,3.5,0.4,4.5c0.6,0.8,1.3-1.4,2.2-1.5c0.2,0,0.4-0.3,0-0.4
			C117.9,167.8,117.8,166.1,116.6,165.6z"/>
		<path fill="#F7CC00" d="M33.1,172.3c1.9-0.4,5.7,1.1,5.9-1.1c0-1.4,0-2.7,0-4.1c-0.1-0.3,0-0.7-0.4-0.8c-0.1,3.1-3.9,1.5-5.2,0.8
			C33.2,169.2,34.7,171.1,33.1,172.3z"/>
		<path fill="#F7CC00" d="M30.9,167.4c-1,0.8-1.7,0.5-3,0.4c-1.1-0.2-1-1.7-2.2-1.9c0,1.6,0,3.2,0,4.8c1,0.9,2.7,1.1,4.5,1.1
			C29.9,170.1,32.1,168.9,30.9,167.4z"/>
		<path fill="#F7CC00" d="M36.9,227.4c0.1-0.3,0.3-0.4,0.7-0.4c0.3-1.4-0.5-1.8-0.4-3c-0.2-1.8-0.7-3.3-1.5-4.5
			c-0.8-2.1-3.5-1.2-4.4,0.4c0.6,0.1,1.4-0.1,1.5,0.4c1.8,0.6,1.6,3.1,2.2,4.8c-2.3,0.9-4.8,1.7-7,2.6c-1.9-3.4-3.4-7.2-4.4-11.6
			c2.9-1.1,5.1-2.9,8.2-3.7c0-0.1,0-0.3,0-0.4c0.3-1.6-1.8-2.9-1.1-3.7c-0.8-1.6-1.5-3.2-2.6-4.5c-1.4,0.7-3.2,1-3.7,2.6
			c0.9,0.9,1.6-0.3,3,0c0.6,1.4,1.5,2.5,1.9,4.1c-2,1.7-4.3,3.2-7.4,3.7c-0.7-1.7-1.3-3.4-2.2-5.2c-0.9-1.8-3.2-4.5-2.2-6
			c0.3-0.6,1.1-1.3,1.9-1.9c0.7-0.5,2.1-1.6,2.2-1.1c1-1,2.7-1.3,3-3c-1.1-1.7-2-3.5-3.3-4.8c-0.5-0.2-0.9-0.6-1.1-1.1
			c-1.4,0.3-4.1,2.2-2.6,3c0.6-0.4,0.9-1.1,1.9-1.1c0,0.1,0,0.3,0,0.4c0.1,0,0.2,0,0.4,0c0.9,1.1,1.9,2,2.2,3.7
			c0,0.2-0.1,0.4-0.4,0.4c-2,1.4-3.7,2.9-5.9,4.1c-1.8-0.9-2.3-3-3.3-4.5l-0.1-0.1v3.7c1.3,1.8,2.2,3.9,3.4,5.8
			c3.5,6.9,7.1,13.8,10,21.2c0.6,1.4,1,3,1.5,4.6H30c-0.2-0.8-0.3-1.6-0.5-2.4C31.9,229.4,34.5,228.5,36.9,227.4z"/>
		<path fill="#F7CC00" d="M13.1,187.9c1.1-0.7,1.8-1.6,2.2-3c-0.1,0-0.2,0-0.4,0c-0.7-0.8-2.4-2.3-3.1-3.3v2.4
			c0.2,0.3,0.3,0.6,0.5,0.9c-0.2,0.2-0.3,0.4-0.5,0.5v3C12.9,187.5,13.7,186.9,13.1,187.9z"/>
		<path fill="#F7CC00" d="M148.5,217.8c2.1-5.2,6.6-8,6.3-15.6c-0.1-0.3-0.3-0.4-0.7-0.4c-2.4,3.3-4.6,7.1-5.6,11.6
			C148.2,214.6,147.1,216.7,148.5,217.8z"/>
		<path fill="#B32621" d="M40.2,204.7c0,1,1.1,3.7,1.5,3c-0.7-1.1-0.8-1.4,0.4-1.9C41.4,205.5,41.6,204.3,40.2,204.7z"/>
		<path fill="#171717" d="M11.9,184.1v1.5c0.2-0.2,0.3-0.4,0.5-0.5C12.2,184.6,12.1,184.3,11.9,184.1z"/>
		<path fill="#171717" d="M87.7,88.1c1.7-1.9,2.1-5.1,3.2-7.8h-4.5c-0.1,1.1-0.9,2.6-1.2,3.7c-2,0.2-6.1-0.1-9.3,0
			c0.2-1.5-0.5-2.2-0.4-3.7h-4.6c0.5,2.2,0.5,4.8,0.9,7C76.6,88.3,81.4,88,87.7,88.1z"/>
		<path fill="#171717" d="M96.2,88.5c2,1.3,5.1,0.8,7.8,1.1c2.8,0.3,5.4,0.7,7.8,1.1c1.7-1.3,2.3-3.7,3.3-5.6
			c0.9-1.7,1.9-3.2,2.8-4.8h-5.3c-0.1,0.9-0.9,2-1.6,2.6c-0.3,1.4-0.9,2.5-1.9,3.3c-2.6-0.5-6-0.2-8.2-1.1c0.1-1.5-0.2-3.4,0.1-4.8
			h-4.3C97.4,83,96.1,85.6,96.2,88.5z"/>
		<path fill="#171717" d="M64.7,88.1c0.3-3-0.5-5-0.4-7.8h-5c0.3,1.3,0.5,2.8,0.5,4.4c-3,0.7-7,0.7-9.3,1.1c-1.1-2-3-3.1-3.6-5.5
			h-6.1c2.7,3.1,4.9,6.7,7.8,9.6C53.9,89.2,59.5,88.9,64.7,88.1z"/>
		<path fill="#171717" d="M16.5,187.2c2.9-2.5-1.4-4.5-2.6-6.3c-0.6-0.6-1.3-1.4-2-2.2v2.6c1,1.3,2.5,2,3.1,3.7c0.1,0,0.2,0,0.4,0
			c-0.4,1.3-1.2,2.3-2.2,3c-0.5,0.3-0.9,0.6-1.2,1v2.6c0.5-0.5,1.1-0.9,1.6-1.3C14.5,189.2,15.2,187.9,16.5,187.2z"/>
		<path fill="#171717" d="M121,83.2c-0.7,1.1-1.5,2.1-2.2,3.4c-1.4,2.4-2.4,5.3-4.1,7.5c-13.9-1.5-32.7-4.6-49.3-3.4
			c-2.6,0.2-5.8,0.8-8.9,1.1c-1.4,0.1-2.9,0.1-4.4,0.4c-3,0.5-4.2,1.5-6.3-0.4c-0.7-0.6-1.3-1.9-2.2-2.6c-0.2-0.2-0.9-0.1-1.1-0.4
			c-0.2-0.2-0.1-0.9-0.4-1.1c-0.3-0.3-0.8-0.1-1.1-0.4c-0.2-0.2-0.1-0.5-0.4-0.7C40,86.1,38.8,84.7,38,84c-1.4-1.3-2.7-2.2-3.3-3.3
			c-0.2,0-0.3-0.1-0.3-0.3h-1.6c1.3,1,2.8,2.7,4.1,4c2.9,2.9,4.1,5.1,7,7.1c1.8,1.2,3.8,3.7,5.6,5.6c0.8,0.8,1.9,1.4,2.2,2.6
			c-0.9,3.2-2.9,6.6-3.3,11.2c-0.7,7.3,0.1,16-1.5,22.7c-2.5,0.4-4.7-1.1-7,0.4c-2.1,1.3-2.4,3.8-1.1,6.7c0.4,0,0.3,0.5,0.4,0.7
			c-9,2.4-16.6,5.3-23.4,10.1c-1,0.7-1.8,1.3-3,2.2c-0.3,0.2-0.5,0.4-0.8,0.7v1.3c0.9-0.7,1.8-1.3,3.1-1.6c0,3.6,0,7.2,0,10.8
			c0,1.7,0.2,3.6-0.4,4.8c-1-0.7-1.9-1.5-2.7-2.3v4c0.2-0.2,0.5-0.5,0.8-0.6c0.7,0.3,2.4,3.1,0.4,2.6c-0.3,0.1-0.3-0.1-0.4-0.4
			c-0.4,0-0.6-0.1-0.8-0.2v2.7c2.3,2.5,4.5,5,6.8,7.6c9.3,11.3,16.9,24.5,21.9,40.2c0.9,0.8,1,2.4,1.5,3.7c0.7,1.7,1.3,3.5,1.8,5.4
			h9.1c0.4-0.5,0.7-0.9,1-1.3c1,0,2,0,3,0c-0.1,0.5-0.3,0.9-0.5,1.3h3.9c-0.7-1.1-1.3-2.3-1.6-3.9c2.2-1.2,2.2,1.7,3.3,2.6
			c0.2,0.3,0.4,0.8,0.6,1.3h3.5c0.6-1,0.9-2,0.7-3.1c-0.4-1.8-2-2.8-4.8-3c3.9-1.5,5.8,1.4,5.9,3.3c0.1,0.9-0.3,1.8-0.9,2.8h7.2
			c0-0.3,0-0.6,0-0.9c0.1-1.2,1.3-2.8,2.2-4.1c1.2-1.7,2.6-2.3,2.6-4.8c1.4,3.7-4.4,6.1-3.9,9.8h2.2c0-0.5,0.1-1.1,0.2-1.6
			c0.6,0.4,0.9,1,1.3,1.6h2c-0.9-1.9-2.9-3.6-1.5-5.4c1.5,0.2,1.8,1.7,2.2,3c0.6,0.7,1.2,1.4,1.6,2.4h15.8c-1.5-5-2.7-10.3-3.7-16.2
			c-0.6-3.8-1-7.3-1.5-11.9c0-1.9,0-3.7,0-5.6c0.2-0.9-0.7-0.8-0.4-1.9c0.2-2.6-0.5-6.2,0.4-8.2c-0.1-2.1,0.2-5.2,0.4-7.8
			c0.6-7.1,3-20.4,4.5-24.6c0.2-0.7,2.6-2.8,3.3-3c2-0.4,5.2,1.9,7.8,1.5c1.2-0.8,0.4-3.6,3-3c0.9,1.9-0.5,4.4-1.1,6
			c-3.9-0.1-6.3-1.7-10-1.9c-1.9,2.9-1.8,7.9-3.3,11.2c0.1,1.6,2.7,0.7,3.7,1.5c1.5,0.1,2.6,0.6,4.1,0.8c1.2-0.2,0.7-2,1.5-2.6
			c0-0.5,0-1,0-1.5c-0.6-0.8-1.8-0.9-2.6-1.5c-0.1-1,0.1-1.6,1.1-1.5c1.4,0.2,2.9,0.3,3.7,1.1c-0.3,2.6-0.8,5.1-1.5,7.5
			c-0.5,2.4-4,0.4-5.9,0.8c-1.1-0.5-2.8-0.4-4.5-0.4c-1.1,1.7-0.8,4.7-1.1,7.5c-0.3,2.3-1.4,4.6,0,6c1.5,0,3,0,4.4,0
			c1.1-0.3,1.1,0.6,2.2,0.4c1.5-0.6,1.7-4.2,1.1-5.6c-0.5-0.6-2.1-0.1-2.6-0.8c0-0.7,0.5-0.8,0.4-1.5c1.5,0.4,3.1-0.3,4.4,0.7
			c0.1,0,0.2,0,0.4,0c-0.8,2.6-0.5,6.2-1.1,8.9c-2.4,0.3-2.9,0.2-5.6,0.4c-1.5,0.3-4.6-0.9-4.4,1.1s-0.7,3.1-0.4,5.2
			c0,2.1,0,4.2,0,6.3c2.2,1.1,4.9-0.2,7.4,0c0.6-2.1,1.8-6.1-1.5-6c-0.1,0-0.2,0-0.4,0c-1-1.7,2.5-1.6,4.4-1.5
			c0.6,0.5,0.3,1.9,0.4,3c0.3,2.5-0.6,3.9-0.4,6.3c-2.9,1.3-7.8,0.6-9.6,1.9c0.1,4.2,0.5,8.2,1.1,11.9c2.6-0.1,5-0.5,7-1.1
			c1.5,0.1,0.4-2.3,0.7-3.4c-0.2-0.5-0.5-0.9-0.7-1.5c-0.7-0.2-2.2,0.4-2.2-0.4c0.1-1.2,1.7-1,3-1.1c0.1-0.5,0.9-0.3,1.5-0.4
			c0.8,2.3,1.3,6.4,1.1,8.6c-2.9,0.9-6.4,1.3-9.6,1.9c0.6,4.8,1.6,9.1,3,13c0.4,0,0.7,0,1.1,0c1.6-1.6,6.1-0.3,6.3-3.4
			c-0.8-0.2,0-2-0.7-2.2c0.7-2.3-2.3-0.9-3-1.9c0-1.2,2.4-1.2,4.1-1.5c0.1,0.3,0.4,0.4,0.4,0.7c0.1,0,0.2,0,0.4,0
			c0.1,2.8,1.4,4.6,1.5,7.5c-1.5,0.9-3.3,1.4-5.1,2h6.4c0.3-0.2,0.6-0.4,1-0.5c-1-2.9-1.4-6.1-2.2-9.3c-0.3-0.9-0.5-1.9-1.1-2.6
			c-2.5,0.6-5.2,1-7.4,1.9c0.1,1.4,0.3,2.7,0.7,3.7c0.1,0.3,0.4,0.4,0.4,0.7c0.9-0.1,1.4-0.6,2.6-0.4c-0.2,0.5,0.4,1.9-0.4,1.9
			c-1.1,0.7-2.6,0.8-4.1,1.1c-0.6-2.8-1.2-5.5-1.9-8.2c0.5-2.2,6.2-1.8,8.9-2.6c0-0.4,0.5-0.3,0.7-0.4c-0.4-4.2-0.6-8.6-1.9-11.9
			c-1.9,0.7-5,0.2-7,0.7c0,1.5,0,3,0,4.5c0.5,0.5,1.6,0.4,2.6,0.4c0,1,0.6,0.7,0,1.5c-0.1,0-0.2,0-0.4,0c-1,0.6-2.6,0.7-4.1,0.7
			c-0.8-2.3-0.8-5.4-0.7-8.6c2.9-1,7.4-0.5,10-1.9c0.1-0.6-0.3-0.6-0.4-1.1c0.2-2.7-0.5-6.5,0.4-8.6c-0.7-0.7,0.3-0.9,0-2.2
			c-1.8-0.8-5-0.2-7.4-0.4c-1,0.7-1.4,3.6-0.7,4.8c0.2,0.9,2.4-0.2,2.2,1.1c0.1,1.9-3.2,1.8-4.4,1.1c-0.6-1.4-0.7-5.3,0-6.7
			c0-0.9-0.1-1.8,0.4-2.2c0.9,0.2,0.8-0.7,1.9-0.4c2.5,0,4.9,0,7.4,0c1.5-2,0.5-6.4,1.5-8.9c-0.2-1,0.5-3-0.4-3.4
			c-2-0.5-4.2-0.8-6.7-0.7c-1.3,0.8-1.1,3.1-1.1,5.2c0.3,1,2.7-0.3,2.6,1.1c0.2,1.3-1.1,1.1-2.2,1.1c-1.3,0.2-1.8-0.4-2.6-0.7
			c0-3.1,0.1-6.1,0.7-8.6c-0.1-1.5,2.3-0.4,3.3-0.7c1.8,0.5,3.9,0.8,6.3,0.7c1.2-0.9,1-3.3,1.5-5.6c0.2-1.1,0.5-1.9,0.7-3
			c0.5-1.9,1.4-3.2-0.7-3.7c-1.5-0.3-3.3-0.4-4.5-1.1c-0.4,0-0.7,0-1.1,0c-1.5,0.5-0.9,3.1-1.9,4.1c0,1.2,1.7,0.8,2.2,1.5
			c0.7,0.1,0.8,0.6,0.7,1.5c-0.7-0.2-2.2,0.5-2.2-0.4c-1.4,0.2-2.2-0.3-3-0.8c0.4-3.2,1-6.2,2.2-8.6c3.5,0.2,6.2,1.2,9.3,1.9
			c1.8-1,1.3-4.1,2.6-5.6c2.8,0.5,1.1,3.4,0.7,4.8c-1.4,4.9-2.6,9.4-3.7,15.7c-0.7,4.2-1.3,10.6-1.9,15.6c0,1.4,0,2.7,0,4.1
			c0,0.5,0,1,0,1.5c0,2.1,0,4.2,0,6.3c1.1,10.4,2.9,20.2,5.9,28.7c0.1,0.6,0.3,1.1,0.5,1.6h6.9c-0.1,0-0.2-0.1-0.4-0.1
			c-0.4-2.6,1.6-2.9,2.6-4.1c-0.2-1-0.6-1.9-1.1-2.6c0.6-1.1,0.7-2.8,2.2-3c0.9,3.3,0.2,7.2-0.9,9.8h2.7c0.2-0.5,0.4-1,0.3-1.6
			c0.6,0.2,1,0.9,1.3,1.6h1.6c-0.1-0.3-0.2-0.6-0.3-0.9c-2.9-7.7-6.6-18.1-7-29.1c-0.2-4.5-0.3-10.7,0.7-14.5
			c-0.1-0.6,0.4-0.6,0.4-1.1c0.2,0,0.5,0,0.7,0c1.7-0.3,0.3,1.9,0.4,2.2c0.5,1.7-0.2,5.3,0,10.8c0.2,5.3,1,10.4,2.2,15.3
			c0.6,2.3,1.2,4.5,1.9,6.7c0.3,1.2,0.4,2.6,0.7,3.7c0.2,0.6,0.5,0.8,0.7,1.5c0.6,1.7,1.3,3.5,2.1,5.4h3.1c0-0.3,0-0.6,0-0.9
			c-0.7-2.2-3.4-3.4-4.1-5.6c-0.6-1.9,0-3.8,0.4-6c-1.9-3.2-4.5-4.1-4.1-9.3c0.1-1.2,0.8-2.5,0.7-3.7c-0.1-1.6-1.4-2.9-1.9-4.1
			c-0.2-3.3,0.2-6,1.5-7.8c-1.4-2.1-2.4-7.3-0.7-10.1c0.9,0.1,1.3-0.8,1.9-0.7c3.4,0.1,2.5,7.4,0.7,9.3c1.7,2.7,2.8,8.8,0.4,12.7
			c0.9,1.9,2.9,3.9,3.3,6.7c0.3,1.8,0,3.6-0.4,5.6c0.6,1.7,1.9,2.4,2.6,3.7c0.1,0.3,0.6,1.1,0.7,1.5c0.5,1.7-0.2,3.7,0.4,5.6
			c0.4,1.3,1.5,2.2,2.6,3.1h3.3c-0.1-13.7-0.1-23.8,0-38.9c0-1.4,0-2.7,0-4.1c0-0.1,0-0.3,0-0.4c0-5.6,0-11.2,0-16.8
			c0-0.6,0-1.2,0-1.9c0-2,0-4,0-6c0.2-1.7-0.4-4.1,0.4-5.2c3.9,0.1,0.2,4.2,1.5,6c0,1.8-2.5,2.8-1.1,4.8c1.8,0.7,1.4,2.1,0.4,3.3
			c2.2,3.7,0.9,6.5,1.1,11.9c0,2.4,0,4.7,0,7.1c0.1,6.3-0.5,8.5-0.4,14.5c0,4.5,0,8.9,0,13.4c0,0.1,0,0.2,0,0.4c0,3.2,0,6.5,0,9.7
			c0,0.6,0,1.2,0,1.9v0.1h5.1c0.4-0.6,0.8-1.3,1.2-2c0.3-1.2,1.2-1.7,1.5-3c0.9,0,0.7,1.3,0.7,2.2c-0.1,0.9-0.3,1.9-0.5,2.8h2.7
			c-0.1-11.4-0.1-23.9,0.3-34.1v-118h-2.8c0.2,1.9-3.3,3.1-4.5,4.8c-0.1,0.4,0.1,0.7,0.4,0.7c1.2,0.4,4-0.8,4.1,0.7
			c0.3,1.6-0.9,1.6-2.2,1.5c-2.5,0-4.9,0-7.4,0c-0.5-1.7,2.7-2.7,3.7-4.1c-0.1-0.3,0.1-0.3,0.4-0.4c1.4-0.7,2.6-2.7,4.1-3.3h-2.4
			c-0.3,0.4-1.2,0.6-1.7,1.1c-2.3,2.1-6.1,5.3-8.5,7.8c1.6,1.2,4.2-0.8,5.9,0.4c0.9,3.3-1.7,5.3-3,7.5c0,5.5,0,10.9,0,16.4
			c0,0.1,0,0.2,0,0.4c0.2,3,0.4,5.1,0,6.7c0.4,6.8-0.1,8.7,0,17.5c-0.2,4.9,0.7,8.8,0.4,13.8c-1.4,0.8-2.8,0.8-4.1,1.5
			c-2.4,1.2-4.3,3.2-6.3,4.8c-3.8-0.8-6.5-2.7-9.6-4.1c0.5-1.5,1.2-2.7,1.9-4.1c0-0.1,0-0.3,0-0.4c1.3-6.3-5.8-9.6-9.3-5.6
			c-0.9-1.5-0.1-4.5,0.4-6c0-0.1,0-0.2,0-0.4c0.6-3.6,0.6-7.8,1.1-11.6c0-0.1,0-0.2,0-0.4c0-1.4,0-2.7,0-4.1
			c-0.4-2.2-0.6-4.6-0.7-7.1c-0.5-1.6-0.9-3.3-1.1-5.2c0-0.3,0-0.5,0-0.7c-2.2-5.3-0.8-13.3,1.5-17.5c1.9,3.6,3.4,7.7,6.3,10.8
			c0.9,1,2.2,2.4,3,3c0.4,0.3,1,0.1,1.5,0.4c0.3,0.2,0.3,0.5,0.7,0.7c1.8,0.9,4.3,2.1,7,1.1c-0.3-2.3-2.1-3.1-1.9-6
			c-0.7-0.7-0.3-2.5-0.4-3.7c-0.4-2.8-1.2-5.3-1.9-7.8c0-0.1,0-0.3,0-0.4c-1.4-1.3-1.9-3.3-3.3-4.5c-0.3-0.2-1.1-0.5-1.5-0.7
			c-1-0.6-2.5-1.4-4.1-1.9c0-0.9,0.3-1.4,0.7-1.8h-1.4C122.5,81.4,121.6,82.3,121,83.2z M18.3,178.3c-0.9,0.1-1.1-0.6-1.9-0.7
			c-0.1-0.6,0.4-0.6,0.4-1.1C18.2,176.1,18.5,177,18.3,178.3z M17.9,171.2c-1.7,0.1-1.4-1.7-1.5-2.6c-0.1-1.3,0.4-2.7,0.4-3.7
			c0-3.8-0.8-8.1-0.4-11.9c0.3-0.3,1-0.2,1.1-0.7c0.4-0.1,0.7,0.1,0.7,0.4C18.1,161.5,19.3,164.1,17.9,171.2z M64.7,231.5
			c-1.3-0.3-1.4-1.8-1.9-3C64.5,228.4,65.6,230.2,64.7,231.5z M143.3,230c-1.1-0.1-1.7-1.7-2.2-2.6c-0.9-1.7-1.1-3.3-1.9-5.6
			c-0.2-0.6-0.6-0.9-0.7-1.5c-0.4-1.3-0.4-2.8-0.7-4.1c-2.2-9.7-3.7-22.9-1.9-34.6c0.2-0.3,0.4-0.6,0.4-1.1c0.1,0,0.2,0,0.4,0
			c2.1-0.7,1.6,1.7,1.5,3.7c-0.1,1.2-0.7,2.5-0.7,3.7c-1,13.1,1.3,25.6,4.8,35C143.1,225.3,144.5,227.7,143.3,230z M148.5,161.9
			c0.5-0.4,2.3-0.5,3.3-0.7c1.2-0.2,2.5-0.6,3.3-0.4c0.6,0.6,0.3,2.2,0.4,3.3c-0.9,0.9-2.9,0.8-4.8,0.7c-0.5-0.5-0.2-1.8-0.7-2.2
			c-0.8,0.7,0,3-1.1,3.4C145.8,165.4,147,163,148.5,161.9z M151.5,149.6c0.9-2,2.7-4.1,3.3-5.2c1.8,2.8-1.1,7.9-2.6,10.8
			C149.2,154.4,150.6,151.4,151.5,149.6z M149.2,148.1c-1.4-0.6-0.5-3.8,0.4-5.2c0-0.1,0-0.3,0-0.4c0.9-4,3.5-6.5,5.2-9.7
			C156.1,139.6,151.6,143.7,149.2,148.1z M151.1,156.6c2.2,0.2,3,3.4,0.7,4.1C149.3,160.9,148.9,157.2,151.1,156.6z M146.6,174.2
			c0.4-3.4,5.6-2.8,8.5-2.6c0.6,1.2,0.2,2,0,3.3c-0.6,0-1.2,0-1.9,0c0-0.7,0-1.5,0-2.2c-1.3,0.6-0.5,3.3-2.6,3
			c-0.9-0.7,0.7-2.1-0.4-3c-1,0.2-0.7,1.8-1.1,2.6C147.8,175.5,146.9,175.1,146.6,174.2z M148.5,183.5c-0.8-0.6-0.1-2.8-0.4-4.1
			c1.1-0.3,1.4,0.4,2.2,0.4C150.5,181.8,149.1,182.2,148.5,183.5z M151.1,184.2c0.4-1.1,5-5.2,3.3-1.1c0,1.3-0.6,2.4-1.1,3.4
			c-0.2,0.4-0.5,1.1-0.7,1.5c-0.1,0.1-0.7,0.3-0.7,0.4c-0.8,1.7-2,3.7-3.3,5.6C147.7,190.5,149.3,186.3,151.1,184.2z M148.5,213.3
			c0.9-4.5,3.2-8.2,5.6-11.6c0.4-0.1,0.7,0.1,0.7,0.4c0.3,7.7-4.2,10.4-6.3,15.6C147.1,216.7,148.2,214.6,148.5,213.3z M150,229.3
			c-0.6,0.9-1,2.3-2.2,2.6c-0.1-6.5,2-10.9,4.5-15.3c0.7-1.3,1.1-3.1,2.6-3.7C155.7,219.5,153,224.9,150,229.3z M148.5,205.5
			c-0.8-2.8,0.2-6.6,1.5-8.9c0.2-0.4,0.9-0.8,1.1-1.1c0.4-0.6,0.3-1.2,0.7-1.9c0.3-0.4,0.8-0.6,1.1-1.1c0.6-0.9,0.8-2.7,2.2-2.6
			C155.3,197.4,151.3,200.8,148.5,205.5z M154.8,179c-1.4,0.4-0.7-1.3-1.5-1.5c-0.5,0.5-0.6,1.4-1.1,1.9c-2.2,0-4.1-0.3-3.7-3
			c1.8-0.6,4.4-0.3,6.3-0.7C155.6,176.2,156,178.6,154.8,179z M155.5,170.1c-0.9,0.1-1.4,0.6-2.6,0.4c0-0.9,0-1.7,0-2.6
			c-1.3-0.1-0.5,2-1.1,2.6c-0.7,0-1.5,0-2.2,0c-0.2-1,0.5-3-0.4-3.3c-0.7,0.8-0.2,2.7-1.1,3.3c-2.4,0.2-2.5-2-1.5-3.3
			c2.7-0.6,5.1-1.5,8.5-1.5C155.9,166.5,155.4,168.6,155.5,170.1z M154.4,158.5c-0.1-1.4,0.1-2.4,0.4-3.4
			C155.9,155.2,156.1,158.9,154.4,158.5z M155.2,123.9c-0.4,3.3-1.4,6.9-3.3,8.9c-0.2,0.2-0.7,1.2-1.1,1.9c-0.2,0.3-0.6,0.8-0.7,1.1
			c-0.4,0.6-0.3,2.3-1.5,2.2c-0.5-7.2,2.4-11,4.8-15.3c0.1-0.5,0.5-0.8,0.7-1.1c0.1-0.1,0.7-1.1,0.7-1.1
			C156,120.7,155.8,122.4,155.2,123.9z M150.7,114.5c0.4-0.9,0.7-1.9,1.1-2.6c0.1-0.2,0.7-0.2,0.7-0.4c0.5-1,1.1-3.3,2.6-3.7
			c1,6.2-2.1,11.2-4.8,15.3c-0.5,0.8-0.8,1.9-1.9,1.9C148.3,120.4,149.3,117.4,150.7,114.5z M155.5,98.1c-0.4,5.1-2.8,8.2-4.8,11.6
			c-0.2,0.7-0.9,1.8-1.5,2.2l0,0c-0.5,0.3-0.9,0-0.7-1.9c0.6-2.7,2.2-6.6,3.7-8.9C153.1,99.8,154.2,97.7,155.5,98.1z M152.2,89.6
			c0.7,0,1.5,0,2.2,0c0.6,2.2-0.8,4.5-1.9,6.3c-1,1.8-2.2,4.1-4.1,4.8c-0.9-3.6,2.1-4.5,3-7.1C151.9,92.3,151.4,91.2,152.2,89.6z
			 M145.5,98.1c-0.3-2.4,1.4-2.8,1.9-4.5c0.7-1.4-0.1-4.3,2.2-4.1c1.8,0.6,0.9,3,0.4,4.5c-0.6,1.5-2,2.5-2.6,3.4
			c0,11.5,0,23.1,0,34.6c0,0.6,0,1.2,0,1.9c0,4.5,0,8.9,0,13.4c0.5,2.3-0.3,6.3-2.2,3.7c0-2.4,0-4.7,0-7.1c0.1-4.9-0.2-8.3,0-12.7
			c0-2.6,0-5.2,0-7.8c0-0.7,0-1.5,0-2.2c0-7.5,0-14.9,0-22.4C145.1,98.5,145.2,98.2,145.5,98.1z M134,159.6c3-3.8,6.2-7.5,13.7-6.7
			c0.8,0.8,1.8,1.4,2.6,2.2c-0.5,1.5-1.4,2.5-1.9,4.1c-1.6-0.1-2-1.5-3.3-1.9c-1.5,0.9-3.1,1.8-5.2,2.2c0.7,1.2,2.7,1,3,2.6
			c-0.6,2.5-2.8,4.2-4.4,6c-0.5,0.6-1,1.2-1.5,1.9c2.2-0.8,3.4-2.4,4.8-4.1c0.4-0.5,0.6-1.6,1.5-1.5c1.3,3-3,3.4-3.7,5.6
			c1,1.2,1.8-0.9,3.3-0.4c1.7,1.6,0.3,4.8,0.7,8.2c-3,1.1-8.6,1.1-10.8-0.7C133,171,133.6,165.4,134,159.6z M130.3,159.6
			c3.2,0,1.6,6.5,1.5,9.3c-0.1,2.2,0.2,4.2-0.4,6c0,1.7,0.3,3.8-1.5,3.7c0.1,0.3-0.1,0.4-0.4,0.4c-0.3,0.3-0.8,0.4-1.5,0.4
			c0-1.2,0-2.5,0-3.7c-1.8-1.9,0.8-3.9,0.4-7.5c-0.1-1.3-0.8-1.9-1.1-3.4C128.9,163.7,129.1,161.1,130.3,159.6z M114.7,105.6
			c-0.9-0.2-2-3.5-0.4-3.7C114.1,103.5,114.6,104.3,114.7,105.6z M49.1,94.4c1.1-1.1,2.9-1.2,4.4-1.5c1.6-0.3,3.4-0.2,5.2-0.4
			c1.3-0.1,2.7-0.6,4.1-0.7c0.3,0,0.6,0.4,1.1,0.4c0.5,0,3.8-0.7,4.8-0.7c2.3-0.1,4.6,0.3,7,0.4c2.5,0.1,5-0.1,7.4,0
			c5.3,0.2,10.7,1,15.9,1.5c5.4,0.5,10.6,1,15.2,2.2c-3.4,0.4-7.1-0.6-11.1-1.1c-2-0.3-3.8-0.5-5.9-0.7c-2-0.2-4.2-0.2-6.3-0.4
			c-1.6-0.1-3.2-0.6-4.8-0.7c-6.9-0.5-13.5-0.3-20.8,0c-3,0.1-6.1,0.3-8.9,0.7C54,93.7,51.6,94.8,49.1,94.4z M75.1,142.5
			c0,1.7,0,3.5,0,5.2c-1,3.4-4,6.3-7.8,5.2c-0.8-0.2-2.6-2-3-3c-0.6-1.6,0-3.2,0.4-4.8c0.1,0,0.2,0,0.4,0c0.5-1.7,4.9-2.8,6.3-1.1
			l0,0c0.2,0.2,0.3,0.4,0.4,0.7c2.8,5.5-6,7.5-4.8,2.6c-0.2-2.6,4.2-2,2.6,0.4c0.1,0.3,0.4,0.4,0.4,0.7c1.5-0.5,0.6-3.4-0.4-3.7
			c-3-0.2-4,1.4-3.7,4.5c0.9,2.2,5.9,2.6,6.7,0c0.5-0.2,0.1-1.4,0.7-1.5c0-1.6,0-3.2,0-4.8c-0.9-6.4-2.2-12.5-2.6-19.4c0-2,0-4,0-6
			c-0.1-3.7,0.5-7.3,1.1-10.8c0.1-0.8,0.2-1.6,0.4-2.2c0.1-0.5,0.9-0.9,1.1-1.5c0.7-1.7,0.5-4.9,3-4.8c-0.9,5.4-2.5,10.1-3.3,15.6
			c0,3.4,0,6.7,0,10.1C73.5,130.2,74.1,136.5,75.1,142.5z M91.7,208.1c-0.9-0.2-1.5-1.4-0.7-2.2c0.6-0.1,0.6,0.3,1.1,0.4
			C92.4,207.3,91.6,207.2,91.7,208.1z M91,191.7c0.8,0.8,0.2,2.1-0.4,2.6c-0.9-0.3-1.5-1.8-0.7-2.6C90.3,191.7,90.6,191.7,91,191.7z
			 M89.9,185c0.5,0,1,0,1.5,0c0.1,0.9-0.1,1.4-0.4,1.9C90.3,186.6,90,185.8,89.9,185z M90.6,198.4c1.8,0,0.7,1.5,0.7,2.6
			C89.9,201.3,89.2,198.7,90.6,198.4z M91.7,180.1c-1,0.2-0.3-1.4-1.1-1.5c0.1-0.8,0.9-0.8,1.9-0.7C92.6,179,91.6,179,91.7,180.1z
			 M89.1,162.2c0.8-1,1.5-2,3.3-1.9C92.2,162,90.4,163.8,89.1,162.2z M86.2,169.3c-3.4-0.6-3.3-7.2,2.2-6
			C90.8,165.9,89.1,169.8,86.2,169.3z M87.3,201.4c-0.6,1.8-2.5,2.3-3.7,3.3c-1.4,1.2-2.2,2.3-3.3,3.4c-1.1-2.3-0.2-6.6,0-10.1
			c0.3-6.8,0.8-13.9,1.1-20.5c2.1-1.6,5.1-2.3,7.4-3.7c0.3,0.2,0.7,0.3,0.7,0.7c-0.7,4.8-1.9,10.8-2.2,17.1
			C87.2,194.8,88.1,198.8,87.3,201.4z M57.3,191.7c-1-1.3-3.1-2.3-3-4.5c1.6-0.7,3.3,2,4.4,3.4c1.1,1.4,3.2,3.3,2.2,5.2
			c-1.7,0.1-2.1-1.8-3-3c-0.1-0.1-0.7-0.3-0.7-0.4C57.2,192.2,57.4,191.8,57.3,191.7z M45.4,185.7c-6.9,2.5-6.9-4.9-7-10.4
			c1.4,2.7,0.5,7.7,2.6,9.7c1.6,0.4,3.7,0.6,4.8-0.4C46.8,184.8,45.2,185.2,45.4,185.7z M33.9,189.4c2.1-1.6,7.1,0.2,6.3,5.2
			c-0.1,0.7,0.1,1.2-0.7,1.1C40,191.2,38.3,189,33.9,189.4z M38.3,194.3c-1.7-0.1-2.4-1.3-3-2.6C36.7,192.2,38.3,192.4,38.3,194.3z
			 M33.5,167.1c1.3,0.8,5.1,2.4,5.2-0.8c0.4,0,0.3,0.5,0.4,0.8c0.6,0.5,0.6,3.6,0,4.1c-0.2,2.2-4,0.7-5.9,1.1
			C34.7,171.1,33.2,169.2,33.5,167.1z M41.3,180.9c1.3,0.4,2.8,0.7,3,2.2C42.3,183.3,41,182.9,41.3,180.9z M40.6,176.8
			c1.4-0.2,3.2,0.6,4.8,1.5c0.5,0.3,0.7,0.9,1.1,1.1c1.6,1,4.9,2,4.4,4.8c-1.1,0.6-1.8-0.6-2.6-1.1c-0.4-0.3-1.1-0.4-1.5-0.7
			c-0.3-0.2-0.4-0.9-0.7-1.1C44.3,180.1,40.5,179.7,40.6,176.8z M51.7,121.6c0-2,0-4,0-6c0.2-3.7,1-7.9,2.2-11.2
			c0.7-1.9,1.5-4.8,3.7-4.8c0,2-1.6,3.1-2.2,4.8c-1.1,3-1.1,7-1.9,10.4c0,3,0,6,0,8.9c0,1.6,0,3.2,0,4.8c-0.2,1.1,0.5,3.2-0.4,3.7
			c0,1.5-0.1,2.9-1.1,3.3c-2.6-0.3-0.9-3.9-0.7-6.3C51.5,126.6,51.1,124,51.7,121.6z M70.6,131.7c-0.2,1.5,0.5,4-0.4,4.8
			c-0.1,2.4-0.2,4.7-2.2,5.2c-0.7-2.4,0.3-6,0.4-7.8c0-1.4,0-2.7,0-4.1c0-2.6-0.8-6.1-0.4-7.8c-0.6-1.6-0.6-5.8,0-7.5
			c-0.7-3.3,1.3-9.9,2.6-13c0.5-1.3,0.7-2.8,1.9-3.3c1.5,1.2-0.3,3.8-0.7,5.6c-0.8,2.8-1.6,6.6-1.9,10.1c0,1.4,0,2.7,0,4.1
			C69.3,122.3,69.9,126.8,70.6,131.7z M71,138.4c0.9,0,0.7,1.2,0.7,2.2c0.8,0,0.2,1.6,0.4,2.2c-1,0.1-2.6-1-1.5-1.9
			C70.3,139.7,71.2,139.6,71,138.4z M69.5,101.1c-0.9,3.9-2.5,8.3-2.6,13.4c0,3,0,6,0,8.9c0.6,1.3,0.3,3.4,0.4,5.2
			c0.9,0.6,0.1,2.8,0.4,4.1c-1.2,2.3,0.8,7.8-2.6,7.8c-0.2-2.3,0.7-6.7,0.4-10.4c0-1.2,0-2.5,0-3.7c-1-9.4-0.6-20.4,3.3-26.8
			c0.3-0.7,0.7-1.3,1.9-1.1C70.3,99.5,70.2,100.6,69.5,101.1z M67.3,100.4c-2.8,5-3.1,12.6-3.3,20.1c0.9,1,0.1,3.6,0.4,5.2
			c-0.1,1.5,0.7,2.1,0.4,3.7c0,2,0,4,0,6c-0.8,1.3,0.3,4.5-2.2,4.1c-0.8-1.4,0.8-3.3,0.4-5.6c0-1.7,0-3.5,0-5.2
			c0.3-2.3-0.5-3.5-0.4-5.6c0-2.9,0-5.7,0-8.6c0.2-5.6,1.1-10.6,3.3-14.2c0.5-0.8,0.6-1.9,1.9-1.9C67.9,99.6,67.1,99.5,67.3,100.4z
			 M60.6,149.6c-2.1-0.6-1.9-5.3-0.4-6.3c0.7-1.1,1.5-2,3.3-1.9c-0.2,0.5-0.6,0.9-1.1,1.1C60.8,144,60,146.8,60.6,149.6z
			 M58.4,148.4c-1.2-0.5-2.5-2.5-1.5-4.1c0.6-2,1.4-3.8,4.1-3.7c-0.7,1.2-1.9,1.8-2.2,3.4C58.1,145.1,57.7,147,58.4,148.4z
			 M52.4,145.5c0-0.1,0-0.3,0-0.4c-0.7-0.5-0.5-3.2,0-3.7c0.7-1.6,1.7-3,4.1-3c-0.6,0.9-1.3,1.7-2.2,2.2c0,0.1,0,0.3,0,0.4
			c-0.2,0.6-0.5,0.9-0.7,1.5C53.5,143.7,54,146.9,52.4,145.5z M51.7,140.2c-0.2,0.6-0.5,0.9-0.7,1.5c0,1.1,0,2.2,0,3.3
			c-0.8-0.1-0.7-1-1.1-1.5c-0.6-0.3-0.6-3.1,0-3.4c0.7-1.5,1.9-2.6,4.1-2.6C53.4,138.7,52.2,139.2,51.7,140.2z M52.8,159.3
			c-1,0.1-1.6-0.1-1.5-1.1C51.8,157.6,53.1,157.9,52.8,159.3z M49.8,152.5c1.6,0.3,1.2,3.3,0.4,4.1C49.4,156,50.1,153.8,49.8,152.5z
			 M50.2,164.1c2.3,0.9,4.3,2.2,6.7,3c0,6,0.1,12-0.4,17.5c-1.5-1-1.9-3-3-4.5c-1.2-0.4-2.8-0.4-3.7-1.1
			C49.7,174.1,48.9,168.4,50.2,164.1z M52.8,153.3c-0.1,0-0.2,0-0.4,0c-0.2-1.7,1.7-1,2.2-0.4C56.6,153.9,53.2,155,52.8,153.3z
			 M54.7,145.1c-0.9-0.7-0.2-2.9,0.4-3.3c0.5-1.1,2.7-2.9,4.1-2.2c0.2,0.1-0.2,0.5-0.4,0.4c-1,1.4-2.4,2.3-3,4.1c0,1,0,2,0,3
			C55.1,146.6,54.5,146.3,54.7,145.1z M63.9,101.5c-1.3,3.9-2.3,8-2.6,12.7c-0.3,4.6,0.6,9.4,0.7,13.8c0,0.8-0.6,2-0.4,2.6
			c0.2,0.7,0,1.6,0,2.6c0,0.9,0.3,4.7-1.1,5.6c-2.2-0.1-0.5-3.3-0.4-4.5c0-1.4,0-2.7,0-4.1c0-0.4,0-0.7,0-1.1
			c-0.9-0.8-0.1-3.1-0.4-4.5c0-1.6,0-3.2,0-4.8c0-2,0-4,0-6c0.4-5.3,1.3-10.1,3.7-13.4c0.4-0.6,0.3-1.7,1.5-1.5
			C65.1,100.1,64.5,100.9,63.9,101.5z M58.7,117.9c0,2.1,0,4.2,0,6.3c0,0.4,0,0.8,0,1.1c0.9,0.8,0.1,3.1,0.4,4.5
			c-0.2,3.1,0.6,7.1-1.9,7.8c-0.8-3.8,1.1-8.3,0-12.7c0-1.9,0-3.7,0-5.6c-0.4-5.5,0.5-10.1,1.9-14.2c0.4-1.1,0.5-2.6,1.1-3.7
			c0.5-0.9,1.3-2.4,2.6-2.2C60.3,104.3,58.8,110.3,58.7,117.9z M59.9,100.8c-3.2,5.8-4.4,15.4-3.3,24.2c0,3,0,6,0,8.9
			c-0.4,0.7-0.6,3.6-1.5,2.6c-2.2,0.3-1.2-2-1.1-3.3c0.2-2.2,1.2-5,0.7-8.2c-0.9-0.5-0.1-2.6-0.4-3.7c-0.1-1.4,0.1-2.4,0.4-3.3
			c0-1.6,0-3.2,0-4.8c0.4-4.8,1.7-8.7,3.7-11.9c0.2-1.1,0.8-1.7,1.9-1.9C60.3,99.9,59.8,100,59.9,100.8z M51.3,136.5
			c-0.3,1.3-1.6,1.7-2.2,2.6c0,1.7-1.1,2.4-0.7,4.5c-1.3-0.5-1.9-2.7-0.7-3.7C48.3,138.2,49.5,137,51.3,136.5z M47.6,149.6
			c0,0.1,0.4,2.1,0.4,3c0,5.7-0.1,11.7,0,17.1c0,1.3,0.1,3.2,0,4.5c-0.1,1,0.6,3-1.1,3c-1.8-1.1-1.1-3.9-1.1-6.7
			c0-7.1,0-16.1,0-23.5c0-0.4,0-0.7,0-1.1c0.3,0,0.5,0,0.7,0C48.8,145.8,47.7,148.6,47.6,149.6z M52.8,182.4
			c2.1,1.9-0.5,4.9-1.1,6.7c-0.7,2.2-0.3,3.5,0.7,5.6c1,0.4,2.6,0.4,4.1,0.4c-1.2,1.4-3.5,1.1-4.4,0.4c-0.1-0.1-1.4-2-1.5-2.6
			C49.9,189.3,53.8,185.9,52.8,182.4z M55.8,192.8c-1.2,1.2-2.6-0.6-2.6-1.9C54.3,190.1,54.9,192.2,55.8,192.8z M60.6,189.4
			c-0.7,0.1-2.4-1.7-2.6-2.6c-0.2-0.7,0.3-1.9,0.4-3c0.3-4.7,0-11.4,0.4-15.7c1.1,0.1,1.9,0.6,2.6,1.1
			C61,175.9,61.2,183.1,60.6,189.4z M57.3,161.5c-2.4-0.4-3.8-5.2,0-6.3c1.3-0.4,3.7,0.2,4.1,1.9C61.9,159.3,59.9,161.9,57.3,161.5z
			 M64.7,142.5c0.3-0.6,0.9-0.8,1.9-0.7c-0.5,1.4-2.1,1.6-2.6,3c-0.5,1-0.9,2.1-0.7,3.7c0.2,1.1,0.9,3.4-0.7,2.2c0-0.1,0-0.2,0-0.4
			C60.2,148,61.8,143,64.7,142.5z M62.8,156.6c1-0.3,1,0.5,1.9,0.4C65,158.7,62.2,158.4,62.8,156.6z M69.9,160
			c0.7,1.4,0.3,3.4,0,4.8c-1.4,0.4-1.4,1-3,0.7C62.3,165,64.3,155.6,69.9,160z M62.4,185.7c0.5-2.4,0.7-7.3,0.7-9.7
			c0-1.9-0.5-3.7-0.4-4.8c0-0.3,0.5-0.6,0.4-1.1c0.4-0.1,0.7,0.1,0.7,0.4c2.1,0.5,4.1,1.4,5.9,2.2s3.8,1.7,5.2,3
			c0.5,11.1-0.9,21-1.5,30.9c-4.2-1.2-5-6-7.8-8.6c-0.2-1.2-0.3-2.4-0.7-3.4c-0.3-1.6-2.2-2.1-2.6-3.7c-0.3-1.1,0.3-2.7,0.4-4.8
			C62.8,186.1,62.4,186,62.4,185.7z M72.1,167.8c-1.2,0.2-1.7-0.3-1.5-1.5C71.8,166.2,72.3,166.7,72.1,167.8z M72.1,162.2
			c0-0.5,0-1,0-1.5c1.1,0,1.4,0.8,2.2,1.1C73.9,163.2,73,162.9,72.1,162.2z M75.8,194.6c0.3-5.9,1.1-11.8,1.5-18.3
			c2,0,1.9,0.7,2.2,1.9c0.2,0.7,0.1,3.5,0,6c-0.4,7.5-1.5,17.2-1.5,25.7c-0.7,0.8-2.3,2.6-3,2.2C75.2,206.5,75.4,201.6,75.8,194.6z
			 M77.3,169.7c-1.5,0.1-3.1-1.2-3.3-2.6c-0.3-1.9,0.3-3.1,2.2-3.7C81.1,161.7,81.4,169.5,77.3,169.7z M80.2,170.4
			c1.1-0.5,1.6,0.2,3.3,0c0.1,1.1-1.1,0.9-1.5,1.5C81.2,171.7,80.4,171.4,80.2,170.4z M82.1,159.3c-4-1.4-7.5-3.1-11.1-4.8
			c0.1-1.4,1.9-1.1,2.2-2.2c1-0.4,1.3-1.5,2.2-1.9c4.2,1.5,7.9,3.5,12.2,4.8C86.8,157.5,83.7,157.7,82.1,159.3z M48.7,126.1
			c0.2-4.1,0.1-8.6,0.4-12.7c0.3-3.5,1-7.3,2.2-9.7c-0.2-1.6,4.6-5.2,2.6-2.2c-1.3,4.1-2.7,8.2-3,13.4c-0.2,1.4,0.5,3.7-0.4,4.5
			c0.3,1.6-0.2,3.5,0,6c0,1.4,0,2.7,0,4.1c-1,1.6,0.2,5.5-2.6,5.2C47.7,132,48.6,129.3,48.7,126.1z M48.4,135.8
			c0.4,0,0.3,0.5,0.4,0.7c-1.4,1.6-3.1,2.8-2.6,6.3c-1-0.3-1.8-2.1-1.1-3C45,137.3,47.2,137.1,48.4,135.8z M46.5,135.4
			c-1.4,1.6-2.9,3-2.6,6.3C41.4,139.8,44,135.7,46.5,135.4z M44.6,134.7c-0.3,1.5-2.2,1.3-2.2,3c-0.7,0.7-0.3,2.5-0.4,3.7
			c-1.7,0.3-1.9-2.8-1.1-3.7C41.7,136.2,42.5,134.7,44.6,134.7z M39.1,136.5c0.2-1.5,1.6-1.9,2.6-2.6c0.8,0.6-1.1,1.6-1.5,2.2
			c-0.2,1.2-0.3,2.4-0.7,3.4C38.7,139.3,38.3,137,39.1,136.5z M25.7,147.7c0.8-0.8,1.9-1.3,3-1.9c0.9,0.5,1.2,1.5,1.5,2.6
			c-0.9,0-1.8-0.1-2.2,0.4c0.1,0.3-0.1,0.4-0.4,0.4c-1.2,0.3-1.5,2.7-0.7,3.7c1.1,1.3,2.9,1.1,4.8,0.7c0.1,1.2-0.7,1.6-0.4,3
			c-0.1,0.8,1.3,0.2,1.9,0.4c0.1-0.5,0.9-0.3,1.5-0.4c-0.1-1.5-1.4-1.8-1.1-3.7c0.4,0.4,1.3,0.4,2.2,0.4c3.7,0.5,4.1-4.2,1.5-5.2
			c-0.1,0-0.2,0-0.4,0c-0.5,0-1,0-1.5,0c-0.6-0.9-0.1-2.9-1.1-3.4c-0.1-1.1,1.6-1,2.2-1.1c0.9-0.2,1.6-0.6,2.6-0.4
			c0.7,0.7,0.3,2.5,0.4,3.7c0,0.4,0,0.7,0,1.1c0,1.6,0,3.2,0,4.8c0,1.9,0,3.7,0,5.6c-0.2,1.9,0.4,4.6-0.4,6
			c-0.7-0.7-1.4-1.3-2.2-1.9c-0.6,0-1.2,0-1.9,0c1-2.2,0-4.7-2.6-4.5c-1.1,0-1.6,0.7-1.9,1.5c-0.5,0.5-0.5,2.1,0,2.6
			c-0.2,0.9-2.3-0.1-2.6,0.7c-1.3,0.2-1,2-2.2,2.2C25.7,159.4,25.7,153.5,25.7,147.7z M25.7,166c1.3,0.1,1.1,1.7,2.2,1.9
			c1.3,0.1,2,0.4,3-0.4c1.2,1.4-1,2.7-0.7,4.5c-1.8,0-3.4-0.3-4.5-1.1C25.7,169.2,25.7,167.6,25.7,166z M25.4,173.4
			c2.9,0.2,5.9,0.2,8.2,0.7c1.1,0.2,2.9,0,3,1.5c-2.3,0.3-5.2-0.9-8.5-1.1c-2.9-0.2-6.2,0.5-8.9-0.4
			C19.9,171.9,23.2,173.2,25.4,173.4z M26.5,177.1c0.4-0.8,2.3-0.1,3.3-0.4C30,178.6,26.9,177.9,26.5,177.1z M23.5,184.2
			c-0.8-0.5-1.9-0.6-1.9-1.9c0.3-0.2,0.7-0.3,0.7-0.7C23.6,181.7,23.9,183.7,23.5,184.2z M28,190.2c-1.3,0.1-2.7-2-1.1-2.6
			C28.1,187.5,27.9,189,28,190.2z M32,196.1c-1.6,1.2-3.3-2.2-0.4-1.9C31.5,195.2,32.3,195.1,32,196.1z M30.9,180.1
			c-0.3,0.2-1.3,0.7-1.5,0.7c-3,0.6-6.2-1.5-6.3-4.5c1.4,0.5,1.5,2.3,2.6,3c2.4,1.5,5.4,0.1,6.7-2.2
			C33.3,177.9,31.6,179.6,30.9,180.1z M35.4,204c-1.8-0.4-2.2-3.3,0-2.2c0.4,0,0.3,0.5,0.4,0.7C35.9,203.3,35.5,203.5,35.4,204z
			 M34.6,195.8c2.2-0.8,4.4,1.6,5.2,3.4C36.9,200.6,35.7,197.4,34.6,195.8z M39.1,210.3c-2.2,0.3-2.3-2.6,0-2.2
			C39.1,208.8,39.1,209.6,39.1,210.3z M42.8,199.1c1.5-0.5,4.4-0.4,6.3,0c1.9,1.5,3.6,4.9,1.5,7.5c-0.4-1.5,0.5-2.6,0-4.1
			c-0.4-1.1-2.1-2.7-3.3-3c-2.9-0.6-5.2,1.5-7.8,2.2C39.6,200.9,41.7,199.5,42.8,199.1z M45.8,215.1c-2,2.3-2.3-2.8-3-4.1
			c0.4,0,0.7,0,1.1,0C43.7,213.2,44.3,214.6,45.8,215.1z M45,207.3c-0.2-0.2-0.7-1-1.1-1.5c-0.6-0.8-1.3-1.2-1.5-2.2
			c0.3-0.1,0.4-0.4,0.7-0.4c2.1,0.5,3.1,2.7,4.4,4.5c0.8,1.1,2.2,2.2,2.2,3.7c-1.2,0.1-1.2,0-1.9-0.4c-0.6-0.4-0.3-0.7-0.7-1.1
			C46.3,209,45.9,208.3,45,207.3z M46.5,202.1c0.9-0.6,2.6,0.4,2.2,2.2C47.5,204.1,46.8,203.3,46.5,202.1z M41.7,217
			c-1.2-0.2-2.5-2.9,0-2.6C42.1,215.5,42.1,215.9,41.7,217z M41.7,207.7c-0.3,0.7-1.5-1.9-1.5-3c1.4-0.4,1.2,0.8,1.9,1.1
			C40.9,206.3,41,206.6,41.7,207.7z M42,221.1c0.7-0.2,0.9-0.8,1.9-0.7c0,0.9,0.1,1.8-0.4,2.2C42.6,222.5,42.1,222.1,42,221.1z
			 M45.4,228.6c-1-0.1-1.3-1-1.5-1.9c0.4-0.3,1-0.5,1.8-0.4C45.8,227.2,45.8,228.1,45.4,228.6z M52.1,215.5c1.4-0.4,1.6,1.1,2.2,1.9
			c0.5,0.7,1.1,1.5,1.5,2.2c0.9,1.5,2.2,3.4,1.9,4.8c-2.4,0.4-2.9-2.6-3.7-4.1C53.1,218.9,51.1,217.3,52.1,215.5z M55.8,215.1
			c0.5,0,1,0,1.5,0c0.7,0.9,1,2.2,0,3C56.6,217.3,55.7,216.7,55.8,215.1z M53.9,226.3c0.8-0.4,1.9,0.7,3.3,0.7
			c0.9,0,1.6-0.7,2.6-0.4C58.3,227.9,55.4,227.2,53.9,226.3z M59.5,220c-0.5-1.6,1.1-2,0.7-4.1c-1.1-7.2-11.7,1.7-14.5-3.4
			c0-0.9,0.5-0.6,0.4,0c0.3,0.2,0.7,0.3,0.7,0.7c2.6,1.4,6.7-1.8,10-1.5C60.7,212.2,63,216.7,59.5,220z M59.5,205.1
			c-0.4-3.3,2.8-7.3,3.3-9.7c0.5,2.8-3.1,6.3-2.6,9.7c0.3,1.9,2,2.7,4.5,3.3C61.8,209.4,59.8,207.6,59.5,205.1z M64.3,206.2
			c-1.6-0.1-2-1.2-1.9-3C63.7,203.5,63.8,205.1,64.3,206.2z M63.2,200.2c0.3-0.3,0.6-0.7,0.7-1.1c0.6-0.1,0.6,0.3,1.1,0.4
			c-0.2,1.1,1.2,1.6,1.9,2.6c0.5,0.7,1,2.1,1.5,3s3.1,3.8,0,4.5C67,206.1,64.5,203.7,63.2,200.2z M68,215.5c0.2-0.4,0.5-0.7,0.7-1.1
			c1-1.3,2.4-3.5,3-5.6c0.9,1-0.2,2.4-0.7,3.3c-0.3,0.6-0.6,1.1-1.1,1.9c-0.8,1.4-2.9,3.2-1.5,6.3c0.7,1.6,2.1,1.7,4.1,2.6
			C67.5,223.6,65.9,219.1,68,215.5z M71.7,220.4c-1.4-0.2-2.1-1.2-1.9-3C70.9,217.9,71.4,219.1,71.7,220.4z M76.9,224.5
			c-1.1,0-1.4-1.1-1.9-1.9c-0.8-1.3-1.5-3-2.2-4.5c-0.7-1.4-2.5-3.1-0.7-4.5c1.7,0.2,2.1,3.1,3.3,4.5c0,0,1.7,2.7,1.9,3.3
			C77.6,222.6,77.7,223.6,76.9,224.5z M80.6,214.4c-1.2,1.1-2.4,1.9-3.3,3.3c-0.8-0.3-1.1-1.1-1.5-1.9c0.5-1.3,1.5-2.3,2.6-3.4
			c1.8-1.8,3.9-3.3,6.3-4.8c1-0.6,2-2.1,3.3-1.5c0.8,2.1-1,2.5-1.9,3.4c-1,0.9-2.1,1.5-3,2.2C82.3,212.6,81.6,213.5,80.6,214.4z
			 M85.4,230.8c1-2.4,2.7-4.6,5.2-6C91.6,228.1,88.9,232,85.4,230.8z M91,212.5c0.5,0,1,0,1.5,0c0,0.9,0.1,1.8-0.4,2.2
			C91.3,214.4,91,213.7,91,212.5z M95.1,226.7c0.5,0.5,0.5,1.8,0,2.2C93.3,229.1,93.1,226.4,95.1,226.7z M94,220.4
			c0.2,0.9-0.7,0.8-0.4,1.9c-0.6-0.5-1.5-0.8-1.5-1.9C92.7,220.4,93.4,220.4,94,220.4z M92.1,173c0.2-0.9-0.7-0.8-0.4-1.9
			c0.6,0,1.2,0,1.9,0C93.4,172.1,93.3,173.1,92.1,173z M93.6,166.7c-0.8,0-0.2-1.6-0.4-2.2c0.4,0,0.7,0,1.1,0
			C94.6,165.8,93.9,166,93.6,166.7z M94.7,161.5c-0.6-0.7-0.5-3,0.4-3.4C97,158,96.4,161.9,94.7,161.5z M109.5,152.9
			c-1.9,1-4.2-0.3-5.9-0.7c0.4-3,4-2.3,5.9-1.1C109.5,151.7,109.5,152.3,109.5,152.9z M107.3,147c1-0.1,1.1,0.9,1.1,1.9
			c-1,0.3-1-0.5-1.9-0.4C106.3,147.4,107.3,147.7,107.3,147z M110.7,146.2c0,1,0,2,0,3c-1.4-0.2-2.5-4.1-1.5-5.2
			c0.4-0.6,0.3-1.7,1.5-1.5C110.7,143.7,110.7,145,110.7,146.2z M107,145.5c-1.7,2.6-3.5,5.4-5.9,7.5c-0.4,0.3-1,0.4-1.5,0.7
			c-0.6,0.4-0.8,1-1.1,1.1c-0.7,0.3-2.4,0.7-3.3,0.7c-3.5,0.2-7.1-1.3-10.4-2.6c-3.1-1.2-6.3-2.4-8.9-4.1c0.5-3.8-0.3-6.4-0.4-11.2
			c0-0.1,0-0.3,0-0.4c-0.6-2.4-1-4.9-1.1-7.8c0-0.1,0-0.3,0-0.4c-0.9-0.6-0.1-2.8-0.4-4.1c0-0.1,0-0.2,0-0.4c-0.6-4-0.5-8,0-11.9
			c0.8-5.5,2.2-10.6,4.1-14.5c11.8,0.8,23.6,0.7,34.1,3.3c0.7,1.3,1.5,4,1.1,5.2c-1.7-0.2-1.6-2.1-3-2.6c-1.7,0.8-3.1,0.6-4.5,1.5
			c-1,0.7-1.6,1.5-2.2,2.6c-0.8,1.3-1.8,3.4-3,4.8c0,1.4,0,2.7,0,4.1c0.5,1.2,0.6,2.6,0.7,4.1c0,0.1,0,0.3,0,0.4
			c0.8,2.9,1.2,6.2,1.1,10.1c-1.5,0.7-2.8,1.7-3.7,3c0,0.1,0,0.3,0,0.4c0,0.7,0.2,1.2,0.7,1.5c0.1-3.3,3.5-3.4,4.1-6.3
			c0-0.1,0-0.2,0-0.4c-0.2-1.3-0.5-2.4-0.4-4.1c0-0.1,0-0.3,0-0.4c-0.6-1.4-0.9-4.1-1.1-6.7c-0.1-1.5-0.8-3.2-0.7-4.1
			c0.3-2.9,2.6-4.3,3.3-6.7c2.7-0.6,8-3.3,8.5,1.1c-1,1.1-3.3,0.1-5.2,0.4c-2.1,0.3-3.7,0.9-4.4,2.2c1.1,0.8,6.7-4,8.5,0
			c-2.1-0.8-4.6,0.1-6.7,1.1c-1.2,0.6-2.9,1.3-3,2.6c-0.1,0.9,0.9,1,1.5,1.5c1.1,1,5.7,0.7,8.2,0.4c-0.2,2.6,0.7,4.3,0.4,7.1
			c0.4,1.9,0.4,3.2,0,4.5c-0.2,1.1,0.5,3.2-0.4,3.7c0,0.1,0,0.2,0,0.4C112.1,137.1,109.5,141.5,107,145.5z M107,116
			c-0.2-0.9-0.7-2.2,0-3c0.5,3.1,4.4,3.2,4.8,0C113.6,116,109.3,117.2,107,116z M106.2,116c-0.6,1.1-2-0.2-2.6-0.4
			c0.1-1.1,0.6-1.6,1.9-1.5C105.7,114.8,105.7,115.7,106.2,116z M112.9,150.3c-1-0.2-1-1.4-1.5-2.2c0-1.2,0-2.5,0-3.7
			c0-0.1,0-0.2,0-0.4c0-1.2,0-2.5,0-3.7c1.2-4,2.1-8.4,1.9-13.8c0-1.4,0-2.7,0-4.1c-0.6-1.6-0.7-5.5,0-7.1c0.1-2.6,1,1.4,0.7,2.6
			c1.4,7.5,0.2,14.4-1.1,22.4c0,2.4,0,4.7,0,7.1C113.4,147.9,113.4,149.8,112.9,150.3z M114.4,185.7c0.5-3.1,1.7-5.5,3.3-7.4
			c-0.4-2-2.7-2-3.3-3.7c0-3,2.2-3.7,3.3-5.6c-0.2-2.2-2.5-3.2-2.2-5.2c0.2-1.8,2.1-1.9,3-3.7c0.4-1.5-1.1-1.1-0.7-2.6
			c0.9-0.1,1.2,0.6,1.5,1.1c0.7,0.3,1.3,0.7,1.1,1.9c-2,0.5-3.3,1.7-4.4,3c0.7,2,2.3,3.2,3.3,4.8c0.4,0.1,0.2,0.4,0,0.4
			c-1.3,1.8-3.2,3-4.1,5.2c0.5,2,2.6,2.3,3.7,3.7c-0.6,1.5-1.4,3.2-2.6,4.5c0,0-0.4,0.5-0.4,0.4
			C115.3,183.4,115.9,185.2,114.4,185.7z M115.5,191.7c1.2-0.7,2.6-1.1,3.7-1.9c1.4,1.4,0.4,4.2-0.4,5.6
			C116.7,195.2,116.1,193.4,115.5,191.7z M121.8,188.7c1,0,1.1,1.5,1.1,1.9c0.1,0.9-0.1,2.7-0.4,3.7c-0.7,2.8-2.9,5.2-4.4,6.3
			c-0.8-0.2-1.2-0.8-1.9-1.1c0.5-1,0.8-2.2,2.6-1.9c1.6-0.7,2.3-2.7,2.6-5.6C121.5,190.8,120.6,189.1,121.8,188.7z M122.2,200.2
			c1.4,1.9,0.8,4.9,0,7.4c-0.6,2.1-1.7,5.8-4.1,3.7c0.1-1.7,2.5-1,3-2.2C121.8,205.8,119.1,202.3,122.2,200.2z M116.2,202.1
			c2.2,1,3.6,2.9,3.3,6.3c-1.6-0.1-2.4-1.1-3.3-1.9C116.2,205.1,116.2,203.6,116.2,202.1z M117.3,214c1.3-0.1,2.3,0.8,3,1.5
			c0.6,0.6,1.6,1.5,1.5,2.6c-1,0.8-2.7-0.1-3.7-0.4C117.6,216.7,117.2,215.7,117.3,214z M119.6,224.1c1.7-0.7,3.4,1.8,3.7,3.7
			C120.5,229.5,120.1,225.9,119.6,224.1z M122.2,222.6c-1.2,0.2-1.5-0.5-1.9-1.1c0.1-1.9,1.9-2.1,3.7-2.2
			C123.3,220.3,123,221.7,122.2,222.6z M124.4,218.1c-1.3-0.4-1.7-2.5-1.9-4.5c0.5-0.4,0.7-1,1.1-1.5
			C125.2,213.2,124.7,216.1,124.4,218.1z M125.5,159.6c0.2,3.2-2.5,3.4-3.3,5.6c3.6,1.5,3.2,6.5,0.4,8.6c2.2,2,2.8,5.9,0.7,8.6
			c-2,0.6-3.3,1.9-5.6,2.2c-0.4-2.7,2.8-4.8,4.1-7.1c-0.9-1.8-3.6-1.9-4.4-3.7c0.9-2.3,3.6-2.8,4.8-4.8c-0.3,0.1-0.4-0.1-0.4-0.4
			c-0.9-1.2-2.1-2.1-3-3.4c-2.3-2.7,2.6-3.6,4.4-4.5c0.4,0,0.3-0.5,0.4-0.7c-1.4-1.2-4.2-2.7-3.7-4.5c0,0,0.3,0,0.4,0
			C122.7,154.7,125.8,156.4,125.5,159.6z M117.3,123.5c0,1.2,0,2.5,0,3.7c-0.7,7-2.7,13.9-1.9,21.2c0.8,1,0.9,2.9,2.2,3.4
			c0.5,0.4,1.4,0.4,1.9,0.7c2.2,0.2,2.7-1.2,3.7-2.2c1.6-5.1-4.5-7-5.2-2.6c0.2,1.1,0.6,2.2,1.9,2.2c1.2-0.9-1.5-1.2-0.7-3
			c0.6-0.5,1.2-1,2.6-0.7c1.8,2.3,0.6,5.1-1.9,5.2c-2.3,0.1-4-2.3-3.3-4.8c0.2-4.5,8.3-4.4,8.2,0.4c0.7,2.1-0.5,4.7-1.8,6
			c-0.8,1-2.2,1.3-4.1,1.1c-3.4-0.8-4.8-3.7-5.2-7.5c0-1.6,0-3.2,0-4.8c0.3-4.3,1.2-8,1.9-11.9c0-1.4,0-2.7,0-4.1
			c-0.1-3.7-0.3-7.4-0.7-10.8c-0.3-2.3-1.6-4.8-0.4-6.7C116.6,112.1,117.1,117.6,117.3,123.5z M127.7,85.5c1.7,1.2,3.1,2.8,3.7,5.2
			c1.2,2.9,1.6,5.2,1.9,8.9c0,0.3,0.5,0.4,0.4,0.7c-0.4,1.5,0.7,4.2,1.1,6.3c-2.9-0.2-5.1-1.1-6.7-2.6c-0.3-0.1-0.4-0.4-0.7-0.4
			c-3-2.5-5.6-5.3-6.7-9.7c-0.9-0.8-0.9-2.6-1.5-3.7c-0.6,0.1-0.6-2.3,0-2.2c0.9-2,1.9,0.5,1.5,2.2c0,0.1,0,0.3,0,0.4
			c-0.2,1.6,0.6,2.1,0.7,3.4c0.4,0,0.3-0.5,0.4-0.7c0-0.1,0-0.3,0-0.4c-0.3-0.3-0.4-0.8-0.4-1.5c0-1-0.1-2.1,0.4-2.6
			c1.9,0.1,2.3,1.6,3.3,2.6c2.6,2,0.7,6.6,1.5,10.1c0.7,0,0.3,1.2,1.1,1.1c-0.1-1.2-0.9-3,0-4.1c2.2,1.4,2.1,5.1,4.4,6.3
			c-0.6-2-2.2-3-2.2-5.6c1,0.2,1.4,1.1,2.2,1.5c0.5-2.6-4.1-3.3-4.1-6.7c-0.1-1.6,1.3,0.3,1.5,0.7c0.4,0,0.3-0.5,0.4-0.7
			c0-0.1,0-0.3,0-0.4c-1.2-2.6-4.2-3.3-5.9-5.2c0-0.1,0-0.2,0-0.4c1.5-1.1,3.3,0.7,4.8,0.7c-0.5-2-3.4-1.5-4.8-2.6
			c-1.6,0.1-4.3,0.1-3-1.5c0-0.7,1-0.5,0.7-1.5C124.7,83.1,126.2,84.3,127.7,85.5z"/>
		<path fill="#171717" d="M15.3,206.6c-1.4-1.5-2.4-3.4-3.4-5.2v13.3c0.9,0.1,1.8,0.2,2.3,0.4c0.3,1.2,1.1,1.9,1.1,3.3
			c-1.4-0.1-2.5-0.5-3.4-1v15h3.8c0.3-1.4,0.8-2.6,1.5-3.5c0.7,0.3,1.4,0.6,2.2,0.7c0.2,1.3-0.2,2.2-0.7,2.8h8.1
			c-0.5-1.6-0.9-3.2-1.5-4.6C22.4,220.3,18.8,213.5,15.3,206.6z M15.7,221.1c-0.9,0.2-1.9,0.8-1.9-0.7
			C14.6,220.5,16.1,219.9,15.7,221.1z M13.5,231.2c-2-0.6-1.7-4.7-1.1-6.7c0.8,0,2,1.3,2.2,2.2C14.9,228.3,13.5,229.7,13.5,231.2z
			 M16.8,226c-0.6-0.3-1.6-0.6-1.9-1.9c-0.2-0.3-0.5-0.7,0-0.7c2.9-1.4,4.2,1.9,4.4,4.5C18,228.4,17.7,226.3,16.8,226z"/>
		<path fill="#171717" d="M36.3,232.4h5.4c-0.1-0.4-0.3-0.8-0.4-1.3C39.6,231.5,38,232,36.3,232.4z"/>
		<path fill="#171717" d="M31.7,231.9c1.6-1.9,6.8-1.7,8.5-3.7c-0.9-4.7-2.8-8.4-4.1-12.7c-2.4,0.1-3.6,1.3-5.6,1.9
			c-1.1-0.1-1.1,0.8-2.2,0.7c0,0.5,0,1,0,1.5c0.7,0.9,0.9,2.3,1.5,3.3c1.4,0.3,2.1-0.9,3,0c-0.1,1.6-2.9,2.5-3.7,2.2
			c-1.3-0.3-1.4-2.1-1.9-3.3c-0.5-1.4-0.8-2.4-1.5-3.7c0.5-1.5,3-2.2,4.8-3c0.3-0.3,0.7-0.6,1.1-0.7c1.1-0.5,2.8-0.4,2.6-2.2
			c-1.5-2.8-2.8-5.8-4.4-8.6c-0.5-0.7-0.5-1.9-1.5-2.2c-2.2,0.5-3.3,2.2-5.2,3c-2.3,1.1,0,3.9,0.7,5.2c0.9-0.3,1.5-1,2.6-1.1
			c0,0.1,0,0.3,0,0.4c1.5,0.8-2.6,4-4.1,2.6c0-0.1,0-0.3,0-0.4c-0.9-1.1-1.5-2.5-2.2-3.7c0-1-0.8-1.4-0.7-2.2
			c0.1-1.3,1.6-1.9,2.6-2.6c1.4-1.5,3.2-2.5,4.8-3.7c-0.5-2.4-2.3-3.4-3-5.6c-1.3-0.7-1.7-2.3-2.6-3.4c0-0.1,0-0.2,0-0.4
			c-0.7-0.3-1.1-0.8-1.5-1.5c-2.4,1.4-4.1,3.6-6.3,5.2c0.6,1.6,1.2,3.2,3,3.7c1.2,0,1.1-1.2,2.6-0.7c-0.5,1.8-2.2,2.5-4.1,3
			c-0.8-1.7-2-3-3.1-4.5v2.5l0.1,0.1c1,1.5,1.6,3.6,3.3,4.5c2.2-1.2,4-2.7,5.9-4.1c0.1-2.1-1.6-2.4-1.9-4.1c-0.1,0-0.2,0-0.4,0
			c-1.2,0-1.8,1.8-3,0.7c0.4-1.7,2-2.3,3-3.4c1.1,0,1.4,0.9,1.9,1.5c1.4,1.4,2.3,3.2,3.3,4.8c-0.3,1.7-2,1.9-3,3
			c-1.4,1-2.6,2.1-4.1,3c-1,1.5,1.3,4.2,2.2,6c0.9,1.8,1.5,3.6,2.2,5.2c3.2-0.6,5.4-2,7.4-3.7c-0.4-1.6-1.3-2.7-1.9-4.1
			c-1.4-0.3-2.1,0.9-3,0c0.5-1.6,2.3-2,3.7-2.6c1.1,1.2,1.8,2.9,2.6,4.5c0.2,1.2,2.1,2.6,1.1,3.7c0,0.1,0,0.3,0,0.4
			c-3.1,0.9-5.3,2.6-8.2,3.7c1,4.3,2.6,8.1,4.4,11.6c2.3-0.9,4.7-1.7,7-2.6c-0.6-1.8-0.4-4.3-2.2-4.8c-0.6,0-1.2,0-1.9,0
			c-0.1-2.2,2.4-1.8,3.7-2.6c0.4,0.6,1.2,0.8,1.1,1.9c0.8,1.2,1.3,2.7,1.5,4.5c0.7,0.5,1.5,3.5-0.4,3.4c-2.4,1.1-5,2-7.8,2.6
			c0.1,0.8,0.3,1.6,0.5,2.4h1.9C31.5,232.3,31.6,232.1,31.7,231.9L31.7,231.9z"/>
		<path fill="#F7CC00" d="M119.9,91.8c0.5-0.1,0.1-1.1,0.7-1.1c0-0.1,0-0.2,0-0.4c-0.9-0.4,0.2-3.8-1.5-2.2c-0.6-0.1-0.6,2.3,0,2.2
			C119.7,90.6,119.9,91.1,119.9,91.8z"/>
		<path fill="#171717" d="M89.9,105.2c1.9,0.2,4.6,2.1,5.9-0.7c-2.9-0.3-5.7-1.2-8.2-1.9c-1.3-0.3-6,2.3-6.3,2.6
			c-1.1,1.1-3.5,1.4-3.7,3c2.9-0.7,4.5-2.4,7.4-3C86.5,105,88.3,105,89.9,105.2z"/>
		<path fill="#171717" d="M93.6,107.5c-4.6,0.3-8.2,1.1-11.1,2.6c-1.3,0.7-3.3,1.5-3.3,3c2.3-0.7,5.2-2.9,7.4-3.7
			c2.7-1,4.6,0.3,7,1.5c0.2-1.3-1.3-0.9-1.1-2.2C93.3,108.6,93.7,108.3,93.6,107.5z"/>
		<path fill="#171717" d="M88,118.6c1.5-0.1,3-0.3,3.7-1.1C91.1,117.2,88,117,88,118.6z"/>
		<path fill="#F7CC00" d="M112.9,140.2c1.3-7.9,2.5-14.9,1.1-22.4c-0.9-0.2,0.1-2.3-0.7-2.6c-0.7,1.5-0.6,5.5,0,7.1
			c0.6,0.5,0.6,3.6,0,4.1c0.2,5.4-0.7,9.7-1.9,13.8c0.6,0.4,0.6,3.3,0,3.7c0,0.1,0,0.2,0,0.4c0.6,0.4,0.6,3.3,0,3.7
			c0.4,0.8,0.4,2,1.5,2.2c0.5-0.5,0.5-2.4,0-3C112.3,145.8,112.3,141.7,112.9,140.2z"/>
		<path fill="#F7CC00" d="M153.7,122.7c-0.1,0-0.2,0-0.4,0c-2.4,4.3-5.3,8.1-4.8,15.3c1.2,0,1.1-1.6,1.5-2.2
			c0.2-0.3,0.5-0.8,0.7-1.1c0.4-0.7,0.9-1.6,1.1-1.9c2-2.1,2.9-5.7,3.3-8.9c0-1,0-2,0-3C154.3,121.1,154.1,122,153.7,122.7z"/>
		<path fill="#171717" d="M91,129.1c-0.4,1.2-1,2.2-1.1,3.7c0.5,0.6,0.8,1.5,1.9,1.5c-0.3-1.1-0.7-1.7-0.7-3
			C91,130.7,92.1,129.6,91,129.1z"/>
		<path fill="#F7CC00" d="M39.5,139.5c0.4-0.9,0.5-2.2,0.7-3.4c0.2-0.3,0.4-0.6,0.4-1.1c-0.9,0.1-0.8,1.1-1.5,1.5
			C38.3,137,38.7,139.3,39.5,139.5z"/>
		<path fill="#F7CC00" d="M53.2,138c-1.8,0.1-2.1,1.6-3.3,2.2c-0.6,0.3-0.6,3.1,0,3.4c0.2-0.6,0.4,0,0.4,0.4
			c1.1,0.1-0.3-2.3,0.7-2.2c0.2-0.6,0.5-0.9,0.7-1.5C50.9,139.7,53.1,138.9,53.2,138z"/>
		<path fill="#F7CC00" d="M53.5,142.5c0.2-0.5,0.5-0.9,0.7-1.5c-0.9-0.5,1.1-1.1,1.1-1.9c-1.8-0.1-2,1.5-3,2.2
			c-0.5,0.6-0.7,3.2,0,3.7C54,146.5,52.5,142.7,53.5,142.5z"/>
		<path fill="#F7CC00" d="M60.2,141c-2.1,0.1-2.2,2.3-3.3,3.3c-1,1.6,0.3,3.6,1.5,4.1c-0.7-1.4-0.3-3.4,0.4-4.5
			C57.9,143.1,59.9,141.9,60.2,141z"/>
		<path fill="#F7CC00" d="M39.1,149.2c0-0.5-0.1-1.1,0.4-1.1c0-0.4,0-0.7,0-1.1c-0.8-0.4-0.1-2.3-0.4-3.4c-2.1-0.1-3.5,0.4-4.8,1.1
			c1,0.5,0.5,2.5,1.1,3.4c0.5,0,1,0,1.5,0C37.6,147,38.2,149.1,39.1,149.2z"/>
		<path fill="#F7CC00" d="M29.8,148.1c-0.2-0.7-0.8-0.9-0.7-1.9c-2,0.5-3.6,1.8-3,3.3c0.5,1.2,0.8-1.4,1.5-0.4
			c0.2,0,0.4-0.1,0.4-0.4C28,148,28.9,148,29.8,148.1z"/>
		<path fill="#F7CC00" d="M120.7,153.3c0.5,1.3,2-1.4,2.2-0.4c1.3-1.3,2.5-3.9,1.8-6c-1-4.5-6.8-4.3-8.2-0.4c-0.7,2.6,1,5,3.3,4.8
			c2.4-0.1,3.7-2.9,1.9-5.2c-1.4-0.2-2,0.3-2.6,0.7c-0.7,1.8,1.9,2,0.7,3c-1.3-0.1-1.6-1.1-1.9-2.2c0.7-4.4,6.8-2.5,5.2,2.6
			C123,151.9,121.4,152.2,120.7,153.3z"/>
		<path fill="#F7CC00" d="M54.3,154c0.4-0.1,0.3-0.7,0.4-1.1c-0.5-0.6-2.4-1.3-2.2,0.4c0.1,0,0.2,0,0.4,0
			C53.5,153.3,54,153.5,54.3,154z"/>
		<path fill="#F7CC00" d="M26.5,152.9c-0.9,2.7-0.1,7.1-0.4,10.4c0.8,0.4,2.2-1.8,4.4-1.1c-0.5-0.5-0.5-2.1,0-2.6
			c-0.8-0.5,0.7-1.7,1.5-1.9c-0.1-0.4-0.7-0.3-0.7-0.7c-0.4-0.1-0.2-0.4,0-0.4c-0.3-1.4,0.5-1.8,0.4-3c-2,0.4-3.7,0.6-4.8-0.7
			C27.6,153.8,26.7,153.8,26.5,152.9z"/>
		<path fill="#F7CC00" d="M12.4,171.6c-0.5,0.1-0.5,1.1,0,1.1c0.3-0.1,0.3,0.1,0.4,0.4c0,0.2,0,0.4,0.4,0.4
			C13.7,172.9,13.7,171.3,12.4,171.6z"/>
		<path fill="#F7CC00" d="M148.5,193.9c1.3-1.9,2.6-3.9,3.3-5.6c0.1-0.1,0.7-0.2,0.7-0.4c0.3-0.4,0.5-1.1,0.7-1.5
			c0.5-1,1.1-2.1,1.1-3.4c0.7-3.8-2.5,0.9-3.3,1.1C149.3,186.3,147.7,190.5,148.5,193.9z"/>
		<path fill="#171717" d="M131.1,192c1.4-1.1,1.4-4.8,0.4-6.3c-0.4,0-0.7,0-1.1,0C129.4,187.2,128.9,191.5,131.1,192z"/>
		<path fill="#F7CC00" d="M35,203.2c0.4-0.1,0.3-0.7,0.7-0.7c-0.1-0.3,0-0.7-0.4-0.7s-0.7,0-1.1,0C34.2,202.6,34.3,203.1,35,203.2z"
			/>
		<path fill="#171717" d="M131.4,196.9c-2.6,0.3-2.6,7.2,0,7.5C132.3,201.9,133,199,131.4,196.9z"/>
		<path fill="#171717" d="M131.1,209.2c-0.2,3.8,0.3,6.9,2.6,8.2C135.6,215.2,133.2,208.2,131.1,209.2z"/>
		<path fill="#171717" d="M134.8,221.5c-0.9,2.6,0.4,5.7,2.2,6.7C137.9,225.7,137,222,134.8,221.5z"/>
		<path fill="#F7CC00" d="M154.8,228.2c-1.1,0.2-0.7,2-1.9,2.2c-0.4,0.7-0.8,1.4-1.2,2h2.9c0.2-0.9,0.4-1.8,0.5-2.8
			C154.7,229.6,154.9,228.7,154.8,228.2z"/>
		<path fill="#F7CC00" d="M69.9,113.8c0.3-3.5,1.1-7.3,1.9-10.1c0.5-1.7,2.2-4.4,0.7-5.6c-1.2,0.5-1.3,2-1.9,3.3
			c-1.3,3.1-3.3,9.8-2.6,13c0,2.5,0,5,0,7.5c-0.4,1.7,0.4,5.3,0.4,7.8c0.6,0.5,0.6,3.6,0,4.1c-0.1,1.9-1.1,5.5-0.4,7.8
			c2-0.5,2.1-2.9,2.2-5.2c0.2-1.5-0.5-4,0.4-4.8c-0.7-4.9-1.3-9.4-0.7-13.8C69.3,117.4,69.3,114.3,69.9,113.8z"/>
		<path fill="#F7CC00" d="M70.6,141c-0.4,1.2,0.6,0.9,0.7,1.5c0.8,0.1,0.2-1.3,0.4-1.9c0-1,0.2-2.2-0.7-2.2
			C71.2,139.6,70.3,139.7,70.6,141z"/>
		<path fill="#171717" d="M94.3,114.5c0-0.4,0-0.7,0-1.1c-1.2-0.9-2-2.2-3.3-3c-4-0.2-6.1,0.7-8.5,1.9c-1.5,0.7-3.6,1.7-4.1,3
			c0.9,0,1.1-0.6,2.2-0.4c1.9,2,6,2,10,1.9C92.2,116.4,92.4,114.6,94.3,114.5z M81.4,114.5c0.4-0.8,1.1-1.4,2.2-1.5
			c0.3,0.7,0.6,1.4,0.7,2.2C82.9,115.5,82.2,115,81.4,114.5z M85.1,112.3c1.2,0.7,1.2,2.8,3.7,2.2c1.3-0.3,0.7-2.5,2.2-2.6
			C91.9,117.5,83.5,116.6,85.1,112.3z"/>
		<path fill="#171717" d="M107,118.6c-1-0.6-2.7-0.5-3.7-1.1C103.2,119,106.1,119.3,107,118.6z"/>
		<path fill="#171717" d="M97.3,131.7c-1.7-0.6-3.5-0.4-4.4,0.7c0,0.9-0.1,1.8,0.7,1.9C93.1,131.3,96.9,132.9,97.3,131.7z"/>
		<path fill="#171717" d="M105.5,140.2c-0.3,0.8-0.9,1.3-2.2,1.1c-0.5-1.3-1.1-2.7-2.6-3c-1.6-0.3-1.8,0.7-3,0.7
			c-3.5-2.5-5.1,2-7.8,2.6c-1.5,0.3-0.9-1.6-2.2-1.5c-0.1,0.9,0.7,2,1.1,2.2c1.5,0.7,3.5-0.8,5.6-0.7c1.4,0,2.2,0.5,3.3,0.7
			c0.7-0.7,1.5-1.2,3-1.1c1.5,0.1,1.8,1.4,3.7,1.1C104.9,142.2,106.6,141,105.5,140.2z"/>
		<path fill="#171717" d="M99.2,143.6c-1.1,0-2.2,0-3.3,0c0,1.5,2.6,0.4,3.7,0.7c0.4-0.6,1.2-0.8,1.1-1.9
			C99.5,142.2,100.1,143.7,99.2,143.6z"/>
	</g>
</g>
</svg>
