<?xml version="1.0" encoding="utf-8"?>
<!-- Generator: Adobe Illustrator 19.2.0, SVG Export Plug-In . SVG Version: 6.00 Build 0)  -->
<svg version="1.1" baseProfile="tiny" id="Layer_1" xmlns="http://www.w3.org/2000/svg" xmlns:xlink="http://www.w3.org/1999/xlink"
	 x="0px" y="0px" viewBox="0 0 170 244" xml:space="preserve">
<metadata><?xpacket begin="﻿" id="W5M0MpCehiHzreSzNTczkc9d"?>
<x:xmpmeta xmlns:x="adobe:ns:meta/" x:xmptk="Adobe XMP Core 5.6-c111 79.158366, 2015/09/25-01:12:00        ">
   <rdf:RDF xmlns:rdf="http://www.w3.org/1999/02/22-rdf-syntax-ns#">
      <rdf:Description rdf:about=""/>
   </rdf:RDF>
</x:xmpmeta>
                                                                                                    
                                                                                                    
                                                                                                    
                                                                                                    
                                                                                                    
                                                                                                    
                                                                                                    
                                                                                                    
                                                                                                    
                                                                                                    
                                                                                                    
                                                                                                    
                                                                                                    
                                                                                                    
                                                                                                    
                                                                                                    
                                                                                                    
                                                                                                    
                                                                                                    
                                                                                                    
                           
<?xpacket end="w"?></metadata>
<g id="Layer_18">
	<path fill="#FFFFFF" d="M17,0h136.4c9.4,0,17,7.6,17,17v209.4c0,9.4-7.6,17-17,17H17c-9.4,0-17-7.6-17-17V17C0,7.6,7.6,0,17,0z"/>
	<path fill="#C80813" d="M74.3,72.3c0,0,3.1-7.8,10.5-16.1s13.4-12.7,13.4-12.7s-7.8-4.7-13.2-12C79.6,24.3,74.5,15,74.5,15
		S70,23.9,63.7,31.5c-5.8,6.9-12.8,12.1-12.8,12.1s5.9,4.4,13.4,12.7C71.7,64.5,74.3,72.3,74.3,72.3z"/>
	<path fill="#C80813" d="M38.1,22.2h6.1v-5.4H26.3v5.4h6.4v35.5l0,0c-0.2,4.2-3.6,7.5-7.8,7.5s-7.6-3.3-7.8-7.5v-8.5h-5.4v8.7h0.1
		c0.3,7,6.1,12.6,13.2,12.6c7.2,0,13-5.7,13.2-12.9l0,0V22.2H38.1z"/>
	<g>
		<path fill="none" d="M147.9,186.6c-0.3-2.2,0.4-3.4,0.4-5.4C147.7,182.3,147,185.3,147.9,186.6z"/>
		<path fill="none" d="M146.4,197c-0.5,11.4-0.5,23.2-0.7,34.9h0.3C146.4,220.6,146.4,208.8,146.4,197z"/>
		<path fill="none" d="M131.3,225.2c0.4-1.6,0.5-3.4,0.8-5.4c0.6-4.4,1.6-9.7,2.3-13.1c0.5-2.4,1-3.4,1.5-5c0.3-1,0.4-2.1,0.8-3.1
			c0.6-1.8,1.2-3.6,1.9-5.4c1.5-3.9,4.1-8.9,3.8-10.8c-0.1-1-1.6-1.8-1.5-2.7c-3.4-1.1-6.9-0.9-10.4-1.2c0.7,2,2,3.4,3.9,4.2
			c0.6,2.3,3.2,2.5,3.1,5.4c-1.3,1.5-3.8,0-5.8,0c-0.9-1.3-2.1-2.3-2.7-3.9c-0.5-2.4,1.3-4.7-0.8-5.4c-2.8,4.1-0.2,8.4,1.9,10
			c1.7,1.3,3.4,1.7,5,2.3c0.3,0.1,0.8,0,0.8,0.4c-0.7,0.9-0.3,2.8-1.9,2.7c-0.4,0-0.5,0.3-0.8,0.4c-4.4-2.4-12.2-0.5-12.7,5.4
			c1.9,0.9,2.1-1.1,3.1-1.9c0.8-0.7,2-1.6,3.1-1.9c2.3-0.8,3.3-0.2,5,0.8c0.7,0.4,2.5,0.2,1.9,1.9c-0.7,1.8-3.3,1.7-5.4,1.9
			c-2.3,0.3-4.9,0.4-6.9,0.8c0,1.3,1.5,1.7,2.3,2.3c0.7,0.6,1.5,1.2,1.9,1.5c1,0.6,1.4,0.9,2.3,1.5c1.4,1,3.3,2,2.7,3.9
			c-3.9,1.7-7.7,0-9.3-3.5c-0.7-1.6,0.6-4.2-1.9-4.6c-0.6,2-0.4,3.8,0,5c0.1,0.3,1.1,1.7,1.5,2.3c1,1.2,2.3,1.9,3.1,2.3
			c0.4,0.2,0.8,0.7,1.2,0.8c1.6,0.5,4.5-0.4,4.6,2.3c-0.5,0.1-0.4,0.6-0.4,1.2c-2.1,0.5-4.5-0.5-6.9,0c-1.1,0.2-2.3,1.2-2.7,1.5
			c-0.4,0.3-0.9,0.1-1.2,0.4c-0.5,0.4-0.9,1.1-1.2,1.5c-0.5,0.9-2.3,3.4-0.4,3.9c1.9-0.7,1.8-3,3.5-4.2c0.8-0.5,1.8-1.1,3.1-1.2
			c1.8-0.1,4.7,0.2,5.4,2.7c-0.2,1.4-1.6,1.2-2.7,1.5c-3.1,1.1-6.8,2-10,2.7c0.2,1.2,1.8,1.5,2.7,1.9c1.1,0.6,2,1.1,3.1,1.5
			c1.8,0.8,4.6,1.1,5.5,2.9h2.7c0.1-1.7,0.1-3.4,0.3-4.9C130.6,226.5,131.2,225.7,131.3,225.2z M134,180c2.8-0.2,4.6,0.5,6.6,1.2
			c-0.1,0.6,0.1,1.4-0.4,1.9c-0.1,0.1-0.7-0.1-0.8,0c-0.4,0.5-0.3,1.9-1.5,1.5C136.5,183.2,134.9,181.9,134,180z M124.8,203.2
			c0.6-1.9,2.6-0.9,4.2-0.8c1.1,0.1,2.1-0.1,3.1,0c0.2,1.8-0.2,3.2-0.8,4.2C128.6,206.1,126.8,204.5,124.8,203.2z M127.9,228.6
			c-1.6,0.2-3.1-0.4-4.2-0.8c-1.1-0.4-2.7-0.8-3.1-1.9c2.8-0.2,4.8-1.1,7.7-1.2C128.1,226.1,127.6,227,127.9,228.6z"/>
		<path fill="none" d="M147.9,198.2c0-3.6,0-7.2,0-10.8C147.3,190.1,147.3,195.5,147.9,198.2z"/>
		<path fill="none" d="M149.8,178.1c0.5,3.6-1.2,7,0,10c1.3-1.9,3.3-3.1,4.6-5c0.7,0,1.2-0.1,1.5-0.4c0.3-0.7,1-1.2,1.7-1.8V177
			C155.2,177.9,153.5,178.9,149.8,178.1z"/>
		<path fill="none" d="M155.2,172.7c-0.3,0-0.6-0.5-0.8-0.4c-0.5,0.2-1.4,1.7-1.9,2.3c-0.9,0.9-2.6,1.1-1.5,2.3
			c-0.3,1,1.8-0.3,1.5,0.8c2.1-0.8,3.4-1.1,5.1-2v-3.5C156.6,172.2,155.5,172.7,155.2,172.7z"/>
		<path fill="none" d="M156,188.1c-1.3,1.2-3,2.7-3.9,3.9s-2.4,2.6-2.7,3.9c-0.5,1.8,0.1,4.3,0,6.2c-0.1,3.1-1,6.1,0,9.3
			c1.5,0.1,1.6-1.6,2.3-2.3c1.6-1.8,3.6-3.1,5-4.6c0.3-0.3,0.6-0.6,0.9-0.9v-16.9C157.1,187,156.6,187.6,156,188.1z"/>
		<path fill="none" d="M149.1,219c0.3,4.6-0.6,8.1-0.4,12.7c1.4,0.5,2-1.3,3.1-2.3c1.4-1.4,2.9-2.8,4.2-3.5c0.6-0.3,1.2-0.8,1.7-1.3
			v-14.4c0,0.1-0.1,0.2-0.1,0.2C154.2,212.8,151.8,216,149.1,219z"/>
		<path fill="none" d="M75,230.2c0.6,0,1.3,0,1.9,0C77.7,227.7,74.2,227.7,75,230.2z"/>
		<path fill="none" d="M85.8,229.4c-0.3,0.7-0.9,1.1-1.2,1.9c0.2,0.3,0.6,0.5,0.9,0.6h6.7c0-0.1,0.1-0.2,0.1-0.2
			C90.4,230.7,88.5,229.6,85.8,229.4z"/>
		<path fill="none" d="M59.2,231.7c0,0.1,0,0.2,0,0.2h1.6c0-0.1,0-0.1,0-0.2C60.2,231.7,59.7,231.7,59.2,231.7z"/>
		<path fill="none" d="M39.5,227.5c-1.1,1.6-2.3,3-3.5,4.5h0.4c0.7-0.8,1.4-1.8,2-2.5C38.9,228.7,39.9,228.1,39.5,227.5z"/>
		<path fill="none" d="M88.5,226.3c1.4,0.1,2.1,1,3.5,1.2C91.3,226.9,87.2,224.6,88.5,226.3z"/>
		<path fill="none" d="M61.5,224.8c1,0.3,1.5,1.1,2.7,1.2c0.3-1,0.9-1.6,1.9-1.9c1.9,0.9,3.5,0.8,4.2-1.2c-1.4-1.4-3.8-1.8-5.8-2.7
			C63.7,221.8,61.7,222.3,61.5,224.8z"/>
		<path fill="none" d="M60.4,89c0.4-1.5,0.9-3.4,1.5-5c0.3-0.8,0.9-1.6,1.2-2.3c0.1-0.3,0.6-1.1,0.6-1.5h-2.9
			c-1.4,1.5-1.4,5.4-3.1,6.6c-3.9,0.1-7.5,0.5-10.8,1.2c-2.3-1.6-2.9-4.8-4.2-7.3c0-0.2-0.1-0.3-0.1-0.4h-2.8
			c1.6,3.3,3.3,6.6,4.8,10C50.1,90,54.3,88.6,60.4,89z"/>
		<path fill="none" d="M153.7,167.3c-1.3,1-2.6,2.1-3.9,3.1c-1.2,1-3,1.8-3.5,3.5c0.7,1.1,2.1,1.9,3.5,1.2c0.9-1-0.3-2.6,0.4-3.1
			c1.2-0.3,0.5,1.3,1.2,1.5c2-0.9,3.4-2.4,6.3-2.4v-3.6C156.3,167.1,154.5,167,153.7,167.3z"/>
		<path fill="none" d="M107.9,231.9h0.3c0-0.3,0-0.7,0-1C108.1,231.2,108,231.5,107.9,231.9z"/>
		<path fill="none" d="M115.5,227.5c-0.4,1.8-0.2,3.3,0.4,4.5h2.5c-0.1-0.1-0.1-0.2-0.2-0.2C117.1,230.2,118.1,227.5,115.5,227.5z"
			/>
		<path fill="none" d="M98.5,230.5c0,0.1,0,0.3,0,0.4c-0.2,0.4-0.3,0.7-0.5,1h0.7C99,231,99,229.5,98.5,230.5z"/>
		<path fill="none" d="M148.7,161.9c0.4,0.1,0.6,0.4,0.8,0.8c2.2,0.3,2-1.8,2.7-3.1c0.8,0.1,0.8,1,0.8,1.9c2.1,0.4,3.3-0.8,4.7-0.7
			v-3.6C153.9,156.6,149.4,158.4,148.7,161.9z"/>
		<path fill="none" d="M157.2,92.5c0.2,0,0.3,0,0.5,0v-0.4C157.4,92.2,157.2,92.3,157.2,92.5z"/>
		<path fill="none" d="M157.6,89.8c-0.1,0.4,0,0.6,0.1,0.8v-3.1c-0.1,0.1-0.1,0.2-0.1,0.4C157.6,88.5,157.6,89.1,157.6,89.8z"/>
		<path fill="none" d="M147.1,167.3c-1.5,0.7-2.8,1.5-3.1,3.5c1,1.3,2.7,0.6,3.5-0.4c0.1-1.2-0.4-3,0.8-3.1c1.3-0.2,0.2,2.1,1.2,2.3
			c1.4-1.2,2.9-2.3,4.2-3.5c0.1-1.2-1.1-2.3,0.4-2.7c0.6,0.5,0.1,2.2,0.8,2.7c1.2-0.1,1.9,0.2,2.8,0.4v-4.6
			C152.7,162.2,149.2,164.1,147.1,167.3z"/>
		<path fill="none" d="M157.7,93.7v-0.5c-1-0.3-2.5-0.1-3.2-0.7C154.8,93.6,156.6,93.3,157.7,93.7z"/>
		<path fill="none" d="M144.8,90.2c0.4,1.8,1.9,2.5,4.2,2.3c0-0.1,0-0.3,0-0.4C146.7,92.5,145.7,91.4,144.8,90.2z"/>
		<path fill="none" d="M145.6,87.1c2.7-2.2,8.2-2.3,12.1-1.1v-0.2C154.2,84.1,147.6,84.5,145.6,87.1z"/>
		<path fill="none" d="M72.3,89c5.3,1,9.4,0.9,14.7,1.5c0.9-2.1,0.7-4.5,1.5-6.6c0.6-1.5,2-2.6,2.1-3.9h-2.2
			c-0.1,0.1-0.1,0.3-0.2,0.4c-0.6,0.6-1.5,2-1.9,3.1c-0.5,1.4,0,3.3-1.2,4.2c-3.7,0.1-6.3-0.9-10-0.8c-1.3-1.6-0.5-5.3-1.8-6.9h-2.1
			C71,82.7,72.1,86.2,72.3,89z"/>
		<path fill="none" d="M156,89.8c-0.9,1.6-1.2-2.6-0.4-2.7c0.9,1.1,0.7-0.4,0.4-0.4c-1.6,0.2-1.5,1.8-0.8,3.9
			C155.9,90.8,156.9,89.8,156,89.8z"/>
		<path fill="none" d="M97.4,85.2c0.6,0.5,0.6,3.7,0,4.2c0,0.9,0,1.8,0,2.7c1.7,1.2,4,1.4,6.2,1.9s4.5,1.1,6.9,1.2
			c0-1.4,1-2.3,1.5-3.5c0.8-1.7,1.6-3.7,2.3-4.6c0.3-0.4,0.5-0.8,0.8-1.2c1.5-1.9,3.4-3.5,4.1-5.8h-2.9c-1.8,1-2.6,3.2-3.6,4.6
			c-0.7,1.2-1.7,2.3-2.3,3.5c-0.7,1.3-0.6,3-1.9,3.9c-2.4-0.9-5.8-0.8-8.1-1.9c-0.7-2.5-0.4-6.4-1.2-8.5c-0.2-0.5-0.2-1.1-0.3-1.5
			h-2.2C96.7,81.3,97.9,83.1,97.4,85.2z"/>
		<path fill="none" d="M125.9,85.2c-3.6,4.4-5.6,8.1-8.1,12.7c-0.6,1-1.4,1.9-1.9,3.1c-0.3,0.6-0.2,1.6-0.4,2.3
			c-0.2,0.8-0.7,1.2-0.8,1.9c-0.4,2.4-0.2,5.3,0,7.7c0.3,4.5,1.2,9.2,1.9,13.9c0.8,4.7,1.2,9.6,2.7,13.5c0.7-1.7,3.1-3.2,4.6-3.5
			c3.2-0.5,6.6,1,7.7,3.5c0.1,0.2,0.3,1.4,0.4,1.9c0.7,3.2-0.5,4.9-1.2,7.7c1.1,1.7,4,2.1,5,3.1c1.2,1.2,2.7,2.2,4.2,2.7
			c1-1.7,0.1-5.3,1.5-6.6c2-0.5,2.2,2.1,3.5,1.2c-0.4-6.7,0.7-11.1,0-16.6c-1.7-0.5-3.6-0.8-5.4-1.2c0,0.6,1.1,0.2,1.2,0.8
			c-2.3,0.1-3.8-0.5-5-1.5c1.3-0.4,2.4,1.4,3.1,0.4c-2.6-0.2-3.6-2-6.2-2.3c-1.9-1.9-3.6-3.9-5.4-5.8c0.2,0.8,1.9,1.9,1.2,2.3
			c-1-1.3-1.9-2.7-2.7-4.2c0.4,0,0.5,0.3,0.8,0.4c-0.7-0.9-0.7-2.6-1.5-3.5c0.3-2.1-1.5-4.4,0-5.4c2.2,1,3.4,3.2,5.4,4.2
			c4.2,2.3,10.3,3,15.4,2.7c-0.4-3.2-1.5-6.1-1.5-9.3c0-0.9,0.4-1.8,0.4-2.7c0-0.9-0.4-1.7-0.4-2.7c0.1-4.1,2.7-7.7,3.1-11.6
			c-2-1.9-4.2-2.8-3.9-5.8c0.4-3.7,5.8-5.1,10.8-4.6c1.1,0.1,2.2,0.7,3.2,0.9V80h-26.9C128.7,81.2,127.7,83,125.9,85.2z
			 M132.9,130.3c-1.8-0.4-2.4-2-3.5-3.1C130.7,128.1,131.6,129.4,132.9,130.3z"/>
		<path fill="none" d="M153.7,92.9c-1.3-0.4-4.2-0.1-4.6,1.5c2,0.1,4.5-1,6.2,0c0-0.1,0-0.3,0-0.4C154.5,93.9,154.5,93,153.7,92.9z"
			/>
		<path fill="none" d="M147.5,87.9c-2.7,1,1.6,5.5,0.8,2.7C147.3,91.9,146.6,88.5,147.5,87.9z"/>
		<path fill="none" d="M157.7,130.3v-0.2l-0.1,0.1C157.6,130.3,157.6,130.3,157.7,130.3z"/>
		<path fill="none" d="M156,126.4c0,0.9,0,1.8,0,2.7c0.7,0.2,1.9,1.5,1.5-0.4C155.8,130.4,156.9,126.8,156,126.4z"/>
		<path fill="none" d="M156,126c0-0.4,0-0.8,0-1.2c0.6,0,1.1,0,1.7,0v-0.7C156.9,123.7,154.7,125.3,156,126z"/>
		<path fill="none" d="M48.8,216.7c0.4-0.6,1.5-1.2,1.2-1.9c-2.2,2.8-4.3,5.7-6.6,8.5c0.1,0,0.3,0,0.4,0
			C45.3,221.3,47.1,219,48.8,216.7z"/>
		<path fill="none" d="M157.7,97.9v-1.5c-0.2,0.1-0.4,0.2-0.5,0.3C157.2,97.3,157.4,97.7,157.7,97.9z"/>
		<path fill="none" d="M149.5,150c-0.7,2.2,0.4,4.8,0,8.1c1.6-0.7,2.6-1.6,4.2-1.9c1.1-0.2,2.4,0,4,0v-13.5c-0.9,0.8-1.6,1.9-3.2,2
			C153.1,146.8,150.3,147.3,149.5,150z"/>
		<path fill="none" d="M151,121.8c-1.3,0-2.6,0-3.9,0C147.6,122.4,150.6,122.4,151,121.8z"/>
		<path fill="none" d="M157.2,112.9c0,0.4-0.3,0.5-0.4,0.8c1.5-1,0.4,3.5,0.8,5c-0.4,0-0.5-0.3-0.8-0.4c0,0.1,0,0.8,0,0.8
			c0.4,0,0.7,0,0.9-0.2v-5.7C157.6,113,157.4,112.9,157.2,112.9z"/>
		<path fill="none" d="M128.2,117.6c0.9,1,5.1,4,5.4,2.3c-0.4,0-0.5,0.3-0.8,0.4c-0.6-1-2-0.8-3.1-1.5c-1.2-0.8-2-2.6-3.1-2.3
			c0.7,0.4,0.7,1.4,1.2,1.9C129.6,119.3,127.3,117.7,128.2,117.6z"/>
		<path fill="none" d="M145.2,121.8c-1.4,0-2.8,0-4.2,0C141.5,122.4,144.7,122.4,145.2,121.8z"/>
		<path fill="none" d="M137.9,121c-1.8,0.2-2.2-0.9-3.9-0.8C134.9,120.7,136.9,122,137.9,121z"/>
		<path fill="none" d="M46.9,156.5c-1.7-0.6-2.8-1.9-4.2-2.7c0,0.1,0,0.3,0,0.4C43.8,154.9,45.7,157,46.9,156.5z"/>
		<path fill="none" d="M58.1,164.6c-2-1.1-4.6-1.6-6.9-2.3C53.1,163.4,55.4,164.2,58.1,164.6z"/>
		<path fill="none" d="M37.2,176.2c-3-2.1-6.4-3.6-9.6-5.4C30.3,173.1,33.9,174.5,37.2,176.2z"/>
		<path fill="none" d="M19.5,208.6c1.4-1.6,3.5-6,1.2-8.1c-1.8,1.2-0.8,3.6-1.5,5.4c-0.4,0.9-1.4,2.1-2.3,2.7
			c-0.6,0.4-1.8,1-3.1,1.2c-0.4,0-1.3,0.2-2.1,0.1v2.6c1.7-1,4.2-0.7,6-1.9C17.8,210.3,19,209.1,19.5,208.6z"/>
		<path fill="none" d="M15.3,229.4c2.2-1.4,4.4-2.5,6.5-3.5c1-0.5,2.9-0.4,3.1-1.9c-1.9-0.8-4.1-0.9-6.9-1.5
			c-2.5-0.5-5.9-0.8-5.8-3.1c0.1-3.1,6.6-2.6,8.1-1.5c0.6,0.5,0.9,0.9,1.2,1.5c0.1,0.1,0.7,0.2,0.8,0.4c0.8,1.5,0.6,3.3,2.7,3.1
			c0.9-4.6-4-8.1-8.9-8.1c-1.6,0-2.8,0.9-4.5,0.8V232h1.6c-0.1-0.1-0.2-0.1-0.3-0.2C12.9,230.4,14.3,230,15.3,229.4z M12.9,223.2
			c2.8-0.1,4.3,1.1,6.9,1.2c-0.2,1.6-2.4,1.5-3.5,1.9c-1.2,0.5-2.2,1.6-3.9,1.2C12.7,226.1,12.2,224,12.9,223.2z"/>
		<path fill="none" d="M71.6,204.7c1.6-1,2.4-2.8,3.5-4.2C73.5,201.5,72.8,203.4,71.6,204.7z"/>
		<path fill="none" d="M24.9,225.9c-2.7-0.3-2.2,3.4-3.1,4.2c-0.6,0.6-1.3,1.3-2.1,1.8h3C24.3,230.4,25.1,228.3,24.9,225.9z"/>
		<path fill="none" d="M66.2,213.2c-0.8,0.9,1.1,0.7,1.9,1.2c0.8,0.4,1.6,1.3,2.3,1.2c-1.1-0.9-2.4-1.5-3.9-1.9
			C66.2,213.7,66.2,213.4,66.2,213.2z"/>
		<path fill="none" d="M69.2,207c-0.1,0.2,0.1,0.6,0,0.8c-0.2,0.3-1.8,1-0.8,1.2c0.8-1.5,2.2-2.4,3.1-3.9
			C71.3,205.3,69.8,206.3,69.2,207z"/>
		<path fill="none" d="M78.9,219c-2.1-0.4-3.2-1.7-5.4-1.9C75.1,217.6,77.3,219.6,78.9,219z"/>
		<path fill="none" d="M86.2,222.1c-2.5-0.7-4.5-1.9-6.9-2.7C81.2,220.4,84.1,222.5,86.2,222.1z"/>
		<path fill="none" d="M91.6,224.8c0.3,0.1,1.1,0.2,1.5,0.4c0.1,0.1-0.1,0.7,0,0.8c0.5,0.2,1.6,0.1,2.3,0.4c1,0.4,1.9,1,3.1,1.5
			c1.2,0.6,1.5,1,2.7,0.4c0.2-0.1,1.7-1.3,1.2-1.9c-0.6,0.8-1,1.8-2.3,1.9c-4.3-2.1-8.7-4.1-13.5-5.8C87,223.1,90,224.2,91.6,224.8z
			"/>
		<path fill="none" d="M107.8,220.9c0.2-0.9,0.5-1.8,1.5-1.9c0.2,0.7-0.5,2.3,0.4,2.3c-0.2-1,0.5-3.1-0.4-3.5
			c-1.2,1.7-2.6,3.3-3.9,5c0.1,0,0.3,0,0.4,0C106.4,222,107,221.4,107.8,220.9z"/>
		<path fill="none" d="M30.7,144.6c2-0.5,1.2-4-1.2-3.5C31,141.4,32.3,143.3,30.7,144.6z"/>
		<path fill="none" d="M32.2,144.9c-0.2,0.8-2.9,1.2-3.5,0.4C27.5,146.7,33.7,146.1,32.2,144.9z"/>
		<path fill="none" d="M24.9,140.3c1.4-1.2,3.2-2,5.8-1.9C28.7,137.5,25.7,138.8,24.9,140.3z"/>
		<path fill="none" d="M14.9,204.3c1.6-1.3,3.7-2.6,4.6-4.6c-2-0.6-5-0.9-7.7-1.2c-0.1,0-0.1,0-0.2,0v2.3c0.9,0.1,1.8,0.2,2.9,0.1
			c0.9,1.2-1.3,1.8-1.9,2.7c-0.4,0.2-0.7,0.4-1,0.6v2.6c0.2-0.2,0.4-0.4,0.6-0.5C13,205.6,14,205,14.9,204.3z"/>
		<path fill="none" d="M157.7,231.9v-0.8c-0.4,0.2-0.7,0.5-1.1,0.8H157.7z"/>
		<path fill="none" d="M27.6,141.5c-0.2,0.6,1.4,0,1.5-0.4c-0.6,0-1.3,0-1.9,0c-0.2,0.7-0.8,1-0.8,1.9
			C27.2,142.9,26.8,141.6,27.6,141.5z"/>
		<path fill="none" d="M58.4,205.1c0.5-0.7,1-1.4,0.8-1.9c-1.1,1.9-2.7,3.2-3.9,5c0.1,0,0.3,0,0.4,0
			C56.2,207.2,57.6,206.3,58.4,205.1z"/>
		<path fill="none" d="M34.5,140.7c0.1,0.1-0.4,0.5-0.4,0.8c0,0,0.4,2,0.8,2.7c0.3-3.7-0.6-5-3.9-5.8
			C31.9,139.1,33.9,139.5,34.5,140.7z"/>
		<path fill="none" d="M16.8,179.3c-0.1-1.9-2.7-3.1-3.9-3.9c-0.4-0.3-0.9-0.6-1.4-0.9v1.2c0.5,0.2,1,0.6,1.4,1.2
			c0.4,1.8-0.4,2.8-1.4,3.2v3.3C14.1,184,17,182.2,16.8,179.3z"/>
		<path fill="none" d="M14.1,174.6c3.5,1.7,7.5,1.3,7.3-2.7c-0.1-3.6-5.5-5-8.9-5.4c-0.1,1-0.6,1.6-1,2.3v4.1
			c0.6,0.4,1.4,0.6,1.8,0.9C13.5,174,13.8,174.5,14.1,174.6z M13.3,168.5c2.9-1.2,4.1,0.9,3.9,2.7C16.6,175.2,10.1,172.8,13.3,168.5
			z"/>
		<path fill="none" d="M14.5,194.3c1,0.3,2.2,1.6,2.7,1.9c0.6,0.4,0.4,0.4,0.8,1.2c0.3,0.7,1.6,0.9,2.3,1.2c0.5-2.3-1.1-4-2.7-5
			c-1.4-0.9-4.1-1.9-6-1.9v2.5C12.6,194,13.7,194.1,14.5,194.3z"/>
		<path fill="none" d="M71.6,181.2c-7.1-0.6-13.5-0.9-20.1-2.7C57.2,180.9,65.2,181.3,71.6,181.2z"/>
		<path fill="none" d="M84.3,164.6c1.5,0.1,1.9-0.9,3.5-0.8C87.1,163.1,84.8,164,84.3,164.6z"/>
		<path fill="none" d="M77,181.6c1.6-1.5,3.1-3,4.2-5c0.9-0.2,0.9-1.2,0-0.4c-2,2.6-3.3,6-8.9,5C73.1,182.1,75.5,181.3,77,181.6z"/>
		<path fill="none" d="M60.4,165c1.4,0.5,3.6,1,5,0.4C64.6,165.4,61.2,164.7,60.4,165z"/>
		<path fill="none" d="M87.4,193.1c2.6,0.8,4.8,1.9,7.3,2.7c-0.5-0.6-2.5-1.4-3.9-1.9C89.6,193.4,88.2,192.8,87.4,193.1z"/>
		<path fill="none" d="M70.8,165.8c-1.7-0.2-3-0.8-5-0.4c4.3,1.1,9.9,0.8,14.7,0.4c0-0.1,0-0.3,0-0.4
			C77.2,165.4,74,166.1,70.8,165.8z"/>
		<path fill="none" d="M71.9,187.7c0.3-0.9,2.5-1.8,1.5-2.7c0.1,1.2-1.3,1.6-1.5,1.9c-0.3,0.4-0.1,0.9-0.4,1.2
			c-0.6,0.7-1.6,1.1-1.9,1.5c-0.3,0.3-0.1,0.8-0.4,1.2c-1.6,1.8-3.5,3.4-4.6,5.8c0.1,0,0.3,0,0.4,0C67,193.3,69.6,190.6,71.9,187.7z
			"/>
		<path fill="none" d="M64.6,197c-1.4,0.8-2.1,2.3-3.1,3.5C62.9,199.7,63.6,198.2,64.6,197z"/>
		<path fill="none" d="M24.9,166.9c0,0.7-0.1,1.2-0.4,1.5c1.1,0.5,1.5,1.9,3.1,1.9C26.4,169.6,25.1,168.7,24.9,166.9z"/>
		<path fill="none" d="M68.5,183.9c1.7,0.2,3.7,0.2,5,0.8C74.2,183.8,69.3,183.2,68.5,183.9z"/>
		<path fill="none" d="M43,158.8c2.6,1.1,4.7,2.7,7.7,3.5c-1-1-2.8-1.2-4.2-1.9C45.2,159.8,44.1,158.4,43,158.8z"/>
		<path fill="none" d="M117.1,183.1c0,0.5,1.5,1.5,1.5,0.8c-1.3-1.2-3.6-1.5-5.4-2.3C112.5,181.9,115.8,183,117.1,183.1z"/>
		<path fill="none" d="M37.6,152.7c-3.3,0.3,0.7,2.7,1.5,3.5C38.8,154.7,35.1,153.5,37.6,152.7z"/>
		<path fill="none" d="M99.3,194.7c-3.1-1-5.7-2.5-8.9-3.5c0.8,0.7,3,1.7,4.6,2.3C96.6,194.2,98.1,195.1,99.3,194.7z"/>
		<path fill="none" d="M104.7,199.7c-1.2-0.5-2.4-1.1-3.5-1.5c-1.2-0.5-2.3-1.2-3.5-0.8c3.7,1.1,7.8,3.4,11.2,4.6
			c1,0.4,3.4,1.8,3.5,0.4c-0.1,0-0.3,0-0.4,0C110.8,202.7,106.8,200.6,104.7,199.7z"/>
		<path fill="none" d="M110.5,199.3c-3.1-1.1-5.8-2.4-8.9-3.5c0.7,0.6,3,1.7,4.6,2.3C107.8,198.8,109.3,199.5,110.5,199.3z"/>
		<path fill="none" d="M105.1,177.7c-2.1-0.3-3.3-1.6-5.4-1.9C101.2,176.5,103.7,178.3,105.1,177.7z"/>
		<path fill="none" d="M71.2,162.7c1-0.2,3.1,0.5,3.5-0.4c-3.1,0.3-5.1-0.6-8.1-0.4C65.7,162.6,70.4,162.1,71.2,162.7z"/>
		<path fill="none" d="M52.3,158.8c-2,0-2.5-1.4-4.2-1.5C49.1,157.9,51,159.7,52.3,158.8z"/>
		<path fill="none" d="M103.2,163.8c0.8-1.4,1.9-2.5,2.7-3.9C104.9,160.8,102.9,163.1,103.2,163.8z"/>
		<path fill="none" d="M99.3,154.6c0.7,0.5,2.9,1.4,3.5,0.8c-2.2-0.4-3.6-1.5-5.4-0.4c0,0.1,0,0.3,0,0.4
			C98.3,155.4,98.6,154.7,99.3,154.6z"/>
		<path fill="none" d="M147.5,110.2c-0.8,0-0.5,1.1-1.5,0.8c-0.2-0.7,0.5-2.3-0.4-2.3c0,1-0.2,2.2,0.4,2.7
			C146.9,111.5,147.2,110.8,147.5,110.2z"/>
		<path fill="none" d="M127.1,138.4c2.3,0.5,2.8,2.2,3.5,3.5c0.1-2.4-2.3-4-5.8-3.9c0,0.1,0,0.3,0,0.4
			C125.5,138.5,126.5,138.3,127.1,138.4z"/>
		<path fill="none" d="M139.4,173.9c0.2,1,1.2,1.7,1.5,2.3s0.4,1.4,0.8,1.9c0.7,1.1,1.8,2.1,2.7,2.7c0.7-1.2,1.1-2.4,1.2-3.9
			c0-1-0.6-1-0.8-1.9c-0.2-0.8,0.6-1.5,0-1.9c-0.5-1.1-1.9-1.5-1.9-3.1c0.8-2.2,2.9-3,2.3-6.6c0.1-1-1.5-0.3-1.2-1.5
			c1.4-1.6,1.9-7.4,0-8.9c0.1,3.2-2,4.1-3.5,5.8C140.5,163.4,138.4,169.2,139.4,173.9z"/>
		<path fill="none" d="M127.9,143.8c0.6-2.8-5-4-5.4-1.2C123.5,140.3,127.8,141.6,127.9,143.8z"/>
		<path fill="none" d="M124.8,150c1.4-0.3,3.7-1.5,3.5-2.7c-1.4,2.1-4.1,3-6.6,1.9c-0.1,0-0.2-0.1-0.2-0.2
			C122.2,149.7,123,150.3,124.8,150z"/>
		<path fill="none" d="M125.2,143c0,1.2-1.1,1.5-1.9,1.9c0.5,0,1,0,1.5,0c0.5-0.2,0.1-1.5,0.8-1.5c0.6,0.1,0.4,0.9,0.4,1.5
			C126.8,144.6,126.3,142.6,125.2,143z"/>
		<path fill="none" d="M42.2,141.1c0,0.5-0.5,0.5-0.4,1.2c1.4-1.2,0.5,2.3,0.8,3.5C43.4,144.8,43.3,141.5,42.2,141.1z"/>
		<path fill="none" d="M142.1,156.1c0.9-1.1,1.2-3,1.2-5c-0.8,0-0.5-1.1-1.5-0.8C141.4,151.6,140.7,155.5,142.1,156.1z"/>
		<path fill="none" d="M120.5,148c-0.7-1-1.4-2.3-1.9-2.7C118.6,146.7,119.4,146.9,120.5,148z"/>
		<path fill="none" d="M149.1,132.2c-1.9-0.5-4.1-0.7-5.4-1.9C144.7,131.7,146.4,132.4,149.1,132.2z"/>
		<path fill="none" d="M138.3,173.1c0.5-2.9-2.7-1.8-3.9-1.5c-0.8,0.2-0.6,0.5-1.2,0.8c-0.5,0.3-1.1,0.1-1.5,0.4
			c-1.6,1.2-2.6,3.1-1.9,4.2c2.8,0.1,2.6-2.8,4.6-3.5C135.9,172.8,137.2,173.7,138.3,173.1z"/>
		<path fill="none" d="M44.6,145.7c0.1,0.6-0.1,1.4,0.4,1.5c0-1,0.2-2.3-0.8-2.3c-0.4,0.7-0.5,1.8-0.8,2.7
			C44.3,147.5,43.8,146,44.6,145.7z"/>
		<path fill="none" d="M114,155c-0.7-0.2-0.3-1.5-1.5-1.2c0.5,0.8,2,2.6,3.1,1.5c-1-0.6-1.8-1.5-2.3-2.7
			C112,153.2,115,154.6,114,155z"/>
		<path fill="none" d="M112.4,113.7c1.1-0.1-0.3-2.6,0.8-2.7c0.2,0.7-0.5,2.3,0.4,2.3c-0.3-1.8,0.3-4.4-1.5-4.6
			C112.1,110.4,112.7,111.7,112.4,113.7z"/>
		<path fill="none" d="M104.7,110.6c1.1,0-0.3-2.6,0.8-2.7c0.2-1.2-0.5-1.6-1.2-1.9C104.8,107.1,104.7,108.9,104.7,110.6z"/>
		<path fill="none" d="M106.6,120.3c-0.2-1.4,0.5-3.8-0.4-4.6C106.5,117.1,105.8,119.5,106.6,120.3z"/>
		<path fill="none" d="M116.7,154.6c0.7-0.1,1.9,1.1,2.3,0c-2-0.5-2.5-2.4-3.9-3.5C115.4,152.5,117.4,153.4,116.7,154.6z"/>
		<path fill="none" d="M110.9,147.6c0.2,1.6,0.7,2.9,1.5,3.9C111.9,150.2,111.6,148.7,110.9,147.6z"/>
		<path fill="none" d="M122.5,153.8c-0.8,0.3-1.2-1.1-1.2,0.4c1.2,0,2.1-0.2,2.7-0.8c-5.1-0.5-6.6-4.7-8.5-8.5
			C116.6,149.1,118.8,152.2,122.5,153.8z"/>
		<path fill="none" d="M119,153c-1-1.2-2-2.3-3.1-3.5C116.6,151,117.6,152.3,119,153z"/>
		<path fill="none" d="M110.9,109.5c0-1-0.1-2-1.2-1.9c0,1.2,0,2.3,0,3.5C110.6,110.2,109.7,106.9,110.9,109.5z"/>
		<path fill="none" d="M111.7,117.6c-0.2-1.2,0.5-3.3-0.4-3.9C111.5,114.9,110.8,117,111.7,117.6z"/>
		<path fill="none" d="M155.2,135.3c0.5,0.5,1.9,0.6,1.9-0.4C156.6,134.3,155.6,134.6,155.2,135.3z"/>
		<path fill="none" d="M150.2,111c0.5-0.5,2.3-0.7,2.3,0.4c0.2,1.3-1.2,1.2-1.5,1.9C154.5,113.5,152.1,108.2,150.2,111z"/>
		<path fill="none" d="M156.4,104.4c0.3-0.3,1-2.7-0.4-2.3C155.5,102.6,155.3,104.4,156.4,104.4z"/>
		<path fill="none" d="M154.1,107.9c0,0.5-0.5,0.5-0.4,1.2c0.5,0,0.4-0.7,0.8-0.8c1.6-0.4,1.3,2.1,0.8,2.7
			C156.8,110.5,156,107.3,154.1,107.9z"/>
		<path fill="none" d="M149.8,99.4c-0.4,1.1-0.4,1.6,0,2.7C153.3,103,153.3,98.5,149.8,99.4z M151.8,99.8c0.3,0.3,0.4,0.9,0.4,1.5
			c-0.5,0.5-1.8,0.5-2.3,0C149.6,99.9,150.5,99.7,151.8,99.8z"/>
		<path fill="none" d="M149.5,109.5c1.1-0.7,1.2-3.6-0.8-3.5C148.4,106.4,148.3,109.2,149.5,109.5z M149.8,108.7
			c-1.6,0.6-0.1-2-1.2-1.9C149.4,105.5,150.2,107.5,149.8,108.7z"/>
		<path fill="none" d="M146.4,103.7c0.4-0.8,1.1-2.3,2.3-1.2c0.4-1.3-1.2-0.6-1.9-0.8C146.9,102.7,146,102.6,146.4,103.7z"/>
		<path fill="none" d="M153.3,116c-1.3,0.3,0.7,3.8-1.2,3.5C153.8,121.1,153.3,117.3,153.3,116z"/>
		<path fill="none" d="M149.1,113.3c-0.7-0.3-1-1.1-2.3-0.8c0,0.5-0.5,0.5-0.4,1.2c0.2,0,0.5-0.1,0.4-0.4c0.9-1,1.7-0.3,1.9,0.4
			c0.4,1.3-0.8,1-1.2,1.9C148.4,115.3,149.4,115,149.1,113.3z"/>
		<path fill="none" d="M149.5,130.7c-2.1,0.5-3.9-0.8-2.7-2.3C144.5,129.4,147.9,132.3,149.5,130.7z"/>
		<path fill="none" d="M154.1,105.6c0.5-0.5,0.4-1.7,0.4-2.7C152.9,102.5,152.9,105.6,154.1,105.6z"/>
		<path fill="none" d="M155.2,115.2c-0.2,1.1,0.6,4.7-0.8,3.5c0,0.1,0,0.3,0,0.4c0.2,0,0.5,0.1,0.4,0.4c0.4,0,0.5,0.3,0.8,0.4
			C155.4,118.4,156.1,116,155.2,115.2z"/>
		<path fill="none" d="M149.1,129.5c1.7-0.6-0.2-2.4,0.4-4.2c-0.7,0.2-2.3-0.5-1.9,0.8C149.4,124.4,149.6,128.7,149.1,129.5z"/>
		<path fill="none" d="M147.9,109.8c0-1,0.1-2.2-0.4-2.7c-0.9-0.1-1.4,0.1-1.5,0.8C147.7,106.3,147.3,109.2,147.9,109.8z"/>
		<path fill="none" d="M125.9,117.6c0.1,1.2,0.9,1.7,0.8,3.1c0.6,0,0.2-1.1,0.8-1.2c0.5,1,3.4,4,0.8,3.5c0.4,1.5,1.9,0,1.5-1.5
			C127.9,120.7,127.5,118.5,125.9,117.6z"/>
		<path fill="none" d="M142.5,130.3c-0.4,0.1-0.3,0.8-0.8,0.8c-0.8-0.6-1.8-1-1.9-2.3c0.4-0.1,1-0.7,0.4-0.8c0,0.8-1.1,0.5-0.8,1.5
			c1.2,0.5,2.3,3.1,3.9,1.9C142.7,131.3,142.8,130.6,142.5,130.3z"/>
		<path fill="none" d="M139,126c0.7,1.7-1.7,2.1-0.8,2.7c1-0.8,1.6-2.4,0.8-3.9c-1.5-0.1-2.8,0-3.1,1.2
			C136.4,125.3,138.8,124.6,139,126z"/>
		<path fill="none" d="M130.9,125.7c0.4,0,0.3-0.5-0.4-0.4c-0.1-1.1-0.1-2.1,1.2-1.9c1.8,0.2-0.2,2.5,0.4,2.3
			C135.2,122.1,127.5,122.7,130.9,125.7z"/>
		<path fill="none" d="M149.8,133c0,1.7,0,3.3,0,5c1.9-0.7,2.3-2.8,3.1-4.6c-0.4-0.1-0.4-0.6-0.4-1.2C151.1,132,151.1,133,149.8,133
			z"/>
		<path fill="none" d="M147.9,144.9c-0.3-3.4,0.6-5.5,0.4-8.9C147.9,138.5,147,142.5,147.9,144.9z"/>
		<path fill="none" d="M152.9,136.1c0.3,1-0.7,1.2-1.2,1.9c-0.4,0.7-0.4,1.7-0.8,2.3c-0.1,0.1-0.7-0.1-0.8,0c-0.3,0.3-0.7,1.7,0,1.5
			c1.7-1.5,3.8-2.6,5.8-3.9C155.8,136.5,154.6,136,152.9,136.1z"/>
		<path fill="none" d="M102.4,107.1c0,1.3,0,2.6,0,3.9C103,110.6,103,107.6,102.4,107.1z"/>
		<path fill="none" d="M95.5,128c0-1.3,0-2.6,0-3.9C94.8,124.5,94.8,127.6,95.5,128z"/>
		<path fill="none" d="M90.4,125.3c0-1.4,0-2.8,0-4.2C89.8,121.6,89.8,124.7,90.4,125.3z"/>
		<path fill="none" d="M89.7,103.3c1.3,0.3,0.7,2.4,1.5,3.1c-0.2-1.6,0-3.6-1.9-3.5c0,0.4,0,0.8,0,1.2
			C89.7,104.1,89.6,103.6,89.7,103.3z"/>
		<path fill="none" d="M88.9,120.3c0,1.7,0,3.3,0,5C89.5,124.5,89.5,121,88.9,120.3z"/>
		<path fill="none" d="M109.3,153c0,0.1,0,0.3,0,0.4c0.9,0.6,0.9,2.1,2.7,1.9c-0.4-1.5-1.7-2.2-2.3-3.5c-0.1,0.7,0.5,0.8,0.4,1.5
			C109.8,153.4,109.7,153,109.3,153z"/>
		<path fill="none" d="M94.7,113.3c-0.2-1.2,0.5-3.3-0.4-3.9C94.5,110.6,93.8,112.8,94.7,113.3z"/>
		<path fill="none" d="M88.5,114.1c0,1.3,0,2.6,0,3.9C89.2,117.5,89.2,114.5,88.5,114.1z"/>
		<path fill="none" d="M92.8,104.1c0.4,0.7,0.1,1.9,0.8,2.3c-0.1-1.4,0-3-1.5-3.1c0,0.6,0,1.3,0,1.9
			C92.6,105.1,92.1,104.1,92.8,104.1z"/>
		<path fill="none" d="M92.4,114.9c-0.2-1.2,0.5-3.3-0.4-3.9C92.2,112.2,91.5,114.3,92.4,114.9z"/>
		<path fill="none" d="M93.9,144.6c0.4,2.6,1.1,5.1,2.7,6.6c-0.9-2.5-1.5-5.4-2.3-8.1C94.3,143.6,94.5,144.5,93.9,144.6z"/>
		<path fill="none" d="M93.2,128.7c-0.2-1.2,0.5-3.3-0.4-3.9C93,126.1,92.3,128.2,93.2,128.7z"/>
		<path fill="none" d="M92,145.3c0-0.5,0.1-1.1-0.4-1.2c0.5,2,0.6,4.5,2.3,5.4c-0.8-2.4-1-5.4-1.9-7.7
			C91.6,143.2,93.2,144.5,92,145.3z"/>
		<path fill="none" d="M69.6,118.3c0,0.5,0.2,0.9,0.4,1.2c2.5,0,4.1-0.8,4.6-2.7c-1.2-0.2-2.1-0.7-3.5-0.8
			C70.5,116.6,71,118.4,69.6,118.3z"/>
		<path fill="none" d="M44.6,107.1c1.1,1.1,4.7-0.3,5.8,0.8c-0.5,4-7,0-8.5,2.7c-1,1.5,0.5,3.2,0,5.4c3.3-1.5,8.7-0.8,9.6,2.3
			c-0.6,1.7-2.5,2.5-4.6,2.7c-2,0.2-4.1-0.9-5.4-0.4c0.3,4,0.1,8.2,0.4,12c0.2,2.8,1.3,5.2,1.9,7.3c0.3,0.8,0.1,1.7,0.4,2.3
			c0.1,0.2,0.6,0.6,0.8,0.8c0.9,1.4,1.7,2.8,2.3,3.9c0.7,1.1,1.6,1.7,2.3,2.7c2,2.7,3.4,6.4,5.8,7.3c0.5,0.2,2.4,0.3,3.5,0.4
			c3.9,0.3,6-1.2,8.5-1.9c1.6-0.5,3.4-0.5,4.2-0.8c1.6-0.5,3.1-1.5,4.6-2.3c3.3-1.6,6.3-3.1,8.9-5c1.3-0.9,3-2,3.5-3.5
			c-1.2-5.9-2.7-13.8-3.1-22c-0.2-3.8-0.1-7.6-0.4-10.4s-1.1-4.7-1.5-6.6c-0.3-1.3,0.2-2.6-0.8-3.5c-5.4-1-11.4-1.6-17.4-1.9
			c-7.3-0.4-17.3,0.8-25.1,1.9c-0.4,1.3,0.3,4.5,0.8,6.2C42.2,108.5,43,106.9,44.6,107.1z M46.5,113.7c-1.3-0.2-2.6,0.1-3.9,0
			c1.6-1.7,5.5-0.5,6.9,0.4C49.4,115.6,47.7,113.9,46.5,113.7z M60.4,149.2c-2.5-0.9-5,0-6.9,0.8c0.6-1.6,3-2,5.8-1.9
			C59.1,148.9,61,147.8,60.4,149.2z M64.2,143.8c-2.4,0.3-5.2-0.5-7.3-0.4c-0.8,0.1-1.2,0.6-1.9,0.8s-2-1-1.9,0.4
			c0.3,2.2,4.7,0.3,6.6,0.4c-0.2,2.7-4.5,1.1-6.9,1.5c-0.2-0.8-1-1.1-0.8-2.3c-1.2,0-1.8-0.5-2.7-0.8c-0.2-0.9,0.8-1.2,1.2-1.5
			c0.5-0.5,0.8-1,1.5-1.2c1.2-0.3,1.2,0.6,1.9,0.8c1.6-0.1,1.9-1.4,3.9-1.2c1.7,0.7,2.3,2.3,4.6,2.3c1.9,0.5,1.8-2.2,3.1-1.2
			C65.7,143,64.4,142.8,64.2,143.8z M65,122.6c-0.5-0.2-2.9-0.1-2.7-2.3c0.7,0,1,0.3,1.2,0.8c0.5,0,1.3,0.5,2.3,0.8
			c0.9,0.3,2.8-0.4,2.7,1.2C67.2,123.1,66.1,122.9,65,122.6z M76.2,117.6c-0.8,0.3-1.4,1-1.2,2.3c-5.2,0.9-8.9-0.8-13.9-1.2
			c0.6-2.1,2.6-2.8,3.1-5c1.7,0,3.5-0.1,5,0.4c0.7,0.2,0.8,0.6,1.2,0.8c0.7,0.3,2,0.2,2.7,0.4c1.8,0.5,3.7,1.6,5.8,2.3
			C78.4,119.2,77.6,117.2,76.2,117.6z M61.9,111.8c2.1,0,3.7-0.5,5.4-0.4c1.4,0.1,2.6,0.8,3.9,1.2c1.9,0.6,3.9,0.9,5.4,1.9
			c-1.6,0.3-3.5-0.5-5.8-1.2c-1.3-0.4-3.7-1.2-6.2-1.2c-1.3,1.1-2.4,2.2-3.5,3.5c-1-0.4,0.5-1.5,0.8-1.9
			C61.9,112.7,61.2,112.5,61.9,111.8z M62.7,106.4c5.1-2.8,12.1,0.1,15.4,2.7c-3,0.4-6.5-1.5-10.8-1.2c-2.5,0.2-4.3,1.7-6.2,1.2
			c-1.1-0.3-1.7-1.4-2.3-1.9C59,105.8,61.3,106.6,62.7,106.4z M57.7,130.7c0.8,0.7,1.9,1.2,1.9,2.7c1.2,0.3,0.7-1.1,1.9-0.8
			c0.7-2.7-1.9-3.8-1.2-5.4c2.2,1.3,3.5,6.5-0.4,6.9c-1.8-0.6-1.8-3.1-5-2.3C55.4,130.9,56.3,130.6,57.7,130.7z M53,119.5
			c-0.2,1.7-1.2,3.6-1.9,5.4c-0.8,2-2.1,4.1-1.9,5.4c0.5,3.4,5.1,2.2,5.4,6.6c-1.4-2.5-4.4-3.4-6.2-5.4c0-1.3,0-2.7,0.4-3.9
			c0.4-1.1,1.5-1.8,1.9-2.7c0.4-0.9,0.5-2.3,0.8-3.5c0.6-2.3,1.2-4.4,0.4-7.7C53.6,115.6,53.2,117.8,53,119.5z"/>
		<path fill="none" d="M47.3,119.1c0-0.9,0-1.8,0-2.7c-1.8,0-1,2.6-3.1,2.3c-1.1,0-0.7-1.6-1.9-1.5C41.9,120.3,46,120.8,47.3,119.1z
			"/>
		<path fill="none" d="M50.3,117.9c-0.7-0.2-0.7-1.1-1.9-0.8c-0.1,0.9-0.5,1.6-0.8,2.3C49.2,119.6,50.3,119.3,50.3,117.9z"/>
		<path fill="none" d="M90.1,119.1c-0.3-1.9,0.5-4.9-0.4-6.2C89.9,114.9,89.2,117.8,90.1,119.1z"/>
		<path fill="none" d="M23,149.2c-0.1-2.9-1.3-4.6-0.8-6.9c0.2-1,2.1-2.7,2.7-3.5c0.7-0.8,1.5-1.3,2.3-1.5c3.5-1.1,7,0.7,8.9,3.5
			c-0.6,1.7,0.3,3.3-0.4,5c-0.8,2-3.7,3.6-5.8,3.5c-2.6-0.2-4.9-2.5-4.6-6.6c-1.8,4.9,5.1,9.1,8.5,5.4c1-0.4,1.7-2.4,3.1-1.2
			c1-4.1,3.1-7.2,2.7-12.7c0-0.1,0-0.3,0-0.4c1.3-7.9,1.4-18.2,0.8-25.8c0.4-0.7-0.7-0.6-0.8-0.8c-0.2-0.5,0.1-1.4,0-1.9
			c-0.5-2.2-0.8-4-1.2-6.2c-0.7-4.3-2.7-8.1-5.4-12c-0.4-0.6-1-1.2-1.5-1.9c-0.3-0.3-0.1-0.8-0.4-1.2c-0.2-0.3-0.9-0.5-1.2-0.8
			c-0.9-1.2-1.6-2.3-2.3-3.1h-16V153C15.3,151.7,19.1,150.4,23,149.2z"/>
		<path fill="none" d="M89.3,143c0.5,1,0.6,2.4,1.5,3.1c-0.3-1.6-0.5-3.3-1.2-4.6C89.6,142.1,89.9,142.9,89.3,143z"/>
		<path fill="none" d="M87.8,121c-0.3-1.6,0.5-4.1-0.4-5C87.6,117.6,86.9,120.1,87.8,121z"/>
		<path fill="none" d="M87.4,115.2c0-1.4,0-2.8,0-4.2C86.7,111.5,86.7,114.7,87.4,115.2z"/>
		<path fill="none" d="M70,115.2c-1.5,0.2-0.9,2.4-3.1,1.9c-1.3-0.2-0.7-2.4-1.9-2.7c-1.3,2.4,1,4.3,3.9,3.9
			C69.3,117.4,70.3,116.9,70,115.2z"/>
		<path fill="none" d="M90.8,130.3c-0.2-1.2,0.5-3.3-0.4-3.9C90.7,127.6,90,129.8,90.8,130.3z"/>
		<path fill="none" d="M102,117.6c-0.3-2.2,0.5-5.4-0.4-6.9C101.9,112.8,101.1,116,102,117.6z"/>
		<path fill="none" d="M105.9,154.2c-0.9-1.1-1.8-2-1.9-3.9c-0.1,0-0.3,0-0.4,0c-0.3,0.1-0.4,0.4-0.8,0.4
			C103.6,151.9,104.3,155.1,105.9,154.2z"/>
		<path fill="none" d="M98.2,112.9c0,1.4,0,2.8,0,4.2C98.8,116.6,98.8,113.5,98.2,112.9z"/>
		<path fill="none" d="M100.1,122.2c-0.2-1.3,0.5-3.6-0.4-4.2C99.9,119.2,99.2,121.5,100.1,122.2z"/>
		<path fill="none" d="M100.5,128.7c-0.3-1.8,0.5-4.6-0.4-5.8C100.3,124.8,99.6,127.6,100.5,128.7z"/>
		<path fill="none" d="M104.3,142.6c-0.2-1.4,0.5-3.8-0.4-4.6C104.2,139.4,103.5,141.8,104.3,142.6z"/>
		<path fill="none" d="M102,119.1c0,2.8,0.2,5.5,0.8,7.7C102.8,124,102.6,121.3,102,119.1z"/>
		<path fill="none" d="M95.1,121c0-1.4,0-2.8,0-4.2C94.4,117.3,94.4,120.5,95.1,121z"/>
		<path fill="none" d="M99.7,115.2c0-1.3,0-2.6,0-3.9C99.1,111.8,99.1,114.8,99.7,115.2z"/>
		<path fill="none" d="M106.3,153c0.8,0.9,1.3,2.1,2.7,2.3c-0.9-2.3-1.7-4.7-3.1-6.5c0.6,2.1,1.8,3.6,2.3,5.8
			C107.3,154.3,107.2,153.3,106.3,153z"/>
		<path fill="none" d="M104.7,123.7c-0.6-2.8,0-6.7-0.8-9.3C104,117.7,103.6,121.5,104.7,123.7z"/>
		<path fill="none" d="M96.6,141.5c-0.2-1.3,0.5-3.6-0.4-4.2C96.5,138.5,95.7,140.8,96.6,141.5z"/>
		<path fill="none" d="M96.2,136.5c-0.2-1.2,0.5-3.3-0.4-3.9C96.1,133.8,95.4,135.9,96.2,136.5z"/>
		<path fill="none" d="M97,147.6c0.3,2.5,1.4,4.2,3.1,5.4c-0.9-2.3-1.9-4.5-2.7-6.9C97.4,146.7,97.6,147.6,97,147.6z"/>
		<path fill="none" d="M148.3,120.6c0-0.9,0-1.8,0-2.7c-0.5,0-1,0-1.5,0C147,119.1,146.9,120.7,148.3,120.6z"/>
		<path fill="none" d="M99.7,149.2c0.6,1.4,1.9,5,3.1,4.2c-1-0.8-1.1-2.5-1.9-3.5C100.5,151.1,100.2,149.1,99.7,149.2z"/>
		<path fill="none" d="M97.8,126.4c0-1.5,0-3.1,0-4.6C97.1,122.5,97.1,125.8,97.8,126.4z"/>
		<path fill="none" d="M93.9,124.5c0,1.3,0,2.6,0,3.9C94.6,127.9,94.6,124.9,93.9,124.5z"/>
		<path fill="none" d="M95.9,115.2c0,1.3,0,2.6,0,3.9c0.1,0,0.3,0,0.4,0C96,117.9,96.7,115.8,95.9,115.2z"/>
		<path fill="none" d="M93.5,114.1c0,1.3,0,2.6,0,3.9C94.2,117.5,94.2,114.5,93.5,114.1z"/>
		<path fill="none" d="M146.4,160.4c0,1.7,0,3.3,0,5c1.3,0,1.4-1.1,1.9-1.9c-1.8-0.4-1.1-2.8-0.4-3.9c-0.4,0.3-0.6,0.7-0.8,1.2
			C146.8,160.7,146.8,160.4,146.4,160.4z M146.8,164.6c0-0.6,0-1.3,0-1.9C147.9,162.9,148.3,164.5,146.8,164.6z"/>
		<path fill="none" d="M37.6,196.6c0,0.5-0.2,0.9-0.4,1.2c0.5-0.1,0.6-0.6,1.2-0.8c0.2,1,0.5,1.8,1.2,2.3
			C39.1,198.2,39.1,196.7,37.6,196.6z"/>
		<path fill="none" d="M45.3,217.1c1.2,0.6,3.3-1.8,2.3-3.5C46,213.9,45.6,215.4,45.3,217.1z M45.7,216.7c-0.1-1.1,0.9-1.2,0.8-2.3
			c0.4,0,0.8,0,1.2,0C47.4,215.5,47,216.6,45.7,216.7z"/>
		<path fill="none" d="M29.5,188.9c0.4,0.6,1.1,1.3,1.5,0c-3.2,0.5-0.9-4.5,0-4.2c0.8,0.2,0.2,1.4,1.2,2.3c0.3-1.4-0.8-1.5-0.8-2.7
			C29.4,184.3,28.9,188,29.5,188.9z"/>
		<path fill="none" d="M37.2,201.6c-1-0.8-0.2-2.1-0.8-2.7c-0.7,1.4,0.1,2.8,1.2,3.5c0.4-1.1,1.2-1.6,1.5-2.7
			C38.1,200,38.3,201.5,37.2,201.6z"/>
		<path fill="none" d="M35.3,197.8c0.5-0.1,0.4-0.9,0.8-1.2c-2.6,2.8-2.3-5,0.4-3.1c0-0.1,0-0.3,0-0.4c-0.6-0.1-0.6-0.6-1.2-0.8
			C34.2,193.6,32.6,197,35.3,197.8z"/>
		<path fill="none" d="M14.9,158.1c-0.3,2.4-1.1,4.3-1.2,6.9c3,0.6,5.7,2.7,9.3,1.5c1.3-1.6,2.2-3.2,1.9-5
			C24.3,157.7,19.6,157.8,14.9,158.1z M16.4,164.2c-1.7-2.1-0.6-6,3.1-5C22,161,20,166.3,16.4,164.2z"/>
		<path fill="none" d="M34.9,206.3c-0.4-0.8-0.9-1.2-1.2-1.5c-0.2-0.3-0.2-0.9-0.4-1.2c-1.4-2.2-3.1-4.7-4.2-6.6
			c-0.5-0.8-0.8-1.3-1.2-1.9c-1-1.8-1.4-3.6-3.1-4.6c0.1-0.7-0.4-1-0.4,0c2.9,6.4,7.6,12.6,10.8,18.1c0.5,0.8,0.8,1.3,1.2,1.9
			c0.2,0.4,0.1,0.8,0.4,1.2c0.3,0.5,1.2,1,1.5,1.5c0.2,0.4,0.2,0.9,0.4,1.2c0.6,1,1.3,1.7,1.9,2.7c0.7,1.2,1.2,2.9,2.7,3.5
			c-0.8-2.9-2.7-5.3-4.2-7.7C37.8,210.6,36,208.1,34.9,206.3z"/>
		<path fill="none" d="M32.6,193.9c0.4-1,1.5-1.3,1.5-2.7c-0.9,0.3-0.4,2.2-1.9,1.9c-0.9-1.7,0.3-3.1,1.2-4.2
			c0.1,0.4,0.4,0.6,0.8,0.8c0,0-0.5-1.1-0.4-1.2C31.9,188.7,30.7,192.7,32.6,193.9z"/>
		<path fill="none" d="M43.4,213.2c0,0.1,0,0.3,0,0.4c0.7,0,0.3,1.3,1.2,1.2c0.5-0.8,1.1-1.5,1.5-2.3C45,213,44.7,214.8,43.4,213.2z
			"/>
		<path fill="none" d="M22.2,150.3c-0.6,2-0.4,4.7-2.7,5c-0.4,0-0.5-0.3-0.8-0.4c-1.5-0.1-0.9-2.5-2.7-2.3c-1.3,0.2-0.6,2.5-0.8,3.9
			c5.3,0,11.3,0.8,10.8-5C25.1,150.8,24.1,150.1,22.2,150.3z"/>
		<path fill="none" d="M28,178.5c0-1.7-0.9-2.4-1.9-3.1c0.1,1.7-1.1,2-1.2,3.5C26.3,177,26.5,174.7,28,178.5z"/>
		<path fill="none" d="M36.1,176.9c-1.2-0.4-0.7,0.9-0.8,1.5c-0.5,0.4-1.2,0.6-1.5,1.2c0.7,0.3,1.1,0.9,1.9,1.2
			C34.3,179,36.8,178,36.1,176.9z"/>
		<path fill="none" d="M27.6,184.7c-0.8-2.6,2.2-5.5,2.7-1.9c0.2-1.2-0.5-1.5-0.8-2.3C27.8,180.7,26,183.4,27.6,184.7z"/>
		<path fill="none" d="M31.8,178.5c-0.7-1.3,0.4-1.9,0.8-3.1c-0.2,0-0.5-0.1-0.4-0.4c-0.3,0-0.5,0-0.8,0c0.8,2-0.6,1.7-1.5,2.7
			C30.6,177.9,30.6,178.8,31.8,178.5z"/>
		<path fill="none" d="M41.9,210.5c1.3-0.1,1.5-1.3,1.9-2.3c-0.9,0.4-0.6,1.9-1.9,1.9c-0.3-1.3-1.2-2.1-0.4-3.5
			c0.7-1.1,1.5,0.1,1.5-1.2c0-0.1,0-0.3,0-0.4C40.8,205.7,40.1,208.9,41.9,210.5z"/>
		<path fill="none" d="M28,175c-0.3-1.2,1.1-0.7,0.8-1.9c-1.2-0.2-1.2-1.6-2.7-1.5C26.5,172.9,26.9,174.3,28,175z"/>
		<path fill="none" d="M39.2,182.3c0.5-0.5,0.7-2.3-0.4-2.3c0.3,1.2-1.3,0.5-1.2,1.5C38.4,181.6,38.1,182.6,39.2,182.3z"/>
		<path fill="none" d="M38.8,203.6c0.4-0.1,0.2-0.4,0-0.4c-0.8,1,0,2.9,1.2,3.1c0.5-0.1,0.4-0.8,0.8-1.2
			C39.7,206.4,38.7,205.3,38.8,203.6z"/>
		<path fill="none" d="M71.2,187c0-0.5,0.2-0.8,0.4-1.2c-0.6,0-1.6-1.4-1.9-0.4C70.4,185.7,69.7,187.4,71.2,187z"/>
		<path fill="none" d="M89.7,202c0.6-0.6,0.6-2.2-0.8-1.9C88.3,200.7,88.3,202.3,89.7,202z"/>
		<path fill="none" d="M66.2,191.6c-1.5,0-4.4-0.7-6.2,0C62,192,64.6,192.9,66.2,191.6z"/>
		<path fill="none" d="M78.1,214.4c-0.3,1.2-0.3,0.7,0,1.9c0.9,0.1,1.5-0.1,1.9-0.4C80,214.8,79.4,214.3,78.1,214.4z"/>
		<path fill="none" d="M102,205.1c-1.5,1.8,1.7,2.8,1.2,0C102.8,205.1,102.4,205.1,102,205.1z"/>
		<path fill="none" d="M94.7,199.3c-0.5,0.1-0.4,0.5-0.8,0.8c-0.3,0.2-0.9,0.1-1.2,0.4c-1.5,1.3-2.9,4-4.6,6.2
			c-1.9,2.5-3.8,4.8-4.6,6.6c2.1-0.2,3.4,0.4,5,0.8c1,1.1,1.1,3.1,2.3,3.9c1.7-2.4,3.2-4.4,5.4-7.3c1.3-1.7,5.1-5.5,4.6-8.1
			C100.5,200.1,97.4,198.7,94.7,199.3z M97,205.9c-0.9,1.4-1.8,2.5-2.7,3.8c-0.8,1.3-2.6,3.2-3.9,4.6c-1.7-0.1-2.5-1.1-3.5-1.9
			c1.1-2.3,3.1-4.1,4.6-6.2c1.3-1.8,2.4-4.8,5.4-5c0.4,0.5,1,0.8,1.5,1.2C99,203.9,97.6,204.9,97,205.9z"/>
		<path fill="none" d="M90.4,220.9c-0.2,1.2,0.8,1.2,1.9,1.2c0-0.5,0-1,0-1.5C91.5,220.4,90.9,220.6,90.4,220.9z"/>
		<path fill="#B32621" d="M30.3,81.3c0.3,0.4,0.1,0.8,0.4,1.2c1.2,1.5,2.8,2.7,3.9,4.2c0.3,0.4,0.1,0.8,0.4,1.2
			c0.2,0.3,0.5,0.4,0.8,0.8c1.3,2.2,2.2,4.7,3.1,6.9c6.7-1.8,13.7-1.5,21.2-1.9c1.6-0.1,3.1-0.7,4.6-0.8c0.7,0,1.6,0.4,2.3,0.4
			c2.7,0.1,3.7,0.5,5.4,0.8c1.3,0.2,2.9,0.3,4.2,0.4c1.7,0.1,3.4,0.2,5,0.4c8.8,1,18,3.3,25.4,5c2,0.5,3.3,0.7,4.6,1.2
			c0.7,0.3,1.4,1.1,2.3,0.8c3-3.2,4.6-7.4,6.9-11.2c0.3-0.4,0.5-0.8,0.8-1.2c0.3-0.5,0.5-1.1,0.8-1.5c1.9-2.8,4.5-4.9,6.2-7.7h-6.9
			c-3,2.5-6,6.5-7.7,9.6c-1.3,2.4-1.7,5-3.5,6.9c-2.2-0.6-4.7-1.3-7.3-1.9c-2.4-0.6-5.5-0.4-6.9-2.3c0.3-3.9,1.1-10.6-1.2-12.3h-2.4
			c-1.6,1-3.1,3.6-3.4,4.6c-0.9,2.5-0.2,5.6-1.9,6.9c-5.2-0.9-11.5-0.6-16.2-1.9c-0.1-3.7-0.7-6.9-1.7-9.6h-4.7
			c-1.7,2.5-2.8,7.3-4,9.6c-5.2,0.7-11.3,0.5-16.2,1.5c-1.8-1.4-2.4-3.8-3.5-5.8c-0.5-0.9-1.4-1.6-1.5-1.9s0.2-0.9,0-1.2
			c-0.4-0.8-1.1-1.6-1.6-2.3h-8.6C29.2,80.7,30.1,81,30.3,81.3z"/>
		<path fill="#B32621" d="M46.9,86.7c3.4-0.4,7.1-0.6,10.4-1.2c1.2-1.4,1.5-3.5,2.2-5.4H44c-0.1,0.1-0.2,0.3-0.2,0.4
			C44.9,82.5,45.7,84.8,46.9,86.7z"/>
		<path fill="#B32621" d="M84.7,86.7c0.3-2.6,1.4-4.4,2.2-6.6H74.6c0,2.3,0.7,3.9,1.2,5.8C78.5,86.4,81.4,86.8,84.7,86.7z"/>
		<path fill="#B32621" d="M101.2,89.4c2.3,0.4,4.2,1.2,6.9,1.2c2.1-3.4,4.3-6.7,6.2-10.4h-13.5C100.5,82.5,101.4,86.3,101.2,89.4z"
			/>
		<path fill="#B32621" d="M97.4,85.2c0,1.4,0,2.8,0,4.2C98,88.9,98,85.7,97.4,85.2z"/>
		<path fill="#171717" d="M151.8,86.3c-0.5,1-1.5,3.3,0.4,3.5C151.7,88.2,153.2,86.6,151.8,86.3z"/>
		<path fill="#171717" d="M156,89.8c0.8-0.8,0.2-2.2-0.4-2.7C154.8,87.2,155.1,91.4,156,89.8z"/>
		<path fill="#171717" d="M147.5,87.9c-0.9,0.6-0.2,4,0.8,2.7c-0.2-1.3,0.2-2.2,0.4-3.1C148.2,87.5,147.8,87.7,147.5,87.9z"/>
		<path fill="#F7CC00" d="M152.2,101.4c0-0.7-0.1-1.2-0.4-1.5c-1.3-0.2-2.2,0.1-1.9,1.5C150.3,101.9,151.7,101.9,152.2,101.4z"/>
		<path fill="#171717" d="M61.1,109.1c1.9,0.5,3.7-1,6.2-1.2c4.3-0.4,7.8,1.6,10.8,1.2c-3.3-2.6-10.4-5.5-15.4-2.7
			c-1.3,0.2-3.7-0.6-3.8,0.8C59.5,107.7,60,108.8,61.1,109.1z"/>
		<path fill="#F7CC00" d="M149.8,108.7c0.3-1.1-0.4-3.2-1.2-1.9C149.8,106.7,148.2,109.3,149.8,108.7z"/>
		<path fill="#B32621" d="M86.2,116.8c0.2,1.2-0.5,3.3,0.4,3.9C86.4,119.5,87.1,117.3,86.2,116.8z"/>
		<path fill="#B32621" d="M95.9,119.1c0.2,1.2-0.5,3.3,0.4,3.9c0-1.3,0-2.6,0-3.9C96.1,119.1,96,119.1,95.9,119.1z"/>
		<path fill="#B32621" d="M93.5,119.9c0.2,1.3-0.5,3.6,0.4,4.2C93.7,122.8,94.4,120.5,93.5,119.9z"/>
		<path fill="#B32621" d="M143.7,124.5c1.3-0.2,3.6,0.5,4.2-0.4C146.6,124.4,144.3,123.6,143.7,124.5z"/>
		<path fill="#B32621" d="M146.8,138.4c0-1.4,0-2.8,0-4.2C146.1,134.7,146.1,137.8,146.8,138.4z"/>
		<path fill="#B32621" d="M146.4,144.6c0-1.4,0-2.8,0-4.2C145.7,140.8,145.7,144,146.4,144.6z"/>
		<path fill="#B32621" d="M89.3,146.1c-0.4,0-0.8,0-1.2,0c-1.1,1.1-2.6,1.8-3.9,2.7s-2.5,1.9-3.9,2.7c-0.7,0.4-1.6,0.4-2.3,0.8
			c-2.5,1.2-4.6,2.7-6.9,3.5c-0.8,0.3-1.8,0.2-2.7,0.4c-2.3,0.6-4.2,1.6-5.8,2.3c1.9,0.2,4.2-0.2,6.6,0c1.1,0.1,2,0.8,3.1,0.8
			c1.5,0,3.3-0.2,5-0.4c3.2-0.4,6.6-1.3,9.6-2.3s6-2.3,8.1-4.2c-1.1-0.8-2.1-1.7-3.1-2.7C91,148.6,89.8,147.5,89.3,146.1z"/>
		<path fill="#B32621" d="M20.3,153.4c0-0.5,0-1,0-1.5c-0.7,0-1.2,0.1-1.5,0.4C18.6,153.3,19.3,153.5,20.3,153.4z"/>
		<path fill="#B32621" d="M129.4,162.3c1.4-2.8,3.6-4.8,4.6-8.1c-2.1-0.5-2.7-2.5-5.4-2.3C125.2,154.5,128.9,159,129.4,162.3z"/>
		<path fill="#B32621" d="M13.7,153.8c-1.1-0.2-1.4,0.5-2.1,0.7v10.2c0.7-2,1.4-3.8,1.8-6.2C13.6,157,13.9,155.4,13.7,153.8z"/>
		<path fill="#B32621" d="M27.6,154.6c-0.1,2.2-1.4,4.8,0.4,5.8c0.3-0.5,0.8-0.7,1.5-0.8C29.5,157.3,28.9,155.6,27.6,154.6z"/>
		<path fill="#B32621" d="M36.1,169.2c3.1-0.4,6.7-0.2,8.5-1.9c-0.6-1.2-1.3-2.5-1.9-3.9c-0.6-1.2-0.8-3.1-2.3-3.5
			c-2.5,0.6-5.7,0.5-7.7,1.5C33.7,164.2,34.6,167,36.1,169.2z"/>
		<path fill="#B32621" d="M17.6,160.8c-0.3,0.4-0.5,1-0.4,1.9c0.7-0.1,0.9,0.4,1.5,0.4c0.4-0.5,0.4-1.4,0.4-2.3
			C18.6,160.8,18.1,160.8,17.6,160.8z"/>
		<path fill="#F7CC00" d="M146.8,164.6c1.6-0.1,1.1-1.7,0-1.9C146.8,163.3,146.8,164,146.8,164.6z"/>
		<path fill="#B32621" d="M55.7,176.6c1.1-0.5,2.4-0.9,3.5-1.5c0.6-0.3,1-0.8,1.5-1.2c0.4-0.3,1.9-0.1,1.5-1.2
			c-0.1-1.3-1.7-2.1-2.7-3.1c-1.2-1.2-1.7-2.5-3.5-2.7c-1.5-0.2-2.9,1-4.2,1.5c-1.2,0.4-3.4,0.2-3.5,1.9
			C50.9,172.5,52.3,175.5,55.7,176.6z"/>
		<path fill="#B32621" d="M73.1,176.2c1.5,0.8,3,1.9,4.6,2.3c2.5-1.7,2.8-3.4,4.2-6.2c-2.3-1.3-3.9-3.3-6.9-3.9
			c-1.9,1.5-3.6,3.4-5.8,4.6C69.5,175.1,71.7,175.4,73.1,176.2z"/>
		<path fill="#B32621" d="M15.6,169.6c-0.5,0-1,0-1.5,0c-0.3,1.2-0.3,0.7,0,1.9C15.7,171.6,16.2,170.8,15.6,169.6z"/>
		<path fill="#B32621" d="M135.2,176.9c1.1,0.6,2.6,0.8,4.2,0.8C139.6,175.8,135.6,174.8,135.2,176.9z"/>
		<path fill="#B32621" d="M11.6,177.7v0.5C11.6,178,11.6,177.9,11.6,177.7z"/>
		<path fill="#B32621" d="M113.2,186.2c-0.5-0.3-0.7-1-1.2-1.2s-1.2-0.2-1.5-0.4c-1-0.4-1.9-0.8-2.7-1.2c-4.3-1.8-8.8-3.7-13.1-5.4
			c-0.4,0-0.5,0.3-0.8,0.4c-0.7,2.1,0.3,4.6,0.4,6.6c2.4-0.6,3.8-2.1,6.6-2.3c0.2,2.2,1.1,3.8,1.5,5.8c2.5-0.2,3.5-1.9,5.8-2.3
			c1,1.6,1.5,3.7,1.9,5.8c0.8-0.1,1.6-0.2,2.3-0.4c1.2-0.3,4.2-1,4.6-3.5C116.4,186.7,114.3,186.8,113.2,186.2z"/>
		<path fill="#B32621" d="M31.4,180.4c0.3,1.8,1.6,2.6,1.5,3.9c1.9,1,3.5,2.1,6.2,2.3c0.4-1.5-0.2-2-0.8-2.7
			c-0.7-0.8-0.7-0.4-1.5-0.8c-0.1-0.1-0.2-0.7-0.4-0.8c-0.6-0.4-1.9-0.4-2.7-0.8C32.8,181.1,32.4,180.3,31.4,180.4z"/>
		<path fill="#B32621" d="M18.3,191.2c-0.2-1.9-2.7-1.4-3.5-2.7c-0.7-0.7,0.3-1.9,0.4-3.1c-0.1-0.3-0.3-0.4-0.8-0.4
			c-0.8,1.3-2.1,2.1-2.9,3.4v1.2C14.3,189.7,16,190.8,18.3,191.2z"/>
		<path fill="#B32621" d="M51.1,195.5c-0.7,0.8-0.8,2.3-2.3,2.3c-1.3-1.1,1-1.9,0-2.7c-2.2-0.5-1.5,2-1.2,3.1
			c1.8,0.5,3.8-0.2,4.2-1.5c0.2-0.6,0-1.9-0.4-2.7c-0.7-1.4-3.8-2.3-5-4.2c-1.1-1.8-0.6-2.6-1.5-4.2c0,3.5,0,6.9,0.8,9.6
			C46.3,192.4,50.9,192.7,51.1,195.5z"/>
		<path fill="#B32621" d="M125.2,186.2c-0.1,2.1,1.1,2.8,1.5,4.2c-1,1.2-3.4,1-3.9,2.7c2.1-0.7,4.6-1.1,6.6-1.9
			c-0.9-0.6-1.7-1.4-2.3-2.3C126.1,188.3,126.5,186.4,125.2,186.2z"/>
		<path fill="#B32621" d="M34.9,187.7c1.2,1.4,1.6,3.5,4.2,3.5c0-0.8,0-1.5,0-2.3C37.9,188.6,36.3,186.6,34.9,187.7z"/>
		<path fill="#B32621" d="M137.9,225.9c0-0.7,0.6-2.8,0.8-3.1c0.5-1.1,1.1-1.9,1.5-2.7s0.6-1.3,0.8-2.3c0.3-2.4-1-5-0.8-6.9
			c0.3-2.1,2.5-3.7,3.5-6.2c1.7-4.3,1-8.6,1.2-14.3c0-0.2-0.1-0.5-0.4-0.4c-0.4,0.2-0.6,0.8-0.8,1.2c-3.2,7.5-6.8,18-8.1,28.2
			c-0.5,3.9-1.1,8.1-1.4,12.6h4.9c0-0.2,0.1-0.4,0.1-0.6C139,229.6,137.8,227.7,137.9,225.9z"/>
		<path fill="#B32621" d="M14.9,197c-0.7-0.4-2.1-0.9-3.3-0.8v1.1C12.8,197.5,14.1,197.6,14.9,197z"/>
		<path fill="#B32621" d="M53,197.4c-0.1,1.3-1.2,1.7-1.9,2.3c-0.5,0.8-3.4,1.2-2.3,2.3c1.9-1.5,4.3,0.1,5,1.9c0-2.1,0-4.1,0-6.2
			C53.7,197.5,53.5,197.3,53,197.4z"/>
		<path fill="#B32621" d="M50.3,208.6c-0.1,1.2,1.1,2.3-0.4,2.7c-1.3-0.2-0.9-1.4-1.5-2.3c-0.9-1.3-2.3-1.8-2.7-3.5
			c-0.2-1,0.1-1.8,0-3.1c0.6-0.9,1-1.8,1.5-2.7c-0.9-0.3-1-1.3-1.9-1.5c0,2.7,0,5.4,0,8.1c1.7,2,2.2,5.3,4.2,6.9
			c1.3-2.5,5.2-4.3,3.9-8.1C53.3,207.2,52.1,208.2,50.3,208.6z"/>
		<path fill="#B32621" d="M147.5,202c0,1.4,0,2.8,0,4.2C148.2,205.7,148.2,202.6,147.5,202z"/>
		<path fill="#B32621" d="M49.6,203.6c0.1,1.2,2.1,1.6,0.8,3.1C53.1,206.8,51.8,201.6,49.6,203.6z"/>
		<path fill="#B32621" d="M13.7,207c1.4-0.1,3.5-1.6,2.7-2.7C15.7,205.4,14.2,205.7,13.7,207z"/>
		<path fill="#B32621" d="M127.1,209c-0.5-1.4-1.8-2.1-3.1-2.7C124.2,208,125.7,208.5,127.1,209z"/>
		<path fill="#B32621" d="M21.4,211.3c0.8-1.2,2.3-2.9,0.8-4.2c-0.5,2.8-2.8,3.8-4.2,5.8c2.5,0.4,4,1.9,6.2,2.7
			C24.4,212.9,21.6,213.4,21.4,211.3z"/>
		<path fill="#B32621" d="M118.2,210.1c-1,1.9,1.2,2.6,1.5,4.2c-0.5,1.4-2.6,1.2-2.7,3.1c1.9-0.7,2.8-2.4,5-2.7
			c-0.4-1.1-1.3-1.8-2.3-2.3C119.5,211.4,119,210.6,118.2,210.1z"/>
		<path fill="#B32621" d="M37.6,220.1c-0.5-0.8-0.8-1.3-1.2-1.9c-0.2-0.4-0.6-0.5-0.8-0.8c-0.3-0.5-0.5-1.4-0.8-1.9
			c-0.2-0.3-0.6-0.4-0.8-0.8c-0.5-0.8-0.7-1.1-1.2-1.5c-0.9-0.9-0.7-2.5-1.9-2.7c0.8,7.7,0.5,15.7,4.6,19.3c1.3-2.1,3.7-3,4.6-5.4
			c-0.7-0.8-1.1-2-1.5-2.7C38.4,221,37.9,220.5,37.6,220.1z"/>
		<path fill="#F7CC00" d="M45.7,216.7c1.3-0.1,1.7-1.2,1.9-2.3c-0.4,0-0.8,0-1.2,0C46.6,215.5,45.6,215.5,45.7,216.7z"/>
		<path fill="#B32621" d="M14.9,220.1c1.4,0.5,2.9,0.9,4.6,1.2C19.7,219.4,15.7,218.5,14.9,220.1z"/>
		<path fill="#B32621" d="M122.8,221.3c-0.3,0.7-1.4,0.6-1.5,1.5c1.4-0.2,2.2-0.9,3.9-0.8C125.5,220.7,123.6,221.5,122.8,221.3z"/>
		<path fill="#B32621" d="M66.2,226.7c-1.5,1.5,0,3.4,0.8,5.2h3.2c-0.6-1.6-0.9-3.5-1.7-4.9C67.6,227.1,67.3,226.4,66.2,226.7z"/>
		<path fill="#B32621" d="M124,231.3c-1.6-0.2-2.5-1.1-3.9-1.5C120.5,231,122.7,232.4,124,231.3z"/>
		<path fill="#F7CC00" d="M33,143c0,0.8-0.4,1-0.8,1.9c1.5,1.1-4.7,1.8-3.5,0.4c-0.2-1.1,2.1,0.3,1.9-0.8c1.6-1.2,0.4-3.2-1.2-3.5
			c-0.1,0-0.3,0-0.4,0c-0.1,0.4-1.7,1-1.5,0.4c-0.8,0.1-0.4,1.4-1.2,1.5c-0.1,0.3,0,0.8-0.4,0.8c-0.2,5.6,8.5,5.2,8.9,0.4
			c-0.4-0.7-0.8-2.7-0.8-2.7c0-0.3,0.5-0.6,0.4-0.8c-0.6-1.2-2.7-1.6-3.5-2.3c-0.1,0-0.3,0-0.4,0c-2.6-0.1-4.4,0.8-5.8,1.9
			c-0.8,0.3-1.5,1.5-1.5,1.9c-0.9,4.7,1.3,6.8,3.5,8.1c3.6,2.3,8.7,0.6,10-3.5c-1.4-1.2-2.1,0.8-3.1,1.2c-3.4,3.7-10.3-0.5-8.5-5.4
			C25.8,138.9,33.1,138.9,33,143z"/>
		<path fill="#171717" d="M96.2,92.5c1.4,1.9,4.5,1.7,6.9,2.3c2.6,0.6,5.1,1.3,7.3,1.9c1.8-2,2.1-4.6,3.5-6.9
			c1.8-3.1,4.7-7.1,7.7-9.6h-2.4c-0.7,2.3-2.7,3.9-4.1,5.8c-0.3,0.4-0.5,0.8-0.8,1.2c-0.7,1-1.5,3-2.3,4.6c-0.5,1.1-1.5,2.1-1.5,3.5
			c-2.4,0-4.8-0.7-6.9-1.2c-2.2-0.5-4.5-0.7-6.2-1.9c0-0.9,0-1.8,0-2.7c0-1.4,0-2.8,0-4.2c0.5-2-0.7-3.9-0.5-5h-1.8
			C97.4,81.9,96.6,88.6,96.2,92.5z"/>
		<path fill="#171717" d="M39.5,83.6c0.2,0.4,1.1,1,1.5,1.9c1,2,1.7,4.4,3.5,5.8c4.9-1,11-0.9,16.2-1.5c1.2-2.3,2.4-7.1,4-9.6h-1.1
			c0,0.5-0.4,1.2-0.6,1.5c-0.3,0.7-0.9,1.5-1.2,2.3c-0.6,1.6-1.1,3.5-1.5,5c-6.1-0.4-10.3,1-15.8,1.2c-1.6-3.4-3.2-6.7-4.8-10h-1.8
			c0.5,0.7,1.2,1.5,1.6,2.3C39.7,82.8,39.4,83.3,39.5,83.6z"/>
		<path fill="#171717" d="M100.5,90.2c2.2,1.1,5.7,1,8.1,1.9c1.3-0.8,1.2-2.5,1.9-3.9c0.6-1.2,1.6-2.3,2.3-3.5
			c0.9-1.4,1.8-3.7,3.6-4.6h-2c-1.9,3.7-4.1,7-6.2,10.4c-2.8,0.1-4.7-0.7-6.9-1.2c0.2-3.1-0.7-6.9-0.4-9.3H99c0.1,0.5,0.1,1,0.3,1.5
			C100,83.8,99.8,87.6,100.5,90.2z"/>
		<path fill="#171717" d="M29.9,83.2c0.2,0.3,0.9,0.4,1.2,0.8c0.3,0.4,0.1,0.8,0.4,1.2c0.5,0.7,1.1,1.3,1.5,1.9
			c2.7,3.8,4.7,7.6,5.4,12c0.3,2.1,0.7,4,1.2,6.2c0.1,0.6-0.2,1.4,0,1.9c0.1,0.1,1.2,0.1,0.8,0.8c0.6,7.7,0.6,17.9-0.8,25.8
			c0,0.1,0,0.3,0,0.4c0.4,5.5-1.7,8.6-2.7,12.7c-1.3,4-6.4,5.7-10,3.5c-2.1-1.3-4.3-3.4-3.5-8.1c0.1-0.4,0.7-1.7,1.5-1.9
			c0.8-1.5,3.8-2.8,5.8-1.9c0.1,0,0.3,0,0.4,0c3.2,0.8,4.1,2.1,3.9,5.8c-0.4,4.8-9,5.2-8.9-0.4c0.4,0,0.3-0.5,0.4-0.8
			c-0.1-1,0.6-1.2,0.8-1.9c0.6,0,1.3,0,1.9,0c0.1,0,0.3,0,0.4,0c2.4-0.5,3.1,3,1.2,3.5c0.2,1.1-2.1-0.3-1.9,0.8
			c0.6,0.8,3.3,0.4,3.5-0.4c0.4-0.9,0.8-1.2,0.8-1.9c0.1-4.1-7.2-4.1-7.7-0.4c-0.2,4,2.1,6.4,4.6,6.6c2.1,0.2,5-1.5,5.8-3.5
			c0.7-1.7-0.2-3.3,0.4-5c-1.8-2.7-5.3-4.5-8.9-3.5c-0.8,0.3-1.6,0.8-2.3,1.5c-0.6,0.7-2.4,2.4-2.7,3.5c-0.6,2.4,0.7,4,0.8,6.9
			c-3.9,1.2-7.7,2.5-11.4,3.9v1.5c0.7-0.2,1-0.9,2.1-0.7c0.2,1.6-0.2,3.2-0.4,4.6c-0.4,2.5-1,4.3-1.8,6.2v4.2c0.4-0.7,0.8-1.4,1-2.3
			c3.4,0.4,8.7,1.8,8.9,5.4c0.2,4-3.9,4.4-7.3,2.7c-0.3-0.1-0.5-0.6-0.8-0.8c-0.4-0.2-1.1-0.5-1.8-0.9v1.5c0.5,0.3,0.9,0.6,1.4,0.9
			c1.2,0.7,3.7,2,3.9,3.9c0.2,2.9-2.7,4.7-5.2,4.1v5.1c0.8-1.3,2.1-2.2,2.9-3.4c0.5-0.1,0.7,0.1,0.8,0.4c-0.1,1.1-1,2.4-0.4,3.1
			c0.8,1.3,3.3,0.8,3.5,2.7c-2.3-0.4-4-1.6-6.8-1.5v1.9c1.9,0.1,4.6,1,6,1.9c1.6,1,3.2,2.7,2.7,5c-0.7-0.2-2-0.4-2.3-1.2
			c-0.3-0.7-0.1-0.7-0.8-1.2c-0.5-0.4-1.7-1.6-2.7-1.9c-0.8-0.2-1.8-0.3-2.9-0.2v2.1c1.2-0.1,2.6,0.4,3.3,0.8
			c-0.7,0.6-2.1,0.5-3.3,0.3v1.2c0.1,0,0.1,0,0.2,0c2.7,0.3,5.7,0.5,7.7,1.2c-1,2-3,3.3-4.6,4.6c-0.9,0.7-1.9,1.2-2.7,1.9
			c-0.2,0.1-0.4,0.3-0.6,0.5v3.1c0.8,0.1,1.7-0.1,2.1-0.1c1.2-0.1,2.5-0.8,3.1-1.2c0.9-0.6,1.9-1.8,2.3-2.7c0.7-1.8-0.2-4.2,1.5-5.4
			c2.3,2.1,0.2,6.5-1.2,8.1c-0.5,0.6-1.7,1.8-1.9,1.9c-1.8,1.2-4.3,0.9-6,1.9v3.1c1.6,0.2,2.9-0.8,4.5-0.8c4.8,0,9.7,3.5,8.9,8.1
			c-2,0.3-1.9-1.6-2.7-3.1c-0.1-0.2-0.7-0.3-0.8-0.4c-0.3-0.6-0.5-1.1-1.2-1.5c-1.5-1.1-8-1.6-8.1,1.5c-0.1,2.3,3.3,2.6,5.8,3.1
			c2.9,0.6,5,0.8,6.9,1.5c-0.2,1.5-2,1.4-3.1,1.9c-2.2,1-4.4,2.1-6.5,3.5c-0.9,0.6-2.3,1-2.3,2.3c0.1,0.1,0.2,0.2,0.3,0.2h6.5
			c0.8-0.5,1.5-1.2,2.1-1.8c0.9-0.9,0.4-4.6,3.1-4.2c0.3,2.4-0.6,4.5-2.2,6H36c1.2-1.5,2.4-2.9,3.5-4.5c1.2-1.5,2.6-2.8,3.9-4.2
			c2.2-2.8,4.4-5.7,6.6-8.5c1.7-2.3,3.7-4.3,5.4-6.6c1.1-1.8,2.8-3.1,3.9-5c0.8-0.9,1.4-2,2.3-2.7c1-1.2,1.7-2.7,3.1-3.5
			c0-0.1,0-0.3,0-0.4c1.1-2.3,3.1-3.9,4.6-5.8c0.3-0.3,0.1-0.9,0.4-1.2c0.4-0.4,1.4-0.9,1.9-1.5c0.3-0.3,0.1-0.8,0.4-1.2
			s1.6-0.7,1.5-1.9c0-0.1,0-0.3,0-0.4c-1.3-0.6-3.3-0.5-5-0.8c-11.7,0-22.8-3.3-31.2-7.7c-3.3-1.7-6.9-3.1-9.6-5.4
			c0-0.1,0-0.3,0-0.4c-1.6,0-2-1.4-3.1-1.9c0.3-0.3,0.4-0.9,0.4-1.5c0.1-0.3,0.4-0.4,0.4-0.8c1.9-0.7,3,1.4,4.6,2.3
			c1.4,0.8,3,1.8,4.6,2.7c1.8,1,4.1,2.6,6.2,3.5c3.3,1.4,7.2,2.2,10.8,3.9c6.5,1.8,12.9,2.1,20.1,2.7c0.3,0,0.5,0,0.8,0
			c5.6,1,6.9-2.4,8.9-5c2.6-5,7-8.1,9.6-13.1c-0.9-1.1-2.2,0.6-3.1,0.8c-1.5-0.1-1.9,0.9-3.5,0.8c-0.9,0.7-2.8,0.6-3.9,1.2
			c-4.8,0.4-10.4,0.7-14.7-0.4c-0.1,0-0.3,0-0.4,0c-1.4,0.6-3.6,0.1-5-0.4c-1,0.1-1.9,0.1-2.3-0.4c-2.7-0.4-5-1.2-6.9-2.3
			c-0.1,0-0.3,0-0.4,0c-3-0.7-5.1-2.3-7.7-3.5c-1.2-1-2.9-1.5-3.9-2.7c-0.8-0.8-4.9-3.2-1.5-3.5c0.5-0.7,2-0.3,2.7-0.8
			c0.5,0.9,1.9,0.9,2.3,1.9c1.5,0.9,2.5,2.1,4.2,2.7c0.3,0.3,1.1,0.2,1.2,0.8c1.8,0.2,2.3,1.6,4.2,1.5c3.9,2,9.8,2.9,14.3,3.1
			c3-0.2,5,0.7,8.1,0.4c8.9-1.1,16.7-3.4,22.8-7.3c1.8-1.2,3.2,0,5.4,0.4c1.3,0.9,3.7,0.7,5,1.5c0,1.6-1.1,2.2-1.9,3.1
			c-0.8,1.4-1.9,2.5-2.7,3.9c-2.2,3.3-5,6-6.9,9.6c0.1,1.8,2.5,1.3,3.5,2.3c2.1,0.3,3.3,1.6,5.4,1.9c2.5,1.5,6.1,1.9,8.1,3.9
			c1.8,0.8,4,1.1,5.4,2.3c0.4,0,0.3,0.5,0.4,0.8c-1,2.2-3,1-4.6,0.4c-0.8-0.3-1.6-0.7-2.3-1.2c-1.5-0.9-3.1-1.6-5-2.3
			c-0.3-0.1-1-0.7-1.2-0.8c-0.5-0.1-1.1,0.2-1.5,0c-0.3-0.1-0.5-0.6-1.2-0.8s-1.6-1-2.3-1.2c-0.5-0.1-1.1,0.2-1.5,0
			c-1.8-0.7-3.2-2.3-5-1.9c-1.5,0.3-2.5,2.1-3.5,3.5c-0.4,0.5-0.5,1.2-0.8,1.5c-1.9,2.3-4.7,3.6-5,6.6c1.4,1.3,3.9,1.5,5.4,2.7
			c3.2,1,5.7,2.5,8.9,3.5c0.6,0.6,1.8,0.5,2.3,1.2c3.1,1,5.8,2.4,8.9,3.5c1.1,0.3,3.4,1.5,1.9,3.1c-0.1,1.4-2.5,0-3.5-0.4
			c-3.4-1.3-7.5-3.6-11.2-4.6c-0.8-0.7-2.5-0.6-3.1-1.5c-2.5-0.8-4.8-1.9-7.3-2.7c-1.3-0.8-3.1-1-4.2-1.9c-2.2,0.7-3,2.9-4.2,4.6
			c-1.2,1.6-2.6,3.1-3.9,4.6c-1.1,1.5-1.9,3.2-3.5,4.2c0,0.1,0,0.3,0,0.4c-0.9,1.5-2.2,2.4-3.1,3.9c-0.8,1.4-3.6,3.1-1.9,4.6
			c1.5,0.4,2.8,1.1,3.9,1.9c0.9,0.6,2.2,0.9,3.1,1.5c2.2,0.2,3.3,1.5,5.4,1.9c0.3-0.1,0.4,0.2,0.4,0.4c2.4,0.8,4.5,2,6.9,2.7
			c0.3-0.1,0.4,0.2,0.4,0.4c4.8,1.7,9.2,3.7,13.5,5.8c1.3-0.1,1.7-1.2,2.3-1.9c1.2-1,2.2-2.2,3.1-3.5c1.2-1.7,2.6-3.3,3.9-5
			c0.9,0.4,0.2,2.4,0.4,3.5c-0.5,3.2-1.1,6.4-1.5,9.6c0,0.3,0,0.7,0,1h7.8c-0.6-1.2-0.8-2.7-0.4-4.5c2.6,0,1.6,2.7,2.7,4.2
			c0.1,0.1,0.1,0.2,0.2,0.2h9.2c-0.9-1.8-3.7-2.1-5.5-2.9c-1.1-0.5-2-1-3.1-1.5c-0.9-0.5-2.5-0.8-2.7-1.9c3.3-0.7,7-1.6,10-2.7
			c1.1-0.4,2.5-0.1,2.7-1.5c-0.6-2.5-3.6-2.8-5.4-2.7c-1.3,0.1-2.3,0.6-3.1,1.2c-1.7,1.2-1.6,3.6-3.5,4.2c-1.9-0.5-0.1-3,0.4-3.9
			c0.3-0.4,0.6-1.1,1.2-1.5c0.3-0.3,0.8-0.1,1.2-0.4c0.4-0.3,1.6-1.3,2.7-1.5c2.5-0.5,4.8,0.5,6.9,0c0-0.5-0.1-1.1,0.4-1.2
			c-0.1-2.7-3-1.8-4.6-2.3c-0.3-0.1-0.8-0.6-1.2-0.8c-0.8-0.4-2.1-1.1-3.1-2.3c-0.5-0.6-1.4-2-1.5-2.3c-0.4-1.2-0.6-3,0-5
			c2.5,0.4,1.2,3,1.9,4.6c1.5,3.4,5.3,5.2,9.3,3.5c0.6-1.8-1.3-2.8-2.7-3.9c-0.9-0.7-1.3-0.9-2.3-1.5c-0.5-0.3-1.2-1-1.9-1.5
			c-0.9-0.7-2.4-1.1-2.3-2.3c2-0.4,4.6-0.5,6.9-0.8c2.1-0.3,4.7-0.1,5.4-1.9c0.5-1.7-1.2-1.5-1.9-1.9c-1.7-1-2.7-1.6-5-0.8
			c-1.1,0.4-2.2,1.3-3.1,1.9c-1,0.8-1.2,2.8-3.1,1.9c0.5-5.9,8.4-7.8,12.7-5.4c0.3-0.1,0.4-0.4,0.8-0.4c1.6,0.1,1.3-1.8,1.9-2.7
			c0-0.4-0.5-0.3-0.8-0.4c-1.6-0.6-3.3-1-5-2.3c-2.2-1.6-4.7-5.9-1.9-10c2.1,0.7,0.2,3,0.8,5.4c0.6,1.5,1.8,2.6,2.7,3.9
			c2,0,4.5,1.5,5.8,0c0.1-2.9-2.5-3.1-3.1-5.4c-1.8-0.9-3.2-2.2-3.9-4.2c3.5,0.3,7,0,10.4,1.2c0,0.9,1.4,1.7,1.5,2.7
			c0.3,1.9-2.4,6.9-3.8,10.8c-0.7,1.8-1.3,3.6-1.9,5.4c-0.3,1-0.4,2-0.8,3.1c-0.5,1.6-1,2.6-1.5,5c-0.7,3.4-1.7,8.8-2.3,13.1
			c-0.3,2-0.4,3.8-0.8,5.4c-0.1,0.6-0.7,1.4-0.8,1.9c-0.2,1.5-0.3,3.2-0.3,4.9h3.9c0.3-4.4,0.9-8.6,1.4-12.6
			c1.3-10.1,4.9-20.6,8.1-28.2c0.2-0.4,0.4-1,0.8-1.2c0.3-0.1,0.4,0.2,0.4,0.4c-0.2,5.7,0.6,10-1.2,14.3c-1,2.5-3.2,4-3.5,6.2
			c-0.3,2,1.1,4.5,0.8,6.9c-0.1,1-0.4,1.5-0.8,2.3c-0.4,0.8-1,1.6-1.5,2.7c-0.1,0.3-0.7,2.4-0.8,3.1c-0.1,1.8,1.2,3.7,1.2,5.4
			c0,0.2,0,0.4-0.1,0.6h6.7c0.1-11.8,0.2-23.6,0.7-34.9c-0.9-0.8-0.1-4.2,0-6.6c0-0.6-0.4-0.7-0.4-1.2c0-0.4,0.3-5.1,0.4-5.4
			c0.1-0.5,0.4-0.8,0.4-1.2c0.1-1.5-0.1-2.6,0-3.9c0.1-1.2-0.9-2.2,0.4-2.7c2.1-0.1,0.8,3.3,1.2,5c0,2-0.7,3.2-0.4,5.4
			c0,0.3,0,0.5,0,0.8c0,3.6,0,7.2,0,10.8c-0.1,1.3,0.3,3.1-0.4,3.9c0.6,0.5,0.6,3.7,0,4.2c0.2,6.4-0.1,13.6-0.4,20.1
			c-0.1,1.9-0.1,3.8,0,5.6h9.5c0.3-0.3,0.7-0.6,1.1-0.8v-6.5c-0.5,0.5-1,1-1.7,1.3c-1.3,0.7-2.8,2.1-4.2,3.5c-1.1,1-1.6,2.8-3.1,2.3
			c-0.3-4.6,0.7-8.1,0.4-12.7c2.7-2.9,5.2-6.1,8.5-8.5c0-0.1,0.1-0.2,0.1-0.2v-6.9c-0.3,0.3-0.6,0.6-0.9,0.9c-1.4,1.6-3.4,2.9-5,4.6
			c-0.7,0.8-0.8,2.4-2.3,2.3c-1-3.2-0.1-6.2,0-9.3c0.1-1.9-0.5-4.3,0-6.2c0.3-1.3,1.8-2.6,2.7-3.9c0.9-1.2,2.5-2.7,3.9-3.9
			c0.6-0.5,1.1-1.2,1.7-1.6v-5.6c-0.7,0.6-1.3,1.1-1.7,1.8c-0.3,0.3-0.9,0.4-1.5,0.4c-1.3,1.9-3.3,3.1-4.6,5c-1.2-3,0.5-6.4,0-10
			c3.6,0.8,5.3-0.2,7.8-1.1v-1.2c-1.7,0.8-3.1,1.2-5.1,2c0.3-1-1.8,0.3-1.5-0.8c-1-1.2,0.7-1.4,1.5-2.3c0.6-0.6,1.4-2.1,1.9-2.3
			c0.2-0.1,0.5,0.4,0.8,0.4c0.2,0,1.4-0.5,2.4-0.4v-1.2c-2.9,0-4.3,1.5-6.3,2.4c-0.6-0.3,0.1-1.9-1.2-1.5c-0.7,0.5,0.5,2.1-0.4,3.1
			c-1.4,0.7-2.8-0.1-3.5-1.2c0.5-1.7,2.2-2.5,3.5-3.5s2.6-2.1,3.9-3.1c0.8-0.3,2.6-0.2,4,0.2v-1c-0.9-0.2-1.6-0.5-2.8-0.4
			c-0.6-0.5-0.1-2.2-0.8-2.7c-1.5,0.4-0.3,1.5-0.4,2.7c-1.4,1.2-2.8,2.3-4.2,3.5c-0.9-0.2,0.2-2.5-1.2-2.3c-1.2,0.1-0.6,1.9-0.8,3.1
			c-0.8,1-2.5,1.7-3.5,0.4c0.2-1.9,1.6-2.8,3.1-3.5c2.1-3.2,5.5-5.1,10.5-5.4v-1.1c-1.4-0.1-2.6,1.1-4.7,0.7c0.1-1,0.1-1.9-0.8-1.9
			c-0.7,1.3-0.5,3.4-2.7,3.1c-0.2-0.3-0.3-0.7-0.8-0.8c0.7-3.5,5.2-5.3,9-4.6V156c-1.6,0-2.8-0.3-4,0c-1.7,0.3-2.6,1.2-4.2,1.9
			c0.4-3.3-0.7-5.9,0-8.1c0.8-2.7,3.6-3.1,5-5.4c1.6-0.1,2.3-1.2,3.2-2v-12.3c0,0-0.1,0-0.1-0.1s0.1-0.1,0.1-0.1V125
			c-0.5,0.9-0.9,2.5-0.1,3.4c0.3,1.9-0.8,0.6-1.5,0.4c0-0.9,0-1.8,0-2.7c0-0.1,0-0.3,0-0.4c-1.4-0.7,0.9-2.4,1.7-1.8V123
			c-2.9,0.7-5.7,0.9-9.8,1.1c-0.7,0.9-2.9,0.1-4.2,0.4c-7.2-1-12.5-1.5-15.8-6.2c-0.5-0.6-0.5-1.6-1.2-1.9c1-0.3,1.9,1.5,3.1,2.3
			c1.1,0.7,2.5,0.5,3.1,1.5c0.3-0.1,0.4-0.4,0.8-0.4c0.3-0.1,0.4,0.2,0.4,0.4c1.6-0.1,2.1,1,3.9,0.8c0.4,0.9,2.8-0.2,3.1,0.8
			c1.4,0,2.8,0,4.2,0c0.6,0,1.3,0,1.9,0c1.3,0,2.6,0,3.9,0c0.1-0.3,1.8-0.6,2.7-0.8c0.4-0.1,1.2-0.4,1.2-0.4c0.3,0,0.4,0.5,0.8,0.4
			c0.7-0.1,1.4-0.5,2-0.7v-1.4c-0.2,0.1-0.5,0.2-0.9,0.2c0,0,0-0.7,0-0.8c-0.5-0.8-0.7-3.9,0-4.6c0.1-0.3,0.4-0.4,0.4-0.8
			c0.2,0,0.4,0.1,0.5,0.3v-4.6c-0.7-0.3-0.5-1.6-0.5-2.6c0.2-0.1,0.3-0.1,0.5-0.1v-8c-0.3-0.3-0.5-0.7-0.5-1.2
			c0.1-0.1,0.3-0.2,0.5-0.3V95c-0.6-0.1-1.5-0.9-2.4-0.7c-1.7-1-4.2,0.1-6.2,0c0.4-1.7,3.3-1.9,4.6-1.5c0-0.4,0.5-0.3,0.8-0.4
			c0.7,0.6,2.2,0.4,3.2,0.7v-0.7c-0.2,0-0.3,0-0.5,0c-1.3,0.1-2.4,0.1-2.7-0.8c-1.7,0.4-3.7,0.4-5.4,0.8c-2.4,0.2-3.8-0.5-4.2-2.3
			c-1-0.8-0.1-2.9,0.8-3.1c2-2.6,8.6-3,12.1-1.3v-0.9c-1-0.2-2.1-0.8-3.2-0.9c-5-0.5-10.4,0.9-10.8,4.6c-0.3,3,1.8,3.8,3.9,5.8
			c-0.4,3.9-3,7.5-3.1,11.6c0,1,0.4,1.8,0.4,2.7c0,0.9-0.4,1.8-0.4,2.7c0.1,3.2,1.1,6.1,1.5,9.3c-5.2,0.3-11.2-0.4-15.4-2.7
			c-2-1.1-3.2-3.2-5.4-4.2c-1.5,1,0.3,3.3,0,5.4c0.8,0.9,0.8,2.6,1.5,3.5c0,0.8,1.1,0.5,0.8,1.5c1.8,1.9,3.5,3.9,5.4,5.8
			c2.5,0.3,3.6,2.1,6.2,2.3c0.3,0.1,0.4,0.4,0.8,0.4c1.8,0.4,3.7,0.7,5.4,1.2c0.7,5.4-0.4,9.9,0,16.6c-1.2,0.9-1.5-1.6-3.5-1.2
			c-1.5,1.2-0.5,4.9-1.5,6.6c-1.5-0.5-3-1.5-4.2-2.7c-1-1-3.9-1.4-5-3.1c0.7-2.8,1.9-4.5,1.2-7.7c-0.1-0.6-0.3-1.8-0.4-1.9
			c-1.1-2.5-4.5-3.9-7.7-3.5c-1.5,0.2-3.9,1.7-4.6,3.5c-1.5-3.9-1.9-8.8-2.7-13.5c-0.7-4.7-1.6-9.4-1.9-13.9c-0.2-2.4-0.4-5.3,0-7.7
			c0.1-0.7,0.5-1.2,0.8-1.9c0.2-0.7,0.1-1.7,0.4-2.3c0.5-1.2,1.4-2.1,1.9-3.1c2.5-4.6,4.5-8.3,8.1-12.7c1.8-2.2,2.8-4,4.8-5h-2.1
			c-1.6,2.8-4.3,4.9-6.2,7.7c-0.3,0.4-0.4,1.1-0.8,1.5c-0.3,0.4-0.5,0.7-0.8,1.2c-2.4,3.8-4,7.9-6.9,11.2c-0.9,0.3-1.6-0.5-2.3-0.8
			c-1.3-0.5-2.7-0.7-4.6-1.2c-7.5-1.7-16.6-4-25.4-5c-1.6-0.2-3.3-0.2-5-0.4c-1.4-0.1-2.9-0.2-4.2-0.4c-1.7-0.2-2.7-0.6-5.4-0.8
			c-0.7,0-1.6-0.4-2.3-0.4c-1.5,0-3,0.7-4.6,0.8c-7.5,0.4-14.5,0.1-21.2,1.9c-0.9-2.3-1.7-4.7-3.1-6.9c-0.2-0.4-0.5-0.5-0.8-0.8
			c-0.2-0.3-0.1-0.8-0.4-1.2c-1.1-1.6-2.7-2.7-3.9-4.2c-0.2-0.3-0.1-0.8-0.4-1.2c-0.2-0.3-1.1-0.6-1-1.2h-1.7
			C28.3,80.9,29,82.1,29.9,83.2z M13.7,207c0.5-1.3,2-1.6,2.7-2.7C17.2,205.4,15.1,206.9,13.7,207z M14.9,220.1
			c0.9-1.6,4.8-0.7,4.6,1.2C17.8,221.1,16.3,220.7,14.9,220.1z M16.8,230.5c0.2-1.6,2.5-1.2,3.1-2.3
			C20.6,229.2,18.4,230.6,16.8,230.5z M71.6,185.8c-0.2,0.3-0.4,0.6-0.4,1.2c-1.4,0.4-0.8-1.3-1.5-1.5C70,184.4,71,185.8,71.6,185.8
			z M66.2,191.6c-1.6,1.3-4.2,0.4-6.2,0C61.8,190.9,64.6,191.6,66.2,191.6z M18.7,152.3c0.3-0.3,0.9-0.4,1.5-0.4c0,0.5,0,1,0,1.5
			C19.3,153.5,18.6,153.3,18.7,152.3z M24.1,215.5c-2.1-0.8-3.7-2.2-6.2-2.7c1.4-1.9,3.7-3,4.2-5.8c1.5,1.3,0,3.1-0.8,4.2
			C21.6,213.4,24.4,212.9,24.1,215.5z M35.7,229.8c-4.1-3.6-3.8-11.6-4.6-19.3c1.3,0.2,1.1,1.8,1.9,2.7c0.4,0.4,0.7,0.7,1.2,1.5
			c0.2,0.3,0.6,0.5,0.8,0.8c0.3,0.5,0.5,1.5,0.8,1.9c0.2,0.3,0.5,0.4,0.8,0.8c0.3,0.6,0.6,1.2,1.2,1.9c0.2,0.4,0.8,0.9,1.2,1.6
			c0.4,0.7,0.9,1.9,1.5,2.7C39.4,226.8,36.9,227.7,35.7,229.8z M40.7,217.1c-0.6-1-1.3-1.7-1.9-2.7c-0.2-0.3-0.2-0.8-0.4-1.2
			c-0.4-0.6-1.2-1-1.5-1.5c-0.2-0.4-0.2-0.8-0.4-1.2c-0.3-0.6-0.7-1.1-1.2-1.9c-3.2-5.5-7.9-11.7-10.8-18.1c-0.1-1,0.5-0.7,0.4,0
			c1.7,1,2.1,2.9,3.1,4.6c0.3,0.6,0.7,1.1,1.2,1.9c1.1,1.9,2.8,4.3,4.2,6.6c0.2,0.3,0.2,0.9,0.4,1.2c0.3,0.4,0.7,0.8,1.2,1.5
			c1.1,1.8,2.9,4.4,4.2,6.6c1.5,2.4,3.5,4.8,4.2,7.7C41.9,219.9,41.5,218.2,40.7,217.1z M34.1,189.7c0.6-0.3,0.6,1.8,0,1.5
			c0,1.4-1.1,1.7-1.5,2.7c-1.9-1.2-0.7-5.3,1.2-5.4C33.6,188.5,34.2,189.6,34.1,189.7z M39.2,191.2c-2.6,0.1-3.1-2.1-4.2-3.5
			c1.4-1.1,3,0.9,4.2,1.2C39.2,189.7,39.2,190.4,39.2,191.2z M39.5,199.3c0.1,0.3-0.1,0.4-0.4,0.4c-0.4,1.1-1.2,1.6-1.5,2.7
			c-1-0.7-1.8-2.1-1.2-3.5c0.3-0.3,0.2-1.1,0.8-1.2c0.2-0.3,0.4-0.6,0.4-1.2C39.1,196.7,39.1,198.2,39.5,199.3z M35.3,192.4
			c0.5,0.1,0.6,0.7,1.2,0.8c0,0.1,0,0.3,0,0.4c0.1,0,0.3,0,0.4,0c0,1.3,0.1,2.7-0.8,3.1c-0.3,0.3-0.2,1.1-0.8,1.2
			C32.6,197,34.2,193.6,35.3,192.4z M32.2,187c-0.5,0.6-0.5,1.6-1.2,1.9c-0.4,1.3-1.2,0.6-1.5,0c-0.6-0.9-0.1-4.6,1.9-4.6
			C31.4,185.5,32.5,185.6,32.2,187z M45.3,217.1c0.3-1.7,0.7-3.2,2.3-3.5C48.6,215.2,46.5,217.7,45.3,217.1z M49.6,213.2
			c-2.1-1.7-2.6-4.9-4.2-6.9c0-2.7,0-5.4,0-8.1c0.9,0.3,1,1.3,1.9,1.5c-0.5,0.9-1,1.8-1.5,2.7c0.1,1.3-0.2,2.1,0,3.1
			c0.3,1.7,1.8,2.2,2.7,3.5c0.7,0.9,0.3,2.1,1.5,2.3c1.5-0.4,0.3-1.5,0.4-2.7c1.8-0.4,3-1.4,3.1-3.5
			C54.8,208.9,50.8,210.7,49.6,213.2z M49.6,203.6c2.2-1.9,3.5,3.3,0.8,3.1C51.7,205.2,49.6,204.8,49.6,203.6z M53.8,203.9
			c-0.8-1.8-3.1-3.4-5-1.9c-1.1-1.2,1.8-1.5,2.3-2.3c0.8-0.6,1.8-1,1.9-2.3c0.5-0.1,0.7,0.1,0.8,0.4
			C53.8,199.8,53.8,201.9,53.8,203.9z M50.3,187c-1.6,0.3-0.1-2.5-1.9-1.9c-1,0.5-0.7,1.7-0.4,2.7c1,0.9,2.8,1.1,3.5,2.3
			c1.3,0.2,0.2-1.2,0.4-1.9c0.2-1.2,1.4-2.6,0.4-4.6c1.5,0.2,1.4,2.9,1.5,4.6c0.2,2,0.2,4.4-0.4,5.8c-0.7-1-2.5-2.6-4.2-3.9
			c-1.8-1.2-3.6-6,1.2-5.8C51.1,184.9,51.5,186.5,50.3,187z M45.3,181.6c1.1,0.2,2,0.6,3.1,0.8c-0.2,1.8-2.4,1-3.1,1.5
			C44.6,183.8,45.8,182.6,45.3,181.6z M44.9,185.4c1,1.7,0.4,2.5,1.5,4.2c1.2,1.9,4.3,2.8,5,4.2c0.4,0.8,0.6,2.1,0.4,2.7
			c-0.4,1.4-2.4,2-4.2,1.5c-0.4-1-1-3.6,1.2-3.1c1,0.8-1.3,1.6,0,2.7c1.5,0,1.6-1.5,2.3-2.3c-0.2-2.7-4.8-3.1-5.4-0.4
			C45,192.3,44.9,188.9,44.9,185.4z M46.1,212.4c-0.5,0.8-1.1,1.5-1.5,2.3c-0.9,0.1-0.4-1.1-1.2-1.2c0-0.1,0-0.3,0-0.4
			c-1.3-1.3,1.2-2.1,1.2-3.5C45.8,209.7,47,211.6,46.1,212.4z M43,205.1c0,0.1,0,0.3,0,0.4c0.4,0.5,1.8,2.1,0.8,2.7
			c-0.4,1-0.6,2.2-1.9,2.3C40.1,208.9,40.8,205.7,43,205.1z M40.7,205.1c-0.3,0.3-0.2,1.1-0.8,1.2c-1.2-0.2-1.9-2.1-1.2-3.1
			c0.3-1,1.1-1.5,1.2-2.7C41.6,201.4,42.4,203.8,40.7,205.1z M38.8,180c1.1,0,0.9,1.8,0.4,2.3c-1.1,0.3-0.8-0.8-1.5-0.8
			C37.5,180.6,39.1,181.3,38.8,180z M35.3,178.5c0.1-0.7-0.4-1.9,0.8-1.5c0.7,1-1.8,2.1-0.4,3.9c-0.8-0.2-1.2-0.8-1.9-1.2
			C34.1,179.1,34.8,178.9,35.3,178.5z M36.5,182.3c0.2,0.1,0.3,0.7,0.4,0.8c0.8,0.4,0.9-0.1,1.5,0.8c0.6,0.7,1.1,1.2,0.8,2.7
			c-2.7-0.2-4.3-1.4-6.2-2.3c0-1.2-1.2-2-1.5-3.9c0.9-0.1,1.4,0.7,2.3,1.2C34.5,181.9,35.9,182,36.5,182.3z M31.4,175
			c0.3,0,0.5,0,0.8,0c-0.1,0.3,0.2,0.4,0.4,0.4c-0.4,1.2-1.4,1.8-0.8,3.1c-1.2,0.3-1.2-0.6-1.9-0.8C30.9,176.7,32.3,177,31.4,175z
			 M30.3,182.7c-0.4,0.1-2.6,4.4-2.7,1.9c-1.6-1.2,0.2-3.9,1.9-4.2C29.7,181.2,30.5,181.5,30.3,182.7z M28.7,173.1
			c0.3,1.2-1.1,0.7-0.8,1.9c-1.1-0.7-1.5-2.1-1.9-3.5C27.5,171.5,27.5,172.9,28.7,173.1z M26.1,175.4c1,0.7,2,1.4,1.9,3.1
			c-0.7,0.9-0.8,2.5-2.3,2.7c-0.2-0.8-1-1.1-0.8-2.3C24.9,177.4,26.2,177.1,26.1,175.4z M23.7,177.3c-0.5-0.8-1.5-1.1-1.5-2.3
			c0.7-0.8,1.2-1.8,1.5-3.1C26.6,172.5,24.5,176,23.7,177.3z M23,166.5c-3.6,1.2-6.3-1-9.3-1.5c0-2.7,0.8-4.6,1.2-6.9
			c4.7-0.2,9.4-0.4,10,3.5C25.2,163.3,24.3,164.9,23,166.5z M15.3,156.5c0.2-1.3-0.6-3.7,0.8-3.9c1.9-0.2,1.2,2.2,2.7,2.3
			c0.3,0.1,0.4,0.4,0.8,0.4c2.3-0.3,2.1-3,2.7-5c1.9-0.3,2.9,0.4,3.9,1.2C26.6,157.3,20.5,156.5,15.3,156.5z M28,160.4
			c-1.8-1-0.5-3.6-0.4-5.8c1.3,1,1.9,2.7,1.9,5C28.8,159.7,28.2,159.8,28,160.4z M75,168.5c3.1,0.5,4.6,2.5,6.9,3.9
			c-1.5,2.8-1.7,4.4-4.2,6.2c-1.6-0.4-3.1-1.5-4.6-2.3c-1.4-0.8-3.6-1-3.9-3.1C71.5,171.9,73.1,170,75,168.5z M78.1,216.3
			c-0.3-1.2-0.3-0.7,0-1.9c1.3-0.1,1.9,0.5,1.9,1.5C79.6,216.2,79,216.4,78.1,216.3z M88.9,200.1c1.3-0.3,1.4,1.3,0.8,1.9
			C88.3,202.3,88.3,200.7,88.9,200.1z M92.4,222.1c-1.1,0.1-2.1,0.1-1.9-1.2c0.5-0.3,1-0.5,1.9-0.4C92.4,221,92.4,221.6,92.4,222.1z
			 M96.2,210.5c-2.2,2.9-3.7,4.9-5.4,7.3c-1.3-0.8-1.4-2.7-2.3-3.9c-1.6-0.3-2.9-1-5-0.8c0.8-1.8,2.7-4,4.6-6.6
			c1.7-2.2,3.1-4.9,4.6-6.2c0.3-0.3,0.9-0.2,1.2-0.4c0.3-0.3,0.2-0.7,0.8-0.8c2.7-0.6,5.8,0.8,6.2,3.1
			C101.3,205,97.6,208.8,96.2,210.5z M102,205.1c0.4,0,0.8,0,1.2,0C103.8,207.9,100.5,206.9,102,205.1z M124,231.3
			c-1.3,1.1-3.5-0.3-3.9-1.5C121.5,230.2,122.4,231.1,124,231.3z M122.8,221.3c0.8,0.2,2.7-0.6,2.3,0.8c-1.6-0.1-2.5,0.6-3.9,0.8
			C121.4,221.9,122.5,222,122.8,221.3z M127.1,209c-1.4-0.5-2.9-1-3.1-2.7C125.3,206.9,126.6,207.5,127.1,209z M132.1,183.1
			c0.6,0.9,1.5,1.6,2.3,2.3C134,186.4,131,184.6,132.1,183.1z M148.3,120.6c-1.4,0-1.3-1.5-1.5-2.7c0.5,0,1,0,1.5,0
			C148.3,118.8,148.3,119.7,148.3,120.6z M147.5,115.6c-0.7-0.4-1.3-0.7-1.2-1.9c-0.1-0.6,0.4-0.7,0.4-1.2c1.3-0.3,1.6,0.4,2.3,0.8
			C149.4,115,148.4,115.3,147.5,115.6z M149.8,120.6c-0.6-1.3-1.6-4.2,0.8-4.2C150.4,117.8,152.1,120.6,149.8,120.6z M152.2,119.5
			c-0.8-1-0.5-4.1,0.4-4.6c0.4,0.3,0.6,0.7,0.8,1.2C153.3,117.3,153.8,121.1,152.2,119.5z M154.5,102.9c0,1,0.2,2.2-0.4,2.7
			C152.9,105.6,152.9,102.5,154.5,102.9z M155.6,119.9c-0.3-0.1-0.4-0.4-0.8-0.4c0.1-0.3-0.2-0.4-0.4-0.4c0-0.1,0-0.3,0-0.4
			c-0.8-1-0.6-4.4,0.4-5c0.5,0.1,0.3,1,0.4,1.5C156.1,116,155.4,118.4,155.6,119.9z M155.2,111c-1.1-0.2-1.8-0.8-1.9-1.9
			c0.1,0,0.3,0,0.4,0c-0.1-0.6,0.4-0.7,0.4-1.2C156,107.3,156.8,110.5,155.2,111z M156.4,104.4c-1.1,0-0.9-1.8-0.4-2.3
			C157.4,101.8,156.7,104.2,156.4,104.4z M156,97.5c0,1.2-0.5,1.8-0.8,2.7c-0.8-0.5-2.1-0.5-2.3-1.5C153.2,96.9,154.9,96.4,156,97.5
			z M151,113.3c-0.8-0.1-1.8-1.7-0.8-2.3C152.1,108.2,154.5,113.5,151,113.3z M152.2,104.4c0.2,1.5,0.2,1.2,0,2.7
			c-0.7,0.1-0.8-0.5-1.5-0.4C150.5,105.3,150.9,104.5,152.2,104.4z M149.8,99.4c3.4-0.9,3.4,3.6,0,2.7
			C149.4,101,149.4,100.5,149.8,99.4z M149.5,109.5c-1.1-0.3-1-3-0.8-3.5C150.6,105.8,150.6,108.7,149.5,109.5z M146.8,101.7
			c0.7,0.2,2.3-0.5,1.9,0.8c0.1,0,0.3,0,0.4,0c-0.5,1-0.4,2.4-2.3,1.9c-0.1-0.3-0.4-0.4-0.4-0.8C146,102.6,146.9,102.7,146.8,101.7z
			 M145.6,108.7c-0.1-0.4,0.1-0.7,0.4-0.8c0.1-0.7,0.7-0.9,1.5-0.8c0.5,0.5,0.4,1.7,0.4,2.7c0.1,0.3-0.2,0.4-0.4,0.4
			c-0.3,0.6-0.6,1.2-1.5,1.2C145.4,110.9,145.6,109.7,145.6,108.7z M147.9,144.9c0,4.9,0,9.8,0,14.7c-0.7,1.1-1.4,3.4,0.4,3.9
			c-0.5,0.8-0.6,2-1.9,1.9c0-1.7,0-3.3,0-5c0-5.4-0.3-10.5,0-15.8c-0.6-0.5-0.6-3.7,0-4.2c0.8,0.1,0.2-1.4,0.4-1.9
			c-0.6-0.5-0.6-3.7,0-4.2c0.6-1.7,2.1,0.2,1.5,1.9C148.5,139.4,147.6,141.6,147.9,144.9z M152.9,133.4c-0.7,1.8-1.2,3.9-3.1,4.6
			c0-1.7,0-3.3,0-5c1.2,0.1,1.3-1,2.7-0.8C152.5,132.8,152.5,133.3,152.9,133.4z M150.2,141.9c-0.7,0.2-0.3-1.2,0-1.5
			c0.1-0.1,0.7,0.1,0.8,0c0.3-0.6,0.4-1.6,0.8-2.3c0.4-0.7,1.4-1,1.2-1.9c1.7,0,2.9,0.5,3.1,1.9C154,139.2,152,140.4,150.2,141.9z
			 M155.2,135.3c0.4-0.7,1.4-1,1.9-0.4C157.1,135.9,155.7,135.8,155.2,135.3z M149.5,125.3c-0.6,1.8,1.3,3.7-0.4,4.2
			c0,0.1,0,0.3,0,0.4c-0.8,0.2-1-0.3-1.5-0.4c0-1.2,0.9-2.5,0-3.5C147.1,124.7,148.7,125.4,149.5,125.3z M128.2,123
			c-1-0.3-1-1.6-1.5-2.3c0.1-1.4-0.7-1.9-0.8-3.1c1.6,1,2,3.1,3.9,3.9C130.2,123,128.6,124.5,128.2,123z M130.9,125.7
			c-3.4-3,4.3-3.6,1.2,0C132,126.1,131,126.2,130.9,125.7z M134.8,128.7c-1.2,0.2-1.5-0.5-2.3-0.8c-0.7-1.3,1.9-2.1,1.5-4.2
			C136.8,124.2,133.3,127.1,134.8,128.7z M139,131.1c-2.3-0.5-3.7-2-3.5-5c0.1,0,0.3,0,0.4,0c0.3-1.1,1.5-1.3,3.1-1.2
			c0.8,1.5,0.2,3.1-0.8,3.9C137.9,130.2,139.2,129.8,139,131.1z M139.4,129.5c-0.3-1.1,0.8-0.8,0.8-1.5c0.7-0.6,0.1-2.5,0.8-3.1
			c0.7,0,0.8,0.5,1.5,0.4c-0.4,1.7-1.4,3.6,0,5c0.3,0.3,0.2,1.1,0.8,1.2C141.7,132.6,140.6,130,139.4,129.5z M143.7,130.3
			c-0.3-0.1-0.4-0.4-0.8-0.4c-0.2-2.3,0.1-4,1.5-4.6c1.5,0.1,3.3,1.8,2.3,3.1c-1.2,1.5,0.6,2.8,2.7,2.3c0.5-0.7,1.8-0.5,1.9-1.5
			c0-1.3-1.3-1.3-1.2-2.7c0.8-1.9,3.6-2.5,4.6-0.4c0.2,1.5-0.3,2.2-0.8,3.1c1.4,0.8,4,2.7,1.9,4.6c-1.9,0-2.2-1.7-3.1-2.7
			c-1.7,0-2.3,1.1-3.9,1.2C146.4,132.4,144.7,131.7,143.7,130.3z M51.9,168.5c1.4-0.5,2.7-1.7,4.2-1.5c1.8,0.2,2.2,1.5,3.5,2.7
			c1,1,2.6,1.7,2.7,3.1c0.3,1.1-1.1,0.9-1.5,1.2c-0.5,0.3-1,0.9-1.5,1.2c-1.1,0.6-2.4,1-3.5,1.5c-3.5-1-4.9-4.1-7.3-6.2
			C48.4,168.6,50.7,168.9,51.9,168.5z M40.3,160c1.5,0.4,1.7,2.2,2.3,3.5c0.7,1.3,1.3,2.6,1.9,3.9c-1.7,1.7-5.4,1.5-8.5,1.9
			c-1.5-2.2-2.4-5.1-3.5-7.7C34.6,160.5,37.8,160.5,40.3,160z M35.3,151.5c0.6-1.6,1.6-2.7,2.3-4.2c1.2-2.5,1.4-5.2,2.7-7.7
			c-0.3-2.2,0.4-3.4,0.4-5.4c1.1-0.3-0.3,1.8,0.8,1.5c0.2,1.9-0.1,3.7-0.4,5.4c-0.2,1.6-0.3,3.3-0.8,4.6c-0.1,0.2-0.7,0.6-0.8,0.8
			c-0.3,1.1-0.5,1.8-1.2,2.7C37.7,150.2,37.8,152,35.3,151.5z M39.5,150.3c0.6-2.9,1.7-5.2,2.3-8.1c-0.1-0.6,0.4-0.7,0.4-1.2
			c1,0.4,1.1,3.8,0.4,4.6C42.2,147.9,42.3,150.5,39.5,150.3z M43,149.6c-0.1-0.9,0.1-1.5,0.4-1.9c0.3-0.9,0.3-2,0.8-2.7
			c1,0,0.8,1.3,0.8,2.3C44.4,148.1,44.5,149.7,43,149.6z M46.1,152.3c-0.6-0.4-1.4-0.8-1.2-1.5c1.1-0.1,1.6-0.7,2.7-0.8
			c2.1,0.6,2,3.4,3.5,4.6C50,154.8,47.4,153.3,46.1,152.3z M87,156.5c-3,1-6.4,1.9-9.6,2.3c-1.7,0.2-3.5,0.4-5,0.4
			c-1.1,0-2-0.7-3.1-0.8c-2.3-0.2-4.7,0.2-6.6,0c1.6-0.7,3.5-1.8,5.8-2.3c0.9-0.2,1.9-0.1,2.7-0.4c2.3-0.8,4.5-2.3,6.9-3.5
			c0.7-0.3,1.6-0.4,2.3-0.8c1.4-0.8,2.5-1.8,3.9-2.7c1.3-0.9,2.8-1.6,3.9-2.7c0.4,0,0.8,0,1.2,0c0.5,1.4,1.7,2.5,2.7,3.5
			s2,1.9,3.1,2.7C93,154.2,90,155.5,87,156.5z M112.4,191.6c-0.7,0.2-1.5,0.3-2.3,0.4c-0.5-2.1-0.9-4.2-1.9-5.8
			c-2.3,0.4-3.3,2.1-5.8,2.3c-0.4-2-1.3-3.5-1.5-5.8c-2.8,0.2-4.2,1.7-6.6,2.3c0-1.9-1-4.5-0.4-6.6c0.3-0.1,0.4-0.4,0.8-0.4
			c4.4,1.7,8.8,3.6,13.1,5.4c0.8,0.3,1.7,0.7,2.7,1.2c0.4,0.2,1,0.1,1.5,0.4c0.4,0.2,0.7,0.9,1.2,1.2c1.1,0.6,3.2,0.5,3.9,1.9
			C116.6,190.6,113.7,191.3,112.4,191.6z M119.8,212.4c1,0.5,1.9,1.2,2.3,2.3c-2.3,0.3-3.2,2-5,2.7c0.1-1.8,2.2-1.7,2.7-3.1
			c-0.4-1.7-2.5-2.4-1.5-4.2C119,210.6,119.5,211.4,119.8,212.4z M127.1,188.9c0.6,0.9,1.4,1.7,2.3,2.3c-2,0.8-4.4,1.2-6.6,1.9
			c0.5-1.7,2.9-1.5,3.9-2.7c-0.5-1.5-1.7-2.2-1.5-4.2C126.5,186.4,126.1,188.3,127.1,188.9z M124,172.3c-0.4,0.9-1.2,1.7-1.5,2.7
			c-0.1,0.3-0.4,0.9-0.4,1.2c0,0.1,0.5,0.4,0.4,0.8c-0.2,0.9-1.1,1.8-1.5,2.7s-0.4,2-1.2,2.7c-1.2,0.3-2-0.7-3.1-1.2
			c-1.4-0.5-2.7-0.8-3.9-1.5c-0.3-0.2-1.4-1-1.9-1.2c-0.9-0.3-2.4-0.4-3.5-0.8c-0.4-0.1-0.5-0.7-0.8-0.8s-0.8,0.1-1.2,0
			c-2.7-1-5.2-2.2-7.7-3.5c0.4-1.8,2-2.8,3.1-4.2c0.5-0.7,0.6-1.6,1.2-2.3c0.3-0.3,0.9-0.4,1.2-0.8c0.2-0.3,0.1-0.8,0.4-1.2
			c0.2-0.3,0.9-0.4,1.2-0.8c0.3-0.4,0.1-0.8,0.4-1.2c0.5-0.6,1.1-1.3,1.5-1.9c1.3-1.8,1.9-3.4,3.9-4.2c0.9,0.1,1.6,0.5,2.3,0.8
			c0.6,0.2,0,0.4-0.4,0.4c-1.1-0.4-3.7,0.9-3.9,2.7c-0.1,2,2.3,1.4,3.5,1.2c0.3-0.1,0.4,0.4,0.4,0.4c2.2-0.4,4-3.2,6.2-3.5
			c-1.6,1.9-3.2,3.7-5.4,5c-2.6,0.2-7,1.3-8.1,4.2c0.5,0.8,0.5,2.1,1.5,2.3c2.5-0.6,3.7-2.4,5.4-3.9c1.7,0.2-0.5,1.2-0.8,1.5
			c-0.3,0.4-0.5,0.8-0.8,1.2c-1,1.3-4.7,6.5-1.2,8.1c2.9-0.3,3-3.9,3.9-6.2c0.9-2.6,2-4.9,3.1-6.9c0.8,3.1-2.8,9.3,1.9,10.4
			c3.9-1.8,0.1-6,0-9.3c-0.1-2.6,1.1-4,1.9-6.2c1.8,2.1-1.3,9.6,1.9,11.2c1.8,0.4,1.9-0.9,2.7-1.5c0.4-2.1-0.5-3.8-1.2-5.8
			s-1.8-3.9-1.5-5.4c0.2-1,0.7-1.2,1.5-1.9c0.4-0.3,1-1.2,1.5-0.8c-0.1,3.1-1.2,7,0.8,8.9c1.2,0.2,1.8-0.3,2.7-0.4
			C127,166.4,125.6,169.1,124,172.3z M129.8,176.9c-0.7-1.2,0.3-3.1,1.9-4.2c0.4-0.3,1-0.1,1.5-0.4c0.5-0.3,0.4-0.6,1.2-0.8
			c1.2-0.3,4.3-1.4,3.9,1.5c-1.1,0.6-2.3-0.3-3.9,0.4C132.4,174.2,132.6,177,129.8,176.9z M135.2,176.9c0.4-2.1,4.4-1.1,4.2,0.8
			C137.7,177.7,136.2,177.6,135.2,176.9z M141.7,150.3c1-0.3,0.8,0.8,1.5,0.8c0,2.1-0.2,3.9-1.2,5
			C140.7,155.5,141.4,151.6,141.7,150.3z M140.6,158.8c1.4-1.7,3.6-2.6,3.5-5.8c1.9,1.5,1.4,7.3,0,8.9c-0.3,1.2,1.3,0.5,1.2,1.5
			c0.6,3.6-1.6,4.4-2.3,6.6c0,1.6,1.4,2,1.9,3.1c0.6,0.4-0.2,1.2,0,1.9c0.2,0.9,0.8,0.9,0.8,1.9c0,1.4-0.5,2.7-1.2,3.9
			c-0.9-0.6-1.9-1.6-2.7-2.7c-0.4-0.5-0.4-1.4-0.8-1.9c-0.4-0.6-1.3-1.3-1.5-2.3C138.4,169.2,140.5,163.4,140.6,158.8z M137.9,160.4
			c0.3-0.6,0.8-1.6,1.5-1.5c-0.8,2.9-1.3,6.1-1.2,10c-0.9,1.1-4.4-0.5-4.6,1.2c-1-1.4,2.2-1.9,3.5-2.3
			C137.1,164.9,136.8,162.3,137.9,160.4z M134,154.2c-1,3.3-3.2,5.3-4.6,8.1c-0.5-3.3-4.2-7.8-0.8-10.4
			C131.4,151.7,131.9,153.7,134,154.2z M113.6,113.3c0.9,6.6,1.8,14.8,3.1,21.6c0.3,1.5,1.1,3.6,1.2,5c0,0.8-0.5,1.1-0.4,1.5
			c0.3,1.4,1.3,2.5,1.2,3.9c0.4,0.3,1.1,1.6,1.9,2.7c0,0,0,0,0.1,0c0.3,0.3,0.6,0.7,0.9,1c0.1,0.1,0.2,0.1,0.2,0.2
			c2.5,1.1,5.2,0.2,6.6-1.9c1.6-2.4,0.3-6.1-1.5-7.3c-2.4-0.4-5.7,0.8-5.8,3.1c-0.1,2,3,4.6,5,1.9c0-0.6,0.2-1.5-0.4-1.5
			c-0.7,0.1-0.2,1.3-0.8,1.5c-0.5,0-1,0-1.5,0c-0.3-0.1-0.4-0.4-0.8-0.4c0.2-0.7-1.1-1.6,0-1.9c0.4-2.9,6-1.6,5.4,1.2
			c0.6,1.9-0.9,4.2-2.3,4.6c-3.7,1-6.8-3-5.8-6.6c0.5-1.7,2.6-3.5,5-3.9c3.5-0.2,5.9,1.5,5.8,3.9c1.9,5.5-1.8,11-8.9,10
			c-2.1-1.5-3-2.7-4.2-5.8c-0.5-1.3-1.6-3.2-1.5-4.6c0-0.3,0.4-0.6,0.4-1.2c-0.1-0.9-0.6-2.1-0.8-3.1c-1.4-6.9-2-15.9-3.1-23.5
			c0.2-2-0.3-3.3-0.4-5C113.9,108.9,113.3,111.5,113.6,113.3z M109.7,107.5c1.1-0.1,1.1,0.9,1.2,1.9c0.5,1.1,0.4,2.7,0.4,4.2
			c0.9,0.5,0.1,2.7,0.4,3.9c0.7,3.1,0.9,5.8,1.2,9.6c0.4,6.1,2.2,12.1,2.7,17.7c1.9,3.8,3.4,7.9,8.5,8.5c-0.6,0.6-1.5,0.8-2.7,0.8
			c-1-0.2-1.8-0.5-2.3-1.2c-1.4-0.8-2.4-2-3.1-3.5c-0.9-2-2.2-4.1-2.7-6.6c-0.2-1,0.1-2.1,0-3.1c-0.2-2.1-0.8-4.3-1.2-6.6
			c-0.6-4.3-1.1-9.2-1.5-13.9c-0.3-3-0.3-5.9-0.8-8.5C109.7,109.8,109.7,108.7,109.7,107.5z M107,106.8c2.1,0.2,1.4,2.7,1.5,3.9
			c1.1,7.4,1.2,15.7,2.3,23.1c0.3,2.2,1,4.1,1.2,6.6c0.1,1.5,0.8,4,1.5,6.2c0.5,1.5,1.1,3.2,1.5,4.6c1.4,1,1.9,3,3.9,3.5
			c-0.4,1.1-1.6-0.1-2.3,0c-3.4-2.1-5-6.5-5.8-12c0-0.4-0.4-0.6-0.4-1.2c0-0.6,0.4-0.7,0.4-1.2c-0.2-1.8-0.9-3.5-1.2-5.4
			c-0.3-1.7-0.5-3.6-0.8-5.4c-0.6-3.9-0.8-7.7-1.2-11.6C107.5,114.1,106.5,110.3,107,106.8z M105.5,107.9c0.7,2.1,0.8,4.8,0.8,7.7
			c0.9,0.8,0.1,3.2,0.4,4.6c1.6,9.5,2.2,19.1,4.2,27.4c0.7,1.1,1.1,2.5,1.5,3.9c0.1,0.5,0.7,0.6,0.8,1.2c0.5,1.2,1.3,2.1,2.3,2.7
			c-1.1,1-2.6-0.7-3.1-1.5c-1.8-2.7-3.4-6.5-4.2-10.4c-0.5-2.1-0.1-3-0.4-5.8c-0.2-2.1-0.9-4-1.2-6.2c-0.7-6.2-1.3-13.9-1.9-20.8
			c0-1.7,0.1-3.5-0.4-4.6C105,106.3,105.7,106.7,105.5,107.9z M102,106c0.3-1.9,1.7,1.6,1.9,2.7c0.3,1.8-0.3,4.2,0,5.8
			c0.8,2.6,0.2,6.5,0.8,9.3c0.6,2,0.8,6,1.2,8.9c0.3,2.5,1,4.8,1.2,6.9c0.1,0.8-0.5,1.1-0.4,1.5c0.6,3.8,2.4,7.2,3.1,10.8
			c0.6,1.3,1.9,2,2.3,3.5c-1.8,0.2-1.8-1.3-2.7-1.9c0-0.1,0-0.3,0-0.4c-2.2-2.8-3.1-6.8-3.9-11.2c0-0.3-0.4-0.4-0.4-0.8
			c0.4-3.6-1-10-1.5-15s-0.2-10.2-1.2-15c0-1.3,0-2.6,0-3.9C102.6,106.6,100.9,106.2,102,106z M99.7,104.8c1-0.4,1,1.3,1.5,1.9
			c0.4,0.4,0.5,2.1,0.4,3.9c0.9,1.5,0.1,4.7,0.4,6.9c0,0.5,0,1,0,1.5c0.6,2.2,0.8,4.9,0.8,7.7c0.5,3.6,1.1,7.1,1.2,11.2
			c0.9,0.8,0.1,3.2,0.4,4.6c0.5,2,1.3,3.8,1.5,6.2c1.4,1.8,2.2,4.2,3.1,6.5c-1.4-0.3-1.9-1.4-2.7-2.3c-1.2-0.8-1.3-3.3-1.9-5.4
			c-0.5-1.6-1.3-3.4-1.5-5c-0.3-1.7-0.2-3.8-0.4-5.8c-0.5-4.3-0.8-9.1-1.2-14.7c-0.2-3.8-0.4-7.7-0.8-11.2
			C100.3,108.8,99.5,106.8,99.7,104.8z M97.4,104.4c0.9-0.3,0.9,0.9,1.2,1.5c0.6,1.3,0.7,3.2,1.2,5.4c0,1.3,0,2.6,0,3.9
			c0,0.9,0,1.8,0,2.7c0.9,0.7,0.1,2.9,0.4,4.2c0,0.3,0,0.5,0,0.8c0.9,1.2,0.1,4,0.4,5.8c1.2,7.9,1,14.8,3.1,21.6c0.1,0,0.3,0,0.4,0
			c0.1,1.8,1.1,2.8,1.9,3.9c-1.5,0.9-2.3-2.3-3.1-3.5c-1.3-1-1.2-2.8-1.6-4.2s-1-2.8-1.2-4.2c-0.1-0.7,0.4-1.2,0.4-1.9
			c0-1.1-0.6-2.5-0.8-3.9c-0.8-5.7-1-12.6-1.5-19.3c0-1.4,0-2.8,0-4.2c-0.3-1.4-0.2-2.9-0.4-4.2C97.5,107.1,96.3,105.7,97.4,104.4z
			 M94.7,103.7c3.6,3.5,2,12.1,3.1,18.1c0,1.5,0,3.1,0,4.6c0.1,0.7,0.3,0.8,0.4,1.5c0.6,7.9,0.8,15.1,2.7,22c0.8,1,0.9,2.7,1.9,3.5
			c-1.2,0.8-2.5-2.8-3.1-4.2c-0.8-1.4-1.5-3.2-1.9-5.4c-0.3-1.5,0-2.3,0-3.9c0-1.6-0.5-3.6-0.8-5.4c-0.4-3.4-1-7.1-0.8-11.6
			c-0.9-0.5-0.1-2.7-0.4-3.9c0-1.3,0-2.6,0-3.9c-0.4-1.6-0.1-3.9-0.4-6.2C95.2,107.1,94,105.1,94.7,103.7z M92,103.3
			c1.5,0,1.4,1.7,1.5,3.1c0,0.1,0,0.3,0,0.4c1.5-0.3,0.5,1.8,0.8,2.7c0.9,0.5,0.1,2.7,0.4,3.9c0.4,1.4-0.2,2.5,0.4,3.5
			c0,1.4,0,2.8,0,4.2c-0.1,1.2,0.7,1.6,0.4,3.1c0,1.3,0,2.6,0,3.9c-0.3,1.9,0.7,2.7,0.4,4.6c0.9,0.5,0.1,2.7,0.4,3.9
			c0,0.3,0,0.5,0,0.8c0.9,0.7,0.1,2.9,0.4,4.2c0.6,1.2,0.3,3.3,0.8,4.6c0.8,2.4,1.8,4.7,2.7,6.9c-1.6-1.2-2.8-2.9-3.1-5.4
			c-1.5-2.3-1.6-5.5-1.9-8.5c-0.4-3.5-0.7-6.9-1.2-10.8c0-1.3,0-2.6,0-3.9c0-0.1,0-0.3,0-0.4c-0.9-0.7-0.1-2.9-0.4-4.2
			c0-0.6,0-1.3,0-1.9c0-1.3,0-2.6,0-3.9c-0.7-2.8-0.3-6.7-1.5-8.9C92,104.6,92,103.9,92,103.3z M89.3,102.9c1.9-0.1,1.7,1.9,1.9,3.5
			c1.1,0.7,0.7,2.9,0.8,4.6c0.9,0.5,0.1,2.7,0.4,3.9c0.1,3.4,0.6,6.3,0.4,10c0.9,0.5,0.1,2.7,0.4,3.9c0.6,4.7,1.1,10.1,1.2,14.3
			c0.8,2.7,1.4,5.6,2.3,8.1c-1.6-1.5-2.3-3.9-2.7-6.6c-1.1-2.3-0.8-5-1.2-7.7c-0.5-3.9-1.3-8.1-1.5-12.7c-0.1-2-0.3-4-0.4-5.8
			c-0.3-5.1,0-10.4-1.5-14.3C89.3,103.7,89.3,103.3,89.3,102.9z M87,102.5c1.6,0,1.3,2.1,1.5,3.5c1.2,1.5,1.2,4.2,1.2,6.9
			c0.9,1.3,0.1,4.2,0.4,6.2c-0.1,0.9,0.1,1.5,0.4,1.9c0,1.4,0,2.8,0,4.2c0,0.4,0,0.8,0,1.2c0.9,0.5,0.1,2.7,0.4,3.9
			c0.4,3.8,1.7,8.1,1.2,11.6c1,2.3,1.2,5.3,1.9,7.7c-1.7-0.9-1.8-3.4-2.3-5.4c-1-2-1-6.6-1.5-10c-0.5-3.1-0.9-5.7-1.2-8.9
			c0-1.7,0-3.3,0-5c0.3-1.2-0.4-1.4-0.4-2.3c0-1.3,0-2.6,0-3.9C88.5,110,86.6,105.7,87,102.5z M84.7,101.7c1.9,2.1,1.8,6.1,2.7,9.3
			c0,1.4,0,2.8,0,4.2c0,0.3,0,0.5,0,0.8c0.9,0.9,0.1,3.5,0.4,5c0.1,7.2,1.3,13.3,2.3,19.7c-0.4,0-0.3,0.5-0.4,0.8
			c0.6,1.3,0.8,3,1.2,4.6c-0.9-0.6-1-2.1-1.5-3.1c-0.7-1-0.6-2.5-0.8-3.9c-0.4-2.6-0.7-5.5-1.2-8.9c-0.3-2.6-1.1-5.9-0.8-9.6
			c-0.9-0.5-0.1-2.7-0.4-3.9c-0.2-2.4-0.1-4.7-0.4-6.9C85.4,106.9,83.9,104.4,84.7,101.7z M40.3,101.4c7.8-1.2,17.7-2.4,25.1-1.9
			c5.9,0.3,11.9,0.9,17.4,1.9c1,0.9,0.5,2.2,0.8,3.5c0.5,1.9,1.2,3.7,1.5,6.6s0.2,6.6,0.4,10.4c0.4,8.2,1.9,16,3.1,22
			c-0.4,1.5-2.2,2.5-3.5,3.5c-2.6,1.9-5.6,3.4-8.9,5c-1.6,0.8-3,1.8-4.6,2.3c-0.9,0.3-2.6,0.3-4.2,0.8c-2.4,0.7-4.6,2.2-8.5,1.9
			c-1-0.1-3-0.2-3.5-0.4c-2.3-0.9-3.8-4.6-5.8-7.3c-0.7-1-1.6-1.6-2.3-2.7c-0.6-1-1.4-2.4-2.3-3.9c-0.1-0.2-0.7-0.6-0.8-0.8
			c-0.3-0.6-0.1-1.5-0.4-2.3c-0.6-2.1-1.7-4.5-1.9-7.3c-0.3-3.8-0.1-8-0.4-12c1.3-0.5,3.4,0.6,5.4,0.4c2.1-0.2,4-1,4.6-2.7
			c-1-3.1-6.3-3.8-9.6-2.3c0.5-2.2-1-3.9,0-5.4c1.5-2.7,8,1.3,8.5-2.7c-1.1-1.1-4.6,0.3-5.8-0.8c-1.5-0.2-2.4,1.3-3.5,0.4
			C40.6,105.9,40,102.6,40.3,101.4z M42.2,117.2c1.3-0.1,0.8,1.5,1.9,1.5c2.1,0.3,1.3-2.3,3.1-2.3c0,0.9,0,1.8,0,2.7
			C46,120.8,41.9,120.3,42.2,117.2z M47.6,119.5c0.3-0.7,0.6-1.4,0.8-2.3c1.2-0.3,1.2,0.6,1.9,0.8C50.3,119.3,49.2,119.6,47.6,119.5
			z"/>
		<path fill="#171717" d="M87.4,91.7c1.7-1.3,1-4.5,1.9-6.9c0.4-1,1.8-3.6,3.4-4.6h-2.1c0,1.3-1.5,2.4-2.1,3.9
			c-0.8,2.1-0.6,4.5-1.5,6.6c-5.3-0.7-9.4-0.5-14.7-1.5c-0.3-2.8-1.3-6.3-1.2-8.9h-1.6c1,2.8,1.6,6,1.7,9.6
			C75.9,91.1,82.2,90.9,87.4,91.7z"/>
		<path fill="#171717" d="M42.6,80.5c1.3,2.5,1.9,5.8,4.2,7.3c3.3-0.7,6.9-1.1,10.8-1.2c1.7-1.2,1.7-5.1,3.1-6.6h-1.3
			c-0.7,1.9-1,4-2.2,5.4c-3.3,0.5-7,0.7-10.4,1.2c-1.2-1.9-1.9-4.2-3.1-6.2c0.1-0.1,0.1-0.3,0.2-0.4h-1.5
			C42.6,80.3,42.6,80.4,42.6,80.5z"/>
		<path fill="#171717" d="M85.1,87.9c1.2-1,0.6-2.8,1.2-4.2c0.4-1.1,1.3-2.5,1.9-3.1c0.1-0.1,0.2-0.2,0.2-0.4h-1.5
			c-0.8,2.2-1.8,4-2.2,6.6c-3.3,0.1-6.2-0.3-8.9-0.8c-0.5-1.9-1.2-3.5-1.2-5.8h-1.4c1.3,1.6,0.6,5.3,1.8,6.9
			C78.8,86.9,81.4,88,85.1,87.9z"/>
		<line fill="none" x1="128.6" y1="80.1" x2="121.7" y2="80.1"/>
		<path fill="#F7CC00" d="M145.6,87.1c-0.9,0.2-1.8,2.3-0.8,3.1c0.8,1.2,1.8,2.3,4.2,1.9c0,0.1,0,0.3,0,0.4c1.7-0.4,3.7-0.4,5.4-0.8
			c0.3,0.8,1.4,0.9,2.7,0.8c0.1-0.2,0.3-0.3,0.5-0.4v-1.6c-0.1-0.2-0.2-0.4-0.1-0.8c0-0.6,0-1.3,0-1.9c0-0.2,0-0.3,0.1-0.4V86
			C153.8,84.8,148.3,84.9,145.6,87.1z M148.3,90.6c0.9,2.8-3.5-1.7-0.8-2.7c0.3-0.2,0.6-0.4,1.2-0.4
			C148.4,88.4,148.1,89.2,148.3,90.6z M152.2,89.8c-1.9-0.2-0.9-2.5-0.4-3.5C153.2,86.6,151.7,88.2,152.2,89.8z M156,86.7
			c0.3,0,0.6,1.5-0.4,0.4c0.6,0.5,1.2,1.9,0.4,2.7c0.9,0-0.1,1.1-0.8,0.8C154.5,88.5,154.4,86.9,156,86.7z"/>
		<path fill="#F7CC00" d="M128.6,126.4c0.7-0.4-1-1.6-1.2-2.3c0.3-1.1-0.8-0.8-0.8-1.5c-0.3-0.1-0.4-0.4-0.8-0.4
			C126.7,123.7,127.6,125.1,128.6,126.4z"/>
		<path fill="#F7CC00" d="M132.9,130.3c-1.3-0.9-2.1-2.2-3.5-3.1C130.5,128.3,131.1,129.9,132.9,130.3z"/>
		<path fill="#F7CC00" d="M154.5,92.5c-0.3,0.1-0.8,0-0.8,0.4c0.8,0.1,0.8,1,1.5,1.2c0,0.1,0,0.3,0,0.4c0.9-0.3,1.8,0.6,2.4,0.7
			v-1.4C156.6,93.3,154.8,93.6,154.5,92.5z"/>
		<path fill="#F7CC00" d="M155.2,100.2c0.3-0.9,0.8-1.5,0.8-2.7c-1.1-1.1-2.8-0.6-3.1,1.2C153.1,99.7,154.4,99.7,155.2,100.2z"/>
		<path fill="#F7CC00" d="M146.4,103.7c0,0.4,0.3,0.5,0.4,0.8c1.9,0.5,1.9-1,2.3-1.9c-0.1,0-0.3,0-0.4,0
			C147.5,101.4,146.8,102.9,146.4,103.7z"/>
		<path fill="#F7CC00" d="M88.5,117.9c0,0.9,0.7,1.1,0.4,2.3c0.6,0.8,0.6,4.2,0,5c0.3,3.2,0.7,5.8,1.2,8.9c0.5,3.4,0.6,8.1,1.5,10
			c0.4,0.1,0.4,0.6,0.4,1.2c1.2-0.8-0.4-2.2,0-3.5c0.6-3.5-0.8-7.8-1.2-11.6c-0.9-0.5-0.1-2.7-0.4-3.9c0-0.4,0-0.8,0-1.2
			c-0.6-0.5-0.6-3.7,0-4.2c-0.3-0.4-0.5-1-0.4-1.9c-0.9-1.3-0.1-4.2-0.4-6.2c0-2.7,0-5.4-1.2-6.9c-0.3-1.4,0.1-3.4-1.5-3.5
			c-0.4,3.2,1.6,7.4,1.5,11.6C89.2,114.5,89.2,117.5,88.5,117.9z"/>
		<path fill="#F7CC00" d="M95.9,115.2c0.9,0.5,0.1,2.7,0.4,3.9c0,1.3,0,2.6,0,3.9c-0.2,4.5,0.3,8.2,0.8,11.6
			c0.2,1.8,0.8,3.8,0.8,5.4c0,1.6-0.3,2.4,0,3.9c0.4,2.2,1.2,4,1.9,5.4c0.5-0.1,0.8,2,1.2,0.8c-1.9-6.9-2.1-14.1-2.7-22
			c-0.1-0.7-0.3-0.9-0.4-1.5c-0.6-0.7-0.6-4,0-4.6c-1.1-6,0.5-14.6-3.1-18.1c-0.7,1.5,0.5,3.4,0.8,5.4
			C95.8,111.3,95.4,113.6,95.9,115.2z"/>
		<path fill="#F7CC00" d="M152.2,107.1c0.2-1.5,0.2-1.2,0-2.7c-1.2,0.1-1.7,0.9-1.5,2.3C151.3,106.7,151.5,107.2,152.2,107.1z"/>
		<path fill="#F7CC00" d="M101.2,122.2c0.3,5.6,0.7,10.3,1.2,14.7c0.2,2,0.1,4.1,0.4,5.8c0.2,1.7,1.1,3.4,1.5,5
			c0.6,2.1,0.7,4.6,1.9,5.4c0.9,0.3,1,1.3,1.9,1.5c-0.5-2.2-1.7-3.7-2.3-5.8c-0.2-2.4-1-4.2-1.5-6.2c-0.9-0.8-0.1-3.2-0.4-4.6
			c-0.1-4-0.6-7.6-1.2-11.2c-0.6-2.2-0.8-4.9-0.8-7.7c0-0.5,0-1,0-1.5c-0.9-1.5-0.1-4.7-0.4-6.9c0.1-1.7,0-3.4-0.4-3.9
			c-0.6-0.6-0.6-2.3-1.5-1.9c-0.2,2,0.5,4,0.8,6.2C100.8,114.5,101,118.4,101.2,122.2z"/>
		<path fill="#F7CC00" d="M102.4,107.1c0.6,0.4,0.6,3.4,0,3.9c1,4.9,0.7,10.1,1.2,15c0.5,5,2,11.4,1.5,15c0,0.4,0.3,0.5,0.4,0.8
			c0.7,4.4,1.7,8.4,3.9,11.2c0.4,0,0.5,0.3,0.8,0.4c0.1-0.7-0.4-0.8-0.4-1.5c-0.7-3.6-2.5-7-3.1-10.8c-0.1-0.5,0.4-0.8,0.4-1.5
			c-0.2-2.2-0.8-4.4-1.2-6.9c-0.4-2.9-0.6-6.9-1.2-8.9c-1.1-2.2-0.7-6-0.8-9.3c-0.3-1.6,0.3-4,0-5.8c-0.2-1.1-1.6-4.6-1.9-2.7
			C100.9,106.2,102.6,106.6,102.4,107.1z"/>
		<path fill="#F7CC00" d="M157.2,106c0,1-0.2,2.3,0.5,2.6v-2.7C157.5,105.9,157.3,105.9,157.2,106z"/>
		<path fill="#F7CC00" d="M109,129.5c0.3,1.8,0.5,3.7,0.8,5.4c0.3,1.9,0.9,3.6,1.2,5.4c0.1,0.4-0.4,0.6-0.4,1.2
			c0,0.6,0.3,0.8,0.4,1.2c0.8,5.4,2.4,9.8,5.8,12c0.8-1.1-1.3-2.1-1.5-3.5c-0.4-1.5-1-3.1-1.5-4.6c-0.7-2.2-1.4-4.7-1.5-6.2
			c-0.2-2.5-0.8-4.4-1.2-6.6c-1.1-7.5-1.2-15.8-2.3-23.1c-0.2-1.2,0.6-3.6-1.5-3.9c-0.5,3.5,0.4,7.4,0.8,11.2
			C108.2,121.8,108.4,125.6,109,129.5z"/>
		<path fill="#F7CC00" d="M104.7,110.6c0.7,6.9,1.2,14.7,1.9,20.8c0.3,2.2,0.9,4.1,1.2,6.2c0.3,2.8-0.1,3.7,0.4,5.8
			c0.9,3.9,2.5,7.7,4.2,10.4c1.2-0.3,0.8,1,1.5,1.2c1-0.3-2-1.8-0.8-2.3c-0.1-0.6-0.6-0.6-0.8-1.2c-0.9-0.9-1.4-2.2-1.5-3.9
			c-2-8.2-2.7-17.9-4.2-27.4c-0.9-0.8-0.1-3.2-0.4-4.6c0-2.9,0-5.6-0.8-7.7C104.4,108,105.8,110.6,104.7,110.6z"/>
		<path fill="#F7CC00" d="M154.5,108.3c-0.4,0.1-0.3,0.8-0.8,0.8c-0.1,0-0.3,0-0.4,0c0.2,1.1,0.8,1.8,1.9,1.9
			C155.8,110.4,156,107.9,154.5,108.3z"/>
		<path fill="#F7CC00" d="M112,133.4c0.3,2.3,1,4.5,1.2,6.6c0.1,1-0.2,2.1,0,3.1c0.5,2.5,1.8,4.5,2.7,6.6c1.1,1.1,2.1,2.3,3.1,3.5
			c0.5,0.6,1.3,1,2.3,1.2c-0.1-1.5,0.3-0.1,1.2-0.4c-3.6-1.6-5.9-4.7-6.9-8.9c-0.5-5.7-2.3-11.7-2.7-17.7c-0.3-3.8-0.4-6.6-1.2-9.6
			c-0.9-0.5-0.2-2.7-0.4-3.9c0-1.6,0.1-3.2-0.4-4.2c-1.2-2.5-0.3,0.7-1.2,1.5c0.5,2.6,0.5,5.5,0.8,8.5
			C110.9,124.2,111.4,129.1,112,133.4z"/>
		<path fill="#F7CC00" d="M148.7,113.7c-0.2-0.7-1.1-1.4-1.9-0.4c0.1,0.3-0.2,0.4-0.4,0.4c-0.2,1.2,0.5,1.6,1.2,1.9
			C147.9,114.7,149,115,148.7,113.7z"/>
		<path fill="#171717" d="M51.5,121.4c-0.3,1.2-0.4,2.6-0.8,3.5c-0.4,0.9-1.6,1.6-1.9,2.7c-0.4,1.2-0.4,2.5-0.4,3.9
			c1.8,2,4.8,2.9,6.2,5.4c-0.3-4.4-4.9-3.1-5.4-6.6c-0.2-1.3,1.1-3.4,1.9-5.4c0.7-1.8,1.7-3.7,1.9-5.4c0.2-1.7,0.5-3.9-1.2-5.8
			C52.7,117,52.1,119.1,51.5,121.4z"/>
		<path fill="#F7CC00" d="M155.2,115.2c-0.1-0.6,0.1-1.4-0.4-1.5c-1,0.6-1.2,4-0.4,5C155.9,119.9,155,116.4,155.2,115.2z"/>
		<path fill="#F7CC00" d="M153.3,116c-0.2-0.5-0.4-0.9-0.8-1.2c-0.9,0.5-1.2,3.7-0.4,4.6C154,119.8,152.1,116.3,153.3,116z"/>
		<path fill="#F7CC00" d="M150.6,116.4c-2.4,0-1.3,3-0.8,4.2C152.1,120.6,150.4,117.8,150.6,116.4z"/>
		<path fill="#F7CC00" d="M154.9,120.6c0.1,0-0.8,0.3-1.2,0.4c-0.9,0.2-2.6,0.5-2.7,0.8c-0.4,0.6-3.4,0.6-3.9,0c-0.6,0-1.3,0-1.9,0
			c-0.5,0.6-3.7,0.6-4.2,0c-0.3-1-2.7,0.1-3.1-0.8c-1,1-3-0.3-3.9-0.8c0-0.2-0.1-0.5-0.4-0.4c-0.3,1.6-4.5-1.3-5.4-2.3
			c-1,0.2,1.4,1.7-0.4,0.8c3.3,4.6,8.6,5.2,15.8,6.2c0.7-0.9,2.9-0.1,4.2-0.4c4.1-0.2,6.9-0.4,9.8-1.1v-2.7c-0.6,0.2-1.4,0.6-2,0.7
			C155.2,121.1,155.2,120.6,154.9,120.6z"/>
		<path fill="#F7CC00" d="M127.5,119.5c-0.6,0.1-0.1,1.1-0.8,1.2c0.6,0.7,0.6,2,1.5,2.3C130.8,123.5,127.9,120.5,127.5,119.5z"/>
		<path fill="#F7CC00" d="M134,123.7c0.4,2.2-2.3,2.9-1.5,4.2c0.8,0.2,1.1,1,2.3,0.8C133.3,127.1,136.8,124.2,134,123.7z"/>
		<path fill="#F7CC00" d="M138.3,128.7c-0.9-0.6,1.5-1,0.8-2.7c-0.3-1.4-2.7-0.7-3.1,0c-0.1,0-0.3,0-0.4,0c-0.2,3,1.2,4.5,3.5,5
			C139.2,129.8,137.9,130.2,138.3,128.7z"/>
		<path fill="#F7CC00" d="M152.9,131.1c0.9,1,1.2,2.7,3.1,2.7c2.1-2-0.5-3.8-1.9-4.6c0.4-0.9,1-1.6,0.8-3.1c-1-2.1-3.9-1.5-4.6,0.4
			c-0.1,1.4,1.2,1.4,1.2,2.7c-0.1,1.1-1.4,0.9-1.9,1.5c-1.5,1.6-5-1.3-2.7-2.3c1-1.3-0.8-3-2.3-3.1c-1.4,0.6-1.8,2.4-1.5,4.6
			c0.4,0,0.5,0.3,0.8,0.4c1.3,1.2,3.5,1.4,5.4,1.9C150.6,132.1,151.2,131,152.9,131.1z"/>
		<path fill="#F7CC00" d="M139.8,128.7c0.1,1.3,1.2,1.7,1.9,2.3c0.5,0,0.3-0.7,0.8-0.8c-1.4-1.4-0.4-3.3,0-5
			c-0.7,0.1-0.8-0.4-1.5-0.4c-0.7,0.6-0.1,2.5-0.8,3.1C140.8,128.1,140.3,128.6,139.8,128.7z"/>
		<path fill="#171717" d="M60,134.1c3.9-0.5,2.6-5.6,0.4-6.9c-0.8,1.6,1.8,2.7,1.2,5.4c-1.2-0.3-0.7,1.1-1.9,0.8
			c0-1.5-1.1-1.9-1.9-2.7c-1.4-0.1-2.3,0.3-2.7,1.2C58.2,131,58.1,133.5,60,134.1z"/>
		<path fill="#F7CC00" d="M146.8,134.1c0,1.4,0,2.8,0,4.2c-0.2,0.6,0.5,2-0.4,1.9c0,1.4,0,2.8,0,4.2c-0.3,5.3,0,10.4,0,15.8
			c0.4,0,0.5,0.3,0.8,0.4c0.2-0.5,0.4-0.9,0.8-1.2c0-4.9,0-9.8,0-14.7c-0.9-2.5,0-6.4,0.4-8.9C148.9,134.3,147.3,132.4,146.8,134.1z
			"/>
		<path fill="#F7CC00" d="M40.3,145.7c0.4-1.3,0.5-3,0.8-4.6c0.3-1.7,0.6-3.5,0.4-5.4c-1,0.3,0.3-1.8-0.8-1.5c0,2-0.7,3.2-0.4,5.4
			c-1.3,2.5-1.5,5.3-2.7,7.7c-0.7,1.5-1.7,2.7-2.3,4.2c2.5,0.5,2.4-1.3,3.1-2.3c0.6-0.9,0.8-1.6,1.2-2.7
			C39.6,146.3,40.2,145.9,40.3,145.7z"/>
		<path fill="#F7CC00" d="M41.9,142.2c-0.6,2.9-1.7,5.2-2.3,8.1c2.7,0.1,2.7-2.5,3.1-4.6C42.4,144.6,43.3,141,41.9,142.2z"/>
		<path fill="#F7CC00" d="M44.6,145.7c-0.8,0.3-0.3,1.8-1.2,1.9c-0.3,0.4-0.5,1-0.4,1.9c1.5,0.1,1.4-1.4,1.9-2.3
			C44.4,147.1,44.6,146.3,44.6,145.7z"/>
		<path fill="#B32621" d="M47.6,150c-1.1,0.1-1.6,0.7-2.7,0.8c-0.3,0.7,0.6,1.1,1.2,1.5c1.3,1,3.9,2.5,5,2.3
			C49.7,153.3,49.7,150.6,47.6,150z"/>
		<path fill="#F7CC00" d="M109.7,221.3c-0.9-0.1-0.2-1.6-0.4-2.3c-1,0.1-1.3,1-1.5,1.9c-0.8,0.5-1.4,1.1-1.9,1.9c-0.1,0-0.3,0-0.4,0
			c-0.9,1.3-1.9,2.5-3.1,3.5c0.5,0.6-0.9,1.8-1.2,1.9c-1.2,0.6-1.5,0.2-2.7-0.4c-1.2-0.5-2.1-1.1-3.1-1.5c-0.7-0.3-1.8-0.2-2.3-0.4
			c-0.1,0,0.1-0.7,0-0.8c-0.4-0.2-1.3-0.3-1.5-0.4c-1.6-0.6-4.6-1.7-5-2.3c0-0.2-0.1-0.5-0.4-0.4c-2.1,0.4-5.1-1.6-6.9-2.7
			c0-0.2-0.1-0.5-0.4-0.4c-1.5,0.6-3.8-1.3-5.4-1.9c-0.9-0.7-2.2-0.9-3.1-1.5c-0.7,0.2-1.5-0.8-2.3-1.2s-2.7-0.2-1.9-1.2
			c0,0.2,0.1,0.5,0.4,0.4c-1.7-1.5,1.2-3.2,1.9-4.6c-1-0.2,0.5-0.8,0.8-1.2c0.1-0.2-0.1-0.6,0-0.8c0.6-0.7,2.1-1.7,2.3-1.9
			c0-0.1,0-0.3,0-0.4c1.2-1.4,2-3.2,3.5-4.2c1.2-1.5,2.6-3,3.9-4.6c1.3-1.7,2.1-3.9,4.2-4.6c1.2,0.9,3,1.1,4.2,1.9
			c0.8-0.4,2.2,0.3,3.5,0.8s3.4,1.3,3.9,1.9c0.6,0.9,2.3,0.8,3.1,1.5c1.1-0.4,2.3,0.3,3.5,0.8c1.1,0.4,2.3,1.1,3.5,1.5
			c2.1,0.9,6.1,3,7.3,2.7c0.1,0,0.3,0,0.4,0c1.4-1.6-0.8-2.8-1.9-3.1c-1.2,0.2-2.7-0.5-4.2-1.2c-1.6-0.6-3.9-1.7-4.6-2.3
			c-0.5-0.6-1.7-0.6-2.3-1.2c-1.2,0.4-2.7-0.5-4.2-1.2c-1.6-0.7-3.9-1.6-4.6-2.3c-1.4-1.2-3.9-1.4-5.4-2.7c0.3-3,3.1-4.3,5-6.6
			c0.3-0.4,0.4-1.1,0.8-1.5c1-1.3,2-3.2,3.5-3.5c1.9-0.3,3.2,1.2,5,1.9c0.4,0.2,1.1-0.1,1.5,0c0.7,0.2,1.6,0.9,2.3,1.2
			c0.6,0.2,0.8,0.6,1.2,0.8c0.4,0.2,1.1-0.1,1.5,0c0.2,0.1,0.8,0.6,1.2,0.8c1.9,0.7,3.5,1.5,5,2.3c0.7,0.4,1.5,0.9,2.3,1.2
			c1.7,0.6,3.7,1.8,4.6-0.4c-0.1-0.3,0-0.8-0.4-0.8c0,0.7-1.5-0.2-1.5-0.8c-1.3-0.1-4.6-1.3-3.9-1.5c-2-2-5.6-2.3-8.1-3.9
			c-1.4,0.5-3.9-1.2-5.4-1.9c-1-1-3.4-0.5-3.5-2.3c1.9-3.6,4.7-6.3,6.9-9.6c-0.3-0.8,1.7-3.1,2.7-3.9c0.8-0.9,1.9-1.5,1.9-3.1
			c-1.3-0.8-3.7-0.7-5-1.5c-0.5,0.6-2.8-0.3-3.5-0.8c-0.7,0.2-1,0.8-1.9,0.8c0-0.1,0-0.3,0-0.4c-6.1,3.9-13.9,6.2-22.8,7.3
			c-0.4,0.9-2.4,0.1-3.5,0.4c-0.8-0.6-5.5-0.1-4.6-0.8c-4.5-0.2-10.4-1.1-14.3-3.1c-1.3,0.9-3.2-0.9-4.2-1.5
			c-0.1-0.5-0.8-0.4-1.2-0.8c-1.1,0.5-3-1.6-4.2-2.3c0-0.1,0-0.3,0-0.4c-0.4-1-1.8-1-2.3-1.9c-0.7,0.5-2.2,0.1-2.7,0.8
			c-2.5,0.8,1.1,2.1,1.5,3.5c1,1.2,2.7,1.7,3.9,2.7c1.1-0.4,2.2,0.9,3.5,1.5c1.5,0.7,3.2,1,4.2,1.9c0.1,0,0.3,0,0.4,0
			c2.4,0.7,4.9,1.2,6.9,2.3c0.5,0.4,1.4,0.4,2.3,0.4c0.8-0.2,4.2,0.4,5,0.4c0.1,0,0.3,0,0.4,0c2-0.5,3.3,0.2,5,0.4
			c3.2,0.3,6.4-0.4,9.6-0.4c0,0.1,0,0.3,0,0.4c1.1-0.6,2.9-0.4,3.9-1.2c0.5-0.6,2.8-1.5,3.5-0.8c0.9-0.1,2.2-1.9,3.1-0.8
			c-2.6,5-7,8.1-9.6,13.1c0.9-0.8,0.9,0.2,0,0.4c-1.1,2-2.7,3.5-4.2,5c-1.4-0.2-3.8,0.5-4.6-0.4c-0.3,0-0.5,0-0.8,0
			c-6.3,0.1-14.4-0.3-20.1-2.7c-3.6-1.6-7.5-2.4-10.8-3.9c-2.1-0.9-4.4-2.5-6.2-3.5c-1.7-0.9-3.2-1.9-4.6-2.7
			c-1.6-0.9-2.7-3-4.6-2.3c0,0.4-0.3,0.5-0.4,0.8c0.3,1.8,1.5,2.7,2.7,3.5c0,0.1,0,0.3,0,0.4c3.2,1.8,6.7,3.3,9.6,5.4
			c8.5,4.5,19.5,7.7,31.2,7.7c0.8-0.6,5.7-0.1,5,0.8c0,0.1,0,0.3,0,0.4c1,0.9-1.3,1.8-1.5,2.7c-2.4,2.9-5,5.6-6.9,8.9
			c-0.1,0-0.3,0-0.4,0c0,0.1,0,0.3,0,0.4c-1,1.2-1.7,2.7-3.1,3.5c-0.9,0.7-1.5,1.8-2.3,2.7c0.2,0.5-0.3,1.2-0.8,1.9
			c-0.9,1.2-2.2,2.1-2.7,3.1c-0.1,0-0.3,0-0.4,0c-1.7,2.3-3.7,4.3-5.4,6.6c0.3,0.7-0.7,1.4-1.2,1.9c-1.7,2.3-3.5,4.7-5,6.6
			c-0.1,0-0.3,0-0.4,0c-1.3,1.4-2.7,2.7-3.9,4.2c0.4,0.6-0.6,1.2-1.2,1.9c-0.6,0.8-1.3,1.7-2,2.5h14.5c2.3-2.9,4.6-5.9,7.1-9.1
			c0.7-0.9,1.7-2.1,2.7-3.5c1.2-1.5,1.9-2.7,3.1-3.1c2.5-0.7,6.5,2.3,9.3,3.5c5,2.2,11,4.1,15.4,6.6c-1.3-1.7,2.8,0.6,3.5,1.2
			c2,1.3,4.6,1.8,6.6,3.1c0.5-1,0.4,0.5,0.2,1.4h9.2c0.1-0.4,0.2-0.7,0.3-1C108.7,227.7,109.2,224.5,109.7,221.3z"/>
		<path fill="#B32621" d="M125.9,163.8c-2-1.8-0.8-5.8-0.8-8.9c-0.5-0.4-1.2,0.5-1.5,0.8c-0.8,0.7-1.4,1-1.5,1.9
			c-0.3,1.5,0.9,3.4,1.5,5.4c0.7,2,1.6,3.7,1.2,5.8c-0.8,0.7-0.9,1.9-2.7,1.5c-3.3-1.6-0.2-9-1.9-11.2c-0.9,2.2-2,3.6-1.9,6.2
			c0.1,3.2,3.9,7.5,0,9.3c-4.7-1.1-1.2-7.3-1.9-10.4c-1.1,2-2.2,4.4-3.1,6.9c-0.8,2.2-0.9,5.8-3.9,6.2c-3.6-1.6,0.1-6.8,1.2-8.1
			c0.3-0.3,0.5-0.8,0.8-1.2s2.4-1.4,0.8-1.5c-1.6,1.4-2.9,3.3-5.4,3.9c-1.1-0.2-1.1-1.5-1.5-2.3c1.1-2.9,5.5-4.1,8.1-4.2
			c2.2-1.3,3.8-3.1,5.4-5c-2.2,0.2-4,3.1-6.2,3.5c0,0,0-0.5-0.4-0.4c-1.1,0.2-3.6,0.8-3.5-1.2c0.1-1.8,2.8-3.1,3.9-2.7
			c0.4,0,1-0.2,0.4-0.4c-0.7-0.3-1.4-0.6-2.3-0.8c-1.9,0.8-2.6,2.5-3.9,4.2c-0.4,0.6-1.1,1.3-1.5,1.9c-0.3,0.3-0.1,0.8-0.4,1.2
			c-0.2,0.3-0.9,0.5-1.2,0.8c-0.3,0.3-0.2,0.9-0.4,1.2c-0.3,0.3-0.9,0.4-1.2,0.8c-0.5,0.7-0.6,1.6-1.2,2.3c-1.1,1.4-2.7,2.4-3.1,4.2
			c2.5,1.3,5,2.5,7.7,3.5c0.3,0.1,0.8-0.1,1.2,0c0.2,0.1,0.4,0.6,0.8,0.8c1.1,0.4,2.5,0.5,3.5,0.8c0.5,0.2,1.6,0.9,1.9,1.2
			c1.2,0.7,2.5,1,3.9,1.5c1.1,0.4,1.9,1.4,3.1,1.2c0.8-0.7,0.7-1.8,1.2-2.7c0.4-0.9,1.3-1.8,1.5-2.7c0.1-0.4-0.4-0.6-0.4-0.8
			c0-0.3,0.3-0.8,0.4-1.2c0.4-1,1.1-1.8,1.5-2.7c1.5-3.2,3-5.9,4.6-8.9C127.7,163.6,127.2,164.1,125.9,163.8z"/>
		<path fill="#B32621" d="M133.6,170c0.3-1.7,3.8-0.1,4.6-1.2c-0.2-3.9,0.3-7.1,1.2-10c-0.7-0.1-1.2,0.9-1.5,1.5
			c-1,1.9-0.7,4.5-0.8,7.3C135.9,168.1,132.7,168.6,133.6,170z"/>
		<path fill="#F7CC00" d="M22.2,175c0.1,1.2,1.1,1.5,1.5,2.3c0.8-1.4,2.8-4.8,0-5.4C23.4,173.2,22.9,174.2,22.2,175z"/>
		<path fill="#F7CC00" d="M24.9,178.9c-0.2,1.2,0.5,1.5,0.8,2.3c1.5-0.2,1.6-1.8,2.3-2.7C26.5,174.7,26.3,177,24.9,178.9z"/>
		<path fill="#F7CC00" d="M147.1,226.3c0.3-6.5,0.6-13.7,0.4-20.1c0-1.4,0-2.8,0-4.2c0.7-0.7,0.3-2.5,0.4-3.9
			c-0.6-2.7-0.6-8.1,0-10.8c0-0.3,0-0.5,0-0.8c-0.9-1.3-0.2-4.3,0.4-5.4c-0.4-1.7,1-5.1-1.2-5c-1.2,0.5-0.3,1.5-0.4,2.7
			c-0.1,1.3,0.1,2.4,0,3.9c0,0.4-0.2,0.7-0.4,1.2c-0.1,0.3-0.4,5-0.4,5.4c0,0.5,0.4,0.5,0.4,1.2c-0.1,2.4-0.9,5.7,0,6.6
			c0,11.8,0.1,23.6-0.3,34.9h1C147.1,230.1,147,228.2,147.1,226.3z"/>
		<path fill="#F7CC00" d="M27.6,184.7c0.1,2.4,2.3-1.8,2.7-1.9C29.8,179.1,26.8,182.1,27.6,184.7z"/>
		<path fill="#B32621" d="M45.3,183.9c0.6-0.5,2.9,0.3,3.1-1.5c-1.1-0.2-2-0.6-3.1-0.8C45.8,182.6,44.6,183.8,45.3,183.9z"/>
		<path fill="#B32621" d="M134.4,185.4c-0.8-0.8-1.7-1.4-2.3-2.3C131,184.6,134,186.4,134.4,185.4z"/>
		<path fill="#B32621" d="M49.2,190.1c1.8,1.2,3.6,2.9,4.2,3.9c0.5-1.4,0.5-3.8,0.4-5.8c-0.1-1.7,0-4.4-1.5-4.6c1,2-0.1,3.5-0.4,4.6
			c-0.2,0.8,0.9,2.2-0.4,1.9c-0.7-1.2-2.4-1.4-3.5-2.3c-0.4-1-0.6-2.2,0.4-2.7c1.9-0.6,0.4,2.2,1.9,1.9c1.2-0.5,0.8-2.1,0-2.7
			C45.6,184,47.4,188.9,49.2,190.1z"/>
		<path fill="#F7CC00" d="M38.8,203.6c0,1.7,0.9,2.9,1.9,1.5c1.7-1.3,0.9-3.7-0.8-4.6c-0.1,1.2-0.8,1.7-1.2,2.7
			C39,203.2,39.2,203.5,38.8,203.6z"/>
		<path fill="#171717" d="M97,201.2c-3,0.2-4.1,3.2-5.4,5c-1.5,2.1-3.6,3.8-4.6,6.2c1,0.8,1.8,1.8,3.5,1.9c1.3-1.4,3-3.4,3.9-4.6
			c0.9-1.4,1.8-2.4,2.7-3.8c0.6-1,1.9-1.9,1.5-3.5C98,202,97.4,201.8,97,201.2z"/>
		<path fill="#F7CC00" d="M41.5,206.6c-0.8,1.4,0.1,2.1,0.4,3.5c1.3,0,1-1.6,1.9-1.9c1-0.6-0.3-2.2-0.8-2.7
			C43,206.8,42.1,205.6,41.5,206.6z"/>
		<path fill="#F7CC00" d="M43.4,213.2c1.2,1.6,1.6-0.2,2.7-0.8c0.9-0.8-0.3-2.7-1.5-2.7C44.6,211.1,42.1,211.9,43.4,213.2z"/>
		<path fill="#B32621" d="M16.8,230.5c1.6,0.1,3.8-1.3,3.1-2.3C19.2,229.4,17,229,16.8,230.5z"/>
		<path fill="#F7CC00" d="M91.2,124.1c0.3,4.7,1.1,8.8,1.5,12.7c0.3,2.7,0.1,5.4,1.2,7.7c0.6-0.1,0.4-0.9,0.4-1.5
			c-0.1-4.2-0.5-9.5-1.2-14.3c-0.9-0.5-0.1-2.7-0.4-3.9c0.2-3.7-0.3-6.7-0.4-10c-0.9-0.5-0.1-2.7-0.4-3.9c0-1.8,0.3-3.9-0.8-4.6
			c-0.9-0.7-0.3-2.8-1.5-3.1c-0.1,0.3,0,0.8-0.4,0.8c1.5,3.9,1.2,9.2,1.5,14.3C90.9,120.1,91.1,122.1,91.2,124.1z"/>
		<path fill="#F7CC00" d="M93.5,117.9c0,0.6,0,1.3,0,1.9c0.9,0.7,0.1,2.9,0.4,4.2c0,0.1,0,0.3,0,0.4c0.6,0.4,0.6,3.4,0,3.9
			c0.5,3.9,0.8,7.3,1.2,10.8c0.3,3,0.4,6.1,1.9,8.5c0.6-0.1,0.4-0.9,0.4-1.5c-0.5-1.3-0.1-3.5-0.8-4.6c-0.9-0.7-0.1-2.9-0.4-4.2
			c0-0.3,0-0.5,0-0.8c-0.9-0.5-0.1-2.7-0.4-3.9c0.3-1.9-0.7-2.7-0.4-4.6c-0.6-0.4-0.6-3.4,0-3.9c0.3-1.5-0.5-1.8-0.4-3.1
			c-0.6-0.5-0.6-3.7,0-4.2c-0.6-1,0.1-2.1-0.4-3.5c-0.9-0.5-0.1-2.7-0.4-3.9c-0.3-0.9,0.7-3-0.8-2.7c0-0.1,0-0.3,0-0.4
			c-0.6-0.4-0.4-1.6-0.8-2.3c-0.6,0-0.2,1.1-0.8,1.2c1.3,2.2,0.9,6.1,1.5,8.9C94.2,114.5,94.2,117.5,93.5,117.9z"/>
		<path fill="#F7CC00" d="M146,111c1.1,0.3,0.8-0.8,1.5-0.8c0.2,0,0.5-0.1,0.4-0.4c-0.6-0.7-0.2-3.5-1.9-1.9
			c-0.3,0.1-0.4,0.3-0.4,0.8C146.5,108.7,145.8,110.3,146,111z"/>
		<path fill="#171717" d="M61.1,115.6c1.1-1.3,2.2-2.4,3.5-3.5c2.4,0,4.9,0.8,6.2,1.2c2.3,0.7,4.2,1.4,5.8,1.2
			c-1.5-1.1-3.5-1.4-5.4-1.9c-1.3-0.4-2.4-1-3.9-1.2c-1.7-0.2-3.3,0.4-5.4,0.4c-0.7,0.7,0,1,0,1.9C61.7,114.1,60.1,115.2,61.1,115.6
			z"/>
		<path fill="#F7CC00" d="M152.5,111.4c0-1.1-1.8-0.9-2.3-0.4c-1.1,0.6,0,2.3,0.8,2.3C151.4,112.5,152.7,112.7,152.5,111.4z"/>
		<path fill="#171717" d="M42.6,113.7c1.3,0.1,2.6-0.2,3.9,0c1.2,0.2,2.9,1.9,3.1,0.4C48.2,113.2,44.2,112,42.6,113.7z"/>
		<path fill="#F7CC00" d="M113.2,111c-1.1,0.1,0.3,2.7-0.8,2.7c1,7.7,1.7,16.6,3.1,23.5c0.2,1,0.7,2.1,0.8,3.1
			c0.1,0.6-0.4,0.8-0.4,1.2c0,1.4,1,3.4,1.5,4.6c1.2,3.1,2.2,4.3,4.2,5.8c7.1,1,10.8-4.5,8.9-10c-0.7-1.3-1.1-3-3.5-3.5
			c-0.6-0.1-1.6,0.1-2.3,0c0-0.1,0-0.3,0-0.4c-2.4,0.4-4.5,2.1-5,3.9c-1,3.5,2.1,7.6,5.8,6.6c1.4-0.4,2.9-2.7,2.3-4.6
			c-0.1-2.2-4.4-3.4-5.4-1.2c-1.1,0.3,0.2,1.2,0,1.9c0.4,0,0.5,0.3,0.8,0.4c0.9-0.4,1.9-0.7,1.9-1.9c1.1-0.5,1.7,1.6,0.8,1.9
			c-2,2.6-5.1,0.1-5-1.9c0.1-2.2,3.4-3.4,5.8-3.1c1.8,1.3,3.2,4.9,1.5,7.3c0.3,1.2-2.1,2.4-3.5,2.7c-1.8,0.3-2.6-0.2-3.3-0.9
			c-0.3-0.3-0.6-0.7-0.9-1c0,0,0,0-0.1,0c-1-1-1.9-1.2-1.9-2.7c0.1-1.4-0.9-2.5-1.2-3.9c-0.1-0.4,0.4-0.8,0.4-1.5
			c-0.1-1.5-0.9-3.6-1.2-5c-1.3-6.8-2.2-15-3.1-21.6C112.7,113.3,113.4,111.7,113.2,111z"/>
		<path fill="#F7CC00" d="M156.8,113.7c-0.7,0.8-0.5,3.8,0,4.6c0.3,0.1,0.4,0.4,0.8,0.4C157.2,117.2,158.3,112.7,156.8,113.7z"/>
		<path fill="#F7CC00" d="M156,126c0,0.1,0,0.3,0,0.4c0.9,0.4-0.2,4,1.5,2.3c-0.7-0.9-0.4-2.5,0.1-3.4v-0.4c-0.6,0-1.1,0-1.7,0
			C156,125.3,156,125.7,156,126z"/>
		<path fill="#F7CC00" d="M131.7,123.3c-1.2-0.2-1.2,0.8-1.2,1.9c0.7-0.1,0.8,0.4,0.4,0.4c0,0.5,1.1,0.5,1.2,0
			C131.6,125.8,133.5,123.5,131.7,123.3z"/>
		<path fill="#F7CC00" d="M147.5,126c0.9,1,0,2.3,0,3.5c0.5,0.1,0.7,0.5,1.5,0.4c0-0.1,0-0.3,0-0.4
			C149.6,128.7,149.4,124.4,147.5,126z"/>
		<path fill="#F7CC00" d="M136,131.8c1.2,1,2.7,1.7,5,1.5c-0.1-0.6-1.2-0.1-1.2-0.8c-0.4,0-0.5-0.3-0.8-0.4
			C138.4,133.2,137.2,131.5,136,131.8z"/>
		<path fill="#171717" d="M62.3,142.6c-2.3,0-3-1.7-4.6-2.3c-2-0.3-2.3,1.1-3.9,1.2c-0.7-0.2-0.7-1.1-1.9-0.8
			c-0.8,0.1-1.1,0.7-1.5,1.2c-0.4,0.4-1.3,0.7-1.2,1.5c0.9,0.3,1.5,0.8,2.7,0.8c-0.2,1.2,0.5,1.5,0.8,2.3c2.4-0.4,6.8,1.1,6.9-1.5
			c-1.8,0-6.3,1.8-6.6-0.4c-0.1-1.3,1.2-0.2,1.9-0.4s1.2-0.7,1.9-0.8c2.2-0.1,4.9,0.6,7.3,0.4c0.2-0.9,1.5-0.8,1.2-2.3
			C64.1,140.4,64.2,143.1,62.3,142.6z"/>
		<path fill="#171717" d="M19.5,159.2c-3.7-1-4.8,2.9-3.1,5C20,166.3,22,161,19.5,159.2z M18.7,163.1c-0.7,0-0.8-0.5-1.5-0.4
			c-0.1-0.9,0.1-1.5,0.4-1.9c0.5,0,1,0,1.5,0C19.2,161.7,19.2,162.6,18.7,163.1z"/>
		<path fill="#171717" d="M17.2,171.2c0.2-1.8-0.9-3.8-3.9-2.7C10.1,172.8,16.6,175.2,17.2,171.2z M14.1,169.6c0.5,0,1,0,1.5,0
			c0.6,1.2,0.1,2-1.5,1.9C13.8,170.4,13.8,170.8,14.1,169.6z"/>
		<path fill="#171717" d="M12.9,176.9c-0.4-0.6-0.9-1-1.4-1.2v1.9c0,0.2,0,0.3,0,0.5v2C12.6,179.7,13.3,178.7,12.9,176.9z"/>
		<path fill="#171717" d="M139.4,183.1c0.1-0.1,0.7,0.1,0.8,0c0.5-0.5,0.3-1.3,0.4-1.9c-2-0.6-3.8-1.3-6.6-1.2
			c0.9,1.9,2.5,3.2,3.9,4.6C139.1,185,139,183.6,139.4,183.1z"/>
		<path fill="#F7CC00" d="M31.1,184.7c-0.9-0.2-3.2,4.7,0,4.2c0.7-0.4,0.7-1.4,1.2-1.9C31.3,186.1,31.9,184.9,31.1,184.7z"/>
		<path fill="#F7CC00" d="M33.4,188.9c-0.8,1.1-2,2.6-1.2,4.2c1.5,0.2,1-1.6,1.9-1.9c0.6,0.3,0.6-1.8,0-1.5
			C33.8,189.5,33.5,189.3,33.4,188.9z"/>
		<path fill="#F7CC00" d="M36.1,196.6c0.9-0.4,0.8-1.8,0.8-3.1c-0.1,0-0.3,0-0.4,0C33.7,191.6,33.5,199.4,36.1,196.6z"/>
		<path fill="#F7CC00" d="M37.2,197.8c-0.5,0.1-0.4,0.8-0.8,1.2c0.6,0.6-0.3,1.9,0.8,2.7c1.1-0.2,0.9-1.7,1.9-1.9
			c0.2,0,0.5-0.1,0.4-0.4c-0.6-0.5-1-1.3-1.2-2.3C37.9,197.1,37.8,197.7,37.2,197.8z"/>
		<path fill="#171717" d="M14.5,200.9c-1.1,0.1-2,0-2.9-0.1v3.4c0.3-0.2,0.6-0.5,1-0.6C13.2,202.7,15.3,202,14.5,200.9z"/>
		<path fill="#171717" d="M132.1,202.4c-1-0.1-2,0.1-3.1,0c-1.7-0.1-3.7-1.1-4.2,0.8c2,1.3,3.8,2.9,6.6,3.5
			C131.9,205.6,132.3,204.2,132.1,202.4z"/>
		<path fill="#171717" d="M98.5,230.5c-1.9-1.3-4.6-1.8-6.6-3.1c-1.3-0.2-2.1-1-3.5-1.2c-4.4-2.5-10.4-4.3-15.4-6.6
			c-2.7-1.2-6.8-4.2-9.3-3.5c-1.2,0.4-1.9,1.6-3.1,3.1c-1,1.3-2,2.6-2.7,3.5c-2.5,3.2-4.8,6.2-7.1,9.1h8.3c0-0.1,0-0.1,0-0.2
			c0.5,0,1,0,1.5,0c0,0.1,0,0.2,0,0.2h6.2c-0.8-1.8-2.3-3.7-0.8-5.2c1.2-0.3,1.4,0.4,2.3,0.4c0.8,1.4,1.1,3.3,1.7,4.9h15.4
			c-0.3-0.2-0.7-0.4-0.9-0.6c0.2-0.8,0.8-1.2,1.2-1.9c2.7,0.3,4.6,1.3,6.6,2.3c0,0.1-0.1,0.2-0.1,0.2H98c0.2-0.3,0.3-0.7,0.5-1
			C98.6,230.8,98.5,230.7,98.5,230.5z M66.2,224c-1,0.3-1.6,0.9-1.9,1.9c-1.2-0.1-1.7-0.8-2.7-1.2c0.2-2.4,2.2-3,3.1-4.6
			c2,0.9,4.3,1.3,5.8,2.7C69.7,224.8,68,224.9,66.2,224z M77,230.2c-0.6,0-1.3,0-1.9,0C74.2,227.7,77.7,227.7,77,230.2z"/>
		<path fill="#171717" d="M16.4,226.3c1.1-0.4,3.3-0.3,3.5-1.9c-2.6-0.1-4.2-1.2-6.9-1.2c-0.7,0.8-0.3,2.8-0.4,4.2
			C14.2,227.9,15.2,226.8,16.4,226.3z"/>
		<path fill="#F7CC00" d="M86.2,116.8c0.9,0.5,0.1,2.7,0.4,3.9c-0.4,3.8,0.4,7.1,0.8,9.6c0.5,3.4,0.8,6.2,1.2,8.9
			c0.2,1.3,0.1,2.8,0.8,3.9c0.6-0.1,0.3-0.9,0.4-1.5c0.1-0.3,0-0.8,0.4-0.8c-1-6.3-2.2-12.5-2.3-19.7c-0.9-0.9-0.1-3.5-0.4-5
			c0-0.3,0-0.5,0-0.8c-0.6-0.5-0.6-3.7,0-4.2c-0.9-3.1-0.8-7.2-2.7-9.3c-0.8,2.7,0.7,5.2,1.2,8.1C86.2,112.1,86,114.4,86.2,116.8z"
			/>
		<path fill="#F7CC00" d="M98.2,112.9c0.6,0.5,0.6,3.7,0,4.2c0.6,6.7,0.7,13.6,1.5,19.3c0.2,1.4,0.7,2.7,0.8,3.9
			c0,0.8-0.5,1.3-0.4,1.9c0.2,1.5,0.8,2.8,1.2,4.2c0.4,1.5,0.3,3.2,1.6,4.2c0.4,0,0.5-0.3,0.8-0.4c-2.1-6.8-1.9-13.7-3.1-21.6
			c-0.9-1.2-0.1-4-0.4-5.8c0-0.3,0-0.5,0-0.8c-0.9-0.7-0.1-2.9-0.4-4.2c0-0.9,0-1.8,0-2.7c-0.6-0.4-0.6-3.4,0-3.9
			c-0.5-2.2-0.6-4.1-1.2-5.4c-0.3-0.6-0.2-1.8-1.2-1.5c-1.1,1.3,0.2,2.7,0.4,4.2C98,110.1,97.8,111.6,98.2,112.9z"/>
		<path fill="#171717" d="M70.4,114.9c-0.3-0.1-0.5-0.6-1.2-0.8c-1.5-0.5-3.3-0.4-5-0.4c-0.5,2.2-2.5,2.9-3.1,5
			c5,0.4,8.6,2.1,13.9,1.2c-0.2-1.4,0.3-2,1.2-2.3c1.4-0.4,2.2,1.6,2.7,0c-2.1-0.7-4-1.8-5.8-2.3C72.4,115,71.2,115.1,70.4,114.9z
			 M65,114.5c1.3,0.3,0.6,2.5,1.9,2.7c2.1,0.5,1.6-1.7,3.1-1.9c0.3,1.7-0.7,2.2-1.2,3.1C66,118.8,63.7,116.9,65,114.5z M70,119.5
			c-0.2-0.3-0.4-0.6-0.4-1.2c1.4,0.1,0.9-1.7,1.5-2.3c1.4,0,2.2,0.6,3.5,0.8C74.1,118.7,72.5,119.5,70,119.5z"/>
		<path fill="#171717" d="M65.8,121.8c-1-0.3-1.8-0.8-2.3-0.8c-0.2-0.5-0.5-0.8-1.2-0.8c-0.2,2.2,2.1,2.2,2.7,2.3
			c1.1,0.3,2.2,0.5,3.5,0.4C68.5,121.4,66.7,122.1,65.8,121.8z"/>
		<path fill="#171717" d="M59.2,148c-2.8-0.1-5.2,0.3-5.8,1.9c1.9-0.8,4.5-1.6,6.9-0.8C61,147.8,59.1,148.9,59.2,148z"/>
		<path fill="#171717" d="M120.5,225.9c0.4,1.2,2,1.5,3.1,1.9c1.2,0.4,2.7,0.9,4.2,0.8c-0.2-1.6,0.3-2.6,0.4-3.9
			C125.3,224.8,123.3,225.7,120.5,225.9z"/>
	</g>
</g>
</svg>
