<?xml version="1.0" encoding="utf-8"?>
<!-- Generator: Adobe Illustrator 19.2.0, SVG Export Plug-In . SVG Version: 6.00 Build 0)  -->
<svg version="1.1" baseProfile="tiny" id="Layer_1" xmlns="http://www.w3.org/2000/svg" xmlns:xlink="http://www.w3.org/1999/xlink"
	 x="0px" y="0px" viewBox="0 0 170 244" xml:space="preserve">
<metadata><?xpacket begin="﻿" id="W5M0MpCehiHzreSzNTczkc9d"?>
<x:xmpmeta xmlns:x="adobe:ns:meta/" x:xmptk="Adobe XMP Core 5.6-c111 79.158366, 2015/09/25-01:12:00        ">
   <rdf:RDF xmlns:rdf="http://www.w3.org/1999/02/22-rdf-syntax-ns#">
      <rdf:Description rdf:about=""/>
   </rdf:RDF>
</x:xmpmeta>
                                                                                                    
                                                                                                    
                                                                                                    
                                                                                                    
                                                                                                    
                                                                                                    
                                                                                                    
                                                                                                    
                                                                                                    
                                                                                                    
                                                                                                    
                                                                                                    
                                                                                                    
                                                                                                    
                                                                                                    
                                                                                                    
                                                                                                    
                                                                                                    
                                                                                                    
                                                                                                    
                           
<?xpacket end="w"?></metadata>
<g id="Layer_20">
	<path fill="#FFFFFF" d="M17,0h136.4c9.4,0,17,7.6,17,17v209.4c0,9.4-7.6,17-17,17H17c-9.4,0-17-7.6-17-17V17C0,7.6,7.6,0,17,0z"/>
	<path fill="#171717" d="M38.7,22.2h6.1v-5.4H26.9v5.4h6.4v35.5l0,0c-0.2,4.2-3.6,7.5-7.8,7.5s-7.6-3.3-7.8-7.5v-8.5h-5.4v8.7h0.1
		c0.3,7,6.1,12.6,13.2,12.6c7.2,0,13-5.7,13.2-12.9l0,0V22.2H38.7z"/>
	<path fill="#171717" d="M83.5,70.4c0,0-2.2-2.6-3.8-6.3c-1.6-3.7-2.2-6.5-2.2-6.5s5.9,2.6,9.6,2.6S99.2,58,99.3,49
		c0.2-9-8.9-15.8-14.6-22.3s-9.1-12.1-9.1-12.1s-3.3,5.6-9.1,12.1C60.9,33.2,51.8,40,52,49s8.5,11.2,12.2,11.2s9.6-2.6,9.6-2.6
		s-0.6,2.7-2.2,6.5c-1.6,3.7-3.8,6.3-3.8,6.3S83.5,70.4,83.5,70.4z"/>
	<g>
		<path fill="none" d="M84.2,184.1c0.2-0.5,1.5-0.1,1.5-0.8c-1.6-0.3-2,0.6-1.9,1.9c0.5,0,0.9,0.2,1.2,0.4
			C85,184.9,83.9,185.1,84.2,184.1z"/>
		<path fill="none" d="M95.4,168.3c0.9,0.1,0.4-1.1,1.2-1.2c1.1-0.1,3.2,2.1,2.3,0.4c-1.2,0.1-1.3-1-2.7-0.8
			C96,167.3,95.6,167.7,95.4,168.3z"/>
		<path fill="none" d="M106.2,159c1.6,0.1,3.8,2.7,5,0.8C109.5,161.2,107.4,158,106.2,159z"/>
		<path fill="none" d="M110.8,156.7c-1.2-0.8-4.2-1.2-5-2.7c0.6-0.1,1.4,0.1,1.5-0.4c-5.4,0.2,2.8,3,3.1,3.5
			C110.6,157.2,111,156.8,110.8,156.7z"/>
		<path fill="none" d="M108.5,161.7c0.9,0.2,0.1,1.8-0.4,1.9c-1.6-0.1-2.5-0.8-3.5-1.5c-1.7-0.1-2.9-0.7-3.1-1.9
			c-0.1-0.3,0.7-0.7,0-0.8c-0.3,0.4-0.5,1-0.4,1.9c2.7,0.6,4.3,2.4,7.3,2.7c0.2-0.8,1-1.1,0.8-2.3c-0.5,0-0.5-0.5-1.2-0.4
			C108.1,161.6,108.3,161.7,108.5,161.7z"/>
		<path fill="none" d="M87.3,186.8c1.7-0.2,3,1.9,4.2,0.8C89.8,187.9,88.5,185.7,87.3,186.8z"/>
		<path fill="none" d="M102,172.1c0-0.4-0.5-0.3-0.8-0.4c0.8,1.4,2.4,0.1,2.3-1.6c-0.5,0-0.9-0.2-1.2-0.4c0.1,0.5,0.7,0.6,0.8,1.2
			C102.9,171.5,102.5,171.9,102,172.1z"/>
		<path fill="none" d="M103.9,169c-0.8-0.2,0.4-1.6-0.8-1.9c-0.1,0-0.3,0-0.4,0c0,0.5,0.5,0.5,0.4,1.2c-2-0.7-3.4-2-5.4-2.7
			c0.2-1.4,1.8,0.9,1.9-0.4c-0.9-0.3-2.4-0.9-2.3,0.8c2.9,0.7,4.3,2.9,7.3,3.5c0.1-0.5,0.6-0.6,0.8-1.2
			C104.4,168,104.5,169.2,103.9,169z"/>
		<path fill="none" d="M100.4,171c-1.1-0.6-3.7-1.9-5.4-2.3c1.6,1.3,3.8,1.9,5.8,2.7C101.5,171,100.7,171.1,100.4,171z"/>
		<path fill="none" d="M75,138.2c1.1-0.3,2.6-1.6,2.3-2.3c-1.8,3.4-7.5,1.7-8.5-1.2C69.3,136.7,72.1,138.9,75,138.2z"/>
		<path fill="none" d="M105.8,167.9c0.3-1.2,1.5-1.3,1.2-3.1c-0.5,0-0.8-0.2-1.2-0.4C107.7,165.4,105.1,167.2,105.8,167.9z"/>
		<path fill="none" d="M99.6,162.1c0.7,2.3,3.5,2.4,5,3.9c0,0.3,0,0.5,0,0.8c-0.2,0.4-0.5,0.9,0,0.4c0.6-0.1,0.4-0.9,0.4-1.5
			c-1.8-0.9-3.7-1.7-5-3.1c0.1-0.4,0.6-0.4,1.2-0.4C101.1,161.1,99.9,162,99.6,162.1z"/>
		<path fill="none" d="M88.8,182.1c1.2,0.4,2.7,1.6,3.5,0.8c-2.5,0-4.3-2.6-6.6-1.5c0,0.7,0.3,1,0.8,1.2
			C85.3,180.8,87.6,181.7,88.8,182.1z"/>
		<path fill="none" d="M93.1,183.3c1.7-3.4-4.4-2.5-4.6-4.6c2.3,0.9,4.9,1.5,6.6,3.1c-0.1,1-2.9,3.5-1.2,2.7
			c0.3-1.3,1.7-1.7,1.5-3.5c-2.6-0.5-5-3.2-7.7-2.3c0.5,2.3,6.3,1.4,5,4.2C92.5,183.1,93,183.5,93.1,183.3z"/>
		<path fill="none" d="M92.7,184.5c-1.6,0.3-2.9-1.8-3.9-0.8c1.4,0.1,2.1,1,3.5,1.2C92.6,184.9,92.7,184.7,92.7,184.5z"/>
		<path fill="none" d="M82.3,191.4c1.7,0,2.3,1.1,3.9,1.2C85.3,192,83.3,190.6,82.3,191.4z"/>
		<path fill="none" d="M80.4,190.3c1.9-1.5,4.2,2,5.8,0.8c-2.3,0.1-5.5-3.5-6.2-0.4c0.9-0.2,0.8,0.7,1.9,0.4
			C81.7,190.5,81.1,190.3,80.4,190.3z"/>
		<path fill="none" d="M96.6,179.8c0.1,0,0.3,0,0.4,0c0.2-0.7,0.8-1,0.8-1.9c-2.1-1-4.3-1.9-6.6-2.7c1.6,1.5,4.4,1.7,6.2,3.1
			C97.1,178.9,96.8,179.3,96.6,179.8z"/>
		<path fill="none" d="M91.9,173.3c2.5,0.1,3.5,1.7,5.8,1.9c-1.8-0.7-5.1-3.8-6.6-1.2c1.4,0.1,1.7,1.1,3.1,1.2
			C93.9,174.2,91.9,174.7,91.9,173.3z"/>
		<path fill="none" d="M96.2,172.1c1.3,0.3,2.6,0.7,2.7,2.3c0.1,0,0.3,0,0.4,0C99.3,172.8,97.1,171.4,96.2,172.1z"/>
		<path fill="none" d="M94.6,170.2c0.6,0.1,2,1.3,2.3,0.4c-1.4-0.2-1.9-1-3.1-0.4c-0.1,1.2,1.4,0.9,1.9,1.6
			C95.9,170.7,94.3,171.4,94.6,170.2z"/>
		<path fill="none" d="M55.3,184.5c0.4-1.1-0.7-1.4-1.2-2.3c-0.4-0.8-0.4-1.9-0.8-2.7c-0.8-1.7-1.8-3.4-2.3-5
			c-0.4-1.1,0.3-3.1-1.5-3.1c0.1,3.2,1.4,5.7,2.7,8.5C53,181.5,53.6,183.8,55.3,184.5z"/>
		<path fill="none" d="M81.1,201.1c0.5-1.1,2-1.3,1.6-3.5c-1,0.4-1.5-1.8-1.6,0c1-0.1,1.3,0.5,1.2,1.5c0,1.1-1.6,0.7-1.5,1.9
			c0.5,0.1,0.6,0.6,1.2,0.8c0.5-0.8,1.1-1.5,1.5-2.3c-0.1,0-0.3,0-0.4,0C82.4,200,82.6,201.3,81.1,201.1z"/>
		<path fill="none" d="M41.8,173.7c0.2,0.7,0.9,1.6,1.2,2.3c0.4,0.9,0.8,1.5,1.2,2.3c0.7,1.6,0.8,4.1,2.7,4.6
			c-0.6-3.2-2.7-5.9-3.5-8.9c0-0.2-0.4-0.8-0.4-0.8c0-0.5,0.6-0.6,0.4-1.2c-0.3-0.8-0.6-2.2-1.9-2.3c-0.4,0.9,0.8,2.6,0.8,2.7
			C42.2,173,41.6,173.1,41.8,173.7z"/>
		<path fill="none" d="M84.6,197.6c-0.9-0.5-1.9-1-3.1-1.2c0.1,1.3,2.4,0.4,2.7,1.5c-0.3,0-1.2,1.3-0.4,1.2
			C83.8,198.4,84.9,198.6,84.6,197.6z"/>
		<path fill="none" d="M78,195.6c1.3-0.4,2.4,1.4,3.1,0.4c-1.6,0-3.6-2.3-4.6-0.4c1.6,0.4,2.4,1.4,4.2,1.5
			C80.1,196.4,78.5,196.6,78,195.6z"/>
		<path fill="none" d="M88.8,191.8c0.4-1.1,1.2-1.6,1.5-2.7c-1.3-0.9-2.9-1.5-4.6-1.9c1,0.8,2.3,1.3,3.9,1.5
			C90.2,190.4,87.9,191.1,88.8,191.8z"/>
		<path fill="none" d="M78.4,192.6c0.9-1.2,2.9,0.7,3.5-0.4c-1.3,0-1.9-0.6-3.5-0.4c0.3,1.2-1.1,0.7-0.8,1.9c0.5,0,0.5,0.5,1.2,0.4
			C78.7,193.6,78.3,193.4,78.4,192.6z"/>
		<path fill="none" d="M47.6,174.8c-0.5-1.7,0-2.2-0.8-3.9c-0.5,0-0.5-0.5-1.2-0.4c0.5,1.7,0.3,3.4,0.8,5c0.2,0.6,0.9,1.3,1.2,1.9
			c0.4,0.9,0.9,1.6,1.2,2.3c0.2,0.4-0.1,1.1,0,1.5c0,0.1,0.7,0.6,0.8,0.8c0.4,0.9,0.2,1.8,1.5,1.9c-0.4-2.8-3-5.4-2.3-8.1
			C47.7,176.2,48,175.2,47.6,174.8z"/>
		<path fill="none" d="M88.1,189.5c-1.5-1.1-3.9-1.2-5-2.7c1-0.4,1.8,1.2,2.3,0c-1.2,0-2.1-1.3-3.1-0.4c0.6,2.3,4.1,1.8,5.4,3.5
			c0.1,1-0.1,1.7-1.2,1.5c0,0.1,0,0.3,0,0.4C87.8,191.7,88.2,190.9,88.1,189.5z"/>
		<path fill="none" d="M88.1,184.5c1.1,1.1,3.4,0.9,3.9,2.7C92.7,185.6,89.6,185,88.1,184.5z"/>
		<path fill="none" d="M121.4,231.9h4.6c-0.7-0.7-1.4-1.3-2.1-2C123,230.5,122.1,231.2,121.4,231.9z"/>
		<path fill="none" d="M154.4,226.1c0-1.8-3.6-2-5-1.2C151.6,224.8,153.6,224.9,154.4,226.1z"/>
		<path fill="none" d="M141.7,228.4c1.3-0.9,2.7-1.7,3.9-2.7C144,226.4,142.6,227.2,141.7,228.4z"/>
		<path fill="none" d="M119.3,226.9c-1.4,1.6-2.7,3.3-3.9,5h4.8c0.8-0.9,1.5-1.9,1.8-3.1C121.2,228.1,120.4,227.3,119.3,226.9z"/>
		<path fill="none" d="M153.6,218.4c0-0.1,0-0.3,0-0.4c-8.6-8.1-14.9-18.5-14.7-35.5c-1.2-0.6-1.6-2-3.5-1.9
			c-0.9,14.6,3.6,24.9,9.3,32.8c1,1.3,2.3,2.7,3.1,3.5c0.3,0.3,0.1,0.8,0.4,1.2c1.6,1.9,3.6,3.2,5.4,4.6c1.4,1.1,2.4,2.5,4.2,2.7
			v-0.1V222C157.1,220.4,154.9,219.4,153.6,218.4z"/>
		<path fill="none" d="M114.3,223c-1.3-0.6-1,0.6-1.5,1.2c-1.6,1.8-2.8,3.6-3.9,5.4c-0.5,0.8-0.9,1.6-1.4,2.3h2.4
			c1.8-2.7,3.7-5.2,5.2-8.1C115.1,223.3,114.4,223.5,114.3,223z"/>
		<path fill="none" d="M108.9,98.4c-0.5,2.6,0.3,5.4-0.4,8.5c0,0.1,0,0.3,0,0.4c-0.1,0-0.3,0-0.4,0c0,0.9,0,1.8,0,2.7
			c2.7,4.4,6.1,8.6,7.7,13.1c0,0.6,0,1.3,0,1.9c-0.1,0-0.3,0-0.4,0c-0.2,3.1-4.1,2.6-5.8,4.2c0.1,1.3,0.2,2.6,0.8,3.5
			c0,0.3,0,0.5,0,0.8c-0.1,0-0.3,0-0.4,0c-0.8,0.9-1.2,1.5-1.5,2.7c-0.2,0.6,0.5,1.2,0.4,1.9c0,0.1-0.7,0.9-0.8,1.2
			c-0.3,0.9-0.1,1.2-0.4,1.9c0.6,1.5,1.4,2.7,1.9,4.2c0,0.1,0,0.3,0,0.4c-0.3,1.1-0.9,1.9-1.2,3.1c4.1,1.7,8.4,3.2,12.3,5
			c1.2-1.8,2-3.4,3.1-5.4c1.7-3.1,2.8-6.9,5.4-8.5c2.3-1.4,5.2-1.4,8.1-2.7c-0.1-1.6-2-2.7-2.3-4.6c-0.5-3,0.7-5.7,2.3-7.3
			c-0.2-1.6-1.3-2.2-1.5-3.9c0.1-1.5,1.5-1.6,1.5-3.1c-0.6-1.2-1.5-2.1-1.2-4.2c0-1,1.2-0.8,1.2-1.9c-0.4-2.2-2.1-4.3,0-5.8
			c-0.3-1.4-1.1-2.2-1.5-3.5c0-0.1,0-0.3,0-0.4c0.3-1.2,1.2-1.9,1.5-3.1c-0.5-0.9-0.9-1.9-1.2-3.1c-0.1-1.4,1.2-1.4,1.2-2.7
			c-1.4-2.4-3-5.5-1.9-9.3c0-0.1,0-0.3,0-0.4c1.1-1.5,2.2-2.9,3.7-4H119c-2,3.6-4.3,7.6-6.2,11C111.5,93.3,109.3,96,108.9,98.4z"/>
		<path fill="none" d="M153.6,197.2c-1.7-2.3-4-4-6.2-5.8c0,0.1,0,0.3,0,0.4C149.7,193.4,151.6,195.4,153.6,197.2z"/>
		<path fill="none" d="M112.4,222.3c-0.7-1.7-2.7-1.9-4.2-2.7c-1.4-0.8-2.8-2.2-4.6-2.3c-1.3,2.6-2.5,5.5-3.9,8.1
			c-1.2,2.2-2.8,4.3-3.1,6.6h2.1c0.4-0.9,0.6-1.9,1-2.7c0.4-0.7,1.1-1.2,1.5-1.9c0.3-0.5,0.1-1.1,0.4-1.5c0.1-0.1,0.6,0.1,0.8,0
			c-0.1,0.1,0.4-0.9,0.4-0.8c0.8-1.3,0.9-3.3,2.3-4.2c1.7,1,4,1.4,5,3.1c-0.9,1.2-1.4,2.8-3.9,2.3c-0.9,2.1-2.1,3.9-3.2,5.8h3.4
			c0.8-1.4,1.5-2.8,2.1-3.9C109.8,225.8,111.8,224.7,112.4,222.3z"/>
		<path fill="none" d="M134,155.2c-1.8,0.6-2.1,2.8-3.1,4.2c1.6,1.3,3.2,2.7,5.4,3.5c0-1.3,0.7-1.9,0.4-3.5
			C134.9,158.9,134.4,157.1,134,155.2z"/>
		<path fill="none" d="M143.2,199.5c0.1,2.1,2.3,2.1,4.2,2.3c-1.1-0.7-3-0.6-3.9-1.5C143.7,199.8,143.5,199.6,143.2,199.5z"/>
		<path fill="none" d="M157.9,209.1v-3.7C157.8,206.5,157.8,208,157.9,209.1z"/>
		<path fill="none" d="M150.2,85.7c0,0.1,0,0.3,0,0.4c0,4.3-1.9,5.7-3.1,8.1c1.1,1.7,3.6,2.6,3.5,5c-0.1,1-1.1,1.4-1.2,2.7
			c0.4,0.8,1,1.6,0.8,3.1c-0.4,1.2-2.1,3.1-0.4,4.2c0,0.1,0,0.3,0,0.4c0.5,1.9-1.2,3-1.2,4.2c0,0.9,1,1.6,1.2,2.7
			c0.4,0.8-0.7,2.2-0.8,3.5c0,0.7,0.3,1.1,0.4,1.5c0.6,1.9-0.8,3.5-0.8,5c0,0.8,0.7,1.5,0.8,2.3c0.1,1.5-0.1,2.4-0.4,3.1
			c-0.5,1.2-1.1,2.3-0.8,3.9c0.8-0.1,0.8,0.5,1.2,0.8c0,0.5,0,1,0,1.5c-0.6,0.4-0.4,1.6-0.8,2.3c1.1,1.3,1.8,3.1,1.5,5.8
			c0.6,1.2,1.5,2.1,1.2,4.2c0.1,1.5-1.6,1.2-1.5,2.7c0.2,1.2-0.7,1.4-0.4,2.7c-1.8,0.7-1.3,2.4-1.9,4.2c-0.3,0.9-1,1.5-1.2,2.3
			c-0.1,0.8,0.1,1.7,0,2.7c-0.5,1-1.2,1.9-1.5,3.1c1.9,1.4,3.6,3.1,6.2,3.9c0.5,1.3,1.7,2,2.3,2.7c0.7,0.9,1.3,1,1.9,1.5
			c1,0.8,1.5,2.3,2.7,2.6V80.1h-12.3C147.9,81.2,149.4,83.1,150.2,85.7z"/>
		<path fill="none" d="M11.8,210.5v1.4c0.1,0,0.2-0.1,0.3-0.1C12.2,211.2,12,210.8,11.8,210.5z"/>
		<path fill="none" d="M14.8,215.3c-1.3-0.9-2.1,0.5-3,1.1v1.9C12.9,217.6,14.4,216.7,14.8,215.3z"/>
		<path fill="none" d="M11.8,190.2v9.6c1.7,1,3.4,1.9,5.3,2.4C15.5,198.2,13.1,194.2,11.8,190.2z"/>
		<path fill="none" d="M11.8,222.7v0.9c0.1-0.1,0.2-0.1,0.3-0.2C12,223.2,11.9,223,11.8,222.7z"/>
		<path fill="none" d="M32.9,135.5c1.5-0.1,2.7,1.2,4.2,0.4c0.4-0.7,0.9-1.2,1.5-1.5c-0.3-2.3-1.4-3.6-1.5-5.8
			c-0.2-2.5,0.9-6.2,1.5-7.3c0.1-0.2-0.1-0.6,0-0.8c0.2-0.3,0.6,0,0.8-0.4c0.4-0.8,0.7-1.8,1.2-2.7c2.7-5.4,6-11.2,7.7-16.6
			C43.4,94,37.8,87.9,32.1,81.9c-0.2-0.7-0.6-1.3-1-1.7H11.8v71.4c5.2-1.8,10.7-3.3,16.1-4.9C25,141.2,27.9,135.9,32.9,135.5z"/>
		<path fill="none" d="M22.5,226.5c0.1-0.5-0.6-0.7,0-1.2c-1.9-0.3-3.1,1.1-4.2,1.9c-2,1.5-3.4,3.1-5,4.7h4.1
			C19.4,230.3,22.2,228.5,22.5,226.5z"/>
		<path fill="none" d="M26.8,231.9h2.4c-0.4-0.3-0.9-0.6-1.3-0.8C27.5,231.3,27.1,231.6,26.8,231.9z"/>
		<path fill="none" d="M20.6,223.8c-0.5-1.4-1.7-2.2-2.3-3.5c-1.2-0.9-1.2-2.9-3.1-3.1c-1.2,0.7-2.3,1.4-3.3,2.1v2.1
			c0.3-1,1.4-1.8,2.6-1.9c1.5,1.2,2.7,2.7,3.5,4.6c-2.1,1.4-4.2,3.7-6.1,5.1v2.6c2-1.7,3.5-3,5.3-4.5
			C18.4,226.2,20.2,225.4,20.6,223.8z"/>
		<path fill="none" d="M26.4,229.6c-1.2-0.9-2.1,1-2.7,1.9c-0.2,0.1-0.3,0.3-0.5,0.4h2.6C26.5,231.3,27.1,230.7,26.4,229.6z"/>
		<path fill="none" d="M78,105.4c-0.9,1.5-1.3,3.5-1.9,5.4C77.2,109.4,77.6,107.4,78,105.4z"/>
		<path fill="none" d="M98.9,215.3c-1,3.7-2.6,6.6-3.5,10.4c0.1,0.7,1.5,0.3,1.2,1.5c-0.8,0.5-0.4,2.2-1.5,2.3
			c-1.5-0.4-3-0.9-4.2-1.5c0.2,1.8,0.8,3.3,2.2,3.9h2.2c2.2-5.2,5.5-9.4,7.2-15.1C101.2,216.4,100.8,215.1,98.9,215.3z"/>
		<path fill="none" d="M147.5,134.7c0.3-1.7-0.4-2.4-1.5-2.7c-0.5,1.1-1.5,1.5-2.3,2.3C145.8,133.4,146.5,130.9,147.5,134.7z"/>
		<path fill="none" d="M147.9,130.8c1,0,0.8-1.3,0.8-2.3c-1.5-2.6-4.2-4-6.6-5.8c0,0.1,0,0.3,0,0.4
			C144.2,125.2,149.2,126.5,147.9,130.8z"/>
		<path fill="none" d="M141.3,133.2c2.2,0.2,3.5-0.4,3.9-1.9c-1.1-1.1-1.7-2.7-3.9-2.7C140,130,140.2,131.7,141.3,133.2z"/>
		<path fill="none" d="M148.6,116.2c-0.3-2.4-2.5-2.9-3.9-4.2C145.8,113.7,147.8,114.3,148.6,116.2z"/>
		<path fill="none" d="M148.6,122.8c-0.7-3.3-3.7-4.3-5.8-6.2C144.6,118.8,147.5,119.9,148.6,122.8z"/>
		<path fill="none" d="M140.2,128.2c0.1,0,0.3,0,0.4,0c-0.2-1.1-0.8-1.8-1.9-1.9c-1-0.1-1.2,0.6-1.5,1.2
			C137.8,126.3,140.1,126.4,140.2,128.2z"/>
		<path fill="none" d="M72.3,136.6c1.9,0.4,4.5-0.6,3.9-1.5c-1.9,2-4.9-0.1-5.4-1.9C70.5,135,73.2,135.3,72.3,136.6z"/>
		<path fill="none" d="M72.3,126.6c0.2-1.7,1.2-2.6,1.5-4.2C73.1,123.3,71.6,125.5,72.3,126.6z"/>
		<path fill="none" d="M142.8,165.6c1.4,0,1.7-1.1,1.5-2.7C142.3,162.2,142.9,164.2,142.8,165.6z"/>
		<path fill="none" d="M69.9,129.7c-0.9,0.5-0.1,2.7-0.4,3.9C70.4,133,69.7,130.9,69.9,129.7z"/>
		<path fill="none" d="M137.4,101.5c2.8,0,4.2,2.6,5.8,3.9c0.3,0.2,0.5,0.1,0.8,0.4s0.7,0.4,0.8,0c-2.7-1.3-3.7-4.2-7.3-4.6
			c0,0.5-0.5,0.5-0.4,1.2C137.4,102.3,137.4,101.8,137.4,101.5z"/>
		<path fill="none" d="M132.8,151.3c-0.9-0.3-1.7,1.3-1.9,0.4c-0.1-1.2,1.4-1,1.9-1.5c0.7-0.7,0.9-1.5,1.2-2.7
			c-0.5-0.5-1.9-0.2-1.9-1.2c2.8-0.1,4.5-1.2,6.2-2.3c0.4-1.2-2-1.5-0.8-2.3c2.2,3.1,9.1,2,10-1.5c-1.3,0-2.6,0-3.9,0
			c0.1-1-0.6-1.2-0.8-1.9c-4-0.5-5.8,0.6-8.1,1.2c-1.1,0.3-2.3,0.1-3.1,0.4c-1.6,0.6-3.6,2.2-4.2,3.1c-0.5,0.8-0.8,2.1-1.2,3.1
			c-0.4,1-1.2,3.5-1.6,3.8c-1.4,1.5-1.8,3.2-2.7,5c2.8,1.3,5,3.3,8.1,4.2C131.1,156.5,133.4,155.3,132.8,151.3z"/>
		<path fill="none" d="M144,84.6c-5.5-1.4-5.4,6.8,0,5.4C145.5,88.9,145.5,85.7,144,84.6z"/>
		<path fill="none" d="M136.3,146.7c-2.5-0.3-1.3,3-2.3,4.2c1.3,0.4,0.6-1.2,0.8-1.9C135.2,148.2,136.2,147.9,136.3,146.7z"/>
		<path fill="none" d="M135.1,156.3c-0.1,1,0.6,1.2,0.8,1.9c1.4,0.7,2-1.3,2.3-0.4c-0.8,1.5,0.3,2.9,2.3,2.7
			c0.9-0.3,0.5-1.8,1.5-1.9c0.2,1.3-0.3,1.8-0.4,2.7c2.4,0.5,5.3-0.6,5.4-3.5C142.2,159.8,138.7,155.6,135.1,156.3z"/>
		<path fill="none" d="M143.2,153.6c-2.6-0.3-9.1-4.2-9.3,0.8c0.5,0.4,1.4,0.4,2.3,0.4c0.7-0.5,0.5-1.8,1.5-1.9c0,0.9,0,1.8,0,2.7
			c1.4,0.6,2.5,1.4,4.2,1.5c0.4-0.5,0.9-2.9,1.5-1.9c0.3,1.2-0.4,1.4-0.4,2.3c3.2-0.1,5.7-1,5.8-4.2
			C147.1,153.6,145.3,153.8,143.2,153.6z"/>
		<path fill="none" d="M142.8,144.3c-0.4,0.1-1.8,0.4-2.3,0.4c-0.2,0-0.5-0.6-1.2-0.4c-1.1,0.4-2.2,1.1-2.3,2.3
			c0.6,0.7,1.6,1,3.1,0.8c1.1-0.6-0.7-1.6,0.4-1.9c0.9,0.2-0.1,2.4,0.8,2.7c1.4-0.2,1.7-0.4,3.9-0.4c0.4-1.3-1.2-2.4,0-3.1
			c0.4,1,0.6,2.2,1.9,2.3c2.5-0.4,2.9-3.9,1.2-5.4C146.3,142.4,145.2,143.9,142.8,144.3z"/>
		<path fill="none" d="M145.9,148.6c-3,0.8-6.3,0.4-8.9-0.8c-0.1,0.3-0.3,0.4-0.8,0.4c-0.3,0.7-0.6,1.4-0.8,2.3
			c0.5,0.4,1.4,0.4,2.3,0.4c0.8-0.1,0.1-1.7,1.2-1.5c0.1,2.3,2,2.8,4.2,3.1c0.6-0.6,0.5-1.8,1.2-2.3c0,0.5,0.2,0.9,0.4,1.2
			c0,0.1,0,0.3,0,0.4c0,0.3,0,0.5,0,0.8c3.6,1.7,7.5-2.1,5-5.4C148.3,146.8,147.5,148.2,145.9,148.6z"/>
		<path fill="none" d="M142.8,93c1.2,1,2.4,1.6,3.9,2.7c0.3,0.2,0.5,1.1,0.8,0.4c-2.9-2.5-6.5-4.3-8.5-7.7
			C139.4,90.4,141.3,91.8,142.8,93z"/>
		<path fill="none" d="M148.6,84.9c-0.4-2-1.9-3-3.5-3.9C146.4,82.3,147.8,83.3,148.6,84.9z"/>
		<path fill="none" d="M144,139c1.2,0.9,3.1,0,4.2-0.4c0-0.6,0-1.3,0-1.9C146.8,137.4,144.1,136.9,144,139z"/>
		<path fill="none" d="M149,99.6c-0.3,0.3-1.1,0.2-1.2,0.8c2.4,0,1.5-3.5,0-3.9C148.4,97.4,149.3,97.9,149,99.6z"/>
		<path fill="none" d="M61.8,139c-0.7-0.8-2.4-0.4-1.9,1.2C61.2,140.4,61.6,139.7,61.8,139z"/>
		<path fill="none" d="M36.4,185.2c-2.3-0.6-3.8,0-4.6,1.2c0.7-0.2,0.5-0.6,1.5-0.8C34.9,185.4,37.4,186.4,36.4,185.2z"/>
		<path fill="none" d="M32.5,191.4c0.8-0.3-0.2-0.1-0.4-0.4c-0.6-0.9-0.2-2.4-0.8-3.5c0.4-0.1,0.4-0.6,0.4-1.2
			C30.7,187.8,31,190.1,32.5,191.4z"/>
		<path fill="none" d="M22.9,167.9c-0.8,0.5-0.3,2.8,0.8,2.7C24.5,170.1,24.1,167.6,22.9,167.9z"/>
		<path fill="none" d="M33.3,191.8c0.9-0.1,1.5,0.1,1.9,0.4c0.8-0.8,1.8-1.3,2.3-2.3C36.3,191.4,35,191.5,33.3,191.8z"/>
		<path fill="none" d="M31,167.1c-0.5-0.1-0.7-0.5-1.5-0.4c0,0.5,0,1,0,1.5C30.5,168.4,31.1,168.1,31,167.1z"/>
		<path fill="none" d="M37.5,199.5c0.6-0.7,0.9-1.7,2.3-1.5c-1.1-1.3-1.8,1-2.7,1.2c-0.4-0.5-0.4-1.4-1.2-1.5
			C36.4,198.3,36.7,199.2,37.5,199.5z"/>
		<path fill="none" d="M32.1,173.3c0.5-1.7-1.3-4-4.2-3.5C30.4,169.9,32.2,171.8,32.1,173.3z"/>
		<path fill="none" d="M32.5,198.4c1,1.1,1.8,2.6,3.5,3.1c0.3-1.1-0.5-1-0.4-1.9c-0.1,0-0.3,0-0.4,0c-0.1,0.7,0.4,0.9,0.4,1.5
			c-1.5-1.2-2.8-2.6-4.2-3.9c0.3,0.4,2.5,0.8,2.7,0c-1.8,0.2-2.3-0.5-3.5,0C30.5,198.4,31.9,198,32.5,198.4z"/>
		<path fill="none" d="M17.9,171c-0.5-0.5-1.4-0.5-1.9,0c0,1,0.6,1.5,1.5,1.5C17.6,172,18,171.8,17.9,171z"/>
		<path fill="none" d="M19.8,172.9c2.6-0.6,2.5,0,3.9,1.5c-0.4-0.9-0.8-1.8-1.5-2.3c-1.2-0.3-1.4,0.4-2.3,0.4
			C19.8,172.5,19.8,172.9,19.8,172.9z"/>
		<path fill="none" d="M21.7,164.4c-0.5,2.5-0.5,4.3-2.7,4.6c-2,0.3-3.1-1.6-4.2-3.1c0.6,2.3,2.2,3.5,5,3.5
			C21,168.3,22.2,167.2,21.7,164.4z"/>
		<path fill="none" d="M19,158.6c-0.9,2.1-5.5,1.2-5.8-0.8C12.8,160.5,18.8,161.3,19,158.6z"/>
		<path fill="none" d="M20.6,151.3c-0.9-0.1-1.4,0.1-1.5,0.8c0.6,0.1,0.6,0.6,1.2,0.8C20.3,152.3,20.7,152.1,20.6,151.3z"/>
		<path fill="none" d="M16.3,152.8c-1.9,0.1-2.6,1.5-3.1,3.1C14.1,154.7,14.8,153.4,16.3,152.8z"/>
		<path fill="none" d="M42.6,130.5c0-1.3,0-2.6,0-3.9C41.9,127,41.9,130,42.6,130.5z"/>
		<path fill="none" d="M22.9,188.7c-0.4,0.5-1.1,0.7-0.8,1.9C24.3,191.1,24.4,189,22.9,188.7z"/>
		<path fill="none" d="M51.8,106.5c0.3-1.6,1.4-2.5,1.5-4.2C52.8,103.4,51.2,105.6,51.8,106.5z"/>
		<path fill="none" d="M51.4,129.3c-1.1-1.1-2.3-2-3.9-2.7c-1.3,0.7-3.1,0.8-3.5,2.3c1.1-0.9,2.2-1.7,3.9-1.9
			C49.1,127.8,50.1,128.7,51.4,129.3z"/>
		<path fill="none" d="M41.8,131.6c0.3,0.9,1.2,1.2,1.9,1.5c-0.2-1-0.7-1.6-1.2-2.3C42.7,132,42.5,132.2,41.8,131.6z"/>
		<path fill="none" d="M43.7,125.8c0.1,0.6-0.1,1.4,0.4,1.5c0.1-1.3,2.1-0.8,1.9-2.3c-0.6,0.6-1.2,1.2-1.9,1.5
			C44,126.3,44.1,125.8,43.7,125.8z"/>
		<path fill="none" d="M56.4,100c0.5,1.5-1.4,2.7-0.4,3.5c0.2-1.4,1-2.1,0.8-3.9c-1-0.1-1.7,0.1-1.5,1.2
			C55.8,100.7,55.9,100.1,56.4,100z"/>
		<path fill="none" d="M38.7,145.9c-1.9,0-3.9,0-5.8,0c-0.8-0.6-1.6-1.3-2.3-1.9C31,146.6,36,146.7,38.7,145.9z"/>
		<path fill="none" d="M37.5,140.1c-0.5-4.2-7.6-4.5-8.9-0.8C30.7,136.1,36.1,136.5,37.5,140.1z"/>
		<path fill="none" d="M27.9,185.6c0.8,0.4,0.6,1.7,1.9,1.5c0.4-1.4-1-1.1-0.8-2.3C28.4,184.8,28.1,185.1,27.9,185.6z"/>
		<path fill="none" d="M32.5,183.3c2.3-0.9,2.8-5.9-0.4-6.2C34.8,177.9,34.3,181.9,32.5,183.3z"/>
		<path fill="none" d="M29.1,163.6c-0.4,2.8-4.2,4.2-5.8,1.5C24,168.6,29.5,166.9,29.1,163.6z"/>
		<path fill="none" d="M41.4,132.8c0.3,0.4,0,0.9,0.4,1.2s2.4,1,3.5,1.2c2.4,0.3,4.6-0.4,4.2-1.5c-2.1,2.4-7.7,0.9-8.5-1.5
			C40.3,132.2,41.2,132.5,41.4,132.8z"/>
		<path fill="none" d="M38.7,138.2c0-0.2-0.1-0.5-0.4-0.4c-1-1.5,0.2-2.4,1.2-2.3c1.9,0.2-0.5,1.6,1.2,0.8c-0.3-2.4-3.8-0.6-3.1,1.6
			C38,137.8,38.1,138.3,38.7,138.2z"/>
		<path fill="none" d="M23.3,180.6c-1.7,0.6-3.2,1.4-3.1,3.9C20.6,182.6,21.9,181.5,23.3,180.6z"/>
		<path fill="none" d="M120.9,179.5c-0.5-1.9,2-5.1,4.2-5.4c0,0,0.7,0.8,0.8,0c-0.3-0.1-0.8,0-0.8-0.4c-2.8,0.8-4.3,2.9-5,5.8
			C120.5,179.4,120.7,180,120.9,179.5z"/>
		<path fill="none" d="M129,177.9c2.7-1.3-1.3-2.8-2.7-3.5C126.9,175.9,131,176.1,129,177.9z"/>
		<path fill="none" d="M116.2,213c1.2-0.3,0.7,1.1,1.9,0.8c-0.4-0.8-1.7-0.6-1.5-1.9c0.8-0.4,0.6-1.7,1.9-1.5
			C117.8,208.6,116.3,211.6,116.2,213z"/>
		<path fill="none" d="M112,209.9c-0.3-1.1,1.6-1.9,0.8-2.3c-0.4,0.9-1.3,1.2-1.2,2.7c0.6,0.2,1,0.6,1.5,0.8
			C113.3,210.2,112,210.6,112,209.9z"/>
		<path fill="none" d="M121.6,195.6c1.1-1.7,2.1-3.6,3.5-5C123.4,191.8,122.3,193.5,121.6,195.6z"/>
		<path fill="none" d="M125.9,187.9c-1.7-1.4-3.4-2.7-5-4.2C122.2,185.5,123.8,186.9,125.9,187.9z"/>
		<path fill="none" d="M137.1,204.9c0.4-2.6-0.4-3.9-1.9-4.6c0,0.1,0,0.3,0,0.4C137,200.9,136.3,203.6,137.1,204.9z"/>
		<path fill="none" d="M129.7,182.5c-1.1-0.5-2-1.1-3.5-1.2C126.9,182.1,129.4,182.8,129.7,182.5z"/>
		<path fill="none" d="M114.7,204.9c1,0.1,0.3-1.5,1.5-1.2c0.4,1.1,0.4,2.7,1.2,3.5c-0.1-1.5-0.5-2.8-1.2-3.9
			C115,203.2,115.1,204.3,114.7,204.9z"/>
		<path fill="none" d="M96.6,110.4c-0.4,0.6-1.6,0.4-2.3,0.8c0,1.5,2.6,1.7,3.5,1.2C97.6,111.4,97.3,110.7,96.6,110.4z"/>
		<path fill="none" d="M108.1,100.4c0.3-1.2-0.4-1.4-0.4-2.3c-6.3-2.4-15-2.4-23.9-2.3c-1.1,2-0.8,4.1-1.2,6.2
			c-1,5.6-3.3,10.9-5,15.8c-0.4,0-0.5,0.3-0.8,0.4c0.2,2.2-1.3,2.6-1.9,3.9c0,0.4,0,0.8,0,1.2c-1.2,1.5-1.8,3.6-2.3,5.8
			c1.5,0,2.3-0.8,3.9-0.8c5.9,1.3,5.4,9.5,0.4,11.6c-2.1,0.8-4.5-0.8-5.4,1.9c-0.1,1,1,1,1.5,1.5c1.4,1.3,3,3.1,4.6,3.9
			c0.1,0.1,0.2,0.7,0.4,0.8c0.5,0.3,1.5,0.4,2.3,0.8c1.8,0.7,3,1.1,5,1.5c1,0.2,1.9,0.7,2.7,0.8c3.9,0.4,9-0.4,11.6-0.8
			c1.2-0.2,2.3,0.2,3.1,0c2.2-0.4,4.5-1.6,5.8-3.1c0.5-3.4-2-3.9-1.5-7.3c0-0.1,0-0.3,0-0.4c0.1,0,0.3,0,0.4,0
			c0.4-1.1,0.4-1.6,0-2.7c-1.6-1.1-4.6,1.8-5.4-0.8c2.6,0,2.9-2.2,4.6-3.1c1,0,2.2,0.1,2.7-0.4c-0.4-1-0.5-2.4-0.4-3.9
			c1.3-1.7,5.4-0.8,5.8-3.5c0-0.1,0-0.3,0-0.4c0.7,0,0.2-1.7,0-2.3c-0.1-0.2-0.7-0.6-0.8-0.8c-0.4-1.2,0.1-1.4-0.4-1.9
			c-0.8-0.9-1.2-2-1.5-2.7c-0.1-0.1-0.7-0.2-0.8-0.4c-0.3-0.4-0.5-1.1-0.8-1.5c-1.2-1.9-2.8-3.8-3.1-5.8c-0.3-2.8,1.4-4.9,0.8-8.5
			C108.1,100.6,108.1,100.5,108.1,100.4z M106.2,121.2c0.2,0.9-0.7,0.8-0.4,1.9c0,0.1,0,0.3,0,0.4c-1.4,0.7,1,2.8-0.4,3.5
			C103.8,126,104.6,121.6,106.2,121.2z M92.3,102.7c3.2-1.5,7.6-3.1,12-0.8c0.2,1.2-1,1-1.2,1.9c-4.8-2.7-10.9,0.5-15,1.9
			C88.3,104.2,90.6,103.5,92.3,102.7z M92.7,109.6c0.2-0.2,0.2-0.6,0.4-0.8c0.4-0.3,0.9-0.1,1.2-0.4c0.4-0.3,1.1-1.4,2.3-1.5
			c-1.7,1.9-3.3,3.9-6.2,4.6C90.3,110.4,92,110.3,92.7,109.6z M90.8,112.7c2.3-2.6,6.7-3.1,10-4.6c0.5-0.9,0.9-2,1.5-2.7
			c0.7,0.6-0.7,1.6,0.8,1.9c0.1-0.4,1.4-1.3,1.5-0.4c-0.4,1.1-1.7,1.3-2.7,1.9c-0.5,1.8-1.4,5.3-0.4,7.3c0,0.1,0,0.3,0,0.4
			c-0.2,0.7,1.1,1.6,0,1.9c-0.7-1.2-1-2.8-1.2-4.6C96.8,113.7,94.2,112.1,90.8,112.7z M106.6,131.2c-3.4,1-6.1,2.7-10.4,2.7
			c1.1-1.8,2.7-2.2,4.2-3.1c0.1,0,0.4-0.8,0.4-0.8c0.2,0,0.5,0.3,0.4,0.4c1-0.4,2.1-1.8,4.2-1.9c0-0.4,0.5-0.3,0.8-0.4
			C106.8,128.7,106.5,130.1,106.6,131.2z M112,125.8c-1.6,0-3.2-0.1-4.2,0.4c-0.7,0.1-0.7-0.3-0.8-0.8
			C107.9,124.9,111.9,123.6,112,125.8z"/>
		<path fill="none" d="M98.5,110.4c-0.1,1.1-0.1,2.1,1.2,1.9C99.3,111.7,99.7,110.3,98.5,110.4z"/>
		<path fill="none" d="M107.4,208c-0.5-1,1.5-1.2,0.4-1.5c-0.2,0.7-1.1,0.7-0.8,1.9c1.1,0,2.5,1.6,3.5,0.4
			C108.9,209,108.2,208.4,107.4,208z"/>
		<path fill="none" d="M112.8,199.1c-0.6,1.4-1.5,2.3-2.3,3.5c0.3,0,0.5,0,0.8,0C111.2,201.2,113.5,200,112.8,199.1z"/>
		<path fill="none" d="M57.6,221.1c-7.2,0.5-14.3-0.9-20.4,0.4c1.1,1.3,3.1,0.7,4.6,0.8c14.4,0.5,29.4-0.2,43.6-0.8
			c0.6,0,1.3,0.1,1.2-0.8C77.3,220.2,66.7,220.5,57.6,221.1z"/>
		<path fill="none" d="M33.7,220.3c-3.1-4.1-6.9-7.5-10.8-10.8C26.6,213.1,30.1,216.7,33.7,220.3z"/>
		<path fill="none" d="M26,210.3c0-3,0.5-3.1,0.4-6.2c1-1.2,2-2.3,3.1-3.5c4.8,3,3,8.2,3.5,15.4c1.5,0.3,3.6,0.7,5,0
			c0-3.8,0-7.7,0-11.6c1.1-1.5,1.9-3.2,3.9-3.9c0.7,1,2.3,1.8,2.7,3.5c0.9,3.5-0.5,8.7,0.4,12c2-0.2,3.3,0.3,5,0.4
			c0.5-5.6-1.8-14.1,3.1-15.4c1,0.8,2.3,1.8,2.7,3.5c0.9,3.5-1,8.8,0.4,12c1.2,0.9,3.3,0.2,4.6,0c0.5-3.7,0.3-7.8,0.4-12.7
			c1.1-0.9,1.4-2.7,3.1-3.1c0.8,1.3,2.2,1.7,2.7,3.5c0.9,3.5-1.1,8.9,0,12.3c1.9-0.2,4.5,0.4,5.8-0.4c0-4.2,0-8.5,0-12.7
			c1.2-0.9,1.5-2.7,3.1-3.1c1.3,1.5,3.5,2.2,3.1,5.4c1.5-0.1,1.5-1.6,1.9-2.7c-1.7-2.6-3-5.4-6.2-5c-2.5,0.3-2.5,3.4-5,3.9
			c-1.5-0.7-2.1-2.3-3.5-3.1c-1.3,0-2.6,0-3.9,0c-1.7,0.7-1.9,2.9-3.9,3.5c-1.3-0.6-2-2.7-3.9-3.1c-1.1-0.2-2.4,0-3.9,0.4
			c-1.4,0.6-1.6,2.5-3.5,2.7c-1.5-0.7-2.2-3.1-4.2-3.5c-1.5-0.3-2.5,0.3-4.2,0.8c-0.2,0.8-1,1.4-1.5,1.9c-0.5,0.6-0.8,1.6-1.9,1.5
			c-2.1-1.7-3.4-4.3-6.6-3.9c-0.5,0.1-0.8,0.5-1.2,0.8c-1.6,1.1-2.5,1.8-3.5,3.1C24.3,205.8,23,210.1,26,210.3z"/>
		<path fill="none" d="M24,218c1.9,2.2,4,4.3,6.2,6.2C28.3,222,26.3,219.9,24,218z"/>
		<path fill="none" d="M17.5,206.1c0.7,0.2,2.9,2.4,1.9,0.8c-1.1-0.4-1.6-1.2-2.7-1.5c-0.3,1.6,0.8,1.8,0.8,3.1
			C18.8,208,16.1,206.5,17.5,206.1z"/>
		<path fill="none" d="M30.6,193.7c-0.6,1.5-1.2,3.1-3.5,3.1c-1.9,0.1-1.3-2.3-2.3-3.1C24.3,198.4,30.9,197.9,30.6,193.7z"/>
		<path fill="none" d="M26.7,185.6c-1.8,2-4.8,0.8-6.2-0.8C21.4,186.9,25.5,188.2,26.7,185.6z"/>
		<path fill="none" d="M88.5,220c0.5-2.6,1.8-4.4,1.9-7.3c-1.1-0.6-2.4-0.9-4.2-0.8C86.9,214.6,87,218,88.5,220z"/>
		<path fill="none" d="M122.4,199.9c0.4-0.4,2.9-0.6,1.9-1.2c-0.8,0.5-2.1,0.5-2.3,1.5c1.6,1.9,3.3,3.7,6.6,3.9
			C126.1,203.1,123.3,202.4,122.4,199.9z"/>
		<path fill="none" d="M133.6,214.2c-1.4,0.8-3,1.3-3.9,2.7C130.9,215.8,132.6,215.4,133.6,214.2z"/>
		<path fill="none" d="M137.4,223.8c0.3,1.7-0.7,2.2-0.4,3.9C137.4,226.9,138.4,224.6,137.4,223.8z"/>
		<path fill="none" d="M100,175.2c-0.9,0.3-1,1.3-1.9,1.5c-0.6-0.3-2.2-1.6-2.7-0.8C97.4,176.9,99.2,177.6,100,175.2z"/>
		<path fill="none" d="M59.5,99.2c0.1,0.5-0.1,1.1,0.4,1.2c0.6-2.7-2.2-1.1-1.9,0.4C58.7,100.4,58.6,99.3,59.5,99.2z"/>
		<path fill="none" d="M37.5,225.4c0.5,2.4,2.6,3.3,3.1,5.8c-0.8-0.5-2.7-1.2-1.2,0c0.9-0.2,0.8,0.7,1.9,0.4
			c-0.6-2.7-2.9-3.5-3.5-6.2C37.8,225.4,37.7,225.4,37.5,225.4z"/>
		<path fill="none" d="M90.4,226.5c1-1.9,1.7-4.1,2.3-6.2c0.7-2.2,1.5-4.4,1.5-6.9c-1.2,0.3-1.4-0.4-2.3-0.4
			C90.5,216.9,87.9,222.1,90.4,226.5z"/>
		<path fill="none" d="M75,148.6c0.7,0.2,2.4,1,3.1,0c-2.9-1.1-5.2-2.8-8.9-3.1C69.7,147.4,73,148,75,148.6z"/>
		<path fill="none" d="M60.7,130.5c-0.4,1.8,2.3,0.5,1.9,2.3c0.2,1.5-1.6,1-1.9,1.9c1.3-0.3,2.5-0.6,2.3-2.3c0-1.3-2-0.6-1.9-1.9
			c0.5,0,1,0,1.5,0c0-0.1,0-0.3,0-0.4C61.7,130,61.1,130.1,60.7,130.5z"/>
		<path fill="none" d="M72.6,149c-1.9-0.2-2.4-1.7-4.6-1.5C68.3,149,71.3,149.7,72.6,149z"/>
		<path fill="none" d="M48.7,143.6c-2.1-2.4-7.2-0.7-7.3,2.3C42.2,143.4,46,141.9,48.7,143.6z"/>
		<path fill="none" d="M71.9,115.4c-1.3,1.2-1.5,3.3-2.3,5C70.7,119.1,71.2,117.2,71.9,115.4z"/>
		<path fill="none" d="M67.6,119.7c0.3-1.9,1.6-2.8,1.9-4.6C68.8,116.3,67.1,118.4,67.6,119.7z"/>
		<path fill="none" d="M62.2,113.5c-1.3,1.9-2.4,4-3.1,6.6C60.3,118,61.4,115.8,62.2,113.5z"/>
		<path fill="none" d="M46.8,145.9c0,0.8-1.1,0.5-0.8,1.5c0.3,0.3,1.1,0.6,1.2,0c-1.9-0.1,0.3-1,0-1.9c-0.7-1-2.8-1.1-3.1,0.4
			C44.6,145.3,46.5,144.5,46.8,145.9z"/>
		<path fill="none" d="M65.3,130.5c-0.7-1.3-1.9-2.2-4.2-1.9C62.6,129.1,64.5,129.3,65.3,130.5z"/>
		<path fill="none" d="M72.3,98.1c0,0.5-0.1,1.1,0.4,1.2c0-0.8,0-1.5,0-2.3c-0.3,0-0.5,0-0.8,0c0,0.5-0.5,0.5-0.4,1.2
			C71.8,97.8,72.2,97.6,72.3,98.1z"/>
		<path fill="none" d="M74.6,96.9c0,0.8,0,1.5,0,2.3c0.5-0.6,0.8-2.3,0.4-2.7c-1-0.1-1.3,0.5-1.2,1.5C74.4,98.1,74,97,74.6,96.9z"/>
		<path fill="none" d="M70.7,143.2c-0.5,2.1,1.5,1.8,2.7,2.3C73.2,144.1,72.1,143.5,70.7,143.2z"/>
		<path fill="none" d="M62.6,147.8c-3.7,0.7-6.6-1.3-5-4.6c-0.3,0.1-0.4,0.4-0.8,0.4C55.9,147.6,59.6,149,62.6,147.8z"/>
		<path fill="none" d="M62.2,142.8c0.4,1.1-0.6,2.6,0,2.7c2-3.1-3-5.6-4.6-3.9C59,141.1,61.2,141.8,62.2,142.8z"/>
		<path fill="none" d="M47.6,149.7c-2.9,0.5-3.7-1-4.6-2.3C43.1,149.3,45.5,151,47.6,149.7z"/>
		<path fill="none" d="M58.8,138.6c-1.2-0.2-1.7,0.3-1.5,1.5C58.2,140.1,58.7,139.5,58.8,138.6z"/>
		<path fill="none" d="M38.7,143.6c0.3-0.3,0.8-0.1,1.2-0.4c1.3-1.1,2.7-2.7,3.9-3.9c0.5-0.6,0.6-2.1,1.9-1.5c0.5,1-1.5,1.2-0.4,1.5
			c0-0.2,0.1-0.5,0.4-0.4c0.2-0.6,0.6-1,0.8-1.5c-2.2-0.8-2.5,1.5-3.5,2.3c-1.7,1.5-3.6,2.8-5,4.6C38.4,144.3,38.4,143.8,38.7,143.6
			z"/>
		<path fill="none" d="M42.6,137c0,1.4-1.1,1.7-1.5,2.7c0.4-0.1,0.6-0.4,0.8-0.8c0.1,0,0.3,0,0.4,0c0.2-0.8,1-1.1,0.8-2.3
			c-2.1,0.1-2.4,2-3.9,2.7C40.9,139.2,40.8,137.1,42.6,137z"/>
		<path fill="none" d="M53.7,145.9c0-0.3,0-0.5,0-0.8c-1-0.3-1.5,1.2-2.3,1.9c-0.9,0.9-2.3,2.4-3.5,2.3
			C50.4,150.5,51.6,145.1,53.7,145.9z"/>
		<path fill="none" d="M52.2,137c-0.7,1.8-1.9,3-2.7,4.6c0.1,0,0.3,0,0.4,0C50.4,140.1,52.7,138.3,52.2,137z"/>
		<path fill="none" d="M54.9,137.4c0,1.2-1,1.3-1.2,2.3c1.1-0.2,1.1-2.6,2.3-1.5c-0.2,1.4-1,2.1-1.5,3.1c0.2,0,0.5-0.1,0.4-0.4
			c0.1,0,0.3,0,0.4,0c0.3-1,1.1-1.5,1.2-2.7C55.7,138.2,56,137.1,54.9,137.4z"/>
		<path fill="none" d="M53.4,140.1c-0.6,1.7-2,2.6-2.7,4.2c0.1,0,0.3,0,0.4,0C51.5,142.8,53.9,141.3,53.4,140.1z"/>
		<path fill="none" d="M55.7,147.4c0,0.1,0,0.3,0,0.4c1.7,2.6,7.4,2.3,9.6,0.4c0.1-0.3,0.4-0.4,0.4-0.8
			C63.7,149.7,57.5,150.2,55.7,147.4z"/>
		<path fill="none" d="M57.6,112.3c-1.1,1.6-2,3.4-2.7,5.4C56,116.2,56.9,114.3,57.6,112.3z"/>
		<path fill="none" d="M52.2,128.2c-0.1-0.6,0.1-1.4-0.4-1.5c0,0.1,0,0.3,0,0.4c-0.1,1,0.1,1.7,1.2,1.5c0.1-1.1,0.7-1.6,0.8-2.7
			C52.7,126.1,53.4,128,52.2,128.2z"/>
		<path fill="none" d="M58,117c-1,1-1.3,2.8-2.3,3.9C57,120.1,57.5,118.5,58,117z"/>
		<path fill="none" d="M57.2,107.3c-1,1.3-1.8,2.9-2.3,4.6C55.9,110.6,56.7,109.1,57.2,107.3z"/>
		<path fill="none" d="M61.8,135.9c-4.4,1.2-7.6-1.8-6.6-7.3C53,133.5,57.9,138.3,61.8,135.9z"/>
		<path fill="none" d="M50.3,124.3c-0.9,0.1-0.2,1.6-0.4,2.3c1.3,0.3,1.4-0.6,1.5-1.5c-0.4,0.3-0.6,0.7-0.8,1.2
			C49.8,126.3,50.5,124.9,50.3,124.3z"/>
		<path fill="#B32621" d="M51,91.5c-1.1-0.4-1.5-1.6-1.9-2.3c-0.7-1.2-2.1-2.3-2.7-3.1c-0.2-0.3-0.1-0.9-0.4-1.2
			c-0.4-0.4-1.1-0.7-1.5-1.2c-1.1-1.2-2-2.6-3-3.6h-9.2c0.1,0.1,0.1,0.2,0.3,0.2c2.2,2.8,4.5,5.1,6.9,8.1c1.5,1.8,5.4,7.2,7.7,7.7
			c0.6,0.1,2.1-0.4,3.5-0.8c2.6-0.7,5.4-1.4,8.1-1.9c11.1-2.2,25.7-4.1,38.2-2.7c1.4,0.2,2.6,0.2,3.9,0.4c0.7,0.1,1.1,0.6,1.9,0.8
			c2.6,0.6,4.8,0.5,7.7,0.8c2.3-4.2,4.9-8.3,7.2-12.5h-5.2c-1.1,1.1-1.8,2.5-2.8,4c-1,1.6-2,4.2-3.9,4.6c-0.6,0.1-2-0.2-2.7-0.4
			c-0.9-0.2-1.6-0.6-2.3-0.8c-2.2-0.4-3.9-0.2-6.2-0.4c-1.4-1.9-1.8-4.8-2.8-7.1h-4.7c-0.9,2.4-1.4,5.2-3.2,6.7
			c-4.4,0.1-8.3,0.7-12.7,0.8c-0.6-1-1.1-2.7-1.9-4.2c-0.6-1.1-1.2-2.5-1.9-3.3h-3.8c-0.8,2.5-0.6,6.1-1.3,8.7
			C58.7,89.9,54.8,90.6,51,91.5z"/>
		<path fill="#B32621" d="M48.3,82.3c1,1.5,1.7,2.4,2.7,3.5c0.8,0.9,1,1.3,1.9,1.5c0.5,0.1,2.3-0.2,3.1-0.4c0.7-0.1,1.7-0.7,2.7-0.8
			c0.6-1.6,1-4.3,0.9-6H46.8c0.2,0.5,0.5,0.9,0.8,1.3C47.8,81.8,48.1,81.9,48.3,82.3z"/>
		<path fill="#B32621" d="M104.3,84.9c1.3-1.3,2.6-2.6,3-4.8h-11c0.4,1.3,0.8,2.6,1.4,3.6C99.9,83.8,101.5,84.6,104.3,84.9z"/>
		<path fill="#B32621" d="M81.5,83.4c0.2-1.3,1-2,1.1-3.3H72c0.3,1.4,1,2.4,1.5,3.6C77.2,83.9,78,83.3,81.5,83.4z"/>
		<path fill="#B32621" d="M38.7,147.8c-1.7,0-3.3,0-5,0C34.5,148.5,37.9,148.5,38.7,147.8z"/>
		<path fill="#B32621" d="M34.1,172.1c0.2,0.7,0.2,1.3,0.4,1.9c0.5,1.5,1.5,3.6,1.9,4.6c0.8,2,1.2,3.5,1.9,5
			c1.1,2.5,2.3,5.2,3.5,7.3c0.2,0.4,0.9,0.7,1.2,1.2c0.6,1,1,2.2,1.5,3.1c0.2,0.4,0.4,0.9,0.8,1.5c0.8,1.4,1.7,3.6,3.5,2.7
			c1.1-1.9-1-3.4-1.5-4.2c-0.4-0.6-0.6-1.2-0.8-1.5c-2.9-4.9-5.2-9.8-7.3-15c-0.5-1.1-1.2-2.1-1.6-3.1c-0.7-2.1-0.8-4.3-1.5-6.6
			s-1.7-4.6-2.3-6.9c-0.6-2.2-1.4-4.7-1.9-6.9c-0.6-2.5,0.1-5.9-2.3-6.9c-0.4,0-0.8,0-1.2,0c0,0.5-0.5,0.5-0.4,1.2
			c1.6,4.5,2.2,9.5,3.5,14.3C32.1,166.5,33.6,170,34.1,172.1z"/>
		<path fill="#B32621" d="M66.9,155.5c-2.2-0.2-4.5-0.4-6.6-0.8c-4.4-0.7-8.7-2.3-12.3-2.3c-2.9,0-4.6,0.7-6.2-1.2
			c-1.3-0.2-0.8-2.1-2.3-1.9c-2.3,0-4.6,0-6.9,0c0.9,6.8,2.4,13,4.6,18.5c1.8,0.1,3.5,0.5,5.4,0.8c1.7,0.3,3.7,0.4,5.4,0.8
			c0.5,0.1,0.7,0.6,1.2,0.8c1.8,0.6,3.8,0.6,5.8,0.8c9.8,1,19.7,1.5,29.7,1.2c1.7-1.7,2.6-4.1,4.2-5.8c0.1-1.5-1.7-1.2-1.5-2.7
			c4.1-0.9,6.2-3.9,7.7-7.3C86,156.7,76,156.5,66.9,155.5z M50.7,162.9c-2.2,0.1-1.9-2.2-4.2-1.9c-0.7,0.5,0.5,2.5-0.4,3.5
			c-0.9-0.2-1.2,0.7-1.9,0.8c-2.4,0.1-4.6-3.6-6.2-5.4c-0.7-0.8-1.8-1-1.5-1.9c-0.1-0.9,1.6-1.8,2.7-2.3c2.2-1.1,4.8-2.4,7.7-0.8
			c0.6,1.2,0.3,2.6-0.4,3.5c1,0.7,3.5,0.4,4.6,0C51.2,160.1,50.9,161.5,50.7,162.9z M68,165.6c-1.5-0.4-2.8-1.1-3.9-1.9
			c-1.5,0.1-0.2,2.8-1.2,3.5c-4.5,1.2-6.7-3-9.3-5c0.1-1.4,1.7-2,2.7-2.7c1.7-1.2,3.1-2.5,6.6-2.3c0.2,0.6,0.6,0.9,1.2,1.2
			c0.2,1.5-0.1,2.5-0.8,3.1c2,0.2,3.3-0.3,5-0.4C68.6,161.5,68.5,164.5,68,165.6z M85.4,166.7c-2.2,0-3.1-1.2-5-1.5
			c-1.1,0.6,0.5,1.5,0,2.7c-3.5,3.6-7.4-1.8-9.6-4.2c0.1-1.1,1.6-1.5,2.7-2.3c2-1.4,4.6-3.1,6.9-1.5c0.6,1.2,0.2,2.1,0,3.5
			c2.4,0.3,3.3-0.8,5-1.2C85.4,163.6,85.4,165.2,85.4,166.7z"/>
		<path fill="#B32621" d="M15.2,189.5c1.1,2.4,2.4,4.7,3.5,6.9c0.5,1.1,1,2.4,1.5,3.5c0.6,1.1,1.2,2.7,2.3,3.1
			c0.7-1.3,2.3-1.8,2.7-3.5c-2-2.9-3.3-6.1-4.6-9.3c-2.1-4.8-4-9.6-5.4-14.7c-0.9-3.4-1.4-6.9-2.3-10.4c-0.3-1.1-0.7-2.1-1-3.2V180
			c0.2,0.6,0.4,1.1,0.6,1.7C13.4,184.4,14.1,187,15.2,189.5z"/>
		<path fill="#171717" d="M46.4,158.2c0.7-0.9,1-2.2,0.4-3.5c-3-1.6-5.5-0.4-7.7,0.8c-1.1,0.6-2.8,1.4-2.7,2.3
			c-0.3,0.9,0.9,1.1,1.5,1.9c1.6,1.8,3.8,5.5,6.2,5.4c0.7,0,1-0.9,1.9-0.8c0.9-1-0.3-3,0.4-3.5c2.4-0.3,2.1,2.1,4.2,1.9
			c0.3-1.4,0.5-2.8,0.4-4.6C50,158.6,47.4,159,46.4,158.2z"/>
		<path fill="#B32621" d="M112.4,160.9c-0.4,0.6-0.7,1.6-1.2,2.3c-0.4,0.6-1.1,0.9-1.5,1.5c-0.2,0.3-0.2,0.9-0.4,1.2
			c-0.6,1-1.4,1.9-1.9,2.7c-0.4,0.6-1.1,1.3-1.5,1.9c-1.1,1.5-2.2,3.5-3.1,4.6c-0.2,0.3-0.5,0.5-0.8,0.8
			c-5.5,7.1-10.8,15.7-15.8,22.8c-1.1,1.5-1.9,2.7-2.7,3.9c-0.2,0.4-0.1,0.8-0.4,1.2c-1.6,2.1-3.3,4.6-4.6,6.6
			c-1.3,2.1-3.4,3.7-3.9,6.2c2.4,0.7,3.3-0.6,4.6-1.9c1.1-1.1,2-2.8,2.7-3.9c1.8-2.7,3.7-5.7,5.4-8.1c0.4-0.6,1.1-1,1.5-1.5
			c1.1-1.6,1.9-3,2.7-4.2c1-1.6,1.8-2.6,2.7-3.9c1.1-1.6,1.8-3,2.7-4.2c1-1.4,1.9-2.6,2.7-3.9c1.4-2.1,2.9-3.8,4.2-5.8
			c1.4-2.1,2.9-4.1,4.2-5.8c0.8-1,1.4-2.3,1.9-3.1c0.1-0.2,0.6-0.5,0.8-0.8c1-1.5,1.8-2.9,2.7-4.2c1.2-1.8,2.7-3.7,3.5-5.4
			c0.1-0.1,0.7-0.2,0.8-0.4c0.4-0.6,0.8-1.5,1.2-2.3c0.3-0.7,1.1-1.5,0.4-2.3c-0.9,0.2-0.8-0.7-1.9-0.4c-1.7,1.6-3.3,4.1-4.2,5.8
			C112.9,160.6,112.6,160.6,112.4,160.9z"/>
		<path fill="#B32621" d="M96.6,160.9c2.1-0.7,3.3-2.4,3.5-5C97.4,155.9,95.8,158.8,96.6,160.9z"/>
		<path fill="#B32621" d="M153.3,176c-2.9-1.2-4.8-3.6-7.3-5.4c-2.5-1.7-5.1-3.4-7.7-5c-5.3-3.3-10.8-6.4-16.6-9.3
			c-0.5,0-0.9,0.2-1.2,0.4c-0.1,0.3,0,0.8-0.4,0.8c0.5,1.7,2.6,2,3.9,2.7c3.2,1.7,5.9,3.3,8.5,5c1.4,0.9,2.8,1.8,4.2,2.7
			c1.5,1,4.1,2.2,5,3.1c0.8,0.7,1.3,1,1.9,1.5c1.1,0.9,1.6,1.5,2.7,2.3c0.7,0.5,1.3,1.1,1.9,1.5c0.7,0.5,1.7,0.7,2.3,1.2
			c0.7,0.5,0.8,1.8,1.9,1.5c0.1,1.5,1.7,2.1,2.7,3.1c0.9,0.8,1.6,2.6,2.7,2.4v-3C156.9,179.2,154.1,178.5,153.3,176z"/>
		<path fill="#171717" d="M63.4,161.3c0.7-0.6,1-1.6,0.8-3.1c-0.6-0.2-0.9-0.6-1.2-1.2c-3.4-0.2-4.8,1.1-6.6,2.3
			c-1,0.7-2.6,1.3-2.7,2.7c2.6,2,4.8,6.2,9.3,5c0.9-0.6-0.3-3.4,1.2-3.5c1.1,0.9,2.4,1.5,3.9,1.9c0.5-1.1,0.6-4,0.4-4.6
			C66.7,161,65.4,161.6,63.4,161.3z"/>
		<path fill="#171717" d="M80.4,163.2c0.2-1.4,0.6-2.2,0-3.5c-2.4-1.6-4.9,0.2-6.9,1.5c-1.1,0.8-2.6,1.2-2.7,2.3
			c2.2,2.4,6.1,7.8,9.6,4.2c0.5-1.2-1.1-2.1,0-2.7c1.9,0.3,2.8,1.6,5,1.5c0-1.5,0-3.1,0-4.6C83.7,162.5,82.7,163.6,80.4,163.2z"/>
		<path fill="#B32621" d="M94.6,163.6c-1-0.4-1.2,0.2-1.9,0.8c-1.3,1.1-2,2.5-1.9,4.6C93.3,168.5,94.4,166.4,94.6,163.6z"/>
		<path fill="#B32621" d="M153.3,188.7c-0.1,0.5,0.1,1.1-0.4,1.2c-2.5-2.2-5-4.7-7.3-6.6c-0.5-0.4-1-0.4-1.5-0.8
			c-0.5-0.4-0.7-1.2-1.2-1.5c-1.7-1.4-3.9-2.6-5.8-3.9c-0.4-0.3-0.8-0.9-1.2-1.2c-0.6-0.4-1.1-0.5-1.5-0.8c-0.7-0.4-1.9-0.8-2.3-1.2
			c-0.2-0.2-0.2-1-0.4-1.2c-0.5-0.3-1.3-0.4-1.9-0.8c-2-1.1-3.9-2.2-5.8-3.1c-2.6-1.3-5.2-3.1-8.1-3.9c-0.5,0-0.9,0.2-1.2,0.4
			c0,0.5-0.5,0.5-0.4,1.2c1.9,1.3,4.2,2.1,6.2,3.1c6.6,3.3,12.2,7,17.7,11.2c3.7,2.8,7.1,5.7,10.4,8.9c2.9,2.8,5.4,6.1,7.7,8.9
			c0.3,0.4,0.9,1.2,1.5,1.2v-0.1V197c-0.9-2.3-3.8-4.1-4.7-6.8C154.6,190.6,154,188.5,153.3,188.7z"/>
		<path fill="#B32621" d="M128.6,168.3c0,0.7-1.3,0.3-1.2,1.2C128.1,170.6,129.8,168.9,128.6,168.3z"/>
		<path fill="#B32621" d="M134,171.7c0,0.7-1.3,0.3-1.2,1.2c0.7-0.1,0.8,0.4,1.5,0.4C134.3,172.7,134.5,171.9,134,171.7z"/>
		<path fill="#B32621" d="M88.1,173.7c0.2-0.7,1.1-1.1,0.4-1.5c-2.4,0.8-3.7,2.7-4.2,5.4C86.8,177.7,87.5,175.4,88.1,173.7z"/>
		<path fill="#B32621" d="M142.5,172.9c-1.1,0.3-0.8-0.8-1.5-0.8c0,0.7-0.1,1.2-0.4,1.5C141.5,173.7,142.1,173.5,142.5,172.9z"/>
		<path fill="#B32621" d="M83.1,180.2c-3.1-0.1-3.7,2.5-4.2,5C81.7,185.1,82.6,182.9,83.1,180.2z"/>
		<path fill="#B32621" d="M73.8,186.8c-9.3-0.1-17.8,0.1-24.7-1.5c-0.4-0.1-0.5-0.7-0.8-0.8c-1.6-0.4-4-0.2-5-0.8c0,0.5,0,1,0,1.5
			c1.1,1.3,3.2,1.1,4.6,1.5c0.6,0.2,1,0.7,1.5,0.8c1.6,0.3,3.6,0.2,5.4,0.4c3.4,0.4,6,0.7,9.6,0.8C68.4,188.8,72.9,189.8,73.8,186.8
			z"/>
		<path fill="#B32621" d="M77.7,187.2c-2.9,0.4-4,2.7-4.2,5.8C76.4,192.7,77.9,189.5,77.7,187.2z"/>
		<path fill="#B32621" d="M68.8,194.1c-6.2,0.2-15.2,0.1-20.8-1.5c-0.2,0-0.5,0.1-0.4,0.4c0.6,0.3,1.2,0.6,1.2,1.5
			c2,0.2,4.2,0.6,6.2,0.8c1.6,0.1,6.5,0.6,6.9,0c0.2-0.3,0.5,0.4,0.4,0.4C64.9,196.1,68.3,196.1,68.8,194.1z"/>
		<path fill="#B32621" d="M69.9,199.5c1.2-0.8,1.8-2.1,1.9-3.9c-1.7,0.4-3,1.1-3.5,2.7C69.2,198.5,69.2,199.4,69.9,199.5z"/>
		<path fill="#B32621" d="M121.6,218c-0.9-0.7-2-1.1-2.7-1.5c-1.5-0.9-3.1-1.8-4.6-2.7c-2.5-1.4-5.1-2.7-7.7-3.9
			c-5.5-2.4-11.7-5.6-17.7-6.2c-0.9,0.4-1.4,1.2-1.5,2.3c4,0.5,7.7,1.7,11.2,3.1c3.4,1.3,7,2.7,10,4.2c2.9,1.4,5.8,3.4,8.5,4.6
			c0.1,0.1,0.2,0.7,0.4,0.8c0.7,0.5,1.6,0.7,2.3,1.2c0.7,0.5,1.3,1.1,1.9,1.5c1.3,1,2.9,2.8,4.2,2.3
			C124.3,222.1,123.5,219.7,121.6,218z"/>
		<path fill="#B32621" d="M125.1,226.5c-0.8-0.5-0.9-1.4-1.5-1.9c-0.2-0.1-0.6,0.1-0.8,0c-0.1-0.1-0.2-0.7-0.4-0.8
			c-0.5-0.4-1-0.4-1.5-0.8c-1.4-1-2.8-2-3.9-2.7c-0.8-0.6-1.6-1.4-1.9-1.5s-0.9,0.2-1.2,0c-0.4-0.2-0.8-0.9-1.2-1.2
			c-3.8-2.2-7.9-3.8-12-5.8c-4.3-2-9.5-3.5-13.9-4.2c-0.4,0-0.5,0.3-0.8,0.4c0,0.4,0,0.8,0,1.2c0.3,1.3,1.9,1.3,2.7,1.5
			c1.1,0.3,2.3,0.5,3.5,0.8c2.8,0.8,5.5,1.8,7.7,2.7c0.4,0.2,1.1,0.6,1.5,0.8c0.9,0.4,2.1,0.7,3.1,1.2c1.8,0.8,3.6,2.1,5.4,3.1
			c0.5,0.3,1,0.1,1.5,0.4c0.4,0.2,0.7,0.9,1.2,1.2s1,0.1,1.5,0.4c0.5,0.3,0.7,0.8,1.2,1.2c1.8,1.1,3.4,2.1,5,3.5
			c2.5,2,4.8,4,7.1,6.2h3.8C129.3,229.8,127.2,227.9,125.1,226.5z"/>
		<path fill="#171717" d="M67.6,231.9h12.8l0,0C78.5,226.8,69.7,227.2,67.6,231.9z"/>
		<path fill="#F7CC00" d="M141.7,96.1c2,1.6,4.6,3.3,6.2,4.2c0.1-0.5,0.8-0.4,1.2-0.8c0.2-1.7-0.7-2.2-1.2-3.1
			c0-0.2-0.1-0.5-0.4-0.4c-0.2,0.8-0.5-0.2-0.8-0.4c-1.5-1.1-2.6-1.7-3.9-2.7c-1.5-1.3-3.4-2.7-3.9-4.6c-0.8-7.1,8-5.2,7.3-0.4
			c-0.3,2-2.2,2.1-3.9,3.5c1,0.6,1.9,1.4,3.1,1.9c2.3-1.3,4.5-4.7,3.1-8.5c-0.8-1.6-2.2-2.7-3.5-3.9c-6.2-2-10.1,3.3-8.9,8.1
			C137.2,92.6,138.7,93.8,141.7,96.1z"/>
		<path fill="#F7CC00" d="M139.4,100c2.2,2.2,6.5,6.3,8.9,6.6c0.4-0.5,0.6-1.2,1.2-1.5c0-2.6-1.8-3.2-3.1-4.2
			c-0.2-0.1-0.2-0.6-0.4-0.8c-0.3-0.3-0.8-0.1-1.2-0.4c-1.9-1.5-3.5-3.4-5.8-4.2c0-0.2,0-0.5-0.4-0.4
			C135.8,96.9,137.6,98.2,139.4,100z"/>
		<path fill="#F7CC00" d="M71.1,120.4c-1.8,0.6-1.5,2.7-1.9,3.8c0,0.1-0.7,0.2-0.8,0.4c-0.2,0.3,0.1,0.8,0,1.2
			c-0.1,0.3-0.6,0.8-0.8,1.2c-0.6,1.7-1.2,3.7-1.2,5.4c0.3,5,5.6,8.2,9.6,6.6c2.1-0.8,4.5-3.7,3.5-6.9c-0.3-1-2.6-3.1-4.6-2.7
			c-2.2,0.4-4.7,4.7-0.8,5.4c1,0.1,1.2-0.6,1.5-1.2c0.5-1.1-1.2-2.1,0.4-1.9c1.8-0.1,1.9,3,1.2,4.2c0.2,0.7-1.2,2-2.3,2.3
			c-2.9,0.7-5.7-1.5-6.2-3.5c-1.1-10.1,5.6-15.4,7.3-23.9c0.6-1.9,1-3.9,1.9-5.4c0.6-1.3,1.2-3.1,1.5-5c0.2-1.3,1.2-4-0.4-4.2
			c-1.6,4.3-1.9,8.7-3.5,12.7C74.2,112.7,72.2,116.4,71.1,120.4z"/>
		<path fill="#F7CC00" d="M67.2,122c-1,2-2.6,4.2-1.9,6.6c1.5-0.3,1.8-2.6,2.3-3.9c0.7-1.6,1-3.1,1.9-4.2c0.8-1.7,1.1-3.8,2.3-5
			c0.6-0.7,0.5-1.5,0.8-2.3c0-0.1,0.7-0.6,0.8-0.8c0.3-0.7,0.5-1.6,0.8-2.3c1.4-3.6,2.7-7.6,3.1-11.6c0.1-0.5,1.3-2-0.4-1.9
			c-1.7,1.8-1.1,4.1-1.5,6.2c-0.2,1-0.9,2-1.2,3.1C72.3,112.1,69.9,117,67.2,122z"/>
		<path fill="#F7CC00" d="M61.5,117.3c-0.1,0.2,0.1,0.6,0,0.8c-0.1,0.1-0.7,0.2-0.8,0.4c-0.3,0.5-0.1,1-0.4,1.5
			c-0.3,0.6-0.9,0.7-1.2,1.2c-0.7,1.3-1.3,3.4-1.9,5.4c-0.6,1.9-1.7,4.3-1.2,6.2c0.2,0.8,1.2,2.9,2.7,1.9c-1.6-1.9-1.3-4.9-0.8-6.6
			c0.8-2.3,2.2-4.6,3.5-6.9c3.8-7.1,7.1-15.3,8.9-23.5c-0.5,0-0.5-0.5-1.2-0.4c0,0.5-0.5,0.5-0.4,1.2c-1.3,5.3-4.2,12.8-6.6,17.7
			C62,116.7,61.7,116.9,61.5,117.3z"/>
		<path fill="#F7CC00" d="M64.2,105.8c-1.5,3.9-3.5,7.8-5,10.8c-0.5,1.1-0.6,2.2-1.2,3.1c-0.5,0.8-1.7,1.7-1.9,2.3
			c-1,3.5-2.8,7.4-2.7,11.6c1.3,1.2,2.9,3.8,4.6,4.2c4.7,1.1,9.1-2.1,7.3-7.3c-0.8-1.2-2.7-1.4-4.2-1.9c-1.7,0.7-3,1.9-2.7,4.6
			c1,0.2,1,1.6,2.3,1.5c0.3-0.9,2.2-0.4,1.9-1.9c0.4-1.8-2.3-0.5-1.9-2.3c0.5-0.3,1-0.5,1.9-0.4c0,0.1,0,0.3,0,0.4
			c2.1,1.1,1.1,4.9-0.8,5.4c-3.9,2.4-8.8-2.4-6.6-7.3c1.3-2.9,2.2-6,3.9-8.5c0.7-2.5,1.8-4.6,3.1-6.6c2.4-4.7,4.8-9.3,5.4-15.8
			c-2.3,0.9-1.8,3.7-2.3,5.4c-0.1,0.2-0.6,0.8-0.8,1.2C64.3,104.8,64.3,105.4,64.2,105.8z"/>
		<path fill="#F7CC00" d="M56.8,115.8c-1.4,3.1-2.8,5.3-3.9,8.1c-0.4,0.9-0.9,2.4-1.2,2.7c0.5,0.1,0.3,1,0.4,1.5
			c1.2-0.1,0.5-2,1.5-2.3c0.6-1.7,1.6-3,1.9-5c1-1.1,1.3-2.8,2.3-3.9c2.6-4,4.2-9.2,5.8-13.9c0.5-1.6,1.9-3.3,1.2-5
			c-1.6,0-1.3,1.9-1.5,2.7c-0.4,1.1-0.8,2.1-1.2,3.1C60.7,108.4,58.7,111.8,56.8,115.8z"/>
		<path fill="#F7CC00" d="M58,107.7c-0.9,2.3-1.7,4.7-2.7,6.6c-0.2,0.5-0.4,1-0.8,1.5c-0.2,0.3-1,0.8-1.2,1.2
			c-0.2,0.4-0.2,1.4-0.4,1.9c-0.5,1.1-1.2,1.4-1.5,1.9c-0.7,1.1-0.9,2.4-1.2,3.5c0.2,0.6-0.5,2,0.4,1.9c0.2-0.5,0.4-0.9,0.8-1.2
			c0.9-2.7,2.5-4.7,3.5-7.3c0.7-2,1.6-3.8,2.7-5.4c2.2-4.1,4.2-8.4,5-13.9c-2-0.5-1.6,1.9-1.9,2.7c-0.2,0.6-0.5,0.9-0.8,1.5
			C59.2,104.5,58.7,105.9,58,107.7z"/>
		<path fill="#F7CC00" d="M56.8,103.5c-1.1,3-2.2,5.4-3.5,8.1c-1.3,2.8-2.8,6-3.9,8.5c-0.1,0.1-0.7,0.3-0.8,0.4
			c-0.7,1-1,2.1-1.2,3.5c0,0.3-1.2,1.7,0.4,1.5c1.8-0.5,1.7-2.9,2.3-4.6c1.6-0.6,1.4-2.2,1.9-3.5c0.2-0.5,0.9-0.6,1.2-1.2
			c0.8-1.6,1.1-3.1,1.5-4.2c0.6-1.8,1.3-3.3,2.3-4.6c1.1-2.1,1.6-4.8,2.7-6.9c-0.5-0.1-0.3-0.7-0.4-1.2c-0.9,0.1-0.9,1.2-1.5,1.5
			c-0.7,0-0.2,1-0.4,1.5C57.5,102.5,57,103.1,56.8,103.5z"/>
		<path fill="#F7CC00" d="M137.8,105.4c1.5,1.3,3.1,2.6,4.6,3.9c1.6,1.3,3,3,5.4,3.5c2.3-3-1-5.9-3.1-6.9c0,0.4-0.5,0.3-0.8,0
			c-0.3-0.2-0.5-0.1-0.8-0.4c-1.6-1.3-3-3.8-5.8-3.9c-0.1,0.3,0,0.8-0.4,0.8C135.9,103.3,138.6,103.6,137.8,105.4z"/>
		<path fill="#F7CC00" d="M44.9,136.2c4.1,0.6,7.2-1.2,7.3-4.2c0.1-1.2-0.3-1.3-0.8-2.7c-1.4-0.6-2.3-1.5-3.5-2.3
			c-1.7,0.2-2.8,1.1-3.9,1.9c-1.3,2.6,0.6,5.3,3.9,4.6c1.1-0.6,1.9-3.4,0-3.9c-1.4-1.5-1.5,1.5-2.7,1.5c-0.1-1.8,0.7-2.7,2.3-2.7
			c2,0.2,3,3.1,1.9,5c0.4,1.1-1.9,1.8-4.2,1.5c-1.1-0.1-3.1-0.8-3.5-1.2c-0.4-0.3-0.1-0.8-0.4-1.2c-0.2-0.3-1.1-0.6-0.4-0.8
			c-2-3.4-1.1-7.2,0-9.6c0.9-2,1.9-3.5,2.7-5.4c2.2-5.1,5.7-10.3,6.9-15.4c-1.6-0.1-2.3,2.2-2.7,3.1c-0.4,1-0.8,1.9-1.2,2.7
			c-0.2,0.5-0.6,0.8-0.8,1.2c-1.7,3.6-3.4,7.2-5,10.4c-0.2,0.4-0.1,1.1-0.4,1.5c-0.2,0.3-1,0.3-1.2,0.8c-0.4,0.9-0.5,2.4-0.8,3.5
			c-0.4,1.4-0.8,2.4-0.8,3.5C38,132.2,41.1,135.7,44.9,136.2z"/>
		<path fill="#F7CC00" d="M141.7,114.7c1.8,1.5,3.7,3.4,6.2,4.2c0.5-0.6,1-1.3,0.8-2.7c-0.9-1.9-2.9-2.5-3.9-4.2
			c-2.3-1.5-3.7-3.8-6.6-4.6c-0.4,0.5-0.6,1.2-1.2,1.5C137.6,111.6,139.9,113.1,141.7,114.7z"/>
		<path fill="#F7CC00" d="M142.1,121.6c1.7,1.4,3.6,3.5,5.8,3.5c0.3-0.8,1.6-1.5,0.8-2.3c-1.2-2.8-4-4-5.8-6.2
			c-1.5-1.2-2.8-2.6-4.6-3.5C134.9,116.6,140.3,120.1,142.1,121.6z"/>
		<path fill="#171717" d="M100.8,87.6c0.8,0.1,1.4,0.6,2.3,0.8c0.7,0.2,2.1,0.5,2.7,0.4c1.9-0.4,2.8-3,3.9-4.6c1-1.5,1.7-2.9,2.8-4
			h-5.1c-0.4,2.2-1.7,3.5-3,4.8c-2.7-0.3-4.4-1.1-6.5-1.2c-0.6-1.1-1-2.3-1.4-3.6H92c1,2.3,1.4,5.2,2.8,7.1
			C96.9,87.4,98.6,87.3,100.8,87.6z"/>
		<path fill="#171717" d="M71.1,87.6c4.4-0.1,8.4-0.6,12.7-0.8c1.8-1.5,2.3-4.3,3.2-6.7h-4.4c-0.2,1.3-0.9,2-1.1,3.3
			c-3.6-0.1-4.3,0.5-8.1,0.4c-0.5-1.2-1.2-2.2-1.5-3.6h-4.6c0.7,0.8,1.3,2.1,1.9,3.3C70,84.9,70.5,86.6,71.1,87.6z"/>
		<path fill="#171717" d="M102.7,91.9c-0.8-0.2-1.2-0.7-1.9-0.8c-1.2-0.2-2.5-0.2-3.9-0.4c-12.5-1.4-27.1,0.5-38.2,2.7
			c-2.7,0.5-5.5,1.2-8.1,1.9c-1.4,0.4-2.8,0.9-3.5,0.8c-2.4-0.5-6.2-5.9-7.7-7.7c-2.5-3-4.8-5.3-6.9-8.1c-0.1,0-0.2-0.1-0.3-0.2H31
			c0.4,0.4,0.8,1,1,1.7c5.7,6,11.3,12.1,16.2,18.9c-1.7,5.4-5,11.2-7.7,16.6c-0.4,0.9-0.7,1.9-1.2,2.7c-0.2,0.4-0.6,0.1-0.8,0.4
			c-0.1,0.2,0.1,0.6,0,0.8c-0.7,1.2-1.7,4.8-1.5,7.3c0.1,2.2,1.3,3.5,1.5,5.8c-0.7,0.3-1.2,0.9-1.5,1.5c-1.6,0.8-2.7-0.5-4.2-0.4
			c-5,0.4-7.9,5.7-5,11.2c-5.4,1.6-10.9,3.1-16.1,4.9V162c0.4,1.1,0.8,2.1,1,3.2c0.9,3.5,1.4,7,2.3,10.4c1.4,5.1,3.3,9.9,5.4,14.7
			c1.4,3.2,2.7,6.3,4.6,9.3c-0.4,1.7-2,2.1-2.7,3.5c-1.1-0.4-1.7-2-2.3-3.1c-0.6-1.1-1-2.4-1.5-3.5c-1.1-2.2-2.4-4.6-3.5-6.9
			c-1.1-2.4-1.8-5.1-2.7-7.7c-0.2-0.6-0.4-1.1-0.6-1.7v10.1c1.3,4,3.7,8,5.3,12c-1.9-0.4-3.6-1.4-5.3-2.4v10.7
			c0.2,0.3,0.4,0.7,0.3,1.3c-0.1,0-0.2,0.1-0.3,0.1v4.4c0.8-0.5,1.7-1.9,3-1.1c-0.4,1.4-1.9,2.2-3,3v1c1.1-0.7,2.2-1.4,3.3-2.1
			c1.8,0.2,1.9,2.2,3.1,3.1c0.7,1.3,1.8,2.1,2.3,3.5c-0.4,1.6-2.2,2.4-3.5,3.5c-1.8,1.5-3.3,2.9-5.3,4.5v0.1h1.5
			c1.5-1.5,3-3.2,5-4.7c1.2-0.9,2.4-2.3,4.2-1.9c-0.6,0.5,0.1,0.6,0,1.2c-0.3,2-3.1,3.7-5.1,5.4h5.7c0.2-0.1,0.3-0.3,0.5-0.4
			c0.6-0.9,1.5-2.8,2.7-1.9c0.7,1.1,0.1,1.7-0.6,2.3h1c0.3-0.3,0.6-0.6,1.1-0.8c0.5,0.3,0.9,0.5,1.3,0.8H52c-1-3.3-5.8-4.4-9.1-2.7
			c-1.7-0.7-2.9-2-3.1-4.2c8.1-0.5,14,0,23.1-0.4c4.1-0.2,8.3-0.6,12-0.8c1.1,0,2.8,0.3,3.5,0.4c0.5,0,3.7-0.3,5.4-0.4
			c1.3,0,2.6-0.6,3.9,0c0.5,1.2,0.3,3.1,0.8,4.2c-3.2,0.5-6.5,0.9-7.2,3.9H93c-1.4-0.6-2-2.1-2.2-3.9c1.2,0.7,2.7,1.2,4.2,1.5
			c1.1-0.2,0.8-1.8,1.5-2.3c0.3-1.2-1-0.8-1.2-1.5c0.9-3.8,2.5-6.8,3.5-10.4c1.9-0.3,2.3,1.1,3.5,1.5c-1.7,5.7-5,9.9-7.2,15.1h1.4
			c0.3-2.2,1.9-4.4,3.1-6.6c1.4-2.6,2.6-5.5,3.9-8.1c1.9,0.1,3.2,1.5,4.6,2.3c1.5,0.8,3.5,1,4.2,2.7c-0.6,2.4-2.6,3.6-3.9,5.8
			c-0.6,1.1-1.3,2.5-2.1,3.9h1.1c0.5-0.8,1-1.6,1.4-2.3c1.1-1.8,2.2-3.6,3.9-5.4c0.5-0.6,0.3-1.8,1.5-1.2c0.1,0.4,0.8,0.3,0.8,0.8
			c-1.5,3-3.4,5.5-5.2,8.1h5.5c1.2-1.7,2.5-3.5,3.9-5c1.1,0.4,1.9,1.2,2.7,1.9c-0.3,1.2-1,2.2-1.8,3.1h1.2c0.7-0.8,1.6-1.5,2.5-2
			c0.7,0.6,1.4,1.3,2.1,2h1.5c-2.3-2.2-4.6-4.2-7.1-6.2c-1.7-1.3-3.2-2.4-5-3.5c-0.5-0.3-0.6-0.9-1.2-1.2c-0.5-0.3-1-0.1-1.5-0.4
			c-0.5-0.3-0.8-0.9-1.2-1.2c-0.5-0.3-1-0.1-1.5-0.4c-1.8-1-3.6-2.2-5.4-3.1c-1-0.5-2.2-0.7-3.1-1.2c-0.4-0.2-1.1-0.6-1.5-0.8
			c-2.2-0.9-4.9-1.9-7.7-2.7c-1.1-0.3-2.4-0.4-3.5-0.8c-0.8-0.2-2.4-0.2-2.7-1.5c0-0.4,0-0.8,0-1.2c0.3-0.1,0.4-0.4,0.8-0.4
			c4.3,0.7,9.6,2.2,13.9,4.2c4.1,1.9,8.2,3.6,12,5.8c0.4,0.2,0.8,0.9,1.2,1.2c0.3,0.2,0.8-0.1,1.2,0c0.3,0.2,1.1,1,1.9,1.5
			c1,0.7,2.5,1.7,3.9,2.7c0.5,0.4,1,0.4,1.5,0.8c0.2,0.1,0.3,0.7,0.4,0.8c0.2,0.1,0.6-0.1,0.8,0c0.6,0.5,0.8,1.4,1.5,1.9
			c2.1,1.4,4.2,3.3,6.3,5.4h8.4h-0.1c-0.1-1.9,1.2-2.4,1.9-3.5c0.9-1.3,2.3-2.1,3.9-2.7c1.1-0.4,2.2-0.9,3.9-0.8
			c1.4-0.8,5-0.6,5,1.2c0.2,1.9,0.3,3.9,0.2,5.8h3.3v-6.7v0.1c-1.8-0.2-2.9-1.6-4.2-2.7c-1.8-1.4-3.8-2.8-5.4-4.6
			c-0.3-0.3-0.1-0.9-0.4-1.2c-0.8-0.8-2.1-2.1-3.1-3.5c-5.7-7.9-10.1-18.1-9.3-32.8c1.8,0,2.3,1.3,3.5,1.9
			c-0.2,17,6.1,27.3,14.7,35.5c0,0.1,0,0.3,0,0.4c1.3,1,3.4,1.9,4.3,3.6v-10.2v0.1c-2-1.5-1.2-5.8-2.3-8.1c-1.2,2,0.6,4.8,0,6.9
			c-0.5,1.9-1.8,2.6-3.9,3.1c-2.1-4,0.9-7,1.9-10.4c-1-0.5-1,1.2-1.5,1.9c-0.3,0.3-0.9,0.8-1.2,1.2c-0.7,0.8-1.7,2-3.9,1.9
			c-1-1.3,0.1-3.1,0-4.6c1-0.4,1.9-1.3,2.7-1.9c0.8-0.6,2.1-1.1,2.3-2.3c-0.3-0.2-1.5,0.3-2.3,0.8c-0.9,0.5-1.5,1.1-2.3,1.5
			c-2-0.2-4.2-0.2-4.2-2.3c0.5-1.2,1.2-2.1,1.9-3.1c2.4-0.3,3.7,0.6,6.2,0.4c-0.1-1.2-2.1-1.2-3.5-1.5c-1.3-0.3-2.7-0.5-3.9-0.8
			c-0.7-1-1.3-2-1.9-3.1c0.5-1.6,4.9-1.6,5.4,0c2.2,1.8,4.5,3.5,6.2,5.8c1.6,1.7,3.4,3.3,4.3,5.8v-3.2v0.1c-0.7,0-1.2-0.7-1.5-1.2
			c-2.3-2.8-4.9-6.1-7.7-8.9c-3.3-3.2-6.7-6.1-10.4-8.9c-5.5-4.2-11.1-7.9-17.7-11.2c-2-1-4.2-1.8-6.2-3.1c-0.1-0.6,0.4-0.7,0.4-1.2
			c0.3-0.2,0.6-0.4,1.2-0.4c2.9,0.8,5.5,2.5,8.1,3.9c1.9,0.9,3.8,2,5.8,3.1c0.7,0.4,1.4,0.4,1.9,0.8c0.2,0.1,0.2,1,0.4,1.2
			c0.4,0.3,1.6,0.7,2.3,1.2c0.5,0.3,1,0.4,1.5,0.8c0.4,0.3,0.7,0.9,1.2,1.2c1.9,1.3,4.1,2.5,5.8,3.9c0.4,0.4,0.7,1.2,1.2,1.5
			c0.5,0.4,1.1,0.4,1.5,0.8c2.3,1.9,4.8,4.4,7.3,6.6c0.5-0.1,0.3-0.7,0.4-1.2c0.8-0.2,1.4,1.9,0,1.5c0.8,2.7,3.8,4.4,4.7,6.8v-12.5
			c-1.1,0.1-1.9-1.6-2.7-2.4c-1-1-2.6-1.6-2.7-3.1c-1.1,0.2-1.2-1-1.9-1.5c-0.6-0.4-1.7-0.7-2.3-1.2s-1.2-1-1.9-1.5
			c-1.1-0.8-1.6-1.4-2.7-2.3c-0.6-0.5-1.2-0.8-1.9-1.5c-1-0.9-3.5-2.1-5-3.1c-1.4-0.9-2.8-1.8-4.2-2.7c-2.6-1.7-5.3-3.3-8.5-5
			c-1.2-0.7-3.3-1-3.9-2.7c0.4,0,0.3-0.5,0.4-0.8c0.3-0.2,0.6-0.4,1.2-0.4c5.8,2.8,11.3,5.9,16.6,9.3c2.6,1.6,5.3,3.3,7.7,5
			c2.5,1.8,4.4,4.2,7.3,5.4c0.9,2.5,3.6,3.2,4.7,5.6V179c-1.2-0.3-1.7-1.8-2.7-2.6c-0.7-0.5-1.2-0.6-1.9-1.5
			c-0.6-0.7-1.8-1.4-2.3-2.7c-2.6-0.7-4.3-2.4-6.2-3.9c0.4-1.2,1-2.1,1.5-3.1c0.1-1-0.1-1.9,0-2.7s0.8-1.4,1.2-2.3
			c0.6-1.8,0.2-3.6,1.9-4.2c-0.3-1.3,0.6-1.5,0.4-2.7c-0.1-1.5,1.7-1.2,1.5-2.7c0.3-2.1-0.6-3-1.2-4.2c0.2-2.7-0.4-4.4-1.5-5.8
			c0.4-0.7,0.1-1.9,0.8-2.3c0-0.5,0-1,0-1.5c-0.4-0.3-0.4-0.9-1.2-0.8c-0.4-1.6,0.3-2.7,0.8-3.9c0.3-0.7,0.5-1.6,0.4-3.1
			c-0.1-0.8-0.8-1.5-0.8-2.3c0-1.5,1.4-3.2,0.8-5c-0.1-0.5-0.4-0.8-0.4-1.5c0-1.3,1.2-2.7,0.8-3.5c-0.2-1.1-1.1-1.8-1.2-2.7
			c0-1.3,1.6-2.3,1.2-4.2c0-0.1,0-0.3,0-0.4c-1.7-1.1,0-3,0.4-4.2c0.2-1.5-0.3-2.2-0.8-3.1c0-1.3,1.1-1.7,1.2-2.7
			c0.1-2.4-2.4-3.3-3.5-5c1.2-2.4,3.1-3.8,3.1-8.1c0-0.1,0-0.3,0-0.4c-0.7-2.6-2.3-4.5-4.6-5.6h-6.4c-1.5,1.1-2.6,2.5-3.7,4
			c0,0.1,0,0.3,0,0.4c-1.1,3.8,0.6,6.8,1.9,9.3c0,1.3-1.3,1.3-1.2,2.7c0.2,1.2,0.7,2.1,1.2,3.1c-0.4,1.2-1.2,1.9-1.5,3.1
			c0,0.1,0,0.3,0,0.4c0.4,1.3,1.2,2.1,1.5,3.5c-2.1,1.5-0.4,3.6,0,5.8c0.1,1.1-1.2,0.9-1.2,1.9c-0.3,2.1,0.6,3,1.2,4.2
			c-0.1,1.5-1.4,1.6-1.5,3.1c0.2,1.6,1.3,2.2,1.5,3.9c-1.7,1.7-2.8,4.4-2.3,7.3c0.3,2,2.2,3.1,2.3,4.6c-2.9,1.3-5.8,1.3-8.1,2.7
			c-2.6,1.6-3.7,5.3-5.4,8.5c-1,2-1.9,3.6-3.1,5.4c-4-1.8-8.3-3.3-12.3-5c0.2-1.2,0.8-2,1.2-3.1c0-0.1,0-0.3,0-0.4
			c-0.5-1.5-1.3-2.8-1.9-4.2c0.3-0.7,0.1-1.1,0.4-1.9c0.1-0.3,0.8-1.1,0.8-1.2c0.1-0.8-0.6-1.3-0.4-1.9c0.3-1.2,0.7-1.8,1.5-2.7
			c0.1,0,0.3,0,0.4,0c0-0.3,0-0.5,0-0.8c-0.6-0.8-0.7-2.2-0.8-3.5c1.7-1.6,5.6-1.1,5.8-4.2c0.1,0,0.3,0,0.4,0c0-0.6,0-1.3,0-1.9
			c-1.6-4.5-5-8.7-7.7-13.1c0-0.9,0-1.8,0-2.7c0.1,0,0.3,0,0.4,0c0-0.1,0-0.3,0-0.4c0.7-3.1-0.1-5.9,0.4-8.5
			c0.4-2.4,2.6-5.1,3.9-7.3c1.9-3.3,4.2-7.4,6.2-11h-1.3c-2.3,4.3-4.9,8.3-7.2,12.5C107.5,92.4,105.3,92.5,102.7,91.9z M140.9,172.1
			c0.8,0,0.5,1.1,1.5,0.8c-0.3,0.6-1,0.8-1.9,0.8C140.8,173.3,140.9,172.8,140.9,172.1z M134,171.7c0.5,0.1,0.3,1,0.4,1.5
			c-0.7,0-0.8-0.5-1.5-0.4C132.7,172,133.9,172.5,134,171.7z M128.6,168.3c1.2,0.6-0.5,2.3-1.2,1.2
			C127.3,168.5,128.5,169,128.6,168.3z M136.3,162.9c-2.2-0.8-3.8-2.1-5.4-3.5c1-1.4,1.2-3.6,3.1-4.2c0.4,1.9,0.9,3.7,2.7,4.2
			C136.9,160.9,136.3,161.6,136.3,162.9z M142.8,165.6c0-1.4-0.5-3.4,1.5-2.7C144.5,164.4,144.2,165.6,142.8,165.6z M141.7,161.3
			c0.1-0.9,0.6-1.4,0.4-2.7c-1,0.1-0.7,1.6-1.5,1.9c-2,0.2-3.1-1.2-2.3-2.7c-0.3-0.9-0.9,1.1-2.3,0.4c-0.2-0.7-0.8-1-0.8-1.9
			c3.6-0.7,7,3.5,12,1.5C147,160.7,144.1,161.9,141.7,161.3z M143.2,157.5c0-0.9,0.7-1.1,0.4-2.3c-0.6-0.9-1.1,1.4-1.5,1.9
			c-1.8-0.2-2.9-1-4.2-1.5c0-0.9,0-1.8,0-2.7c-1.1,0.1-0.9,1.4-1.5,1.9c-1,0.1-1.9,0.1-2.3-0.4c0.1-5,6.6-1.1,9.3-0.8
			c2.1,0.2,3.8-0.1,5.8-0.4C149,156.5,146.5,157.3,143.2,157.5z M134,150.9c1-1.2-0.2-4.6,2.3-4.2c-0.1,1.2-1.1,1.5-1.5,2.3
			C134.6,149.7,135.3,151.3,134,150.9z M144.8,152.5c0-0.3,0-0.5,0-0.8c0-0.1,0-0.3,0-0.4c-0.2-0.3-0.4-0.6-0.4-1.2
			c-0.6,0.5-0.6,1.7-1.2,2.3c-2.2-0.2-4.1-0.8-4.2-3.1c-1.1-0.2-0.4,1.4-1.2,1.5c-1,0.1-1.9,0.1-2.3-0.4c0.1-0.9,0.5-1.6,0.8-2.3
			c0.4,0.1,0.7-0.1,0.8-0.4c2.6,1.1,5.9,1.5,8.9,0.8c1.6-0.4,2.4-1.8,3.9-1.5C152.3,150.4,148.3,154.1,144.8,152.5z M147.1,147.1
			c-1.3-0.1-1.5-1.3-1.9-2.3c-1.2,0.7,0.4,1.8,0,3.1c-2.2,0-2.5,0.2-3.9,0.4c-0.8-0.3,0.2-2.5-0.8-2.7c-1.1,0.3,0.7,1.3-0.4,1.9
			c-1.5,0.2-2.5-0.1-3.1-0.8c0.1-1.2,1.3-1.9,2.3-2.3c0.7-0.2,1,0.4,1.2,0.4c0.5,0,1.9-0.3,2.3-0.4c2.3-0.5,3.5-1.9,5.4-2.7
			C150,143.2,149.6,146.7,147.1,147.1z M148.2,136.6c0,0.6,0,1.3,0,1.9c-1.1,0.4-3.1,1.3-4.2,0.4
			C144.1,136.9,146.8,137.4,148.2,136.6z M136.3,89.2c-1.3-4.8,2.7-10.1,8.9-8.1c1.6,0.8,3,1.8,3.5,3.9c1.4,3.8-0.8,7.2-3.1,8.5
			c-1.2-0.5-2-1.3-3.1-1.9c1.6-1.4,3.6-1.4,3.9-3.5c0.7-4.8-8.2-6.7-7.3,0.4c1.9,3.5,5.6,5.2,8.5,7.7c0.3-0.1,0.4,0.2,0.4,0.4
			c1.5,0.3,2.4,3.8,0,3.9c-1.5-0.9-4.2-2.7-6.2-4.2C138.7,93.8,137.2,92.6,136.3,89.2z M144,84.6c1.5,1.1,1.5,4.3,0,5.4
			C138.6,91.3,138.5,83.1,144,84.6z M138.6,95c0.3-0.1,0.4,0.1,0.4,0.4c2.3,0.9,3.9,2.8,5.8,4.2c0.3,0.3,0.9,0.1,1.2,0.4
			c0.2,0.2,0.2,0.6,0.4,0.8c1.3,1,3.1,1.6,3.1,4.2c-0.5,0.4-0.8,1-1.2,1.5c-2.4-0.2-6.6-4.3-8.9-6.6C137.6,98.2,135.8,96.9,138.6,95
			z M137.1,102.3c-0.1-0.6,0.4-0.7,0.4-1.2c3.6,0.4,4.6,3.3,7.3,4.6c2.1,1,5.4,4,3.1,6.9c-2.4-0.4-3.8-2.2-5.4-3.5
			c-1.6-1.3-3.1-2.5-4.6-3.9C138.6,103.6,135.9,103.3,137.1,102.3z M137.1,108.9c0.5-0.4,0.8-1,1.2-1.5c2.9,0.9,4.3,3.2,6.6,4.6
			c1.3,1.4,3.5,1.9,3.9,4.2c0.3,1.4-0.3,2.1-0.8,2.7c-2.4-0.8-4.4-2.7-6.2-4.2C139.9,113.1,137.6,111.6,137.1,108.9z M138.2,113.1
			c1.8,0.9,3.2,2.3,4.6,3.5c2.1,1.9,5.1,2.9,5.8,6.2c0.8,0.8-0.5,1.5-0.8,2.3c-2.2,0-4.1-2.1-5.8-3.5
			C140.3,120.1,134.9,116.6,138.2,113.1z M136.7,120.8c0.7,0.1,0.7-0.3,0.8-0.8c2.8-0.4,3,1.9,4.6,2.7c2.3,1.8,5.1,3.2,6.6,5.8
			c0,1,0.2,2.3-0.8,2.3c0,0.1,0,0.3,0,0.4c-0.4,0-0.8,0-1.2,0c-2-1.3-4-3-5.8-4.6C139.3,125.1,136.7,123.7,136.7,120.8z
			 M145.2,131.2c-0.4,1.5-1.7,2.2-3.9,1.9c-1.1-1.4-1.3-3.2,0-4.6C143.5,128.5,144.1,130.2,145.2,131.2z M135.9,132
			c-0.1-1.1,0.2-3.9,1.2-4.6c0.3-0.6,0.6-1.2,1.5-1.2c1.1,0.2,1.8,0.8,1.9,1.9c-0.1,0-0.3,0-0.4,0c-1.5,2.8-0.6,6.7,3.5,6.2
			c0.8-0.8,1.8-1.3,2.3-2.3c1.1,0.3,1.9,1,1.5,2.7C144.3,139.4,136.5,137.6,135.9,132z M124.7,149.7c0.4-0.4,1.1-2.9,1.6-3.8
			c0.4-1,0.6-2.3,1.2-3.1c0.6-0.9,2.6-2.5,4.2-3.1c0.8-0.3,2-0.1,3.1-0.4c2.3-0.6,4.1-1.7,8.1-1.2c0.2,0.7,0.8,1,0.8,1.9
			c1.3,0,2.6,0,3.9,0c-1,3.6-7.8,4.6-10,1.5c-1.3,0.8,1.2,1.1,0.8,2.3c-1.7,1.1-3.4,2.2-6.2,2.3c0,1,1.4,0.6,1.9,1.2
			c-0.3,1.2-0.5,2-1.2,2.7c-0.6,0.6-2.1,0.4-1.9,1.5c0.3,1,1-0.7,1.9-0.4c0.5,4-1.7,5.2-2.7,7.7c-3.1-1-5.3-3-8.1-4.2
			C122.9,152.9,123.3,151.3,124.7,149.7z M81.9,96.1c0.2,4.9-1.2,9.8-2.7,14.3c-1.4,4.3-3.2,8.6-5.4,12c-0.3,1.6-1.4,2.5-1.5,4.2
			c-0.8,1.9-1.3,4.1-1.5,6.6c0.5,1.8,3.5,4,5.4,1.9c0.7,1-1.9,1.9-3.9,1.5c-1-0.9-2.3-1.5-2.7-3.1c0.2-1.2-0.5-3.3,0.4-3.9
			c0-0.9,0.4-2.3,0.8-3.5c0.5-1.4,1.1-3.3,1.9-5c0.5-1,1.7-2.4,2.3-3.9c0.2-0.5,0.3-0.9,0.4-1.2c0.2-0.5,0.5-1.3,0.8-1.9
			c0.2-0.5,0.5-1.3,0.8-1.9c0.5-1.1,1-3.2,1.5-5c0.4-1.2,1.2-2.6,1.5-3.9c0.3-1.2,0.1-2.8,0.4-4.2C80.5,98.4,80.5,96.5,81.9,96.1z
			 M79.6,100.4c-0.3,1.9-1,3.7-1.5,5c-0.4,2-0.9,4-1.9,5.4c-1.7,8.5-8.5,13.8-7.3,23.9c1,2.9,6.7,4.5,8.5,1.2
			c0.7-1.2,0.7-4.3-1.2-4.2c-1.6-0.2,0.2,0.8-0.4,1.9c-0.3,0.6-0.6,1.2-1.5,1.2c-3.9-0.7-1.4-5,0.8-5.4c2.1-0.4,4.3,1.7,4.6,2.7
			c1,3.3-1.3,6.1-3.5,6.9c-4,1.6-9.4-1.6-9.6-6.6c-0.1-1.7,0.6-3.7,1.2-5.4c0.1-0.4,0.7-0.9,0.8-1.2c0.1-0.3-0.2-0.8,0-1.2
			c0.1-0.2,0.7-0.3,0.8-0.4c0.4-1.2,0.1-3.3,1.9-3.8c1.1-4,3.1-7.7,4.6-11.6c1.6-4.1,1.9-8.4,3.5-12.7C80.8,96.4,79.8,99,79.6,100.4
			z M110.4,157.1c-0.3-0.4-8.5-3.3-3.1-3.5c1.9,1.1,4.3,1.6,5.8,3.1c-0.1,1.5-1.2,2.1-1.9,3.1c-1.2,1.9-3.4-0.7-5-0.8
			c-0.8-0.6-2.1-0.8-2.7-1.5c0.9-2.9,4.8,0.8,6.6,1.2C111,158.5,110.9,157.6,110.4,157.1z M108.1,160.9c0.1,0,0,0.3,0,0.4
			c0.6-0.1,0.7,0.4,1.2,0.4c0.2,1.2-0.5,1.5-0.8,2.3c-3.1-0.3-4.6-2.1-7.3-2.7c-0.1-0.9,0.1-1.5,0.4-1.9
			C101.8,157.6,106.7,160.2,108.1,160.9z M101.2,162.1c1.6,0.7,3.2,1.4,4.6,2.3c0.3,0.2,0.6,0.4,1.2,0.4c0.3,1.7-0.9,1.9-1.2,3.1
			c0.1,0.3-0.1,0.4-0.4,0.4c-0.1,0.5-0.7,0.6-0.8,1.2c-3-0.6-4.4-2.8-7.3-3.5c-0.1-1.7,1.4-1,2.3-0.8c1.3,0.4,2,1.3,3.1,1.9
			c0.1,0,0.3,0,0.4,0c0.8,0.2,1-0.3,1.5-0.4c0-0.3,0-0.5,0-0.8c-1.6-1.4-4.3-1.6-5-3.9C99.9,162,101.1,161.1,101.2,162.1z
			 M96.6,160.9c-0.8-2.2,0.8-5,3.5-5C99.8,158.5,98.7,160.2,96.6,160.9z M98.9,167.5c1.3,0.6,2.4,1.4,3.5,2.3
			c0.3,0.2,0.6,0.4,1.2,0.4c0.1,1.7-1.5,2.9-2.3,1.6c-0.3,0.1-0.4-0.2-0.4-0.4c-2-0.8-4.2-1.4-5.8-2.7c-0.1-0.3,0.2-0.4,0.4-0.4
			c0.2-0.6,0.6-1,0.8-1.5C97.6,166.5,97.7,167.6,98.9,167.5z M91.5,187.5c-1.3,1.1-2.6-1-4.2-0.8c-0.6-0.6-1.8-0.5-2.3-1.2
			c-0.3-0.2-0.6-0.4-1.2-0.4c0-1.3,0.3-2.2,1.9-1.9c0.6,0.6,1.8,0.5,2.3,1.2c1.6,0.5,4.6,1.1,3.9,2.7
			C92,187.5,91.8,187.5,91.5,187.5z M83.4,199.5c-0.5,0.8-1.1,1.5-1.5,2.3c-0.5-0.1-0.6-0.7-1.2-0.8c-0.1-1.3,1.5-0.8,1.5-1.9
			c0.1-1-0.1-1.7-1.2-1.5c-0.3,0.1-0.4-0.2-0.4-0.4c-1.8-0.1-2.7-1.2-4.2-1.5c1-1.9,3.1,0.4,4.6,0.4c0.3-0.1,0.4,0.2,0.4,0.4
			c1.2,0.2,2.2,0.7,3.1,1.2c0.3,1.1-0.8,0.8-0.8,1.5C83.9,199.5,83.7,199.5,83.4,199.5z M61.8,195.3c-0.4,0.6-5.3,0.1-6.9,0
			c-2-0.1-4.2-0.5-6.2-0.8c0.1-1-0.6-1.2-1.2-1.5c-0.1-0.3,0.2-0.4,0.4-0.4c5.6,1.7,14.6,1.8,20.8,1.5c-0.5,2-3.9,2-6.6,1.5
			C62.3,195.7,62.1,195,61.8,195.3z M71.9,195.6c-0.1,1.8-0.8,3.1-1.9,3.9c-0.8-0.1-0.8-1-1.5-1.2C68.9,196.8,70.2,196,71.9,195.6z
			 M64.5,188.7c-3.6,0-6.2-0.4-9.6-0.8c-1.8-0.2-3.8-0.1-5.4-0.4c-0.6-0.1-1-0.6-1.5-0.8c-1.4-0.4-3.5-0.2-4.6-1.5c0-0.5,0-1,0-1.5
			c1.1,0.5,3.4,0.4,5,0.8c0.2,0.1,0.3,0.7,0.8,0.8c6.9,1.6,15.4,1.5,24.7,1.5C72.9,189.8,68.4,188.8,64.5,188.7z M41.4,169.8
			c1.3,0.1,1.6,1.5,1.9,2.3c0.2,0.6-0.4,0.7-0.4,1.2c0-0.1,0.3,0.6,0.4,0.8c0.8,3,2.9,5.7,3.5,8.9c-1.9-0.5-2-3-2.7-4.6
			c-0.3-0.8-0.8-1.4-1.2-2.3c-0.3-0.7-1-1.7-1.2-2.3s0.4-0.7,0.4-1.2C42.2,172.4,41,170.7,41.4,169.8z M51,184.1
			c-1.3-0.1-1.1-1.1-1.5-1.9c-0.1-0.2-0.7-0.6-0.8-0.8c-0.1-0.5,0.2-1.1,0-1.5c-0.3-0.7-0.8-1.5-1.2-2.3c-0.3-0.6-1-1.3-1.2-1.9
			c-0.5-1.7-0.2-3.4-0.8-5c0.6-0.1,0.7,0.4,1.2,0.4c0.8,1.6,0.3,2.1,0.8,3.9c0.4,0.4,0.1,1.4,1.2,1.2C48,178.7,50.6,181.2,51,184.1z
			 M49.5,171.4c1.9,0,1.2,2,1.5,3.1c0.6,1.6,1.5,3.3,2.3,5c0.4,0.8,0.4,1.9,0.8,2.7c0.4,0.9,1.5,1.2,1.2,2.3
			c-1.7-0.6-2.3-2.9-3.1-4.6C50.9,177,49.6,174.5,49.5,171.4z M77.7,187.2c0.3,2.3-1.2,5.6-4.2,5.8
			C73.7,189.9,74.7,187.6,77.7,187.2z M78.8,194.1c-0.6,0.1-0.7-0.4-1.2-0.4c-0.3-1.2,1.1-0.7,0.8-1.9c1.6-0.3,2.2,0.4,3.5,0.4
			c1.8,0.5,3.1,1.5,5,1.9c0,1.1-1,1.3-1.2,2.3C83,196.1,80.9,195.2,78.8,194.1z M78.8,185.2c0.5-2.5,1.1-5.1,4.2-5
			C82.6,182.9,81.7,185.1,78.8,185.2z M86.1,192.6c-1.6-0.1-2.2-1.2-3.9-1.2c-0.3,0.1-0.4-0.2-0.4-0.4c-1.1,0.3-1-0.5-1.9-0.4
			c0.7-3.2,3.9,0.5,6.2,0.4c0.3-0.1,0.4,0.2,0.4,0.4c1,0.1,1.3-0.5,1.2-1.5c-1.3-1.7-4.8-1.2-5.4-3.5c0.9-0.9,1.9,0.4,3.1,0.4
			c0.3-0.1,0.4,0.1,0.4,0.4c1.7,0.4,3.3,1.1,4.6,1.9c-0.4,1.1-1.2,1.6-1.5,2.7C88.8,192.7,86.8,193.6,86.1,192.6z M84.2,177.5
			c0.5-2.7,1.8-4.6,4.2-5.4c0.7,0.4-0.2,0.9-0.4,1.5C87.5,175.4,86.8,177.7,84.2,177.5z M88.8,183.7c-0.6-0.5-2-0.3-2.3-1.2
			c-0.5-0.2-0.8-0.5-0.8-1.2c2.3-1,4.1,1.5,6.6,1.5c0.1,0,0.3,0,0.4,0c1.3-2.8-4.5-1.9-5-4.2c2.7-0.8,5.1,1.8,7.7,2.3
			c0.1,1.8-1.2,2.1-1.5,3.5c0.2,0.6-1.4,1.3-1.6,0.4C91,184.6,90.3,183.8,88.8,183.7z M89.2,176.8c0.2-1.1,0.8-1.8,1.9-1.9
			c0,0.1,0,0.3,0,0.4c2.2,0.8,4.4,1.7,6.6,2.7c0.1,1-0.6,1.2-0.8,1.9c-0.1,0-0.3,0-0.4,0c0,0.1,0,0.3,0,0.4
			C94,179.2,91,178.6,89.2,176.8z M90.8,169c-0.1-2.1,0.6-3.6,1.9-4.6c0.7-0.6,0.9-1.2,1.9-0.8C94.4,166.4,93.3,168.5,90.8,169z
			 M95.4,176c-0.3-0.3-1.1-0.2-1.2-0.8c-1.4,0-1.7-1.1-3.1-1.2c1.5-2.6,4.8,0.5,6.6,1.2c0.5-0.1,0.6-0.7,1.2-0.8
			c-0.1-1.6-1.4-2-2.7-2.3c-0.3,0.1-0.4-0.2-0.4-0.4c-0.6-0.6-2-0.3-1.9-1.6c1.2-0.6,1.7,0.2,3.1,0.4c1.3,0.7,2.7,1.4,4.2,1.9
			c0.2,1.5-0.6,2-1.2,2.7C99.2,177.6,97.4,176.9,95.4,176z M87.3,163.6c-0.1,1.5,1.7,1.2,1.5,2.7c-1.6,1.7-2.6,4.1-4.2,5.8
			c-10,0.3-19.9-0.2-29.7-1.2c-2-0.2-4-0.2-5.8-0.8c-0.5-0.2-0.6-0.6-1.2-0.8c-1.7-0.4-3.7-0.5-5.4-0.8c-1.9-0.3-3.6-0.7-5.4-0.8
			c-2.2-5.5-3.7-11.7-4.6-18.5c2.3,0,4.6,0,6.9,0c1.5-0.1,1,1.8,2.3,1.9c1.5,1.9,3.2,1.1,6.2,1.2c3.7,0,7.9,1.6,12.3,2.3
			c2.1,0.3,4.4,0.5,6.6,0.8c9.1,0.9,19.2,1.2,28.2,0.8C93.5,159.8,91.4,162.7,87.3,163.6z M42.9,139.7c0.9-0.8,1.3-3.1,3.5-2.3
			c-0.2,0.6-0.6,1-0.8,1.5c-2.1,2.1-4.6,6-8.1,5.8c-0.1,0,0.2-0.6,0.4-0.4C39.3,142.5,41.3,141.3,42.9,139.7z M39.1,139.3
			c1.5-0.7,1.7-2.6,3.9-2.7c0.2,1.2-0.6,1.5-0.8,2.3c-0.8,1.2-1.9,2.2-3.5,2.7C38.6,140.7,38.6,139.8,39.1,139.3z M57.6,141.7
			c1.6-1.7,6.7,0.7,4.6,3.9c-0.1,0.5-0.7,0.6-0.8,1.2c-1.8,0.6-3.3-0.2-3.5-2.3c0.9-1,1.7-0.6,3.1-0.4c-0.1-1.3-2.5-1.5-3.5-0.8
			c-1.6,3.3,1.3,5.3,5,4.6c3.3-1.7,4.3-5.7,6.6-8.5c2.7,0.4,0.9,3,0,4.6c-1,1.7-2.8,3.6-3.9,4.2c-2.2,1.9-7.9,2.2-9.6-0.4
			c0-0.1,0-0.3,0-0.4C53.9,145.7,55.3,141.7,57.6,141.7z M58.8,138.6c-0.1,1-0.6,1.5-1.5,1.5C57,138.9,57.5,138.4,58.8,138.6z
			 M61.8,139c-0.2,0.8-0.6,1.5-1.9,1.2C59.5,138.5,61.1,138.2,61.8,139z M62.6,141.3c-0.7-1.6,1-3.8,2.7-4.2
			C64.7,138.7,64.8,141.1,62.6,141.3z M66.5,137c1.2-0.3,0.8,1,1.5,1.2c-0.9,3.1-2.3,5.6-4.2,7.7C62.9,142.7,65.7,139.8,66.5,137z
			 M55.3,140.9c-1.3,1.8-2.8,3.3-4.2,5c-0.3-0.1-1.3-1.4-0.4-1.6c0.7-1.6,2.1-2.6,2.7-4.2c-0.1-0.3,0.2-0.4,0.4-0.4
			c0.2-1,1.2-1.2,1.2-2.3c1.1-0.3,0.8,0.8,1.5,0.8C56.3,139.4,55.6,139.9,55.3,140.9z M52.2,140.1c-0.8,1.2-1.4,3.8-3.1,2.7
			c0-0.5-0.1-1.1,0.4-1.2c0.8-1.7,2-2.9,2.7-4.6c0.5-0.6,0.3-1.7,1.5-1.5C55,137,53,138.8,52.2,140.1z M49.9,139.3
			c-0.5,0.9-2.7,2.7-4.2,1.9c0.6-3,3.1-4.1,5.4-5.4C51.9,136.4,50.4,138.5,49.9,139.3z M41.4,145.9c0.1-3.1,5.3-4.7,7.3-2.3
			c0.6,0.9,1,1.9,0.8,3.5c-1.2,2.5-6.6,2.1-5.4-1.2c0.3-1.4,2.4-1.4,3.1-0.4c0.3,0.9-1.9,1.8,0,1.9c3.9-3.5-5.3-5.7-4.2,0
			c1,1.4,1.8,2.9,4.6,2.3c-0.1-0.3,0.2-0.4,0.4-0.4c1.2,0.1,2.5-1.4,3.5-2.3c0.8-0.8,1.3-2.3,2.3-1.9c0,0.3,0,0.5,0,0.8
			c1.2,1.5,0,2.2-0.8,3.1c-2,2.3-4.5,2.3-9.3,2.3C42.3,150.3,40,148.3,41.4,145.9z M68,147.4c2.3-0.2,2.8,1.3,4.6,1.5
			C71.3,149.7,68.3,149,68,147.4z M75,148.6c-2-0.6-5.3-1.2-5.8-3.1c3.7,0.3,6,2,8.9,3.1C77.3,149.6,75.6,148.8,75,148.6z
			 M70.7,143.2c1.4,0.3,2.5,0.9,2.7,2.3C72.2,145,70.3,145.3,70.7,143.2z M76.9,96.5c1.6-0.1,0.4,1.4,0.4,1.9c-0.4,4-1.7,8-3.1,11.6
			c-0.3,0.7-0.5,1.6-0.8,2.3c-0.1,0.2-0.7,0.6-0.8,0.8c-0.2,0.8-0.2,1.6-0.8,2.3c-0.6,1.8-1.2,3.7-2.3,5c-0.9,1.1-1.3,2.7-1.9,4.2
			c-0.5,1.3-0.8,3.5-2.3,3.9c-0.7-2.4,0.9-4.6,1.9-6.6c2.6-5,5.1-9.9,6.9-16.2c0.3-1.1,0.9-2.1,1.2-3.1
			C75.8,100.7,75.1,98.3,76.9,96.5z M75,96.5c0.4,0.4,0.2,2.1-0.4,2.7c-0.7,6.3-2.8,11.1-5,15.8c-0.3,1.9-1.6,2.8-1.9,4.6
			c-1.2,1-1.5,2.7-2.3,4.2c-0.7,1.2-1,3.4-2.7,3.5c-0.3-1.3,0.9-2.2,1.2-3.1c0.3-1,0.6-1.8,1.2-2.7c0.2-0.3-0.2-0.9,0-1.2
			c0.1-0.2,0.6,0,0.8-0.4c0.8-1.6,2-3.4,2.7-5c0.3-0.7,0.1-1.3,0.4-1.9c1-2.3,2.4-4.5,3.1-6.9c0.8-2.6,0.9-5.3,1.9-8.1
			C73.7,97.1,73.9,96.4,75,96.5z M71.9,96.9c0.3,0,0.5,0,0.8,0c0,0.8,0,1.5,0,2.3c-0.6,2.4-2.1,6.6-3.1,9.3
			c-0.9,2.4-1.8,4.6-2.7,6.9c-0.2,0.6-0.1,1-0.4,1.5c-0.1,0.2-0.7,0.2-0.8,0.4c-0.1,0.2,0.1,0.6,0,0.8c-0.3,0.7-0.5,1.3-1.2,1.9
			c-0.8,0.8-1.9,3.6-2.7,5c-0.5,0.9-0.2,3.1-2.3,2.7c1.5-5.1,4.5-9.4,6.6-14.3c0.5-1.2,1-2.6,1.5-3.9c0.5-1.2,1.2-2.3,1.6-3.5
			c0.9-2.6,1.1-5.4,2.3-8.1C71.4,97.4,71.8,97.4,71.9,96.9z M69.2,97.3c0.6-0.1,0.7,0.4,1.2,0.4c-1.8,8.3-5.1,16.4-8.9,23.5
			c-1.3,2.4-2.7,4.6-3.5,6.9c-0.6,1.7-0.8,4.6,0.8,6.6c-1.5,1-2.5-1.1-2.7-1.9c-0.5-1.9,0.5-4.2,1.2-6.2c0.6-2,1.2-4.1,1.9-5.4
			c0.2-0.5,0.8-0.6,1.2-1.2c0.3-0.5,0.1-1,0.4-1.5c0.1-0.2,0.7-0.3,0.8-0.4c0.1-0.2-0.1-0.6,0-0.8c0.3-0.4,0.5-0.7,0.8-1.2
			c2.4-4.9,5.3-12.4,6.6-17.7C68.7,97.8,69.2,97.8,69.2,97.3z M67.6,97.7c-0.6,6.5-3,11.1-5.4,15.8c-0.9,2.3-1.9,4.5-3.1,6.6
			c-1.7,2.4-2.6,5.6-3.9,8.5c-1.1,5.5,2.1,8.6,6.6,7.3c1.8-0.5,2.8-4.3,0.8-5.4c-0.5,0-1,0-1.5,0c0,1.3,2,0.6,1.9,1.9
			c0.1,1.7-1.1,2-2.3,2.3c-1.4,0.1-1.3-1.3-2.3-1.5c-0.3-2.8,1-3.9,2.7-4.6c2.3-0.3,3.5,0.6,4.2,1.9c1.8,5.2-2.6,8.5-7.3,7.3
			c-1.7-0.4-3.3-3-4.6-4.2c-0.1-4.2,1.7-8.1,2.7-11.6c0.2-0.7,1.4-1.5,1.9-2.3c0.5-0.9,0.6-2,1.2-3.1c1.5-3,3.6-6.9,5-10.8
			c0.2-0.4,0.2-0.9,0.4-1.5c0.1-0.4,0.7-0.9,0.8-1.2C65.8,101.4,65.4,98.6,67.6,97.7z M64.9,98.1c0.7,1.7-0.6,3.4-1.2,5
			c-1.6,4.7-3.2,9.9-5.8,13.9c-0.5,1.5-1,3.1-2.3,3.9c-0.3,2-1.3,3.3-1.9,5c-0.1,1.1-0.7,1.6-0.8,2.7c-1,0.1-1.3-0.5-1.2-1.5
			c0-0.1,0-0.3,0-0.4c0.3-0.3,0.8-1.8,1.2-2.7c1.1-2.8,2.4-5,3.9-8.1c1.9-4,3.9-7.4,5.4-12c0.3-1,0.7-1.9,1.2-3.1
			C63.7,100,63.3,98,64.9,98.1z M62.6,98.4c-0.8,5.5-2.8,9.8-5,13.9c-0.7,2-1.6,3.8-2.7,5.4c-1,2.6-2.5,4.7-3.5,7.3
			c-0.1,0.9-0.2,1.8-1.5,1.5c0.2-0.7-0.5-2.3,0.4-2.3c0.2-1,0.5-2.4,1.2-3.5c0.3-0.5,1.1-0.8,1.5-1.9c0.2-0.5,0.2-1.5,0.4-1.9
			s1-0.8,1.2-1.2c0.3-0.6,0.5-1.1,0.8-1.5c1-1.9,1.8-4.3,2.7-6.6c0.7-1.8,1.2-3.3,1.9-5c0.3-0.6,0.5-1,0.8-1.5
			C61,100.3,60.6,97.9,62.6,98.4z M58,100.8c-0.3-1.5,2.5-3.1,1.9-0.4c-1.1,2.1-1.6,4.9-2.7,6.9c-0.6,1.8-1.3,3.3-2.3,4.6
			c-0.4,1.2-0.8,2.6-1.5,4.2c-0.3,0.5-0.9,0.6-1.2,1.2c-0.6,1.2-0.3,2.9-1.9,3.5c-0.6,1.7-0.5,4.1-2.3,4.6c-1.6,0.1-0.4-1.2-0.4-1.5
			c0.2-1.4,0.4-2.5,1.2-3.5c0.1-0.1,0.7-0.3,0.8-0.4c1.1-2.4,2.5-5.7,3.9-8.5c1.3-2.7,2.4-5.1,3.5-8.1c0.1-0.3,0.7-0.9,0.8-1.2
			C57.8,101.7,57.3,100.8,58,100.8z M56.8,99.6c0.3,1.8-0.6,2.5-0.8,3.9c-1.3,3.7-3.9,8.1-5.8,12c-1,2-1.3,4.1-3.1,5.4
			c-0.2,1.6-0.7,2.9-1.2,4.2c0.1,1.5-1.8,1-1.9,2.3c-0.5-0.1-0.3-1-0.4-1.5c0.5-1.2,0.6-2.5,1.2-3.9c0.1-0.2,0.2-0.8,0.4-1.2
			c0.1-0.2,0.7-0.2,0.8-0.4c0.1-0.2-0.1-0.6,0-0.8c0.1-0.1,0.7-0.3,0.8-0.4c2.6-5.7,5.8-12.1,8.5-18.5
			C55.2,99.7,55.8,99.5,56.8,99.6z M54.1,100.4c-0.7,0.2,0,1.8-0.8,1.9c-0.2,1.7-1.2,2.6-1.5,4.2c-0.7,2.1-2,4.1-3.1,6.2
			c-0.6,1.2-1.2,2.8-1.9,4.2c-0.4,0.9-0.7,2-1.2,2.7c-0.4,0.6-1.2,0.8-1.5,1.6c-0.3,0.7-0.5,1.8-0.8,2.7c-0.3,0.9-0.3,1.8-0.8,2.7
			c0,1.3,0,2.6,0,3.9c0,0.1,0,0.3,0,0.4c0.4,0.7,1,1.4,1.2,2.3c-0.8-0.4-1.6-0.7-1.9-1.5c-1.9-1.6-0.8-5.9,0-8.5
			c0.2-0.6,0.2-1.5,0.4-1.9c0.2-0.5,0.8-0.7,1.2-1.2c1.7-2.4,3.2-6.6,4.6-9.6c0.8-1.8,2-3.7,2.7-5.4
			C51.4,103.1,51.5,99.9,54.1,100.4z M37.9,128.2c0-1.1,0.4-2.1,0.8-3.5c0.3-1.1,0.4-2.5,0.8-3.5c0.2-0.5,0.9-0.4,1.2-0.8
			c0.3-0.5,0.2-1.2,0.4-1.5c1.6-3.2,3.3-6.8,5-10.4c0.2-0.4,0.6-0.7,0.8-1.2c0.3-0.8,0.7-1.7,1.2-2.7c0.4-0.9,1.1-3.2,2.7-3.1
			c-1.3,5.1-4.7,10.4-6.9,15.4c-0.8,1.9-1.8,3.4-2.7,5.4c-1.1,2.5-2,6.3,0,9.6c0.8,2.5,6.4,3.9,8.5,1.5c1-1.9,0.1-4.8-1.9-5
			c-1.6,0-2.4,0.9-2.3,2.7c1.2,0,1.3-3.1,2.7-1.5c1.9,0.5,1.1,3.2,0,3.9c-3.2,0.7-5.1-2.1-3.9-4.6c0.4-1.5,2.2-1.7,3.5-2.3
			c1.5,0.7,2.8,1.6,3.9,2.7c0.4,1.4,0.8,1.5,0.8,2.7c-0.1,3.1-3.3,4.9-7.3,4.2C41.1,135.7,38,132.2,37.9,128.2z M40.6,136.2
			c-0.5,0.8-1.1,1.5-1.9,1.9c-0.6,0.1-0.7-0.4-1.2-0.4C36.8,135.6,40.3,133.8,40.6,136.2z M28.7,139.3c1.3-3.7,8.3-3.4,8.9,0.8
			c0.7,1.6-0.6,4.3-2.3,4.6c-3.2,0.7-5.5-3.2-2.3-4.6c2-0.6,1.7,1.2,2.7,1.5c0.5-2.5-1.3-2.7-2.3-2.7c-2.5-0.1-3.3,3.1-2.7,5
			c0.7,0.7,1.5,1.4,2.3,1.9c1.9,0,3.9,0,5.8,0c0.1-0.5,1-0.3,1.5-0.4c0.3,1.2-0.4,1.4-0.4,2.3c-0.4,0-0.8,0-1.2,0
			c-0.8,0.6-4.2,0.6-5,0C29.2,148.1,26.6,143.2,28.7,139.3z M28.3,148.2c0.4,0,0.8,0,1.2,0c2.4,1,1.8,4.5,2.3,6.9
			c0.5,2.3,1.3,4.8,1.9,6.9c0.6,2.4,1.6,4.6,2.3,6.9c0.7,2.2,0.8,4.5,1.5,6.6c0.3,1,1.1,2,1.6,3.1c2.1,5.2,4.4,10.1,7.3,15
			c0.2,0.4,0.4,1,0.8,1.5c0.6,0.9,2.7,2.4,1.5,4.2c-1.7,0.9-2.6-1.3-3.5-2.7c-0.4-0.7-0.5-1.1-0.8-1.5c-0.5-0.9-1-2.1-1.5-3.1
			c-0.3-0.4-1-0.8-1.2-1.2c-1.1-2.1-2.3-4.8-3.5-7.3c-0.7-1.5-1.2-3-1.9-5c-0.4-1.1-1.4-3.1-1.9-4.6c-0.2-0.6-0.2-1.2-0.4-1.9
			c-0.5-2.2-1.9-5.7-2.7-8.5c-1.3-4.8-1.9-9.7-3.5-14.3C27.8,148.7,28.3,148.7,28.3,148.2z M29.8,187.2c-1.3,0.2-1.2-1.2-1.9-1.5
			c0.2-0.5,0.5-0.8,1.2-0.8C28.9,186.1,30.2,185.7,29.8,187.2z M27.5,181.4c-0.2-1.4,1.7-2.4,1.5-3.9c1,0.1,2.6-1.2,3.1-0.4
			c3.2,0.3,2.7,5.3,0.4,6.2C30.5,185.2,27.8,183.3,27.5,181.4z M23.3,165.2c-1.4-2.1,1.3-3.4,1.5-5c1.2,0,2.3,0,3.5,0
			c0.5,0.7,1.9,2.4,0.8,3.5C29.5,166.9,24,168.6,23.3,165.2z M23.7,170.6c-1,0.1-1.6-2.2-0.8-2.7C24.1,167.6,24.5,170.1,23.7,170.6z
			 M31,167.1c0.1,1-0.5,1.3-1.5,1.2c0-0.5,0-1,0-1.5C30.2,166.6,30.5,167,31,167.1z M27.1,169.8c0.3,0,0.5,0,0.8,0
			c3-0.6,4.8,1.8,4.2,3.5c-0.4,1.8-1.9,2.5-3.1,3.5c-1.4-0.9-3.4-1.2-4.2-2.7C24.7,171.8,26.3,171.1,27.1,169.8z M31.8,186.4
			L31.8,186.4c0.8-1.1,2.3-1.8,4.6-1.2c1.5,0.4,2.9,3.3,1.2,4.6c-0.5,1.1-1.5,1.5-2.3,2.3c-0.4-0.3-1-0.5-1.9-0.4
			c-0.4,0.1-0.7-0.1-0.8-0.4C31,190.1,30.7,187.8,31.8,186.4L31.8,186.4z M34.1,197.2c1,0.3,1,1.6,1.5,2.3c-0.2,0.9,0.7,0.8,0.4,1.9
			c-1.7-0.5-2.4-1.9-3.5-3.1c-0.7-0.4-2.1,0-1.9-1.2C31.7,196.7,32.3,197.4,34.1,197.2z M36,197.6c-0.9-2.9,0.6-6.4,3.1-6.2
			c2.6,0.3,3.5,4.8,0.8,6.6c-1.5-0.2-1.8,0.8-2.3,1.5C36.7,199.2,36.4,198.3,36,197.6z M22.5,152.1c3.6-1.4,6,1.4,5.8,3.9
			c-0.3,2.9-3.3,3.6-5.4,1.9C20.9,156.3,21,155,22.5,152.1z M20.6,151.3c0.2,0.8-0.3,1-0.4,1.5c-0.5-0.1-0.6-0.7-1.2-0.8
			C19.1,151.4,19.7,151.2,20.6,151.3z M13.2,157.9c0-0.6,0-1.3,0-1.9c0.4-1.6,1.2-3,3.1-3.1c2.5-1.2,5.5,3.9,2.7,5.8
			C18.8,161.3,12.8,160.5,13.2,157.9z M14.8,166c-1.2-2.8,0.4-4.4,2.3-4.6c2.1-0.2,3.5,2.2,4.6,3.1c0.5,2.8-0.7,3.9-1.9,5
			C17,169.4,15.3,168.2,14.8,166z M15.9,171c0.5-0.5,1.4-0.5,1.9,0c0.2,0.8-0.3,1-0.4,1.5C16.5,172.5,16,171.9,15.9,171z
			 M17.5,177.5c-0.5-1.7,0.6-3.2,1.2-4.6c0.6,0.1,0.7-0.4,1.2-0.4c0.9,0,1.1-0.7,2.3-0.4c0.8,0.5,1.1,1.4,1.5,2.3
			c0.9,1.6-0.5,3.7-1.2,5C20.1,180.4,18.1,179.7,17.5,177.5z M22.1,190.6c-0.3-1.2,0.3-1.5,0.8-1.9C24.4,189,24.3,191.1,22.1,190.6z
			 M20.6,184.9c-0.3,0.1-0.4-0.2-0.4-0.4c-0.2-2.5,1.4-3.2,3.1-3.9c2.9-0.3,4.6,2.6,3.5,5C25.5,188.2,21.4,186.9,20.6,184.9z
			 M24.8,193.7c0.5-2.4,0.9-4.9,3.1-5c1.9-0.1,3.7,2.3,2.7,5C30.9,197.9,24.3,198.4,24.8,193.7z M24,203c1-1.2,1.9-2,3.5-3.1
			c0.3-0.2,0.6-0.7,1.2-0.8c3.2-0.4,4.5,2.1,6.6,3.9c1.1,0.1,1.4-1,1.9-1.5s1.3-1.1,1.5-1.9c1.8-0.5,2.8-1,4.2-0.8
			c2,0.4,2.8,2.8,4.2,3.5c1.9-0.2,2-2.1,3.5-2.7c1.5-0.4,2.8-0.6,3.9-0.4c1.8,0.4,2.6,2.5,3.9,3.1c1.9-0.5,2.2-2.7,3.9-3.5
			c1.3,0,2.6,0,3.9,0c1.4,0.8,2,2.4,3.5,3.1c2.5-0.5,2.6-3.5,5-3.9c3.1-0.4,4.5,2.4,6.2,5c-0.4,1.1-0.5,2.6-1.9,2.7
			c0.4-3.2-1.7-3.9-3.1-5.4c-1.6,0.4-1.9,2.2-3.1,3.1c0,4.2,0,8.5,0,12.7c-1.3,0.8-3.9,0.2-5.8,0.4c-1.1-3.4,0.9-8.9,0-12.3
			c-0.5-1.8-1.9-2.2-2.7-3.5c-1.7,0.3-2,2.2-3.1,3.1c0,5,0.2,9-0.4,12.7c-1.3,0.2-3.5,0.9-4.6,0c-1.3-3.2,0.5-8.5-0.4-12
			c-0.4-1.7-1.7-2.6-2.7-3.5c-4.9,1.3-2.6,9.8-3.1,15.4c-1.7-0.1-3-0.6-5-0.4c-0.8-3.2,0.5-8.5-0.4-12c-0.4-1.7-2-2.4-2.7-3.5
			c-1.9,0.6-2.8,2.4-3.9,3.9c0,3.9,0,7.7,0,11.6c-1.4,0.7-3.5,0.3-5,0c-0.5-7.2,1.4-12.4-3.5-15.4c-1,1.1-2.1,2.3-3.1,3.5
			c0.1,3.1-0.4,3.2-0.4,6.2C23,210.1,24.3,205.8,24,203z M41.4,231.5c-1.1,0.3-1-0.5-1.9-0.4c-1.8-0.6-3.1-2.1-4.6-3.1
			c-0.6-0.4-1.2-0.6-1.9-1.2c-0.1-0.1-0.6-0.3-0.8-0.4c-0.3-0.3-0.1-0.9-0.4-1.2c-0.4-0.4-1.5-0.1-1.5-1.2c-2.2-1.9-4.3-3.9-6.2-6.2
			c-2.5-2.9-4.8-6-6.6-9.6c0-1.3-1.1-1.5-0.8-3.1c1.1,0.4,1.6,1.2,2.7,1.5c1.1,1,2.3,1.8,3.5,2.7c3.9,3.3,7.7,6.7,10.8,10.8
			c1.4,1.7,3.1,3.1,4.2,5C38.5,228,40.8,228.9,41.4,231.5z M85.4,221.5c-14.2,0.6-29.2,1.3-43.6,0.8c-1.5-0.1-3.5,0.6-4.6-0.8
			c6.1-1.3,13.2,0.1,20.4-0.4c9.1-0.7,19.7-0.9,28.9-0.4C86.7,221.5,86,221.5,85.4,221.5z M94.2,213.4c-0.1,2.5-0.9,4.8-1.5,6.9
			c-0.7,2.1-1.3,4.2-2.3,6.2c-2.5-4.4,0.1-9.6,1.5-13.5C92.8,213,93.1,213.7,94.2,213.4z M90.4,212.6c-0.2,2.9-1.5,4.7-1.9,7.3
			c-1.5-2-1.6-5.4-2.3-8.1C88,211.7,89.3,212,90.4,212.6z M121.6,221.5c-0.7-0.5-1.3-1.1-1.9-1.5c-0.7-0.5-1.6-0.7-2.3-1.2
			c-0.2-0.1-0.3-0.7-0.4-0.8c-2.7-1.2-5.6-3.2-8.5-4.6c-3.1-1.5-6.7-2.9-10-4.2c-3.5-1.4-7.2-2.6-11.2-3.1c0.1-1.1,0.7-1.9,1.5-2.3
			c6,0.6,12.3,3.8,17.7,6.2c2.6,1.1,5.2,2.5,7.7,3.9c1.6,0.9,3.2,1.8,4.6,2.7c0.7,0.4,1.9,0.8,2.7,1.5c1.9,1.6,2.7,4.1,4.2,5.8
			C124.5,224.3,123,222.5,121.6,221.5z M144.8,214.9c-0.1,0.4,0.1,0.7,0.4,0.8c0.3,4-0.4,7.1-1.5,9.6c-2.5,0.8-2.5,4.2-5.8,4.2
			c-0.4-0.5-0.4-1.4-0.8-1.9c-0.3-1.7,0.7-2.2,0.4-3.9c0.5-1.4,0.9-2.9,1.5-4.2c-2.8-0.2-7.9,0.4-9.6-1.9c-0.1-0.4,0.1-0.7,0.4-0.8
			c0.8-1.4,2.5-1.9,3.9-2.7C136.8,212,142.3,212.5,144.8,214.9z M137.1,204.9c-0.4,2-1.3,3.3-1.5,5.4c-2.1,1.9-4.1,3.8-6.6,5.4
			c-4.1-2.6,1.2-9.1,3.1-11.2c-1.2-0.1-2.8,0.3-3.5-0.4c-3.3-0.2-5-2-6.6-3.9c0.2-1.1,1.5-1.1,2.3-1.5c3.4-1.7,8.5-0.3,10.8,1.5
			C136.6,201,137.4,202.4,137.1,204.9z M133.2,186c1.1,1.9,0.6,4-0.8,6.2c-1.7,2.7-5.9,5.3-10.8,5.4c0-1-0.7-1.2,0-1.9
			c0.6-2.2,1.8-3.8,3.5-5c0.7-1,3.1-1.9,0.8-2.7c-2.1-1-3.7-2.5-5-4.2c-0.7-0.4-0.9-1.2-0.8-2.3c2-0.9,3.7-0.7,6.2,0
			c1.5,0,2.4,0.7,3.5,1.2C131.2,183.7,132.2,184.2,133.2,186z M120.1,179.5c0.8-2.8,2.3-4.9,5-5.8c0,0.4,0.5,0.3,0.8,0.4
			c0.3-0.1,0.4,0.2,0.4,0.4c1.4,0.7,5.4,2.2,2.7,3.5c-2,1-6.3,3-8.9,1.9C120,179.8,120.1,179.5,120.1,179.5z M118.5,210.3
			c0.7,1.1,1.8,2.9,0.4,3.9c-0.4,0.1-0.7-0.1-0.8-0.4c-1.2,0.3-0.7-1.1-1.9-0.8C116.3,211.6,117.8,208.6,118.5,210.3z M116.2,203.4
			c0.6,1.1,1,2.3,1.2,3.9c0.1,0,0.3,0,0.4,0c-0.3,1.9-1.9,2.5-2.3,4.2c-0.9,0.1-1.9,0.1-2.3-0.4c-0.6-0.2-1-0.6-1.5-0.8
			c-0.2-1.5,0.8-1.8,1.2-2.7c0.7-0.9,1.1-1.9,1.9-2.7C115.1,204.3,115,203.2,116.2,203.4z M110.4,208.8c-1,1.2-2.4-0.4-3.5-0.4
			c-0.3-1.2,0.6-1.2,0.8-1.9c0.9-1.3,1.8-2.6,2.7-3.9c0.8-1.1,1.7-2.1,2.3-3.5c0.5-0.8,1.1-1.5,1.5-2.3
			C117.7,201.5,112.4,205.7,110.4,208.8z M119.3,154.8c0.7,0.8-0.1,1.6-0.4,2.3c-0.4,0.8-0.8,1.7-1.2,2.3c-0.1,0.2-0.7,0.3-0.8,0.4
			c-0.8,1.7-2.3,3.6-3.5,5.4c-0.9,1.4-1.7,2.8-2.7,4.2c-0.2,0.2-0.6,0.5-0.8,0.8c-0.5,0.8-1.1,2.1-1.9,3.1c-1.3,1.7-2.9,3.7-4.2,5.8
			c-1.4,2-2.9,3.7-4.2,5.8c-0.8,1.2-1.7,2.5-2.7,3.9c-0.9,1.3-1.6,2.7-2.7,4.2c-0.9,1.2-1.6,2.2-2.7,3.9c-0.8,1.3-1.6,2.7-2.7,4.2
			c-0.4,0.6-1.1,0.9-1.5,1.5c-1.8,2.4-3.6,5.4-5.4,8.1c-0.7,1.1-1.6,2.7-2.7,3.9c-1.3,1.3-2.2,2.6-4.6,1.9c0.5-2.5,2.5-4.1,3.9-6.2
			c1.3-2,3-4.4,4.6-6.6c0.2-0.3,0.1-0.8,0.4-1.2c0.8-1.2,1.7-2.4,2.7-3.9c5-7,10.3-15.6,15.8-22.8c0.2-0.3,0.6-0.5,0.8-0.8
			c0.9-1.1,2-3.1,3.1-4.6c0.5-0.7,1.1-1.3,1.5-1.9c0.6-0.8,1.3-1.7,1.9-2.7c0.2-0.3,0.2-0.8,0.4-1.2c0.4-0.6,1.1-0.9,1.5-1.5
			c0.5-0.7,0.7-1.7,1.2-2.3c0.2-0.3,0.5-0.4,0.8-0.8c1-1.7,2.5-4.2,4.2-5.8C118.5,154.1,118.4,154.9,119.3,154.8z M115.5,152.8
			c0,1.4-0.8,2.1-1.5,2.7c-2.4-0.9-4.6-2-6.9-3.1C107.9,147.7,112.7,152.5,115.5,152.8z M107.4,109.3c0.2,2,1.9,3.9,3.1,5.8
			c0.3,0.4,0.5,1.1,0.8,1.5c0.1,0.2,0.7,0.3,0.8,0.4c0.3,0.7,0.7,1.8,1.5,2.7c0.5,0.5,0,0.8,0.4,1.9c0.1,0.2,0.7,0.6,0.8,0.8
			c0.2,0.6,0.7,2.3,0,2.3c0,0.1,0,0.3,0,0.4c-0.4,2.7-4.4,1.7-5.8,3.5c-0.1,1.5,0,2.8,0.4,3.9c-0.5,0.5-1.7,0.4-2.7,0.4
			c-1.7,0.9-2.1,3.1-4.6,3.1c0.8,2.5,3.8-0.3,5.4,0.8c0.4,1.1,0.4,1.6,0,2.7c-0.1,0-0.3,0-0.4,0c0,0.1,0,0.3,0,0.4
			c-0.5,3.4,2,3.9,1.5,7.3c-1.3,1.5-3.6,2.6-5.8,3.1c-0.8,0.2-1.9-0.2-3.1,0c-2.6,0.4-7.6,1.2-11.6,0.8c-0.8-0.1-1.7-0.5-2.7-0.8
			c-2-0.4-3.2-0.8-5-1.5c-0.8-0.3-1.8-0.5-2.3-0.8c-0.2-0.1-0.3-0.7-0.4-0.8c-1.6-0.7-3.2-2.5-4.6-3.9c-0.5-0.5-1.6-0.6-1.5-1.5
			c0.9-2.7,3.3-1.1,5.4-1.9c5-2.1,5.5-10.2-0.4-11.6c-1.5,0-2.3,0.8-3.9,0.8c0.5-2.2,1.1-4.3,2.3-5.8c0-0.4,0-0.8,0-1.2
			c0.6-1.3,2.2-1.7,1.9-3.9c0.3-0.1,0.4-0.4,0.8-0.4c1.7-4.9,4-10.2,5-15.8c0.4-2.1,0-4.2,1.2-6.2c8.9-0.1,17.6-0.1,23.9,2.3
			c0,0.9,0.7,1.1,0.4,2.3c0,0.1,0,0.3,0,0.4C108.8,104.4,107,106.5,107.4,109.3z"/>
		<path fill="#171717" d="M146.7,231.9h1.5c0-0.1,0-0.3,0-0.4C147.8,231.7,147.3,231.8,146.7,231.9z"/>
		<path fill="#171717" d="M110.1,223.8c-1-1.7-3.3-2.1-5-3.1c-1.5,0.9-1.5,2.9-2.3,4.2c0.1-0.1-0.4,0.8-0.4,0.8
			c-0.1,0.1-0.7-0.1-0.8,0c-0.3,0.4-0.1,1.1-0.4,1.5c-0.5,0.7-1.2,1.2-1.5,1.9c-0.4,0.8-0.6,1.9-1,2.7h4.4c1.1-1.9,2.2-3.8,3.2-5.8
			C108.7,226.6,109.2,225,110.1,223.8z"/>
		<path fill="#171717" d="M44.5,83.8c0.4,0.5,1.2,0.7,1.5,1.2c0.3,0.3,0.2,0.9,0.4,1.2c0.6,0.7,2,1.9,2.7,3.1
			c0.4,0.7,0.9,1.9,1.9,2.3c3.7-0.9,7.6-1.7,11.2-2.7c0.7-2.6,0.5-6.2,1.3-8.7h-3.9c0.2,1.7-0.3,4.4-0.9,6c-1,0.1-2,0.6-2.7,0.8
			c-0.8,0.2-2.5,0.5-3.1,0.4c-1-0.2-1.2-0.7-1.9-1.5c-1-1.1-1.7-2-2.7-3.5c-0.2-0.3-0.6-0.5-0.8-0.8c-0.3-0.4-0.5-0.8-0.8-1.3h-5.3
			C42.5,81.1,43.4,82.6,44.5,83.8z"/>
		<path fill="#171717" d="M14.4,219.6c-1.2,0.2-2.3,0.9-2.6,1.9v1.3c0.1,0.2,0.1,0.4,0.3,0.7c-0.1,0.1-0.2,0.1-0.3,0.2v5.6
			c1.9-1.3,3.9-3.6,6.1-5.1C17.1,222.3,15.9,220.8,14.4,219.6z"/>
		<path fill="#F7CC00" d="M140.9,126.6c1.8,1.6,3.7,3.3,5.8,4.6c0.4,0,0.8,0,1.2,0c0-0.1,0-0.3,0-0.4c1.4-4.4-3.6-5.6-5.8-7.7
			c0-0.1,0-0.3,0-0.4c-1.7-0.8-1.8-3.1-4.6-2.7c0,0.5-0.1,0.9-0.8,0.8C136.7,123.7,139.3,125.1,140.9,126.6z"/>
		<path fill="#F7CC00" d="M147.5,134.7c-1-3.8-1.7-1.3-3.9-0.4c-4.1,0.6-5-3.4-3.5-6.2c0-1.7-2.4-1.9-3.1-0.8
			c-1,0.7-1.3,3.5-1.2,4.6C136.5,137.6,144.3,139.4,147.5,134.7z"/>
		<path fill="#F7CC00" d="M39.5,135.5c-0.9-0.1-2.2,0.8-1.2,2.3c0.3-0.1,0.4,0.1,0.4,0.4c0.8-0.5,1.4-1.1,1.9-1.9
			C39,137.1,41.3,135.7,39.5,135.5z"/>
		<path fill="#F7CC00" d="M52.2,137c0.5,1.3-1.8,3.1-2.3,4.6c-0.1,0-0.3,0-0.4,0c-0.5,0.1-0.4,0.6-0.4,1.2c1.7,1.1,2.3-1.5,3.1-2.7
			c0.8-1.3,2.8-3.1,1.5-4.6C52.5,135.3,52.7,136.4,52.2,137z"/>
		<path fill="#F7CC00" d="M45.6,141.3c1.5,0.8,3.7-1.1,4.2-1.9c0.5-0.8,2-3,1.2-3.5C48.7,137.2,46.2,138.3,45.6,141.3z"/>
		<path fill="#F7CC00" d="M33.7,147.8c1.7,0,3.3,0,5,0c0.4,0,0.8,0,1.2,0c0-0.9,0.7-1.1,0.4-2.3c-0.6,0.1-1.4-0.1-1.5,0.4
			c-2.7,0.8-7.7,0.7-8.1-1.9c-0.6-1.9,0.2-5.1,2.7-5c1,0,2.8,0.2,2.3,2.7c-1.1-0.4-0.7-2.1-2.7-1.5c-3.2,1.5-0.8,5.3,2.3,4.6
			c1.7-0.4,3-3,2.3-4.6c-1.4-3.6-6.8-4-8.9-0.8C26.6,143.2,29.2,148.1,33.7,147.8z"/>
		<path fill="#F7CC00" d="M42.2,139c-0.1,0-0.3,0-0.4,0c-0.2,0.3-0.3,0.7-0.8,0.8c0.4-1,1.5-1.3,1.5-2.7c-1.8,0.1-1.7,2.2-3.5,2.3
			c-0.4,0.5-0.4,1.4-0.4,2.3C40.3,141.2,41.3,140.2,42.2,139z"/>
		<path fill="#F7CC00" d="M62.6,141.3c2.2-0.1,2.1-2.6,2.7-4.2C63.6,137.5,61.9,139.6,62.6,141.3z"/>
		<path fill="#F7CC00" d="M63.8,145.9c1.9-2.1,3.3-4.6,4.2-7.7c-0.7-0.2-0.3-1.5-1.5-1.2C65.7,139.8,62.9,142.7,63.8,145.9z"/>
		<path fill="#F7CC00" d="M45.3,139.3c-1.1-0.3,0.9-0.6,0.4-1.5c-1.3-0.6-1.4,1-1.9,1.5c-1.2,1.2-2.6,2.8-3.9,3.9
			c-0.3,0.3-0.9,0.1-1.2,0.4c-0.3,0.2-0.3,0.8-0.8,0.8c-0.2-0.2-0.5,0.4-0.4,0.4c3.6,0.2,6-3.7,8.1-5.8
			C45.3,138.9,45.3,139.1,45.3,139.3z"/>
		<path fill="#F7CC00" d="M54.5,141.3c0.6-1,1.4-1.7,1.5-3.1c-1.2-1.1-1.3,1.3-2.3,1.5c-0.2,0-0.5,0.1-0.4,0.4
			c0.5,1.2-1.9,2.7-2.3,4.2c-0.1,0-0.3,0-0.4,0c-0.9,0.1,0,1.4,0.4,1.6c1.4-1.7,3-3.2,4.2-5c-0.1,0-0.3,0-0.4,0
			C55,141.2,54.7,141.2,54.5,141.3z"/>
		<path fill="#F7CC00" d="M55.7,147.4c1.9,2.8,8,2.3,10,0c0,0.4-0.3,0.5-0.4,0.8c1-0.7,2.9-2.5,3.9-4.2c0.9-1.6,2.7-4.2,0-4.6
			c-2.3,2.8-3.3,6.8-6.6,8.5c-3,1.2-6.7-0.2-5.8-4.2c0.4,0,0.5-0.3,0.8-0.4c1-0.8,3.4-0.5,3.5,0.8c-1.4-0.2-2.2-0.6-3.1,0.4
			c0.2,2.1,1.7,2.9,3.5,2.3c0.1-0.5,0.6-0.6,0.8-1.2c-0.6-0.1,0.4-1.6,0-2.7c-1-1-3.2-1.7-4.6-1.2C55.3,141.7,53.9,145.7,55.7,147.4
			z"/>
		<path fill="#F7CC00" d="M43.7,151.3c4.7,0,7.3,0,9.3-2.3c0.8-0.9,2-1.6,0.8-3.1c-2.1-0.8-3.3,4.6-5.8,3.5c-0.2,0-0.5,0.1-0.4,0.4
			c-2,1.3-4.5-0.4-4.6-2.3c-1.1-5.7,8.1-3.5,4.2,0c-0.1,0.6-0.8,0.3-1.2,0c-0.3-1.1,0.8-0.8,0.8-1.5c-0.3-1.4-2.2-0.6-2.7,0
			c-1.2,3.3,4.2,3.7,5.4,1.2c0.2-1.6-0.2-2.6-0.8-3.5c-2.8-1.7-6.5-0.2-7.3,2.3C40,148.3,42.3,150.3,43.7,151.3z"/>
		<path fill="#F7CC00" d="M107,152.5c2.3,1,4.5,2.2,6.9,3.1c0.8-0.6,1.5-1.3,1.5-2.7C112.7,152.5,107.9,147.7,107,152.5z"/>
		<path fill="#F7CC00" d="M22.9,157.9c2.1,1.7,5.1,1,5.4-1.9c0.3-2.5-2.1-5.3-5.8-3.9C21,155,20.9,156.3,22.9,157.9z"/>
		<path fill="#F7CC00" d="M19,158.6c2.8-1.9-0.2-6.9-2.7-5.8c-1.5,0.5-2.3,1.9-3.1,3.1c0,0.6,0,1.3,0,1.9
			C13.5,159.8,18.1,160.8,19,158.6z"/>
		<path fill="#F7CC00" d="M110.1,158.6c-1.7-0.3-5.6-4.1-6.6-1.2c0.6,0.8,1.8,1,2.7,1.5c1.2-1,3.3,2.2,5,0.8c0.7-1,1.8-1.6,1.9-3.1
			c-1.4-1.5-3.9-2-5.8-3.1c-0.1,0.5-1,0.3-1.5,0.4c0.8,1.5,3.8,1.9,5,2.7c0.2,0.1-0.3,0.5-0.4,0.4
			C110.9,157.6,111,158.5,110.1,158.6z"/>
		<path fill="#F7CC00" d="M101.6,159.4c0.7,0-0.1,0.5,0,0.8c0.2,1.2,1.4,1.8,3.1,1.9c0.9,0.7,1.9,1.5,3.5,1.5
			c0.4-0.1,1.3-1.7,0.4-1.9c-0.2,0-0.5-0.1-0.4-0.4c0-0.1,0.1-0.4,0-0.4C106.7,160.2,101.8,157.6,101.6,159.4z"/>
		<path fill="#F7CC00" d="M97.7,165.6c2,0.7,3.4,2,5.4,2.7c0.1-0.6-0.4-0.7-0.4-1.2c-1.1-0.6-1.8-1.6-3.1-1.9
			C99.5,166.5,98,164.2,97.7,165.6z"/>
		<path fill="#F7CC00" d="M100,162.5c1.3,1.4,3.2,2.2,5,3.1c0,0.6,0.2,1.5-0.4,1.5c-0.5,0.5-0.2,0,0-0.4c-0.5,0.1-0.7,0.5-1.5,0.4
			c1.1,0.3,0,1.7,0.8,1.9c0.6,0.2,0.5-1,1.5-0.8c0.2,0,0.5-0.1,0.4-0.4c-0.7-0.7,1.9-2.4,0-3.5c-1.4-0.9-3-1.6-4.6-2.3
			C100.6,162.1,100.1,162,100,162.5z"/>
		<path fill="#F7CC00" d="M96.6,167.1c-0.7,0-0.3,1.3-1.2,1.2c-0.2,0-0.5,0.1-0.4,0.4c1.7,0.4,4.3,1.8,5.4,2.3c0.3,0.2,1,0,0.4,0.4
			c0,0.2,0.1,0.5,0.4,0.4c0.3,0.1,0.8,0,0.8,0.4c0.6-0.2,0.9-0.6,1.2-1.2c-0.1-0.6-0.6-0.7-0.8-1.2c-1-0.9-2.2-1.7-3.5-2.3
			C99.8,169.2,97.6,167,96.6,167.1z"/>
		<path fill="#F7CC00" d="M29.1,176.8c1.2-1,2.7-1.7,3.1-3.5c0.1-1.4-1.8-3.4-4.2-3.5c-0.3,0-0.5,0-0.8,0c-0.8,1.3-2.4,2-2.3,4.2
			C25.6,175.6,27.6,175.9,29.1,176.8z"/>
		<path fill="#F7CC00" d="M98.1,176.8c0.9-0.3,1-1.3,1.9-1.5c0.6-0.7,1.4-1.2,1.2-2.7c-1.5-0.5-2.9-1.2-4.2-1.9
			c-0.3,0.9-1.7-0.3-2.3-0.4c-0.3,1.2,1.3,0.5,1.2,1.6c0,0.2,0.1,0.5,0.4,0.4c1-0.7,3.1,0.7,3.1,2.3c-0.1,0-0.3,0-0.4,0
			c-0.6,0.1-0.7,0.6-1.2,0.8c-2.3-0.3-3.3-1.8-5.8-1.9c0,1.4,1.9,0.9,2.3,1.9c0.1,0.5,0.9,0.4,1.2,0.8
			C95.9,175.1,97.5,176.5,98.1,176.8z"/>
		<path fill="#F7CC00" d="M120.1,179.8c2.5,1,6.9-0.9,8.9-1.9c2.1-1.9-2.1-2-2.7-3.5c0-0.2-0.1-0.5-0.4-0.4c-0.1,0.8-0.8,0-0.8,0
			c-2.3,0.3-4.7,3.5-4.2,5.4c-0.2,0.6-0.3,0-0.8,0C120.1,179.5,120,179.8,120.1,179.8z"/>
		<path fill="#F7CC00" d="M96.6,179.8c0.2-0.6,0.6-1,0.8-1.5c-1.7-1.3-4.6-1.6-6.2-3.1c0-0.1,0-0.3,0-0.4c-1.1,0.2-1.8,0.8-1.9,1.9
			c1.7,1.9,4.8,2.4,7.3,3.5C96.6,180.1,96.6,180,96.6,179.8z"/>
		<path fill="#F7CC00" d="M32.5,183.3c1.7-1.4,2.2-5.4-0.4-6.2c-0.5-0.8-2.1,0.5-3.1,0.4c0.1,1.5-1.7,2.5-1.5,3.9
			C27.8,183.3,30.5,185.2,32.5,183.3z"/>
		<path fill="#F7CC00" d="M26.7,185.6c1.1-2.4-0.6-5.3-3.5-5c-1.4,0.9-2.7,2-3.1,3.9c0,0.2,0.1,0.5,0.4,0.4
			C21.9,186.4,25,187.6,26.7,185.6z"/>
		<path fill="#F7CC00" d="M126.3,181.4c-2.5-0.7-4.2-0.9-6.2,0c-0.1,1.1,0.1,2,0.8,2.3c1.6,1.5,3.4,2.8,5,4.2
			c2.3,0.8-0.1,1.7-0.8,2.7c-1.4,1.4-2.3,3.3-3.5,5c-0.7,0.7,0,1,0,1.9c4.8-0.1,9.1-2.7,10.8-5.4c1.4-2.2,1.8-4.3,0.8-6.2
			c-1-1.8-2-2.3-3.5-3.5C129.4,182.8,126.9,182.1,126.3,181.4z"/>
		<path fill="#F7CC00" d="M88.1,184.5c-0.5-0.6-1.7-0.6-2.3-1.2c-0.1,0.7-1.3,0.2-1.5,0.8c-0.3,1.1,0.8,0.8,0.8,1.5
			c0.5,0.6,1.7,0.6,2.3,1.2c1.2-1.1,2.5,1.1,4.2,0.8c0.2,0,0.5-0.1,0.4-0.4C91.5,185.4,89.1,185.6,88.1,184.5z"/>
		<path fill="#F7CC00" d="M31.4,187.5c0.6,1.1,0.1,2.6,0.8,3.5c0.2,0.3,1.2,0.1,0.4,0.4c0.1,0.3,0.3,0.4,0.8,0.4
			c1.7-0.3,3-0.4,4.2-1.9c1.7-1.3,0.4-4.3-1.2-4.6c1.1,1.2-1.5,0.1-3.1,0.4c-1,0.2-0.8,0.6-1.5,0.8l0,0l0,0
			C31.8,186.9,31.8,187.5,31.4,187.5z"/>
		<path fill="#F7CC00" d="M88.8,191.8c-0.9-0.7,1.4-1.4,0.8-3.1c-1.6-0.2-2.9-0.7-3.9-1.5c0-0.2-0.1-0.5-0.4-0.4
			c-0.5,1.2-1.3-0.4-2.3,0c1.1,1.5,3.6,1.6,5,2.7c0.2,1.4-0.3,2.3-1.5,2.3c0-0.1,0-0.3,0-0.4c0-0.2-0.1-0.5-0.4-0.4
			c-1.6,1.2-3.8-2.3-5.8-0.8c0.7,0.1,1.3,0.3,1.5,0.8c0,0.2,0.1,0.5,0.4,0.4c1-0.8,3,0.6,3.9,1.2C86.8,193.6,88.8,192.7,88.8,191.8z
			"/>
		<path fill="#F7CC00" d="M27.1,196.8c2.2,0.1,2.8-1.5,3.5-3.1c1-2.7-0.7-5.1-2.7-5c-2.2,0.1-2.6,2.6-3.1,5
			C25.8,194.5,25.2,196.9,27.1,196.8z"/>
		<path fill="#F7CC00" d="M37.2,199.1c0.9-0.2,1.6-2.5,2.7-1.2c2.7-1.7,1.8-6.3-0.8-6.6c-2.5-0.3-4,3.3-3.1,6.2
			C36.8,197.7,36.8,198.6,37.2,199.1z"/>
		<path fill="#F7CC00" d="M86.9,194.1c-1.9-0.4-3.2-1.4-5-1.9c-0.6,1.1-2.6-0.9-3.5,0.4c-0.2,0.8,0.3,1,0.4,1.5c2,1,4.2,2,6.9,2.3
			C85.9,195.4,86.9,195.3,86.9,194.1z"/>
		<path fill="#F7CC00" d="M84.2,198c-0.3-1.2-2.6-0.2-2.7-1.5c0-0.2-0.1-0.5-0.4-0.4c-0.6,1-1.8-0.7-3.1-0.4c0.5,0.9,2,0.8,2.7,1.5
			c0,0.2,0.1,0.5,0.4,0.4c0.1-1.8,0.6,0.4,1.6,0c0.5,2.1-1,2.3-1.6,3.5c1.4,0.3,1.3-1,1.9-1.5c0.1,0,0.3,0,0.4,0
			c0.2,0,0.5-0.1,0.4-0.4C83,199.2,83.9,198,84.2,198z"/>
		<path fill="#F7CC00" d="M112.8,199.1c0.7,0.9-1.5,2-1.5,3.5c-0.3,0-0.5,0-0.8,0c-0.9,1.3-1.8,2.5-2.7,3.9c1.1,0.3-0.9,0.6-0.4,1.5
			c0.8,0.4,1.6,1,3.1,0.8c1.9-3.1,7.2-7.2,3.9-12C113.8,197.6,113.2,198.3,112.8,199.1z"/>
		<path fill="#F7CC00" d="M31.4,197.2c1.4,1.2,2.7,2.7,4.2,3.9c0-0.7-0.5-0.8-0.4-1.5c0.1,0,0.3,0,0.4,0c-0.6-0.7-0.6-2-1.5-2.3
			C33.8,198,31.7,197.6,31.4,197.2z"/>
		<path fill="#F7CC00" d="M114.7,204.9c-0.8,0.7-1.3,1.8-1.9,2.7c0.9,0.4-1.1,1.2-0.8,2.3c0,0.7,1.3,0.3,1.2,1.2
			c0.5,0.4,1.4,0.4,2.3,0.4c0.4-1.7,2-2.3,2.3-4.2c-0.1,0-0.3,0-0.4,0c-0.8-0.8-0.7-2.4-1.2-3.5C115,203.4,115.7,205,114.7,204.9z"
			/>
		<path fill="#F7CC00" d="M40.6,231.1c-0.5-2.4-2.6-3.3-3.1-5.8c0.1,0,0.3,0,0.4,0c-1.2-1.9-2.8-3.3-4.2-5
			c-3.6-3.6-7.1-7.3-10.8-10.8c-1.1-0.9-2.4-1.7-3.5-2.7c1,1.7-1.3-0.5-1.9-0.8c-1.4,0.4,1.4,1.9,0,2.3c1.7,3.7,4,6.8,6.6,9.6
			c2.2,1.9,4.3,4,6.2,6.2c0.1,1,1.1,0.7,1.5,1.2c0.3,0.3,0.1,0.9,0.4,1.2c0.1,0.1,0.7,0.3,0.8,0.4c0.8,0.5,1.3,0.8,1.9,1.2
			c1.6,1,2.8,2.5,4.6,3.1C37.9,230,39.8,230.6,40.6,231.1z"/>
		<path fill="#F7CC00" d="M116.6,211.9c-0.2,1.3,1.2,1.2,1.5,1.9c0.1,0.3,0.3,0.5,0.8,0.4c1.4-1,0.3-2.8-0.4-3.9
			C117.2,210.1,117.4,211.5,116.6,211.9z"/>
		<path fill="#F7CC00" d="M129.7,216.9c-0.3,0.1-0.4,0.3-0.4,0.8c1.7,2.3,6.9,1.7,9.6,1.9c-0.6,1.3-1,2.8-1.5,4.2
			c0.9,0.8,0,3.1-0.4,3.9c0.4,0.5,0.4,1.4,0.8,1.9c3.3,0,3.3-3.4,5.8-4.2c1.1-2.6,1.9-5.6,1.5-9.6c-0.3-0.1-0.4-0.3-0.4-0.8
			c-2.5-2.5-8-2.9-11.2-0.8C132.6,215.4,130.9,215.8,129.7,216.9z"/>
		<path fill="#B32621" d="M88.5,228c-0.5-1.2-0.3-3.1-0.8-4.2c-1.3-0.6-2.5,0-3.9,0c-1.7,0.1-4.9,0.4-5.4,0.4
			c-0.7,0-2.4-0.4-3.5-0.4c-3.7,0.2-7.8,0.6-12,0.8c-9.1,0.4-15.1-0.1-23.1,0.4c0.2,2.2,1.4,3.5,3.1,4.2c3.2-1.7,8-0.5,9.1,2.7h0.6
			l0,0c1.3-2,5.9-4.2,9.6-3.5c1.6,0.3,4,2,4.5,3.5h0.9c2.1-4.8,10.9-5.1,12.8,0l0,0h0.9C81.9,228.9,85.3,228.6,88.5,228z"/>
		<path fill="#F7CC00" d="M73.8,98.1c-1.1,2.8-1.2,5.5-1.9,8.1c-0.7,2.5-2,4.6-3.1,6.9c-0.3,0.6-0.1,1.2-0.4,1.9
			c-0.7,1.7-1.9,3.4-2.7,5c-0.2,0.4-0.6,0.2-0.8,0.4c-0.2,0.3,0.2,0.9,0,1.2c-0.5,0.9-0.8,1.7-1.2,2.7c-0.3,0.9-1.4,1.7-1.2,3.1
			c1.7-0.1,2-2.2,2.7-3.5c0.8-1.5,1.1-3.2,2.3-4.2c-0.6-1.2,1.2-3.4,1.9-4.6c2.2-4.8,4.4-9.5,5-15.8c0-0.8,0-1.5,0-2.3
			C74,97,74.4,98.1,73.8,98.1z"/>
		<path fill="#F7CC00" d="M67.6,109.6c-0.5,1.3-1,2.7-1.5,3.9c-2.1,4.9-5,9.1-6.6,14.3c2.1,0.4,1.8-1.8,2.3-2.7
			c0.8-1.5,1.9-4.2,2.7-5c0.6-0.6,0.8-1.3,1.2-1.9c0.1-0.2-0.1-0.6,0-0.8c0.1-0.1,0.7-0.2,0.8-0.4c0.3-0.6,0.2-1,0.4-1.5
			c0.9-2.3,1.8-4.6,2.7-6.9c1-2.6,2.5-6.9,3.1-9.3c-0.4-0.1-0.4-0.6-0.4-1.2c-0.1-0.5-0.4-0.2-0.8,0c-1.2,2.7-1.4,5.5-2.3,8.1
			C68.8,107.3,68.1,108.4,67.6,109.6z"/>
		<path fill="#171717" d="M103.1,103.8c0.1-0.9,1.3-0.7,1.2-1.9c-4.4-2.3-8.7-0.7-12,0.8c-1.7,0.8-4,1.5-4.2,3.1
			C92.3,104.3,98.3,101.1,103.1,103.8z"/>
		<path fill="#F7CC00" d="M56.4,100c-0.5,0.1-0.6,0.7-1.2,0.8c-2.6,6.4-5.9,12.8-8.5,18.5c-0.1,0.1-0.7,0.2-0.8,0.4
			c-0.1,0.2,0.1,0.6,0,0.8c-0.1,0.1-0.7,0.2-0.8,0.4c-0.2,0.3-0.3,1-0.4,1.2c-0.5,1.4-0.6,2.7-1.2,3.9c0.4,0,0.3,0.5,0.4,0.8
			c0.8-0.4,1.4-1,1.9-1.5c0.4-1.4,1-2.6,1.2-4.2c1.8-1.3,2.1-3.4,3.1-5.4c1.9-3.8,4.4-8.2,5.8-12C55.1,102.7,56.9,101.5,56.4,100z"
			/>
		<path fill="#171717" d="M101.6,118.5c1.1-0.3-0.2-1.2,0-1.9c0-0.1,0-0.3,0-0.4c-1-2-0.1-5.5,0.4-7.3c1-0.6,2.3-0.8,2.7-1.9
			c-0.1-0.9-1.4,0-1.5,0.4c-1.4-0.3,0-1.3-0.8-1.9c-0.7,0.7-1,1.8-1.5,2.7c-3.4,1.5-7.8,2-10,4.6c3.4-0.6,6,1,9.6,1.2
			C100.5,115.7,100.8,117.3,101.6,118.5z M94.2,111.2c0.7-0.4,1.9-0.1,2.3-0.8c0.8,0.3,1,1,1.2,1.9
			C96.9,112.9,94.2,112.7,94.2,111.2z M98.5,110.4c1.2-0.1,0.8,1.3,1.2,1.9C98.4,112.5,98.4,111.5,98.5,110.4z"/>
		<path fill="#171717" d="M96.6,106.9c-1.2,0.1-2,1.2-2.3,1.5s-0.8,0.1-1.2,0.4c-0.2,0.1-0.2,0.6-0.4,0.8c-0.7,0.7-2.4,0.8-2.3,1.9
			C93.2,110.8,94.8,108.8,96.6,106.9z"/>
		<path fill="#171717" d="M107.7,126.2c1.1-0.5,2.7-0.4,4.2-0.4c-0.1-2.2-4.1-0.9-5-0.4C107,125.9,107.1,126.4,107.7,126.2z"/>
		<path fill="#F7CC00" d="M22.5,179.5c0.6-1.3,2.1-3.4,1.2-5c-1.4-1.5-1.3-2.1-3.9-1.5v-0.4c-0.5,0-0.5,0.5-1.2,0.4
			c-0.5,1.5-1.6,2.9-1.2,4.6C18.1,179.7,20.1,180.4,22.5,179.5z"/>
		<path fill="#F7CC00" d="M92.7,184.5c0,0.2-0.1,0.5-0.4,0.4c0.1,0.9,1.7,0.2,1.6-0.4c-1.7,0.8,1-1.7,1.2-2.7
			c-1.6-1.6-4.2-2.2-6.6-3.1c0.2,2.1,6.4,1.2,4.6,4.6c-0.1,0.2-0.5-0.2-0.4-0.4c-0.1,0-0.3,0-0.4,0c-0.8,0.9-2.2-0.4-3.5-0.8
			c-1.3-0.4-3.5-1.3-2.3,0.4c0.3,0.8,1.7,0.6,2.3,1.2C89.8,182.7,91.1,184.7,92.7,184.5z"/>
		<path fill="#171717" d="M62.2,228.4c-3.7-0.7-8.3,1.5-9.6,3.5l0,0h14.1C66.2,230.4,63.9,228.7,62.2,228.4z"/>
		<path fill="#F7CC00" d="M78.4,107.3c-0.6,1.8-1,3.9-1.5,5c-0.3,0.6-0.5,1.4-0.8,1.9c-0.3,0.6-0.5,1.4-0.8,1.9
			c-0.1,0.3-0.2,0.6-0.4,1.2c-0.6,1.5-1.8,2.9-2.3,3.9c-0.9,1.7-1.5,3.6-1.9,5c-0.4,1.2-0.8,2.6-0.8,3.5c-0.2,1.2,0.5,3.3-0.4,3.9
			c0.4,1.5,1.7,2.2,2.7,3.1c0.9-1.3-1.8-1.6-1.5-3.5c0.2-2.5,0.7-4.7,1.5-6.6c-0.7-1.1,0.8-3.3,1.5-4.2c2.2-3.3,4-7.6,5.4-12
			c1.5-4.5,2.9-9.4,2.7-14.3c-1.4,0.3-1.4,2.3-1.5,3.1c-0.3,1.4-0.1,3-0.4,4.2C79.7,104.7,78.8,106.1,78.4,107.3z"/>
		<path fill="#F7CC00" d="M48,110.4c-1.4,3-2.9,7.3-4.6,9.6c-0.4,0.5-0.9,0.7-1.2,1.2c-0.2,0.4-0.2,1.3-0.4,1.9
			c-0.8,2.6-1.9,6.9,0,8.5c0.7,0.6,0.9,0.4,0.8-0.8c0-0.1,0-0.3,0-0.4c-0.6-0.4-0.6-3.4,0-3.9c0.5-0.9,0.5-1.8,0.8-2.7
			c0.3-0.9,0.4-2,0.8-2.7c0.3-0.7,1.1-0.9,1.5-1.6s0.7-1.8,1.2-2.7c0.7-1.5,1.3-3,1.9-4.2c1.1-2.1,2.4-4,3.1-6.2
			c-0.6-1,0.9-3.2,1.5-4.2c0.8-0.1,0.1-1.7,0.8-1.9c-2.6-0.4-2.7,2.8-3.5,4.6C50,106.7,48.8,108.6,48,110.4z"/>
		<path fill="#F7CC00" d="M29.1,163.6c1.2-1.1-0.3-2.8-0.8-3.5c-1.2,0-2.3,0-3.5,0c-0.3,1.7-3,2.9-1.5,5
			C24.9,167.8,28.7,166.4,29.1,163.6z"/>
		<path fill="#F7CC00" d="M19,169c2.2-0.4,2.1-2.1,2.7-4.6c-1.2-0.9-2.5-3.3-4.6-3.1c-1.9,0.2-3.5,1.8-2.3,4.6
			C15.9,167.4,17,169.4,19,169z"/>
		<path fill="#F7CC00" d="M147.5,191.8c0-0.1,0-0.3,0-0.4c-0.5-1.6-4.9-1.6-5.4,0c0.6,1,1.2,2.1,1.9,3.1c1.2,0.2,2.6,0.4,3.9,0.8
			c1.4,0.3,3.3,0.4,3.5,1.5c-2.4,0.3-3.7-0.7-6.2-0.4c-0.7,0.9-1.5,1.9-1.9,3.1c0.3,0.1,0.4,0.3,0.4,0.8c0.9,0.9,2.7,0.9,3.9,1.5
			c0.8-0.4,1.4-1.1,2.3-1.5c0.8-0.4,2.1-1,2.3-0.8c-0.2,1.2-1.5,1.7-2.3,2.3s-1.7,1.6-2.7,1.9c0.1,1.5-1,3.4,0,4.6
			c2.1,0.1,3.2-1.1,3.9-1.9c0.3-0.4,0.9-0.8,1.2-1.2c0.5-0.7,0.6-2.5,1.5-1.9c-1,3.4-4,6.4-1.9,10.4c2-0.5,3.4-1.2,3.9-3.1
			c0.6-2.2-1.2-4.9,0-6.9c1.2,2.3,0.3,6.6,2.3,8.1v-0.1V209c-0.2-1.1-0.2-2.6,0-3.7V203c-0.9-2.4-2.7-4-4.3-5.8
			C151.6,195.4,149.7,193.4,147.5,191.8z"/>
		<path fill="#F7CC00" d="M124.3,198.7c1,0.5-1.5,0.7-1.9,1.2c0.9,2.6,3.7,3.2,6.2,4.2c0.6,0.6,2.3,0.3,3.5,0.4
			c-1.8,2-7.2,8.6-3.1,11.2c2.4-1.6,4.5-3.5,6.6-5.4c0.3-2.1,1.2-3.4,1.5-5.4c-0.7-1.3-0.1-4.1-1.9-4.2c0-0.1,0-0.3,0-0.4
			C132.9,198.5,127.7,197.1,124.3,198.7z"/>
		<path fill="#F7CC00" d="M154.4,226.1c-0.8-1.3-2.8-1.3-5-1.2c-1.6-0.1-2.7,0.4-3.9,0.8c-1.1,1.1-2.6,1.8-3.9,2.7
			c-0.7,1.1-2,1.6-1.9,3.5h0.1h6.9c0.5-0.1,1-0.3,1.5-0.4c0,0.1,0,0.3,0,0.4h6.4C154.7,230,154.6,228,154.4,226.1z"/>
		<path fill="#171717" d="M105.4,127c1.3-0.6-1-2.8,0.4-3.5c0-0.1,0-0.3,0-0.4c-0.3-1.1,0.5-1,0.4-1.9
			C104.6,121.6,103.8,126,105.4,127z"/>
		<path fill="#171717" d="M106.2,128.2c-0.3,0.1-0.8,0-0.8,0.4c-2.1,0.1-3.2,1.5-4.2,1.9c0.1-0.1-0.2-0.4-0.4-0.4
			c0,0-0.3,0.7-0.4,0.8c-1.5,0.9-3.1,1.3-4.2,3.1c4.3,0,7-1.7,10.4-2.7C106.5,130.1,106.8,128.7,106.2,128.2z"/>
	</g>
</g>
</svg>
