<?xml version="1.0" encoding="utf-8"?>
<!-- Generator: Adobe Illustrator 19.2.0, SVG Export Plug-In . SVG Version: 6.00 Build 0)  -->
<svg version="1.1" baseProfile="tiny" id="Layer_1" xmlns="http://www.w3.org/2000/svg" xmlns:xlink="http://www.w3.org/1999/xlink"
	 x="0px" y="0px" viewBox="0 0 170 244" xml:space="preserve">
<metadata><?xpacket begin="﻿" id="W5M0MpCehiHzreSzNTczkc9d"?>
<x:xmpmeta xmlns:x="adobe:ns:meta/" x:xmptk="Adobe XMP Core 5.6-c111 79.158366, 2015/09/25-01:12:00        ">
   <rdf:RDF xmlns:rdf="http://www.w3.org/1999/02/22-rdf-syntax-ns#">
      <rdf:Description rdf:about=""/>
   </rdf:RDF>
</x:xmpmeta>
                                                                                                    
                                                                                                    
                                                                                                    
                                                                                                    
                                                                                                    
                                                                                                    
                                                                                                    
                                                                                                    
                                                                                                    
                                                                                                    
                                                                                                    
                                                                                                    
                                                                                                    
                                                                                                    
                                                                                                    
                                                                                                    
                                                                                                    
                                                                                                    
                                                                                                    
                                                                                                    
                           
<?xpacket end="w"?></metadata>
<g id="Layer_5">
	<path fill="#FFFFFF" d="M16.8,0H153c9.4,0,17,7.6,17,17.1v209.8c0,9.4-7.6,17.1-17,17.1H16.8c-9.4,0-17-7.6-17-17.1V17.1
		C-0.2,7.6,7.4,0,16.8,0z"/>
	<path fill="#171717" d="M81.5,69.3c0,0-2.5-3.4-3.9-7.5c-1.4-4-1.9-9.5-1.9-9.5s3.9,6.1,10.7,6c6.8-0.1,11.7-5.9,11.7-11.7
		c0-5.9-5.1-11.5-10.5-11.8c-5.3-0.3-6.9,0.9-6.9,0.9s4.2-3.6,4.1-10.5C84.6,14.4,73.6,14,73.6,14s-11.1,0.3-11.2,11.2
		c-0.1,6.9,4.1,10.5,4.1,10.5s-1.5-1.2-6.9-0.9c-5.3,0.3-10.5,5.9-10.5,11.8S54,58.2,60.8,58.3s10.7-6,10.7-6s-0.5,5.4-1.9,9.5
		c-1.4,4-3.9,7.5-3.9,7.5H81.5z"/>
	<polygon fill="#171717" points="44.8,63.2 35.9,36.7 45.4,21.4 50.4,21.4 50.4,16 34.1,16 34.1,21.4 39.1,21.4 23.6,46.5 
		23.6,21.1 28.2,21.1 28.2,15.8 12,15.8 12,21.1 18.2,21.1 18.2,63.2 12,63.2 12,68.5 28.2,68.5 28.2,63.2 23.6,63.2 23.6,56.6 
		32.2,42.6 39.2,63.2 34.4,63.2 34.4,68.5 50.7,68.5 50.7,63.2 	"/>
	<g>
		<path fill="none" d="M58.9,119.4c-1.1-0.7-2.5-1.1-3.9-1.5c-0.4,0.9-0.7,1.9-0.8,3.1C56.2,120.8,58.4,121,58.9,119.4z"/>
		<path fill="none" d="M92.9,106.6c-0.3,2.7,0.9,5.4,1.2,8.5c0.6,7.8-0.1,14.5,0,21.7c-0.5,1.2,0.2,1.4,0,3.1c0.3,1.6-0.5,4.1,0.4,5
			c-0.1,1-0.1,1.9,0.4,2.3c0.3,1.8,0.1,4,1.9,4.3c0.7-4.1-0.9-7.8-1.2-12c0-0.1,0-0.3,0-0.4c0.5-2.5,0.5-8.2,0.8-10.1H96
			c0-1.2,0-2.3,0-3.5c0.3-1.6,0.8-5.7,0-8.1c0-0.4,0-0.8,0-1.2c-0.1-1.9-0.2-3.7-0.8-5c0-0.1,0-0.3,0-0.4
			C94.8,109.1,95.1,106.6,92.9,106.6z"/>
		<path fill="none" d="M60.8,198.1c0.2-3.2-0.6-5.4-0.8-8.1c-1.2-1.5-3.4-2-5-3.1c0.5-2.2,2.6-3.5,2.7-5.8c0.1-1.7-1.2-4.3-1.9-6.2
			c-0.9-2.3-1.6-4.4-2.7-5.8c-2.2-1.4-5.8-1.4-8.5-2.3c-0.4-1.1,0.8-3.6-0.8-3.5c-1.9,0.3-1.7,2.7-1.9,4.6c-1,1.1-1.6,2.5-2.7,3.5
			c-3.3,2.9-7.9,2.8-10.8,0.4c-0.8-0.6-1.5-1.2-1.9-1.9c-1.5-2.3-1.5-6-1.9-8.1c-0.7,0.2-1,0.8-1.9,0.8c-0.9,7.1,3.1,11.9,8.5,13.9
			c1.3,0.2,3.6-0.5,4.2,0.4c0,1.6,0,3.1,0,4.7c1,1.6,2.6,2.6,3.9,3.9c1.3,1.3,2.2,2.9,3.5,4.3c1.7,0.7,4.5,0.2,5.8,1.2
			c-1.7,5.7,1.4,10.5,5.4,10.9C56.6,201.8,59.1,200.4,60.8,198.1z M38,178.3c0.3-4,3.6-7.6,7-8.1c4-0.6,7.7,1.6,9.3,4.3
			c2.2,3.9,0.4,10.3-4.3,12.4C44,189.5,37.5,185.4,38,178.3z M53.9,189.6c0.3-0.1,0.8,0,1.2,0c1.4,0.1,3.4,1.4,3.9,2.3
			c1.5,3-0.7,7.6-3.9,7.7C49.4,200,48.2,191.1,53.9,189.6z"/>
		<path fill="none" d="M104.1,108.2c0.7,3.3,1.5,6.5,1.5,10.5c0,0.1,0,0.3,0,0.4c0.3,5.2-0.6,9.3-0.4,14.3c0,1,0,2.1,0,3.1
			c0.3,1.6-0.5,4.1,0.4,5c0,0.1,0,0.3,0,0.4c-0.3,1.4,0.7,1.7,0.4,3.1c0.6,0,1.3,0,1.9,0c0-2.4-0.8-4.1-1.2-6.2c0-0.1,0-0.3,0-0.4
			c0-2.1,0-4.1,0-6.2c0-0.1,0-0.3,0-0.4c0.9-1.9,0.1-5.6,0.4-8.1c0.1-0.9,0.8-1.6,0-2.3c0-3,0.2-6.1-0.8-8.1c0-0.1,0-0.3,0-0.4
			C106,110.9,106.3,108.3,104.1,108.2z"/>
		<path fill="none" d="M101,110.5c-0.4-1.5-1.4-3.6-2.7-3.5c0.5,2.6,0.8,5.4,1.5,7.7c0,0.3,0,0.5,0,0.8c0,4.8,0,9.6,0,14.3
			c0,0.5,0,1,0,1.5c-0.4,0.8-0.8,6.5,0,8.5c0,0.3,0,0.5,0,0.8c0.2,2.1-0.3,4.9,1.9,5c0.7-1.4,0-4.6-0.4-6.2c0-0.1,0-0.3,0-0.4
			c-0.2-8.1,1.2-16.7,0-24.4c0-0.1,0-0.3,0-0.4C101.2,113,101.3,111.6,101,110.5z"/>
		<path fill="none" d="M114.1,112.4c-0.4-1.1-1-2.9-2.3-2.7c0.9,2.8,1.4,6.1,1.9,9.3c0,0.3,0,0.5,0,0.8c0,3.6,0,7.2,0,10.8
			c0,0.1,0,0.3,0,0.4c-0.8,2.2-0.5,6.8,0.4,8.5c0,0.1,0,0.3,0,0.4c0.2,2,0.1,4.3,2.3,4.3c0.3-1.3-0.7-4.4-1.2-6.2c0-0.1,0-0.3,0-0.4
			c0-3,0-5.9,0-8.9c0.5-1.2-0.2-1.7,0-3.5c-0.2-1.9,0.5-4.9-0.4-6.2c0-0.1,0-0.3,0-0.4C114.5,116.9,114.5,113.6,114.1,112.4z"/>
		<path fill="none" d="M50.8,120.6c-1.5,0.1-0.7-2.1-2.3-1.9c-0.5,3.5,3.4,3.5,5,1.9c0-1.2,1.1-2.7-0.8-2.7
			C53,119.7,52.2,120.5,50.8,120.6z"/>
		<path fill="none" d="M57.3,116.7c-0.4-0.2-1.4-1-1.9-1.2c-2.9-1-9.2-0.8-8.9,3.1c1.4-0.4,2.1-1.6,3.9-1.9c3.1-0.6,6.3,0.8,8.5,1.5
			C59.5,117.1,58.3,117.2,57.3,116.7z"/>
		<path fill="none" d="M46.5,152.4c-0.7,3.8-1.6,7.4-3.5,10.1c2.9-0.6,3.9-4,4.6-7c0.2-1.1-0.6-2.6,0.8-3.1c0,0.2,0.1,0.5,0.4,0.4
			c0,0.1,0,0.3,0,0.4c-0.8,0.6-0.3,1.6-0.4,2.3c-0.5,2.6-1.7,5-2.7,7c0.9,0.4,2.2-0.7,2.7-1.6c0.1-0.2,0.2-1.2,0.4-1.9
			c0.2-0.8,0.6-1.3,0.8-1.9c0.4-1.4-0.2-3.4,1.2-3.9c0.1,3.4-1.2,5.5-1.5,8.5c2-0.5,2.2-2.7,2.7-4.7c0.3-1.1,0.1-2.7,1.2-3.1
			c0.3,3.1-1.2,4.2-1.2,7c2.7-0.4,1.7-4.5,3.5-5.8c0.3,2.2-0.7,2.9-0.8,4.6c2.4-0.2,2-3.1,3.5-4.3c0.3,1.2,0.4,2.7,1.9,2.7
			c1.9,0.2,1.8-1.5,3.1-1.9c0.7,1.4,1.6,4.6,3.5,3.5c-0.3-0.1-0.4-0.3-0.4-0.8c-0.1,0-0.3,0-0.4,0c0-0.1,0-0.3,0-0.4
			c0.1-0.6-0.1-1.4,0.4-1.6c1.2,1.5,0.8,4.6,3.5,4.7c0-1.4-1.9-3-0.8-4.3c1.1,2,1.2,5,3.9,5.4c-0.3-1.8-2.1-4-1.2-5.8
			c1.2,2.3,1.8,7.7,5,6.2c-1.3-1.4-1.7-3.7-2.7-5.4c0-0.1,0-0.3,0-0.4c0-0.6-0.1-1.3,0.8-1.2c0.9,3.7,1.8,7.5,5.8,8.1
			c0.2-1.9-1.5-1.8-1.9-3.1c-0.7-1.5-2.2-4.2-1.5-5.8c1.2,2,2.1,5.9,3.9,7c1.6,1,3.5,2.6,5.8,2.3c2-0.2,2.6-1.5,4.2-2.7
			c0.9-4,0.3-6.7-1.5-8.1c-1.1-0.8-3.1-0.7-4.3-1.5c-2.8,0.8-3.9,3.3-4.2,6.6c-1.1-1.1-1.1-3.3-1.5-5c1.2-0.3,0.7,1.1,1.9,0.8
			c0.9-1.5,0-2.4,1.2-3.5c0.9-0.2-0.2,1.8,1.2,1.2c0.9-0.2,1.1-2,0.4-2.7c0-0.1,0-0.3,0-0.4c0.1-0.3,0.3-0.4,0.8-0.4
			c0.6,1.2,0.1,3.6,2.3,3.1c-0.1-1.7-2-3.7-0.8-5.4c1,2.2,1.1,5.4,3.1,6.2c0.3-1.9-1.1-5-1.5-7.4c-0.3-1.9,1.1-0.9,1.2,0
			c0.1,1.8,0.5,3.8,1.2,5.8c0.3,1,0.5,0.6,0.4,1.2c-0.1,0.3,0.3,0.6,0.4,0.8c1.4,3.7,5.1,7.1,9.7,7c4.5-0.1,10.1-4.8,8.5-9.7
			c0-0.1,0-0.3,0-0.4c-0.6-1.7-2.7-4-4.6-3.1c2.8,1.1,3.9,3.8,3.1,6.2c-0.6,1.8-1.7,3.5-3.1,4.3c-2.3,1.2-7.1,0.9-8.5-0.4
			c-0.3-0.3-0.5-0.1-0.8-0.4c-2.5-2-2.8-4.3-3.5-6.6c-0.5-1.9-1.2-4.1-1.5-5.4c0-0.1,0-0.3,0-0.4c0-3.9,0-7.8,0-11.6
			c0-0.1,0-0.3,0-0.4c0.7-5.8,0.6-14.1-0.4-19.4c0-0.1,0-0.3,0-0.4c0-2.8-1-4.7-1.9-6.6c-2.8-0.9-5.8-1.4-9.3-1.6
			c-6.2-0.3-14.4-0.6-20.5,0c-3.9,0.4-8.7,0.2-12,1.6c0,1.7-0.1,3.5,0.4,4.6c1.4-0.2,2.4-0.9,3.9-1.2c1.3,1.5,6.1-0.4,6.6,1.9
			c-1.4,3.2-9.1-2.8-10.4,1.9c-0.2,0.6,0.1,1.3,0,1.9c3.9-1.2,8.5-0.8,11.6,0.8c1.1,0.5,1-2.1,1.5-0.8c0.2,0.8-0.5,2.5,0.4,2.7
			c0,0.1,0,0.3,0,0.4c0.3,3.5-2,4.5-1.9,7.7c0,0.1,0,0.3,0,0.4c-0.9,1.9-2.3,3.4-2.3,6.2c1.3,1.4,4.6,0.8,4.6,3.5
			c-1.1-2-4.7-1.5-5.4-3.9c0.9-3.7,3.6-7.5,3.1-11.2c-3.1,1.1-7.2,1.3-11.2,1.6c0,1.3,0,2.6,0,3.9c0,0.3,0,0.5,0,0.8
			c-0.6,3.1-1.3,6.1-1.5,9.7c0,0.1,0,0.3,0,0.4c-0.9,3.8,0.8,8.2,1.5,11.6C46.8,150.1,47.2,151.7,46.5,152.4z M85.5,161.7
			c3.1-0.4,3.7-5.6,0-5.8c-1.3,0.2-0.6,1.9-0.4,2.7c-1.9,0.2-1.2-3.1-0.4-3.5c3.1,0.1,4.8,1.6,4.3,5.4c-1.1,0.9-2.5,2.7-5.4,1.5
			c-1-0.4-1.9-1.5-1.9-2.3C83,160.4,84.2,161.1,85.5,161.7z M63.1,148.1c-1.9-0.7-4.4,1.1-5-1.2c1.8-0.3,4.6,0.5,5.8-0.4
			C65.2,147.1,63.3,147.6,63.1,148.1z M63.1,138.8c0-0.8,0-1.5,0-2.3c3.1,0.2,5.1,1.6,6.2,3.9c0.8,0.9,2.4,0.9,2.7,2.3
			C68.5,141.9,66.9,139.3,63.1,138.8z M70.1,124.1c1.9-0.4,5.2,1,8.5,0.4C76.8,126.5,71.9,125.4,70.1,124.1z M71.2,109.3
			c1.6-0.4,3.7-0.9,5.4-0.8c3.6,0.2,6.6,2.3,8.9,3.5c0,0.1,0,0.3,0,0.4c-0.2,0.6,1.5,0.9,0.4,1.2c-2.7-2.8-8-3.7-13.1-2.7
			c-1.8,0.3-4,2.5-5.4,0.4C68,109.9,69.8,109.7,71.2,109.3z M67.4,120.2c0.1,0,0.3,0,0.4,0c0-1.7,1.9-1.4,1.9-3.1
			c-0.5-0.1-1.1,0.1-1.2-0.4c0.6-0.9-0.1-2.1,0.4-2.3c2.6,0,4.8-0.7,7-0.4c1.1,0.1,3.2,0.9,3.5,1.2c0.9,0.8,2,1.3,2.7,1.5
			c0.7,0.3,1.1,1.6,1.5,1.9c0.6,0.5,1.7,0,1.5,1.2c-0.9,0-1.8,0-2.7,0c-0.3,0.9,1.3,1.7,0.4,1.9c-1.4,0.3-0.8-1.5-1.9-1.6
			c-2.9,2.4-11.1,0.8-13.5,0.4C67.4,120.5,67.4,120.3,67.4,120.2z M63.1,130.7c0.1,0.4,0.9,0.1,1.2,0.4c1,0.9,0,1.9,2.3,1.9
			c0,0,0-0.7,0-0.8c0-0.3,0-0.5,0-0.8c0.1-1.1-0.9-1.2-0.8-2.3c0.9,0.1,0.9,1.2,1.5,1.5c0,0.1,0,0.3,0,0.4c0,0.8,0,1.5,0,2.3
			c-0.7,0.2-1,0.8-1.9,0.8c-1.1-0.2-1.1-1.5-1.5-2.3c-0.7-0.2-2.3,0.5-2.3-0.4C61.9,130.9,62.4,130.7,63.1,130.7z M63.5,141.5
			c1.6,0.4,2.1,1.9,3.5,2.7c1.5,0.3,1.8-1.3,2.7-0.4c-0.5,2.7-3.3,0.5-5,0.4c-2.1-0.1-4.5,0.9-6.2,0c-1.4,0.4-3.3,1.9-5,0.8
			c2.5-0.2,3.1-2.3,4.6-3.5C60,142.3,61.9,141.1,63.5,141.5z M56.6,136.1c1.5-0.3,1.1,1.5,1.2,2.7c-2.9,0.8-4,3.5-7.3,3.9
			c-0.1-1.2,1.2-1.5,1.9-2.3c0.6-0.7,0.9-1.7,1.5-2.3C54.7,137.3,56.1,137.2,56.6,136.1z M53.1,126c1.4,0.3,2.9-2.8,3.5-0.8
			c-0.9,0.1-2.6,1.7-4.6,1.5c-0.7,0-2.1,0-1.9-1.2C51.1,125.7,52.4,126.7,53.1,126z"/>
		<path fill="none" d="M89.4,106.2c0,1,0.2,1.9,0.8,2.3c0,0.1,0,0.3,0,0.4c0.4,1.7,0.6,3.8,1.2,5.4c0,0.3,0,0.5,0,0.8
			c0.3,3.9-0.5,8.8,0.4,12c0,0.3,0,0.5,0,0.8c-0.9,1.3-0.1,4.3-0.4,6.2c-0.4,3.4-0.1,4.1,0,8.1c0.1,3,0.2,4.7,0.8,7
			c0.2,0.8,1.5,4.2,1.5,4.3c0.2,0.3,0.1,0.5,0.4,0.8c1.5,1.9,4.3,3.3,7.3,3.1c2.9-0.2,3.6-1.1,4.6-3.1c0.5-0.8,1.2-2.2,1.2-3.1
			c-0.2-2.8-4.6-5.1-7.3-3.9c0.1,0-1.7,1.4-1.9,1.9c-0.7,1.4-0.3,4.1,0,4.6c2,2.1,6.5,1.2,6.2-2.3c-0.9-0.2-0.8-1.5-2.3-1.2
			c-0.7,0.3-1.3,0.7-1.2,1.9c0.1,1.2,1.6-1.4,1.9,0c-0.6,0.6-1,1.3-1.9,1.5c-1.3-0.6-0.9-1.4-1.2-2.3c0-0.1,0-0.3,0-0.4
			c0.1,0,0.3,0,0.4,0c1-3,4.6-1.4,5,0.4c0.1,0.2-0.2,1.8-0.4,2.3c-0.4,1.1-1.8,1.8-2.3,1.9c-5.2,1.4-8.2-5.6-8.5-8.9
			c-0.1,0-0.3,0-0.4,0c0-0.1,0-0.3,0-0.4c-0.4-4.4-0.5-9.1-0.4-14c0-0.1,0-0.3,0-0.4c0.6-4.4,0.8-14.3-0.4-19.4c0-0.3,0-0.5,0-0.8
			C92,109.6,92.5,106.1,89.4,106.2z"/>
		<path fill="none" d="M52.7,167.9c0-2.7-2.8-2.6-5-3.1c-0.2-0.8-0.6-1.5-1.9-1.2c0.3,1.2-0.4,1.4-0.4,2.3
			C47.5,166.9,50.4,167.1,52.7,167.9z"/>
		<path fill="none" d="M32.2,160.1c0,0.4,0.3,0.5,0.4,0.8c-0.1,1.5-2.4,2.7-1.2,4.3c-0.5-2.5,1.9-2.2,1.6-4.6
			c-0.4-0.1-0.6-0.4-0.8-0.8c-1.8,0.1-2.5,1.3-3.1,2.7C30.2,161.7,30.3,160,32.2,160.1z"/>
		<path fill="none" d="M34.2,177.6c-1-0.3-2.1-0.5-3.5-0.4c0.3,1.5,2.1,1.5,2.7,2.7C34.8,180.2,33.9,178.4,34.2,177.6z"/>
		<path fill="none" d="M20.7,163.2c-0.1,0.5-0.8,0.4-1.2,0.8c-0.4,5.5,2.1,10,5.8,9.7c-2.1-2.4-3.7-5.4-3.9-9.7
			C21.3,163.6,21,163.4,20.7,163.2z"/>
		<path fill="none" d="M29.1,166.7c0,0.1,0,0.3,0,0.4c1,1.4,3,2.6,5,2.3c1.9-0.2,3.2-1.9,3.9-3.1C36.2,168.9,31.7,170.3,29.1,166.7z
			"/>
		<path fill="none" d="M45.8,181.4c0.9,1,3.4,0.3,3.1-1.2C48,180.8,47.6,181.8,45.8,181.4z"/>
		<path fill="none" d="M44.2,191.5c1.1,0.6,0.9,2.4,2.7,2.3c0-0.8,0-1.6,0-2.3C45.9,191.8,44.8,190.3,44.2,191.5z"/>
		<path fill="none" d="M41.9,162.1c1.1-0.7,3.1-4.6,3.5-7c0.1-0.9-0.2-1.9,0-2.7c0.2-0.6,0.7-0.3,0.8-1.2c0.2-3.1-0.8-4.8-1.5-7
			c0,2.8,0.2,5.8-0.8,7.7c0-1.7,0.1-3.5-0.8-4.3c-0.2,2.3-2.2,2.7-2.7,4.6c1.2,0.2,1,1.8,2.3,1.9c0.4-0.5,0.4-1.4,0.4-2.3
			c0.1,0,0.3,0,0.4,0c1.2,3.6-1.6,8.5-3.9,8.9c-5,0.8-5.5-5.5-2.3-6.2c3-0.6,4.1,3.8,1.5,3.5c0-0.9,0.7-1.1,0.4-2.3
			c-1.1-0.4-1.6-0.4-2.7,0c-1,1.8-0.3,4.3,2.3,4.3c1.8,0,3.2-2.9,3.1-4.3c0-0.4-1.6-4.2-5.4-3.5c-0.3,0.1-2.2,1.1-2.7,1.9
			c-0.5,0.7-0.8,2.5-0.8,3.5C33.2,162,38.1,164.5,41.9,162.1z"/>
		<path fill="none" d="M51.2,177.9c-0.3-2.6-1.9-3.8-4.6-3.9C48.8,174.7,50.6,175.7,51.2,177.9z"/>
		<path fill="none" d="M109.5,109.3c0.5,2.6,0.8,5.4,1.5,7.7c0,0.4,0,0.8,0,1.2c0,3.1,0,6.2,0,9.3c0,0.8,0,1.5,0,2.3
			c-0.6,1.7-0.6,6.1,0,7.7c-0.1,2.3,0.2,4.2,0.8,5.8c0,0.1,0,0.3,0,0.4c0.9,0.6,0.7,0.8,1.9,0.4c-0.1-1.8-0.6-3.2-1.2-4.7
			c0-0.1,0-0.3,0-0.4c0-4.3,0-8.5,0-12.8c0-0.3,0-0.5,0-0.8c0.2,0,0.9-2.7,0-3.5c0-0.3,0-0.5,0-0.8c0-0.9,0-1.8,0-2.7
			C111.6,115.4,112,110.3,109.5,109.3z"/>
		<path fill="none" d="M108.7,157.8c3.1-0.2,4.8-7.2,3.1-8.9c-0.7-0.8-1.2-1.3-2.3-1.9c-0.6-0.3-1.6-1.5-1.9-0.4
			c2.3,1.6,3.4,3.9,2.7,6.6C109.7,155.3,108.9,156.1,108.7,157.8z"/>
		<path fill="none" d="M117.6,152c0.2-0.4,0.7,0.2,0.8-0.8c0.1-3-2.5-5-5-5.8c0.5,1.3,1.7,1.8,2.3,3.1c0.4,0.8,0.8,2,0.8,3.1
			c0,0.7-0.9,1.6-1.2,2.3c-0.2,0.8,0,1.7-0.4,2.3C117.1,156.4,117.1,153.2,117.6,152z"/>
		<path fill="none" d="M115.3,152c0-0.1,0-0.3,0-0.4c0.2-2.3-1.8-5.7-5-5.8c-0.1,1.5,1.8,1.1,1.9,2.3c0.5,0.6,0.5,1.6,1.2,1.9
			c0,0.1,0,0.3,0,0.4c0.5,3-2,5-1.2,7C113.6,156,114.7,154.2,115.3,152z"/>
		<path fill="none" d="M106.8,108.6c0.2,1.9,0.6,3.6,1.2,5c0,0.1,0,0.3,0,0.4c1.4,8.5-1,18.3,0.4,26.7c-0.2,1.5,0.3,2.3,0.8,3.1
			c-0.4,1.2,0.9,0.7,1.5,0.8c-0.7-4.1-1.1-9.1-1.2-12.8c0-0.1,0-0.3,0-0.4c0.7-5.7,0.6-13.9-0.4-18.6
			C108.7,111.1,108.6,108.8,106.8,108.6z"/>
		<path fill="none" d="M96,106.6c-0.8,2.8,0.8,5.2,1.2,8.5c0.5,5.2,0.3,11.6,0,17.4c-0.2,3.6-0.7,9.4,0,12.4
			c0.2,0.9,0.5,2.3,1.5,2.3c1.8-1.5,0.2-3.5,0-5.4c-0.8-10,1.5-22.1-0.4-30.6C97.9,109.6,97.3,107.4,96,106.6z"/>
		<path fill="none" d="M56.2,195.4c-0.9,1.8-4,0.2-2.3-1.5c-0.3,2.4,1.3,0.6,1.2,1.9c0.4-0.5,0.6-1.2,1.2-1.6c0.1,0.3,0,0.8,0.4,0.8
			c0.1-1-0.6-1.2-0.8-1.9c-2.8-0.8-3.4,2.3-1.9,3.5C55.2,196.8,55.9,196.2,56.2,195.4z"/>
		<path fill="none" d="M101.4,107.8c0.1,1.8,0.5,3.4,1.2,4.6c0,0.1,0,0.3,0,0.4c0.2,1.7-0.5,4.4,0.4,5.4c0,0.9,0,1.8,0,2.7
			c0.3,4.5-0.9,9.5-0.4,12.8c0,0.8,0,1.5,0,2.3c-0.6,0.6-0.5,1.6-0.4,2.7c0.2,2.5,0.4,6.6,2.7,6.6c0-2.3-0.2-4.5-0.8-6.2
			c0.6-0.8,0-0.5,0-1.5c-0.3-4.9,0.4-8.9,0.4-13.6c0.1-1.6,0.6-4.6,0-7c0-0.9,0-1.8,0-2.7C103.5,112.1,104.2,108.1,101.4,107.8z"/>
		<path fill="none" d="M40.7,150.4c1.7-1,4.5-9.8,3.1-13.2c-1.5,3.8-0.9,9.6-4.6,11.2c-1.3,0.2-2.2-0.1-1.9-1.5
			c1.2-0.1,1.3,1.4,2.3,0.4c0.3-1.3-0.4-1.6-0.8-2.3c-1.9,0-3.3,0.6-3.1,2.7c0,0.1,0,0.3,0,0.4c0,0.5,0,1,0,1.5
			C37.3,151,39.3,151.2,40.7,150.4z"/>
		<path fill="none" d="M48.5,208.6c0.1-1.8-1.8-1-1.9,0C47.3,209.3,47.2,208.3,48.5,208.6z"/>
		<path fill="none" d="M131.5,81.1H131c0.2,0.1,0.4,0.1,0.5,0.3C131.5,81.3,131.5,81.2,131.5,81.1z"/>
		<path fill="none" d="M131.5,82.6c-0.2,0.3-0.1,0.9-0.4,1.2c-0.9,1-2.3,2-3.1,3.1c-0.3,0.5-0.4,1.3-0.8,1.9c-1,1.8-2.3,3.3-3.1,4.6
			c-1.4,2.4-2.4,4.6-3.5,7c-0.9,2.2-1.9,4.3-2.7,6.6c-0.5,1.3-1.8,2.7-1.2,4.3c0,0.1,0,0.3,0,0.4c0.7,2,1.1,4.3,1.9,6.2
			c0.1,1.3-0.3,3.1,0.4,3.9c-0.6,4-0.6,10.7,0,14.7c0,1-0.2,2.2,0.4,2.7c0.1,1.9,1,2.9,1.5,4.3c3,0.4,5.1,1.9,6.2,4.3
			c0,0.1,0,0.3,0,0.4c0.1,1.5,0,2.9-0.4,3.9c-0.1,0-0.3,0-0.4,0s-0.3,0-0.4,0c0.2,1.4-1.4,0.9-1.2,2.3c4.2,1.7,8,3.9,12.7,5
			c1.1-11.9,1-27.1,0.4-39.5c0-2.1,0-4.1,0-6.2c0-4.1,0-8.3,0-12.4c1.7-2.6,3.7-5.2,5.4-7.4c0.6-0.8,1.1-2.2,2.3-2.3
			c2.8,2.5,5.1,5.5,7.7,8.1c0,0.1,0,0.3,0,0.4c0.3,11.2-0.5,23.5,0.4,34.1c-0.4,2.7,0.2,6.1,0,9.7c0,1.4,0,2.8,0,4.3
			c-0.1,1.4,0.3,3.4-0.4,4.3c-0.9,4-0.1,9.7-0.4,14.3c1.1,0.5,2,1.1,3.5,1.2c0,0.1,0,0.3,0,0.4c0,0.1,0,0.3,0,0.4
			c0.3,0.2,0.6,0.3,1,0.4V81.1h-24.1C133,81.8,131.9,82.1,131.5,82.6z"/>
		<path fill="none" d="M144.6,230.3c-0.9-0.3-2.7-0.8-3.5,0c0,0.6,0,1.3,0,1.9c0.8,0.4,1.6,0.8,2.5,1h0.6
			C144,231.9,144.9,231.7,144.6,230.3z"/>
		<path fill="none" d="M120.7,97.3c1.3-0.8,1.5-2.7,2.3-3.9C121.7,94.2,121.5,96.1,120.7,97.3z"/>
		<path fill="none" d="M154.3,229.1c-3.1-0.4-4.7,0.7-5,3.1c-0.6-0.4-0.4-1.6-0.8-2.3c-2.4-0.2-4.1,1.3-3.1,3.3h6.2
			C153.6,232.6,155.1,231.3,154.3,229.1z"/>
		<path fill="none" d="M92.9,82.6c0-0.8,1-0.5,0.8-1.5h-0.4C93.4,82.2,91.1,83.3,92.9,82.6z"/>
		<path fill="none" d="M106.2,81.1h-0.4C105.9,81.1,106.1,81.1,106.2,81.1z"/>
		<path fill="none" d="M60.8,81.1h-0.7c0.6,0.4,1.1,0.9,1.8,1.1C61.7,81.8,61.3,81.4,60.8,81.1z"/>
		<path fill="none" d="M98.7,81.4c0.4-0.2,0.8-0.3,1.2-0.3h-1.2C98.7,81.3,98.7,81.4,98.7,81.4z"/>
		<path fill="none" d="M15.2,166.3c-1.5-0.8-2.5,0.8-3.5,0c1.1-0.8,2.4-0.9,3.1-1.2c0.5-0.2,0.8-0.6,1.2-0.8
			c2.4-1.1,5.3-2.2,7.3-3.1c0.8-0.3,1.5-0.8,2.3-1.2c2-0.8,5.8-1,6.2-2.7c0-0.1,0-0.3,0-0.4c0.8-1,0.5-2.1,1.2-3.1
			c0.8-1.2,2.6-1.5,3.5-2.7c-2.6-1.1-2.5-6.7,0.8-7c2.1-0.6,2.1,1,3.5,1.2c1.4-3.6,2-7.9,3.1-10.8c1.1-2.9,2.2-6.3,1.9-10.1
			c0-1,0-2.1,0-3.1c-0.2-1.2,0.5-3.3-0.4-3.9c-0.2-1.7,0.5-1.9,0-3.1c-0.3-3.2,0.5-7.5-0.4-10.1c0-0.3,0-0.5,0-0.8
			c-0.4-1-0.1-2-0.4-3.1c-0.3-0.9-1.2-1.8-1.9-3.1c-0.6-1.1-1-2.6-1.5-3.5c-0.2-0.4-0.9-0.8-1.2-1.2c-0.8-1.2-1.2-2.1-1.9-3.1
			c-0.1-0.2-0.6-0.2-0.8-0.4c-0.3-0.4-0.1-0.8-0.4-1.2c-0.5-0.5-1.5-1.2-2.3-1.9c-2.1-1.9-3.9-3.7-6.1-5H11.7v85.6c0,0,0,0,0.1,0
			c0,0.2,0,0.3-0.1,0.3v1.4c1.5,0.4,2.3,1.5,4.3,1.4C16,168.4,15.6,167.4,15.2,166.3z"/>
		<path fill="none" d="M58.9,95c2.7-0.4,7.1,0.9,8.5-0.8C65.4,95.3,60.9,93.9,58.9,95z"/>
		<path fill="none" d="M23.3,220.2c0-1.9,0-3.9,0-5.8C22.7,215.4,22.7,219.1,23.3,220.2z"/>
		<path fill="none" d="M16,176.8c4,1.7,8.7,3.6,11.6,5.8c3.5,2.7,6.4,5.8,9.3,8.9c4.6,4.4,8.4,10.4,12,15.1c0.3,0.3,0.1,0.8,0.4,1.2
			c0.4,0.5,1.1,1,1.5,1.5c0.3,0.4,0.1,0.8,0.4,1.2c0.2,0.3,0.5,0.4,0.8,0.8c0.4,0.7,0.7,1.7,1.2,2.3c0.4,0.6,1.2,1,1.5,1.6
			c0.5,0.8,0.6,1.5,1.2,2.3c0.8,1.2,1.5,3,3.1,3.5c0-2.1-1.5-4-2.7-5.8c-6.5-10.3-14-20.8-22.4-28.7c-1.6-1.5-3.8-3.5-5.4-4.3
			c-0.1-0.1-0.2-0.7-0.4-0.8c-0.4-0.2-1.1-0.5-1.6-0.8c-1-0.6-1.8-1-2.7-1.6c-1.9-1-4-1.8-6.2-2.7c-1-0.4-3.1-1.1-3.5-1.5
			c-0.3-0.4-0.3-0.1-0.8-0.4c-0.4-0.2-1-0.5-1.6-0.7v0.9c0.8,0.3,1.6,0.6,2.4,0.9C14.7,175.9,15.4,176.5,16,176.8z"/>
		<path fill="none" d="M58.9,187.2c-0.1-1.5,0.2-3.3-1.2-3.5c-0.3,1.1-1.2,1.6-1.2,3.1C57.5,186.9,57.7,187.5,58.9,187.2z"/>
		<path fill="none" d="M140,228.7c-1.1-0.9-2.3,0.6-3.1-0.4c0.6-0.7,1-1.3,0-1.9c0-0.1,0-0.3,0-0.4c0.3,0.1,0.5-0.5,0.8-0.4
			c0.5,0.3,1.7,1.5,2.7,1.6c1.7,0.2,3.9-0.3,4.3-1.9c-0.4-1-2.3-0.6-2.7-1.6c0.3-0.5,0.2-1.7,0-2.7c-2.8-3.1-7.7-1.6-8.1,2.7
			c-0.1,0-0.3,0-0.4,0c-0.6,0.9-1.8,3.4-1.9,5c-0.1,1.4,0.3,3.1,0.7,4.5h7.9C140.1,231.5,140.1,229.9,140,228.7z"/>
		<path fill="none" d="M119.1,233c1.8-0.1,3.3,0.1,4.8,0.3h0.8C123.5,232.5,120.4,232.2,119.1,233z"/>
		<path fill="none" d="M103.3,220.2c0.8-4.8,1.5-9.2,2.3-13.6c2-10.2,5.2-19.9,8.5-27.9c2.6-6.4,5.5-12.3,8.5-17.8
			c0.3-0.5,0.1-1,0.4-1.5c0.3-0.6,0.9-0.6,1.2-1.2c0.3-0.7,1.3-2,0.4-3.1c-3.8-0.8-4.9,3.3-6.2,5.8c-1.3,2.6-3.1,5.7-4.3,8.1
			c-5.3,11.2-9.8,22.8-12.7,36c-1.1,5.1-1.7,11-2.3,15.9c-0.6,4.1-0.7,8-0.5,12.3h4.1C102.5,228.4,102.7,223.8,103.3,220.2z"/>
		<path fill="none" d="M116.4,233.2h1.9c0.2-0.1,0.4-0.1,0.5-0.3C117.9,233,117.1,233.1,116.4,233.2z"/>
		<path fill="none" d="M36.1,86.1c-1.5-0.4-1.9-2.8-3.1-2.3c1.7,0.7,1.8,3.1,4.6,2.7C37.6,85.8,36.7,86.3,36.1,86.1z"/>
		<path fill="none" d="M41.9,216.3c0.1,0,0.3,0,0.4,0c3.5-0.3,8.5,0.8,10.8-0.8C50.1,216.5,44.8,215.3,41.9,216.3z"/>
		<path fill="none" d="M24.5,207c0,3.4,0,6.7,0,10.1C25.2,214.6,25.2,209.5,24.5,207z"/>
		<path fill="none" d="M40,210.9c-1.5-0.2-2-1.6-1.9-2.3c0.2-2.5,3.6-2,5.8-1.2c-0.4-2.1,0.6-2.7,1.2-3.9c-2.3,0-4.6,0-7,0
			c-0.4,0.5-0.4,1.4-0.4,2.3c0.8,0.1,0.2-1.4,0.4-1.9c2.1,0,4.1,0,6.2,0c-0.7,0.8-0.7,2.2-1.2,3.1c-1.2-0.8-4-1.3-4.6,0.4
			c-0.6,0-0.2-1.1-0.8-1.2c0,1.3,0,2.6,0,3.9C38.8,209.7,39.1,212.2,40,210.9z"/>
		<path fill="none" d="M24.5,218.2c0.3,1.6-0.9,4.8,1.2,4.6C24,222.6,25.6,219.1,24.5,218.2z"/>
		<path fill="none" d="M51.5,229.1c-4.1-0.4-7.9-0.2-13.1,0.4c0,0.6,0,1.3,0,1.9c3.7,0.8,7.5-0.5,12.8,0
			C50.9,230.2,51.8,230.3,51.5,229.1z"/>
		<path fill="none" d="M49.2,95.4c-0.6,1-3.3-0.2-3.9,0.8c1.8,0.2,3.2-0.1,4.6-0.4c-0.1-0.9-1.3-1.5-1.9-1.9
			c-1.6-1.1-3.3-1.7-5.4-1.9C44.9,93,47.8,93.4,49.2,95.4z"/>
		<path fill="none" d="M79,115.9c-0.7-0.4-1.2-1-1.9-1.2c-2.1-0.4-5.9-0.3-6.2,1.2c4.5-0.1,7.2,1.6,10.8,2.3
			C82,117.1,80.2,116.6,79,115.9z"/>
		<path fill="none" d="M77,120.6c1.7,0,3-0.4,3.5-1.6C79.3,117.8,76.7,118.1,77,120.6z"/>
		<path fill="none" d="M65.5,87.3c-0.9-1.8-1.8-3.6-3.5-4.6c0,0.1,0,0.3,0,0.4C63.8,83.8,64,86.2,65.5,87.3z"/>
		<path fill="none" d="M41.5,91.9c0.3-0.1,0.8,0,0.8-0.4c-2.7,0.6,0.2,3,1.2,3.5C43,93.7,41.3,93.8,41.5,91.9z"/>
		<path fill="none" d="M55.8,82.6c0.2-0.6,0.6-0.9,0.7-1.5h-0.3C56,81.8,55,82.4,55.8,82.6z"/>
		<path fill="none" d="M31.9,82.6c-0.1-0.8-1-0.8-1.2-1.5h-0.5C30.4,81.7,31.4,82.2,31.9,82.6z"/>
		<path fill="none" d="M76.3,117.5c-1.5,0.2-1.1,2.3-3.1,1.9c-1.2-0.2-1.1-1.8-1.9-2.3C69.3,121.3,77.9,121.5,76.3,117.5z"/>
		<path fill="none" d="M60,81.1h-0.5c-0.3,0.5-0.7,0.9-1,1.5C59.4,82.5,59.4,81.5,60,81.1z"/>
		<path fill="none" d="M15.6,202c0.4,1.4,3.9,1,3.9-0.4C19,202.5,16.6,202.7,15.6,202z"/>
		<path fill="none" d="M36.9,223.7c-1.9-0.5-3.4-1.2-5.4-1.5C32.9,222.8,35.4,224.3,36.9,223.7z"/>
		<path fill="none" d="M26.8,199.6c-0.6,0-1.5-0.2-1.5,0.4c1.2,0.3,1.4-0.4,2.3-0.4c-0.4-1.5-1.6-2-1.9-3.5
			C24.7,197.1,27.8,198.7,26.8,199.6z"/>
		<path fill="none" d="M15.2,187.6c-0.6,0.7-1.3,3.3-0.4,4.3C14.3,190.1,15.7,188.1,15.2,187.6z"/>
		<path fill="none" d="M113,95.8c1.8,1.2,5.3,2.6,4.2,5.4c0.1,0,0.8,0.1,0.8,0C118.6,98.7,115,96.2,113,95.8z"/>
		<path fill="none" d="M144.3,102c-1.9,2.9-4.4,4.8-5.4,8.1c1.7-0.1,2.6-2.3,3.5-3.5S145.5,103.9,144.3,102z"/>
		<path fill="none" d="M138.8,159.3c1.5-0.2,2.3-2,3.1-3.1c0.9-1.3,2.4-2.5,1.5-4.3c-1.4,0.4-2.4,1.6-3.1,2.7
			C139.6,155.8,138.5,157.2,138.8,159.3z"/>
		<path fill="none" d="M142.7,124.1c-0.8,0.9-1.9,2.7-2.3,3.5c-0.1,0.1-0.7,0.2-0.8,0.4c-0.4,1.1-0.4,2.4-0.4,3.9
			c1.7-0.7,2.8-2.8,3.9-4.3c1.1-1.5,3.1-3,1.9-5.4C143.9,122.2,143.4,123.3,142.7,124.1z"/>
		<path fill="none" d="M138.8,164c1.5,0.6,2.5-2.2,3.5-3.5c1.1-1.5,3.4-2.9,1.9-5c-1-0.1-1.5,1-1.9,1.5c-0.5,0.6-1.1,1.3-1.5,1.9
			C139.9,160.2,138.4,161.7,138.8,164z"/>
		<path fill="none" d="M139.2,121.7c0.9,0.3,1.1-0.7,1.6-1.2c1.5-1.6,3.2-3,3.1-5.8c-2.3,0.6-2.8,3.2-4.6,4.3
			C139.2,119.9,139.2,120.8,139.2,121.7z"/>
		<path fill="none" d="M143.9,107c-1.4,0.2-2,1.7-2.7,2.7s-2.4,1.9-1.9,3.9c1.3-0.4,2-1.8,2.7-2.7
			C142.7,109.9,144.2,108.9,143.9,107z"/>
		<path fill="none" d="M140.8,116.3c1.2-1.4,3.4-3.2,2.3-5.4c-1.3,2.2-3.7,3.3-3.9,6.6C139.9,117.5,140.3,116.9,140.8,116.3z"/>
		<path fill="none" d="M138.8,184.9c0.6,0.2,2.2-1.2,2.7-1.9c0.5-0.8,0.7-2.6,0-3.5C140.5,181.2,138.4,181.8,138.8,184.9z"/>
		<path fill="none" d="M141.5,174.8c-1.2,1.6-3,2.9-2.7,5.4c3.3-1.8,5.4-4.9,6.2-9.3C143.6,170.7,142.3,173.8,141.5,174.8z"/>
		<path fill="none" d="M138.8,170.2c1.4,0.1,1.4-1.6,1.9-2.3c0.6-0.9,1.3-1.6,1.9-2.3c1.4-1.8,3.3-3.1,3.1-5.8
			c-0.5,0-0.5-0.5-1.2-0.4C142.6,162.9,138.7,164.4,138.8,170.2z"/>
		<path fill="none" d="M139.6,195c1-1.5,3.7-3.1,2.3-5.8C139.8,189.6,137.6,192.9,139.6,195z"/>
		<path fill="none" d="M146.2,164c-1.1-0.8-2,1.3-2.3,1.9c-0.1,0.1-0.7,0.2-0.8,0.4c-0.3,0.4-0.5,1.2-0.8,1.5
			c-1,1.5-1.9,2.6-2.7,3.9c-0.9,1.3-0.9,2.1-0.8,3.9c1.4,0.1,1.6-1.5,2.3-2.3c0.9-1,2.2-2.3,2.7-3.1c0.6-0.9,1-1.9,1.9-2.3
			C145.7,166.3,146.5,165.7,146.2,164z"/>
		<path fill="none" d="M139.6,200.4c1-2.5,4-3,3.5-7c-2.2,0.2-2.4,2.5-3.9,3.5C139.5,198,138.7,200,139.6,200.4z"/>
		<path fill="none" d="M142.7,183c0,1.3,0,2.6,0,3.9C143.3,186.4,143.3,183.4,142.7,183z"/>
		<path fill="none" d="M146.2,103.9c0.9-0.4,0.1-2.4,0.4-3.5c0.3-1.8-0.7-1.8-0.4,0c-0.3,0.4-0.5,1-0.4,1.9
			C146.4,102.4,146.1,103.3,146.2,103.9z"/>
		<path fill="none" d="M143.9,128.3c-0.1,0.1-0.7,0.2-0.8,0.4c-0.7,1-1.5,2.2-2.3,3.5s-2.2,2.4-1.6,4.3c1.2,0.2,1.8-1.3,2.3-1.9
			c0.6-0.8,1.4-1.6,1.9-2.3c1.1-1.4,3.1-3.2,2.7-5.8C144.8,125.7,144.1,127.8,143.9,128.3z"/>
		<path fill="none" d="M145.8,150c0-1.4,0-2.8,0-4.3C145.2,146.3,145.2,149.5,145.8,150z"/>
		<path fill="none" d="M147.3,105.1c-0.5,2.1-1.3,5.9-0.4,8.1c0.1,1.4-0.3,3.4,0.4,4.3c0.1,1.7,0.4,3.2,1.2,4.3
			c0.3,2.7,1,4.9,1.5,7.4c0,1.5,0,3.1,0,4.7c0,0.1,0,0.3,0,0.4c-1.1,4.8-4.2,9.8-3.1,15.5c0.1,5.8,2.5,9.2,2.7,14.7
			c0,4-1.1,7.9-1.9,10.5c-1.1,3.4-2.8,7.3-2.7,11.2c0.1,2.1,1,4,1.5,6.2c0.5,2,1,4.4,1.2,6.6c0.3,5.2-1.9,7.5-1.5,12
			c2,0.2,4.1,2.2,5.8,1.5c-0.1-2.8,0.2-5.9-0.4-8.1c0-1,0-2.1,0-3.1c0.9-4.9,0.1-11.5,0.4-17.1c0-0.1,0-0.3,0-0.4c0-5,0-10.1,0-15.1
			c0-0.3,0-0.5,0-0.8c0-2.3,0-4.6,0-7c0.2-0.6,0.5-0.6,0-1.2c1-10.2,1.1-23.4,0.4-34.1c0.3-3.9,0-6.5,0-10.9
			c0.9-4.1,0.1-9.9,0.4-14.7c-2-1.8-3.1-4.6-5.8-5.8c0.6,0.8,0,2.9,0.8,3.5C148,100.5,147.4,102.6,147.3,105.1z"/>
		<path fill="none" d="M150,225.6c0,0.1,0,0.3,0,0.4c-0.2,0.7,0.5,2.3-0.8,1.9c0.2-1.5-0.1-2.5-0.8-3.1c-2.6-0.3-2.9,1.7-4.3,2.7
			c-1.5-0.3-1.8,0.5-3.1,0.4c-0.1,1.2,1.3,0.8,1.9,1.2c1,0.1,0.3-1.5,1.6-1.2c-0.3,1.2,1,0.8,1.2,1.6c2.9-0.5,5.9-1,8.9-1.6
			c1.1-1.4,1.8-2.9,0.8-4.6C153,223.2,149.6,224.1,150,225.6z"/>
		<path fill="none" d="M145.8,113.2c0-1.5,0-3.1,0-4.7C145.2,109.2,145.2,112.5,145.8,113.2z"/>
		<path fill="none" d="M143.9,118.3c-1.6,2.8-5,3.8-4.6,8.5c1.2-0.4,2.3-2,3.1-3.1c1-1.3,2.7-3.9,1.9-4.3c0-0.1,0-0.3,0-0.4
			C144.2,118.7,144.2,118.3,143.9,118.3z"/>
		<path fill="none" d="M146.6,131.4c0-0.3,0-0.5,0-0.8c-1.1-0.7-1.7,0.9-2.3,1.6c-0.6,0.7-1.3,1.9-1.9,2.7c-1.2,1.7-3.5,3.8-3.1,6.6
			c1.6-0.6,2.8-2.5,3.9-3.9c1.4-1.7,3.2-3.7,3.5-5.8C146.6,131.7,146.6,131.6,146.6,131.4z"/>
		<path fill="none" d="M145,136.5c-1,1.9-2.8,3.5-3.5,5c0,0.1-0.7,0.3-0.8,0.4c-1,1.2-1.9,2.4-1.6,4.3c1.1,0.1,1.4-1.3,1.9-1.9
			C142.9,142.1,146.1,139.9,145,136.5z"/>
		<path fill="none" d="M143.5,143.1c-1.3,2.3-3.9,3.3-4.3,6.6c0.9,0.8,2.6-1.7,3.1-2.3C143.3,146,144.5,144.7,143.5,143.1z"/>
		<path fill="none" d="M139.6,154.3c1-2.1,5.1-3.1,3.5-6.6C142.1,149.9,138.3,151.2,139.6,154.3z"/>
		<path fill="none" d="M85.1,96.6c-1.7,0-3.3,0-5,0C80.9,97.2,84.4,97.2,85.1,96.6z"/>
		<path fill="none" d="M59.3,98.9c2.6,0,5.2,0,7.7,0C65.3,98.2,61,98.2,59.3,98.9z"/>
		<path fill="none" d="M79.7,99.3c1.3,0,2.6,0,3.9,0C83.2,98.6,80.2,98.6,79.7,99.3z"/>
		<path fill="none" d="M80.9,91.5c1.5,1.1,3.4,1.8,4.2,3.5c-0.7,0.2-2.3-0.5-2.3,0.4c0.9,0,1.8,0,2.7,0
			C84.8,93.2,83.1,92.2,80.9,91.5z"/>
		<path fill="none" d="M70.1,98.9c2.3,0,4.6,0,7,0C75.6,98.2,71.5,98.2,70.1,98.9z"/>
		<path fill="none" d="M114.5,110.9c0.8,2.5,1.1,5.6,1.9,8.1c0,0.5,0,1,0,1.6c0,3.1,0,6.2,0,9.3c-0.5,4.3-0.2,9.3,1.2,12.8
			c-0.2,1.2,0.8,1.2,1.9,1.2c-0.3-1.9-0.9-3.5-1.5-5c0-0.1,0-0.3,0-0.4c0.1-7.8,0.2-17.4-1.2-22.9
			C116.4,113.7,116.5,111.4,114.5,110.9z"/>
		<path fill="none" d="M72.4,94.2c0.6-0.8,1.6-1.2,2.3-1.9c-1.3,0.3-2.3,1.1-2.7,2.3c0.5,0.1,0.7,0.6,1.5,0.4
			C73.5,94.4,72.4,94.9,72.4,94.2z"/>
		<path fill="none" d="M52.7,202.4c-0.1,1,0.6,1.2,1.2,1.6c0.1-0.5,0.5-0.7,0.4-1.6C53.7,202.4,53.2,202.4,52.7,202.4z"/>
		<path fill="none" d="M138.8,189.6c1.7-0.6,2.9-1.8,2.7-4.3c-0.1-0.3-0.3-0.4-0.8-0.4C139.9,186.2,138.3,186.8,138.8,189.6z"/>
		<path fill="none" d="M64.7,96.2c-1.5,0-3.1,0-4.6,0C60.4,96.9,65.9,96.7,64.7,96.2z"/>
		<path fill="none" d="M146.2,222.5c1-0.1,1.3,0.5,1.2,1.5c2.8-0.4,5.7-0.7,7-2.7c-0.1-2.1-2.3-3.2-4.2-2.3c-0.1,0.7,1.1,1.9,0,2.3
			c-0.7-0.4-0.7-1.4-1.2-1.9c-1.6-0.6-3.7,0.6-5.4,1.2c-0.2,1.4,1.9,0.7,1.9,1.9c-0.5-0.4-1.4-0.4-2.3-0.4c-0.7,2.4,1.9,2.1,3.1,1.5
			C146.3,223,145.6,222.7,146.2,222.5z"/>
		<path fill="none" d="M68.5,96.6c3.1,0.1,8.5,0.2,11.2-0.4c-4.6,0-9.3,0-13.9,0C64.6,96.8,67.5,96.5,68.5,96.6z"/>
		<path fill="none" d="M116.8,105.1c0.1,0,0.3,0,0.4,0c0.6-0.6,1-1.3,1.2-2.3c-1.4-0.4-2.6-1-4.3-1.2c0.9,0.9,2.9,0.7,3.9,1.5
			C117.8,103.9,117.2,104.4,116.8,105.1z"/>
		<path fill="none" d="M56.6,96.6c-1.2,0-2.3,0-3.5,0C53.2,97.3,57.7,97.1,56.6,96.6z"/>
		<path fill="none" d="M145.4,94.2c-1.8-0.5-2.8,2.4-3.9,3.9c-1.1,1.5-3.7,3.3-2.3,5.4C141.3,100.4,143.8,97.8,145.4,94.2z"/>
		<path fill="none" d="M138.8,212.8c2,0.2,4.3-2.3,2.3-3.5C140.4,210.5,139.4,211.5,138.8,212.8z"/>
		<path fill="none" d="M133.8,215.5c-0.1-1.1,1.1-1,1.5-1.5c0-1-0.6-1.5-1.5-1.5c0.3,0.4,0.7,0.6,1.2,0.8
			C135.4,214.6,132.4,214.5,133.8,215.5z"/>
		<path fill="none" d="M141.2,104.3c0.2-0.3,0.9-0.4,1.2-0.8c0.5-0.7,0.7-1.7,1.2-2.3c0.6-0.8,1.8-1.1,1.5-2.3c0-0.1,0-0.3,0-0.4
			c0.3-0.1,0.4-0.3,0.4-0.8c-0.9-0.9-1.4,0.6-1.9,1.2c-0.9,1-1.5,2.2-1.9,3.1c-0.1,0.1-0.7,0.2-0.8,0.4c-0.3,0.4-0.6,1.2-0.8,1.6
			c-0.6,1-1.7,1.8-1.2,3.1C140.4,107,140.7,105,141.2,104.3z"/>
		<path fill="none" d="M141.9,204.3c-1.4,1.4-3.3,3.3-3.1,5.8c1.4,0.2,1.1-1.1,1.5-1.5c1.4-1.6,2.8-2.3,2.7-5
			C142.3,203.4,142.3,204,141.9,204.3z"/>
		<path fill="none" d="M143.5,201.2c-0.3-1.2,0.7-1.1,0.4-2.3c-0.3-0.1-0.4-0.3-0.4-0.8c-0.1-0.5-0.4-0.2-0.8,0
			c-1.5,2.3-4.2,3.3-3.9,7.4C141.2,204.8,141.4,202.1,143.5,201.2z"/>
		<path fill="none" d="M140.4,217.1c1.2,0,2.3,0,3.5,0C143.7,216.3,139.3,216.6,140.4,217.1z"/>
		<path fill="none" d="M134.2,215.9c-0.3-0.2-0.4,0.4-0.4,0.4c2.6,0.7,5.5-1.9,7-3.1C138.5,214,137.6,216.2,134.2,215.9z"/>
		<path fill="none" d="M121.5,148.1c1.2,2.7-0.5,5-1.2,7c4.1-1.7,5.3-9.5-0.8-10.1C119.7,146.5,121.2,146.7,121.5,148.1z"/>
		<path fill="none" d="M124.6,147.7c0,0.1,0,0.3,0,0.4c0.2,2.1,0,3.9-0.8,5c4.9-0.8,2.1-9.4-1.5-8.1
			C123.5,145.4,123.7,146.9,124.6,147.7z"/>
		<path fill="none" d="M149.7,217.1c1.3,0,2.6,0,3.9,0C153.1,216.4,150.1,216.4,149.7,217.1z"/>
		<path fill="none" d="M146.6,212.4c3,0.4,4.6,2.1,6.6,3.5c0.5,0,1.1,0.1,1.2-0.4c-2.7,0.1-3.1-2-4.6-2.7c-0.6-0.3-2.1-0.7-3.1-0.8
			c-0.8-0.1-1.8,0.1-3.1,0C144.5,212.8,145.6,212.3,146.6,212.4z"/>
		<path fill="none" d="M97.1,83.8c1.2,1.1,1.6,3,2.7,4.3C99.3,86.3,98.6,84.6,97.1,83.8z"/>
		<path fill="none" d="M87.9,209.3c0-0.1,0-0.3,0-0.4c0.2-1.6,3-1.3,4.3-0.8c0-0.6,0-1.3,0-1.9C92.5,208.4,86.6,206.4,87.9,209.3z"
			/>
		<path fill="none" d="M79,215.5c0.9-0.2,0.9-1.2,0-0.4c-0.5,0.6-2.2,0.6-2.7,0c-1.5-0.9,0.3,0.4-0.8,0.8c-1.6-0.2-4,0.4-5-0.4
			c1.5,1.8,4.4,0.4,7,0.4c2.9,0,6,0.5,8.5,0.8C85.1,214.8,80.4,216.8,79,215.5z"/>
		<path fill="none" d="M96.4,208.9c0.3-0.8,1-1.3,0.8-2.7c-0.3-2.3-5.3-2.4-4.6-0.4c0-0.1,0-0.3,0-0.4c1.5-1.6,4-0.7,4.3,1.2
			c0.2,1.2-0.6,1.4-0.8,2.7c2.3,0.3,3.3-0.8,3.9-2.3C98.8,207.7,98.5,209.3,96.4,208.9z"/>
		<path fill="none" d="M69.7,203.9c0.8-0.2,2.5,0.5,2.7-0.4c-0.6,0-1.3,0-1.9,0c-0.4,0-0.8,0-1.2,0c0,1.3,0,2.6,0,3.9
			C70.2,207,69.5,205,69.7,203.9z"/>
		<path fill="none" d="M70.5,211.3c0.6,0,1.6,1.4,1.9,0.4c-1.8,0.1-2.2-1.4-1.9-3.5c0.9-0.5,1.4-1.4,3.1-1.2
			c-1.6-1.6-2.8,1.8-3.9,0.8c0.7,1.9,0.3,4.9,0.4,7.4C71,214.6,70.2,212.5,70.5,211.3z"/>
		<path fill="none" d="M92.5,203.5c1.9,1.2,6.8-0.6,8.1,1.2C99.7,202.5,95.2,203.9,92.5,203.5z"/>
		<path fill="none" d="M75.5,203.9c0.1,0.3,0,2.9-0.8,3.5c0.2-0.1-1-0.7-0.8,0c1.2-0.3,0.7,1.1,1.9,0.8c-0.2-0.9-0.6-1.8-0.4-3.1
			c0.7-0.4,1.3-1,1.9-1.6c-0.5,0-1,0-1.5,0c-0.1,0-0.3,0-0.4,0C75.5,203.7,75.5,203.8,75.5,203.9z"/>
		<path fill="none" d="M73.2,177.2c-1.8-1.5-3.9-0.5-3.9,1.2C69.3,180.9,73.9,181.7,73.2,177.2z"/>
		<path fill="none" d="M97.1,176c-1.1,0.4-1.7,2.7-0.8,3.9C100.3,181.1,100.3,175.7,97.1,176z"/>
		<path fill="none" d="M103.3,172.5c-1.2,0.5-1.8,1.5-1.5,3.5C104.7,179.1,107.7,172.6,103.3,172.5z"/>
		<path fill="none" d="M93.7,180.7c-1.9-1.2-3.8-0.6-3.9,1.2C89.7,184.3,94.5,185.6,93.7,180.7z"/>
		<path fill="none" d="M79.4,179.9c-3.4-1.1-3.9,2.9-1.9,3.9C80.2,184.3,80.7,181.3,79.4,179.9z"/>
		<path fill="none" d="M80.1,208.2c-0.2-0.7,1.1-1.6,0-1.9c0.2,1.2-0.5,1.5-0.8,2.3c1.6,0.2,2.6-0.3,3.9-0.4c0-0.1,0-0.3,0-0.4
			C82,207.7,81.6,208.5,80.1,208.2z"/>
		<path fill="none" d="M65.5,195.4c1.2,5.3,1.6,12,2.3,17.4c0.2,1-0.5,3,1.2,3.5c0.6-4.6-0.5-9.4-1.2-14
			c-2.2-14.4-5.3-27.7-10.4-38.4c-0.5-1.1-0.7-2.7-2.3-3.1c0.3,2.2,1.4,4.3,2.3,6.2c0.9,2,2,3.7,2.7,5.8c0.4,1.1,0.4,2.3,0.8,3.5
			c1,3.4,2.2,6.6,3.1,10.1C64.6,189.3,65,193.1,65.5,195.4z"/>
		<path fill="none" d="M67.4,175.6c0.1-2.2-2.4-2.9-3.9-1.5c-0.2,1.9,0.5,2.9,1.9,3.1C66.4,177,66.8,176.2,67.4,175.6z"/>
		<path fill="none" d="M74.7,211.7c0.2,0.6-0.5,2,0.4,1.9c-0.5-1.2,1-2.3,0-2.7c-0.3,0.5-0.8,0.7-1.5,0.8c0,0.1,0,0.3,0,0.4
			C74.2,212.2,74.2,211.7,74.7,211.7z"/>
		<path fill="none" d="M95.2,228.7c-1.4-0.2-3.7-0.1-5.4,0c-1.6,0.1-3.8,0-3.9,1.2c-0.1,1.1,1.1,1.4,2.3,1.5c1.3,0.2,3.3,0.1,5,0
			c1.6-0.1,4.4,0.4,3.9-1.5C97.3,228.9,95.7,228.8,95.2,228.7z"/>
		<path fill="none" d="M62,213.2c0.9-1,0.6-2.2,0-3.5C57.9,208.5,58,214.4,62,213.2z M60,212.4c-0.3-1.2-0.3-0.7,0-1.9
			c1-0.1,1.9-0.1,1.9,0.8C62.2,212.5,61.2,212.5,60,212.4z"/>
		<path fill="none" d="M61.2,202.4c-2.8-1.8-6.1-0.4-6.6,1.9c-0.6,3.3,2.1,5.1,4.6,4.6C61.7,208.5,62.9,205.6,61.2,202.4z
			 M60.8,204.7c-0.1,1.7-0.7,2.5-1.5,2.7C53.6,209,57.4,199,60.8,204.7z"/>
		<path fill="none" d="M79.7,210.5c0.6-0.2,2,0.4,1.9-0.4c-0.9,0-1.8,0-2.7,0c0,1,0.7,1.4,1.2,1.9C80.2,211.4,79.7,211.2,79.7,210.5
			z"/>
		<path fill="none" d="M95.6,216.3c0.3-0.1,0.8,0,0.8-0.4c-1.4,0,0.8-1.3-0.4-1.2c-0.5,1.9-3.5,1.3-4.1-0.1c0.3,0.9,0.5,1.2,0.7,1.6
			C93.5,216.3,94.6,216.3,95.6,216.3z"/>
		<path fill="none" d="M106.8,172.9c0.7,1,2.8,1,3.5,0C111.3,169.2,105.8,169.4,106.8,172.9z"/>
		<path fill="none" d="M80.1,203.5c-0.5,0-1,0-1.5,0c-0.8,0.6,1.9,0.9,1.5,2.3C81.3,205.3,79,204.2,80.1,203.5z"/>
		<path fill="none" d="M92.1,203.5c-3.9,0.3-6.8-0.4-10.4-0.4C84.4,203.7,89.1,204.5,92.1,203.5z"/>
		<path fill="none" d="M87.5,185.7c0.4-2.7-1.1-3.3-2.7-3.9C81.1,183.4,85.3,188.9,87.5,185.7z"/>
		<path fill="none" d="M121.1,150.8c0.2-3-2.2-6.6-5.4-5.4c3.8,1.8,4.2,6.6,1.9,10.5c1.6,0.1,2.3-2.5,2.7-3.5
			C120.7,151.5,121,151.4,121.1,150.8z"/>
		<path fill="#B32621" d="M61.6,92.3c0.5-1.6,1.1-5.7-1.2-5.8C60,88.1,59.3,92.2,61.6,92.3z"/>
		<path fill="#B32621" d="M71.2,93.1c0-0.1,0.7-0.3,0.8-0.4c1.6-1.4,4.7-2.8,7.3-2.7c1.2,0.1,4.1,1.1,4.6,1.5
			c1.6,1.1,1.7,3.8,4.3,4.3c0.1-1.9-1.3-3.5-1.9-4.7c-0.7-1.2-0.8-1.2-1.5-1.5c-0.1-0.1-0.2-0.7-0.4-0.8c-5.8-4-13.7-0.6-15.5,5.8
			C70.3,95.5,71,93.7,71.2,93.1z"/>
		<path fill="#171717" d="M96,86.9c-1.6,1.9-2.3,6.8-0.4,8.9C98.6,95,99.5,87.7,96,86.9z M96.4,88.4c1.5,1,1.3,5-0.8,5.4
			C95.1,91.7,95.4,90,96.4,88.4z"/>
		<path fill="#B32621" d="M44.2,91.1c3.2,0.9,5.5,3.2,8.1,4.3c-0.4-2.2-1.4-2.4-2.7-3.5c-1.2-1.1-3.3-2.8-4.2-3.1
			c-2.3-0.7-5.3-0.7-6.6,0.8C40,91.6,42.4,90.6,44.2,91.1z"/>
		<path fill="#B32621" d="M96.4,88.4c-1,1.6-1.3,3.3-0.8,5.4C97.7,93.4,97.9,89.4,96.4,88.4z"/>
		<path fill="#B32621" d="M106.8,96.2c1.1-0.7,2.5-1.4,3.9-1.5c4.6-0.6,6.1,2.4,8.1,4.3c0.2-2.1-1.3-3.1-1.9-3.9
			c-0.5-0.6-0.4-1.3-0.8-1.6c-0.9-0.6-2.8-1.1-3.9-1.2c-3.7-0.2-7.4,3-8.5,5.8C105.1,98.3,105.8,96.8,106.8,96.2z"/>
		<path fill="#B32621" d="M153.9,148.1c0-1.4,0-2.8,0-4.3C153.3,144.4,153.3,147.6,153.9,148.1z"/>
		<path fill="#B32621" d="M118,157c-2.3,0.4-4.2,1-6.6,1.6c-2.1,0.5-4.5,0.5-6.2,1.2c-0.7,0.3-1.6,1.1-2.3,1.6
			c-2.3,1.4-4.5,2.4-6.6,3.5c-0.4,0.2-0.8,1-1.2,1.2c-1.4,0.8-3.5,1.6-5.4,2.7c-2,1.1-4.1,2.4-5.4,2.3c-0.9-0.1-2.2-0.9-3.5-1.6
			c-3.6-1.8-7-3.5-10-5c-1.7-0.9-3.6-1.7-5-2.3c-3-1.3-5.5-3.8-9.3-1.9c0.6,2.3,1.7,4.2,2.7,6.2c9.1,4.3,17.6,9.2,27,13.2
			c2.3-1.7,5.6-3.5,8.1-4.6c0.1-0.1,0.2-0.7,0.4-0.8c1.4-0.9,3.2-1.4,4.6-2.3c0.2-0.1,0.5-0.6,0.8-0.8s0.8-0.6,1.2-0.8
			c3.2-1.8,6.9-4.2,9.7-5.8c1-0.6,1.7-0.7,2.3-1.2c2.2-1.4,3.6-2.1,4.6-4.3C118,158.8,119.5,157.2,118,157z"/>
		<path fill="#B32621" d="M130,164.4c2.3,1.2,4.7,2.6,6.2,2.7c-0.2-1-1.5-1.5-2.3-1.9c-1.4-0.8-3.3-1.3-4.6-1.9
			c-1.7-0.8-3.1-1.8-3.1-3.9c0.2-0.6,0.6-0.9,1.2-1.2c2.9,0.2,4.2,1.5,6.2,2.3c1.2,0.5,2.7,1.3,3.9,0.8c-3.4-1.4-6-3.6-10.4-3.9
			C122.9,160.8,126.1,162.4,130,164.4z"/>
		<path fill="#B32621" d="M125.3,165.5c1,0.5,2.4,0.6,3.5,1.2c0.2,0.1,0.2,0.7,0.4,0.8c0.3,0.2,0.9-0.2,1.2,0
			c0.8,0.4,2.4,1.5,2.7,1.9c0.7,1,0.2,2.3,0,3.1c-4.8,0.9-8.1-2.9-12.4-3.9c0,1.3,1.5,1.5,2.3,1.9c0.9,0.5,2.2,0.8,3.1,1.2
			c1.9,0.8,4,2.2,6.6,1.9c3.6-3.6,0.6-5.4-3.1-7.4c-2.6-1.4-5.2-2.2-6.6-2.7C123.1,164.5,124.4,165.1,125.3,165.5z"/>
		<path fill="#B32621" d="M131.5,181.4c-3.9,9.6-7.8,21.2-9.7,32.2c-0.4,2.5-0.4,5-0.8,7.8c-0.1,0.4-0.6,1.3-0.8,2.3
			c-0.2,1.2,0,2.7,0,2.7c-0.1,2.4-1.1,4.6,1.5,4.3c1.3-0.2,1.2-0.3,1.5-1.9c0.3-1.5-0.1-3.1,0-3.9c0.1-0.7,0.6-1.5,0.8-2.3
			c0.2-1,0.2-2,0.4-3.1c1.2-7.7,2.2-15.4,4.2-22.1c0.8-2.6,1.9-4.8,2.7-7c0.8-2,1.4-3.2,1.9-4.6c0.4-0.9,0.4-1.9,0.8-2.7
			c0.5-1.1,1.4-1.8,1.9-2.7c1.3-2.5,2.3-7.7,1.2-11.2C135.3,173.3,133.3,177.1,131.5,181.4z"/>
		<path fill="#B32621" d="M128.8,182.6c-0.3-1.3-3.1-1.9-3.9-2.3c-3-1.7-9.7-3.3-5.4-7c2.4,0,4.3,1.1,6.2,1.9
			c1.9,0.8,3.8,2.3,5.8,1.9c-0.7-1.1-2.9-1.4-5-2.3c-1.8-0.8-3.6-2.3-5-2.3c-2.4,0-4.5,0.6-3.9,4.7
			C120.7,179.6,124.8,181,128.8,182.6z"/>
		<path fill="#B32621" d="M14.1,201.6c-0.1-1.7-1.1-1.8-2.4-1.5v2.7c0,0,0,0,0.1,0C12.4,202.6,14,202.8,14.1,201.6z"/>
		<path fill="#B32621" d="M13.7,193.1c-1.4-4.6,0.7-8.1,4.2-7.7c3.2,0.3,4.2,4,3.1,8.1c1.3,0.3,1.5-0.6,2.7-0.4
			c1.7,1,3.2,2.2,3.9,4.3c0.8,1.3,1.9-0.1,2.3,1.2c-0.8,3.8-5.6,2.6-8.5,1.6c-0.4,0.7-0.5,1.8-0.8,2.7c4,0.7,6.9,2.4,10,3.9
			c-0.1-7,0-12.1,0-19.4c-2.2-2.1-4.6-4.2-7.3-5.8s-5.7-3.2-9.3-3.9c0.1-1.1-1.4-0.9-1.9-1.2c-0.1-0.1-0.3-0.1-0.4-0.2v16.6
			C12.3,192.8,12.9,192.8,13.7,193.1z"/>
		<path fill="#171717" d="M45.8,181.4c1.8,0.4,2.2-0.6,3.1-1.2C49.7,172.9,41.3,177.9,45.8,181.4z"/>
		<path fill="#B32621" d="M85.5,191.1c-7.1-3.2-13-7.6-20.9-10.1c0,3.4,1.6,3.9,3.5,5c3,1.8,6.1,2.8,8.9,4.3s5.7,3.8,8.9,4.6
			c4.2-3.3,10.8-6.9,15.8-9.7c3.4-1.9,7.1-3.3,6.2-7C100.4,182.5,93.1,186.9,85.5,191.1z"/>
		<path fill="#B32621" d="M116.4,180.3c3.2,1.8,7.3,2.8,10,5c1.2,0.7-0.5,2.8,0.4,3.1c0.3-0.9,0.8-1.5,0.8-2.7
			c-2.7-3.4-7.4-4.7-12-6.2C115.7,180,115.8,180.4,116.4,180.3z"/>
		<path fill="#B32621" d="M116.1,195c2.2,0.8,5.4,3.1,7.3,2.3c-1.7-1.1-3.8-1.6-6.2-2.7c-2-0.9-5.2-1.9-5-3.9c0.4-4.6,8,0.8,10,1.5
			c1,0.3,2.4,1.1,2.7,0c-1.5-0.5-4.8-2-6.6-2.7c-1.2-0.5-3.1-1.8-4.3-1.5c-2,0.3-3.1,1.9-2.7,3.9C111.8,193.5,114.8,194.5,116.1,195
			z"/>
		<path fill="#B32621" d="M33.8,208.9c0.1-7,0.8-11.7,0-19.4c-1.3,0.5-0.3-1.3-1.6-0.8c-0.4,5,0,10.2,0,14.7
			C32.2,205.2,30.6,208.5,33.8,208.9z"/>
		<path fill="#B32621" d="M110.6,201.2c0.7,0.3,1.3,0.9,1.9,1.2c0.5,0.2,1.1-0.2,1.5,0c0.3,0.1,0.4,0.7,0.8,0.8
			c0.9,0.3,2.1,0.9,2.7,0c-3.2-0.8-5.7-2.2-8.9-3.1C108.4,201.3,109.9,200.9,110.6,201.2z"/>
		<path fill="#B32621" d="M75.5,203.5c0.1,0,0.3,0,0.4,0c-0.9-0.6-4.5-0.6-5.4,0c0.6,0,1.3,0,1.9,0
			C73.4,203.5,74.5,203.5,75.5,203.5z"/>
		<path fill="#F7CC00" d="M38.4,207.4c0.6-1.7,3.5-1.2,4.6-0.4c0.5-0.9,0.5-2.3,1.2-3.1c-2.1,0-4.1,0-6.2,0c-0.2,0.6,0.5,2-0.4,1.9
			c0,0.1,0,0.3,0,0.4C38.2,206.3,37.8,207.4,38.4,207.4z"/>
		<path fill="#B32621" d="M119.5,214c0-0.9-1.2-1.3-1.9-1.5c-3.3-1.3-10.7-1.5-9.7-5.8c0.6-2.4,3-1.8,5-1.2c2.8,0.9,5.6,2.3,7.7,2.7
			c0-1.2-2.8-1.4-5-2.3c-0.3-0.1-0.8-0.6-1.2-0.8c-1.4-0.6-3.6-1.3-4.6-1.2c-2.2,0.4-3.1,2.4-2.7,5
			C110.1,211.8,115.2,212.5,119.5,214z"/>
		<path fill="#171717" d="M60,210.5c-0.3,1.2-0.3,0.7,0,1.9c1.1,0.1,2.1,0.1,1.9-1.2C61.9,210.4,61,210.4,60,210.5z"/>
		<path fill="#B32621" d="M114.9,214.8c-2.8-0.7-6-0.9-8.1-1.2c0-0.2-0.1-0.5-0.4-0.4c-0.1,0.8,0.5,0.8,0.8,1.2
			c2.3-0.4,4.5,0.6,6.6,1.2c2,0.5,5,0.2,5.4,2.7c-0.9,2.9-3.9,1.8-7,1.6c-2.9-0.2-5.9-0.9-7,0.4c3.8-0.2,10.8,2,14.3-0.4
			C120.7,216.4,118.2,215.6,114.9,214.8z"/>
		<path fill="#B32621" d="M42.3,216.3c-0.1,0-0.3,0-0.4,0c-1.3,0-2.6,0-3.9,0C38.6,217,41.7,217,42.3,216.3z"/>
		<path fill="#B32621" d="M39.6,227.2c1.8-0.6,2.8-2.1,3.5-3.9c1.1-0.1,1.6-0.7,1.5-1.9c-3.3-0.7-3.6,1.6-5.4,2.3
			C39.3,224.9,38.9,226.5,39.6,227.2z"/>
		<path fill="#B32621" d="M50,221.4c-1,0-2.1,0-3.1,0c-1.1,2.3-3.6,3.1-4.3,5.8c1,0,2.1,0,3.1,0C46.8,224.9,49,223.7,50,221.4z"/>
		<path fill="#B32621" d="M52.7,221.4c-1.5,2-4,3-4.6,5.8c1.4,0.1,2.5-0.1,3.5-0.4c1.2-1.8,2.6-3.3,3.9-5
			C54.9,221.2,53.7,221.4,52.7,221.4z"/>
		<path fill="#B32621" d="M86.3,222.1c-1.5-0.4-1.8-0.9-3.5-0.4c-0.4,1.7-2.4,1.7-2.7,3.5c0.9,0.1,0.7,1.3,1.9,1.2
			C84.1,225.6,84.6,223.3,86.3,222.1z"/>
		<path fill="#B32621" d="M86.3,227.6c2-0.3,2.7-1.9,3.5-3.5c1-0.3,1.4-1.2,1.9-1.9c-1.2,0.3-1.1-0.7-2.3-0.4
			c-1.3,1.2-2.6,2.4-3.5,3.5c-0.3,0.4-0.8,0.5-0.8,1.2C85,227.3,86.3,226.8,86.3,227.6z"/>
		<path fill="#B32621" d="M90.6,227.6c2.8,0.3,3.4-1.7,4.2-3.5c1-0.3,1.6-0.9,1.9-1.9c-0.9,0-1.1-0.7-2.3-0.4
			c-0.7,0.5-0.7,1.5-1.2,1.9c-0.4,0.4-1.2,0.3-1.5,0.8c-0.3,0.4-0.6,1.2-0.8,1.5C90.6,226.6,90,227,90.6,227.6z"/>
		<path fill="#B32621" d="M68.9,222.9c-0.4,0.1-0.5-0.4-0.8-0.4c0,0-0.8,0.3-1.2,0.4c-2.3,0.7-3,1.9-3.5,3.9c-0.6,2.3-0.3,4.4,1.5,5
			c1-2.8,0.5-7,4.2-7c2.3,1.4,1.8,5.2,2.3,7.4c1.1,0.2,0.9-1,1.2-1.5C74.5,226.9,71.9,222.1,68.9,222.9z"/>
		<path fill="#B32621" d="M76.7,223.3c-1.2,0-1.5,0.8-2.3,1.2c0.4,1.2,0,3.1,1.2,3.5c0.6-0.9,2.3-0.8,3.1-1.5
			C78.2,225.1,78,223.6,76.7,223.3z"/>
		<path fill="#B32621" d="M58.9,223.7c-0.4,1-0.9,1.9-0.8,3.5c1.2,0.4,2.3,0.8,3.5,1.2c0-1.3,0.7-1.9,0.4-3.5
			C60.9,224.5,60.4,223.6,58.9,223.7z"/>
		<path fill="#B32621" d="M95.2,227.2c2,0.8,2.5-1.9,1.5-2.7C96.3,225.4,95.2,225.8,95.2,227.2z"/>
		<path fill="#B32621" d="M74,233.2h0.5c2.1-0.7,3-2.6,6.1-2.2c0.9,0.8,1.2,1.5,1.1,2.2h2.7c-0.2-1.7-1.1-3.2-2.2-4.5
			C77.9,227.3,73.9,229.1,74,233.2z"/>
		<path fill="#B32621" d="M55,231.8c2.9-1.3,5.1-0.1,7.7,0.8c-0.4-1.9-2.3-3.6-3.9-3.9c-2.5-0.4-5.1,1.1-5.8,2.3
			c-0.2,0.4-0.4,1.3-0.5,2.2H55C54.9,232.8,55,232.3,55,231.8z"/>
		<path fill="#B32621" d="M104.5,232.6c2.2,0.3,7.7,0.5,9.3-1.2c-1.2,0.2-2.8,0.3-4.6,0.4C107.4,231.9,104.6,231.2,104.5,232.6z"/>
		<path fill="#171717" d="M11.7,166.7v0.3C11.8,167,11.8,166.9,11.7,166.7L11.7,166.7z"/>
		<path fill="#171717" d="M11.7,232.9v0.3h4.5c-0.8-0.2-1.6-0.7-2.5-0.6C13.1,232.6,12.4,232.8,11.7,232.9z"/>
		<path fill="#171717" d="M80.5,231c-3.1-0.4-4,1.5-6.1,2.2h7.1C81.7,232.5,81.4,231.8,80.5,231z"/>
		<path fill="#171717" d="M34.6,86.1c0.8,0.7,1.8,1.4,2.3,1.9c0.3,0.3,0.1,0.8,0.4,1.2c0.2,0.2,0.6,0.2,0.8,0.4
			c0.7,1,1.1,1.9,1.9,3.1c0.3,0.4,0.9,0.8,1.2,1.2c0.6,0.9,1,2.4,1.5,3.5c0.7,1.3,1.6,2.2,1.9,3.1c0.3,1.1,0,2.1,0.4,3.1
			c0,0.3,0,0.5,0,0.8c0.9,2.6,0.1,6.8,0.4,10.1c0.5,1.2-0.2,1.4,0,3.1c0.9,0.5,0.1,2.7,0.4,3.9c0,1,0,2.1,0,3.1
			c0.3,3.8-0.9,7.2-1.9,10.1c-1.1,2.9-1.7,7.2-3.1,10.8c-1.4-0.1-1.4-1.7-3.5-1.2c-3.3,0.3-3.4,5.9-0.8,7c-0.8,1.2-2.7,1.5-3.5,2.7
			c-0.6,1-0.4,2.1-1.2,3.1c0,0.1,0,0.3,0,0.4c-0.4,1.7-4.2,1.9-6.2,2.7c-0.8,0.3-1.5,0.8-2.3,1.2c-2,0.9-5,2-7.3,3.1
			c-0.4,0.2-0.7,0.6-1.2,0.8c-0.7,0.3-2,0.3-3.1,1.2c1,0.8,2-0.8,3.5,0c0.4,1,0.8,2,0.8,3.5c-2.1,0.2-2.8-0.9-4.3-1.4v5.3
			c0.6,0.2,1.2,0.5,1.6,0.7c0.5,0.3,0.4,0,0.8,0.4c0.3,0.4,2.5,1.1,3.5,1.5c2.2,0.9,4.3,1.7,6.2,2.7c0.9,0.5,1.7,1,2.7,1.6
			c0.5,0.3,1.1,0.5,1.6,0.8c0.2,0.1,0.3,0.7,0.4,0.8c1.6,0.7,3.8,2.7,5.4,4.3c8.4,7.9,15.9,18.4,22.4,28.7c1.2,1.8,2.7,3.7,2.7,5.8
			c-1.6-0.4-2.3-2.3-3.1-3.5c-0.5-0.8-0.7-1.6-1.2-2.3c-0.4-0.5-1.2-1-1.5-1.6c-0.4-0.7-0.7-1.6-1.2-2.3c-0.2-0.4-0.5-0.5-0.8-0.8
			c-0.2-0.3-0.1-0.8-0.4-1.2c-0.4-0.6-1.2-1-1.5-1.5c-0.3-0.4-0.1-0.8-0.4-1.2c-3.6-4.7-7.4-10.8-12-15.1c-2.9-3.2-5.7-6.2-9.3-8.9
			c-2.9-2.2-7.5-4.2-11.6-5.8c-0.6-0.3-1.3-0.9-1.9-1.2c-0.8-0.3-1.6-0.6-2.4-0.9v1.5c0.1,0.1,0.3,0.1,0.4,0.2c0.6,0.2,2,0,1.9,1.2
			c3.5,0.7,6.6,2.3,9.3,3.9c2.7,1.6,5.1,3.7,7.3,5.8c0,7.3-0.1,12.4,0,19.4c-3.2-1.5-6.1-3.2-10-3.9c0.3-0.9,0.3-2,0.8-2.7
			c2.9,1,7.7,2.2,8.5-1.6c-0.4-1.3-1.6,0.1-2.3-1.2c-0.7-2-2.2-3.2-3.9-4.3c-1.2-0.2-1.4,0.7-2.7,0.4c1.1-4.1,0.1-7.8-3.1-8.1
			c-3.5-0.4-5.7,3.1-4.2,7.7c-0.8-0.2-1.4-0.3-2-0.2v1.4c0.5-0.1,1-0.1,1.6,0c0.7,0.5,1,1.3,1.5,1.9c0.4,0.5,1.6,0.7,1.2,1.9
			c-0.8,1.2-2.5,0.9-4.3,0.9v1.1c1.2-0.3,2.3-0.2,2.4,1.5c-0.1,1.2-1.7,1-2.3,1.2c0,0,0,0-0.1,0v1.1c3.2-1,8.2-0.2,11.3,0.8
			c0.9,2.5,0.2,6.6,0.4,9.7c0,1.9,0,3.9,0,5.8c0,1.2,0,2.3,0,3.5c5,1,10.6,1.6,14.3,3.9c0.4,2-0.2,3.9-1,5.7h16
			c0.1-0.9,0.2-1.7,0.5-2.2c0.7-1.2,3.2-2.7,5.8-2.3c1.6,0.3,3.4,1.9,3.9,3.9c-2.6-0.9-4.8-2.1-7.7-0.8c-0.1,0.5-0.1,1-0.1,1.4h19
			c0-4.1,3.9-5.9,8.1-4.5c1.1,1.3,2,2.9,2.2,4.5h14.3c-0.2-4.3-0.1-8.1,0.5-12.3c0.7-4.9,1.2-10.8,2.3-15.9
			c2.9-13.3,7.5-24.8,12.7-36c1.2-2.5,2.9-5.5,4.3-8.1c1.3-2.5,2.4-6.6,6.2-5.8c0.9,1.1-0.1,2.4-0.4,3.1c-0.2,0.5-0.8,0.6-1.2,1.2
			c-0.3,0.5-0.1,1-0.4,1.5c-3,5.5-5.9,11.4-8.5,17.8c-3.3,8-6.5,17.7-8.5,27.9c-0.9,4.4-1.5,8.8-2.3,13.6c-0.6,3.6-0.8,8.2-0.7,13
			h13.7c0.7-0.2,1.5-0.2,2.4-0.3c0.1,0,0.3,0,0.4,0c1.3-0.8,4.3-0.4,5.6,0.3h7.5c-0.4-1.4-0.8-3.1-0.7-4.5c0.1-1.7,1.4-4.2,1.9-5
			c0.1,0,0.3,0,0.4,0c0.5-4.3,5.3-5.8,8.1-2.7c0.2,1,0.3,2.2,0,2.7c0.4,1,2.3,0.5,2.7,1.6c-0.4,1.7-2.6,2.1-4.3,1.9
			c-1-0.1-2.2-1.3-2.7-1.6c-0.2-0.1-0.4,0.5-0.8,0.4c0,0.1,0,0.3,0,0.4c1,0.6,0.6,1.2,0,1.9c0.7,0.9,2-0.6,3.1,0.4
			c0.1,1.2,0.1,2.8,0.1,4.5h3.6c-0.9-0.2-1.7-0.6-2.5-1c0-0.7,0-1.3,0-1.9c0.8-0.8,2.6-0.3,3.5,0c0.3,1.4-0.6,1.7-0.4,3h1.1
			c-0.9-2.1,0.7-3.6,3.1-3.3c0.3,0.7,0.1,1.9,0.8,2.3c0.3-2.4,1.9-3.5,5-3.1c0.8,2.2-0.7,3.5-2.7,4.1h6.1V169
			c-0.4-0.1-0.7-0.2-1-0.4c0-0.1,0-0.3,0-0.4c0-0.1,0-0.3,0-0.4c-1.5,0-2.4-0.7-3.5-1.2c0.3-4.6-0.5-10.3,0.4-14.3
			c0.7-0.8,0.3-2.8,0.4-4.3c-0.6-0.5-0.6-3.7,0-4.3c0.2-3.6-0.4-7,0-9.7c-0.9-10.6-0.1-22.9-0.4-34.1c0-0.1,0-0.3,0-0.4
			c-2.7-2.6-4.9-5.7-7.7-8.1c-1.2,0.2-1.7,1.5-2.3,2.3c-1.7,2.1-3.7,4.8-5.4,7.4c0,4.1,0,8.3,0,12.4c0,2.1,0,4.1,0,6.2
			c0.7,12.4,0.8,27.6-0.4,39.5c-4.8-1.1-8.6-3.3-12.7-5c-0.2-1.4,1.4-1,1.2-2.3c0.1,0,0.3,0,0.4,0s0.3,0,0.4,0
			c0.4-1,0.5-2.4,0.4-3.9c0-0.1,0-0.3,0-0.4c-1.1-2.4-3.1-3.8-6.2-4.3c-0.6-1.4-1.5-2.4-1.5-4.3c-0.5-0.5-0.4-1.7-0.4-2.7
			c-0.6-4-0.6-10.7,0-14.7c-0.7-0.7-0.3-2.6-0.4-3.9c-0.8-1.9-1.2-4.2-1.9-6.2c0-0.1,0-0.3,0-0.4c-0.7-1.6,0.7-2.9,1.2-4.3
			c0.8-2.3,1.8-4.4,2.7-6.6c1-2.4,2.1-4.6,3.5-7c0.8-1.4,2.1-2.9,3.1-4.6c0.3-0.6,0.4-1.5,0.8-1.9c0.8-1.1,2.2-2.1,3.1-3.1
			c0.3-0.3,0.2-0.9,0.4-1.2c0.4-0.5,1.4-0.8,2-1.5h-2.1c0,0.1,0,0.2,0,0.3c-2.9,3.9-5.7,7.9-8.5,12c-0.8,1.2-1.1,3.1-2.3,3.9
			c-1.1-5.7-6.6-9-12.7-6.6c-1.5,0.6-2.4,2.3-4.3,2.3c-0.6-5-2.9-8.2-5-11.6c0,0,0-0.2,0-0.3h-5c0.2,1-0.8,0.7-0.8,1.5
			c-1.4,2.1-3.1,3.9-3.9,6.6c-2.3,0-2.8-2.6-4.3-3.5c-2.9-1.8-8-1.8-11.6,0c-0.3,0.2-1.7,1.4-2.3,1.9c-0.8,0.6-1.3,1.5-2.3,1.5
			c-1-3.1-2.4-5.8-4.2-8.1h-3.5c0.5,0.3,0.9,0.6,1.2,1.1c0,0.1,0,0.3,0,0.4c1.7,1,2.6,2.8,3.5,4.6c0.7,2.3,1.9,4.1,1.9,7
			c-1.4,1.7-5.8,0.4-8.5,0.8c-0.6,0.7-3.6,0.5-4.3,0c-0.2-5.7,1.7-9.2,3.9-12.4c0.3-0.5,0.7-0.9,1-1.5h-2.9
			c-0.2,0.6-0.6,0.9-0.7,1.5c-1.5,2-2.3,4.7-3.1,7.4c-1.1,0.5-2-1.1-3.5-1.9c-2.8-1.5-7.2-3-11.6-1.5c-2.9,0.4-2.9-2-4.6-2.7
			c-0.6-0.2-0.9-0.6-1.2-1.2c-0.5-0.4-1.4-0.9-1.7-1.5h-1.7C30.6,82.4,32.5,84.2,34.6,86.1z M25.7,196.2c0.4,1.5,1.6,2,1.9,3.5
			c-0.9,0-1.1,0.7-2.3,0.4c-1.3-1.3-4.3-0.9-6.2-1.6C18.4,194.7,24.2,193.2,25.7,196.2z M14.9,191.9c-1-1-0.2-3.6,0.4-4.3
			c0.1-0.3,0.4-0.4,0.4-0.8c7.2-1.9,4.7,7.9,2.3,10.8C16.2,197.2,15.3,194.2,14.9,191.9z M19.5,201.6c0,1.4-3.5,1.8-3.9,0.4
			c-1.1-0.6,0-2.3,0.4-2.7c2.3-0.2,3.7,0.4,3.9,2.3C19.7,201.6,19.6,201.6,19.5,201.6z M48.5,208.6c-1.2-0.2-1.2,0.7-1.9,0
			C46.7,207.5,48.6,206.7,48.5,208.6z M32.2,188.8c1.2-0.5,0.3,1.3,1.6,0.8c0.8,7.6,0.1,12.4,0,19.4c-3.2-0.4-1.5-3.8-1.6-5.4
			C32.2,199,31.8,193.8,32.2,188.8z M32.2,224.5c-2.2-0.6-5-0.9-6.6-1.6c-2,0.1-0.8-3-1.2-4.6c0-0.4,0-0.8,0-1.2c0-3.4,0-6.7,0-10.1
			c0.3-0.3,0.4-0.9,0.4-1.5c1.4,0,1.7,1.1,2.7,1.5c-0.1,6,0.3,9.2,0.4,13.6c0.6,1.1,2.6,0.7,3.5,1.6c2,0.4,3.6,1.1,5.4,1.5
			c0.8,0.3,1,1,1.2,1.9C36.3,226,34.3,225,32.2,224.5z M37.6,216.3c0.4-2.5-0.7-4.5,0-6.2c0-1.3,0-2.6,0-3.9c0-0.1,0-0.3,0-0.4
			c-0.1-1-0.1-1.9,0.4-2.3c2.3,0,4.6,0,7,0c-0.5,1.2-1.6,1.8-1.2,3.9c-2.2-0.8-5.6-1.3-5.8,1.2c-0.1,0.7,0.4,2.1,1.9,2.3
			c1.3,0.1,2.5-0.1,3.1-0.8c0.9,0.7-0.5,2.3,0,3.9c0.7,1.8,3.8,1.2,4.2-0.4c0.2-1.8-0.9-2.2-0.8-3.9c3.4,0.7,5,3.2,6.6,5.8
			c-2.3,1.5-7.3,0.4-10.8,0.8c-0.5,0.6-3.7,0.6-4.3,0C37.9,216.3,37.8,216.3,37.6,216.3z M39.2,223.7c1.8-0.8,2.1-3,5.4-2.3
			c0.1,1.3-0.5,1.9-1.5,1.9c-0.7,1.8-1.7,3.2-3.5,3.9C38.9,226.5,39.3,224.9,39.2,223.7z M46.9,221.4c1,0,2.1,0,3.1,0
			c-1,2.4-3.2,3.5-4.3,5.8c-1,0-2.1,0-3.1,0C43.3,224.4,45.8,223.6,46.9,221.4z M51.2,231.4c-5.2-0.5-9.1,0.8-12.8,0
			c0-0.6,0-1.3,0-1.9c5.3-0.6,9-0.8,13.1-0.4C51.8,230.3,50.9,230.2,51.2,231.4z M51.5,226.8c-1,0.3-2.1,0.5-3.5,0.4
			c0.6-2.8,3.2-3.8,4.6-5.8c1,0,2.2-0.2,2.7,0.4C54.1,223.4,52.7,225,51.5,226.8z M43.4,95c-0.9-0.5-3.8-2.9-1.2-3.5
			c0.3-0.1,0.4,0.2,0.4,0.4c2.1,0.3,3.8,0.9,5.4,1.9c0.7,0.4,1.8,1.1,1.9,1.9c-1.4,0.3-2.8,0.5-4.6,0.4C44.8,95.7,43.8,95.7,43.4,95
			z M45.4,137.2c0-0.1,0-0.3,0-0.4c0.2-3.5,0.9-6.6,1.5-9.7c0-0.3,0-0.5,0-0.8c0-1.3,0-2.6,0-3.9c4-0.2,8.1-0.4,11.2-1.6
			c0.5,3.7-2.2,7.6-3.1,11.2c0.7,2.4,4.3,1.9,5.4,3.9c0-2.7-3.3-2.1-4.6-3.5c0-2.8,1.4-4.3,2.3-6.2c0-0.1,0-0.3,0-0.4
			c0-3.3,2.2-4.2,1.9-7.7c0-0.1,0-0.3,0-0.4c-0.9-0.2-0.2-1.9-0.4-2.7c-0.6-1.3-0.5,1.3-1.5,0.8c-3.1-1.6-7.7-2-11.6-0.8
			c0.1-0.6-0.2-1.3,0-1.9c1.3-4.7,9,1.3,10.4-1.9c-0.5-2.4-5.3-0.4-6.6-1.9c-1.4,0.2-2.4,0.9-3.9,1.2c-0.5-1.2-0.4-3-0.4-4.6
			c3.2-1.3,8.1-1.2,12-1.6c6-0.6,14.3-0.3,20.5,0c3.5,0.2,6.5,0.7,9.3,1.6c1,1.9,1.9,3.8,1.9,6.6c0,0.1,0,0.3,0,0.4
			c1,5.3,1.1,13.6,0.4,19.4c0,0.1,0,0.3,0,0.4c0,3.9,0,7.7,0,11.6c0,0.1,0,0.3,0,0.4c0.3,1.4,1,3.5,1.5,5.4c0.7,2.3,1,4.6,3.5,6.6
			c0.3,0.3,0.5,0.1,0.8,0.4c1.4,1.3,6.2,1.6,8.5,0.4c1.4-0.7,2.5-2.4,3.1-4.3c0.8-2.4-0.3-5.1-3.1-6.2c1.9-0.9,4,1.4,4.6,3.1
			c0,0.1,0,0.3,0,0.4c1.6,4.9-4,9.6-8.5,9.7c-4.5,0.1-8.2-3.3-9.7-7c-0.1-0.2-0.5-0.5-0.4-0.8c0.2-0.6-0.1-0.2-0.4-1.2
			c-0.6-2-1.1-4-1.2-5.8c0-0.9-1.5-1.9-1.2,0c0.4,2.4,1.9,5.5,1.5,7.4c-2-0.8-2.1-4-3.1-6.2c-1.2,1.7,0.7,3.7,0.8,5.4
			c-2.3,0.5-1.7-1.9-2.3-3.1c-0.4-0.1-0.7,0.1-0.8,0.4c0,0.1,0,0.3,0,0.4c0.7,0.7,0.5,2.5-0.4,2.7c-1.4,0.6-0.2-1.3-1.2-1.2
			c-1.2,1.1-0.3,2-1.2,3.5c-1.2,0.3-0.7-1.1-1.9-0.8c0.4,1.8,0.5,3.9,1.5,5c0.3-3.3,1.5-5.7,4.2-6.6c1.1,0.8,3.2,0.7,4.3,1.5
			c1.9,1.4,2.4,4.2,1.5,8.1c-1.7,1.2-2.3,2.5-4.2,2.7c-2.3,0.2-4.2-1.4-5.8-2.3c-1.8-1.1-2.6-5-3.9-7c-0.7,1.6,0.9,4.3,1.5,5.8
			c0.4,1.3,2.1,1.2,1.9,3.1c-4-0.6-4.9-4.4-5.8-8.1c-0.8-0.2-0.7,0.6-0.8,1.2c0,0.1,0,0.3,0,0.4c1,1.7,1.4,4,2.7,5.4
			c-3.2,1.5-3.8-3.9-5-6.2c-1,1.8,0.9,4,1.2,5.8c-2.7-0.4-2.7-3.4-3.9-5.4c-1.1,1.3,0.7,2.9,0.8,4.3c-2.7,0-2.3-3.1-3.5-4.7
			c-0.5,0.1-0.3,1-0.4,1.6c0,0.1,0,0.3,0,0.4c0.1,0,0.3,0,0.4,0c-0.1,0.4,0.1,0.7,0.4,0.8c-1.9,1.1-2.8-2.1-3.5-3.5
			c-1.3,0.4-1.2,2.1-3.1,1.9c-1.5,0-1.6-1.5-1.9-2.7c-1.5,1.1-1.1,4.1-3.5,4.3c0-1.8,1.1-2.5,0.8-4.6c-1.8,1.3-0.8,5.4-3.5,5.8
			c0-2.7,1.5-3.9,1.2-7c-1,0.4-0.9,2-1.2,3.1c-0.5,1.9-0.7,4.2-2.7,4.7c0.4-3,1.6-5.1,1.5-8.5c-1.4,0.5-0.8,2.4-1.2,3.9
			c-0.2,0.7-0.5,1.2-0.8,1.9c-0.2,0.7-0.3,1.7-0.4,1.9c-0.5,0.8-1.8,1.9-2.7,1.6c1-2,2.3-4.3,2.7-7c0.1-0.8-0.4-1.7,0.4-2.3
			c0-0.1,0-0.3,0-0.4c-0.3,0.1-0.4-0.2-0.4-0.4c-1.4,0.5-0.5,2-0.8,3.1c-0.7,3-1.8,6.4-4.6,7c1.8-2.7,2.8-6.3,3.5-10.1
			c0.6-0.6,0.3-2.3,0.4-3.5C46.2,145.5,44.4,141,45.4,137.2z M50.4,116.7c-1.7,0.3-2.5,1.5-3.9,1.9c-0.3-3.9,5.9-4.1,8.9-3.1
			c0.6,0.2,1.5,0.9,1.9,1.2c0.9,0.5,2.2,0.4,1.5,1.5C56.7,117.5,53.4,116.1,50.4,116.7z M58.9,119.4c-0.5,1.6-2.7,1.4-4.6,1.6
			c0.1-1.2,0.4-2.2,0.8-3.1C56.3,118.4,57.8,118.7,58.9,119.4z M52.7,117.9c1.9,0,0.8,1.5,0.8,2.7c-1.6,1.5-5.5,1.6-5-1.9
			c1.6-0.2,0.8,2,2.3,1.9C52.2,120.5,53,119.7,52.7,117.9z M92.9,132.2c0,0.1,0,0.3,0,0.4c-0.1,4.9,0,9.6,0.4,14c0,0.1,0,0.3,0,0.4
			c0.1,0,0.3,0,0.4,0c0.3,3.4,3.2,10.4,8.5,8.9c0.6-0.2,1.9-0.9,2.3-1.9c0.2-0.5,0.4-2.1,0.4-2.3c-0.5-1.8-4-3.4-5-0.4
			c-0.1,0-0.3,0-0.4,0c0,0.1,0,0.3,0,0.4c0.3,0.9-0.1,1.7,1.2,2.3c1-0.2,1.4-0.9,1.9-1.5c-0.3-1.4-1.8,1.2-1.9,0
			c-0.2-1.2,0.5-1.6,1.2-1.9c1.5-0.3,1.4,0.9,2.3,1.2c0.3,3.5-4.1,4.4-6.2,2.3c-0.3-0.6-0.7-3.2,0-4.6c0.3-0.5,2-2,1.9-1.9
			c2.8-1.3,7.1,1.1,7.3,3.9c0.1,0.9-0.7,2.3-1.2,3.1c-1.1,2-1.7,2.9-4.6,3.1c-3.1,0.2-5.9-1.2-7.3-3.1c-0.2-0.3-0.1-0.5-0.4-0.8
			c0,0-1.3-3.5-1.5-4.3c-0.6-2.3-0.7-4-0.8-7c-0.1-4-0.4-4.7,0-8.1c0.3-1.9-0.5-4.9,0.4-6.2c0-0.3,0-0.5,0-0.8
			c-0.9-3.2-0.1-8.1-0.4-12c0-0.3,0-0.5,0-0.8c-0.6-1.6-0.7-3.7-1.2-5.4c0-0.1,0-0.3,0-0.4c-0.6-0.5-0.7-1.3-0.8-2.3
			c3.1-0.1,2.6,3.3,3.1,5.8c0,0.3,0,0.5,0,0.8C93.7,117.9,93.4,127.8,92.9,132.2z M96,116.3c0,0.4,0,0.8,0,1.2
			c0.8,2.5,0.3,6.5,0,8.1c0,1.2,0,2.3,0,3.5h0.4c-0.3,1.9-0.3,7.6-0.8,10.1c0,0.1,0,0.3,0,0.4c0.3,4.3,1.9,7.9,1.2,12
			c-1.8-0.2-1.6-2.5-1.9-4.3c-0.4-0.5-0.4-1.4-0.4-2.3c-0.9-0.9-0.1-3.5-0.4-5c0.2-1.7-0.5-1.9,0-3.1c-0.1-7.2,0.6-13.9,0-21.7
			c-0.2-3.1-1.4-5.8-1.2-8.5c2.2,0,1.9,2.4,2.3,4.3c0,0.1,0,0.3,0,0.4C95.8,112.6,95.9,114.5,96,116.3z M101.4,139.2
			c0,0.1,0,0.3,0,0.4c0.3,1.6,1.1,4.8,0.4,6.2c-2.2-0.1-1.7-2.9-1.9-5c0-0.3,0-0.5,0-0.8c-0.8-2-0.4-7.7,0-8.5c0-0.5,0-1,0-1.5
			c0-4.8,0-9.6,0-14.3c0-0.3,0-0.5,0-0.8c-0.7-2.4-1.1-5.1-1.5-7.7c1.3-0.1,2.3,2,2.7,3.5c0.3,1.1,0.2,2.5,0.4,3.9
			c0,0.1,0,0.3,0,0.4C102.5,122.5,101.2,131.1,101.4,139.2z M107.2,121.4c0.8,0.7,0.1,1.4,0,2.3c-0.3,2.6,0.5,6.2-0.4,8.1
			c0,0.1,0,0.3,0,0.4c0,2.1,0,4.1,0,6.2c0,0.1,0,0.3,0,0.4c0.3,2.1,1.1,3.8,1.2,6.2c-0.6,0-1.3,0-1.9,0c0.3-1.4-0.7-1.7-0.4-3.1
			c0-0.1,0-0.3,0-0.4c-0.9-0.9-0.1-3.5-0.4-5c0-1,0-2.1,0-3.1c-0.2-5.1,0.7-9.1,0.4-14.3c0-0.1,0-0.3,0-0.4
			c-0.1-3.9-0.9-7.1-1.5-10.5c2.2,0.1,1.9,2.7,2.3,4.6c0,0.1,0,0.3,0,0.4C107.4,115.2,107.2,118.4,107.2,121.4z M115.3,125.2
			c-0.2,1.8,0.5,2.3,0,3.5c0,3,0,5.9,0,8.9c0,0.1,0,0.3,0,0.4c0.5,1.8,1.4,4.9,1.2,6.2c-2.2,0-2.2-2.2-2.3-4.3c0-0.1,0-0.3,0-0.4
			c-0.9-1.8-1.2-6.3-0.4-8.5c0-0.1,0-0.3,0-0.4c0-3.6,0-7.2,0-10.8c0-0.3,0-0.5,0-0.8c-0.5-3.2-1-6.5-1.9-9.3
			c1.4-0.2,1.9,1.6,2.3,2.7c0.4,1.2,0.4,4.4,0.8,6.2c0,0.1,0,0.3,0,0.4C115.8,120.3,115,123.3,115.3,125.2z M107.6,146.6
			c0.3-1.2,1.3,0.1,1.9,0.4c1.1,0.6,1.6,1.2,2.3,1.9c1.7,1.8,0,8.7-3.1,8.9c0.2-1.7,1-2.5,1.5-4.7
			C111,150.4,109.8,148.1,107.6,146.6z M113.3,150.4c0-0.1,0-0.3,0-0.4c-0.7-0.4-0.7-1.4-1.2-1.9c-0.1-1.3-2.1-0.8-1.9-2.3
			c3.3,0.1,5.2,3.5,5,5.8c0,0.1,0,0.3,0,0.4c-0.6,2.2-1.6,4-3.1,5.4C111.4,155.4,113.8,153.4,113.3,150.4z M115.3,153.9
			c0.2-0.8,1.1-1.7,1.2-2.3c0-1.1-0.4-2.3-0.8-3.1c-0.6-1.3-1.8-1.8-2.3-3.1c2.5,0.8,5.1,2.8,5,5.8c0,0.9-0.6,0.3-0.8,0.8
			c-0.5,1.2-0.5,4.4-2.7,4.3C115.3,155.6,115,154.7,115.3,153.9z M112.6,118.6c0,0.9,0,1.8,0,2.7c0,0.3,0,0.5,0,0.8
			c0.9,0.8,0.2,3.5,0,3.5c0,0.3,0,0.5,0,0.8c0,4.3,0,8.5,0,12.8c0,0.1,0,0.3,0,0.4c0.5,1.4,1,2.8,1.2,4.7c-1.2,0.4-1,0.2-1.9-0.4
			c0-0.1,0-0.3,0-0.4c-0.6-1.6-0.9-3.5-0.8-5.8c-0.6-1.7-0.6-6.1,0-7.7c0-0.8,0-1.6,0-2.3c0-3.1,0-6.2,0-9.3c0-0.4,0-0.8,0-1.2
			c-0.7-2.4-1.1-5.1-1.5-7.7C112,110.3,111.6,115.4,112.6,118.6z M109.5,131.4c0,0.1,0,0.3,0,0.4c0,3.7,0.4,8.7,1.2,12.8
			c-0.7-0.1-1.9,0.4-1.5-0.8c-0.4-0.8-1-1.6-0.8-3.1c-1.3-8.4,1-18.2-0.4-26.7c0-0.1,0-0.3,0-0.4c-0.6-1.5-1-3.1-1.2-5
			c1.8,0.2,2,2.6,2.3,4.3C110.1,117.6,110.2,125.7,109.5,131.4z M104.5,114.4c0,0.9,0,1.8,0,2.7c0.6,2.4,0.1,5.4,0,7
			c0,4.6-0.6,8.7-0.4,13.6c0,1.1,0.6,0.8,0,1.5c0.6,1.7,0.8,3.9,0.8,6.2c-2.3,0-2.6-4-2.7-6.6c-0.1-1.1-0.3-2.1,0.4-2.7
			c0-0.8,0-1.5,0-2.3c-0.5-3.3,0.7-8.3,0.4-12.8c0-0.9,0-1.8,0-2.7c-0.9-1-0.1-3.7-0.4-5.4c0-0.1,0-0.3,0-0.4
			c-0.7-1.3-1-2.8-1.2-4.6C104.2,108.1,103.5,112.1,104.5,114.4z M98.7,141.9c0.2,1.9,1.8,3.9,0,5.4c-1.1-0.1-1.3-1.5-1.5-2.3
			c-0.7-3-0.2-8.8,0-12.4c0.3-5.8,0.5-12.2,0-17.4c-0.3-3.3-2-5.8-1.2-8.5c1.4,0.8,1.9,2.9,2.3,4.6
			C100.1,119.8,97.9,131.9,98.7,141.9z M45.8,163.6c1.3-0.3,1.7,0.4,1.9,1.2c2.2,0.5,5,0.4,5,3.1c-2.3-0.8-5.2-1-7.3-1.9
			C45.4,165,46,164.8,45.8,163.6z M35.7,149.7c0-0.5,0-1,0-1.5c0-0.1,0-0.3,0-0.4c-0.2-2.2,1.2-2.7,3.1-2.7c0.3,0.7,1.1,1,0.8,2.3
			c-1,1-1.2-0.5-2.3-0.4c-0.3,1.4,0.6,1.7,1.9,1.5c3.7-1.6,3.2-7.4,4.6-11.2c1.4,3.3-1.3,12.2-3.1,13.2
			C39.3,151.2,37.3,151,35.7,149.7z M33.8,154.3c0.5-0.9,2.4-1.9,2.7-1.9c3.8-0.7,5.4,3,5.4,3.5c0.1,1.4-1.3,4.2-3.1,4.3
			c-2.6,0.1-3.3-2.5-2.3-4.3c1.1-0.4,1.6-0.4,2.7,0c0.3,1.2-0.4,1.4-0.4,2.3c2.6,0.3,1.4-4.1-1.5-3.5c-3.2,0.7-2.7,7,2.3,6.2
			c2.2-0.4,5.1-5.3,3.9-8.9c-0.1,0-0.3,0-0.4,0c0.1,1,0.1,1.9-0.4,2.3c-1.3-0.1-1.1-1.7-2.3-1.9c0.5-1.9,2.5-2.4,2.7-4.6
			c0.9,0.8,0.8,2.6,0.8,4.3c0.9-1.9,0.8-4.9,0.8-7.7c0.8,2.2,1.7,3.9,1.5,7c-0.1,0.9-0.6,0.5-0.8,1.2c-0.2,0.8,0.1,1.8,0,2.7
			c-0.4,2.4-2.3,6.2-3.5,7c-3.8,2.4-8.7-0.1-8.9-4.3C33,156.8,33.3,155,33.8,154.3z M29.1,162.4c0.5-1.4,1.3-2.6,3.1-2.7
			c0.2,0.3,0.3,0.7,0.8,0.8c0.4,2.4-2,2.1-1.6,4.6c0.3,1.1,1.5,1.3,2.3,1.9c2.3-0.1,1.9-3,4.2-3.1c0.5,0.5,0.5,1.8,0,2.3
			c-0.7,1.2-2,2.9-3.9,3.1c-2,0.2-4-0.9-5-2.3c0-0.1,0-0.3,0-0.4C28.7,165.3,28.1,163.3,29.1,162.4z M19.5,164
			c0.3-0.3,1.1-0.2,1.2-0.8c0.3,0.2,0.7,0.3,0.8,0.8c0.2,4.3,1.8,7.3,3.9,9.7C21.5,174,19.1,169.5,19.5,164z M33.4,179.9
			c-0.6-1.2-2.4-1.2-2.7-2.7c1.4-0.1,2.5,0.1,3.5,0.4C33.9,178.4,34.8,180.2,33.4,179.9z M46.9,193.8c-1.8,0.1-1.6-1.7-2.7-2.3
			c0.6-1.2,1.7,0.3,2.7,0C46.9,192.3,46.9,193.1,46.9,193.8z M48.5,190.7c-1.3-1-4.1-0.5-5.8-1.2c-1.2-1.3-2.2-2.9-3.5-4.3
			c-1.2-1.3-2.9-2.3-3.9-3.9c0-1.5,0-3.1,0-4.7c-0.7-0.9-2.9-0.1-4.2-0.4c-5.4-2-9.4-6.8-8.5-13.9c1,0.1,1.2-0.6,1.9-0.8
			c0.4,2.1,0.4,5.8,1.9,8.1c0.5,0.7,1.2,1.3,1.9,1.9c2.9,2.4,7.5,2.6,10.8-0.4c1.1-1,1.7-2.4,2.7-3.5c0.3-1.9,0.1-4.3,1.9-4.6
			c1.6-0.2,0.4,2.4,0.8,3.5c2.7,0.9,6.3,1,8.5,2.3c1.1,1.4,1.8,3.5,2.7,5.8c0.7,1.9,2,4.5,1.9,6.2c-0.1,2.3-2.2,3.6-2.7,5.8
			c1.6,1.1,3.8,1.6,5,3.1c0.2,2.8,1,4.9,0.8,8.1c-1.7,2.3-4.2,3.7-7,3.5C49.8,201.2,46.8,196.4,48.5,190.7z M58.9,187.2
			c-1.2,0.3-1.4-0.4-2.3-0.4c-0.1-1.5,0.8-2,1.2-3.1C59.1,183.9,58.8,185.8,58.9,187.2z M53.9,203.9c-0.6-0.3-1.2-0.6-1.2-1.6
			c0.5,0,1,0,1.5,0C54.4,203.2,54,203.4,53.9,203.9z M54.6,204.3c0.5-2.4,3.8-3.7,6.6-1.9c1.7,3.3,0.5,6.1-1.9,6.6
			C56.8,209.4,54,207.6,54.6,204.3z M61.6,228.3c-1.2-0.4-2.3-0.8-3.5-1.2c-0.2-1.6,0.4-2.5,0.8-3.5c1.5-0.1,2,0.8,3.1,1.2
			C62.2,226.4,61.6,227,61.6,228.3z M62,213.2c-4,1.2-4.1-4.8,0-3.5C62.6,211,62.9,212.2,62,213.2z M60.8,176.4
			c-0.4-1.2-0.4-2.4-0.8-3.5c-0.7-2.1-1.8-3.8-2.7-5.8c-0.9-1.9-2-4-2.3-6.2c1.6,0.4,1.8,2,2.3,3.1c5.1,10.7,8.2,23.9,10.4,38.4
			c0.7,4.5,1.8,9.3,1.2,14c-1.7-0.5-1-2.5-1.2-3.5c-0.8-5.5-1.2-12.1-2.3-17.4c-0.5-2.3-0.8-6.1-1.5-8.9
			C63,183,61.9,179.8,60.8,176.4z M63.5,174.1c1.4-1.4,3.9-0.7,3.9,1.5c-0.6,0.6-1,1.3-1.9,1.6C64,176.9,63.3,176,63.5,174.1z
			 M72.8,230.7c-0.3,0.6-0.1,1.8-1.2,1.5c-0.6-2.2,0-6-2.3-7.4c-3.8,0-3.3,4.2-4.2,7c-1.9-0.7-2.1-2.7-1.5-5c0.5-2,1.1-3.2,3.5-3.9
			c0.3-0.1,1.2-0.4,1.2-0.4c0.3,0,0.4,0.5,0.8,0.4C71.9,222.1,74.5,226.9,72.8,230.7z M75.5,227.9c-1.2-0.4-0.8-2.3-1.2-3.5
			c0.8-0.3,1.1-1.2,2.3-1.2c1.4,0.3,1.6,1.8,1.9,3.1C77.8,227.1,76.1,227,75.5,227.9z M82.1,226.4c-1.2,0.2-1-1-1.9-1.2
			c0.3-1.8,2.3-1.8,2.7-3.5c1.7-0.5,2-0.1,3.5,0.4C84.6,223.3,84.1,225.6,82.1,226.4z M85.1,226.4c0-0.7,0.5-0.8,0.8-1.2
			c0.9-1.1,2.1-2.3,3.5-3.5c1.2-0.3,1.1,0.7,2.3,0.4c-0.5,0.8-0.9,1.7-1.9,1.9c-0.7,1.6-1.5,3.2-3.5,3.5
			C86.3,226.8,85,227.3,85.1,226.4z M93.3,223.7c0.4-0.4,0.4-1.4,1.2-1.9c1.2-0.3,1.4,0.4,2.3,0.4c-0.3,1-0.9,1.6-1.9,1.9
			c-0.8,1.7-1.4,3.7-4.2,3.5c-0.6-0.5,0.1-1,0.4-1.6c0.2-0.4,0.5-1.2,0.8-1.5C92.1,224,92.8,224.1,93.3,223.7z M93.3,231.4
			c-1.7,0.1-3.8,0.2-5,0s-2.4-0.5-2.3-1.5c0.1-1.2,2.3-1.1,3.9-1.2c1.7-0.1,4-0.2,5.4,0c0.5,0.1,2.1,0.2,1.9,1.2
			C97.6,231.8,94.9,231.3,93.3,231.4z M95.2,227.2c0-1.4,1.1-1.7,1.5-2.7C97.7,225.3,97.2,228,95.2,227.2z M99.8,207
			c-0.6,1.5-1.5,2.6-3.9,2.3c0.2-1.3,0.9-1.5,0.8-2.7c-0.3-1.9-2.8-2.7-4.3-1.2c0,0.1,0,0.3,0,0.4c0.1,0.3-0.1,0.4-0.4,0.4
			c0,0.6,0,1.3,0,1.9c-1.2-0.5-4-0.8-4.3,0.8c0,0.1,0,0.3,0,0.4c0,0.6,0,1.3,0,1.9c0.2,1.1,2.9,1.7,3.9,0.8c1.2,0.5-0.4,1.3,0,2.3
			c0,0.1,0.1,0.2,0.1,0.3c0.6,1.4,3.7,1.9,4.1,0.1c1.2-1.5-0.4-2.7-0.4-4.3c1.6-0.3,1.8,0.8,3.1,0.8c0,1.5,0,3.1,0,4.6
			c-0.9,0.4-1.6,1-3.1,0.8c0-0.1,0-0.3,0-0.4c-1,0-2.1,0-3.1,0c-1.4,0.9-4.5,0.1-6.6,0.4c-2.5-0.3-5.6-0.8-8.5-0.8
			c-2.6,0-5.4,1.4-7-0.4c-0.3,0.1-0.4-0.2-0.4-0.4c-0.1-2.5,0.3-5.5-0.4-7.4c-0.3,0.1-0.4-0.2-0.4-0.4c0-1.3,0-2.6,0-3.9
			c0.4,0,0.8,0,1.2,0c0.9-0.6,4.5-0.6,5.4,0c0.5,0,1,0,1.5,0c-0.6,0.5-1.2,1.1-1.9,1.6c-0.2,1.3,0.2,2.2,0.4,3.1
			c-1.2,0.3-0.7-1.1-1.9-0.8c-0.3,0.1-0.4-0.2-0.4-0.4c-1.7-0.2-2.2,0.7-3.1,1.2c-0.2,2,0.1,3.5,1.9,3.5c0.4,0,0.8,0,1.2,0
			c0.7-0.1,1.3-0.2,1.5-0.8c1,0.4-0.5,1.5,0,2.7c0.5,0.4,0.8,1,1.2,1.6c0.5,0.6,2.2,0.6,2.7,0c0.5-0.9,1.4-1.4,1.2-3.1
			c-0.5-0.6-1.1-0.9-1.2-1.9c0.9,0,1.8,0,2.7,0c0.6,0.2,1,0.6,1.5,0.8c0.8-0.3,1.3-2.6,0-2.7c-1.3,0.1-2.2,0.6-3.9,0.4
			c0.2-0.8,1-1.1,0.8-2.3c0-0.1,0-0.3,0-0.4c0.4-1.4-2.3-1.8-1.5-2.3c0.3-0.9,2.2-0.2,3.1-0.4c3.7,0,6.5,0.7,10.4,0.4
			c0.1,0,0.3,0,0.4,0c2.7,0.4,7.2-1,8.1,1.2C100.3,205.4,100.5,206.6,99.8,207z M101.8,185.3c-5.1,2.8-11.6,6.4-15.8,9.7
			c-3.2-0.8-6.1-3.2-8.9-4.6c-2.8-1.5-5.9-2.5-8.9-4.3c-1.8-1.1-3.5-1.6-3.5-5c7.8,2.5,13.8,6.8,20.9,10.1
			c7.5-4.2,14.9-8.6,22.4-12.8C108.9,182,105.1,183.4,101.8,185.3z M69.3,178.3c0-1.6,2.1-2.7,3.9-1.2
			C73.9,181.7,69.3,180.9,69.3,178.3z M79.4,179.9c1.3,1.4,0.9,4.5-1.9,3.9C75.5,182.8,76,178.8,79.4,179.9z M84.8,181.8
			c1.6,0.6,3.2,1.2,2.7,3.9C85.3,188.9,81.1,183.4,84.8,181.8z M89.8,181.8c0.1-1.7,1.9-2.3,3.9-1.2
			C94.5,185.6,89.7,184.3,89.8,181.8z M97.1,176c3.2-0.4,3.1,5.1-0.8,3.9C95.5,178.7,96.1,176.4,97.1,176z M103.3,172.5
			c4.3,0.1,1.4,6.6-1.5,3.5C101.5,174,102.1,173,103.3,172.5z M110.3,172.9c-0.7,1-2.8,1-3.5,0C105.8,169.4,111.3,169.2,110.3,172.9
			z M118,159c-1,2.2-2.5,2.9-4.6,4.3c-0.6,0.4-1.3,0.6-2.3,1.2c-2.7,1.6-6.5,4-9.7,5.8c-0.3,0.2-0.9,0.6-1.2,0.8
			c-0.3,0.2-0.5,0.6-0.8,0.8c-1.5,0.9-3.2,1.4-4.6,2.3c-0.2,0.1-0.3,0.7-0.4,0.8c-2.5,1.1-5.8,3-8.1,4.6c-9.4-4-17.9-8.9-27-13.2
			c-1-2-2-3.9-2.7-6.2c3.8-1.8,6.3,0.6,9.3,1.9c1.4,0.6,3.3,1.5,5,2.3c3,1.5,6.5,3.3,10,5c1.3,0.6,2.5,1.5,3.5,1.6
			c1.3,0.1,3.4-1.2,5.4-2.3s4-2,5.4-2.7c0.4-0.2,0.8-1,1.2-1.2c2.1-1.1,4.3-2.1,6.6-3.5c0.7-0.4,1.6-1.3,2.3-1.6
			c1.7-0.7,4.1-0.7,6.2-1.2c2.4-0.5,4.3-1.1,6.6-1.6C119.5,157.2,118,158.8,118,159z M117.6,155.9c2.3-3.8,1.9-8.7-1.9-10.5
			c3.3-1.2,5.6,2.4,5.4,5.4c0,0.6-0.4,0.7-0.8,1.5C119.9,153.3,119.2,155.9,117.6,155.9z M121.5,172.5c1.4,0,3.2,1.5,5,2.3
			c2.1,0.9,4.3,1.2,5,2.3c-2,0.4-3.9-1.1-5.8-1.9c-1.9-0.8-3.8-2-6.2-1.9c-4.3,3.7,2.4,5.3,5.4,7c0.8,0.4,3.5,1,3.9,2.3
			c-4-1.6-8-3-11.2-5.4C117,173.1,119.1,172.5,121.5,172.5z M127.6,185.7c0,1.2-0.5,1.8-0.8,2.7c-0.9-0.3,0.8-2.4-0.4-3.1
			c-2.7-2.3-6.8-3.3-10-5c-0.7,0.1-0.7-0.3-0.8-0.8C120.2,181,124.9,182.3,127.6,185.7z M113.7,184.5c4.3,0.7,7.7,4.4,12,3.9
			c0.4,1.4-1.6,0.8-2.3,0.8c-0.8-0.1-1.6-0.7-2.7-1.2c-1.8-0.7-3.3-1.1-5-1.9C114.8,185.7,113.3,185.5,113.7,184.5z M114.1,188
			c1.1-0.2,3.1,1.1,4.3,1.5c1.8,0.7,5.1,2.2,6.6,2.7c-0.3,1.1-1.7,0.3-2.7,0c-2.1-0.7-9.6-6.1-10-1.5c-0.2,2,3.1,3,5,3.9
			c2.4,1.1,4.5,1.6,6.2,2.7c-1.9,0.8-5.2-1.5-7.3-2.3c-1.2-0.5-4.3-1.5-4.6-3.1C111,189.9,112.2,188.4,114.1,188z M117.2,197.3
			c2.1,0.9,4.4,1.8,5.8,3.5c0.2,2-0.9,2.7-1.5,3.9c-1.6,0.2-2.6-0.2-3.5-0.8c0.4-0.9,1.8,0.5,3.1,0c1.2-0.1,1.6-2.2,0.8-3.1
			c-2.2-1.9-5.6-3-8.9-4.3c-1-0.4-2.6-0.2-2.7-1.5C112.7,195.4,115.1,196.4,117.2,197.3z M108.7,200c3.1,0.9,5.7,2.3,8.9,3.1
			c-0.6,0.9-1.8,0.3-2.7,0c-0.4-0.1-0.5-0.7-0.8-0.8c-0.4-0.2-1.1,0.2-1.5,0c-0.6-0.2-1.3-0.9-1.9-1.2
			C109.9,200.9,108.4,201.3,108.7,200z M109.9,203.9c1-0.2,3.2,0.6,4.6,1.2c0.4,0.2,0.9,0.7,1.2,0.8c2.3,0.9,5,1.1,5,2.3
			c-2.2-0.4-4.9-1.9-7.7-2.7c-2-0.6-4.4-1.3-5,1.2c-1,4.3,6.4,4.5,9.7,5.8c0.7,0.3,2,0.6,1.9,1.5c-4.3-1.5-9.4-2.2-12.4-5
			C106.7,206.3,107.7,204.3,109.9,203.9z M104.5,232.6c0.1-1.4,2.9-0.7,4.6-0.8c1.8-0.1,3.4-0.1,4.6-0.4
			C112.2,233.1,106.7,232.9,104.5,232.6z M104.9,226c-0.1,1.6,1.6,2.7,3.1,3.1c0.8,0.2,1.6-0.4,2.7-0.4c2.6,0,5.5,0.2,7.7,0.4
			c-1.6,1.1-3.6,0.3-5.8,0.4c-3,0.2-8.4,0.7-8.5-3.1c-0.1-5.1,9.4-3.5,14.7-3.1C114.3,225,105.2,221.3,104.9,226z M119.5,219.8
			c-3.5,2.4-10.4,0.2-14.3,0.4c1.1-1.3,4.1-0.6,7-0.4c3,0.2,6.1,1.3,7-1.6c-0.4-2.5-3.4-2.2-5.4-2.7c-2.1-0.5-4.3-1.5-6.6-1.2
			c-0.3-0.4-0.9-0.4-0.8-1.2c0.3-0.1,0.4,0.2,0.4,0.4c2.1,0.3,5.3,0.5,8.1,1.2C118.2,215.6,120.7,216.4,119.5,219.8z M143.1,222.1
			c1-0.1,1.9-0.1,2.3,0.4c-0.1-1.2-2.1-0.5-1.9-1.9c1.7-0.5,3.8-1.7,5.4-1.2c0.5,0.6,0.5,1.6,1.2,1.9c1.1-0.4-0.1-1.7,0-2.3
			c1.9-0.8,4.1,0.2,4.2,2.3c-1.2,2-4.2,2.3-7,2.7c0.1-1-0.1-1.7-1.2-1.5c-0.6,0.2,0.2,0.5,0,1.2C145,224.2,142.4,224.6,143.1,222.1z
			 M154.7,227.9c-3,0.5-5.9,1-8.9,1.6c-0.2-0.8-1.5-0.3-1.2-1.6c-1.2-0.3-0.5,1.3-1.6,1.2c-0.7-0.4-2.1,0-1.9-1.2
			c1.2,0.1,1.6-0.7,3.1-0.4c1.3-1,1.6-3,4.3-2.7c0.7,0.6,1,1.6,0.8,3.1c1.3,0.4,0.6-1.2,0.8-1.9c0-0.1,0-0.3,0-0.4
			c-0.5-1.5,3-2.4,5.4-2.3C156.5,225,155.8,226.5,154.7,227.9z M152.7,100c-0.3,4.8,0.5,10.6-0.4,14.7c0,4.3,0.3,7,0,10.9
			c0.7,10.7,0.6,23.9-0.4,34.1c0.5,0.5,0.2,0.6,0,1.2c0,2.3,0,4.7,0,7c0,0.3,0,0.5,0,0.8c0,5,0,10.1,0,15.1c0,0.1,0,0.3,0,0.4
			c-0.2,5.6,0.5,12.1-0.4,17.1c0,1,0,2.1,0,3.1c0.6,2.2,0.3,5.4,0.4,8.1c-1.7,0.6-3.7-1.3-5.8-1.5c-0.3-4.6,1.8-6.8,1.5-12
			c-0.1-2.2-0.7-4.6-1.2-6.6c-0.5-2.2-1.5-4.1-1.5-6.2c-0.1-3.9,1.6-7.9,2.7-11.2c0.9-2.6,1.9-6.5,1.9-10.5c-0.2-5.6-2.6-9-2.7-14.7
			c-1.1-5.7,1.9-10.7,3.1-15.5c0-0.1,0-0.3,0-0.4c0-1.5,0-3.1,0-4.7c-0.5-2.5-1.2-4.7-1.5-7.4c-0.8-1.1-1-2.6-1.2-4.3
			c-0.7-0.8-0.3-2.8-0.4-4.3c-0.9-2.3-0.1-6,0.4-8.1c0.1-2.5,0.6-4.5,0.4-7.4c-0.8-0.6-0.1-2.7-0.8-3.5
			C149.6,95.4,150.7,98.2,152.7,100z M146.2,100.4c-0.3-1.8,0.7-1.8,0.4,0c-0.2,1.1,0.5,3.1-0.4,3.5c0.2,1.8-0.7,2.7-0.4,4.6
			c0,1.5,0,3.1,0,4.7c0.4,6.9,4,13.6,3.1,20.9c-0.5,4.1-2.8,7.6-3.1,11.6c0,1.4,0,2.8,0,4.3c0.8,0.9-0.1,1.8,0,2.7
			c0.2,1.4,1.1,3,1.5,4.3c0.8,2.6,1.6,6.5,1.2,10.9c-0.7,6.2-4.7,11.8-4.6,17.4c0,3.3,1.8,6.4,2.3,9.3c0.9,4.5,0.3,8.4-0.8,12.4
			c-0.3,1.2-0.1,4.1-2.3,4.3c-0.7-3.5,1.7-7,1.9-10.8c0.2-4.8-1.8-9.1-2.3-13.6c0-1.3,0-2.6,0-3.9c0.3,0.1,0.3-1.1,0.4-1.9
			c0.7-4.4,3.2-8.7,3.9-13.2c0.1-0.8-0.1-1.7,0-2.7c0.1-0.8,0.4-1.8,0.4-2.3c-0.2-2.8-1.8-6-2.7-8.9c-0.3-1.1-0.4-3.2-0.4-5
			c0-1.5,0.1-3.4,0.4-5c0.7-3.7,3-7.2,3.1-11.6c0-1.2-0.2-2.8-0.4-3.9c-0.8-5.5-3.3-11.7-3.1-18.2c0.1-2.6,0.9-5.1,1.5-7.7
			C145.7,101.5,145.9,100.9,146.2,100.4z M142.3,123.7c-0.8,1.1-1.9,2.7-3.1,3.1c-0.4-4.8,3-5.7,4.6-8.5c0.4,0,0.3,0.5,0.4,0.8
			c0,0.1,0,0.3,0,0.4C145,119.8,143.3,122.4,142.3,123.7z M142.3,147.3c-0.5,0.6-2.2,3.1-3.1,2.3c0.3-3.3,2.9-4.3,4.3-6.6
			C144.5,144.7,143.3,146,142.3,147.3z M139.6,154.3c-1.3-3.1,2.5-4.4,3.5-6.6C144.7,151.2,140.6,152.2,139.6,154.3z M141.2,144.2
			c-0.5,0.6-0.8,2-1.9,1.9c-0.3-1.8,0.6-3.1,1.6-4.3c0.1-0.1,0.7-0.3,0.8-0.4c0.7-1.6,2.5-3.2,3.5-5
			C146.1,139.9,142.9,142.1,141.2,144.2z M143.1,137.6c-1.1,1.4-2.2,3.3-3.9,3.9c-0.4-2.8,1.8-4.9,3.1-6.6c0.6-0.8,1.3-2,1.9-2.7
			c0.6-0.7,1.2-2.3,2.3-1.6c0,0.3,0,0.5,0,0.8c0,0.1,0,0.3,0,0.4C146.3,133.9,144.5,135.9,143.1,137.6z M143.5,132.2
			c-0.6,0.7-1.3,1.6-1.9,2.3c-0.6,0.7-1.1,2.2-2.3,1.9c-0.6-1.8,0.8-3,1.6-4.3s1.6-2.5,2.3-3.5c0.1-0.1,0.7-0.3,0.8-0.4
			c0.3-0.6,1-2.7,2.3-1.9C146.5,129,144.6,130.8,143.5,132.2z M143.9,114.8c0.2,2.8-1.6,4.2-3.1,5.8c-0.4,0.5-0.7,1.4-1.6,1.2
			c0-0.9,0-1.8,0-2.7C141.1,118,141.5,115.4,143.9,114.8z M139.2,117.5c0.2-3.3,2.6-4.4,3.9-6.6c1.1,2.2-1.1,4.1-2.3,5.4
			C140.3,116.9,139.9,117.5,139.2,117.5z M141.9,110.9c-0.7,1-1.4,2.3-2.7,2.7c-0.5-2,1.2-2.9,1.9-3.9s1.3-2.5,2.7-2.7
			C144.2,108.9,142.7,109.9,141.9,110.9z M143.1,127.6c-1.1,1.5-2.1,3.6-3.9,4.3c0-1.5,0-2.8,0.4-3.9c0.1-0.2,0.7-0.2,0.8-0.4
			c0.4-0.8,1.6-2.6,2.3-3.5c0.7-0.8,1.2-1.9,2.3-1.9C146.2,124.5,144.2,126,143.1,127.6z M142.3,106.6c-0.9,1.2-1.8,3.3-3.5,3.5
			c1-3.3,3.5-5.3,5.4-8.1C145.5,103.9,143.3,105.4,142.3,106.6z M140.4,154.7c0.7-1.1,1.7-2.3,3.1-2.7c0.8,1.7-0.7,3-1.5,4.3
			c-0.8,1.1-1.6,2.9-3.1,3.1C138.5,157.2,139.6,155.8,140.4,154.7z M140.8,159c0.4-0.6,1-1.3,1.5-1.9c0.5-0.6,0.9-1.6,1.9-1.5
			c1.4,2.1-0.9,3.6-1.9,5c-0.9,1.3-1.9,4.1-3.5,3.5C138.4,161.7,139.9,160.2,140.8,159z M145.8,167.9c-0.9,0.4-1.3,1.4-1.9,2.3
			c-0.5,0.8-1.8,2.1-2.7,3.1c-0.7,0.8-0.9,2.4-2.3,2.3c-0.2-1.8-0.1-2.5,0.8-3.9c0.8-1.3,1.7-2.4,2.7-3.9c0.3-0.4,0.5-1.1,0.8-1.5
			c0.1-0.2,0.7-0.3,0.8-0.4c0.3-0.6,1.2-2.8,2.3-1.9C146.5,165.7,145.7,166.3,145.8,167.9z M139.2,196.9c1.5-1,1.7-3.2,3.9-3.5
			c0.5,4-2.5,4.5-3.5,7C138.7,200,139.5,198,139.2,196.9z M139.6,195c-2-2.1,0.2-5.4,2.3-5.8C143.4,191.9,140.6,193.5,139.6,195z
			 M141.5,183c-0.5,0.7-2.1,2.1-2.7,1.9c-0.4-3.1,1.7-3.7,2.7-5.4C142.3,180.4,142.1,182.2,141.5,183z M138.8,180.3
			c-0.3-2.5,1.5-3.8,2.7-5.4c0.8-1,2-4.2,3.5-3.9C144.3,175.4,142.2,178.5,138.8,180.3z M142.7,165.5c-0.6,0.8-1.3,1.5-1.9,2.3
			c-0.5,0.7-0.5,2.4-1.9,2.3c-0.2-5.7,3.8-7.3,5.8-10.8c0.6-0.1,0.7,0.4,1.2,0.4C146,162.5,144.1,163.7,142.7,165.5z M140.8,184.9
			c0.4-0.1,0.7,0.1,0.8,0.4c0.2,2.5-1,3.7-2.7,4.3C138.3,186.8,139.9,186.2,140.8,184.9z M142.7,198.1c0.3-0.2,0.7-0.5,0.8,0
			c-0.1,0.4,0.1,0.7,0.4,0.8c0.3,1.2-0.7,1.1-0.4,2.3c-2,0.9-2.3,3.6-4.6,4.3C138.5,201.4,141.2,200.4,142.7,198.1z M140.4,208.6
			c-0.4,0.5-0.1,1.7-1.5,1.5c-0.2-2.5,1.7-4.4,3.1-5.8c0.3-0.3,0.4-0.9,1.2-0.8C143.2,206.3,141.8,207,140.4,208.6z M138.8,212.8
			c0.6-1.4,1.5-2.3,2.3-3.5C143.1,210.6,140.8,213.1,138.8,212.8z M141.5,98.1c1.1-1.5,2.1-4.3,3.9-3.9c-1.6,3.6-4.2,6.2-6.2,9.3
			C137.8,101.4,140.4,99.6,141.5,98.1z M140,103.9c0.2-0.4,0.5-1.2,0.8-1.6c0.1-0.1,0.7-0.3,0.8-0.4c0.4-0.9,1.1-2.1,1.9-3.1
			c0.5-0.5,1-2.1,1.9-1.2c0.1,0.4-0.1,0.7-0.4,0.8c0,0.1,0,0.3,0,0.4c0.2,1.2-1,1.5-1.5,2.3c-0.5,0.7-0.7,1.7-1.2,2.3
			c-0.2,0.3-0.9,0.4-1.2,0.8c-0.5,0.7-0.8,2.7-2.3,2.7C138.3,105.7,139.4,105,140,103.9z M140.8,213.2c0.5-0.8,2-0.6,2.7-1.2
			c1.2,0.1,2.3-0.1,3.1,0c1,0.1,2.4,0.5,3.1,0.8c1.6,0.8,2,2.8,4.6,2.7c0.3,0,0.5,0,0.8,0c1-0.8-1.3-1.6,0-2.7
			c2.1-0.1,2,1.4,1.9,2.3c-0.1,1.1-2.9,2.8-3.5,1.9c-1.3,0-2.6,0-3.9,0c-1.9,0-3.9,0-5.8,0c-1.2,0-2.3,0-3.5,0
			c-3.8,1.8-11.6-0.7-6.6-4.6c1,0,1.5,0.6,1.5,1.5c-0.5,0.6-1.6,0.5-1.5,1.5c0.3-0.1,0.4,0.2,0.4,0.4
			C137.6,216.2,138.5,214,140.8,213.2z M136.1,180.3c-0.5,0.9-1.4,1.6-1.9,2.7c-0.4,0.8-0.4,1.8-0.8,2.7c-0.6,1.4-1.2,2.6-1.9,4.6
			c-0.8,2.1-1.9,4.4-2.7,7c-2,6.7-3.1,14.4-4.2,22.1c-0.2,1.1-0.2,2.1-0.4,3.1c-0.2,0.9-0.7,1.6-0.8,2.3c-0.1,0.8,0.3,2.4,0,3.9
			c-0.3,1.6-0.2,1.8-1.5,1.9c-2.7,0.3-1.6-1.8-1.5-4.3c0,0-0.2-1.5,0-2.7c0.2-1,0.7-1.9,0.8-2.3c0.4-2.7,0.4-5.3,0.8-7.8
			c1.9-10.9,5.7-22.6,9.7-32.2c1.8-4.3,3.8-8.2,5.8-12.4C138.5,172.6,137.5,177.8,136.1,180.3z M126.9,157.4
			c4.5,0.3,7.1,2.5,10.4,3.9c-1.2,0.5-2.6-0.3-3.9-0.8c-2-0.8-3.3-2.1-6.2-2.3c-0.6,0.2-0.9,0.6-1.2,1.2c0,2.1,1.4,3,3.1,3.9
			c1.3,0.6,3.2,1.2,4.6,1.9c0.9,0.5,2.1,1,2.3,1.9c-1.5-0.1-3.9-1.6-6.2-2.7C126.1,162.4,122.9,160.8,126.9,157.4z M129.6,166.3
			c3.7,2,6.7,3.7,3.1,7.4c-2.6,0.3-4.7-1.1-6.6-1.9c-0.9-0.4-2.1-0.7-3.1-1.2c-0.8-0.4-2.3-0.7-2.3-1.9c4.2,1,7.5,4.8,12.4,3.9
			c0.2-0.8,0.7-2.1,0-3.1c-0.3-0.4-1.9-1.5-2.7-1.9c-0.3-0.2-0.9,0.2-1.2,0c-0.2-0.1-0.2-0.7-0.4-0.8c-1-0.5-2.5-0.7-3.5-1.2
			c-0.9-0.5-2.2-1.1-2.3-1.9C124.4,164.1,127,164.9,129.6,166.3z M123.8,153.1c0.8-1.2,0.9-2.9,0.8-5c0-0.1,0-0.3,0-0.4
			c-0.9-0.8-1.1-2.3-2.3-2.7C125.9,143.7,128.7,152.3,123.8,153.1z M120.3,155.1c0.7-2,2.4-4.3,1.2-7c-0.2-1.4-1.8-1.6-1.9-3.1
			C125.6,145.6,124.4,153.4,120.3,155.1z M116.8,115.5c1.4,5.5,1.3,15.1,1.2,22.9c0,0.1,0,0.3,0,0.4c0.6,1.5,1.2,3.1,1.5,5
			c-1.1,0.1-2.1,0-1.9-1.2c-1.4-3.5-1.7-8.5-1.2-12.8c0-3.1,0-6.2,0-9.3c0-0.5,0-1,0-1.6c-0.8-2.5-1.1-5.6-1.9-8.1
			C116.5,111.4,116.4,113.7,116.8,115.5z M112.2,92.3c1.1,0.1,3,0.5,3.9,1.2c0.3,0.2,0.3,1,0.8,1.6c0.6,0.8,2.1,1.8,1.9,3.9
			c-2-1.9-3.6-4.9-8.1-4.3c-1.4,0.2-2.7,0.9-3.9,1.5c-1,0.6-1.7,2.1-3.1,1.9C104.8,95.3,108.5,92.1,112.2,92.3z M118,101.2
			c0,0.1-0.7,0-0.8,0c-2-0.4-2.6-2-3.9-3.1c-1.9,1.2-5,1.6-7.3,0.4c1.2-1.8,4.4-3.6,7-2.7C115,96.2,118.6,98.7,118,101.2z
			 M91.3,90.4c0.5-1.5,0.7-2.1,1.5-3.5c0.8-1.2,2.1-3.7,3.5-3.9c0.7-0.1,0.7,0.3,0.8,0.8c1.5,0.8,2.2,2.5,2.7,4.3
			c1.4,2.5,2,5.8,1.9,9.7c-4.1-0.3-8.1-0.6-11.6-1.6C89.8,94.4,90.9,91.8,91.3,90.4z M84.4,88.8c0.1,0.1,0.3,0.7,0.4,0.8
			c0.7,0.3,0.9,0.4,1.5,1.5s2,2.7,1.9,4.7c-2.5-0.4-2.7-3.2-4.3-4.3c-0.6-0.4-3.4-1.5-4.6-1.5c-2.6-0.1-5.7,1.3-7.3,2.7
			c-0.1,0.1-0.7,0.3-0.8,0.4c-0.3,0.7-0.9,2.4-2.3,1.6C70.7,88.2,78.6,84.8,84.4,88.8z M85.5,95.4c-0.9,0-1.8,0-2.7,0
			c-1.8-0.2-2.6-1.5-3.9-2.3c-1.5,0.9-2.5,2.4-5.4,1.9c-0.8,0.2-1-0.3-1.5-0.4c0.4-1.2,1.4-2,2.7-2.3c1.1-1,4.4-1.8,6.2-0.8
			C83.1,92.2,84.8,93.2,85.5,95.4z M53.1,96.6c1.2,0,2.3,0,3.5,0c0.4-0.9,2.4-0.1,3.5-0.4c1.5,0,3.1,0,4.6,0c0.1-0.5,1.2-0.5,1.2,0
			c4.6,0,9.3,0,13.9,0c0.3-0.1,0.4,0.2,0.4,0.4c1.7,0,3.3,0,5,0c1.5,1.3,5.6,0.8,8.5,1.2c3.2,0.4,6.8,1,10,1.5
			c3.8,0.6,7.5,1.4,10.4,2.3c1.6,0.2,2.9,0.7,4.3,1.2c-0.2,1-0.5,1.8-1.2,2.3c-2.5,0.3-5.1-1-7.7-1.5c-2.7-0.5-5.4-1-8.1-1.5
			c-6-1.1-12.5-1.1-17.8-2.7c-1.3,0-2.6,0-3.9,0c-0.8-0.2-2.5,0.5-2.7-0.4c-2.3,0-4.6,0-7,0c-1,0-2.1,0-3.1,0c-2.6,0-5.2,0-7.7,0
			c-4.6,0.7-9.7,0.9-13.9,1.9c0.1-1-0.6-1.2-0.8-1.9C45.6,96.2,50.7,97.8,53.1,96.6z M45.4,88.8c1,0.3,3,2,4.2,3.1
			c1.3,1.1,2.3,1.3,2.7,3.5c-2.6-1.1-4.9-3.4-8.1-4.3c-1.8-0.5-4.3,0.4-5.4-1.5C40.1,88.1,43.1,88.1,45.4,88.8z"/>
		<path fill="#F7CC00" d="M31.9,82.6c0.2,0.6,0.6,0.9,1.2,1.2c1.2-0.5,1.6,1.9,3.1,2.3c0.6,0.2,1.5-0.3,1.6,0.4
			c4.4-1.4,8.8,0,11.6,1.5c1.5,0.8,2.4,2.4,3.5,1.9c0.8-2.7,1.6-5.3,3.1-7.4c-0.8-0.2,0.2-0.8,0.4-1.5H30.7
			C30.9,81.8,31.7,81.8,31.9,82.6z"/>
		<path fill="#F7CC00" d="M70.9,87.6c0.7-0.5,2-1.8,2.3-1.9c3.6-1.8,8.7-1.8,11.6,0c1.5,0.9,2,3.5,4.3,3.5c0.8-2.7,2.5-4.5,3.9-6.6
			c-1.8,0.7,0.5-0.4,0.4-1.5H64.3c1.8,2.2,3.2,4.9,4.2,8.1C69.5,89.1,70.1,88.2,70.9,87.6z"/>
		<path fill="#F7CC00" d="M101.8,97.7c0-3.9-0.5-7.2-1.9-9.7c-1.1-1.2-1.5-3.1-2.7-4.3c-0.1-0.5-0.1-0.9-0.8-0.8
			c-1.4,0.2-2.7,2.7-3.5,3.9c-0.9,1.4-1.1,2-1.5,3.5c-0.5,1.4-1.5,4-1.2,5.8C93.6,97.1,97.6,97.5,101.8,97.7z M96,86.9
			c3.6,0.9,2.6,8.1-0.4,8.9C93.7,93.6,94.4,88.8,96,86.9z"/>
		<path fill="#F7CC00" d="M113,95.8c-2.6-0.9-5.8,0.9-7,2.7c2.3,1.2,5.4,0.8,7.3-0.4c1.2,1.1,1.9,2.7,3.9,3.1
			C118.3,98.4,114.8,97,113,95.8z"/>
		<path fill="#F7CC00" d="M145.8,102.4c-0.6,2.6-1.4,5.1-1.5,7.7c-0.3,6.5,2.3,12.7,3.1,18.2c0.2,1,0.4,2.7,0.4,3.9
			c-0.1,4.5-2.4,7.9-3.1,11.6c-0.3,1.7-0.3,3.5-0.4,5c-0.1,1.9,0,3.9,0.4,5c0.9,3,2.5,6.1,2.7,8.9c0,0.6-0.3,1.6-0.4,2.3
			c-0.1,1,0.1,1.9,0,2.7c-0.6,4.5-3.2,8.8-3.9,13.2c-0.1,0.8,0,2-0.4,1.9c0.6,0.4,0.6,3.5,0,3.9c0.5,4.5,2.5,8.8,2.3,13.6
			c-0.2,3.9-2.6,7.4-1.9,10.8c2.2-0.2,2-3,2.3-4.3c1.1-4,1.6-7.9,0.8-12.4c-0.6-2.9-2.3-6-2.3-9.3c0-5.7,4-11.3,4.6-17.4
			c0.5-4.3-0.4-8.2-1.2-10.9c-0.4-1.3-1.3-2.8-1.5-4.3c-0.1-0.9,0.8-1.8,0-2.7c-0.6-0.5-0.6-3.7,0-4.3c0.3-4,2.6-7.5,3.1-11.6
			c0.9-7.3-2.7-14-3.1-20.9c-0.6-0.7-0.6-4,0-4.7c-0.3-2,0.5-2.8,0.4-4.6C146.1,103.3,146.4,102.4,145.8,102.4z"/>
		<path fill="#171717" d="M72.8,110.9c5.1-1,10.4-0.1,13.1,2.7c1.1-0.2-0.6-0.6-0.4-1.2c0-0.1,0-0.3,0-0.4c-2.2-1.2-5.2-3.3-8.9-3.5
			c-1.7-0.1-3.8,0.3-5.4,0.8c-1.5,0.4-3.3,0.6-3.9,1.9C68.8,113.4,71,111.2,72.8,110.9z"/>
		<path fill="#171717" d="M51.9,126.8c2.1,0.2,3.7-1.4,4.6-1.5c-0.6-2-2.1,1.1-3.5,0.8c-0.7,0.7-1.9-0.3-3.1-0.4
			C49.8,126.8,51.3,126.7,51.9,126.8z"/>
		<path fill="#171717" d="M52.3,140.3c-0.7,0.8-2,1.1-1.9,2.3c3.3-0.4,4.4-3.1,7.3-3.9c-0.1-1.2,0.4-3-1.2-2.7
			c-0.5,1.1-1.9,1.2-2.7,1.9C53.2,138.6,52.9,139.7,52.3,140.3z"/>
		<path fill="#171717" d="M69.3,140.3c-1.1-2.3-3-3.7-6.2-3.9c0,0.8,0,1.5,0,2.3c3.8,0.5,5.4,3.1,8.9,3.9
			C71.7,141.3,70.1,141.2,69.3,140.3z"/>
		<path fill="#F7CC00" d="M38,166.3c0.5-0.5,0.5-1.8,0-2.3c-2.3,0.1-1.9,3-4.2,3.1c-0.8-0.6-2-0.8-2.3-1.9c-1.2-1.5,1-2.8,1.2-4.3
			c-0.1-0.3-0.4-0.4-0.4-0.8c-1.9-0.1-2.1,1.5-3.1,2.3c-1.1,0.9-0.4,2.8,0,4.3C31.7,170.3,36.2,168.9,38,166.3z"/>
		<path fill="#F7CC00" d="M46.5,174.1c-2.4,1.1-4.6,2.4-4.6,5c0,2.4,2.7,4.8,5,4.7c1-0.1,3.5-1.7,3.9-2.3c0.4-0.7,1-2.5,0.4-3.5
			C50.6,175.7,48.8,174.7,46.5,174.1z M45.8,181.4c-4.5-3.5,4-8.5,3.1-1.2C49.2,181.8,46.6,182.4,45.8,181.4z"/>
		<path fill="#B32621" d="M115.7,186.1c1.8,0.8,3.2,1.2,5,1.9c1.1,0.4,1.9,1.1,2.7,1.2c0.7,0.1,2.7,0.6,2.3-0.8
			c-4.3,0.6-7.7-3.2-12-3.9C113.3,185.5,114.8,185.7,115.7,186.1z"/>
		<path fill="#F7CC00" d="M17.9,197.7c2.3-2.9,4.9-12.8-2.3-10.8c0,0.4-0.3,0.5-0.4,0.8c0.4,0.4-0.9,2.4-0.4,4.3
			C15.3,194.2,16.2,197.2,17.9,197.7z"/>
		<path fill="#F7CC00" d="M16,198.1c0.4-1.2-0.8-1.4-1.2-1.9c-0.5-0.7-0.9-1.4-1.5-1.9c-0.6-0.1-1.1,0-1.6,0v4.7
			C13.5,199,15.2,199.3,16,198.1z"/>
		<path fill="#F7CC00" d="M19.1,198.5c1.9,0.7,4.9,0.3,6.2,1.6c0.1-0.6,0.9-0.4,1.5-0.4c1-1-2.2-2.5-1.2-3.5
			C24.2,193.2,18.4,194.7,19.1,198.5z"/>
		<path fill="#B32621" d="M113,196.5c3.3,1.2,6.7,2.3,8.9,4.3c0.8,0.9,0.4,3-0.8,3.1c-1.3,0.5-2.7-0.9-3.1,0c0.9,0.5,1.9,1,3.5,0.8
			c0.6-1.2,1.7-1.9,1.5-3.9c-1.4-1.7-3.7-2.6-5.8-3.5c-2.1-0.9-4.5-1.9-7-2.3C110.4,196.3,112,196.2,113,196.5z"/>
		<path fill="#F7CC00" d="M16,199.3c-0.4,0.4-1.5,2.1-0.4,2.7c0.9,0.8,3.3,0.5,3.9-0.4c0.1,0,0.3,0,0.4,0
			C19.7,199.7,18.3,199,16,199.3z"/>
		<path fill="#F7CC00" d="M92.5,203.5c-0.1,0-0.3,0-0.4,0c-3,0.9-7.7,0.2-10.4-0.4c-0.9,0.2-2.8-0.5-3.1,0.4c0.5,0,1,0,1.5,0
			c-1.1,0.7,1.2,1.7,0,2.3c0,0.1,0,0.3,0,0.4c1.1,0.3-0.2,1.2,0,1.9c1.5,0.3,1.8-0.5,3.1-0.4c0,0.1,0,0.3,0,0.4
			c1.3,0.1,0.8,2.5,0,2.7c-0.6-0.2-1-0.6-1.5-0.8c0.1,0.8-1.4,0.2-1.9,0.4c-0.1,0.7,0.4,0.9,0.4,1.5c0.3,1.7-0.7,2.2-1.2,3.1
			c0.9-0.8,0.9,0.2,0,0.4c1.4,1.3,6.1-0.7,7,1.2c2.1-0.2,5.1,0.5,6.6-0.4c-0.2-0.4-0.4-0.7-0.7-1.6c0-0.1-0.1-0.2-0.1-0.3
			c-0.4-1,1.2-1.8,0-2.3c-0.9,0.9-3.7,0.3-3.9-0.8c0-0.6,0-1.3,0-1.9c-1.2-3,4.6-0.9,4.3-3.1c0.2,0,0.5-0.1,0.4-0.4
			c-0.7-2,4.4-1.9,4.6,0.4c0.2,1.4-0.5,1.9-0.8,2.7c2.2,0.4,2.4-1.2,3.5-1.9c0.6-0.4,0.4-1.6,0.8-2.3
			C99.3,202.9,94.4,204.7,92.5,203.5z"/>
		<path fill="#F7CC00" d="M37.6,227.6c-3.7-2.3-9.3-2.8-14.3-3.9c0-1.2,0-2.3,0-3.5c-0.6-1.1-0.6-4.8,0-5.8
			c-0.2-3.1,0.5-7.2-0.4-9.7c-3.1-1-8.1-1.8-11.3-0.8V233c0.7-0.2,1.4-0.3,2-0.3c0.8,0,1.7,0.4,2.5,0.6h20.5
			C37.5,231.5,38,229.5,37.6,227.6z"/>
		<path fill="#F7CC00" d="M36.9,223.7c-1.5,0.7-4-0.9-5.4-1.5c-0.8-0.8-2.9-0.5-3.5-1.6c-0.1-4.4-0.5-7.5-0.4-13.6
			c-1-0.4-1.3-1.5-2.7-1.5c0,0.7-0.1,1.2-0.4,1.5c0.6,2.5,0.6,7.6,0,10.1c0,0.4,0,0.8,0,1.2c1.1,0.8-0.5,4.3,1.2,4.6
			c1.6,0.6,4.4,1,6.6,1.6c2.1,0.5,4.1,1.5,5.8,1.2C37.9,224.7,37.6,223.9,36.9,223.7z"/>
		<path fill="#F7CC00" d="M53.1,215.5c-1.5-2.6-3.1-5.1-6.6-5.8c-0.1,1.6,1,2.1,0.8,3.9c-0.4,1.6-3.6,2.2-4.2,0.4
			c-0.5-1.6,0.9-3.2,0-3.9c-0.6,0.7-1.7,0.8-3.1,0.8c-0.8,1.3-1.1-1.2-2.3-0.8c-0.7,1.7,0.4,3.7,0,6.2c0.1,0,0.3,0,0.4,0
			c1.3,0,2.6,0,3.9,0C44.8,215.3,50.1,216.5,53.1,215.5z"/>
		<path fill="#F7CC00" d="M96.4,215.9c0,0.4-0.5,0.3-0.8,0.4c0,0.1,0,0.3,0,0.4c1.5,0.2,2.2-0.3,3.1-0.8c0-1.5,0-3.1,0-4.6
			c-1.3,0-1.5-1.1-3.1-0.8c-0.1,1.5,1.6,2.8,0.4,4.3C97.2,214.6,95,215.9,96.4,215.9z"/>
		<path fill="#F7CC00" d="M133.8,216.3c0,0,0.1-0.6,0.4-0.4c0-0.2-0.1-0.5-0.4-0.4c-1.4-1.1,1.6-0.9,1.2-2.3
			c-0.5-0.2-0.9-0.4-1.2-0.8c-5,3.9,2.7,6.4,6.6,4.6c-1.1-0.5,3.3-0.7,3.5,0c1.9,0,3.9,0,5.8,0c0.4-0.6,3.4-0.6,3.9,0
			c0.6,0.9,3.3-0.8,3.5-1.9c0.1-0.9,0.2-2.4-1.9-2.3c-1.3,1.1,1,1.9,0,2.7c-0.3,0-0.5,0-0.8,0c-0.1,0.4-0.6,0.4-1.2,0.4
			c-1.9-1.4-3.6-3-6.6-3.5c-0.9-0.1-2.1,0.4-3.1-0.4c-0.7,0.6-2.2,0.4-2.7,1.2C139.3,214.4,136.4,217.1,133.8,216.3z"/>
		<path fill="#B32621" d="M104.1,226.4c0.1,3.8,5.5,3.3,8.5,3.1c2.2-0.1,4.2,0.7,5.8-0.4c-2.2-0.2-5.2-0.4-7.7-0.4
			c-1.1,0-1.9,0.6-2.7,0.4c-1.5-0.4-3.2-1.5-3.1-3.1c0.3-4.7,9.5-1,13.9-2.7C113.5,222.9,104,221.3,104.1,226.4z"/>
		<path fill="#F7CC00" d="M119.1,233c-0.1,0-0.3,0-0.4,0c-0.2,0.1-0.3,0.2-0.5,0.3h5.7C122.4,233,121,232.8,119.1,233z"/>
		<path fill="#F7CC00" d="M103.7,93.1c1.8,0,2.8-1.8,4.3-2.3c6.1-2.4,11.6,0.9,12.7,6.6c0.8-1.2,1-3.1,2.3-3.9
			c2.7-4.1,5.6-8.1,8.5-12c-0.1-0.2-0.3-0.3-0.5-0.3h-24.8c-0.1,0-0.3,0-0.4,0h-5.9c-0.4,0.1-0.9,0.2-1.2,0.3
			C100.7,84.9,103.1,88.1,103.7,93.1z"/>
		<path fill="#F7CC00" d="M58.5,82.6c-2.2,3.3-4.1,6.8-3.9,12.4c0.7,0.5,3.6,0.7,4.3,0c2-1.1,6.5,0.3,8.5-0.8
			c-0.1-2.9-1.3-4.7-1.9-7c-1.5-1-1.7-3.4-3.5-4.2c0-0.1,0-0.3,0-0.4s0-0.3,0-0.4c-0.8-0.2-1.2-0.7-1.8-1.1H60
			C59.4,81.5,59.4,82.5,58.5,82.6z M61.2,84.9c2.2,1.7,2.3,6,0.8,8.5c-3.8-0.5-3.1-5.4-1.9-8.1C60.4,85.1,60.7,84.9,61.2,84.9z"/>
		<path fill="#F7CC00" d="M49.2,95.4c-1.4-2-4.3-2.4-6.6-3.5c0-0.2-0.1-0.5-0.4-0.4c0,0.4-0.5,0.3-0.8,0.4c-0.2,1.9,1.5,1.8,1.9,3.1
			c0.4,0.7,1.4,0.7,1.9,1.2C45.9,95.2,48.6,96.4,49.2,95.4z"/>
		<path fill="#F7CC00" d="M44.6,98.9c0.2,0.7,0.8,1,0.8,1.9c4.2-1.1,9.3-1.2,13.9-1.9c1.7-0.6,6-0.6,7.7,0c1,0,2.1,0,3.1,0
			c1.4-0.6,5.5-0.6,7,0c0.2,0.9,1.9,0.2,2.7,0.4c0.4-0.6,3.5-0.6,3.9,0c5.2,1.6,11.8,1.6,17.8,2.7c2.7,0.5,5.4,1,8.1,1.5
			c2.6,0.5,5.2,1.9,7.7,1.5c-0.1,0-0.3,0-0.4,0c0.3-0.7,0.9-1.1,1.2-1.9c-1-0.8-3-0.6-3.9-1.5c-3-0.9-6.7-1.7-10.4-2.3
			c-3.2-0.5-6.9-1.2-10-1.5c-2.9-0.3-7,0.1-8.5-1.2c-0.8,0.6-4.2,0.6-5,0c0-0.2-0.1-0.5-0.4-0.4c-2.7,0.6-8.1,0.5-11.2,0.4
			c-1,0-3.9,0.2-2.7-0.4c0-0.5-1.1-0.5-1.2,0c1.2,0.5-4.3,0.7-4.6,0c-1,0.2-3.1-0.5-3.5,0.4c1.1,0.5-3.3,0.7-3.5,0
			C50.7,97.8,45.6,96.2,44.6,98.9z"/>
		<path fill="#171717" d="M70.1,124.1c1.8,1.4,6.7,2.5,8.5,0.4C75.3,125,71.9,123.6,70.1,124.1z"/>
		<path fill="#171717" d="M63.9,146.6c-1.2,0.9-4,0.1-5.8,0.4c0.6,2.3,3.1,0.4,5,1.2C63.3,147.6,65.2,147.1,63.9,146.6z"/>
		<path fill="#171717" d="M83.6,162.1c2.9,1.2,4.3-0.7,5.4-1.5c0.6-3.8-1.1-5.3-4.3-5.4c-0.8,0.4-1.6,3.7,0.4,3.5
			c-0.2-0.8-0.9-2.5,0.4-2.7c3.7,0.2,3.1,5.4,0,5.8c-1.3-0.6-2.6-1.3-3.9-1.9C81.7,160.5,82.6,161.6,83.6,162.1z"/>
		<path fill="#171717" d="M54.3,174.5c-1.6-2.7-5.2-4.9-9.3-4.3c-3.3,0.5-6.7,4.2-7,8.1c-0.5,7,6,11.2,12,8.5
			C54.7,184.8,56.5,178.3,54.3,174.5z M50.8,181.4c-0.4,0.6-2.8,2.3-3.9,2.3c-2.3,0.1-5-2.3-5-4.7c0-2.7,2.3-3.9,4.6-5
			c2.8,0.1,4.4,1.3,4.6,3.9C51.8,179,51.2,180.8,50.8,181.4z"/>
		<path fill="#171717" d="M58.9,191.9c-0.4-0.9-2.4-2.3-3.9-2.3c-0.3,0-0.9-0.1-1.2,0c-5.6,1.6-4.5,10.4,1.2,10.1
			C58.2,199.5,60.4,194.9,58.9,191.9z M53.9,196.5c-1.5-1.2-0.9-4.3,1.9-3.5c0.2,0.7,0.8,1,0.8,1.9c0.1,0.3-0.2,0.4-0.4,0.4
			C55.9,196.2,55.2,196.8,53.9,196.5z"/>
		<path fill="#F7CC00" d="M56.2,194.2c-0.5,0.4-0.8,1-1.2,1.6c0.1-1.4-1.5,0.5-1.2-1.9c-1.7,1.8,1.4,3.3,2.3,1.5
			c0.2,0,0.5-0.1,0.4-0.4C56.2,195,56.3,194.5,56.2,194.2z"/>
		<path fill="#F7CC00" d="M73.6,207c0,0.2,0.1,0.5,0.4,0.4c-0.2-0.7,0.9-0.1,0.8,0c0.8-0.5,0.8-3.2,0.8-3.5c0-0.1,0-0.3,0-0.4
			c-1,0-2.1,0-3.1,0c-0.2,0.9-1.9,0.2-2.7,0.4c-0.2,1.1,0.5,3.1-0.4,3.5c0,0.2,0.1,0.5,0.4,0.4C70.7,208.9,72,205.4,73.6,207z"/>
		<path fill="#171717" d="M60.8,204.7c-3.4-5.6-7.2,4.3-1.5,2.7C60.1,207.2,60.7,206.4,60.8,204.7z"/>
		<path fill="#F7CC00" d="M75.5,215.9c1.1-0.3-0.8-1.7,0.8-0.8c-0.4-0.5-0.6-1.2-1.2-1.6c-0.8,0.1-0.2-1.4-0.4-1.9
			c-0.5,0-0.5,0.5-1.2,0.4c0-0.1,0-0.3,0-0.4c-0.4,0-0.8,0-1.2,0c-0.4,1.1-1.4-0.4-1.9-0.4c-0.2,1.2,0.5,3.3-0.4,3.9
			c0,0.2,0.1,0.5,0.4,0.4C71.5,216.3,73.9,215.8,75.5,215.9z"/>
		<path fill="#F7CC00" d="M85.1,95c-0.9-1.7-2.8-2.4-4.2-3.5c-1.8-1-5.1-0.2-6.2,0.8C74,93,73,93.4,72.4,94.2c0,0.6,1.1,0.2,1.2,0.8
			c2.9,0.4,3.9-1,5.4-1.9c1.2,0.8,2,2.1,3.9,2.3C82.9,94.5,84.5,95.2,85.1,95z"/>
		<path fill="#171717" d="M80.9,120.2c1.1,0.1,0.5,1.8,1.9,1.6c1-0.3-0.7-1-0.4-1.9c0.9,0,1.8,0,2.7,0c0.2-1.2-1-0.7-1.5-1.2
			c-0.5-0.4-0.9-1.6-1.5-1.9c-0.7-0.3-1.8-0.7-2.7-1.5c-0.2-0.2-2.4-1-3.5-1.2c-2.1-0.3-4.3,0.4-7,0.4c-0.5,0.2,0.3,1.5-0.4,2.3
			c0.1,0.5,0.7,0.3,1.2,0.4c0,1.7-1.9,1.4-1.9,3.1c-0.1,0-0.3,0-0.4,0c0,0.1,0,0.3,0,0.4C69.8,121,78.1,122.6,80.9,120.2z M77,120.6
			c-0.4-2.5,2.2-2.8,3.5-1.6C80,120.2,78.7,120.6,77,120.6z M77,114.8c0.8,0.2,1.2,0.8,1.9,1.2c1.2,0.7,3,1.2,2.7,2.3
			c-3.6-0.8-6.3-2.5-10.8-2.3C71.2,114.4,75,114.3,77,114.8z M71.2,117.1c0.9,0.6,0.8,2.1,1.9,2.3c2,0.4,1.6-1.8,3.1-1.9
			C77.9,121.5,69.3,121.3,71.2,117.1z"/>
		<path fill="#171717" d="M62,93.5c1.6-2.5,1.5-6.9-0.8-8.5c-0.5,0-0.9,0.2-1.2,0.4C58.8,88.1,58.1,93,62,93.5z M60.4,86.5
			c2.3,0.1,1.6,4.2,1.2,5.8C59.3,92.2,60,88.1,60.4,86.5z"/>
		<path fill="#171717" d="M63.9,131.8c0.5,0.8,0.5,2.1,1.5,2.3c1,0.1,1.2-0.6,1.9-0.8c0-0.8,0-1.6,0-2.3c0-0.1,0-0.3,0-0.4
			c-0.7-0.3-0.6-1.4-1.5-1.5c-0.1,1.1,0.9,1.2,0.8,2.3c0,0.3,0,0.5,0,0.8c0,0.1,0,0.8,0,0.8c-2.3-0.1-1.3-1.1-2.3-1.9
			c-0.3-0.3-1,0-1.2-0.4c-0.7,0.1-1.3,0.3-1.5,0.8C61.6,132.3,63.2,131.6,63.9,131.8z"/>
		<path fill="#171717" d="M53.5,145c1.7,1.1,3.6-0.3,5-0.8c1.7,0.9,4.1-0.1,6.2,0c1.8,0.1,4.5,2.3,5-0.4c-0.9-0.9-1.2,0.7-2.7,0.4
			c-1.3-0.8-1.9-2.3-3.5-2.7s-3.5,0.7-5.4,0C56.5,142.6,55.9,144.8,53.5,145z"/>
	</g>
</g>
</svg>
