<?xml version="1.0" encoding="utf-8"?>
<!-- Generator: Adobe Illustrator 19.2.0, SVG Export Plug-In . SVG Version: 6.00 Build 0)  -->
<svg version="1.1" baseProfile="tiny" id="Layer_1" xmlns="http://www.w3.org/2000/svg" xmlns:xlink="http://www.w3.org/1999/xlink"
	 x="0px" y="0px" viewBox="0 0 170 244" xml:space="preserve">
<metadata><?xpacket begin="﻿" id="W5M0MpCehiHzreSzNTczkc9d"?>
<x:xmpmeta xmlns:x="adobe:ns:meta/" x:xmptk="Adobe XMP Core 5.6-c111 79.158366, 2015/09/25-01:12:00        ">
   <rdf:RDF xmlns:rdf="http://www.w3.org/1999/02/22-rdf-syntax-ns#">
      <rdf:Description rdf:about=""/>
   </rdf:RDF>
</x:xmpmeta>                         
<?xpacket end="w"?></metadata>
<g id="Layer_6">
	<path fill="#FFFFFF" d="M16.8,0.3H153c9.4,0,17,7.6,17,17.1V227c0,9.4-7.6,17.1-17,17.1H16.8c-9.4,0-17-7.6-17-17.1V17.3
		C-0.2,7.9,7.4,0.3,16.8,0.3z"/>
	<path fill="#C80813" d="M74,71.8c0,0,3.1-7.8,10.5-16.1C92,47.4,97.9,43,97.9,43s-7.8-4.7-13.2-12c-5.4-7.3-10.5-16.6-10.5-16.6
		s-4.5,8.9-10.9,16.5C57.5,37.9,50.6,43,50.6,43s5.9,4.4,13.3,12.7C71.4,64,74,71.8,74,71.8z"/>
	<polygon fill="#C80813" points="43.3,63.3 34.4,36.9 43.9,21.6 48.8,21.6 48.8,16.3 32.6,16.3 32.6,21.6 37.6,21.6 22,46.7 
		22,21.3 26.7,21.3 26.7,16 10.4,16 10.4,21.3 16.7,21.3 16.7,63.3 10.4,63.3 10.4,68.7 26.7,68.7 26.7,63.3 22,63.3 22,56.8 
		30.7,42.8 37.7,63.3 32.8,63.3 32.8,68.7 49.1,68.7 49.1,63.3 	"/>
	<g>
		<path fill="none" d="M112.8,232.2c2.8-1.1,5.6-3.6,8.2-5.5c0.1,0.3,0,0.8,0.4,0.8c0-1.8,1.4-2.2,2.3-3.1c0.1-0.5,0.7-0.6,0.8-1.2
			c-1-0.3,1.8-2,0.8-2.3c-3.2,4.8-7.5,8.6-12.8,11.3C112.5,232.7,112.6,232.3,112.8,232.2z"/>
		<path fill="none" d="M101.2,230.6c1-0.3,1.6,1.7,2.3,0.4c-0.5-1-1.8-1.3-1.9-2.7c1.1-0.3,1,0.6,1.9,0.4c-0.1-1.5-1.6-1.5-1.9-2.7
			c1-1,1.2,0.5,2.3,0.4c0-1.8-2.2-1.4-1.9-3.5c0.7-1.2,1.5,1.4,2.3,0c-0.6-0.9-2.1-1-1.9-2.7c1.1-0.3,1,0.6,1.9,0.4
			c0.4-1.8-1.6-1.3-1.2-3.1c1.2-0.3,0.7,1.1,1.9,0.8c-0.1-1.6-1.7-1.7-1.6-3.5c0.7-0.1,0.9,0.4,1.6,0.4c0.1-1.2-2-2.1-0.8-3.1
			c0.8,0.1,0.8,1.1,1.6,1.2c0.6-2.1-2.2-2.7-0.8-4.3c0.7,0,1.3,2,1.9,0.8c-0.3-1.1-2.1-2.8-1.2-3.9c0.8,0.1,0.8,1.1,1.6,1.2
			c0.5-2-2.5-3.1-0.4-4.3c0.6,0.6,0.3,2,1.6,1.9c0.1-1.9-1.5-2.1-1.2-4.3c0.8,0.1,0.8,1,1.6,1.2c0.3-1.4-1.7-2.7-0.4-3.9
			c0.8,0,0.5,1.1,1.6,0.8c-0.2-1.4-1-2.1-1.2-3.5c0.4,0,0.5-0.3,0.8-0.4c1-0.1,0.3,1.5,1.6,1.2c0.2-1.6-2-3.6-0.4-4.3
			c0.5,0.6,0.3,1.7,1.6,1.6c0.2-1.7-1.9-3-0.8-4.3c0.8,0.1,0.8,1.1,1.6,1.2c0.1-1.5-0.9-2-0.8-3.5c0.9,0.1,0.7,1.4,1.9,1.2
			c0.1-1.4-2-2.6-0.8-3.9c1.5-0.4,0.6,1.5,1.9,1.2c0.2-1.9-2.2-3.1-0.4-4.3c0.8,0.1,0.8,1.1,1.6,1.2c0-1.3-1.4-2.4-0.4-3.5
			c0.8,0,0.5,1.1,1.5,0.8c0-1.3-0.7-1.9-0.4-3.5c0.9,0.1,0.7,1.4,1.9,1.2c0.1-1.7-1.6-3,0-3.9c1.2-0.3,0.5,1.3,1.6,1.2
			c0.1-1.6-1.1-3.3,0.4-3.5c0.1,0,0.5,1.2,1.2,0.8c0.2-1-1.1-2.4,0-3.1c0.6,0.1,0.7,0.6,1.2,0.8c-0.1-2-0.8-4.2,1.6-3.1
			c-0.2-0.9-0.9-2.5,0.4-2.7c0.7,0.3,1.2,1.3,1.6,0c-0.6-0.3-0.6-1.3-0.8-1.9c0.4,0,0.5-0.3,0.8-0.4c0.6,0.1,0.7,0.6,1.2,0.8
			c0.1-1.6-0.7-2.2-0.4-3.9c-3.8-1.8-6.6-4.5-11.3-5.5c-1.8,1.4,0.6,7.1-2.3,7.4c-3-1.8-0.2-5.9,0.4-8.6c-0.9,0.2-0.8-0.7-1.9-0.4
			c-1.3,5.3-7,6.2-10.1,9.7c1,0.5,1.6-1.1,1.9,0c0.1,2.1-2.8,1.3-3.1,3.1c0.7,0.4,1.3-1.2,1.6,0c0,1.6-2.6,0.8-2.7,2.3
			c0.6,0.1,1.4-0.1,1.5,0.4c-0.4,1.5-3.1,0.8-3.1,2.7c0.7,0.2,1.6-1.1,1.9,0c-0.4,1.8-3.2,1.2-3.5,3.1c1.2,0.1,1.9-1.5,2.3,0
			c-0.2,1.9-3,1.1-3.1,3.1c0.9-0.1,1.7-0.8,1.9,0.4c-0.8,1-2.8,1.1-3.1,2.3c0.6,0.2,2-0.5,1.9,0.4c-0.1,2-3.1,1-3.1,3.1
			c1,0.5,1.6-1.1,1.9,0c0.1,1.8-4.1,1.3-2.7,3.1c-0.3-0.6,1.8-0.6,1.6,0c0,1.7-3.9,1.6-2.7,3.1c-0.3-0.6,1.8-0.6,1.6,0
			c0,1.8-2.5,1.2-2.7,2.7c1,0.5,1.6-1.1,1.9,0c-0.1,1.6-2.1,1.3-2.3,2.7c0.6,0.1,1.4-0.1,1.6,0.4c-0.3,1.2-1.8,1.3-2.3,2.3
			c2.7,0.1-0.1,2-0.4,2.7c0.5,0.1,1.1-0.1,1.2,0.4c-0.3,1.4-2.3,1.1-2.3,2.7c1-0.1,1.2-0.7,1.5,0.4c-0.8,0.5-1.5,1.1-1.9,1.9
			c0.6,0.1,1.4-0.1,1.6,0.4c-0.1,1.2-3.1,1.5-1.9,2.7c0-0.5,1.1-0.5,1.2,0c0.2,1.6-1.7,1.2-1.9,2.3c0.6,0.1,1.4-0.1,1.6,0.4
			c0.7,2-2.9,1.7-1.6,3.1c0-1,1.3-0.1,1.2,0.4c-0.3,1.2-2,1.1-2.3,2.3c0.6,0.1,1.4-0.1,1.6,0.4c0.4,1.6-2.9,1.5-1.6,2.7
			c0-0.5,1.1-0.5,1.2,0c0.2,1.8-2.1,1-1.9,2.7c0.7,0.4,1.3-1.2,1.6,0c0.2,1.8-2.1,1-1.9,2.7c0.9-0.1,1.7-0.8,1.9,0.4
			c-0.8,0.7-1.9,0.9-2.3,1.9c1,0.5,1.6-1.1,1.9,0c0.2,1.8-3,2.2-1.9,3.5c-0.3-0.6,1.8-0.6,1.6,0c-0.8,0.6-1.8,1-1.9,2.3
			c0.7,0.2,1.6-1.1,1.9,0c-0.1,0.5-0.5,0.8-0.9,1h3.8c0.2-1.3,0.5-2.6,1.4-2.6c1.3,0,1.5,1.2,1.6,2.6h9.3c0-0.1,0-0.2,0-0.3
			c0.5-0.2,1,0,1.4,0.3h1.2C102.6,232.4,101.3,232.1,101.2,230.6z M113.6,168.4c1-1.8,2.5-5.7,5.4-5.4c0.3,0.3,0.4,0.9,0.4,1.6
			c0.2,0.5-0.3,0.6-0.4,0.8c-1.6,2.7-2.2,6.4-4.3,8.6C112,173.6,112.2,170.8,113.6,168.4z M107.8,189c-0.5,2-0.2,5.5-3.5,4.7
			c-2-3.9,2-7.6,3.1-10.9c0.5,0,1,0,1.6,0C109.6,184.3,108.4,186.8,107.8,189z M102.7,172.7c0.4-0.8,1-1.1,1.6-1.9
			c0.3-0.4,0.1-0.9,0.4-1.2c1.2-1.2,2.8-2.8,4.3-1.6c0,0.6,0.1,1.1-0.4,1.2c0.2,0.5-0.2,0.6-0.4,0.8c-1.9,2.5-2.2,6.6-4.7,8.6
			c-0.3-0.2-0.6-0.4-1.2-0.4C101.3,176.2,101.9,174.3,102.7,172.7z M92.2,206.1c0-2.1,0.6-4,1.2-5.8c0.2-0.7,0.4-1.9,0.8-2.7
			c0.2-0.5,0.8-1.7,1.6-1.6c2.6,0,0.5,3.4,0.4,5.8c-0.1,2.1,0.9,4.5-0.8,5.8c-0.6,0-1.3,0-1.9,0C93,207.2,92.8,206.5,92.2,206.1z
			 M98.8,225.2c-2,0.3-3-0.3-3.9-1.2c-0.2-3.3,1.1-4.8,2.3-7c0.3-0.5,0.4-1.4,1.2-1.6c-0.1-0.5,0.1-0.7,0.4-0.8
			c0.6-0.1,0.7,0.4,1.2,0.4C99.1,217.9,99.4,222,98.8,225.2z"/>
		<path fill="none" d="M120.2,233.2h1.7C121.4,232.9,120.8,232.8,120.2,233.2z"/>
		<path fill="none" d="M132.2,233.2h0.4c0.5-1,1.6-2.6,1.5-3.4C133.5,231,132.9,232.1,132.2,233.2z"/>
		<path fill="none" d="M51.5,231.8c0-0.6-1.1-0.2-1.2-0.8c0.1-0.8,1.1-0.8,1.2-1.6c-2-0.3-0.4-0.9-0.4-1.9c0-0.1-0.7-0.5-0.8-0.8
			c0-0.4,0.4-0.6,0.4-1.2c0.1-0.9-0.9-1.4-0.8-2.3c0.5,0,1,0,1.6,0c0.3-1.6-1.9-0.7-1.6-2.3c0.4,0,0.3-0.5-0.4-0.4
			c0,0.8,0,1.6,0,2.3c-2,1.8-6.3,1.4-9.7,1.9c-0.5,2.4-0.6,5.3-3.1,5.8c-1.6-0.6-0.4-4-0.8-5.8c-1.7-0.9-3.7-0.2-4.3,1.2
			c0.8,0.1,2.8,2.5,0.4,2.3c0.1,1.6,2.2,1.2,1.9,3.1c-0.6,0.2-2-0.5-1.9,0.4c0.7,0.4,1.6,0.7,2,1.4h16.3
			C50.8,232.8,51.5,232.7,51.5,231.8z"/>
		<path fill="none" d="M81,231.4c-1.3,0.2-2.1,0.9-2.6,1.8h0.1c0.8-0.5,1.2-1.4,2.5-1.4c0.2,0.7,0.1,1.1-0.1,1.4h0.4
			C81.5,232.6,81.4,231.8,81,231.4z"/>
		<path fill="none" d="M54.6,230.6c-0.2,1.5,0.9,1.7,1.9,1.9c-0.1-0.9-1.8-0.2-1.6-1.6c2.5-0.1,3.8,1,5,2.2h0.5
			C59.2,231.7,57.5,230.5,54.6,230.6z"/>
		<path fill="none" d="M71.7,231c-2.5-1-5.1,0.3-6.2,1.2c-0.4,0.3-0.8,0.6-1.1,1h0.4C66.2,231.4,69.4,231,71.7,231z"/>
		<path fill="none" d="M72.1,231.4c0.8,0.5,1.6,1.1,2.2,1.8h0.6C74.2,232.4,73.1,231.9,72.1,231.4z"/>
		<path fill="none" d="M68.6,233c-0.7-0.6-1.4-0.3-2,0.3h0.5C67.5,233,68,232.9,68.6,233z"/>
		<path fill="none" d="M112,232.6c-0.5,0.2-0.9,0.4-1.4,0.6h0.9C111.7,233.1,111.9,232.9,112,232.6z"/>
		<path fill="none" d="M138.4,219.7c0.2,3-3.5,2.1-3.1,5.4C135.4,222.7,139.5,222.1,138.4,219.7z"/>
		<path fill="none" d="M148.1,160.6c-0.2-0.1-0.3-0.5-0.4-0.8c-1.6-1.2-3.1-2.3-4.7-3.5C144.2,157.6,147.2,160,148.1,160.6z"/>
		<path fill="none" d="M139.6,233c0.4-0.6,0.4-1.4,0.8-1.9c0.1-0.2,0.6-0.2,0.8-0.4c0.3-0.3,0.1-0.8,0.4-1.2c4.7-7,8-16.9,8.5-26.8
			c0.1-2,0.1-4,0-5.8c-0.5-6.8-2.8-15.4-5.4-21c-0.4-0.8-0.8-1.2-1.2-1.9c-0.7-1.4-1.1-3-1.9-4.3c-0.1-0.2-0.6-0.2-0.8-0.4
			c-0.3-0.3-0.2-0.9-0.4-1.2c-0.4-0.5-1.2-1-1.6-1.6c-0.2-0.3-0.2-0.9-0.4-1.2c-1.6-2.6-3.5-3.6-5.8-5.4c-0.4,0-0.8,0-1.2,0
			c0.2,1.8,1.8,2.8,2.7,3.9c2.8,3.3,5,6.8,7,10.9c3.6,7.4,6.6,17.6,6.2,27.2c-0.3,7.6-2.1,15.4-5.4,21.8c-1.4,2.8-3.5,5.6-5.4,8.2
			c-0.4,0.5-0.7,1-1.1,1.4h3.9C139.4,233.2,139.5,233.1,139.6,233z"/>
		<path fill="none" d="M140.4,154.8c0.8,0.2,1.9,1.9,2.3,1.2c-1.6-1-2.9-2.3-4.7-3.1C138.4,153.9,139.8,153.9,140.4,154.8z"/>
		<path fill="none" d="M126.8,146.6c3.4,1.7,5.1,5.1,8.2,7.8c0.5-0.4,1.4-0.4,1.6-1.2c-1.6,0.7-1,0.9-1.9,0
			c-0.3-0.2-0.9-0.1-1.2-0.4c-0.3-0.3-0.4-1.1-0.8-1.6c-0.7-0.7-1.6-1.4-1.9-1.9c-1.1-1.7-2.3-2.3-3.9-3.1c-1.2-0.6-2-0.8-3.1-1.2
			c-1-0.3-1.7-1.6-3.1-1.6c0.6,0.7,1.3,0.9,1.9,1.2C124.2,145.4,125.1,145.8,126.8,146.6z"/>
		<path fill="none" d="M141.1,192.1c1.5-0.3,2.2-1.4,2.3-3.1c-0.7,1.2-1.1,2.8-2.7,3.1c0.1,1.4,1.4,1.5,1.6,2.7
			C143.3,194.1,141,193.4,141.1,192.1z"/>
		<path fill="none" d="M135.7,168.8c-0.4-0.7-1-1.3-1.6-1.9c0.2,0.9,0.6,1.8,0.4,3.1C135.4,169.8,134.5,167.5,135.7,168.8z"/>
		<path fill="none" d="M140,182c-1.2-1.3-2.3-2.6-3.1-3.5c0.7,2.2,2.9,2.8,3.9,4.7C142.8,184.3,141.1,183.2,140,182z"/>
		<path fill="none" d="M143.1,215.1c0.1,0.3,0,0.8,0.4,0.8c-0.1-1.9,0.9-2.7,0.8-4.7c-0.6-0.1-0.1-1.2-0.8-1.2
			c0.1,3.2-0.8,5.5-2.7,6.6C141.4,217.5,142.1,215.2,143.1,215.1z"/>
		<path fill="none" d="M145.8,202.6c0-1.3,0-2.6,0-3.9C145.2,199.2,145.2,202.2,145.8,202.6z"/>
		<path fill="none" d="M11.3,148.3v0.4c2.9-1.1,5.9-2,8.3-3.2C16.7,146.2,14,147.2,11.3,148.3z"/>
		<path fill="none" d="M13,145c4.6-1.8,8.8-3,14-3.5c0.7-1.1-0.8-1.6-1.2-2.3c-1.6-3.5-0.2-7,3.1-7.4c1.6-0.2,3,0.4,4.7,1.2
			c0-1.6,0-3.1,0-4.7c0-0.1,0-0.3,0-0.4c0.9-0.3,0.2-2.2,0.4-3.1c-4.1,2.3-7.9-3.2-4.7-5.8c0.5-0.5,1.7-0.4,2.7-0.4
			c0.7-0.1,1.5,2.2,1.6,0.4c2.2-3,3.3-8.8,3.9-13.2c1.2-9.1,0.7-18.7-3-24.5H11.3V146c0.2,0,0.4-0.1,0.6-0.2
			C12.2,145.7,12.7,145.2,13,145z"/>
		<path fill="none" d="M24.7,153.2c0.5,0.8,3.3,2.6,3.9,2.7c4.7,1.1,7.4-1.5,8.9-3.1c0.3-0.3,0.1-0.5,0.4-0.8
			c0.6-0.8,1.6-1.3,1.9-1.9c0.7-1.2,0.3-3.1,1.6-3.5c-0.8,6.6-4.8,9.9-11.3,10.9c0.8,0.7,2.8,0.3,4.3,0.4c1.4-0.8,2.3-1.7,3.5-2.7
			c0.1-0.1,0.6,0.1,0.8,0c0.1-0.1-0.1-0.6,0-0.8c0.8-0.9,1.8-1.4,2.3-2.3c0.8-1.2,0.6-2.9,1.9-3.9c0.6,1.4-0.5,3-1.2,4.3
			c-1.5,2.8-3.8,4.7-6.2,6.2c1.1,0.6,2.2-0.4,2.7-0.8c0.3-0.2,0.8-0.1,1.2-0.4c2.5-1.8,3.5-5.6,5.4-7.8c-0.3,4.7-3.3,6.6-5.4,9.3
			c1,0.2,1.7-0.7,2.3-1.2c1.6-1.4,2.1-2.8,3.1-4.7c0.4-0.8,0.8-1.9,1.6-2.3c0.9,1.3-0.6,2.6-1.2,3.9c-0.2,0.3,0.1,0.8,0,1.2
			c-0.3,0.8-2.5,1.7-1.6,2.3c1.3-0.6,1.5-1.9,2.3-3.1c0.7-1.1,1.2-2.7,2.3-3.1c0.5,2.3-2.3,3.4-1.2,5.1c1.4-1,1.5-3.7,3.1-4.3
			c1.5,0.5-1.1,2.2,0,2.3c0.8-0.6,0.6-2.2,1.9-2.3c2.9-0.8,1.8,2.4,3.9,2.3c0.2-0.7-1.1-1.6,0-1.9c1.5,1.6,0.9,5.3,3.5,5.8
			c-0.1-2-2.2-4-1.2-5.8c1.5,3.3,2.5,7.1,5.4,9c-0.8-3.1-3.7-6.2-3.1-9.3c1.6,1.5,1.6,4.5,2.7,6.6c1.1,2,3.1,4.4,5.1,3.9
			c-2.5-2.9-4.5-6.4-5.4-10.9c2.1,2.7,2.4,4.9,3.9,7.4c1.4,2.4,4.2,4.7,8.2,5.1c3.4,0.3,6.8-2.3,7.4-5.1c0.7-3.2-0.8-6.6-1.9-7.4
			c-1.3-0.9-3.9-1.1-5.4-0.8c-0.7,0.2-2.9,1.7-3.5,2.7s-0.9,3.1-0.8,3.9c0.3,3,3.9,4.7,6.6,3.9c1-0.3,2.5-1.9,2.7-2.7
			c1.8-6.5-7.8-6.5-6.6-0.8c1,0.6,1.7,1.5,3.1,0.8c1.4-1.1-1.2-2.7-0.4-3.1c1.3-0.1,1.9,0.5,1.9,1.5c0,2.4-2,3.4-3.9,2.7
			c-2-0.8-1.8-4.8-1.2-5.4c0.6-0.6,1-1.1,1.9-1.6c2.6-1.1,5.2,0.9,5.8,2.7c0.9,2.8-1.2,6.5-3.5,7c-0.8,0.2-2,0.1-2.7,0
			c-3.2-0.5-5.4-3.3-7-5.8c-1.2-2-2.3-4.6-1.9-6.2c1.6,2,1.6,5.6,3.9,7c1.3-3.4-1.4-5-1.6-8.2c1.5,0.5,1,3.2,2.7,3.5
			c1-1.4-0.9-2.5-0.8-4.3c1.5,0.3,0.6,3,2.7,2.7c1.3-1.8-0.9-2.8-0.8-4.7c1.6,0.7,0.9,3.7,3.5,3.5c1.3-1.9-2.6-3.8-1.6-5.4
			c2.2,1.6,1.9,5.6,5.8,5.4c-0.6-1.5-1.9-2.3-2.7-3.5c-0.8-1.2-1.7-2.5-1.9-4.3c1.8,1.4,2.3,4.1,4.3,5.4c1.3-3.2-3.3-5-2.7-7.4
			c1.6,0.9,1.3,3.6,3.5,3.9c2-2.2-2.6-4.7-1.9-6.6c1.8,0.8,1.4,3.8,3.9,3.9c0.9-2.6-2.2-4.2-2.7-6.6c2.4,1.1,2,5,5.4,5.1
			c0.6-2.8-3.1-4.6-3.5-7.8c3,1.6,3.2,8.2,7.8,7c-6.6-7.2-12.1-18-12-31.1c0-0.6,0.3-1.2,0.4-1.9c0.1-1.3-0.6-3.3,0.8-3.9
			c0.1,5.8-0.1,9.6,0.4,14.4c0.5,4.5,2.7,9.1,4.3,12.1c0.6,1,1.1,2,1.6,2.7c0.2,0.4,0.6,0.5,0.8,0.8c0.3,0.5,0.5,1.5,0.8,1.9
			c0.1,0.2,0.6,0.2,0.8,0.4c0.2,0.3,0.2,0.9,0.4,1.2c0.8,1,1.9,1.8,2.7,2.7c1.8,2.1,3.9,4.7,4.3,7c0.5,3.1-0.4,3.9-1.2,5.1
			c-0.6,1-0.4,1-1.2,1.6c-4.1,2.8-10.5-1-9.3-6.2c0.2-1,2-2.7,2.7-3.1c2.6-1.5,6.9,0,7,3.5c0.1,4.7-7.1,5.1-7,0.8
			c0.1-1.6,4.1-2.6,3.9,0c-0.9-0.3-1.7-1.4-2.7-0.4c-0.2,1.5,0.5,2.1,1.2,2.7c5.2-0.1,3.8-5.9,0.4-6.2c-4.8-0.5-5.1,5-3.5,7
			c1,1.2,2.8,2.3,5,1.9c1.2-0.2,2-1.3,3.1-1.9c1.8-5.8-1.6-10.6-6.6-9.7c-2.8,0.5-5.5,4-5.4,7c0,0.9,0.8,3.6,1.6,4.7
			c1.2,1.8,4,3.1,6.2,3.1c5.3,0,9.2-6.4,7-11.7c-1.2-2.8-4.4-6.6-6.2-9c-0.3-0.4-0.5-1.1-0.8-1.6c-0.1-0.2-0.6-0.2-0.8-0.4
			c-0.3-0.3-0.1-0.8-0.4-1.2s-0.9-0.7-1.2-1.2c-0.3-0.5-0.4-1.3-0.8-1.9c-0.6-1-1.4-2-1.9-3.1c-2.3-4.9-3.8-10.7-3.5-17.9
			c0.1-1.9-0.5-4.3,1.2-4.7c-0.3,4.2-0.4,7,0,10.5c0.7,6.6,3.3,12.6,6.6,17.5c1.5,2.2,3.5,4.7,5.1,7c1.9,2.8,4,5.2,4.3,7.8
			c0.5,4.7-1.7,7.9-3.9,9.3c-0.7,0.5-2.1,0.6-2.7,1.6c1.6,0.4,3.4-0.7,3.9-1.2c0.3-0.3,0.5-0.1,0.8-0.4c2.3-1.8,4-5.8,3.5-9.7
			c-0.6-4.8-5.2-9-8.5-13.6c-1.6-2.2-2.7-4.5-3.9-7c-0.3-0.7-0.9-1-1.2-1.6c-0.3-0.7-0.1-1.5-0.4-2.3c-0.5-1.5-1.3-2.8-1.6-4.3
			c-0.7-3.3-0.7-7-0.4-10.1c0.1-0.9-0.9-2.8,0.8-3.1c-0.4,5.8,0.3,10.7,1.2,14c0.6,2.6,1.1,4.3,1.9,6.2c0.6,1.5,1.3,2.5,1.9,3.5
			c0.4,0.6,0.5,1.4,0.8,1.9c0.2,0.3,0.6,0.4,0.8,0.8c0.5,0.8,0.8,1.1,1.2,1.6c0.3,0.3,0.1,0.8,0.4,1.2c0.1,0.2,0.6,0.2,0.8,0.4
			c0.2,0.3,0.2,0.9,0.4,1.2c0.9,1.3,2.4,2.7,3.1,3.5c0.8,0.8,1.1,1.9,1.6,2.7c0.8,1.3,1.6,2.4,1.9,3.9c1.1,4.6-0.6,7.6-2.3,9.7
			c-0.8,0.9-1.9,1.7-2.3,3.1c3.8-1.2,5.7-4,6.2-7.8c0.7-5.6-1.8-8.5-3.5-11.3c-0.3-0.5-0.4-1.5-0.8-1.9c-0.7-1-2-1.7-2.7-2.7
			c-0.4-0.5-0.4-1.4-0.8-1.9c-0.1-0.2-0.6-0.2-0.8-0.4c-0.2-0.3-0.2-0.9-0.4-1.2c-3.2-5.1-5.4-10-6.6-15.2c0-0.1,0-0.3,0-0.4
			c0-3.2-1-7.5,0-10.5c1.2,1.7,0.5,4.8,0.8,7.8c0.7,7.7,3.6,12.9,7,18.3c3,4.7,6.7,8.7,8.1,13.2c1.4,4.4,0.1,9.9-2.3,13.2
			c1.8-0.1,3.1-3.1,3.5-4.3c0.1-0.4,0.4-1,0.4-1.2c1.6-6.3-1-10.8-3.5-14.8c-0.8-1.3-1.5-2.7-2.3-3.9c-0.5-0.6-1.1-1-1.6-1.6
			c-0.5-0.7-0.7-1.6-1.2-2.3c-0.4-0.5-1.2-1.1-1.6-1.6c-0.2-0.3-0.2-0.9-0.4-1.2c-1-1.6-2-3.5-2.7-5.5c-1.2-3.1-2.2-6.7-2.3-10.5
			c-0.1-1.5-0.5-3.9,0.8-5.4c0.3,5.1,0.7,8.2,1.6,11.7c0.4,1.7,0.6,3.6,1.2,5.1c0.2,0.5,0.9,1,1.2,1.6c0.3,0.7,0.4,1.7,0.8,2.3
			c0.7,1.3,1.9,2.3,2.7,3.5c0.4,0.6,0.4,1.3,0.8,1.9c0.4,0.6,1.2,1,1.6,1.6c1.7,2.5,3.5,5,4.7,7.4c2.5,5.2,2.3,11.8-0.8,16.7
			c1-0.3,2.2-1.7,2.7-2.7c1.2-2.3,1.6-6.2,1.2-9.3c-0.7-5.6-4.9-10.5-8.2-15.6c-4.3-6.6-8.2-13.4-6.6-23.3c1.3,1.2,0.2,2.7,0.4,4.7
			c0.5,6.8,3.2,12.8,6.6,17.9c2.4,3.6,5.3,7.5,7,11.3c1.3,2.9,2.1,6.2,1.6,10.5c-0.3,2.5-1.9,4.6-1.6,6.2c5.1-4.9,2.9-16,0-21
			c-0.2-0.4-0.9-0.8-1.2-1.2c-0.6-1.1-0.9-2.5-1.6-3.5c-0.3-0.4-0.8-0.7-1.2-1.2c-0.3-0.4-0.5-1.1-0.8-1.6c-2.4-3.9-5.2-8-6.2-12.4
			c-0.5-2.1-1.2-4.1-1.2-6.2c0-0.8-0.5-2.8,1.2-2.7c0,9.5,3.2,15.2,7,21.4c3.3,5.5,7.2,10.5,7.8,17.1c0.4,5-1,7.1-1.9,10.9
			c2.4-0.2,3.3-4.7,3.5-7c0.5-5.2-0.3-7.8-1.6-10.9c-1.3-3.2-2.8-5.7-4.3-8.2c-1.7-2.9-3.2-5.5-4.7-8.2c-1.1-2.1-2.4-4.4-3.1-6.6
			c-0.8-2.4-1.6-5.3-0.8-8.2c1.2,3.5,1.1,7,2.3,10.1c0.5,1.3,1.6,2.5,2.3,3.9c1,2,2,4.2,2.7,5.5c0.2,0.4,0.1,0.8,0.4,1.2
			c0.3,0.5,1.2,1,1.6,1.6c0.4,0.7,0.4,1.6,0.8,2.3c0.3,0.7,1.2,1.3,1.6,1.9c1,1.9,2,4.6,2.7,6.6c1.4,4,1,9.4-0.4,14
			c1.6-0.7,1.9-2.2,2.3-3.9c1-4.1,0-9.6-0.8-12.1c-0.7-2.1-1.1-2.8-1.9-4.3c-1.5-2.8-2.8-5.5-4.3-8.2c-3.1-5.8-7.4-10.7-6.6-18.3
			c0.6,2.4,1.1,4.8,1.6,6.2c0.5,1.6,0.6,2.4,1.2,3.5c0.8,1.7,1.9,3.4,2.7,5.1c0.6,1.2,1.4,2,1.9,3.1c1.1,2.1,2,4.4,3.1,6.6
			c1.1,2.2,2.8,4.3,3.5,6.6c0.1,0.4,0.2,1.2,0.4,1.9c0.6,2.8,0.5,7.4,0.8,8.9c1.3-2,1.5-5.3,1.2-8.2c-0.3-2.8-1.8-5.9-3.1-8.6
			c-1.3-2.7-3-5.3-4.3-7.8c-1.3-2.6-2.6-5.2-3.9-7.8c-1.3-2.7-3.4-5.7-2.3-9c1,1.5,0.6,3.4,1.2,5.1c0.4,1.1,1.4,2,1.9,3.1
			c0.3,0.6,0.2,1.4,0.4,1.9c0.3,0.6,0.9,1,1.2,1.6c3,5.8,6.5,11.7,8.5,17.5c0.5,1.3,0.6,2.7,1.6,3.9c0.1-2.9-0.6-5.5-1.2-7
			c-1.1-3-2.7-5.6-3.9-7.8c-1.1-2-1.7-3.9-2.7-5.8c-0.6-1.3-1.3-2.7-1.9-3.9c-1.2-2.5-3.5-4.9-2.7-8.2c1.3,4.2,3.5,7.9,5.4,11.7
			c2,3.8,3.2,7.9,5.8,11.3c-0.7-4.6-2.8-8.1-4.7-11.7c-1.9-3.7-3.4-7.5-5.4-11.3c-5.7-2.4-13.2-3.3-19.8-4.7c-2.4-0.5-4.6-1.2-7-1.6
			c-11.8-1.8-25.8-0.5-36.5,0.8c-0.6,0.9-1.3,1.8-1.2,3.5c1.2,0.8,2.5-0.1,3.9,0c1.3,0.1,4.3,1,5,1.6c1.9,1.4,2.3,4,1.9,7
			c-0.3,2.3-1.3,4.8-1.9,7.4c-0.7,2.9-1.6,5.7-1.9,7.8c0.9,2.2,6.5,1.8,5,5.1c-0.8-2.6-4.2-2.5-5.8-4.3c-1-3.2,1.7-5.4,1.6-9
			c-0.5-1-2.5,1.9-3.5,0.4c1.5-1.2,4.4-1,4.3-3.9c-3.1,0.6-5.6,1.9-9.7,1.6c-0.5,3.8-0.9,7.6-0.8,12.1c0,0.5,0,1,0,1.6
			c-0.9,3.6,0.7,8.1,1.9,10.9c-1.4,3.9-3.7,9.6-7.8,10.1c-3.8,0.5-6.8-2.4-7-5.1c-0.3-3,2.9-7.5,7.4-6.2c2.1,0.6,3.2,4.3,2.3,6.2
			c0,0.1-1.3,2-2.7,2.3c-4.7,1-4.8-2.3-3.9-5.1c0.9-0.5,1.9-1,3.1-1.2c1.2,0.6,3,2.7,0.8,3.5c-0.7-0.5,0.8-2.5-1.2-2.3
			c-1.4-0.2-1.7,0.6-2.3,1.2c0.1,6.5,8.5,1.4,4.7-3.1c-2.2-1.6-5-0.1-6.6,1.2c-0.2,1.9-0.8,3.3-0.4,4.7c0.9,2.8,5.7,3.5,8.2,1.9
			c1.8-1.1,3.1-5.2,2.3-7.8c-0.6-2.1-3.6-3.3-6.2-3.1c-3.1,0.2-5.2,2.6-6.6,4.3c0,0.1,0,0.3,0,0.4C23.7,148.9,23.7,151.5,24.7,153.2
			z M50.3,143.5c2,1.3,4.2,0.4,6.2-0.4C55.9,145,51.1,146,50.3,143.5z M61.2,106.1c3.1-0.8,5.2-0.6,8.5,0.8c0.7,0.3,1.6,0.8,2.3,1.2
			c0.8,0.4,2,0.8,1.9,1.6c-2.8-0.6-5.7-1.9-9.3-1.6c-2.2,0.2-6,3-6.2-0.8C58.5,105.9,60.3,106.4,61.2,106.1z M72.8,115.1
			c-2.8-0.5-5.8-3.3-8.9-3.1c-1.9,0.1-2.9,1.4-4.7,1.9c2.1-5.9,9.4-1.4,14,0.4C73.3,114.8,73.1,115,72.8,115.1z M60.4,115.1
			c0.8-0.7,1.6-1.8,2.7-1.9c2.4-0.4,4.4,1.2,6.2,1.9c1.7,0.7,3.6,0.9,5.1,1.9c-0.3,1.4-1,0-2.3,0.4c-1.3,0.8-2,2.2-3.5,2.7
			c-4.1-0.3-7.7-1.1-10.5-2.7C58.5,116.2,59.6,115.8,60.4,115.1z M64.3,122.5c-2.2-0.3-3.5-1.4-5-2.3c0.6-1.2,1.3,0.5,1.9,0.8
			C62.1,121.3,64.2,121.2,64.3,122.5z M55.7,128.7c1.4,0.1,1.4,1.7,2.7,1.9c3.2-1.7-1-3.8-1.2-5.1c1.8,0.5,2.8,1.8,3.5,3.5
			c0,0.1,0,0.3,0,0.4c-0.6,1-0.9,2.2-2.3,2.3c-1.4-0.2-1.6-1.8-3.1-1.9c-1.3-0.6-1.7,1.7-2.3,0.4C53.1,128.9,54.3,128.7,55.7,128.7z
			 M45.7,140.4c1.3-0.9,2.2-2.2,3.5-3.1c1.7-0.3,2.3,0.5,3.9,0.4c3.6-2.3,5.5,2.1,8.5,2.7c1.7,0.6,1-1.3,2.3-1.2
			c0.4,4.1-3.7,1.7-5.8,1.6c-1.7-0.1-4.4,0.5-6.2,0.4c-1.2-0.1-1.9-0.5-2.7-0.4c-1.8,0.2-4.1,1.7-5-0.8
			C44.1,138.2,45,140.4,45.7,140.4z"/>
		<path fill="none" d="M20,145.4c1.6,0,2.3-0.8,3.9-0.8C23.1,143.9,20.8,144.9,20,145.4z"/>
		<path fill="none" d="M19.3,232.2c-0.7,0.3-1.3,0.7-1.9,1h0.8C18.6,232.9,19,232.5,19.3,232.2z"/>
		<path fill="none" d="M63.9,117.4c-0.6-0.7-0.8-1.7-1.6-2.3c-0.7,4.2,5.8,4.5,5.8,0.8C66.7,116.3,66.5,118.1,63.9,117.4z"/>
		<path fill="none" d="M60.4,116.3c-0.1,0.6-0.6,0.7-0.8,1.2c0.7,0.3,1.4,0.6,2.3,0.8C61.7,117.3,61.6,116.2,60.4,116.3z"/>
		<path fill="none" d="M52.6,83.2c0.8,1.3,2.1-0.5,3-1.9h-0.4C54.6,82.4,53.6,83.7,52.6,83.2z"/>
		<path fill="none" d="M120.2,143.5c-0.5-0.7-3.5-1.4-3.9,0C117.3,142.6,118.9,143.4,120.2,143.5z"/>
		<path fill="none" d="M40.6,81.6c0-0.1,0.1-0.2,0.1-0.3h-0.4C40.3,81.5,40.4,81.6,40.6,81.6z"/>
		<path fill="none" d="M52,81.3h-0.3c0.2,0.6,0.5,1.1,0.9,1.5C52.7,82,52.3,81.7,52,81.3z"/>
		<path fill="none" d="M70.5,117c-0.1-0.4-0.4-0.6-0.8-0.8c-0.4,1-1.4,1.4-1.6,2.7C69.2,118.6,70.4,118.3,70.5,117z"/>
		<path fill="none" d="M12.3,164.5c0.2-0.5,0.5-0.8,1.2-0.8c1,0.6-0.2,3.4,0.8,3.9c0.3-1.3,1.3-0.4,1.6,0.4c0.2,0.9-0.7,0.8-0.4,1.9
			c0.6,0.7,1.6-0.7,1.9,0.8c0,0.9,0,1.8,0,2.7c2.3-1.4,1.6,2.2,2.3,3.5c2-1.2,0.9,2.6,1.6,3.5c0.3-1.3,1.3-0.4,1.6,0.4
			c0.5,1.2-1,2.3,0,2.7c1.8-1.2,1.1,2.4,1.6,3.1c0.1-0.6,0.6-0.1,0.8,0.4c0.2,0.9-0.7,0.8-0.4,1.9c1.9,0.4,0.1,2.6,1.9,3.5
			c-0.2,0.2-0.9,1.8,0,1.9c0.1-0.9,1.1,0.4,1.2,0.8c-0.3,0.5-0.5,1-0.4,1.9c2-0.1,0.8,1.9,0.8,3.1c2.3-0.2-0.1,2,1.2,2.7
			c3.6,0,7.5-2.8,12.8-2.3c-0.4-2.7-1.8-4.4-2.3-7c0.4,0,0.5-0.3,0.8-0.4c1.5,0.7,3.1,2.1,3.9,3.5c0.4,0.7,1,1.6,0.8,2.7
			c1,0.7,1.9,1.5,3.1,1.9c0.3-1.6-1.6-1-1.6-2.3c0-0.6,1.1-0.2,1.2-0.8c-0.8-0.5-2-0.6-1.9-1.9c0.5,0,1,0,1.6,0
			c0.1-1.6-2.2-0.6-1.9-2.3c0.6-0.2,0.7-0.5,1.2,0c0.3-1.6-1.9-0.7-1.6-2.3c0.5,0,0.9-0.1,0.8-0.8c-1.5-0.2-2.1-2-0.4-2.3
			c-0.6-0.7-2-0.6-1.9-1.9c0.5-0.1,1.1,0.1,1.2-0.4c-0.6-0.5-1.7-0.3-1.6-1.6c1.9-0.2-0.3-1.3-0.4-1.9c0.5,0,0.9-0.1,0.8-0.8
			c-0.6-0.5-1.6-0.5-1.9-1.2c-0.1-0.9,1.1-0.4,1.2-1.2c-0.8-0.5-2-0.6-1.9-1.9c0.7,0,1-0.3,1.2-0.8c-0.7-0.6-2-0.6-2.3-1.6
			c0-0.7,1.3-0.3,1.2-1.2c-0.6-0.6-2.2-0.1-1.9-1.6c0-0.6,1.1-0.2,1.2-0.8c-0.7-0.7-2.4-0.5-2.3-1.9c0.6-0.1,1.4,0.1,1.6-0.4
			c-0.8-0.8-2.6-0.5-2.7-1.9c-0.3-1.1,1.8,0.3,1.6-0.8c-0.8-0.7-2.6-0.5-2.3-2.3c0.7-0.1,0.8,0.4,1.5,0.4c-0.2-1.4-1.9-1.2-2.7-1.9
			c0-0.1,0-0.3,0-0.4c1.9-0.2-0.3-1.7-1.2-1.6c-0.4-1.5-2-1.9-3.9-1.9c-0.6-0.9-1.4-1.7-1.9-2.7c-3.2-0.7-4.3-3.4-5-6.6
			c-3.8,0.7-6.8,2.3-9.7,3.9c0.4,2.5,4.7,3,3.1,6.2c-3.2,0.4-4-1.7-4.8-3.7v4.6c0.1,0,0.1-0.1,0.2-0.1
			C12.5,161.2,11.3,164,12.3,164.5z M32.8,173.8c2.4-0.2,2.3,2.1,3.9,2.7c0.7,1.3,2.5,1.7,1.9,4.3C34.2,182.8,31.7,177.5,32.8,173.8
			z M28.2,186.3c0.3-0.1,0.4-0.4,0.8-0.4c1.6,0.4,2.7,2.1,3.5,3.5c0.3,0.5,1.4,1.2,1.6,1.9c0.2,1.1-0.1,1.8-0.4,3.1
			c-1.5,0.2-1.2,0.2-2.7,0c-1.1-1-1.1-2.1-1.6-4.3C29.2,189.3,27.4,187.5,28.2,186.3z M21.2,154c0.4-0.1,0.7,0.1,0.8,0.4
			c2.1,1.6,6.4,4,4.3,7.4C21.8,162.2,20.9,157,21.2,154z M21.2,169.2c2.2-0.1,2.6,1.5,3.5,2.7c1.2,0.9,2.2,2,2.3,3.9
			c-0.4,0.3-0.6,0.7-0.8,1.2c-0.7,0-1.3,0-1.9,0c-1.1-0.9-1.6-2.3-1.9-3.9C21.7,172.1,20.3,170.5,21.2,169.2z"/>
		<path fill="none" d="M18.5,231c0.2-0.1,0.2-0.7,0.4-0.8c0.3-0.2,0.9-0.3,1.2-0.4c1.4-0.7,2.4-1.4,3.5-1.9c2.2-1.2,4.3-1,5.4-3.5
			c-1.1-0.1-1.4-0.6-1.9-0.8c-1.4-0.4-0.7,0.1-1.9,0.4c-1.4,0.4-2.8,1.4-3.9,1.9c-1.7,0.8-3.6,2-4.7,2.7c-0.4,0.2-0.8,0.1-1.2,0.4
			c-0.6,0.4-1,1.2-1.6,1.6c-0.6,0.4-1.3,0.4-1.9,0.8c-0.2,0.1-0.4,0.3-0.6,0.5v1.3h3c0.8-0.5,1.5-1,2.2-1.4
			C17.2,231.4,17.9,231.4,18.5,231z"/>
		<path fill="none" d="M13,200.7c-0.3-0.2-0.5-0.6-0.8-0.8s-0.6-0.4-0.9-0.7v0.7c2.3,2,5,3.7,8.3,4.7
			C17.1,203.4,15.2,202.4,13,200.7z"/>
		<path fill="none" d="M20.8,231.8c-0.2,0.7-2,2-0.4,1.2c1.1-1.6,2.5-3,5.4-2.7c-2.5-0.8,1-1.9,2.3-2.3c0.1,0.3,0,0.8,0.4,0.8
			c0.3-2.1-1.9-0.7-2.7-0.4c-2.2,0.8-4.4,3-6.2,3.5C19.8,232.4,20.5,232.1,20.8,231.8z"/>
		<path fill="none" d="M13,216.3c0.1-1.3-0.5-1.9-1.6-1.9c0,0.1-0.1,0.2-0.2,0.3v2.3C12,216.9,12.3,216.6,13,216.3z"/>
		<path fill="none" d="M20,204.6c1.4-0.3,2-0.6,3.5-0.4c1.3,0.2,3.1,2.5,3.1,0.4C25.2,205.4,21.8,202.3,20,204.6z"/>
		<path fill="none" d="M18.9,182c-0.5-0.5-0.4-1.7-0.4-2.7c-0.6-0.2-1-0.6-1.6-0.8c0,0.1,0,0.3,0,0.4C18.8,178.5,17.7,183,18.9,182z
			"/>
		<path fill="none" d="M13.4,184.3c0.8,0.3-0.3,2.2,0.4,1.2c1.1-1.1-0.9-2.5-1.2-3.5c-0.4,0.3-0.8,0.6-1.3,0.8v0.5
			C12.1,183.1,13,183.3,13.4,184.3z"/>
		<path fill="none" d="M18.1,192.5c0.3,1.7-1.1,1.7-1.2,3.1c0.7,0.3,1.2,2.9,1.9,1.9c-1.9-1.4-0.7-3.7,0-5.4
			c-0.3-1.7-2.3-1.9-1.9-3.9c-1.4,0.7-3.8,0.9-5.6,0.4v0.8C14.8,189.2,17.8,189.5,18.1,192.5z"/>
		<path fill="none" d="M148.5,109.2c1.9-0.3,2.3-3.8,1.9-6.2c-0.1-0.9-0.3-2.6-1.2-2.3C149.4,103.7,147.8,106.9,148.5,109.2z"/>
		<path fill="none" d="M138,198.7c0.7-0.6,0.6-2,1.9-1.9c-0.1,1,0.6,1.2,1.2,1.6c1-1.8-0.4-3.1-1.6-3.9
			C137.4,194.3,135.7,197.8,138,198.7z"/>
		<path fill="none" d="M130.3,175c0.1,1.5-0.4,3.5,1.2,3.5c1.1,0.1-0.3-2.4,0.8-2.3c1.4,0,1.4,1.4,3.1,1.2c0.3-2.2-0.8-2.8-1.6-3.9
			C131.8,173.2,131,174,130.3,175z"/>
		<path fill="none" d="M133,164.9c-1.1-0.2-1.8-2.8-3.1-1.6C130.9,163.7,132.3,165.6,133,164.9z"/>
		<path fill="none" d="M131.4,206.9c0.1-0.5-0.1-0.7-0.4-0.8c0.4,1-0.9,3.2,0,2.3c0.5-1.2,1.3-2,1.9-3.1
			C132.1,205.5,132.1,206.6,131.4,206.9z"/>
		<path fill="none" d="M138.4,189c0.1-1.9-1.6-4.7-2.3-4.3C137.2,185.9,135.5,189.7,138.4,189z"/>
		<path fill="none" d="M133.8,192.9c-1.5-0.2-1.8-1.6-2.7-2.3c0,0.7,0.1,1.2,0.4,1.6C132.3,192.1,133.1,194,133.8,192.9z"/>
		<path fill="none" d="M131.8,196c0,1.9,0,3.9,0,5.8C132.5,200.8,132.5,197.1,131.8,196z"/>
		<path fill="none" d="M124.5,177c1,0.4,2.4,0.5,3.9,0.4c-0.3-0.9-2.2-0.2-3.1-0.4c-0.6-0.5-1-1.1-1.9-1.2c0.5,1.8,2,2.7,2.7,4.3
			C126.7,179.3,124.4,178.3,124.5,177z"/>
		<path fill="none" d="M143.5,147c1.5,0.2,1.6,1.8,3.1,1.9c-1-1.1-3.5-3.8-4.3-0.8C143.7,149.1,142.2,147.4,143.5,147z"/>
		<path fill="none" d="M152.4,155.9c1.4-0.2,0.6-2.5,0.8-3.9C152.2,152.6,153.4,155.4,152.4,155.9z"/>
		<path fill="none" d="M143.5,137.7c1,0.5,2.1,1,3.1,1.6c-0.9-1.1-2.2-1.7-3.9-1.9c0.1,0.7-0.4,0.9-0.4,1.6
			C143,138.8,142.6,137.5,143.5,137.7z"/>
		<path fill="none" d="M138,147c0.3-0.4,1.1-1,0.8-1.6c-0.9,1-1.5,2.3-3.1,2.7c-2-0.9-2.4-3.3-3.9-4.7
			C133.4,146.2,134.9,150.4,138,147z"/>
		<path fill="none" d="M131.4,182.4c0.3-2.4-1.8-2.4-2.3-3.9C128.7,179.4,131.4,180.6,131.4,182.4z"/>
		<path fill="none" d="M109.3,111.6c-1-0.1-1.9-0.1-1.9,0.8C107.9,113,109.4,112.7,109.3,111.6z"/>
		<path fill="none" d="M152,108.1c0.4-1.7,1.2-6.8-0.8-7.4C151.6,103,150.4,107,152,108.1z"/>
		<path fill="none" d="M154.7,105.7c0.8-1.5,0.2-3.4-1.2-3.9C153.8,103.3,152.8,106,154.7,105.7z"/>
		<path fill="none" d="M45.3,205c-0.4,1.4,1.5,0.5,2.3,0.8C47.7,204.1,46.2,204.7,45.3,205z"/>
		<path fill="none" d="M37.9,210c2.1-0.3,3,0.6,5,0.4c0.5-0.6,0.3-2,1.2-2.3c0.5,0.5,0.2,1.8,0.8,2.3c2.8-0.4,6.1,1.5,7-1.2
			c-0.6-1.6-3.1-2.1-5.4-2.3c-2.4-0.3-5.2,0.3-7.4,0c-0.6-0.1-2.3-0.1-2.3-1.2c1.9-0.3,4.2,0.4,5.8,0c1-0.3,1.7-1.2,2.3-1.9
			c0.7-0.7,2.4-1.5,1.2-2.7c-2-0.3-0.8,2.6-3.1,1.9c-0.6-0.4-0.8-1.3-1.9-1.2c-6.2,0.5-10.5,3-15.9,4.3c-2,3.4-1.6,9.6-1.2,14.4
			c1.9,1.6,5.1,2.1,8.1,2.3c3.1,0.3,7,0.2,9.3,0c2.4-0.2,6,0.9,6.6-1.2c0-0.3,0-0.5,0-0.8c-0.8-0.9-2.1-1.2-3.9-1.2
			c-0.2,0.6,0.5,2-0.4,1.9c0-0.6,0-1.3,0-1.9c-1.5-0.1-3.4,0.3-3.9-0.8c0.7-0.8,1.8-0.2,2.7,0c0.5-0.5,0.2-1.9,1.2-1.9
			c-0.1,0.9,0.1,1.5,0.4,1.9c2.5,0.3,5.5,0.5,7.4-0.8c-0.1-1.3-1.5-2-2.7-2.3c-3.3-0.9-8.7,0.8-10.1-1.2c1.3-1,2.7,0.5,4.7,0
			c0.8-0.3-0.2-2.3,1.2-1.9c0,0.6,0,1.3,0,1.9c1.6,0,3.1,0,4.7,0c0.8-0.3-0.1-2.2,0.8-2.3c0.8-0.1,0.2,1.4,0.4,1.9
			c1.3,0.2,2.2-0.2,3.1-0.4c0-0.6,0-1.3,0-1.9c-2.9-0.3-8.9-0.7-11.3-0.8C40.6,211.1,38.3,211.6,37.9,210z"/>
		<path fill="none" d="M48.8,204.2c0.1-1.2-1-1.3-1.9-1.5C47,203.7,47.8,203.9,48.8,204.2z"/>
		<path fill="none" d="M86,157.1c-0.6-0.5-1-1.4-2.3-1.2C83,157.5,85.5,158,86,157.1z"/>
		<path fill="none" d="M52.3,183.6c1.9-2.2,4.2-4.7,5.8-6.6c1.5-1.7,4.3-3.3,3.5-5.8c-1.9,0.5-2.3,2.6-3.5,3.9
			c-2.4,2.7-6.4,5.5-7.8,8.6c-0.6,1.4-3.7,1.8-2.7,4.3C49.8,187.5,50.8,185.2,52.3,183.6z"/>
		<path fill="none" d="M81,227.1c-0.4-1.5-3.1-0.5-4.7-0.8C75.6,227.3,80.4,226.2,81,227.1z"/>
		<path fill="none" d="M51.9,173.1c-2.1-0.1-2.3-0.3-4.3,0c0,1.5,0.7,2.4,1.2,3.5C50.5,176.1,51.1,174.5,51.9,173.1z"/>
		<path fill="none" d="M69.3,214.3c-0.6,0.7-1.3,1.3-1.9,1.9c-0.3,0.3-0.1,0.8-0.4,1.2c-0.2,0.3-0.9,0.5-1.2,0.8
			c-1.8,2-3.5,4-4.7,6.2c1.8-0.2,2.8-1.9,3.9-3.1c1.8-2,3.6-4.1,5-5.8c0.6-0.7,1.4-1.3,1.9-1.9c0.3-0.3,0.1-0.8,0.4-1.2
			c0.2-0.3,0.9-0.5,1.2-0.8c0.6-0.7,0.9-1.6,1.6-2.3c2.2-2.6,4.7-4.9,7-7.4c1.4-1.5,2.9-3.8,3.9-5.1c0.7-0.9,3-2,1.6-3.5
			C82,200.6,75.1,207.7,69.3,214.3z"/>
		<path fill="none" d="M121.7,177.7c-0.1,0.4-0.4,0.6-0.8,0.8c-0.6,1.8,1.2,3.1,1.9,4.3c0.9,1.5,1.6,2.9,2.3,4.7
			c1.3,3.3,2.7,7.2,2.7,11.3c0,1.5-0.5,3.3-0.8,5.1c-0.8,6.1-2.8,11.5-5.4,14.8c-0.4,0.5-0.8,1.1-1.2,1.5c-0.6,0.8-1.6,1.5-1.9,1.9
			s-0.1,0.9-0.4,1.2c-0.1,0.1-0.7,0.4-0.8,0.4c-0.4,0.3-0.5,0.5-0.8,0.8c-2,1.8-4.5,3-7,4.3c-1.5,0.8-4.7,1.4-4.3,4.3
			c3.6-0.2,6.8-2.3,9.7-4.3c0.7-0.5,1.3-1.1,1.9-1.6c0.7-0.5,1.3-1,1.9-1.6c5.8-5.1,10.5-14.1,11.3-23.7c0.8-9.6-2.5-17.8-7.8-23.3
			C122.4,178.1,122.1,177.9,121.7,177.7z"/>
		<path fill="none" d="M129.1,227.5c-1.2,1.3-3.8,2.3-2.7,4.3c2.7-1.2,3.4-4.4,5-6.6C130,225,129.9,226.7,129.1,227.5z"/>
		<path fill="none" d="M134.5,216.6c-1,0.6-1.8,1.3-1.9,2.7c1.3,0.3,1.5-0.6,2.7-0.4c0.2,0.7,0.2,1.6,0.8,1.9c0.7-0.6,1-1.6,0.8-3.1
			C136.1,217.5,135.7,216.6,134.5,216.6z"/>
		<path fill="none" d="M136.5,209.6c-0.5,1.4-2.3,4.2,0,4.7c1.3-2.3,2.7-6.6,1.9-9.7C137.9,205.9,137.1,207.8,136.5,209.6z"/>
		<path fill="none" d="M65.8,226c-2.3,0-4.7,0-7,0C60.3,226.6,64.4,226.6,65.8,226z"/>
		<path fill="none" d="M62,229.5c2.2,0,4.4,0,6.6,0C67.2,228.8,63.3,228.8,62,229.5z"/>
		<path fill="none" d="M73.6,229.1c-1.1,0.2-3.1-0.5-3.5,0.4c1.8,0,3.6,0,5.4,0C77.6,229.2,74.4,229,73.6,229.1z"/>
		<path fill="none" d="M116.3,105c0.7,0.5,3.6,0.7,4.3,0C118.7,105,116.9,104.2,116.3,105z"/>
		<path fill="none" d="M112,106.5c-0.4,1.2,1.1,0.7,1.6,0.8c2.1,0.5,4.3,0.4,6.6,0.4c0.1,0.5,0.4,0.2,0.8,0c0.4,0,0.3-0.5-0.4-0.4
			C118.1,106.7,114.9,106.8,112,106.5z"/>
		<path fill="none" d="M20.4,212c0,2.1,0,4.1,0,6.2C21.1,217,21.1,213.1,20.4,212z"/>
		<path fill="none" d="M109.3,109.6c3.1,0.7,8.1,0.7,10.5,0c-3.6-0.6-7.7-0.8-12-0.8C107.3,110.1,108.9,109.6,109.3,109.6z"/>
		<path fill="none" d="M134.5,96c0.7-0.7-0.3-2-0.8-2.7c-1.6-0.1-2.8,0-3.1,1.2C131.4,95.6,132.5,96.3,134.5,96z"/>
		<path fill="none" d="M128.7,151.3c-0.2-0.9-1.2-0.9-0.4,0c1.3,0.5,2.3,1.4,3.5,1.9c0-0.1,0-0.3,0-0.4
			C130.6,152.5,130.2,151.4,128.7,151.3z"/>
		<path fill="none" d="M115.9,131.8c0.5,2.7,0.5,5.5,1.2,8.6c1.1,0.4,1.4-0.6,1.9-1.2c1.4-1.4,2.6-3,3.5-4.3c0,0,0.3-0.3,0.4-0.4
			c0.3-0.3,0.1-0.4,0.4-0.8c0.4-0.6,1.2-1,1.6-1.5c0.4-0.7,0.7-1.6,1.2-2.3c0.8-1.4,1.5-2.8,2.3-4.3c0-1.2-0.5-1.9-0.8-2.7
			c0.8-1.9,3-2.4,3.1-5.1c-2.1-1.4-2.4,0.2-3.5,1.2c-0.3,0.3-0.8,0.1-1.2,0.4c-0.6,0.4-0.8,1-1.6,1.2c-5.2,1.3-9-4.4-5.8-8.9
			c-4,0.3-7.1,1.4-10.1,2.7C111,120,114.7,124.8,115.9,131.8z"/>
		<path fill="none" d="M134.9,101.5c0.4-1.2,0.8-2.3,1.2-3.5c-1.9-1.1-5.5-2-7.8-1.6c-0.1,1.8,0.3,3.1,0.8,4.3
			C131.1,100.9,133.2,101,134.9,101.5z"/>
		<path fill="none" d="M69.7,88.2C69.6,89.3,67,87.9,67,89c1-0.3,3.3,0.7,3.1-0.8c-0.8-0.5-1.7-1.6-2.7-1.9
			c-1.2-0.4-4.5-0.8-3.1,0.4C66.2,85.6,68.4,87.4,69.7,88.2z"/>
		<path fill="none" d="M61.2,86.7c0,0.5,0.7,0.3,0.8,0.8c-0.6,0.2-1,0.6-1.2,1.2c1-0.6,1.7-1.7,2.7-2.3C62.3,86,62.1,86.7,61.2,86.7
			z"/>
		<path fill="none" d="M60,87.5c-0.6,0.6-1.6,0.7-1.9,1.6c0.8,0,1.5,0,2.3,0C59.4,88.4,59.1,88.5,60,87.5z"/>
		<path fill="none" d="M136.1,97.2c1.5,0.4,2,1.6,3.5,1.9c0.2-3.5-0.3-6.5-3.9-6.2C134.8,94.5,136.3,95.2,136.1,97.2z"/>
		<path fill="none" d="M97.7,91c-0.9,0-1.3,0.7-1.9,1.2c1.3-0.4,3-1.4,3.5,0.4C100.7,93.4,99,91,97.7,91z"/>
		<path fill="none" d="M119,96.8c-1.3-0.7-3.2-0.3-5-0.4c-1.7-0.1-3.9-1.3-4.7,0.4c2.5,1.3,4.7,2.8,8.2,3.1
			C118,98.9,118.8,98.2,119,96.8z"/>
		<path fill="none" d="M110.5,105.7c1.3-0.7,2.5-1.5,3.5-2.3c0.6-0.5,1.8-1.2,1.6-2.3c-2.2-1.2-4.3-2.4-7.4-2.7
			c-1,2.5-1.7,5.3-1.6,9C108.2,107.6,109.4,106.4,110.5,105.7z"/>
		<path fill="none" d="M92.6,91.7c3-3,9.9-1.3,10.9,2.3c-0.3,0.1-0.8,0-0.8,0.4c2.4,0.4,0.3-2.5-1.2-3.5c-2.4-1.6-7.1-1.3-8.9,0
			C92.7,91.4,92.1,91.6,92.6,91.7z"/>
		<path fill="none" d="M127.2,134.5c1.2-0.1,1.7-0.9,1.6-2.3c-0.3-0.1-0.8,0-0.8-0.4c-1.2,0.1-1.7,0.9-1.6,2.3
			C126.7,134.2,127.2,134.2,127.2,134.5z"/>
		<path fill="none" d="M129.9,126c1.9-0.1,4.6,1.1,6.2,0c-2.6,0.5-4.9-0.9-6.6,0c-0.1,1,0.1,1.7,1.2,1.5
			C131.9,127,128.9,127.5,129.9,126z"/>
		<path fill="none" d="M134.9,136.1c0.3,0.6,0.6,1.2,1.6,1.2c0.1-0.3,0.3-0.5,0.8-0.4c0-0.6,0-1.3,0-1.9c-0.3-0.1-0.8,0-0.8-0.4
			C135.5,134.6,135,135.1,134.9,136.1z"/>
		<path fill="none" d="M144.6,127.5c0.7,0.1,0.9-0.4,0.8-1.2c-1.1-0.8-3.4-0.2-5-0.4C141,127.2,146.3,125.3,144.6,127.5z"/>
		<path fill="none" d="M152.4,142.7c-0.2-2.8-3.2-2.7-5.4-3.5C148.6,140.6,151.9,140.3,152.4,142.7z"/>
		<path fill="none" d="M137.3,128.3c1.6,0,3.1,0,4.7,0C141.3,127.7,137.9,127.7,137.3,128.3z"/>
		<path fill="none" d="M146.2,136.1c1.6,0.3,2.2-0.4,1.9-1.9c-0.6,0-1.3,0-1.9,0C145.9,135.3,145.9,134.9,146.2,136.1z"/>
		<path fill="none" d="M122.9,138.4c-1.9-0.2-1.9,1.5-2.7,2.3C121.8,141,120.9,138.9,122.9,138.4z"/>
		<path fill="none" d="M135.7,102.2c-0.4,1.6-2.1,4-0.4,5.4c1.6,0.1,2.3-0.8,2.7-1.9c-0.6-0.6-2.2-0.1-1.9-1.5
			c1.2-0.2,1.4,0.7,2.7,0.4c0.3-0.8,1-1.3,0.8-2.7C138,101.7,137.4,102.6,135.7,102.2z"/>
		<path fill="none" d="M145.8,99.5c0.6,5.1-2.7,6.4-3.5,10.1c1.4,1.7,3.7,0.2,4.3-1.2c0.4-1.1-1.9-1.4-0.8-1.9c0.5,0,1,0,1.6,0
			c0.5-2.9,3.4-10.7-1.9-10.5c0,1,0,2.1,0,3.1c0.1,0,0.3,0,0.4,0C145.8,99.3,145.8,99.4,145.8,99.5z"/>
		<path fill="none" d="M138.4,108.1c0.7,1.1,3.2,1.1,3.1-0.8c1-0.6-1.5-1-1.2-2.3c1.2-0.1,1.3,1,2.7,0.8c1.8-2.9,1.8-7.6,0.4-10.9
			c-1.1,0.1-1.2-0.9-2.3-0.8c-0.9,0.6-0.7,2.1,0,3.1c0,0.3,0,0.5,0,0.8c-0.6,1.6,0.2,3,0,4.3C140.7,104.4,138.9,105.8,138.4,108.1z"
			/>
		<path fill="none" d="M144.2,122.1c-3.4,0-6.7,0-10.1,0C136.6,122.7,141.8,122.7,144.2,122.1z"/>
		<path fill="none" d="M138.8,101.1c0.5-1.8-1.4-2.3-2.3-1.5C136.1,101.2,137.4,101.2,138.8,101.1z"/>
		<path fill="none" d="M140.8,111.6c-0.8,0.6-0.6,2.2-1.9,2.3c-0.9-0.7-1.5-1.8-2.3-2.7c-1.8-0.8-5.3,0.2-5.8-1.9
			c2.7,0.1,6.1,1.7,8.5,0.8c-0.8-1-2.2-1.4-4.3-1.2c-0.8-0.9-2-1.4-3.5-1.6c-0.4-0.7-0.8-1-1.2-1.9c-0.4-1,0.1-2.9-1.2-3.1
			c1.2,4.3,1.5,9.4,0.4,14c1,1.4,4.1,0.6,5,1.9c-0.7,0.7-2.9,0-3.1,1.2c-0.1,1.4,1.9,1.4,3.1,1.6c3,0.4,7.8,0,10.1-0.4
			c0.2-1.3-0.3-1.8-0.4-2.7c1.7-1.7,2.7-4,3.5-6.6C145.2,111.1,143.5,111.9,140.8,111.6z"/>
		<path fill="none" d="M132.6,106.1c0.9-0.4,1.4-1.2,1.6-2.3c-0.7-0.6-2.6,0-1.9-1.9C130.2,101.8,130.8,106.5,132.6,106.1z"/>
		<path fill="none" d="M117.1,103.4c1.2-0.2,3.3,0.5,3.9-0.4C119.8,103.3,117.6,102.5,117.1,103.4z"/>
		<path fill="none" d="M110.5,87.5c-1,0.4-1.3,1.5-2.7,1.6c-0.1-0.4-0.4-0.6-0.8-0.8c0,0.1,0,0.3,0,0.4c0.4,0.1,0.6,0.4,0.8,0.8
			c1.6,0,2-1.4,3.1-1.9C112.1,86.2,111.1,86.2,110.5,87.5z"/>
		<path fill="none" d="M12.3,225.6c0.4,0.3,1,0.5,1.9,0.4c0.5-0.5,0.5-1.8,0-2.3C12.8,223.6,12.2,224.2,12.3,225.6z"/>
		<path fill="none" d="M88.5,81.3L88.5,81.3c-0.1,0.1-0.1,0.2-0.1,0.3C88.4,81.5,88.4,81.4,88.5,81.3z"/>
		<path fill="none" d="M39.4,112.4c1.2,0,2-0.7,3.1-0.8c3-0.3,5.9,1.5,7.8,1.2c-0.3-4.3-7.1-5.1-10.9-3.5
			C39.4,110.3,39.4,111.3,39.4,112.4z"/>
		<path fill="none" d="M115.1,86.3c-0.3,0.4-0.4,1.5-0.8,1.9c-0.3,0.4-0.9,0.8-1.2,1.2c-1.1,1.5-2,3.1-2.3,5.1
			c3,0.2,6.8,1.3,9.7,0.4c0.9-2.6,1.1-5.3,1.9-7.8c0.8-2.1,2.2-3.9,3.1-5.8h-6.1c-0.8,0.9-1.4,1.8-2,2.7
			C116.7,84.9,115.7,85.5,115.1,86.3z"/>
		<path fill="none" d="M126.4,82.4c0,0,0.4,0.1,0.4,0c0.2-0.5,0.5-0.8,0.9-1.1H127C126.7,81.6,126.5,81.9,126.4,82.4z"/>
		<path fill="none" d="M123.3,108.5c-1.1,1.6-2.8,2.7-3.9,4.3C120.8,111.4,122.5,110.4,123.3,108.5z"/>
		<path fill="none" d="M128.3,113.9c-0.8,1.6-1.6,3-2.7,4.3C126.9,117.2,128.1,116,128.3,113.9z"/>
		<path fill="none" d="M127.2,98.4c0-1.7,0-3.4,0-5.1C126.5,94.1,126.5,97.6,127.2,98.4z"/>
		<path fill="none" d="M42.2,112.4c-0.8,0.2-1,1.3-1.9,0.8c-0.3,1.4,1.2,0.4,1.6,0.4c3.2,0,6.4,1,7.8,0.8
			C47.9,113.2,44.9,111.8,42.2,112.4z"/>
		<path fill="none" d="M44.1,117.4c-2.7,0.7-2.1-1.8-3.9-1.9c-0.5,4.1,6.5,3.2,5.8-0.4C44.6,115,45.5,117.4,44.1,117.4z"/>
		<path fill="none" d="M36,139.2c-1.1,0.2-1.8,0.8-1.9,1.9c2.2,1.2,2.9-2.1,3.5-3.9C36.3,137.2,36.2,138.3,36,139.2z"/>
		<path fill="none" d="M37.9,140.4c-1.3,0-1.5,1.1-1.6,2.3c0.5,0,0.5,0.5,1.2,0.4C38,142.6,37.9,141.4,37.9,140.4z"/>
		<path fill="none" d="M75.9,81.6c0.1-0.1,0.2-0.2,0.2-0.3h-0.4C75.6,81.4,75.6,81.6,75.9,81.6z"/>
		<path fill="none" d="M46.4,117.8c1.4,0.1,1.9-0.7,3.1-0.8C49.5,114.6,45.8,115.3,46.4,117.8z"/>
		<path fill="none" d="M34.8,138.4c0.1-0.1,0.7-0.2,0.8-0.4c0.9-1.5,1.3-3,1.6-4.7c0.5-2.9,0.2-6.3,0.4-9.3c0.1-1.7,1-3.6,0-5.1
			c-0.2,1.7-2,2.6-2.7,5.4c-0.8,3.5,0.3,8.4-0.4,11.3c-0.5,1.9-1.8,3.4-3.5,3.5c-2.1,0.1-3.2-1-3.5-3.5c0.7-0.6,1.1-1.5,2.3-1.6
			c0.9,0.5,2.2,0.7,1.9,2.3c-1-0.3-1.7-2-3.1-0.8c-0.6,2.7,1.9,3,3.5,2.3c3.3-5.1-4.1-7.5-5.8-3.1c-0.9,2.3,0.9,5.4,3.1,5.8
			c1.2,0.3,3.6-0.1,4.7-0.8C34.6,139.6,34.6,138.8,34.8,138.4z"/>
		<path fill="none" d="M39.1,117c-0.2,1.2,0.5,1.6,1.2,1.9C40.8,118.4,40,117.2,39.1,117z"/>
		<path fill="none" d="M38.7,145.8c0.3-0.3,1-2.7-0.4-2.3C37.3,143.8,38.1,145.7,38.7,145.8z"/>
		<path fill="none" d="M138.4,82.8c0,0.1,0,0.3,0,0.4c-0.1,0-0.3,0-0.4,0c-0.6,2.7-3.8,2.4-6.6,1.9c-1.4,2.4-3.5,6.1-2.7,9.3
			c1.4-0.1,1.1-2.1,2.7-1.9c2.5,0.3,4.1-0.6,5.8-0.4c1,0.1,1.7,1,2.7,1.2c0.9,0.2,1.7-0.1,2.7,0c1,1.3,3,1.7,5,1.9
			c0.9,1.3,2.2,2.2,2.7,3.9c2.4,1.4,4.7,1.5,5.4,3.9c0.6,2-0.3,3.2-1.6,4.3c-0.3,0.3-0.9,0.1-1.2,0.4s0,0.9-0.4,1.2
			c-0.4,0.3-0.7,0.2-1.2,0.4c-0.4,0.2-0.5,0.6-0.8,0.8c-0.6,0.4-1.4,0.6-1.9,1.2c-0.4,0.5-0.4,1.6-0.8,2.3c-1.2,2.4-2.9,3.5-2.3,7
			c0.5,1,2,1.1,1.9,2.7c0.1,1.5-1.4,1.4-1.2,3.1c2.1,5.9,4.7,11.6,7.8,16c0.9,1.3,1.6,2.8,2.9,3.7V81.3h-18.8
			C138.4,81.7,138.3,82.2,138.4,82.8z"/>
		<path fill="none" d="M36,116.6c-0.8,1.7-1.4,3.5-2.3,4.7c-0.5,0.6-0.6,0.9-1.6,1.2c0.3-1.5,0.4-2-0.4-3.1
			c-1.5-0.2-1.8,0.8-2.7,1.2c-0.3,2.6,1.3,3.8,2.7,3.9c1.7,0.1,3.2-2.4,4.3-4.3c2.1-3.8,3.5-10,2.3-13.2
			C37.2,109.5,37,114.5,36,116.6z"/>
		<path fill="none" d="M13.8,205c0,0.7,0.1,1.2,0.4,1.6c1-0.1,1.5-0.6,1.6-1.6C15,204.2,14.8,204.9,13.8,205z"/>
		<path fill="none" d="M138.4,157.5c-0.6-0.3-0.7-1.1-0.4,0c1.4,0.6,2.4,1.5,3.5,2.3c0-0.1,0-0.3,0-0.4
			C141.1,158.9,139.6,158.1,138.4,157.5z"/>
		<path fill="none" d="M18.1,208.1c0.6,0,0.3-1,1.2-0.8c0.2,0.8-0.5,2.6,0.4,2.7c0-1,0-2.1,0-3.1C18.6,206.8,18,207.1,18.1,208.1z"
			/>
		<path fill="none" d="M155.5,171.1c-2-1.9-4.6-4.2-7-6.2c-1.1-0.9-2-1.7-3.5-2.7c-0.4-0.3-1-1.2-1.6-0.8c2.7,1.4,4.9,4,7.4,6.2
			c0.3,0.2,0.9,0.2,1.2,0.4c1.7,1.3,2.7,3.1,4.3,4.3c0.1,0.1,0.6,0.9,1,1.1v-0.6C156.8,172.7,155.9,171.5,155.5,171.1z"/>
		<path fill="#B32621" d="M41.8,90.2c0.8,0,1.6,0,2.3,0c0.2-2.2-1.1-7.1,2.3-7.8c1.9,1.3,2.7,3.8,2.7,7c0.6,0,1.3,0,1.9,0
			c0.5-2.9-1.8-5.6-3.1-8.1h-4.2C42.8,84,41.3,87.4,41.8,90.2z"/>
		<path fill="#F7CC00" d="M52.6,83.2c1,0.5,2-0.8,2.6-1.9H52c0.3,0.5,0.7,0.7,0.6,1.5C52.6,82.9,52.6,83.1,52.6,83.2z"/>
		<path fill="#B32621" d="M77.5,85.1c-0.5,1.5-1.3,3.3,0,4.3c1.9-0.6,1.3-3.7,1.9-5.4c0.4-1.2,1.9-2.2,3-2.7h-3c0,0.1,0,0.2,0,0.3
			C78.9,82.3,77.9,83.8,77.5,85.1z"/>
		<path fill="#B32621" d="M83.7,87.8c-0.1,0.6-0.7,2,0.4,1.9c0.9,0.5,1.3-1,1.6-1.9c0.4-1.9-0.2-4.9-0.8-6.6h-2.3
			c0.1,1.4,1.3,2.2,1.5,3.8C84.2,86.1,83.8,86.8,83.7,87.8z"/>
		<path fill="#B32621" d="M62,91c-6,0.7-13.5,0.9-18.2,1.9c-1.2,0.3-2.9-0.2-3.1,1.6c5.8,0.2,11.6-1.3,17.9-1.6
			c15.5-0.7,27.3,1.8,39.2,4.7c2.3,0.6,4.4,1.2,6.6,1.6c0.3,0.1,2,1.3,1.9-0.4c0.6-1.7-1.9-1.7-2.7-1.9c-1.5-0.5-3.1-0.8-4.7-1.2
			c-9-2.1-19.3-4.2-29.1-4.7C67.2,90.9,64.4,90.7,62,91z"/>
		<path fill="#B32621" d="M123.3,142.7c1.6,0.2,2.3,1.4,3.9,1.6c0-1.2-0.5-1.9-0.8-2.7C125,141.6,123.7,141.7,123.3,142.7z"/>
		<path fill="#B32621" d="M144.6,143.5c-1,2.1,1.4,3,3.1,3.5C147.5,145,147,143.3,144.6,143.5z"/>
		<path fill="#B32621" d="M153.6,145.4c0.1,2.1,1,4.8,1.2,7.4c0.2,2.3,0.4,4.9-0.8,6.6c-3-2.6-6.8-5.9-10.5-7.8
			c-0.4-0.2-0.8-1.4-1.6-1.6c-1.2-0.2-1.2,0-2.3,0.8c-0.2,1.5,1.8,2.1,2.3,2.3c0.1,0.1,0.2,0.7,0.4,0.8c0.4,0.3,1.1,0.5,1.6,0.8
			c4.7,3.5,8.8,7.5,13.4,10.9v-17C156.2,147.4,155.2,146.1,153.6,145.4z"/>
		<path fill="#B32621" d="M51.5,161.8c0.5-1.4,2.4-1.4,2.3-3.5c-1.5,0.1-3.7-0.4-4.7,0.4C48.5,159.6,50.6,161.1,51.5,161.8z"/>
		<path fill="#B32621" d="M56.5,160.6c1.1,0.8,1.6,4.3,3.1,3.5c-1-1.4-1.9-3-2.7-4.7c-2.1,0.1-2.7,1.8-3.5,3.1
			C55.1,162.5,54.9,160.6,56.5,160.6z"/>
		<path fill="#B32621" d="M40.2,161c0.1,1,0.6,1.5,1.6,1.6c0.9-0.3,1.2-1.2,1.6-1.9C41.9,160.3,41.7,161.3,40.2,161z"/>
		<path fill="#B32621" d="M92.6,164.1c-0.7-1.9-1-3.3-2.7-3.5c-3.8-0.4-4.7,7.3-3.9,11.3c4.5-1,10.1-1,10.1-6.6
			C95.3,164.6,94.5,163.7,92.6,164.1z"/>
		<path fill="#B32621" d="M66.6,166.1c-1-0.6-1.5-0.9-2.7-0.4C63.9,166.8,66.5,167.3,66.6,166.1z"/>
		<path fill="#B32621" d="M49.2,182.4c0.6-0.6,0.6-1.4,1.2-1.9c0.8-0.9,1.8-1.6,2.3-2.3c0.3-0.3,0.5-0.8,0.8-1.2c2-2.2,4.7-4,5.8-7
			c-4-2.2-11.1-2.4-16.3-1.2c0.3,1.2-0.4,1.4-0.4,2.3c0.4,0.5,1.1,0.8,1.2,1.6c-1.4,1.1,0.7,1.3,0.8,2.3c0,0.1-0.7,0.5-0.4,1.2
			c0.1,0.3,1.3,0.6,1.2,1.2c0.1,0.7-0.4,0.9-0.4,1.6c1.5,1.1,0.9,4.3,2.7,5.1C47.8,183.1,48.7,182.9,49.2,182.4z M45.3,171.1
			c2.2-0.4,6.7-0.1,9.3,0.4c0.4,1.6-1.7,3-2.7,4.3c-1.1,1.3-2,3.5-3.9,3.5C46.9,176.7,45.8,174.2,45.3,171.1z"/>
		<path fill="#B32621" d="M84.5,178.9c-0.7-1-1.5-1.8-3.5-1.6c-0.4-1.2-0.7-2.4-1.6-3.1c-5.8-0.5-4.4,6.2-5,10.9
			C78.6,183.9,84.5,184.3,84.5,178.9z"/>
		<path fill="#B32621" d="M148.5,219c2.5-0.2,5.9,0.5,7.8-0.4c0-10.3,0-20.5,0-30.7c-2.4-3.6-5.3-6.6-8.5-9.3
			c0.8,4.4,2.4,7.6,3.1,12.1C152.5,201,151.2,211,148.5,219z"/>
		<path fill="#B32621" d="M72.4,192.1c-0.6-1.1-1.9-1.5-3.1-1.9c-0.5-1.2-0.7-2.6-2.3-2.7c-4.2-0.6-4.8,5.8-4.7,10.9
			C66.9,197.4,72.1,197.2,72.4,192.1z"/>
		<path fill="#B32621" d="M60.4,203.4c-0.8-0.4-1.6-1-3.1-0.8c-0.6-1-0.9-2.2-2.3-2.3c-3.8-0.2-4.1,5.5-2.7,7
			c0.8,0.9,1.1,2.6,1.9,2.7C57.2,208.7,61.2,208.5,60.4,203.4z"/>
		<path fill="#B32621" d="M85.2,200.3c-0.4,1.3-1.5,2.2-2.3,3.1c-0.8,0.9-1.9,1.8-2.7,2.7c-0.8,1-1.5,2.1-2.3,3.1
			c-0.7,0.8-1.9,1.4-2.3,1.9c-0.2,0.3-0.1,0.9-0.4,1.2c-1.4,1.6-3.5,3.5-4.7,4.7c-0.3,0.3-0.1,0.9-0.4,1.2c-1.7,1.9-4.2,3.5-5,6.2
			c2.6,0.2,5.4-0.1,7.8,0c3.5,0.1,7,1.2,9.3-0.8c0.5-0.7-0.2-1.6,0-2.3c0.2-0.6,0.7-0.8,0.8-1.6c0.1-0.7-0.5-0.9-0.4-1.6
			c0.1-0.7,0.8-0.9,0.8-1.6c0-0.7-0.5-0.9-0.4-1.6c0.1-0.7,0.8-0.7,0.8-1.6c0-0.5-0.7-0.7-0.4-1.6c0.6,0,0.3-1,1.2-0.8
			c0.4-1-0.6-1.1-0.4-1.9c0.1-0.3,0.8-0.7,0.8-0.8c0-0.9-0.7-0.8-0.8-1.9c0.2-0.4,1.2-1.2,1.2-1.2c0.1-0.7-0.6-0.9-0.4-1.6
			c0.1-0.3,1.1-1,1.2-1.2c0,0.2,0-1.6,0-1.6C85.9,200.6,86,200.1,85.2,200.3z M79.4,222.1c-2.9,1.1-5.9-0.4-9.3,0
			c1.1-2.7,3.2-4.6,5-6.6c1.9-2,3.7-4.1,5.4-6.2c0.5-0.1,0.7,0.1,0.8,0.4C80.9,213.9,79.9,217.8,79.4,222.1z"/>
		<path fill="#171717" d="M80.6,209.2c-1.8,2.1-3.6,4.2-5.4,6.2s-4,3.9-5,6.6c3.4-0.4,6.4,1.1,9.3,0c0.5-4.3,1.4-8.2,1.9-12.4
			C81.3,209.3,81,209.2,80.6,209.2z"/>
		<path fill="#B32621" d="M147.7,220.9c0,0.5,0.1,0.9,0.8,0.8c1.1,0,2.4,0,3.9,0c1.3,0,3.4,0.6,3.5-0.8
			C154,220.2,149.6,220.3,147.7,220.9z"/>
		<path fill="#B32621" d="M146.6,223.6c0,0.5,0.1,0.9,0.8,0.8c2.7-0.4,7.1,0.9,8.5-0.8C153.6,223,148.9,223,146.6,223.6z"/>
		<path fill="#B32621" d="M155.9,226c-3.5,0-7,0-10.5,0c-1.3,2.1-2.5,4.3-3,7.3h13.5C156,231,155.7,228.2,155.9,226z"/>
		<path fill="#F7CC00" d="M89.5,85.9c2.2-1.4,4.8-3,7.8-3.1c4.4-0.1,7.6,2.8,9.7,5.5c0.3,0.2,0.7,0.3,0.8,0.8c1.4,0,1.7-1.1,2.7-1.6
			c0.6-1.3,1.6-1.3,0.4,0c2.3-2.2,5.5-3.4,7.3-6.2H88.5c0,0.1-0.1,0.2-0.1,0.3C89.2,82.5,88.1,85.5,89.5,85.9z"/>
		<path fill="#F7CC00" d="M74.8,84c0.4-0.8,0.8-1.5,1.2-2.3c-0.3-0.1-0.3-0.2-0.2-0.3H72C72.9,82.3,73.7,83.3,74.8,84z"/>
		<path fill="#B32621" d="M55.7,87.8c2.3-1.6,4.5-3.7,7.8-3.9c3.9-0.3,5.7,1.4,7.4,2.7c0.6,0.5,1.4,1.8,2.3,1.2
			c-2-3.1-5-6.5-9.7-6.2c-1.2,0.1-3.7,1-3.9,1.2C58,84.3,55.2,86.2,55.7,87.8z"/>
		<path fill="#F7CC00" d="M46.8,89.8c1.6-0.9,0.6-4.7-0.8-5.1C45.6,85.7,44.8,90,46.8,89.8z"/>
		<path fill="#F7CC00" d="M67,89c0.1-1.1,2.7,0.3,2.7-0.8c-1.4-0.8-3.5-2.6-5.4-1.6C64.8,87.8,66,88.3,67,89z"/>
		<path fill="#B32621" d="M100.4,88.2c1.1,0.5,1.9,1.4,2.7,1.9c0.3,0.2,0.9,0.2,1.2,0.4c0.3,0.2,0.5,1.1,0.8,0.4
			c-1.3-1.9-4.2-4.5-6.6-4.7c-3-0.3-6.3,1.3-8.2,3.1C93.4,88,97.5,86.9,100.4,88.2z"/>
		<path fill="#171717" d="M68.6,233c-0.6-0.1-1.1,0-1.5,0.3h4.2C70.6,233,69.7,232.8,68.6,233z"/>
		<path fill="#171717" d="M100.8,233c0,0.1,0,0.2,0,0.3h1.4C101.8,233,101.3,232.7,100.8,233z"/>
		<path fill="#171717" d="M52.6,83.2c0-0.1,0-0.3,0-0.4c-0.4-0.4-0.7-0.9-0.9-1.5H48c1.3,2.6,3.6,5.2,3.1,8.1c-0.6,0-1.3,0-1.9,0
			c0-3.2-0.8-5.7-2.7-7c-3.5,0.7-2.2,5.6-2.3,7.8c-0.8,0-1.6,0-2.3,0c-0.5-2.7,1.1-6.1,2-8.9h-3.1c0,0.1,0,0.2-0.1,0.3
			c-0.9,1.5-1.5,3.4-1.9,5.4c-0.9-0.6-1.5-1.7-1.6-3.1c-0.5-0.9-1.3-1.5-1.5-2.7h-1.1c3.7,5.7,4.2,15.4,3,24.5
			c-0.6,4.5-1.7,10.2-3.9,13.2c0,1.8-0.9-0.5-1.6-0.4c-1,0-2.2-0.2-2.7,0.4c-3.2,2.6,0.6,8.1,4.7,5.8c-0.2,0.9,0.5,2.8-0.4,3.1
			c0,0.1,0,0.3,0,0.4c0,1.6,0,3.1,0,4.7c-1.6-0.8-3-1.4-4.7-1.2c-3.3,0.4-4.7,3.9-3.1,7.4c0.3,0.7,1.8,1.3,1.2,2.3
			c-5.2,0.5-9.3,1.7-14,3.5c-0.4,0.2-0.9,0.7-1.2,0.8c-0.2,0.1-0.4,0.1-0.6,0.2v2.3c2.7-1,5.4-2,8.3-2.8c0.1,0,0.3,0,0.4,0
			c0.8-0.5,3.1-1.6,3.9-0.8c1.2-0.1-1,1.1,0.4,1.2c1.4-1.7,3.5-4.1,6.6-4.3c2.6-0.2,5.6,1,6.2,3.1c0.8,2.5-0.5,6.6-2.3,7.8
			c-2.5,1.6-7.3,0.9-8.2-1.9c-0.4-1.3,0.2-2.8,0.4-4.7c1.6-1.3,4.4-2.8,6.6-1.2c3.8,4.5-4.6,9.7-4.7,3.1c0.6-0.5,1-1.4,2.3-1.2
			c2-0.1,0.5,1.8,1.2,2.3c2.3-0.8,0.4-2.9-0.8-3.5c-1.2,0.2-2.2,0.7-3.1,1.2c-0.9,2.7-0.8,6,3.9,5.1c1.4-0.3,2.7-2.2,2.7-2.3
			c0.9-1.9-0.2-5.6-2.3-6.2c-4.4-1.3-7.6,3.2-7.4,6.2c0.2,2.7,3.2,5.5,7,5.1c4.1-0.5,6.4-6.2,7.8-10.1c-1.2-2.8-2.8-7.3-1.9-10.9
			c0-0.5,0-1,0-1.6c-0.1-4.4,0.2-8.3,0.8-12.1c4.1,0.3,6.6-0.9,9.7-1.6c0.1,2.9-2.8,2.7-4.3,3.9c1,1.5,3-1.4,3.5-0.4
			c0.2,3.5-2.6,5.8-1.6,9c1.6,1.8,5,1.7,5.8,4.3c1.4-3.3-4.1-2.9-5-5.1c0.3-2.1,1.2-4.9,1.9-7.8c0.6-2.5,1.7-5.1,1.9-7.4
			c0.3-3,0-5.6-1.9-7c-0.8-0.6-3.8-1.4-5-1.6c-1.4-0.1-2.6,0.8-3.9,0c-0.1-1.7,0.5-2.6,1.2-3.5c10.7-1.3,24.7-2.6,36.5-0.8
			c2.4,0.4,4.6,1.1,7,1.6c6.6,1.4,14.1,2.3,19.8,4.7c2,3.8,3.5,7.6,5.4,11.3c1.9,3.6,4,7.1,4.7,11.7c-2.6-3.4-3.8-7.5-5.8-11.3
			c-2-3.7-4.2-7.4-5.4-11.7c-0.7,3.3,1.5,5.7,2.7,8.2c0.6,1.2,1.3,2.6,1.9,3.9c1,1.9,1.6,3.9,2.7,5.8c1.2,2.2,2.8,4.8,3.9,7.8
			c0.5,1.5,1.3,4.1,1.2,7c-0.9-1.2-1.1-2.6-1.6-3.9c-2.1-5.8-5.6-11.7-8.5-17.5c-0.3-0.6-0.9-0.9-1.2-1.6c-0.2-0.5-0.1-1.4-0.4-1.9
			c-0.5-1.1-1.6-2-1.9-3.1c-0.6-1.7-0.1-3.6-1.2-5.1c-1.1,3.3,1,6.3,2.3,9c1.3,2.6,2.6,5.2,3.9,7.8c1.3,2.5,2.9,5.1,4.3,7.8
			c1.3,2.6,2.8,5.8,3.1,8.6c0.3,2.9,0.1,6.2-1.2,8.2c-0.3-1.6-0.2-6.1-0.8-8.9c-0.1-0.7-0.3-1.5-0.4-1.9c-0.7-2.3-2.3-4.4-3.5-6.6
			c-1.1-2.2-2-4.5-3.1-6.6c-0.6-1.1-1.3-2-1.9-3.1c-0.9-1.6-1.9-3.4-2.7-5.1c-0.5-1.1-0.6-1.9-1.2-3.5c-0.5-1.5-1-3.8-1.6-6.2
			c-0.8,7.6,3.5,12.4,6.6,18.3c1.4,2.7,2.8,5.4,4.3,8.2c0.8,1.5,1.3,2.2,1.9,4.3c0.8,2.5,1.7,8,0.8,12.1c-0.4,1.7-0.7,3.2-2.3,3.9
			c1.4-4.6,1.8-10,0.4-14c-0.7-2-1.7-4.7-2.7-6.6c-0.3-0.6-1.2-1.3-1.6-1.9c-0.4-0.8-0.4-1.6-0.8-2.3c-0.3-0.6-1.2-1-1.6-1.6
			c-0.2-0.4-0.2-0.8-0.4-1.2c-0.7-1.3-1.7-3.5-2.7-5.5c-0.7-1.4-1.8-2.6-2.3-3.9c-1.2-3.1-1.2-6.6-2.3-10.1c-0.8,2.9,0,5.8,0.8,8.2
			c0.7,2.2,2,4.5,3.1,6.6c1.4,2.7,3,5.3,4.7,8.2c1.5,2.5,3,5,4.3,8.2c1.2,3.1,2.1,5.7,1.6,10.9c-0.2,2.3-1.1,6.8-3.5,7
			c1-3.8,2.4-5.9,1.9-10.9c-0.6-6.7-4.4-11.7-7.8-17.1c-3.8-6.2-7-11.9-7-21.4c-1.6-0.1-1.2,1.9-1.2,2.7c0,2.1,0.7,4.1,1.2,6.2
			c1,4.4,3.8,8.6,6.2,12.4c0.3,0.4,0.5,1.1,0.8,1.6s0.9,0.7,1.2,1.2c0.6,1,0.9,2.4,1.6,3.5c0.2,0.4,0.9,0.8,1.2,1.2
			c2.9,5,5.1,16.1,0,21c-0.4-1.6,1.2-3.7,1.6-6.2c0.5-4.3-0.2-7.6-1.6-10.5c-1.7-3.7-4.6-7.7-7-11.3c-3.4-5.1-6.1-11.1-6.6-17.9
			c-0.1-2,0.9-3.5-0.4-4.7c-1.7,9.9,2.3,16.8,6.6,23.3c3.3,5.1,7.4,9.9,8.2,15.6c0.4,3.2,0,7.1-1.2,9.3c-0.5,1-1.7,2.4-2.7,2.7
			c3.1-5,3.3-11.5,0.8-16.7c-1.1-2.4-3-4.9-4.7-7.4c-0.4-0.6-1.2-1-1.6-1.6s-0.4-1.4-0.8-1.9c-0.8-1.2-2-2.2-2.7-3.5
			c-0.3-0.6-0.4-1.6-0.8-2.3c-0.3-0.6-1-1-1.2-1.6c-0.6-1.5-0.8-3.3-1.2-5.1c-0.8-3.5-1.2-6.6-1.6-11.7c-1.3,1.6-0.8,3.9-0.8,5.4
			c0.2,3.8,1.1,7.4,2.3,10.5c0.8,2,1.7,3.8,2.7,5.5c0.2,0.3,0.2,0.8,0.4,1.2c0.3,0.5,1.2,1,1.6,1.6c0.5,0.7,0.6,1.6,1.2,2.3
			c0.4,0.6,1.1,0.9,1.6,1.6c0.8,1.2,1.5,2.6,2.3,3.9c2.5,4,5.1,8.5,3.5,14.8c0,0.1-0.3,0.8-0.4,1.2c-0.4,1.2-1.7,4.2-3.5,4.3
			c2.5-3.4,3.7-8.9,2.3-13.2C99.7,139,96,135,93,130.3c-3.4-5.4-6.3-10.6-7-18.3c-0.3-3,0.4-6.1-0.8-7.8c-1,3,0,7.3,0,10.5
			c0,0.1,0,0.3,0,0.4c1.2,5.2,3.4,10.1,6.6,15.2c0.2,0.3,0.2,0.9,0.4,1.2c0.1,0.2,0.7,0.2,0.8,0.4c0.3,0.5,0.4,1.4,0.8,1.9
			c0.7,1,2,1.7,2.7,2.7c0.3,0.5,0.4,1.4,0.8,1.9c1.7,2.7,4.2,5.6,3.5,11.3c-0.5,3.8-2.4,6.6-6.2,7.8c0.4-1.4,1.6-2.2,2.3-3.1
			c1.7-2.1,3.4-5.1,2.3-9.7c-0.3-1.5-1.2-2.6-1.9-3.9c-0.5-0.8-0.8-1.9-1.6-2.7c-0.7-0.8-2.2-2.2-3.1-3.5c-0.2-0.3-0.1-0.8-0.4-1.2
			c-0.1-0.2-0.7-0.2-0.8-0.4c-0.3-0.4-0.1-0.9-0.4-1.2c-0.4-0.4-0.7-0.7-1.2-1.6c-0.2-0.4-0.6-0.5-0.8-0.8c-0.3-0.5-0.4-1.3-0.8-1.9
			c-0.6-1-1.3-2-1.9-3.5c-0.8-1.9-1.3-3.6-1.9-6.2c-0.8-3.3-1.6-8.2-1.2-14c-1.7,0.3-0.7,2.2-0.8,3.1c-0.3,3.1-0.3,6.8,0.4,10.1
			c0.3,1.5,1.1,2.8,1.6,4.3c0.3,0.8,0.1,1.6,0.4,2.3c0.2,0.6,0.9,0.9,1.2,1.6c1.2,2.5,2.3,4.8,3.9,7c3.3,4.7,7.9,8.8,8.5,13.6
			c0.5,3.9-1.2,7.9-3.5,9.7c-0.3,0.3-0.5,0.1-0.8,0.4c-0.4,0.4-2.3,1.5-3.9,1.2c0.6-1,2-1.1,2.7-1.6c2.2-1.4,4.4-4.7,3.9-9.3
			c-0.3-2.5-2.4-5-4.3-7.8c-1.6-2.3-3.6-4.8-5.1-7c-3.3-4.9-5.9-10.9-6.6-17.5c-0.4-3.5-0.3-6.4,0-10.5c-1.6,0.3-1.1,2.8-1.2,4.7
			c-0.3,7.2,1.2,13,3.5,17.9c0.5,1.1,1.3,2.1,1.9,3.1c0.4,0.6,0.4,1.4,0.8,1.9c0.3,0.4,0.9,0.7,1.2,1.2c0.3,0.4,0.1,0.8,0.4,1.2
			c0.2,0.2,0.6,0.2,0.8,0.4c0.3,0.4,0.5,1.2,0.8,1.6c1.8,2.3,5,6.1,6.2,9c2.2,5.3-1.6,11.7-7,11.7c-2.2,0-5-1.3-6.2-3.1
			c-0.7-1.1-1.6-3.7-1.6-4.7c0-3,2.6-6.5,5.4-7c5-0.9,8.4,3.9,6.6,9.7c-1.1,0.7-2,1.8-3.1,1.9c-2.2,0.4-4-0.7-5-1.9
			c-1.7-2-1.3-7.5,3.5-7c3.4,0.4,4.8,6.2-0.4,6.2c-0.7-0.6-1.4-1.2-1.2-2.7c1-1,1.8,0.1,2.7,0.4c0.2-2.6-3.8-1.6-3.9,0
			c-0.1,4.3,7.1,3.9,7-0.8c-0.1-3.5-4.4-5-7-3.5c-0.7,0.4-2.5,2.1-2.7,3.1c-1.2,5.2,5.2,9,9.3,6.2c0.8-0.5,0.5-0.5,1.2-1.6
			c0.7-1.2,1.7-2,1.2-5.1c-0.4-2.3-2.5-4.9-4.3-7c-0.8-1-1.9-1.7-2.7-2.7c-0.2-0.3-0.1-0.8-0.4-1.2c-0.1-0.2-0.7-0.2-0.8-0.4
			c-0.3-0.5-0.4-1.4-0.8-1.9c-0.2-0.3-0.5-0.4-0.8-0.8c-0.4-0.7-1-1.7-1.6-2.7c-1.6-2.9-3.8-7.6-4.3-12.1c-0.5-4.8-0.3-8.6-0.4-14.4
			c-1.4,0.6-0.6,2.6-0.8,3.9c-0.1,0.7-0.4,1.3-0.4,1.9c-0.1,13.1,5.5,23.9,12,31.1c-4.6,1.2-4.7-5.4-7.8-7c0.4,3.2,4.1,4.9,3.5,7.8
			c-3.4-0.1-3.1-3.9-5.4-5.1c0.5,2.4,3.7,4,2.7,6.6c-2.5-0.1-2.1-3.1-3.9-3.9c-0.7,1.9,4,4.4,1.9,6.6c-2.1-0.3-1.9-3-3.5-3.9
			c-0.6,2.4,4,4.2,2.7,7.4c-1.9-1.3-2.5-4-4.3-5.4c0.2,1.8,1.1,3.1,1.9,4.3s2.2,2,2.7,3.5c-3.9,0.1-3.7-3.9-5.8-5.4
			c-1.1,1.7,2.8,3.5,1.6,5.4c-2.6,0.2-1.8-2.8-3.5-3.5c-0.2,1.9,2.1,2.9,0.8,4.7c-2.1,0.3-1.2-2.4-2.7-2.7c-0.2,1.8,1.8,2.9,0.8,4.3
			c-1.7-0.3-1.2-3-2.7-3.5c0.1,3.2,2.8,4.8,1.6,8.2c-2.2-1.4-2.3-5-3.9-7c-0.4,1.7,0.7,4.3,1.9,6.2c1.6,2.5,3.8,5.3,7,5.8
			c0.8,0.1,1.9,0.2,2.7,0c2.2-0.5,4.4-4.2,3.5-7c-0.6-1.8-3.2-3.9-5.8-2.7c-0.9,0.4-1.4,1-1.9,1.6c-0.6,0.7-0.8,4.7,1.2,5.4
			c1.9,0.7,3.9-0.3,3.9-2.7c-0.1-1.1-0.7-1.7-1.9-1.5c-0.8,0.4,1.8,2,0.4,3.1c-1.4,0.7-2.1-0.1-3.1-0.8c-1.2-5.7,8.4-5.8,6.6,0.8
			c-0.2,0.8-1.8,2.4-2.7,2.7c-2.7,0.8-6.3-0.9-6.6-3.9c-0.1-0.8,0.2-2.9,0.8-3.9c0.6-1,2.8-2.6,3.5-2.7c1.6-0.4,4.1-0.1,5.4,0.8
			c1.2,0.8,2.7,4.2,1.9,7.4c-0.6,2.8-4,5.3-7.4,5.1c-3.9-0.3-6.7-2.7-8.2-5.1c-1.5-2.5-1.7-4.7-3.9-7.4c0.9,4.5,2.9,8,5.4,10.9
			c-2,0.5-4-1.9-5.1-3.9c-1.1-2.2-1.1-5.1-2.7-6.6c-0.6,3.2,2.3,6.3,3.1,9.3c-2.9-1.9-3.9-5.6-5.4-9c-1,1.8,1.1,3.9,1.2,5.8
			c-2.6-0.5-2-4.3-3.5-5.8c-1.1,0.3,0.2,1.3,0,1.9c-2.1,0.1-1-3.1-3.9-2.3c-1.3,0.1-1.1,1.8-1.9,2.3c-1.1-0.2,1.5-1.8,0-2.3
			c-1.6,0.6-1.7,3.3-3.1,4.3c-1.1-1.7,1.7-2.7,1.2-5.1c-1.1,0.4-1.6,2-2.3,3.1c-0.8,1.2-1,2.5-2.3,3.1c-1-0.6,1.2-1.6,1.6-2.3
			c0.1-0.3-0.2-0.9,0-1.2c0.6-1.3,2-2.6,1.2-3.9c-0.8,0.5-1.1,1.5-1.6,2.3c-1,1.9-1.5,3.3-3.1,4.7c-0.6,0.5-1.4,1.4-2.3,1.2
			c2.1-2.8,5.2-4.7,5.4-9.3c-2,2.1-3,6-5.4,7.8c-0.3,0.3-0.8,0.2-1.2,0.4c-0.6,0.3-1.6,1.4-2.7,0.8c2.4-1.5,4.7-3.4,6.2-6.2
			c0.7-1.3,1.8-2.9,1.2-4.3c-1.3,1-1.2,2.6-1.9,3.9c-0.6,0.9-1.6,1.5-2.3,2.3c-0.1,0.1,0.1,0.6,0,0.8c-0.1,0.1-0.6-0.1-0.8,0
			c-1.2,1-2.1,2-3.5,2.7c-1.4-0.1-3.4,0.3-4.3-0.4c6.4-0.9,10.5-4.3,11.3-10.9c-1.3,0.4-0.9,2.3-1.6,3.5c-0.4,0.7-1.3,1.2-1.9,1.9
			c-0.3,0.3-0.1,0.5-0.4,0.8c-1.5,1.6-4.2,4.2-8.9,3.1c-0.6-0.1-3.4-2-3.9-2.7c-1-1.7-0.9-4.3-0.4-7c-0.8-0.1-1.2,0.3-1.2,1.2
			c-3.8,1.7-8,3-11.8,4.6v4.1c0.8,2,1.6,4.1,4.8,3.7c1.6-3.2-2.7-3.8-3.1-6.2c2.9-1.6,5.9-3.2,9.7-3.9c0.7,3.2,1.9,5.9,5,6.6
			c0.6,1,1.3,1.8,1.9,2.7c1.9,0.1,3.4,0.4,3.9,1.9c0.9-0.2,3.1,1.4,1.2,1.6c0,0.1,0,0.3,0,0.4c0.8,0.8,2.6,0.5,2.7,1.9
			c-0.7,0-0.8-0.5-1.5-0.4c-0.3,1.9,1.5,1.6,2.3,2.3c0.3,1.1-1.8-0.3-1.6,0.8c0.2,1.4,1.9,1.2,2.7,1.9c-0.1,0.5-1,0.3-1.6,0.4
			c-0.1,1.5,1.6,1.3,2.3,1.9c-0.1,0.6-1.2,0.1-1.2,0.8c-0.3,1.4,1.4,1,1.9,1.6c0.1,0.9-1.1,0.4-1.2,1.2c0.3,1,1.6,1,2.3,1.6
			c-0.2,0.5-0.5,0.8-1.2,0.8c0,1.3,1.1,1.5,1.9,1.9c0,0.7-1.3,0.3-1.2,1.2c0.4,0.7,1.4,0.7,1.9,1.2c0.1,0.7-0.3,0.7-0.8,0.8
			c0,0.6,2.3,1.8,0.4,1.9c-0.2,1.2,1,1.1,1.6,1.6c-0.1,0.5-0.7,0.3-1.2,0.4c-0.1,1.4,1.4,1.2,1.9,1.9c-1.7,0.4-1.1,2.2,0.4,2.3
			c0.1,0.7-0.3,0.7-0.8,0.8c-0.3,1.6,1.9,0.7,1.6,2.3c-0.5-0.5-0.6-0.2-1.2,0c-0.3,1.7,2.1,0.8,1.9,2.3c-0.5,0-1,0-1.6,0
			c0,1.3,1.1,1.5,1.9,1.9c-0.1,0.6-1.2,0.1-1.2,0.8c-0.1,1.4,1.8,0.8,1.6,2.3c-1.2-0.5-2.2-1.2-3.1-1.9c0.2-1.1-0.4-2-0.8-2.7
			c-0.8-1.4-2.4-2.8-3.9-3.5c-0.3,0.1-0.4,0.4-0.8,0.4c0.5,2.6,2,4.3,2.3,7c-5.3-0.4-9.2,2.3-12.8,2.3c-1.3-0.7,1.2-2.9-1.2-2.7
			c0-1.2,1.2-3.2-0.8-3.1c-0.1-0.9,0.1-1.5,0.4-1.9c-0.1-0.3-1-1.7-1.2-0.8c-0.9-0.1-0.2-1.7,0-1.9c-1.8-0.9,0-3.1-1.9-3.5
			c-0.3-1.1,0.6-1,0.4-1.9c-0.1-0.5-0.7-1-0.8-0.4c-0.5-0.7,0.3-4.3-1.6-3.1c-1-0.4,0.5-1.5,0-2.7c-0.3-0.8-1.3-1.7-1.6-0.4
			c-0.6-0.9,0.5-4.7-1.6-3.5c-0.8-1.3,0-5-2.3-3.5c0-0.9,0-1.8,0-2.7c-0.3-1.5-1.4,0-1.9-0.8c-0.3-1.1,0.6-1,0.4-1.9
			c-0.3-0.8-1.3-1.7-1.6-0.4c-1-0.5,0.2-3.3-0.8-3.9c-0.7,0-1,0.3-1.2,0.8c-1-0.5,0.2-3.3-0.8-3.9c-0.1,0-0.1,0.1-0.2,0.1v16
			c1.7-1.2,3.6-2.3,5.6-0.9c0,0.9,0,1.8,0,2.7c0.6,0.2,1,0.6,1.6,0.8c0,1-0.1,2.2,0.4,2.7c0.3,0.3,0.9,0.4,1.6,0.4
			c0.2,0.9-0.7,0.9-0.4,1.9c0.1,0.9,1.2,0.9,1.6,1.6c0.1,0.6-0.1,1.3,0,1.9c0.1,0.5,0.7,0.5,0.8,0.8c0.4,0.9-0.3,2.6,1.2,2.7
			c0.1,0.6-0.1,1.3,0,1.9c0.1,0.5,0.7,0.5,0.8,0.8c0.4,1-0.6,2.7,1.2,2.7c-0.6,1.3-0.1,2,0.8,2.7c-0.2,2.6,1.3,3.6,0.4,5.1
			c0,2.1-1.8-0.2-3.1-0.4c-1.5-0.2-2.1,0.1-3.5,0.4c-0.1,0-0.3,0-0.4,0c-3.3-1-6-2.7-8.3-4.7v14.7c0.1-0.1,0.1-0.1,0.2-0.3
			c1.1,0.1,1.7,0.7,1.6,1.9c-0.8,0.4-1.1,0.7-1.7,0.6v15.1c0.2-0.2,0.4-0.4,0.6-0.5c0.6-0.4,1.3-0.4,1.9-0.8
			c0.6-0.4,0.9-1.1,1.6-1.6c0.4-0.2,0.8-0.2,1.2-0.4c1.1-0.7,3-1.9,4.7-2.7c1.1-0.6,2.5-1.6,3.9-1.9c1.2-0.3,0.6-0.7,1.9-0.4
			c0.6,0.1,0.9,0.7,1.9,0.8c-1.1,2.5-3.2,2.3-5.4,3.5c-1.1,0.6-2.1,1.2-3.5,1.9c-0.2,0.1-0.9,0.2-1.2,0.4c-0.2,0.1-0.2,0.7-0.4,0.8
			c-0.6,0.4-1.3,0.4-1.9,0.8c-0.7,0.4-1.4,0.9-2.2,1.4h3c0.6-0.4,1.2-0.8,1.9-1c-0.1-0.3,0.2-0.4,0.4-0.4c1.8-0.5,4-2.7,6.2-3.5
			c0.8-0.3,3-1.7,2.7,0.4c1.3,0.9,0,2.2,0.8,3.9c-1.2-0.7-2.2-1.7-3.5-2.3c-3-0.2-4.3,1.1-5.4,2.7c-0.1,0.1-0.1,0.2-0.2,0.3h13.9
			c-0.4-0.7-1.3-1-2-1.4c-0.1-0.8,1.4-0.2,1.9-0.4c0.2-1.9-1.9-1.5-1.9-3.1c2.4,0.2,0.4-2.2-0.4-2.3c0.6-1.4,2.6-2,4.3-1.2
			c0.3,1.9-0.8,5.2,0.8,5.8c2.5-0.5,2.6-3.4,3.1-5.8c3.4-0.5,7.7-0.1,9.7-1.9c0-0.8,0-1.6,0-2.3c0.7-0.1,0.8,0.4,0.4,0.4
			c-0.3,1.6,1.9,0.7,1.6,2.3c-0.5,0-1,0-1.6,0c-0.1,0.9,0.8,1.4,0.8,2.3c0,0.6-0.4,0.7-0.4,1.2c0,0.3,0.8,0.7,0.8,0.8
			c0,1-1.6,1.6,0.4,1.9c-0.1,0.8-1.1,0.8-1.2,1.6c0.1,0.6,1.2,0.1,1.2,0.8c0.1,0.9-0.7,0.9-1.1,1.4H57c-0.3-0.2-0.7-0.5-1.1-0.6
			c-1.1-0.2-2.2-0.4-1.9-1.9c2.9-0.1,4.6,1,5.9,2.6h3.8c0.4-0.4,0.8-0.7,1.1-1c1.1-0.9,3.7-2.2,6.2-1.2c0.3-0.1,0.4,0.2,0.4,0.4
			c1.1,0.5,2.1,0.9,2.8,1.8h3.5c0.6-0.9,1.3-1.7,2.6-1.8c0.4,0.4,0.5,1.2,0.3,1.8h3.5c0.4-0.2,0.8-0.5,0.9-1c-0.3-1.1-1.2,0.2-1.9,0
			c0.1-1.3,1.2-1.7,1.9-2.3c0.3-0.6-1.8-0.6-1.6,0c-1.1-1.3,2.2-1.7,1.9-3.5c-0.3-1.1-1,0.5-1.9,0c0.4-1,1.6-1.3,2.3-1.9
			c-0.3-1.2-1-0.5-1.9-0.4c-0.1-1.7,2.1-1,1.9-2.7c-0.3-1.2-0.8,0.4-1.6,0c-0.1-1.7,2.1-1,1.9-2.7c-0.1-0.5-1.2-0.5-1.2,0
			c-1.3-1.2,2-1.1,1.6-2.7c-0.1-0.5-1-0.3-1.6-0.4c0.3-1.2,2-1.1,2.3-2.3c0.1-0.5-1.1-1.3-1.2-0.4c-1.4-1.4,2.2-1.1,1.6-3.1
			c-0.1-0.5-1-0.3-1.6-0.4c0.3-1.1,2.1-0.7,1.9-2.3c-0.1-0.5-1.2-0.5-1.2,0c-1.2-1.2,1.8-1.5,1.9-2.7c-0.1-0.5-1-0.3-1.6-0.4
			c0.5-0.8,1.1-1.5,1.9-1.9c-0.3-1.1-0.6-0.4-1.5-0.4c0.1-1.6,2-1.3,2.3-2.7c-0.1-0.5-0.7-0.3-1.2-0.4c0.3-0.7,3.1-2.6,0.4-2.7
			c0.5-1.1,2-1.1,2.3-2.3c-0.1-0.5-1-0.3-1.6-0.4c0.3-1.4,2.3-1.1,2.3-2.7c-0.3-1.1-1,0.5-1.9,0c0.3-1.5,2.7-0.9,2.7-2.7
			c0.3-0.6-1.8-0.6-1.6,0c-1.2-1.6,2.8-1.4,2.7-3.1c0.3-0.6-1.8-0.6-1.6,0c-1.4-1.8,2.8-1.3,2.7-3.1c-0.3-1.1-1,0.5-1.9,0
			c0-2.1,3-1.2,3.1-3.1c0.1-0.8-1.4-0.2-1.9-0.4c0.3-1.2,2.3-1.3,3.1-2.3c-0.3-1.2-1-0.5-1.9-0.4c0.1-2,2.9-1.2,3.1-3.1
			c-0.4-1.5-1.2,0.1-2.3,0c0.3-1.9,3.1-1.3,3.5-3.1c-0.3-1.1-1.2,0.2-1.9,0c0-1.9,2.7-1.2,3.1-2.7c-0.1-0.5-1-0.3-1.5-0.4
			c0.1-1.6,2.7-0.7,2.7-2.3c-0.3-1.2-0.8,0.4-1.6,0c0.3-1.8,3.2-1,3.1-3.1c-0.3-1.1-1,0.5-1.9,0c3.1-3.5,8.8-4.4,10.1-9.7
			c1.1-0.3,1,0.5,1.9,0.4c-0.6,2.7-3.4,6.7-0.4,8.6c2.9-0.3,0.5-5.9,2.3-7.4c4.7,0.9,7.5,3.7,11.3,5.5c-0.3,1.7,0.5,2.3,0.4,3.9
			c-0.5-0.1-0.6-0.7-1.2-0.8c-0.3,0.1-0.4,0.4-0.8,0.4c0.2,0.7,0.2,1.6,0.8,1.9c-0.4,1.3-0.9,0.3-1.6,0c-1.3,0.2-0.6,1.9-0.4,2.7
			c-2.4-1-1.7,1.1-1.6,3.1c-0.5-0.1-0.6-0.7-1.2-0.8c-1.1,0.7,0.2,2.1,0,3.1c-0.6,0.4-1.1-0.8-1.2-0.8c-1.5,0.2-0.3,1.9-0.4,3.5
			c-1,0.1-0.3-1.5-1.6-1.2c-1.6,0.9,0.1,2.2,0,3.9c-1.2,0.2-1-1-1.9-1.2c-0.3,1.6,0.4,2.2,0.4,3.5c-1.1,0.3-0.8-0.8-1.5-0.8
			c-1,1.1,0.3,2.2,0.4,3.5c-0.8-0.1-0.8-1.1-1.6-1.2c-1.8,1.2,0.6,2.4,0.4,4.3c-1.3,0.3-0.5-1.6-1.9-1.2c-1.3,1.3,0.9,2.5,0.8,3.9
			c-1.2,0.2-1-1-1.9-1.2c-0.1,1.5,0.9,1.9,0.8,3.5c-0.8-0.1-0.8-1-1.6-1.2c-1.1,1.3,1,2.6,0.8,4.3c-1.2,0.2-1.1-1-1.6-1.6
			c-1.7,0.7,0.6,2.7,0.4,4.3c-1.2,0.3-0.5-1.3-1.6-1.2c-0.3,0.1-0.4,0.4-0.8,0.4c0.1,1.4,1,2.2,1.2,3.5c-1.1,0.3-0.8-0.8-1.6-0.8
			c-1.3,1.2,0.6,2.4,0.4,3.9c-0.8-0.1-0.8-1.1-1.6-1.2c-0.3,2.1,1.3,2.3,1.2,4.3c-1.2,0.1-0.9-1.4-1.6-1.9c-2.1,1.1,0.9,2.3,0.4,4.3
			c-0.8-0.1-0.8-1.1-1.6-1.2c-1,1.1,0.8,2.8,1.2,3.9c-0.6,1.2-1.2-0.8-1.9-0.8c-1.4,1.5,1.4,2.2,0.8,4.3c-0.8-0.1-0.8-1.1-1.6-1.2
			c-1.3,1,0.9,1.9,0.8,3.1c-0.7,0.1-0.8-0.5-1.6-0.4c-0.2,1.8,1.5,1.9,1.6,3.5c-1.2,0.3-0.7-1.1-1.9-0.8c-0.4,1.8,1.6,1.3,1.2,3.1
			c-0.9,0.2-0.8-0.7-1.9-0.4c-0.1,1.7,1.3,1.8,1.9,2.7c-0.8,1.4-1.6-1.2-2.3,0c-0.3,2.1,1.9,1.7,1.9,3.5c-1.2,0.1-1.3-1.4-2.3-0.4
			c0.4,1.2,1.9,1.2,1.9,2.7c-0.9,0.2-0.8-0.7-1.9-0.4c0.2,1.4,1.4,1.7,1.9,2.7c-0.7,1.3-1.4-0.7-2.3-0.4c0.1,1.5,1.4,1.8,2.2,2.6
			h7.2c0.5-0.2,1-0.4,1.4-0.6c-0.1-0.3,0.2-0.4,0.4-0.4c5.3-2.7,9.6-6.5,12.8-11.3c2-3,3.7-6.2,4.7-10.1c0.8,1.5,1,3.7,2.3,4.7
			c-0.8,1.4-1.3,3.1-1.6,5.1c-2.2,1.4-5.1,2.1-7,3.9c-0.9,0.9-2.3,1.3-2.3,3.1c-0.9,1.1,0.4,2.2,0,3.9c-1.6,0.2-2.7,1-3.7,1.8h2.6
			c0.5-0.4,1.2-0.3,1.7,0h10.2c0.7-1.1,1.3-2.3,2-3.4c0.4-1.6,0.8-3.1,1.2-4.7c-0.5-3.3,3.3-2.4,3.1-5.4c0-0.8,0-1.6,0-2.3
			c0.5-0.5,1.8-0.2,2.3-0.8c2-1.1,2.8-3.4,2.7-6.6c-0.3-3.3-0.9-6.4-1.9-9c1-1.7,2.2-4.3,0.8-6.2c-0.2-1.2-1.5-1.4-1.6-2.7
			c1.6-0.3,2-1.9,2.7-3.1c-0.1-2.7-1.3-4.4-2.7-5.8c-1-1.8-3.2-2.5-3.9-4.7c0.4-3.7-1.2-5.3-2.7-7c-0.2-0.8,0.3-1,0.4-1.5
			c0.2-1.3-0.1-2.2-0.4-3.1c0.5,0.6,1.1,1.2,1.6,1.9c5.7,7.4,8.7,16.7,10.1,28.8c0,0.4,0,0.8,0,1.2c0,1.3,0,2.6,0,3.9
			c-0.6,2.8-0.5,6.2-1.6,8.6c0.1,1.9-0.9,2.7-0.8,4.7c-2.2,6.9-5.8,12.5-10,17.4h2c0.4-0.5,0.7-1,1.1-1.4c2-2.6,4-5.4,5.4-8.2
			c3.3-6.4,5.1-14.2,5.4-21.8c0.4-9.7-2.7-19.8-6.2-27.2c-1.9-4.1-4.1-7.6-7-10.9c-0.9-1.1-2.5-2.1-2.7-3.9c0.4,0,0.8,0,1.2,0
			c2.3,1.8,4.2,2.8,5.8,5.4c0.2,0.3,0.2,0.8,0.4,1.2c0.4,0.5,1.2,1,1.6,1.6c0.2,0.3,0.1,0.8,0.4,1.2c0.1,0.2,0.7,0.2,0.8,0.4
			c0.8,1.3,1.2,2.9,1.9,4.3c0.4,0.8,0.8,1.1,1.2,1.9c2.6,5.6,4.9,14.2,5.4,21c0.1,1.9,0.1,3.9,0,5.8c-0.5,10-3.8,19.8-8.5,26.8
			c-0.3,0.4-0.1,0.8-0.4,1.2c-0.1,0.2-0.7,0.2-0.8,0.4c-0.4,0.5-0.4,1.4-0.8,1.9c-0.1,0.1-0.2,0.2-0.3,0.3h3.1c0.4-3,1.7-5.1,3-7.3
			c3.5,0,7,0,10.5,0c-0.2,2.3,0.1,5,0,7.3h1.3v-59.8c-0.4-0.2-0.9-1.1-1-1.1c-1.6-1.2-2.6-3-4.3-4.3c-0.3-0.2-0.9-0.2-1.2-0.4
			c-2.5-2.2-4.7-4.9-7.4-6.2c-0.7-0.5-1.3-1-1.9-1.6c-1.1-0.8-2.1-1.8-3.5-2.3c-2.1-1.4-4.2-2.8-6.2-4.3c-1.2-0.6-2.2-1.4-3.5-1.9
			c-1.5-1-3.9-2.3-6.6-3.5s-6.8-1.7-5.4-4.3c0.3-1.4,3.3-0.7,3.9,0c0.1,0,0.3,0,0.4,0c1.4,0,2.1,1.3,3.1,1.6
			c1.1,0.3,1.9,0.6,3.1,1.2c1.6,0.8,2.7,1.4,3.9,3.1c0.4,0.6,1.3,1.2,1.9,1.9c0.4,0.5,0.5,1.3,0.8,1.6s0.9,0.1,1.2,0.4
			c1,0.9,0.3,0.7,1.9,0c0.1-0.4,0.8-0.3,0.8-0.8c0.5-0.1,0.7,0.1,0.8,0.4c1.8,0.8,3,2.2,4.7,3.1c0.3-0.1,0.4,0.2,0.4,0.4
			c1.6,1.2,3.1,2.3,4.7,3.5c3.3,2.7,6.6,5.4,9.5,8.6v-2.8c-4.6-3.3-8.7-7.3-13.4-10.9c-0.4-0.3-1.1-0.5-1.6-0.8
			c-0.2-0.1-0.3-0.7-0.4-0.8c-0.5-0.2-2.6-0.9-2.3-2.3c1.1-0.8,1.2-1,2.3-0.8c0.7,0.1,1.1,1.3,1.6,1.6c3.7,1.9,7.5,5.1,10.5,7.8
			c1.2-1.7,0.9-4.3,0.8-6.6c-0.2-2.6-1.1-5.3-1.2-7.4c1.7,0.6,2.6,2,3.7,3.2v-2.6c-1.3-0.9-2-2.5-2.9-3.7c-3-4.3-5.7-10.1-7.8-16
			c-0.2-1.7,1.3-1.6,1.2-3.1c0.1-1.7-1.4-1.7-1.9-2.7c-0.6-3.5,1.2-4.6,2.3-7c0.3-0.7,0.4-1.8,0.8-2.3c0.5-0.6,1.3-0.8,1.9-1.2
			c0.3-0.2,0.3-0.6,0.8-0.8c0.5-0.2,0.8-0.1,1.2-0.4c0.3-0.3,0.1-0.8,0.4-1.2c0.3-0.3,0.8-0.1,1.2-0.4c1.2-1.1,2.2-2.3,1.6-4.3
			c-0.8-2.4-3.1-2.5-5.4-3.9c-0.5-1.7-1.8-2.6-2.7-3.9c-2.1-0.3-4-0.6-5-1.9c-1-0.1-1.8,0.2-2.7,0c-1-0.2-1.7-1.1-2.7-1.2
			c-1.8-0.2-3.4,0.7-5.8,0.4c-1.7-0.1-1.3,1.8-2.7,1.9c-0.8-3.3,1.3-7,2.7-9.3c2.8,0.5,6,0.7,6.6-1.9c0.1,0,0.3,0,0.4,0
			c0-0.1,0-0.3,0-0.4c-0.1-0.6-0.1-1.1,0.1-1.5h-1.3c0.1,1-0.6,2.1-1.1,2.7c-1.4,0.7-3.5,0.3-5,0c-2.2,2.2-3.5,5.3-3.9,9.3
			c0,1.7,0,3.4,0,5.1c0.4,4.9,2.6,10.1,1.2,15.6c-0.2,2.1-1.4,3.3-2.7,4.3c-3.5,3.6-9.4-1.2-6.2-5.4c1.1-1.6,2.8-2.7,3.9-4.3
			c1.2-4.1-0.1-8.3-3.5-8.9c0.5-2.3,1.6-4.1,2.3-6.6c0.9-3.5,2.3-7.9,4.3-10.5c0.1-0.5,0.3-0.8,0.6-1.1h-1.4c-1,1.9-2.4,3.7-3.1,5.8
			c-0.9,2.5-1.1,5.1-1.9,7.8c-2.9,0.9-6.7-0.2-9.7-0.4c0.3-1.9,1.2-3.5,2.3-5.1c0.3-0.4,0.9-0.7,1.2-1.2c0.3-0.5,0.4-1.5,0.8-1.9
			c0.6-0.8,1.6-1.4,2.3-2.3c0.7-0.9,1.3-1.8,2-2.7h-1.4c-1.7,2.7-5,4-7.3,6.2c-1.1,0.5-1.5,1.9-3.1,1.9c-0.2-0.4-0.3-0.7-0.8-0.8
			c0-0.1,0-0.3,0-0.4c-2.1-2.6-5.3-5.6-9.7-5.5c-3,0.1-5.5,1.8-7.8,3.1c-1.4-0.4-0.3-3.4-1.2-4.3c0-0.1,0-0.2,0-0.3h-3.5
			c0.6,1.7,1.3,4.6,0.8,6.6c-0.2,0.9-0.7,2.5-1.6,1.9c-1.1,0.1-0.5-1.3-0.4-1.9c0.1-1,0.5-1.7,0.4-2.7c-0.2-1.7-1.4-2.5-1.5-3.8
			h-0.1c-1.1,0.4-2.6,1.5-3,2.7c-0.6,1.7-0.1,4.8-1.9,5.4c-1.3-1-0.5-2.8,0-4.3c0.4-1.3,1.4-2.8,1.9-3.5c0-0.1,0-0.2,0-0.3h-3.3
			c-0.1,0.1-0.1,0.2-0.2,0.3c-0.4,0.8-0.8,1.5-1.2,2.3c-1.1-0.7-1.9-1.7-2.7-2.7H55.6C54.8,82.6,53.4,84.5,52.6,83.2z M29.4,140.8
			c-2.2-0.5-4-3.5-3.1-5.8c1.7-4.4,9.1-2,5.8,3.1c-1.6,0.7-4.1,0.3-3.5-2.3c1.4-1.2,2.1,0.5,3.1,0.8c0.2-1.7-1.1-1.8-1.9-2.3
			c-1.2,0.1-1.6,1-2.3,1.6c0.3,2.5,1.4,3.6,3.5,3.5c1.7-0.1,3-1.6,3.5-3.5c0.7-2.9-0.4-7.8,0.4-11.3c0.7-2.8,2.5-3.8,2.7-5.4
			c1,1.5,0.1,3.3,0,5.1c-0.2,3,0.1,6.4-0.4,9.3c-0.3,1.6-0.7,3.2-1.6,4.7c-0.1,0.2-0.7,0.3-0.8,0.4c-0.2,0.4-0.2,1.2-0.8,1.6
			C32.9,140.7,30.6,141,29.4,140.8z M34,141.2c0.2-1.1,0.8-1.8,1.9-1.9c0.2-0.9,0.3-2,1.5-1.9C36.9,139,36.2,142.4,34,141.2z
			 M36.3,142.7c0.1-1.2,0.3-2.3,1.6-2.3c0,1,0.1,2.2-0.4,2.7C36.9,143.2,36.8,142.7,36.3,142.7z M38.3,143.5
			c1.4-0.4,0.7,2.1,0.4,2.3C38.1,145.7,37.3,143.8,38.3,143.5z M36,120.1c-1.1,1.9-2.6,4.4-4.3,4.3c-1.4-0.1-3-1.3-2.7-3.9
			c0.9-0.4,1.3-1.3,2.7-1.2c0.8,1.1,0.7,1.6,0.4,3.1c0.9-0.3,1.1-0.6,1.6-1.2c0.9-1.2,1.6-3,2.3-4.7c1-2.2,1.2-7.1,2.3-9.7
			C39.4,110.2,38.1,116.3,36,120.1z M40.2,119c-0.7-0.4-1.4-0.7-1.2-1.9C40,117.2,40.8,118.4,40.2,119z M40.2,115.5
			c1.7,0.2,1.2,2.7,3.9,1.9c1.4-0.1,0.5-2.4,1.9-2.3C46.7,118.7,39.8,119.6,40.2,115.5z M46.4,117.8c-0.6-2.5,3.1-3.2,3.1-0.8
			C48.3,117.1,47.8,117.9,46.4,117.8z M41.8,113.5c-0.4,0-1.9,1-1.6-0.4c1,0.5,1.1-0.6,1.9-0.8c2.7-0.6,5.8,0.8,7.4,1.9
			C48.1,114.6,45,113.5,41.8,113.5z M50.3,112.8c-1.9,0.4-4.7-1.5-7.8-1.2c-1.1,0.1-1.9,0.7-3.1,0.8c0-1,0-2.1,0-3.1
			C43.2,107.7,50.1,108.4,50.3,112.8z M14.2,226c-0.9,0.1-1.5-0.1-1.9-0.4c-0.1-1.4,0.6-2,1.9-1.9C14.7,224.1,14.7,225.5,14.2,226z
			 M14.2,206.5c-0.3-0.3-0.4-0.9-0.4-1.6c1,0,1.2-0.7,1.9,0C15.7,206,15.2,206.5,14.2,206.5z M19.6,210c-1,3.2,0,9.4-0.4,12.1
			c-2,0-1.8-2.6-1.9-4.7c-0.3-3.2-0.1-7.1,0.8-9.3c-0.1-1,0.5-1.3,1.6-1.2C19.6,207.9,19.6,209,19.6,210z M22.8,222.9
			c-2.1-0.2-1.9-2.8-2.3-4.7c0-2.1,0-4.2,0-6.2c1.1-1.8-0.8-6.5,2.7-5.8c0.5,1.9-0.6,4.1-0.8,6.6C22.2,216.3,23.4,220,22.8,222.9z
			 M83.7,155.9c1.4-0.2,1.7,0.6,2.3,1.2C85.5,158,83,157.5,83.7,155.9z M79.4,174.2c0.8,0.7,1.2,1.9,1.6,3.1c2-0.3,2.8,0.6,3.5,1.6
			c0,5.4-5.8,5-10.1,6.2C75,180.4,73.6,173.7,79.4,174.2z M66.6,166.1c-0.1,1.3-2.8,0.8-2.7-0.4C65.1,165.1,65.6,165.5,66.6,166.1z
			 M67,187.5c1.6,0.1,1.8,1.6,2.3,2.7c1.2,0.5,2.6,0.8,3.1,1.9c-0.3,5.1-5.6,5.3-10.1,6.2C62.2,193.2,62.8,186.8,67,187.5z
			 M56.9,159.4c0.8,1.6,1.7,3.2,2.7,4.7c-1.4,0.8-2-2.7-3.1-3.5c-1.7,0-1.4,1.9-3.1,1.9C54.3,161.2,54.9,159.6,56.9,159.4z
			 M49.2,158.7c0.9-0.7,3.1-0.2,4.7-0.4c0.1,2.1-1.8,2.1-2.3,3.5C50.6,161.1,48.5,159.6,49.2,158.7z M46,160.2
			c1.3,0,1.7,0.9,2.3,1.6c-0.9,1-2.1-1.9-3.1,0C44.4,162.7,45.9,160.8,46,160.2z M41.8,162.6c-1-0.1-1.5-0.6-1.6-1.6
			c1.4,0.3,1.7-0.7,3.1-0.4C42.9,161.4,42.7,162.3,41.8,162.6z M44.9,178.9c-0.1-0.7,0.5-0.8,0.4-1.6c0.2-0.5-1-0.9-1.2-1.2
			c-0.3-0.6,0.4-1.1,0.4-1.2c-0.1-1-2.2-1.3-0.8-2.3c-0.1-0.8-0.8-1-1.2-1.6c0-0.9,0.7-1.1,0.4-2.3c5.2-1.2,12.3-1,16.3,1.2
			c-1.2,3-3.9,4.8-5.8,7c-0.3,0.3-0.5,0.8-0.8,1.2c-0.6,0.7-1.5,1.4-2.3,2.3c-0.5,0.6-0.6,1.3-1.2,1.9c-0.5,0.5-1.4,0.7-1.6,1.6
			C45.8,183.2,46.4,180,44.9,178.9z M47.6,187.8c-1-2.4,2.1-2.9,2.7-4.3c1.4-3.1,5.4-5.8,7.8-8.6c1.1-1.3,1.6-3.4,3.5-3.9
			c0.8,2.5-2,4.1-3.5,5.8c-1.7,1.9-3.9,4.4-5.8,6.6C50.8,185.2,49.8,187.5,47.6,187.8z M48.8,204.2c-0.9-0.2-1.8-0.5-1.9-1.5
			C47.8,202.9,48.8,203,48.8,204.2z M47.6,205.7c-0.8-0.2-2.7,0.6-2.3-0.8C46.2,204.7,47.7,204.1,47.6,205.7z M53.4,213.9
			c-0.9,0.2-1.8,0.6-3.1,0.4c-0.2-0.6,0.5-2-0.4-1.9c-0.9,0.2,0,2.1-0.8,2.3c-1.6,0-3.1,0-4.7,0c0-0.6,0-1.3,0-1.9
			c-1.4-0.4-0.4,1.7-1.2,1.9c-2,0.5-3.4-1-4.7,0c1.4,1.9,6.8,0.3,10.1,1.2c1.2,0.3,2.6,1.1,2.7,2.3c-1.9,1.3-4.8,1.1-7.4,0.8
			c-0.3-0.5-0.5-1-0.4-1.9c-1,0-0.6,1.5-1.2,1.9c-0.9-0.2-2-0.8-2.7,0c0.5,1.1,2.4,0.7,3.9,0.8c0,0.6,0,1.3,0,1.9
			c0.8,0.1,0.2-1.4,0.4-1.9c1.7-0.1,3.1,0.3,3.9,1.2c0,0.3,0,0.5,0,0.8c-0.6,2-4.2,1-6.6,1.2c-2.3,0.2-6.2,0.3-9.3,0
			s-6.3-0.8-8.1-2.3c-0.5-4.8-0.9-11,1.2-14.4c5.5-1.3,9.7-3.8,15.9-4.3c1.1-0.1,1.3,0.7,1.9,1.2c2.3,0.6,1.1-2.3,3.1-1.9
			c1.2,1.2-0.5,2-1.2,2.7s-1.4,1.7-2.3,1.9c-1.6,0.4-3.9-0.3-5.8,0c0,1.1,1.7,1.1,2.3,1.2c2.1,0.3,4.9-0.3,7.4,0
			c2.4,0.3,4.8,0.7,5.4,2.3c-0.9,2.7-4.1,0.8-7,1.2c-0.5-0.5-0.2-1.8-0.8-2.3c-0.8,0.3-0.6,1.7-1.2,2.3c-2,0.2-2.9-0.7-5-0.4
			c0.4,1.6,2.7,1.1,4.3,1.2c2.4,0.1,8.4,0.4,11.3,0.8C53.4,212.6,53.4,213.3,53.4,213.9z M52.3,207.3c-1.4-1.5-1.1-7.3,2.7-7
			c1.4,0.1,1.8,1.3,2.3,2.3c1.5-0.2,2.2,0.3,3.1,0.8c0.8,5.1-3.2,5.3-6.2,6.6C53.4,209.9,53.1,208.2,52.3,207.3z M81.4,229.5
			c-1.1,0.6-4.7,0.7-5.8,0c-1.8,0-3.6,0-5.4,0c-0.5,0-1,0-1.5,0c-2.2,0-4.4,0-6.6,0c-2.5-0.3-6.1,0.7-7.4-0.8
			c-0.2-1.3,0.3-1.8,0.4-2.7c1.2-0.6,3.2,0,3.9,0c2.3,0,4.7,0,7,0c3.9,0.1,8.2-0.3,10.5,0.4c1.5,0.3,4.3-0.7,4.7,0.8
			C81.4,227.6,81.4,228.5,81.4,229.5z M86,202.6c0,0.2-1.1,0.9-1.2,1.2c-0.2,0.6,0.5,0.9,0.4,1.6c0,0-1,0.8-1.2,1.2
			c0.1,1.1,0.7,1.1,0.8,1.9c0,0-0.7,0.5-0.8,0.8c-0.2,0.9,0.8,1,0.4,1.9c-0.9-0.2-0.6,0.7-1.2,0.8c-0.3,0.8,0.4,1,0.4,1.6
			c0,0.9-0.7,0.9-0.8,1.6c-0.1,0.7,0.4,0.8,0.4,1.6c0,0.6-0.7,0.8-0.8,1.6c-0.1,0.7,0.5,0.8,0.4,1.6c-0.1,0.7-0.6,0.9-0.8,1.6
			c-0.2,0.8,0.5,1.6,0,2.3c-2.4,2-5.9,0.9-9.3,0.8c-2.4-0.1-5.1,0.2-7.8,0c0.8-2.7,3.4-4.3,5-6.2c0.3-0.3,0.1-0.9,0.4-1.2
			c1.1-1.2,3.3-3.1,4.7-4.7c0.3-0.3,0.2-0.9,0.4-1.2c0.4-0.6,1.6-1.1,2.3-1.9c0.9-1,1.5-2.1,2.3-3.1c0.8-0.9,1.9-1.8,2.7-2.7
			c0.8-0.9,1.9-1.8,2.3-3.1c0.7-0.2,0.7,0.3,0.8,0.8C86,201,86,202.9,86,202.6z M86,196.8c-1,1.3-2.5,3.5-3.9,5.1
			c-2.3,2.5-4.8,4.8-7,7.4c-0.6,0.7-1,1.6-1.6,2.3c-0.3,0.3-0.9,0.5-1.2,0.8c-0.3,0.4-0.1,0.8-0.4,1.2c-0.6,0.7-1.4,1.3-1.9,1.9
			c-1.5,1.7-3.3,3.8-5,5.8c-1,1.2-2.1,2.9-3.9,3.1c1.2-2.3,2.9-4.2,4.7-6.2c0.3-0.3,0.9-0.5,1.2-0.8c0.3-0.4,0.1-0.8,0.4-1.2
			c0.6-0.7,1.3-1.2,1.9-1.9c5.7-6.6,12.6-13.7,18.2-21C89,194.8,86.7,195.9,86,196.8z M86,171.9c-0.9-4,0.1-11.7,3.9-11.3
			c1.7,0.2,2,1.6,2.7,3.5c1.9-0.4,2.6,0.5,3.5,1.2C96.2,170.9,90.6,170.9,86,171.9z M126.4,231.8c-1.1-2,1.6-3,2.7-4.3
			c0.8-0.9,0.9-2.5,2.3-2.3C129.8,227.4,129.1,230.6,126.4,231.8z M147.4,224.4c-0.7,0.1-0.7-0.3-0.8-0.8c2.3-0.6,7-0.6,9.3,0
			C154.5,225.3,150,224,147.4,224.4z M152.4,221.7c-1.5,0-2.8,0-3.9,0c-0.7,0.1-0.7-0.3-0.8-0.8c1.9-0.6,6.3-0.7,8.2,0
			C155.8,222.3,153.7,221.7,152.4,221.7z M156.3,187.8c0,10.2,0,20.5,0,30.7c-1.9,0.8-5.3,0.2-7.8,0.4c2.7-7.9,4-18,2.3-28.4
			c-0.7-4.5-2.3-7.7-3.1-12.1C151,181.2,153.9,184.3,156.3,187.8z M130.3,201.8c-0.8,9.6-5.4,18.7-11.3,23.7
			c-0.6,0.6-1.2,1.1-1.9,1.6c-0.7,0.5-1.3,1.1-1.9,1.6c-2.9,2-6.1,4.1-9.7,4.3c-0.4-2.8,2.8-3.5,4.3-4.3c2.5-1.3,5-2.5,7-4.3
			c0.3-0.3,0.4-0.5,0.8-0.8c0,0,0.7-0.3,0.8-0.4c0.3-0.3,0.1-0.8,0.4-1.2s1.3-1.2,1.9-1.9c0.4-0.5,0.8-1.1,1.2-1.5
			c2.7-3.3,4.6-8.7,5.4-14.8c0.2-1.8,0.8-3.5,0.8-5.1c-0.1-4.1-1.4-8-2.7-11.3c-0.7-1.7-1.4-3.2-2.3-4.7c-0.8-1.2-2.6-2.5-1.9-4.3
			c0.3-0.2,0.7-0.3,0.8-0.8c0.3,0.2,0.7,0.3,0.8,0.8C127.8,184,131.1,192.2,130.3,201.8z M136.1,220.9c-0.6-0.3-0.6-1.3-0.8-1.9
			c-1.2-0.2-1.4,0.7-2.7,0.4c0.2-1.4,1-2.1,1.9-2.7c1.2,0,1.5,0.8,2.3,1.2C137.1,219.3,136.8,220.3,136.1,220.9z M136.5,214.3
			c-2.3-0.5-0.5-3.2,0-4.7c0.6-1.9,1.4-3.7,1.9-5.1C139.2,207.7,137.8,212,136.5,214.3z M141.1,198.4c-0.6-0.3-1.2-0.6-1.2-1.6
			c-1.4-0.1-1.2,1.4-1.9,1.9c-2.3-0.9-0.6-4.4,1.6-4.3C140.7,195.2,142.1,196.6,141.1,198.4z M138.4,189c-2.9,0.7-1.2-3.2-2.3-4.3
			C136.8,184.3,138.5,187.1,138.4,189z M136.1,193.3c-0.7,2-1.4,5.6,0.4,7c-1,1.9-2.3,3.4-3.5,5.1c-0.6,1.1-1.4,1.9-1.9,3.1
			c-0.9,0.9,0.4-1.3,0-2.3c0.6-1.1,0.4-3,0.8-4.3c0-1.9,0-3.9,0-5.8c-0.4-1-0.5-2.4-0.4-3.9c-0.3-0.4-0.4-0.9-0.4-1.6
			c0.9,0.7,1.2,2.2,2.7,2.3C134.2,193.3,135.1,193.3,136.1,193.3z M133.8,173.4c0.7,1.1,1.9,1.7,1.6,3.9c-1.7,0.3-1.7-1.1-3.1-1.2
			c-1.1-0.1,0.3,2.4-0.8,2.3c-1.6,0-1.1-2-1.2-3.5C131,174,131.8,173.2,133.8,173.4z M133,164.9c-0.7,0.7-2.1-1.2-3.1-1.6
			C131.2,162.1,131.9,164.7,133,164.9z M131.4,182.4c-0.5,1.7-0.8,3.6-0.8,5.8c-1.7-2.6-2.9-5.6-4.7-8.2c-0.8-1.6-2.2-2.4-2.7-4.3
			c1,0,1.4,0.7,1.9,1.2c0.9,0.2,2.8-0.5,3.1,0.4c0.4,0.3,0.6,0.7,0.8,1.2C129.7,180,131.8,180,131.4,182.4z M153.6,101.9
			c1.3,0.5,1.9,2.4,1.2,3.9C152.8,106,153.8,103.3,153.6,101.9z M151.2,100.7c1.9,0.6,1.2,5.7,0.8,7.4
			C150.4,107,151.6,103,151.2,100.7z M46,84.7c1.3,0.4,2.4,4.2,0.8,5.1C44.8,90,45.6,85.7,46,84.7z M107.4,112.4
			c0.1-0.9,1-0.8,1.9-0.8C109.4,112.7,107.9,113,107.4,112.4z M123.3,142.7c0.4-1,1.7-1.1,3.1-1.2c0.3,0.9,0.8,1.5,0.8,2.7
			C125.6,144.1,124.9,142.9,123.3,142.7z M152.4,155.9c-3.3-2.6-7.2-4.8-10.1-7.8c0.7-3.1,3.3-0.4,4.3,0.8c1.2,0.1,1.7,0.8,2.7,1.2
			c0.8-1.4-0.2-3.8-0.4-5.4c0.8,0,1.6,0,2.3,0c1.2,1.9,1.4,4.8,1.9,7.4C153,153.4,153.8,155.7,152.4,155.9z M144.6,143.5
			c2.4-0.2,2.9,1.5,3.1,3.5C146,146.5,143.6,145.6,144.6,143.5z M152.4,142.7c-2.5,1-5.3-1.1-7.8-1.6c-2.4,2.7-3.4,6.7-6.2,8.9
			c-0.6,0.4-2.1,0.7-2.7,1.6c-4.7-2.3-6.2-7.8-8.5-12.4c-2.4,0.2-4.8,2.5-7,1.6c0.9-0.8,0.8-2.6,2.7-2.3c2.1-0.8,4.1-1.6,6.2-2.3
			c1.1,2.3,2,4.7,2.7,7.4c1.5,1.4,1.9,3.8,3.9,4.7c1.6-0.4,2.2-1.7,3.1-2.7c1.4-1.9,2.4-4.3,3.5-6.6c-0.1-0.7,0.5-0.8,0.4-1.6
			c1.7,0.2,3,0.9,3.9,1.9c0.1,0,0.3,0,0.4,0C149.2,140,152.2,139.9,152.4,142.7z M127.9,131.8c0,0.4,0.5,0.3,0.8,0.4
			c0.2,1.4-0.3,2.3-1.6,2.3c0-0.4-0.5-0.3-0.8-0.4C126.2,132.7,126.7,131.9,127.9,131.8z M130.7,127.5c-1,0.1-1.3-0.5-1.2-1.5
			c1.7-0.9,4,0.5,6.6,0c2,0.7,3.1,0.1,4.3,0c1.7,0.2,4-0.4,5,0.4c0.1,0.8-0.1,1.2-0.8,1.2c-0.6,0.6-1.7,0.6-2.7,0.8
			c-1.6,0-3.1,0-4.7,0C134.9,128.3,132.5,128.1,130.7,127.5z M137.3,134.9c0,0.6,0,1.3,0,1.9c-0.5-0.1-0.7,0.1-0.8,0.4
			c-1,0.1-1.2-0.6-1.6-1.2c0.1-1,0.6-1.5,1.6-1.6C136.5,134.9,137,134.8,137.3,134.9z M148.1,134.1c0.3,1.6-0.4,2.2-1.9,1.9
			c-0.3-1.2-0.3-0.7,0-1.9C146.8,134.1,147.5,134.1,148.1,134.1z M146.6,123.6c-0.9,1.9-3.8,1.4-6.2,1.6c-2.6,0.2-4.9,0.3-7.8-0.4
			c-1.3-0.3-3.2-0.2-3.5-1.6c-0.1-2,3.7-1.8,5-1.2c3.4,0,6.7,0,10.1,0C145.7,121.9,146.5,122.4,146.6,123.6z M144.2,117.8
			c0.1,0.9,0.6,1.5,0.4,2.7c-2.3,0.4-7.1,0.8-10.1,0.4c-1.2-0.2-3.2-0.1-3.1-1.6c0.2-1.2,2.4-0.5,3.1-1.2c-1-1.4-4.1-0.6-5-1.9
			c1.1-4.6,0.8-9.7-0.4-14c1.3,0.2,0.8,2.2,1.2,3.1c0.4,1,0.8,1.3,1.2,1.9c1.5,0.2,2.7,0.7,3.5,1.6c2.1-0.3,3.5,0.2,4.3,1.2
			c-2.5,0.9-5.8-0.6-8.5-0.8c0.5,2.1,4,1.2,5.8,1.9c0.8,0.9,1.4,2,2.3,2.7c1.3-0.1,1.1-1.8,1.9-2.3c2.7,0.3,4.4-0.5,7-0.4
			C147,113.8,145.9,116.1,144.2,117.8z M134.2,103.8c-0.1,1.2-0.7,1.9-1.6,2.3c-1.8,0.3-2.4-4.3-0.4-4.3
			C131.6,103.8,133.4,103.2,134.2,103.8z M150.5,103c0.3,2.4-0.1,6-1.9,6.2c-0.7-2.4,0.8-5.6,0.8-8.6
			C150.2,100.4,150.3,102.1,150.5,103z M145.4,96c5.3-0.2,2.5,7.6,1.9,10.5c-0.5,0-1,0-1.6,0c-1.1,0.5,1.2,0.8,0.8,1.9
			c-0.6,1.4-2.9,2.9-4.3,1.2c0.8-3.7,4.1-5,3.5-10.1c0-0.1,0-0.3,0-0.4c-0.1,0-0.3,0-0.4,0C145.4,98.1,145.4,97.1,145.4,96z
			 M141.1,98c0-0.3,0-0.5,0-0.8c-0.7-1-0.9-2.5,0-3.1c1.1-0.1,1.2,0.9,2.3,0.8c1.4,3.3,1.4,8-0.4,10.9c-1.4,0.3-1.5-0.8-2.7-0.8
			c-0.3,1.3,2.2,1.7,1.2,2.3c0.1,1.9-2.4,1.9-3.1,0.8c0.5-2.3,2.3-3.7,2.7-5.8C141.4,101,140.5,99.6,141.1,98z M138.8,104.6
			c-1.3,0.3-1.5-0.6-2.7-0.4c-0.3,1.4,1.4,1,1.9,1.5c-0.4,1.1-1.1,2-2.7,1.9c-1.7-1.4,0-3.8,0.4-5.4c1.7,0.3,2.3-0.5,3.9-0.4
			C139.8,103.2,139.1,103.7,138.8,104.6z M136.5,99.5c0.9-0.8,2.9-0.3,2.3,1.5C137.4,101.2,136.1,101.2,136.5,99.5z M135.7,92.9
			c3.6-0.2,4,2.7,3.9,6.2c-1.5-0.4-2-1.6-3.5-1.9C136.3,95.2,134.8,94.5,135.7,92.9z M133.8,93.3c0.5,0.8,1.5,2,0.8,2.7
			c-2.1,0.3-3.2-0.4-3.9-1.6C130.9,93.3,132.2,93.2,133.8,93.3z M128.3,96.4c2.3-0.5,5.9,0.4,7.8,1.6c-0.4,1.2-0.8,2.3-1.2,3.5
			c-1.8-0.4-3.8-0.6-5.8-0.8C128.6,99.5,128.2,98.2,128.3,96.4z M124.5,120.5c0.8-0.2,1-0.8,1.6-1.2c0.4-0.3,0.8-0.1,1.2-0.4
			c1-1,1.4-2.6,3.5-1.2c-0.1,2.6-2.3,3.2-3.1,5.1c0.3,0.9,0.8,1.5,0.8,2.7c-0.8,1.4-1.5,2.9-2.3,4.3c-0.4,0.7-0.7,1.6-1.2,2.3
			c-0.4,0.6-1.2,1-1.6,1.5c-0.3,0.4-0.1,0.5-0.4,0.8c-0.1,0.1-0.4,0.4-0.4,0.4c-0.9,1.3-2.1,2.9-3.5,4.3c-0.6,0.6-0.9,1.6-1.9,1.2
			c-0.7-3-0.7-5.9-1.2-8.6c-1.2-7-5-11.8-7.4-17.5c3-1.3,6.1-2.4,10.1-2.7C115.5,116.2,119.3,121.9,124.5,120.5z M109.3,109.6
			c-0.4-0.1-2,0.4-1.6-0.8c4.3-0.1,8.4,0.1,12,0.8C117.4,110.4,112.4,110.4,109.3,109.6z M121,107.7c-0.3,0.2-0.7,0.5-0.8,0
			c-2.3,0.1-4.5,0.1-6.6-0.4c-0.4-0.1-2,0.4-1.6-0.8c2.8,0.3,6.1,0.1,8.5,0.8C121.3,107.2,121.4,107.7,121,107.7z M116.3,105
			c0.6-0.7,2.4,0,4.3,0C119.9,105.7,117,105.5,116.3,105z M121,103c-0.5,0.9-2.7,0.1-3.9,0.4C117.6,102.5,119.8,103.3,121,103z
			 M114,96.4c1.9,0.1,3.8-0.3,5,0.4c-0.2,1.4-1,2.1-1.6,3.1c-3.4-0.3-5.7-1.8-8.2-3.1C110.1,95.1,112.3,96.3,114,96.4z M108.2,98.4
			c3.1,0.3,5.2,1.5,7.4,2.7c0.3,1.2-1,1.8-1.6,2.3c-1,0.9-2.2,1.6-3.5,2.3c-1.1,0.6-2.3,1.8-3.9,1.6
			C106.4,103.6,107.2,100.9,108.2,98.4z M98.4,86.3c2.4,0.2,5.3,2.8,6.6,4.7c-0.3,0.7-0.5-0.2-0.8-0.4c-0.3-0.2-0.8-0.2-1.2-0.4
			c-0.8-0.5-1.6-1.4-2.7-1.9c-2.9-1.3-7-0.3-10.1,1.2C92.2,87.6,95.4,86,98.4,86.3z M95.7,92.1c0,0.1,0,0.3,0,0.4
			c-1.5-0.1-4.5-0.2-3.5-1.6c0.1,0,0.3,0,0.4,0c1.9-1.3,6.5-1.6,8.9,0c1.5,1,3.6,3.9,1.2,3.5c-1.2-0.5-2.7-0.7-3.5-1.6
			c0-0.1,0-0.3,0-0.4C98.7,90.7,97,91.7,95.7,92.1z M82.1,84.4c0.5,1.9,0.7,5.1-1.6,5.4C79.8,88,80.2,84.6,82.1,84.4z M98.8,95.6
			c1.5,0.3,3.2,0.6,4.7,1.2c0.8,0.3,3.3,0.3,2.7,1.9c0.1,1.7-1.6,0.4-1.9,0.4c-2.2-0.4-4.3-1-6.6-1.6c-11.9-2.8-23.7-5.4-39.2-4.7
			c-6.2,0.3-12,1.7-17.9,1.6c0.2-1.8,1.9-1.3,3.1-1.6c4.8-1.1,12.2-1.2,18.2-1.9c2.4-0.3,5.2-0.1,7.8,0
			C79.5,91.4,89.8,93.6,98.8,95.6z M60.4,89c-0.8,0-1.5,0-2.3,0c0.3-0.9,1.4-1,1.9-1.6c0.3-0.4,0.7-0.6,1.2-0.8
			c0.9,0,1.1-0.7,2.3-0.4c-1,0.7-1.7,1.7-2.7,2.3C60.9,89,60.6,89,60.4,89z M67.4,86.3c1,0.3,2,1.5,2.7,1.9c0.2,1.5-2.1,0.5-3.1,0.8
			c-1-0.7-2.2-1.2-2.7-2.3C62.9,85.5,66.2,85.9,67.4,86.3z M59.6,82.8c0.2-0.2,2.7-1.1,3.9-1.2c4.7-0.2,7.7,3.2,9.7,6.2
			c-1,0.6-1.7-0.7-2.3-1.2c-1.7-1.3-3.5-3-7.4-2.7c-3.2,0.2-5.5,2.3-7.8,3.9C55.2,86.2,58,84.3,59.6,82.8z"/>
		<path fill="#F7CC00" d="M144.2,122.1c-2.5,0.6-7.6,0.6-10.1,0c-1.3-0.7-5.1-0.9-5,1.2c0.3,1.3,2.2,1.2,3.5,1.6
			c2.8,0.7,5.2,0.6,7.8,0.4c2.4-0.2,5.3,0.4,6.2-1.6C146.5,122.4,145.7,121.9,144.2,122.1z"/>
		<path fill="#F7CC00" d="M147,139.2c-0.1,0-0.3,0-0.4,0c-1-0.5-2.1-1-3.1-1.6c-0.9-0.1-0.4,1.1-1.2,1.2c-1.1,2.3-2.1,4.7-3.5,6.6
			c0.3,0.6-0.4,1.2-0.8,1.6c-3.1,3.4-4.6-0.8-6.2-3.5c-0.7-2.7-1.7-5.1-2.7-7.4c-2.1,0.7-4.1,1.5-6.2,2.3c-2,0.5-1.1,2.5-2.7,2.3
			c2.2,0.9,4.6-1.3,7-1.6c2.4,4.6,3.9,10.1,8.5,12.4c0.6-0.9,2.1-1.1,2.7-1.6c2.9-2.2,3.8-6.3,6.2-8.9c2.4,0.4,5.2,2.5,7.8,1.6
			C151.9,140.3,148.6,140.6,147,139.2z"/>
		<path fill="#F7CC00" d="M147.7,159.8c0.1,0.2,0.2,0.7,0.4,0.8c-0.9-0.6-4-3-5-4.3c0-0.2-0.1-0.5-0.4-0.4c-0.4,0.7-1.6-1-2.3-1.2
			c-0.5-0.9-1.9-0.9-2.3-1.9c-0.1-0.3-0.3-0.5-0.8-0.4c0,0.5-0.7,0.4-0.8,0.8c-0.1,0.8-1,0.8-1.6,1.2c-3.1-2.7-4.8-6.1-8.2-7.8
			c-1.7-0.8-2.6-1.2-4.3-1.9c-0.7-0.3-1.4-0.5-1.9-1.2c-0.1,0-0.3,0-0.4,0c-1.2-0.1-2.9-0.9-3.9,0c-1.3,2.6,2.7,3.1,5.4,4.3
			c2.7,1.2,5.1,2.6,6.6,3.5c-0.8-0.9,0.2-0.9,0.4,0c1.5,0.1,1.9,1.2,3.1,1.6c0,0.1,0,0.3,0,0.4c2,1.5,4.2,2.8,6.2,4.3
			c-0.3-1.1-0.2-0.3,0.4,0c1.1,0.6,2.7,1.4,3.1,1.9c0,0.1,0,0.3,0,0.4c0.6,0.5,1.2,1.1,1.9,1.6c0.6-0.4,1.1,0.5,1.6,0.8
			c1.5,1,2.4,1.8,3.5,2.7c2.4,2,5,4.3,7,6.2c0.4,0.4,1.3,1.6,1.7,1.7v-4.4C154.4,165.3,151.1,162.5,147.7,159.8z"/>
		<path fill="#F7CC00" d="M24.3,146.2c0-0.1,0-0.3,0-0.4c-1.4-0.1,0.8-1.3-0.4-1.2c-1.6,0-2.3,0.8-3.9,0.8c-0.1,0-0.3,0-0.4,0
			c-2.4,1.2-5.4,2.2-8.3,3.2v3.4c3.8-1.7,8-3,11.8-4.6C23.1,146.5,23.5,146.1,24.3,146.2z"/>
		<path fill="#F7CC00" d="M153.2,152c-0.5-2.6-0.7-5.5-1.9-7.4c-0.8,0-1.6,0-2.3,0c0.2,1.7,1.2,4.1,0.4,5.4c-1-0.3-1.5-1.1-2.7-1.2
			c-1.5-0.2-1.7-1.7-3.1-1.9c-1.3,0.4,0.2,2.2-1.2,1.2c2.9,3,6.8,5.1,10.1,7.8C153.4,155.4,152.2,152.6,153.2,152z"/>
		<path fill="#B32621" d="M45.3,161.8c1-1.9,2.2,1,3.1,0c-0.6-0.7-1-1.6-2.3-1.6C45.9,160.8,44.4,162.7,45.3,161.8z"/>
		<path fill="#F7CC00" d="M144.2,211.2c1.1-2.3,1-5.8,1.6-8.6c-0.6-0.4-0.6-3.5,0-3.9c0-0.4,0-0.8,0-1.2c-1.4-12-4.4-21.4-10.1-28.8
			c-1.2-1.3-0.3,1-1.2,1.2c-0.1,0.5-0.5,0.7-0.4,1.5c1.5,1.7,3.2,3.3,2.7,7c0.8,0.9,1.9,2.2,3.1,3.5c1.1,1.2,2.8,2.3,0.8,1.2
			c1.4,1.4,2.6,3.1,2.7,5.8c-0.1,1.7-0.8,2.8-2.3,3.1c-0.2,1.2,2.1,2,1.2,2.7c1.4,1.9,0.2,4.5-0.8,6.2c1,2.6,1.6,5.7,1.9,9
			C144.1,210,143.7,211.1,144.2,211.2z"/>
		<path fill="#F7CC00" d="M13,200.7c2.1,1.7,4,2.7,6.6,3.9c0.1,0,0.3,0,0.4,0c1.8-2.3,5.2,0.8,6.6,0c0.9-1.5-0.6-2.4-0.4-5.1
			c-0.9-0.7-1.4-1.5-0.8-2.7c-1.7,0-0.7-1.7-1.2-2.7c-0.1-0.3-0.7-0.3-0.8-0.8c-0.1-0.6,0.1-1.3,0-1.9c-1.5-0.1-0.8-1.8-1.2-2.7
			c-0.1-0.3-0.7-0.3-0.8-0.8c-0.1-0.6,0.1-1.3,0-1.9c-0.3-0.7-1.4-0.6-1.6-1.6c-0.3-1.1,0.6-1,0.4-1.9c-0.7,0-1.2-0.1-1.6-0.4
			c-1.2,1-0.1-3.5-1.9-3.1c0-0.1,0-0.3,0-0.4c0-0.9,0-1.8,0-2.7c-2-1.4-3.9-0.3-5.6,0.9v3.2c0.6-0.4,1.2-0.6,2.1-1
			c0.3,0.1,0.4,0.4,0.8,0.4c1.5,3.1,3.2,5.8,4.7,9.3c0.2,0.4,0.7,0.9,0.8,1.2c0.4,0.9,0.4,2.1,0.8,3.1c0.8,2.3,2.6,5.7,1.6,9.3
			c-3.6-0.4-7.3-2.9-10.6-6.4v3.4c0.4,0.3,0.7,0.5,0.9,0.7C12.5,200.1,12.8,200.5,13,200.7z"/>
		<path fill="#171717" d="M107.4,182.8c-1.1,3.3-5.1,7-3.1,10.9c3.3,0.8,2.9-2.7,3.5-4.7c0.6-2.2,1.9-4.7,1.2-6.2
			C108.4,182.8,107.9,182.8,107.4,182.8z"/>
		<path fill="#F7CC00" d="M131.4,192.1c-0.1,1.5,0,2.9,0.4,3.9c0.6,1.1,0.6,4.8,0,5.8c-0.4,1.3-0.2,3.2-0.8,4.3
			c0.3,0.1,0.5,0.3,0.4,0.8c0.7-0.3,0.6-1.4,1.6-1.6c1.2-1.7,2.5-3.2,3.5-5.1c-1.8-1.4-1.1-5-0.4-7c-1,0.1-1.9,0.1-2.3-0.4
			C133.1,194,132.3,192.1,131.4,192.1z"/>
		<path fill="#F7CC00" d="M23.1,206.1c-3.5-0.6-1.6,4.1-2.7,5.8c0.6,1.2,0.6,5,0,6.2c0.4,1.9,0.2,4.5,2.3,4.7
			c0.6-2.9-0.6-6.5-0.4-10.1C22.5,210.3,23.6,208,23.1,206.1z"/>
		<path fill="#F7CC00" d="M121.3,227.5c-0.4,0-0.3-0.5-0.4-0.8c-2.6,1.9-5.3,4.4-8.2,5.5c-0.2,0.1-0.3,0.5-0.4,0
			c-0.2,0-0.5,0.1-0.4,0.4c-0.1,0.3-0.3,0.5-0.5,0.6h6.1c1-0.9,2.1-1.6,3.7-1.8C121.8,229.7,120.4,228.6,121.3,227.5z"/>
		<path fill="#F7CC00" d="M124.5,223.3c-0.1,0.6-0.6,0.7-0.8,1.2c1.9-1.8,4.8-2.5,7-3.9c0.3-1.9,0.7-3.7,1.6-5.1
			c-1.4-1-1.5-3.1-2.3-4.7c-1,3.9-2.7,7.1-4.7,10.1C126.3,221.2,123.4,222.9,124.5,223.3z"/>
		<path fill="#F7CC00" d="M143.1,215.1c-0.9,0.1-1.7,2.4-2.3,1.6c-0.5,0.5-1.8,0.2-2.3,0.8c0,0.8,0,1.6,0,2.3c1.1,2.4-3,2.9-3.1,5.4
			c-0.4,1.6-0.8,3.1-1.2,4.7c0,0.7-1,2.4-1.5,3.4h0.8c4.3-4.9,7.8-10.5,10-17.4C143.1,215.8,143.2,215.4,143.1,215.1z"/>
		<path fill="#F7CC00" d="M76.3,226.4c-2.3-0.7-6.6-0.3-10.5-0.4c-1.4,0.6-5.6,0.6-7,0c-0.6,0-2.7-0.6-3.9,0
			c-0.1,0.9-0.6,1.5-0.4,2.7c1.3,1.4,4.9,0.5,7.4,0.8c1.3-0.6,5.3-0.6,6.6,0c0.5,0,1,0,1.5,0c0.4-0.9,2.4-0.2,3.5-0.4
			c0.8-0.1,4,0.1,1.9,0.4c1.1,0.7,4.7,0.6,5.8,0c0.1-1,0.1-1.9-0.4-2.3C80.4,226.2,75.6,227.3,76.3,226.4z"/>
		<path fill="#F7CC00" d="M20.8,231.8c-0.3,0.3-1.1,0.6-1.2,0c-0.2,0-0.5,0.1-0.4,0.4c-0.3,0.3-0.7,0.7-1.1,1h2.1
			c0.1-0.1,0.1-0.2,0.2-0.3C18.8,233.8,20.6,232.5,20.8,231.8z"/>
		<path fill="#F7CC00" d="M28.2,227.9c-1.3,0.5-4.8,1.5-2.3,2.3c1.3,0.7,2.3,1.6,3.5,2.3c-0.8-1.7,0.6-3-0.8-3.9
			C28.2,228.7,28.3,228.2,28.2,227.9z"/>
		<path fill="#F7CC00" d="M55,231c-0.3,1.3,1.4,0.6,1.6,1.6c0.4,0.2,0.7,0.4,1.1,0.6H60C58.8,232,57.5,230.9,55,231z"/>
		<path fill="#F7CC00" d="M81,231.8c-1.3,0-1.7,0.9-2.5,1.4h2.4C81,232.9,81.1,232.5,81,231.8z"/>
		<path fill="#F7CC00" d="M72.1,231.4c0-0.2-0.1-0.5-0.4-0.4c-2.2,0-5.5,0.3-7,2.2h1.9c0.6-0.5,1.3-0.8,2-0.3c1.1-0.1,2,0,2.7,0.3h3
			C73.6,232.5,72.9,231.9,72.1,231.4z"/>
		<path fill="#F7CC00" d="M126.8,82.4c0,0.1-0.3,0-0.4,0c-2,2.6-3.3,7-4.3,10.5c-0.7,2.6-1.8,4.3-2.3,6.6c3.4,0.7,4.7,4.9,3.5,8.9
			c-0.8,2-2.5,3-3.9,4.3c-3.2,4.2,2.8,9.1,6.2,5.4c1.1-1.3,2-2.7,2.7-4.3c1.4-5.5-0.8-10.6-1.2-15.6c-0.6-0.8-0.6-4.3,0-5.1
			c0.3-4.1,1.7-7.1,3.9-9.3c1.5,0.3,3.6,0.7,5,0c0.6-0.5,1.2-1.7,1.1-2.7h-9.6C127.3,81.6,127,81.9,126.8,82.4z"/>
		<path fill="#F7CC00" d="M38.7,87.1c0.4-2,1-3.9,1.9-5.4c-0.2,0-0.3-0.2-0.3-0.3h-4.7c0.2,1.2,1,1.8,1.5,2.7
			C37.2,85.4,37.7,86.5,38.7,87.1z"/>
		<path fill="#F7CC00" d="M102.7,94.5c0-0.4,0.5-0.3,0.8-0.4c-1-3.6-7.9-5.3-10.9-2.3c-0.6-0.2,0-0.3,0-0.8c-0.1,0-0.3,0-0.4,0
			c-1,1.4,2,1.5,3.5,1.6c0-0.1,0-0.3,0-0.4c0.7-0.5,1.1-1.2,1.9-1.2c1.3,0,3.1,2.5,1.6,1.6c0,0.1,0,0.3,0,0.4
			C100,93.8,101.5,94,102.7,94.5z"/>
		<path fill="#171717" d="M64.7,108.1c3.6-0.3,6.6,0.9,9.3,1.6c0.1-0.8-1.2-1.1-1.9-1.6c-0.7-0.4-1.6-0.9-2.3-1.2
			c-3.3-1.4-5.5-1.6-8.5-0.8c-0.9,0.2-2.7-0.2-2.7,1.2C58.6,111.1,62.5,108.3,64.7,108.1z"/>
		<path fill="#171717" d="M59.2,113.9c1.8-0.6,2.8-1.8,4.7-1.9c3.1-0.2,6.1,2.6,8.9,3.1c0.3-0.1,0.5-0.3,0.4-0.8
			C68.6,112.5,61.3,108.1,59.2,113.9z"/>
		<path fill="#171717" d="M72.1,117.4c1.4-0.3,2,1,2.3-0.4c-1.4-1.1-3.4-1.3-5.1-1.9c-1.8-0.8-3.8-2.4-6.2-1.9
			c-1.1,0.2-1.9,1.3-2.7,1.9c-0.8,0.7-1.9,1.1-2.3,2.3c2.8,1.6,6.4,2.4,10.5,2.7C70.1,119.6,70.8,118.2,72.1,117.4z M59.6,117.4
			c0.1-0.5,0.7-0.6,0.8-1.2c1.2-0.1,1.3,1,1.6,1.9C61.1,118.1,60.4,117.7,59.6,117.4z M62.3,115.1c0.7,0.6,0.9,1.7,1.6,2.3
			c2.6,0.7,2.8-1.1,4.3-1.6C68.1,119.6,61.7,119.3,62.3,115.1z M69.7,116.3c0.3,0.2,0.7,0.3,0.8,0.8c-0.1,1.3-1.3,1.5-2.3,1.9
			C68.3,117.7,69.3,117.3,69.7,116.3z"/>
		<path fill="#F7CC00" d="M141.9,128.3c1-0.2,2.1-0.2,2.7-0.8c1.7-2.3-3.6-0.4-4.3-1.5c-1.1,0.1-2.3,0.7-4.3,0
			c-1.6,1.1-4.3-0.1-6.2,0c-1,1.5,2,1,0.8,1.5c1.9,0.6,4.2,0.7,6.6,0.8C137.9,127.7,141.3,127.7,141.9,128.3z"/>
		<path fill="#171717" d="M26.2,161.8c2.1-3.4-2.2-5.8-4.3-7.4c-0.1-0.3-0.3-0.5-0.8-0.4C20.9,157,21.8,162.2,26.2,161.8z"/>
		<path fill="#171717" d="M114.8,173.8c2.1-2.2,2.7-5.9,4.3-8.6c0.1-0.2,0.6-0.2,0.4-0.8c0-0.7-0.1-1.2-0.4-1.6
			c-3-0.3-4.4,3.7-5.4,5.4C112.2,170.8,112,173.6,114.8,173.8z"/>
		<path fill="#171717" d="M103.5,178.5c2.5-1.9,2.8-6,4.7-8.6c0.1-0.2,0.6-0.2,0.4-0.8c0.5-0.1,0.4-0.6,0.4-1.2
			c-1.5-1.2-3.1,0.3-4.3,1.6c-0.3,0.3-0.1,0.8-0.4,1.2c-0.6,0.8-1.2,1.2-1.6,1.9c-0.8,1.7-1.5,3.6-0.4,5.4
			C102.9,178.1,103.2,178.3,103.5,178.5z"/>
		<path fill="#171717" d="M24.3,177c0.6,0,1.3,0,1.9,0c0.2-0.5,0.4-0.9,0.8-1.2c-0.2-1.9-1.2-3-2.3-3.9c-0.9-1.2-1.3-2.8-3.5-2.7
			c-1,1.3,0.5,2.9,1.2,3.9C22.7,174.6,23.2,176.1,24.3,177z"/>
		<path fill="#171717" d="M51.9,175.8c1.1-1.3,3.1-2.7,2.7-4.3c-2.6-0.5-7.2-0.8-9.3-0.4c0.5,3.1,1.7,5.6,2.7,8.2
			C49.9,179.2,50.8,177.1,51.9,175.8z M51.9,173.1c-0.7,1.5-1.4,3-3.1,3.5c-0.5-1.1-1.1-2-1.2-3.5C49.6,172.7,49.8,173,51.9,173.1z"
			/>
		<path fill="#171717" d="M38.7,180.8c0.6-2.6-1.2-2.9-1.9-4.3c-1.6-0.6-1.4-3-3.9-2.7C31.7,177.5,34.2,182.8,38.7,180.8z"/>
		<path fill="#F7CC00" d="M124.5,177c0,1.3,2.3,2.3,1.6,3.1c1.7,2.5,3,5.6,4.7,8.2c0-2.2,0.3-4.1,0.8-5.8c-0.1-1.8-2.7-3-2.3-3.9
			c-0.2-0.5-0.4-0.9-0.8-1.2C126.8,177.4,125.5,177.4,124.5,177z"/>
		<path fill="#171717" d="M30.9,194.5c1.5,0.2,1.2,0.2,2.7,0c0.3-1.3,0.6-2,0.4-3.1c-0.2-0.7-1.2-1.4-1.6-1.9
			c-0.8-1.4-1.9-3.1-3.5-3.5c-0.4,0-0.5,0.3-0.8,0.4c-0.7,1.2,1,3,1.2,3.9C29.8,192.4,29.8,193.5,30.9,194.5z"/>
		<path fill="#171717" d="M96.1,201.8c0.1-2.4,2.2-5.8-0.4-5.8c-0.7-0.1-1.3,1.1-1.6,1.6c-0.4,0.8-0.5,2-0.8,2.7
			c-0.6,1.8-1.1,3.7-1.2,5.8c0.5,0.4,0.8,1,1.2,1.6c0.7,0,1.3,0,1.9,0C97,206.3,96,204,96.1,201.8z"/>
		<path fill="#F7CC00" d="M19.3,207.3c-0.9-0.2-0.5,0.7-1.2,0.8c-0.9,2.2-1.1,6.1-0.8,9.3c0.2,2.1-0.1,4.7,1.9,4.7
			c0.4-2.6-0.6-8.8,0.4-12.1C18.8,209.9,19.5,208.1,19.3,207.3z"/>
		<path fill="#171717" d="M89.9,230.6c-0.8,0-1.1,1.3-1.4,2.6h2.9C91.5,231.9,91.2,230.7,89.9,230.6z"/>
		<path fill="#F7CC00" d="M82.1,84.4c-1.9,0.3-2.4,3.7-1.6,5.4C82.8,89.5,82.6,86.3,82.1,84.4z"/>
		<path fill="#F7CC00" d="M62,87.5c-0.1-0.4-0.8-0.3-0.8-0.8c-0.5,0.2-0.9,0.4-1.2,0.8c-0.9,1.1-0.6,0.9,0.4,1.6
			c0.2,0,0.5-0.1,0.4-0.4C61,88.1,61.4,87.7,62,87.5z"/>
		<path fill="#171717" d="M20.4,192.9c-0.3-1-0.4-2.2-0.8-3.1c-0.1-0.3-0.6-0.8-0.8-1.2c-1.4-3.6-3.1-6.2-4.7-9.3
			c-0.4,0-0.5-0.3-0.8-0.4c-0.9,0.3-1.5,0.6-2.1,1v2.9c0.5-0.2,1-0.5,1.3-0.8c0.3,1,2.2,2.4,1.2,3.5c-0.7,1.1,0.5-0.8-0.4-1.2
			c-0.5-1-1.3-1.3-2.1-1v5.3c1.8,0.6,4.2,0.3,5.6-0.4c-0.4,2,1.7,2.2,1.9,3.9c-0.7,1.8-1.9,4.1,0,5.4c-0.7,1-1.2-1.6-1.9-1.9
			c0-1.4,1.4-1.4,1.2-3.1c-0.3-3-3.3-3.3-6.8-3.1v6.5c3.4,3.5,7,6,10.6,6.4C23,198.6,21.2,195.2,20.4,192.9z"/>
		<path fill="#171717" d="M59.2,120.1c1.6,0.9,2.9,2.1,5,2.3c-0.1-1.3-2.2-1.1-3.1-1.6C60.5,120.6,59.9,119,59.2,120.1z"/>
		<path fill="#171717" d="M55.4,129.9c1.5,0.2,1.7,1.7,3.1,1.9c1.4-0.1,1.8-1.3,2.3-2.3c0-0.1,0-0.3,0-0.4c-0.7-1.7-1.7-3-3.5-3.5
			c0.1,1.2,4.4,3.4,1.2,5.1c-1.3-0.3-1.3-1.8-2.7-1.9c-1.4,0-2.7,0.2-2.7,1.6C53.7,131.5,54,129.2,55.4,129.9z"/>
		<path fill="#171717" d="M49.2,140.8c0.9-0.1,1.5,0.3,2.7,0.4c1.9,0.1,4.5-0.5,6.2-0.4c2.1,0.1,6.3,2.6,5.8-1.6
			c-1.3-0.2-0.6,1.7-2.3,1.2c-3-0.7-4.9-5-8.5-2.7c-1.6,0.1-2.2-0.7-3.9-0.4c-1.3,0.9-2.2,2.2-3.5,3.1c-0.7,0.1-1.5-2.2-1.6-0.4
			C45.1,142.5,47.4,140.9,49.2,140.8z"/>
		<path fill="#171717" d="M50.3,143.5c0.8,2.5,5.6,1.6,6.2-0.4C54.6,143.9,52.3,144.7,50.3,143.5z"/>
		<path fill="#171717" d="M98.4,215.5c-0.7,0.2-0.9,1-1.2,1.6c-1.2,2.2-2.5,3.7-2.3,7c0.8,0.9,1.9,1.5,3.9,1.2
			c0.6-3.2,0.2-7.3,1.2-10.1c-0.5,0-0.5-0.5-1.2-0.4C98.5,214.8,98.4,215,98.4,215.5z"/>
	</g>
</g>
</svg>
