<?xml version="1.0" encoding="utf-8"?>
<!-- Generator: Adobe Illustrator 19.2.0, SVG Export Plug-In . SVG Version: 6.00 Build 0)  -->
<svg version="1.1" baseProfile="tiny" id="Layer_1" xmlns="http://www.w3.org/2000/svg" xmlns:xlink="http://www.w3.org/1999/xlink"
	 x="0px" y="0px" viewBox="0 0 170 244" xml:space="preserve">
<metadata><?xpacket begin="﻿" id="W5M0MpCehiHzreSzNTczkc9d"?>
<x:xmpmeta xmlns:x="adobe:ns:meta/" x:xmptk="Adobe XMP Core 5.6-c111 79.158366, 2015/09/25-01:12:00        ">
   <rdf:RDF xmlns:rdf="http://www.w3.org/1999/02/22-rdf-syntax-ns#">
      <rdf:Description rdf:about=""/>
   </rdf:RDF>
</x:xmpmeta>
                                                                                                    
                                                                                                    
                                                                                                    
                                                                                                    
                                                                                                    
                                                                                                    
                                                                                                    
                                                                                                    
                                                                                                    
                                                                                                    
                                                                                                    
                                                                                                    
                                                                                                    
                                                                                                    
                                                                                                    
                                                                                                    
                                                                                                    
                                                                                                    
                                                                                                    
                                                                                                    
                           
<?xpacket end="w"?></metadata>
<g id="Layer_9">
	<path fill="#FFFFFF" d="M17,0h136c9.4,0,17,7.6,17,17.1v209.8c0,9.4-7.6,17.1-17,17.1H17c-9.4,0-17-7.6-17-17.1V17.1
		C0,7.6,7.6,0,17,0z"/>
	<path fill="#171717" d="M81.6,69.8c0,0-2.5-3.4-3.9-7.5c-1.4-4-1.9-9.5-1.9-9.5s3.9,6.1,10.7,6c6.8-0.1,11.6-5.9,11.6-11.7
		c0-5.9-5.1-11.5-10.4-11.8s-6.9,0.9-6.9,0.9s4.2-3.6,4.1-10.5c-0.1-10.7-11.1-11-11.1-11s-11,0.3-11.2,11.2
		c-0.1,6.9,4.1,10.5,4.1,10.5s-1.5-1.2-6.9-0.9c-5.3,0.3-10.4,5.9-10.4,11.8S54.3,58.9,61,59c6.8,0.1,10.7-6,10.7-6
		s-0.5,5.4-1.9,9.5c-1.4,4-3.9,7.5-3.9,7.5h15.7V69.8z"/>
	<path fill="#171717" d="M43.4,69.5c-1.6,0-2.8-1.2-3.4-1.9c3.3-1.8,5.5-5.3,5.5-9.3V26.5c0-5.9-4.8-10.7-10.8-10.7h-8.3
		c-6,0-10.8,4.8-10.8,10.7v23.4l-4,0.1l0.2,6.8l3.7-0.1v1.6c0,5.9,4.8,10.7,10.8,10.7h6.2c0.5,0.7,1.1,1.4,1.5,2v-0.2
		c1.3,2,4.7,5.5,9.5,5.5h5.1v-6.8H43.4L43.4,69.5z M28,21.7h5.1c3.7,0,6.6,3.7,6.6,8.3v24.8c0,3.3-1.5,6.1-3.7,7.5
		c-2.9-3.8-6.6-8.6-7.8-9.9c-1.9-2.1-4.7-2.6-6.8-2.6V30C21.4,25.4,24.3,21.7,28,21.7L28,21.7z M28,63.2c-3.2,0-5.8-2.8-6.5-6.6
		c0.8,0.1,1.5,0.2,1.7,0.4c0.7,0.7,2.7,3.2,4.9,6.1L28,63.2L28,63.2z"/>
	<g>
		<path fill="none" d="M154.6,174.2c-4.6-5-9.9-10.3-13.8-15.4c-2.4-3.1-4.8-5.8-7.1-8.7c-2.6-3.4-5.4-6.8-7.9-10.3
			c-4.9-7-8.8-14.7-12.6-22.6c-1.9-4-3.5-8.3-5.1-12.7c-1.2-3.3-2.2-6.9-3.1-10.3c-0.4-1.3-0.5-3.2-1.6-3.2
			c1.5,9.4,5.3,18.7,8.7,26.1c0.5,1.2,1.7,2.7,2,3.6c0.3,0.8,0.1,1.6,0.4,2.4c0.1,0.2,0.6,0.6,0.8,0.8c0.2,0.4,0.1,0.8,0.4,1.2
			c3.8,6.6,8.1,13.8,12.2,19.4c0.5,0.6,1.1,1,1.6,1.6c1.2,1.5,2.3,3.6,3.2,4.8c0.2,0.3,0.6,0.5,0.8,0.8c0.8,1,1.4,2,2,2.8
			c0.2,0.3,0.6,0.5,0.8,0.8c1.5,1.9,2.9,3.4,4.3,5.2c3.9,4.8,7.9,9.2,11.8,13.5c1.7,1.8,3,3.4,4.7,4.8c0,0,0.3,0.5,0.6,0.8v-2.1
			c-0.4-0.2-0.7-0.4-1-0.7C155.9,175.8,155.3,174.9,154.6,174.2z"/>
		<path fill="none" d="M121.1,216.2c-1.8-1.5-3.4-3.8-5.9-4.4c-0.4,4.1-1.1,7.5-0.4,11.1c1.1,0.3,1-0.6,2-0.4
			c0.9-1.2-0.2-4.4,0.8-5.5c2,0.9,3.2,3.9,6.3,2.4C123.5,217.8,122,216.8,121.1,216.2z"/>
		<path fill="none" d="M143.6,225.7c1-0.2,1.9-1.1,2.8-2c1.7-1.6,3-2.9,3.2-5.6c-2.6,0.4-4.7,1.3-6.7,2.4
			C142.9,222.4,142.4,224.9,143.6,225.7z"/>
		<path fill="none" d="M149.1,211.4c0.5-0.5,0.5-1.5,0-2c-1.2-0.2-1.8,0.3-1.6,1.6C148.1,211.1,148.3,211.6,149.1,211.4z"/>
		<path fill="none" d="M127,208.2c-0.9,2.4-2,4.5-3.2,6.7c0.7,1.7,1.9,2.9,3.6,3.6c1.1-0.8,3-2.3,3.2-3.6c0.1-1.3-0.8-2.4-1.6-3.6
			C128.5,210.2,128.7,208.3,127,208.2z"/>
		<path fill="none" d="M108.5,209.4c-1.7-0.5-2.4,1.1-1.6,2C108.4,211.7,108.7,210.8,108.5,209.4z"/>
		<path fill="none" d="M138.9,210.2c-1.4,1.3-3,2.6-4.3,4c-1.4,1.4-3.1,2.9-3.5,5.2c3.2,1.2,3.5-1.7,5.9-2.4
			c0.1,2.9,0.6,5.5,3.6,5.5c-0.5-2.1-0.2-4.7-0.4-7.1C139.9,213.5,139.8,211.4,138.9,210.2z"/>
		<path fill="none" d="M105.4,218.5c0.7,2.6,1.9,4.7,3.2,6.7c1.2,0,2.4,0,3.6,0c0.3-1,0.5-2.1,0.4-3.6
			C110.5,220.2,108.2,219.1,105.4,218.5z"/>
		<path fill="none" d="M103.8,230.8c3,0,5.6-0.5,6.3-2.8c-3.9,0.1-8.5-0.4-11.8,0.4c0.1,2.2,1.7,3.6,2.9,4.9h4.6
			C105,232.6,104,232.1,103.8,230.8z"/>
		<path fill="none" d="M90.8,233.2v0.1h2v-0.1C92.2,232.7,91.3,232.7,90.8,233.2z"/>
		<path fill="none" d="M122.3,203.5c-0.4,0-0.8,0-1.2,0c-0.5,0.5-0.5,1.5,0,2C122.4,205.6,122.4,204.6,122.3,203.5z"/>
		<path fill="none" d="M153.5,231.6c0,0,4.2-1.1,1.6,0.4c0.7-0.4,2.1,0,2-1.2c-1.2-0.4-2.4,0.4-3.5,0.4c-0.2,0-0.5-0.5-1.2-0.4
			c-1.4,0.2-3.1,1-4.3,1.6c-0.5,0.2-1.1,0.6-1.7,0.9h0.7c0.1,0,0.2-0.1,0.3-0.1C148.6,232.5,152.7,230.6,153.5,231.6z"/>
		<path fill="none" d="M150.7,228c1.3-0.6,1.9-2.5,3.6-1.6c-0.1-0.9,1.1-0.4,1.2-1.2c-2.4,0.5-4.6,1.2-5.1,3.6
			c1.5-0.1,2.9,0,3.9,0.4C154,227.9,151.3,229,150.7,228z"/>
		<path fill="none" d="M135.7,203.5c-1.1-1.2-2.8,0.5-1.6,1.6C135.4,205.2,135.9,204.7,135.7,203.5z"/>
		<path fill="none" d="M154.6,226.8c0.5,1.1,2.1,0,2.8,0c0.1,0.6-0.4,0.7-0.4,1.2c0.1,0,0.3,0,0.4,0c0-0.2,0.1-0.4,0.2-0.5v-1.1
			C156.5,226.5,156,227.1,154.6,226.8z"/>
		<path fill="none" d="M99.1,218.9c-0.5,0-1.1,0-1.6,0c0,0.5,0,1.1,0,1.6C98.7,220.7,99.2,220.2,99.1,218.9z"/>
		<path fill="none" d="M62.4,108.4c0,0.5,0.2,0.9,0.4,1.2c1.2-0.3,2.4-0.5,2.8-1.6c-0.8-0.5-2.2-1.6-3.2-0.8
			c-0.4-0.7-0.9-1.5-1.6-0.8c0.1,1.3-0.5,1.9-1.6,2c-1.9,0-0.3-3.4-2.4-3.2C56.1,109.1,60.3,110.8,62.4,108.4z"/>
		<path fill="none" d="M118.4,89.8c1.6,2.3,4.4,5.6,6.7,7.9c-2-3-4.5-5.5-6.7-8.3C117.8,89.6,118.3,89.7,118.4,89.8z"/>
		<path fill="none" d="M56.9,109.6c0.7-0.7-0.1-1.2-0.8-1.6C55.5,108.6,55.6,109.8,56.9,109.6z"/>
		<path fill="none" d="M114.8,84.6c-1-1-1.7-2.4-2.8-3.4h-0.5C112.7,82.4,113.4,83.8,114.8,84.6z"/>
		<path fill="none" d="M19.8,183.7c1-1.2,2.9-3.6,4.3-3.2c-0.3,1.9-2.3,2.2-3.1,3.6c1.5-1,3.3-1.7,3.5-4c-0.7-0.6-1.8,0-2.4,0.4
			c-1.2,0.7-2.5,2.6-2.8,4c0.4,0,0.8,0,1.2,0C20.6,183.9,19.9,184.1,19.8,183.7z"/>
		<path fill="none" d="M21,186.4c-0.4,0.6-0.5,0.8-0.4,2c0.5,0.3,1.1,0.5,2,0.4c0.3-1.1-1.9,0.3-1.6-0.8c-0.2-2.8,2.7-2.6,4.3-3.6
			c0.5,0.4,1.5,0.4,1.6,1.2c0.2,1.4-1.2,1.2-1.6,2c1.2-0.3,2-0.9,2-2.4C25.9,183,21.9,185,21,186.4z"/>
		<path fill="none" d="M22.2,194c2.3,0.1,4.5,0.1,4.7-2C26.5,193.8,23.7,193.2,22.2,194z"/>
		<path fill="none" d="M26.9,191.2c0.1-0.9-1.1-0.4-1.2-1.2c-1.8,0.1-4.4-0.5-4.7,1.2C22.2,190.1,25.7,190.1,26.9,191.2z"/>
		<path fill="none" d="M148.7,158.7c-1.1,3.6,0.5,4.4,2,6.3c0.9,1.1,1.5,2.4,2.8,3.2c0,0.1,0,0.3,0,0.4c1,1.9,2.5,3.3,4.2,4.5v-28.5
			c-1.4,1.9-3.9,4.3-5.7,7.3C150.7,153.9,149.3,157,148.7,158.7z"/>
		<path fill="none" d="M127,100.9c2.3,3,5.3,6.2,7.9,9.5c0.4,0.5,0.4,1.1,0.8,1.6c0.3,0.3,0.9,0.5,1.2,0.8c0.4,0.6,0.4,1,0.8,1.6
			c0.1,0.1,0.7,0.3,0.8,0.4c0.3,0.8,1.4,1.9,1.6,3.2c0.8-0.9-0.4-1.8-0.8-2.4c-1.8-2.7-4.7-5.3-5.9-7.9c-0.1-0.1-0.7-0.3-0.8-0.4
			c-0.3-0.4-0.5-1.3-0.8-1.6c-0.7-0.8-1.7-1.2-2.4-2c-1.3-1.6-2.2-3.6-3.5-5.1C124.2,97.2,126.4,100.1,127,100.9z"/>
		<path fill="none" d="M142.8,106.8c1.6,0,3.2,0,4.7,0c0.1-1-0.2-1.6-0.8-2C148.6,107.6,143.7,105.6,142.8,106.8z"/>
		<path fill="none" d="M128.6,87.8c0.1-0.6,2.1-2.5,1.2-2.8c-0.5,1.2-1.3,2.1-1.6,3.6C129.4,88.7,128.5,88.3,128.6,87.8z"/>
		<path fill="none" d="M143.2,119.5c-2.9,0.5-5.8,1.7-7.1,3.2c6.8,7.5,14.5,14.2,21.5,21.6V120C153.4,119.1,147.3,118.8,143.2,119.5
			z"/>
		<path fill="none" d="M142.8,85.4c0,0.1,0,0.3,0,0.4c-0.1,1.8,0,3.4,0.8,4.4c0,1.5,0.4,2.5,0.8,3.6c1.6,6,4.8,13,7.9,17.4
			c0.7,1.1,1.7,1.8,2.4,2.8c0.7,0.9,1.2,2.3,2,3.2c0.2,0.2,0.6,0.7,1,1v-37h-15.2C142.4,82.8,142.1,84.6,142.8,85.4z"/>
		<path fill="none" d="M131.9,81.2h-0.5c-0.1,0.2-0.1,0.4-0.1,0.7C131.7,81.8,131.9,81.5,131.9,81.2z"/>
		<path fill="none" d="M140.8,82.3c0-0.4,0-0.7,0-1.1h-0.4C140.3,81.7,140.2,82.2,140.8,82.3z"/>
		<path fill="none" d="M151.1,208.2c-1.7-0.7-3.7-3.1-5.1-2.8c2,0.7,3.2,2.3,5.1,3.2C151.1,208.5,151.1,208.4,151.1,208.2z"/>
		<path fill="none" d="M41.9,215.4c0.5,0.7,0.5,1.7,1.6,2c-1.5-2.1-2.9-4.3-4.7-5.9C39.2,213.1,40.9,213.9,41.9,215.4z"/>
		<path fill="none" d="M66.7,84.2c-0.2,0.2-0.9,0.3-1.2,0.4c-0.2,0.1-0.5,0.6-0.8,0.8c-1.7,1.1-4.8,2.1-5.9,3.2
			c-1.8,1.8-4.7,3.6-4.7,6.7c0.7,0.7,1-0.6,1.2-0.8c1.4-1.2,2.9-2.7,3.9-3.6c0.3-0.3,0.8-0.1,1.2-0.4c3.3-2.3,8.3-4.8,9.9-8.3
			c0.2-0.4,0.3-0.7,0.4-1.1H69C68.1,82.1,67.8,83.3,66.7,84.2z"/>
		<path fill="none" d="M57.3,86.2c-1.2,1-1.4,2.1-2,3.2C55,90,53.9,90.1,54.5,91c1.1,0.3,1.3-1.1,2-1.6c1.8-1.5,3.9-2.5,5.9-3.6
			c2.1-1.2,4.7-2.5,5.6-4.6h-3.3c-1,0.8-1.9,1.7-2.7,2.2C60.4,84.5,58.4,85.2,57.3,86.2z"/>
		<path fill="none" d="M69.9,84.6c-2,2.5-6.3,4.4-8.7,5.9c-3,1.9-5.6,5-7.5,7.5c0.5,3.2-1.2,8.6,1.6,9.5c1.5-1.4-0.9-3.7-0.4-4
			c1.5,1.3,3.8,0.7,5.5,1.2c1.2,0.3,2.1,1.2,3.2,1.6c1.3,0.5,2.9,0.4,3.5,1.6c-1.2,1.1-3.2,2.1-5.5,2.4c-2.4,0.3-5.3-0.7-7.1,0.4
			c-0.3,1.1,0.6,1,0.4,2c0,0.1,0,0.3,0,0.4c-0.3,1-0.8,3.1,0,4c0,0.1,0,0.3,0,0.4c0,2.6-0.7,6.2-0.4,8.7c0.4,3.1,2.1,6.5,3.2,8.7
			c0.4,0.8,0.4,1.8,0.8,2.4c0.5,0.8,1.4,1.2,2,2c0.1,0.2-0.1,0.6,0,0.8c0.1,0.1,0.7,0.3,0.8,0.4c0.1,0.2-0.1,0.6,0,0.8
			c0,0.1,0.7,0.3,0.8,0.4c2.2,2.8,3.1,3.8,5.1,5.2c0.6,0.4,1.3,1.1,1.6,1.2c4,1.7,10.4,0.3,13.4-1.2c1.7-0.8,3-1.9,4.3-2.8
			c1.9-1.3,3.5-2.8,5.1-4.4c3.3-3.1,7-7.3,7.5-11.9c0.3-2.7-0.4-4.9-0.8-6.7c-0.5-2.2-1.3-5.7-2-7.5c0-0.1,0-0.3,0-0.4
			c0-2.3-0.5-4.2-0.8-6.3c-0.3-2.7-0.1-5.9-0.8-7.5c-0.6-1.5-2.2-2.4-3.2-3.2c-0.2-0.1-0.2-0.6-0.4-0.8c-0.3-0.3-0.8-0.1-1.2-0.4
			c-0.5-0.3-0.8-1-1.2-1.2c-1.9-1.1-3.7-1.4-5.5-2.4c-0.6-0.3-0.9-0.8-1.6-1.2c-0.5-0.3-1.5-0.4-2-0.8c-1.5-1.2-2.8-2.9-3.6-4
			c-0.5-0.7-1.2-1.6-1.6-2.4c-0.2-0.4-0.2-1.2-0.4-1.8h-2.6c-0.6,0.9-0.8,2.1-1.3,2.6C70,84.1,70.1,84.3,69.9,84.6z M58.4,102.5
			c-0.6-0.2,0-0.4,0.4-0.4c1.8-0.3,2.5,0.6,3.9,0.8C61.6,104,60.4,101.9,58.4,102.5z M62.4,113.2c-1,0-2.1,0-3.2,0
			c-0.7,0.1-0.8-0.4-0.4-0.4c2.2,0.4,2.9-0.8,4.7-0.8C64.2,113.4,62.2,112.2,62.4,113.2z M65.1,119.5c0.2-0.6,0.2-1.3,0.4-2
			c0.5-1.4,0.8-2.5,1.2-4c0.4-1.7,1.7-6.5,1.2-7.5c0-0.1,0-0.3,0-0.4c-0.3-3.8-2.8-6.4-6.3-6.7c-2.7-0.3-4.9,1.3-7.5,1.6
			c1-2,2.7-3.6,4.7-4c6-1.1,10.4,4.1,9.9,10.7c0,0.4,0,0.8,0,1.2c-0.7,2.5-1.4,4.9-2,7.5c0,0.1,0,0.3,0,0.4c-0.8,2.4-1.9,4.4-2,7.5
			c1.5,1.2,6.1,1.5,4.7,4.4c-0.7-0.6-0.9-1.7-1.6-2.4c-1.6-0.3-3.5-0.9-3.9-2.8C63.7,122,64.6,121.1,65.1,119.5z M67.5,138.1
			c0-0.1,0-0.3,0-0.4c0.1-0.4,0.4-0.6,0.8-0.8c-0.1,1,0.6,1.2,0.8,2c0.9,0.2,2.9-0.5,3.2,0.4C70,139.5,68.5,139.8,67.5,138.1z
			 M72.2,141.3c-0.7,0.1-2.6,1.1-2.4-0.4c1.2,0,2.4,0,3.6,0C73.7,141.9,72.9,141.2,72.2,141.3z M73,134.9c-0.8,0.2-1,0.9-2,0.8
			c-1.4,0.1-2.2-0.4-3.2-0.8c-0.8,0.5-3.3,1.8-3.5,0.4c2.3-0.2,2.1-2.9,3.9-3.6c0.5,0.6,1.5,0.6,2,1.2c0.7-0.5,1-1.3,2.4-1.2
			c1.1,0.4,1.7,1.2,2.8,1.6c-0.1,0.3,0.2,0.4,0.4,0.4c0.4,1.1,1.1,1.2,2,1.2c1.1,0.1,1.4-0.7,2-0.4C78.8,137.4,75.2,134.6,73,134.9z
			 M92,107.2c-1.6,0.3-2.9,2-4.7,2.4c-3.6,0.8-7.8-0.4-11.4-0.4c0.4-1.7,1.5-2.7,2.4-4c0.1-1.7-1.9-1.3-2-2.8
			c4.5-1.6,12.1-2,13.8,2.4c-1.3-0.5-3-2.4-5.1-2.8c-2.2-0.4-4.7-0.1-6.7,0.8c0.6,1.8,2.7,1,3.9,1.2C85.4,104.5,88.5,105.8,92,107.2
			z M76.2,96.9c1.4-1.1,3.8-1.5,7.1-1.2c3.4,0.4,6.1,2.1,7.5,3.2c-2.8,0.4-5.6-1.5-9.9-1.2c-2.2,0.2-3.8,1.1-5.9,1.2
			C74.6,97.9,75.6,97.4,76.2,96.9z M73,122.3c1.7,0,1.6,1.9,2.8,2.4c1.5-0.4,0.3-2,0.4-3.2c1.6,0.6,0.8,4.1-0.4,4.4
			c-1.2-0.2-1.5-1.4-2-2.4c-2.1-0.5-2.4,0.7-3.6,1.2C70.5,123.1,71.3,122.2,73,122.3z"/>
		<path fill="none" d="M60.8,81.5c-2.6,1.4-5.9,2.7-6.3,5.9c0.9,0.5,1-0.7,1.6-1.2c2.2-1.8,5.8-2.8,7.4-5h-2.3
			C61,81.3,60.9,81.4,60.8,81.5z"/>
		<path fill="none" d="M140.1,202.3c1.5,1.3,3.8,1.8,5.5,2.8C144.3,203.5,142,203.1,140.1,202.3z"/>
		<path fill="none" d="M17.8,183.7c0.4-0.4,0.4-1.2,0.8-1.6c0.4-0.4,1.2-0.4,1.6-0.8c0.4-0.4,0.5-1.2,0.8-1.6c2.6-3,6.3-5,7.9-8.7
			c-0.7-1-1.5-1.9-1.6-3.6c1.8-2.4,3.6-5,5.5-7.9c1.7-2.6,4.1-5.6,4.7-9.1c0.2-1.3-0.4-2-0.4-2.4s0.4-0.5,0.4-0.8
			c0.1-10.7,3.7-17.8,6.3-26.1c0.1,0,0.3,0,0.4,0c3.6-9.1,7.6-17.8,7.5-30.5c0-0.1,0-0.3,0-0.4c0.4-3.1,1.1-5.8,1.5-9H11.9v68.7
			c0.7,1.7,1.1,3.8,1.2,6.1c0,0.1,0,0.3,0,0.4c-0.3,0.8-0.7,1.5-1.2,2.2V171c0.4,0.1,0.8,0.3,1.2,0.4c0.1,0,0.3,0,0.4,0
			c0.9-0.1,2.1,0.6,3.2,0.8c1.8,0.3,3.8-0.2,4.3,0.8c-1.7,3.2-5,5.8-9.1,6.9v9.7c0.4-0.4,0.8-0.8,1.2-1.1
			C14.8,186.8,16.4,185.2,17.8,183.7z"/>
		<path fill="none" d="M79.3,104.8c-1.2,5.1,6.5,5.8,5.9,0.8c-1.9-0.1-0.7,3-3.2,2.4C80.2,107.9,81.5,104.7,79.3,104.8z"/>
		<path fill="none" d="M17.4,176.1c-1-0.2-3.4,1.6-4.7,2.4C14.7,178.1,15.8,176.9,17.4,176.1z"/>
		<path fill="none" d="M54.5,84.2c1.7-1,3.8-1.5,5-3h-2.7C55.8,82,54.5,82.5,54.5,84.2z"/>
		<path fill="none" d="M157.4,233.3c0.1-0.1,0.2-0.2,0.2-0.3v-0.2c-0.8,0-1.6,0.3-2.3,0.5H157.4z"/>
		<path fill="none" d="M88,82.3c0.1,0.1,0.2,0.7,0.4,0.8c1.5,1,3.7,1.5,5.5,2c0-1.8-0.6-3.1-1.7-3.8h-5.8
			C86.7,81.9,87.6,82.1,88,82.3z"/>
		<path fill="none" d="M85.3,84.6c1.5,1.1,2.8,1.9,4.7,2.8c1.4,0.6,2.6,1.4,3.9,1.2c0.7-3.6-3.7-3.6-5.5-4.8
			c-0.9-0.6-1.8-1.8-2.7-2.6h-3.2C82.9,82.6,84.5,84.1,85.3,84.6z"/>
		<path fill="none" d="M121.9,84.6c-0.9-0.7,0.7-2.2,2-2c-0.1,0.6-0.6,0.7-0.8,1.2c0.1,0,0.3,0,0.4,0c0.2-0.8,1.1-0.7,0.8-2
			c-1.6,0.5-3,1.2-3.2,3.2c0.5,0,0.9-0.2,1.2-0.4C123.1,83.7,122.1,83.7,121.9,84.6z"/>
		<path fill="none" d="M78.2,106c-0.4,0.8-1.3,1.9-0.4,2.8c0.5,0,1.1,0,1.6,0C79.2,107.6,79.1,106.4,78.2,106z"/>
		<path fill="none" d="M85.3,109.2c1.9,0,3.7-0.2,3.9-2c-0.7-0.8-1.8-1.4-3.2-1.6C86.2,107.3,85.4,107.8,85.3,109.2z"/>
		<path fill="none" d="M81.3,89c0.1,0.1,0.2,0.7,0.4,0.8c0.9,0.5,2.1,1.1,3.2,1.6c1,0.5,2,0.4,2.8,0.8c0.1,0.1,0.2,0.7,0.4,0.8
			c1.1,0.6,2.1,0.9,3.2,1.6c1,0.7,1.8,2,3.2,2c-0.4-1.3-0.7-2.6-1.6-3.6c-1.6-1.7-6.7-2.5-8.3-4c-0.3-0.3-0.8-0.5-1.2-0.8
			c-1.6-1.5-3.1-2.6-4.3-4.4c-0.8-0.6-1-1.8-1.5-2.6h-2.4c0.3,1.4,1.1,3,1.5,3.4C77.9,86,79.8,88.3,81.3,89z"/>
		<path fill="none" d="M81.7,86.2c0.3,0.3,0.8,0.1,1.2,0.4c0.5,0.4,0.8,1.3,1.2,1.6c0.6,0.4,1.5,0.4,2.4,0.8c1.3,0.7,3,1.6,3.9,2
			c0.3,0.1,0.8-0.1,1.2,0c0.2,0.1,0.4,0.6,0.8,0.8c0.6,0.2,1.4,0.8,2,0.4c0.1-1.8-1.4-1.9-2-2.4c-0.5-0.4-1.4-1.5-1.6-1.6
			c-0.3-0.1-0.9,0.2-1.2,0c-2-1.1-3.6-2.4-5.5-3.2c0.4-0.9-0.6-0.9-1.2-1.6c-0.6-0.8-1.1-1.6-1.6-2.2h-3
			C79,83.3,80.7,85.3,81.7,86.2z"/>
		<path fill="none" d="M13.5,176.1c0,0.1,0,0.3,0,0.4c2,0.1,1.3-0.9,0.8-1.2c-0.4-0.2-1.3-0.2-2.4-0.2v0.6
			C13.6,175.7,14.7,175.8,13.5,176.1z"/>
		<path fill="none" d="M116,199.9c-1.8,0.3-2.9,1.3-4.7,1.6c0,0.1,0,0.3,0,0.4C113,201.4,114.8,200.9,116,199.9z"/>
		<path fill="none" d="M131.8,197.9c-2,0-3.9,0-5.9,0C126.9,198.6,130.7,198.6,131.8,197.9z"/>
		<path fill="none" d="M97.1,212.2c0.8-1-1,1-1.6,1.2c-0.6,0.9-1.4,1.7-2,2.8c0.1,0,0.3,0,0.4,0C94.7,214.5,96.1,213.6,97.1,212.2z"
			/>
		<path fill="none" d="M37.2,214.2c-0.8-0.9-2.4-1.7-2.4-2.4c0.9-2.1,2.3-1.5,3.6-0.8c-0.7-0.6-1.2-1.4-2.8-1.2
			c-0.2,1-1.2,1.2-1.2,2.4c1.1,0.8,2,1.7,2.8,2.8C38.8,216.2,38,215.1,37.2,214.2z"/>
		<path fill="none" d="M122.7,200.7c-4.9,1.3-10.2,2.2-13.4,5.1c4.5-2.4,9.3-4.4,15.8-4.8C125,200.2,123.4,200.9,122.7,200.7z"/>
		<path fill="none" d="M132.2,200.3c-0.8,0-1.6,0-2.4,0c-1.2,0.3-3.4-0.5-3.9,0.4c2.5,0,5,0,7.5,0
			C134.6,200.4,132.7,200.2,132.2,200.3z"/>
		<path fill="none" d="M43.1,233.2c0,0.1,0,0.1,0,0.1h1.2C43.9,233.2,43.5,233.1,43.1,233.2z"/>
		<path fill="none" d="M105.4,207.8c-0.1,0.1-0.3,0.7-0.4,0.8c-1.2,0.5-2.8,1.9-3.6,3.2c2.4-2,4.5-4.2,7.5-5.5
			C108,206,106.5,207,105.4,207.8z"/>
		<path fill="none" d="M37.5,228.8c-3.3-0.7-7.6-0.3-11.4-0.4c-1.5,3.1,3.4,2.5,5.5,3.2c-0.1,0.8-0.5,1.3-1,1.7h2.9
			C35,231.9,36.6,230.4,37.5,228.8z"/>
		<path fill="none" d="M19,212.6c-0.5,0.1-0.8,0.6-1.6,0.4c0.5,1.1,1.9-0.2,2-0.8c-1-1.5-5.4,1-4.3-0.8c-1.3,0.2-2.3,0.8-3.2,1.4
			v0.5C14.4,213.1,16.6,211.4,19,212.6z"/>
		<path fill="none" d="M11.9,208.5v0.7c0.2-0.3,0.2-0.7,0.4-0.9C12.1,208.4,12,208.4,11.9,208.5z"/>
		<path fill="none" d="M14.7,215.4c-0.1-0.6-1.2-0.1-1.2-0.8c1.1-0.1,3.7-0.7,3.2-1.2c-1.6,0.4-3,0.7-3.9,1.2
			c-0.2,0.1-0.5,0.2-0.8,0.4v0.8C12.9,215.7,13.4,215.1,14.7,215.4z"/>
		<path fill="none" d="M23.4,211.4c-1,1.1-3.2,1-4,2.4c1.6-0.6,3.1-1.4,4.7-2c0.1-1-0.8-1-1.6-1.2C22.7,211,23.4,210.9,23.4,211.4z"
			/>
		<path fill="none" d="M17,205.1c0,1.8-2.7,3.1-2,4.4c0-0.8,1.9-1.3,2.4-2.4C17.6,206.6,18.5,205,17,205.1z"/>
		<path fill="none" d="M13.5,218.9c-0.1,0.3-0.3,0.5-0.8,0.4c1.1,1.4,1-1.2,1.2-1.2c1.1,0.2,3.1-0.5,3.6,0.4
			c-0.4,0.1-0.6,0.4-0.8,0.8c0.1,0,0.3,0,0.4,0c0.1-0.8,1.7-0.1,1.6-1.2c-2.1-0.4-4.5-0.7-6.7-0.5v1C12.5,218.6,13,218.7,13.5,218.9
			z"/>
		<path fill="none" d="M12.7,224.1c-0.3,0-0.6-0.1-0.8-0.2v0.3c0,0.1,0.1,0.2,0,0.3c0,0.1,0,0.2,0,0.3v0.5
			C12.3,225,12.6,224.6,12.7,224.1z"/>
		<path fill="none" d="M22.6,195.6c1.1,0.3,3.2,2.5,1.2,3.6c-1.8-0.6-3.5-1.3-4.3-2.8c0.1-0.9,1.2-0.9,1.6-1.6
			c-1.5-0.4-1.3,0.8-2,1.2c0.8,2.1,2.6,3.2,5.1,3.6c0.1-0.4,0.4-0.6,0.8-0.8C25.3,196.5,24.2,195.8,22.6,195.6z"/>
		<path fill="none" d="M59.6,205.5c0.1-1.3-0.7-1.7-0.4-3.2c-1.1,0.5,0,2.1,0,2.8c-2-0.5-3.6,1.4-3.2,2
			C56.6,205.8,57.6,205.2,59.6,205.5z"/>
		<path fill="none" d="M64.8,201.1c-0.2-1.3-3.8-1.9-4.3-0.4C61.6,199.8,63.9,200.4,64.8,201.1z"/>
		<path fill="none" d="M61.2,213.4c-0.3-1.5,0.7-1.7,0.4-3.2c-1.1-0.3-0.8,0.8-1.6,0.8c0.2,0.6,0.5-0.2,1.2,0
			c-0.1,0.9-0.6,1.5-0.4,2.8c0.4,0.9,3.2,0.2,2-0.4C63.1,214,60.9,214,61.2,213.4z"/>
		<path fill="none" d="M62.8,213c1.1,0.1-0.3-2.4,0.8-2.4c0.1,0.5,0.4,0.2,0.4,0c-0.3,0.1-0.4-0.1-0.4-0.4c0-0.1,0-0.3,0-0.4
			C62,209.6,63.1,212,62.8,213z"/>
		<path fill="none" d="M61.2,226.4c0.7-1.7-1.4-0.7-2.4-0.8c-0.7-0.1-2-1.5-1.6,0C58.8,226.4,60.7,225.3,61.2,226.4z"/>
		<path fill="none" d="M46.2,218.5c0.4,1.7,1.4,2.8,2,4.4c0.7,0.2,2.3-0.5,2.4,0.4c0,0.5,0.2,0.9,0.4,1.2c-0.1,0.9-1.7,0.4-1.6,1.6
			c0.6,0.8,0.4,2.5,2.4,2C52.5,224.2,51.1,215.4,46.2,218.5z"/>
		<path fill="none" d="M64.4,228.8c-1.2,0.5-3.6-0.7-5.1,0.4c2.6-0.3,7,1.2,6.3-2.4C64.8,227.2,65.6,228.3,64.4,228.8z"/>
		<path fill="none" d="M67.5,206.2c1.6,1.4,0.4,4.6-1.6,4.8c0,0.1,0,0.3,0,0.4c1.5,0.2,1.6-2.3,2.8-1.2c-0.7-1.1,0.7-2.8,0.4-4.8
			C68.5,205.9,68.6,207.3,67.5,206.2z"/>
		<path fill="none" d="M65.5,224.5c0.4,1.6-2.1,1.4-2.8,0.8c-0.8,0.3,0.1,2.2-0.8,2.4c-0.4,0-0.8,0-1.2,0c0.1,0.6,1,0.4,1.6,0.4
			c0.7-0.2,0-1.9,0.8-2c1.7,0.3,2.2-0.8,2.8,0.4C65.7,225.9,66.4,224.4,65.5,224.5z"/>
		<path fill="none" d="M64.8,205.1c-0.2,0-0.5,0.1-0.4,0.4c1,0,2.2-0.1,2.8,0.4c1.3-0.9-2.4-0.2-2-1.6c-0.1,0-0.3,0-0.4,0
			C64.8,204.5,64.8,204.8,64.8,205.1z"/>
		<path fill="none" d="M58.4,187.2c0-1.1,0-2.1,0-3.2c-1.1-0.1,0.3,2.4-0.8,2.4c-2.1-0.3-4.3,1.2-3.6,2.4
			C54.1,187,56.9,186.3,58.4,187.2z"/>
		<path fill="none" d="M64.4,187.2c1.2-0.3,1.2,0.7,2.4,0.4c0-0.1,0-0.3,0-0.4c-2.6,0.8-0.9-2.8-2-3.6
			C64.7,184.9,65,186.6,64.4,187.2z"/>
		<path fill="none" d="M59.6,195.2c-1.8,1.3,1.5,3,2.4,1.6C60.6,196.8,59,197.1,59.6,195.2z"/>
		<path fill="none" d="M101.8,121.9c1.1,1.5,2.5,2.8,3.9,4C104.6,124.3,103.3,123,101.8,121.9z"/>
		<path fill="none" d="M86,159.1c-0.3-1.3-0.7-2.4-2-2.8c-1.2-1.4-3.2-0.4-4.7,0c-0.4,1.2-1,2.1-1.2,3.6c-2.2,0.5-3.8,2.2-3.6,4.4
			c0.2,2.1,2.2,2.5,3.6,3.6c0.1,1.3,1.1,1.7,1.6,2.8c3.6,1.4,6.1-0.7,6.7-3.6C91.6,166.7,90.3,159.4,86,159.1z M84.5,166.2
			c0.3,1.4-0.6,1.5-0.4,2.8c-1.1,0.5-2.4,0.5-3.6,0c-0.5-0.5-0.2-1.9-0.8-2.4c-0.7-1-2.7-0.8-3.2-2c-0.2-2.5,1.3-3.4,3.6-3.6
			c-0.3-2,0.3-3.1,1.2-4c2.4,0,3.3,1.4,3.2,4c2.2-0.3,3.4,0.6,3.9,2C88.3,165.3,85.9,165.3,84.5,166.2z"/>
		<path fill="none" d="M51.7,189.6c-0.1,1.8,0.8,2.6,0.8,4.4C53.3,193,52.2,190.7,51.7,189.6z"/>
		<path fill="none" d="M59.6,179.3c-1.4,0.2-2.2-0.2-3.2-0.4c0,0.8-1.1,0.5-0.8,1.6C56.1,178.4,58.3,180.5,59.6,179.3z"/>
		<path fill="none" d="M113.3,134.9c-0.8-0.4-0.8-0.4-0.4,0.4c0.7-0.4,1.3,1.2,1.6,0c-1.7-1.8-1.9-5-5.1-5.2
			C111.3,131.1,112.8,132.5,113.3,134.9z"/>
		<path fill="none" d="M104.6,132.2c1.3,0.7,1.9,2.1,3.2,2.8c-0.4-0.6-0.7-1-1.1-1.5c-0.6-0.6-1.1-1.4-0.1-0.1l0.1,0.1
			c0.1,0.1,0.2,0.2,0.3,0.3c0.2,0.1,0.6-0.1,0.8,0c0.1,0.1,0.3,0.7,0.4,0.8c1.4,1,4.5,2.2,5.5,3.2c1.3,1.2,4.3,2,3.9,3.6
			c-1,0.3-2.9-1.3-2-0.4c0,0.1,0,0.3,0,0.4c1.1-0.1,2.3,1.7,3.2,0.4c-1.1-0.7-1.5-2.2-2.4-3.2c-5.6-1.9-9.4-5.6-13.4-9.1
			C103.2,130.7,104.2,131.1,104.6,132.2z"/>
		<path fill="none" d="M49.8,207c-0.2-0.9-1.3-2.4-1.6-2.8c-0.2-0.3-0.1-0.9-0.4-1.2c-0.4-0.5-1.3-0.5-1.6-0.8
			c-0.7-0.6-0.6-1.4-1.2-1.6c-1.7,0.2-3.5,1.2-3.6,2.4c0,0.1,1.1,0.6,1.2,0.8c0.3,0.5-0.2,1.4,0.4,1.6c2.3-0.6,1.8,1.6,2.8,2.4
			c1.3,0.1,3-0.4,2.8,1.2c-0.5,1.1-2.5,0.8-3.5,0.4c-0.2,1.8-1.4,2.6-2,4c1,1.2,2.8,1.7,4.7,2C49.2,213,50.3,210.1,49.8,207z"/>
		<path fill="none" d="M39.5,220.1c-1.1-1.2-2.8,0.5-1.6,1.6C39.2,221.9,39.7,221.3,39.5,220.1z"/>
		<path fill="none" d="M43.9,160.3c-0.4,3.6,1.8,4.5,4.3,5.1c1.3-0.5,2-1.6,3.2-2.4c1.5,0.2,2.3-0.3,3.2-0.8
			c1.7-2.1,0.5-5.7-1.2-6.7c0.4-1.8-0.5-2.4-0.8-3.6c-0.9,0.2-1.3-0.7-2-0.8c-1.6-0.1-2.5,1.1-3.9,1.6c-0.9-0.1-1.5-0.6-2.8-0.4
			c-1.8,1.1-2.6,2.3-2.4,4.4C41.7,158.4,43.9,158.8,43.9,160.3z M43.9,154c1.7-0.4,2,0.7,3.2,0.8c1.5,0.2,0.7-1.9,2-2
			c2.7-0.4,3.4,1.3,3.2,4c1.1,0.9,2.4,1.5,2,4c-1,0.8-2.1,1.6-3.5,0.8c-1.2,0.5-1.1,2.4-2.8,2.4c-2.2,0.2-3-2.9-2-4.8
			c-0.5-1.3-2.4-1-2.8-2.4C42.8,155.3,43.3,154.6,43.9,154z"/>
		<path fill="none" d="M22.2,224.5c0.6,1.6,2.7,2.6,4.7,1.6c1.3-2.3,2.9-4.5,3.6-7.5C26.9,219.7,23.3,220.8,22.2,224.5z"/>
		<path fill="none" d="M151.5,181.7c1.5-0.6-1.6,0.1-0.8-1.2c1.6-0.4,1.8,0.6,2.4,1.2c1.2-0.4-0.4-1.1-0.4-1.6
			c-1.6,0.1-3.2,0.2-4.3,0.8C149.3,181.3,150.3,181.6,151.5,181.7z"/>
		<path fill="none" d="M146.8,176.1c-2.1,0.3-5.2-0.5-6.7,0.4c2.5,0,5,0,7.5,0c0.1-1.1-0.8-1-1.6-1.2c0,0.1,0,0.3,0,0.4
			C146.4,175.7,146.7,175.8,146.8,176.1z"/>
		<path fill="none" d="M138.9,175.7c-3.6-1.3,0.8-0.2,2.8-1.2c-2.3-0.1-5,0.3-6.7-0.4c0.4,1.7,3,1.2,4.3,2
			C139.3,175.8,139.1,175.8,138.9,175.7z"/>
		<path fill="none" d="M140.8,178.1c1.8,1.2,5.1,1.1,7.1,0.8c0.7-0.1,2.6,0.6,2.4-0.8C147.2,177.9,144,178,140.8,178.1z"/>
		<path fill="none" d="M69.9,156.3c-1.1-1.1-3.1-1.3-5.5-1.2c-1,0.9-1.4,2.3-2.4,3.2c-1.8-0.4-2.2,0.7-3.6,0.8
			c-0.8,1.6-1.6,3.4-0.8,5.5c0.6,0.8,2.2,0.7,2.8,1.6c0.3,3.4,3.6,5.8,6.7,4c0.9-0.8,1.4-2,2-3.2c2.9,0,3.9-1.9,3.6-5.2
			c-0.5-1.1-1.7-1.4-2.4-2.4C70.4,158.1,70.1,157.3,69.9,156.3z M71.1,164.7c-1,0.6-1.7,1.5-3.5,1.2c-0.7,0.8-0.4,2.5-1.2,3.2
			c-1.4,0.8-2.2-0.1-3.5-0.4c0.1-1.3-0.7-1.7-0.4-3.2c-0.6-1.4-3.1-0.8-3.6-2.4c-0.3-2.8,2.4-3.8,4.7-2.8c0.9-0.8,0.6-2.9,1.6-3.6
			c0.8,0,1.6,0,2.4,0c0.9,0.7,0.9,2.3,0.8,4C69.6,161.6,71.6,161.8,71.1,164.7z"/>
		<path fill="none" d="M122.3,179.7c0.9-1.2-0.4-2.9-0.8-4c-2.3-0.3-3.4,0.5-4.7,1.2c0.1,1.5,1.6,1.6,2,2.8
			C120.4,179,120.7,179,122.3,179.7z"/>
		<path fill="none" d="M108.1,137.7c-1.1-1-2.5-2.9-3.5-2.4c2.3,3.4,5.3,6,8.7,8.3c-2.2-2.4-5.2-4-7.1-6.7c0.9,0.3,1.6,1.6,2,2
			c0.3,0.3,0.8,0.1,1.2,0.4c0.9,0.7,1.5,1.5,2,2c0.8,0.8,2,1.2,2.8,1.6c3,1.6,7.3,2.1,8.3,5.2c-0.3,0.1-0.8,0-0.8,0.4
			c0.7-0.1,0.9,0.4,1.6,0.4c0.6-0.9-1.7-2.2-2-3.6c-2.8-0.8-5.5-2-7.5-3.2C111.2,140.7,109.8,139.3,108.1,137.7z"/>
		<path fill="none" d="M38.3,206.6c1-0.2,2.6-1.8,2-2.4C39.6,205,38.9,205.8,38.3,206.6z"/>
		<path fill="none" d="M103.8,127c-0.6,0.2-0.7-1-0.4-0.8c0.6,0.5,4.2,4.4,5.5,3.6c-3.1-1-4.4-3.8-7.1-5.1c-0.1,0.7,0.4,0.9,0.4,1.6
			C102.9,126.1,103.4,128.1,103.8,127z"/>
		<path fill="none" d="M51,180.1c-1.6-0.5-2.7-1.5-4.7-1.6c-0.6-1.5-2.5-1.7-3.9-2.4c0.6,4.5,1.7,9.4,1.6,14.3c0,1.8-1.1,3.5,0,5.2
			c1.6-3.2,4.5-5.3,5.5-9.1c-2.2-0.8-2,4-4.3,4.4c0.6-4.9-1.3-9.3-0.8-12.7C46,179.1,48.7,181,51,180.1z"/>
		<path fill="none" d="M109.7,148.8c-2.2,0.6-3.1,2.5-2.8,5.6c1,1.2,3.1,2.2,5.1,1.2c1,0.5,1.2,2,2.8,2c-0.7-1.4-1.5-3.1-2.8-3.6
			c-0.4-0.9-1.4,1-2.8,0.4c0-0.8-1.1-0.5-0.8-1.6C108,150.7,110.9,150.4,109.7,148.8z"/>
		<path fill="none" d="M114.8,179.3c-0.6,1.3-1.3,2.3-1.2,4.4c1.7-0.1,2.1,1,3.9,0.8C117.4,181.6,117.5,180.1,114.8,179.3z"/>
		<path fill="none" d="M55.7,193.2c-1.6-0.2-2.1-1.6-2-3.6C52.4,191,54.6,194.2,55.7,193.2z"/>
		<path fill="none" d="M71.5,180.5c-1.9-0.2-4.6,0.4-5.9-0.4C66,181.5,70.4,181.1,71.5,180.5z"/>
		<path fill="none" d="M98.3,111.6c-0.3,1.5,0.9,1.5,0.8,2.8c0.5,0.1,0.2-0.6,0.4-0.8c0.3-0.3,0.4,0.4,0.4,0.4
			c1.4,0.5,1.6,1.8,2.8,2.8c0.3,0.3,0.9,0.2,1.2,0.4c0.9,0.7,1.8,1.8,2.8,2c0.1,0.3,0,0.8,0.4,0.8c0.2-1.4-1.3-1.4-2-2
			C102.3,115.9,100.3,113.9,98.3,111.6z"/>
		<path fill="none" d="M101,109.6c-0.4-1.9-2.4-2.3-3.2-4c-0.3,0.1-0.8,0-0.8,0.4c1.8,0.2,2.1,2.2,3.2,3.2s2.6,1.7,3.6,2.8
			c-0.3,1.2,0.7,1.2,0.4,2.4c-0.7,0.2-1-0.6-1.2,0c0.2,0.2,1.9,0.9,2,0c-0.6-0.5-0.8-1.4-0.8-2.4C102.8,111.5,102.7,109.8,101,109.6
			z"/>
		<path fill="none" d="M99.5,198.7c0.4,1.5,1.2,2.1,2.4,2.4c0.9,0.2,0.7-0.7,1.6-0.8c0.5,0,0.8,0.7,1.6,0.4c-0.2-1.9-1.3-2.9-2.4-4
			C101.5,197.4,100.3,197.9,99.5,198.7z"/>
		<path fill="none" d="M95.5,191.6c0.2-0.2,0.9-1.9,0-2c0,2-0.7,3.3-2,4c0.5,0.5,1.6-1.1,1.6,0.4c0.4-0.8,0.8-1.6,1.2-2.4
			C95.9,191.8,95.6,192.1,95.5,191.6z"/>
		<path fill="none" d="M97.9,201.1c-0.4,1.7-1.9,5.9,0.4,6.7c0.4-1.1,1.6-1.3,2.4-2c-0.3-1.6-0.3-2,0-3.6
			C99.5,202.1,99.4,200.9,97.9,201.1z"/>
		<path fill="none" d="M83.7,187.2c-1.7-0.8-4.7,2.7-3.2,5.2C80.2,189.3,81.4,187.7,83.7,187.2z"/>
		<path fill="none" d="M88.4,191.6c0,1.7-0.7,2.8-0.4,4.8c-0.7-0.2-2.3,0.5-2.4-0.4c-0.3-0.1-0.4,0.2-0.4,0.4c0.3,0.8,2.7,0.4,3.2,0
			c0-1.1,0-2.1,0-3.2c1.1-0.3,0.8,0.8,1.6,0.8c-0.1-0.5-0.7-0.6-0.8-1.2C89.2,192.1,88.9,191.8,88.4,191.6z"/>
		<path fill="none" d="M86.4,184.1c-0.9,0.2-0.2,2-0.4,2.8c-0.7,0.1-0.8-0.5-1.6-0.4c0.1,0.4,0.8,0.3,0.8,0.8c0.3,0,0.5,0,0.8,0
			C86.9,186.9,86.2,185,86.4,184.1z"/>
		<path fill="none" d="M86.8,191.6c-0.3,2-4.8,3.6-5.9,1.2c-1.1,0.4,0.9,0.9,0.8,1.6c2.5,0.5,3.1-0.9,5.1-0.8
			C86.6,192.9,88,191.9,86.8,191.6z"/>
		<path fill="none" d="M124.3,184.5c1.2,0.6,1.7,2,3.2,2.4c0.5-1,1-1.9,1.2-3.2c-1.4-0.9-2.3-2.2-4.3-2.4
			C124.6,182.9,124.3,182.7,124.3,184.5z"/>
		<path fill="none" d="M121.9,185.6c0.1,0-0.6,0.8-0.8,0.8c-0.5,0.1-0.8-0.7-1.6-0.4c-0.1,2.3,1.2,3.3,2,4.8
			c2.2-0.4,4.3-0.9,4.3-2.4C125.9,188.2,123.5,185.8,121.9,185.6z"/>
		<path fill="none" d="M127.8,171c-1.4-0.1-1.5-1.4-2.8-1.6c-0.6,1.2-1.7,2-1.6,4c4,1,5.8,4.2,7.1,7.9c0.8-0.2,2.2,0,3.2-0.4
			c0.1,0,0.3-0.7,0.4-0.8c0.3-0.3,0.9-0.2,1.2-0.4c2.3-1.7,1.3-2-0.4-3.2c-0.7-0.5-1.5-1.2-2.4-1.2c-0.9,0.4-1.3,1.3-2.4,1.6
			c-1-1.2-2.2-2.3-3.2-3.6C127.3,172.5,128,172.2,127.8,171z"/>
		<path fill="none" d="M98.3,102.5c0.8,1.4,2.4,2.1,3.6,3.2c-1.6-1.9-3.6-3.3-5.1-5.2c-0.1,1.5,0.9,2.1,1.2,3.2
			C99.1,103.8,96.9,102.5,98.3,102.5z"/>
		<path fill="none" d="M110.5,196.7c0.3,1.2,0.6,2.3,2,2.4c0.8-0.2,1-0.9,2-0.8C114,196.1,112.9,196.7,110.5,196.7z"/>
		<path fill="none" d="M115.2,191.2c-0.7,0.5,0.1,1.2,0,2c0,0.5-0.6,0.6-0.4,1.2c0.4,1.3,2.1,2.4,3.6,2.8c0.9-1,1.6-2.1,1.6-4
			C118.6,192.5,116.6,190.6,115.2,191.2z"/>
		<path fill="none" d="M141.6,186.8c-2,1.4-3.8,2.8-5.5,4.4c-1.7,1.6-2.8,4.5-5.9,4.4c3.4-3.7,7.2-7.7,11-10.7c1.3-1,2.7-3.3,4.7-2
			c-0.1,0.8-1.1,0.8-1.2,1.6c0.1,0,0.3,0,0.4,0c0.1-0.9,1.4-0.7,1.2-2c-1.9-1.6-2.4,0.1-3.5,0.8c-2.9,1.7-4.6,3.9-6.7,5.9
			c-0.3,0.3-0.9,0.1-1.2,0.4c-0.3,0.3-0.1,0.9-0.4,1.2c-0.1,0.1-0.7-0.1-0.8,0s0.1,0.6,0,0.8c-0.9,1-1.9,1.1-2.8,2
			c-0.7,0.7-1,1.3-1.2,2.4c3.4,0.4,4.6-2.8,6.3-4.4c1.9-1.7,3.9-3.2,5.9-4.8C142.8,185.9,141.9,185.9,141.6,186.8z"/>
		<path fill="none" d="M86,207.8c0.1,2.6-2,4.8-4.3,3.6c0,1,1.3,0.8,2.4,0.8c0.7-0.4,0.8-1.6,1.6-0.8c0.6-1.3,1.5-2.2,2-3.6
			C86.5,208.6,86.8,209.3,86,207.8z"/>
		<path fill="none" d="M105.8,190c-0.2,1.4-1.1,2.1-0.8,4c1.1,0.5,2,1.2,3.5,1.2C108.6,193.3,108.4,190.7,105.8,190z"/>
		<path fill="none" d="M103,120.3c-1.4-0.1-2.3-2.6-3.2-2c0.7,0.1,0.2,1.3,0.8,1.6c1.3-0.6,2.7,1.7,3.6,2.8c2.2,0.5,3.8,1.8,5.1,3.2
			c0-0.5-0.5-0.5-0.4-1.2c-1.8-0.9-3.2-2.1-5.1-2.8C104.1,120.8,103,121.1,103,120.3z"/>
		<path fill="none" d="M92,213.8c1.7-0.5,2.5-2,3.2-3.6C93.1,210.2,90.9,211.9,92,213.8z"/>
		<path fill="none" d="M86,224.5c-0.8,1.5-2.3,2.2-2.4,4.4c1.8,0.6,2.6-2.2,2.8-3.2C86.6,225,87,224,86,224.5z"/>
		<path fill="none" d="M89.2,218.9c0.4-1.4,1.7-1.7,1.6-3.6c-0.4,0-0.8,0-1.2,0C89.7,216.5,88,218,89.2,218.9z"/>
		<path fill="none" d="M103,176.1c-2.3,0.2-3.6,1.4-5.9,1.6c0,0.1,0,0.3,0,0.4C99.3,177.7,101.3,177.1,103,176.1z"/>
		<path fill="none" d="M59.6,221.3c-0.8,0.4-1.6,0.8-2.4,1.2c0.5,0.8,1.6-1,2.8-0.8c0-0.8,0-1.6,0-2.4
			C59.2,219.3,59.8,220.7,59.6,221.3z"/>
		<path fill="none" d="M96.7,178.1c-1.6,0.2-3.1,0.6-4.7,0.8c0,0.1,0,0.3,0,0.4C93.5,178.9,95.7,179.1,96.7,178.1z"/>
		<path fill="none" d="M60,218.9c0.4-0.7,2.9-1.4,3.2,0C64.4,217.9,59.8,216.8,60,218.9z"/>
		<path fill="none" d="M63.2,220.9c-0.4,1.2,0.9,0.7,1.6,0.8c0.6,0.5,0.5,1.6,1.6,1.6c0-0.4,0-0.8,0-1.2
			C65.3,222.9,64.6,220.9,63.2,220.9z"/>
		<path fill="none" d="M75.4,209.8c-0.4-3.4,1-4.8,4.3-4.4c-1.1-1.1-3.5-0.1-3.9,0.8c-0.6-0.1-0.1-1.2-0.8-1.2
			c0.2,1.7-0.7,2.2-0.8,3.6C75.5,207.3,74.5,209.7,75.4,209.8z"/>
		<path fill="none" d="M73.8,222.5c0-0.5,0-1.1,0-1.6c-0.5,0.1-0.3,0.7-0.4,1.2c-1.4-0.6-2.4,1.3-2.8,0.4c-0.6,0.5-0.7,1.4-0.8,2.4
			c0.4,0,0.5,0.3,0.8,0.4C70.4,223,71.6,222.3,73.8,222.5z"/>
		<path fill="none" d="M113.3,190c1.1-1.6-1-2.8-1.6-4c-1.5,0.2-2.6,0.8-3.6,1.6c0,1.3,0.9,1.7,1.6,2.4
			C111.6,189.6,111.4,189.2,113.3,190z"/>
		<path fill="none" d="M78.5,223.3c0,0.7,0,1.3,0,2c-0.9,0.7-2.3,1-3.5,0.4c-0.9,0.3,0.1,2.5-0.8,2.8c-1.5-0.1-1-0.6-0.8-1.6
			c-1.2-0.2,0,1.6-0.8,2s-2.5,0-3.9-0.4c0.1,0.2,0.2,0.7,0.4,0.8c1.5,0.5,8.9-0.3,8.7-1.6c-0.7,0.5-1.3,1-2.8,0.8
			c0.2-0.7-0.5-2.3,0.4-2.4c0.5,1,2.8-0.3,2.8,0.4c0,0.4-0.6,0.6,0,0.8c0.5-1.2,1-2.5,1.6-3.6C78.8,224.5,79.3,223.6,78.5,223.3z"/>
		<path fill="none" d="M91.6,179.3c-1.6-0.1-2.2,0.7-3.9,0.4C88.5,180.7,90.9,179.8,91.6,179.3z"/>
		<path fill="none" d="M57.3,211c-1.7-0.1-1.6-1.8-1.6-3.6c-0.6-0.1-0.1-1.2-0.8-1.2c0.5,2.5,0.6,5.5,1.2,7.9
			C56,212,56,210.9,57.3,211z"/>
		<path fill="none" d="M84.9,201.9c1.3-1.7-3.7-2.3-3.9-0.4C81.7,200.7,84.7,200,84.9,201.9z"/>
		<path fill="none" d="M77,211.4c-0.2,1.1,2.2-0.3,2,0.8c-0.3,0-1.2,1.3-0.4,1.2c0.4-0.8,0.8-1.6,1.2-2.4
			C78.5,210.8,78.3,211.7,77,211.4z"/>
		<path fill="none" d="M83.7,206.2c0.5,0.5,1.9,0.2,2,1.2c0.8-0.1-0.4-1.4-1.2-1.2c-0.4-1,1.7-1.4,0.4-2
			C85,205.5,83.8,205.3,83.7,206.2z"/>
		<path fill="none" d="M71.1,225.7c-0.9,0.6,1.6,1,2.8,0.8c0-0.3,0-0.5,0-0.8C72.9,225.8,71.8,226.4,71.1,225.7z"/>
		<path fill="none" d="M105,155.1c-1.2-0.5-1.8-1.6-3.9-1.2c-2.4-4.5-8.6-1.9-7.5,3.2c-1.6,1.2-3.5,4.4-1.6,6.7
			c1.1,0.5,3.1,1.7,4.3,0.8c1.2,1.4,2.9,2.4,5.9,2c1.3-1.1,1.9-2.9,1.6-5.6C105.4,159.8,106.4,157.3,105,155.1z M101.8,160.7
			c0.1,1.9,0.9,4.7-2,4.4c-1.5,0-1.5-1.4-2.4-2c-1.5,0.7-4,0.5-4.7-0.8c-0.2-2.5,1.4-3.3,3.2-4c-0.8-1.8-1.2-4.3,0.8-5.2
			c2.2-0.2,2.8,1.2,3.2,2.8c1.7,0.1,2.2-0.7,3.6,0C104.7,158.2,102.8,159.5,101.8,160.7z"/>
		<path fill="none" d="M95.5,90.6c0.7-2.4,2.1,2.8,3.6,3.6c-1.1-2-2.1-4-3.6-5.5C95.5,89.3,95.5,89.9,95.5,90.6z"/>
		<path fill="none" d="M62.4,145.6c0.4,0,0.8,0,1.2,0c0.3-1.3-1-0.8-1.2-1.6c-0.8-0.9-1.2-2.2-2.4-2.8
			C60.6,142.8,63,144.2,62.4,145.6z"/>
		<path fill="none" d="M98.3,133.4c0.1-0.3-0.2-0.4-0.4-0.4c-0.9,2.2-2.4,3.7-3.5,5.5C96.1,137.2,96.9,135.1,98.3,133.4z"/>
		<path fill="none" d="M125.9,165.1c-1.1,0.2-2-1.6-2.8-0.4c2.8,2,5.5,4,9.9,4.4c-2.1-0.9-4.5-1.5-6.7-2.4
			C126,165.8,125.1,165.9,125.9,165.1z"/>
		<path fill="none" d="M136.1,167c-1.9,0.3-2.5-0.6-4.3-0.4C130,166.7,135.7,168,136.1,167z"/>
		<path fill="none" d="M48.2,144.5c1,0.6,1.9,1.3,1.6,3.2c1.8,0,2.3-1.7,3.9-0.8c1.1,0.4,1.5,1.6,2,2.8c2,0.4,1.9-1.2,3.6-1.2
			c0.5,0.4,1.5,0.4,1.6,1.2c0.7-0.7,1.8,0.2,2.4,0.8c-0.5,0.1-0.8,0.6-1.6,0.4c0,0.1,0,0.3,0,0.4c1.7,0.1,2-1.2,3.9-0.8
			c1,0.3,1.2,1.5,2,2c1.5-0.5,2.3-1.6,4.7-1.2c0.9,0.3,0.9,1.5,2,1.6c1.1-0.5,1.4-1.8,3.2-1.6c1.7-0.1,1.6,1.5,3.2,1.6
			c0.9-1,1.1-2.6,2.8-2.8c2.2-0.5,3.1,3.9,4.3,0.8c-0.6,0.6-2,1.4-2-0.4c0.8,0.7,0.7-0.2,2,0c0.8-1,1-1.1,2-1.2
			c1.4-0.1,2.6,2.2,3.2,0.4c-0.8,0.8-1.7,0-2-0.8c1.7,0.6,1.8-1.3,2.8-0.4c0.5-0.7,0.8-1.6,2-1.6c1.1,0.5,1.8,1.4,3.2,1.6
			c0.5-1.9,1.5-5,3.9-3.6c0.8-0.4,1.5-2,2.4-1.2c-0.1-0.7,0.4-0.9,0.4-1.6c-1.6-0.2-1.2,1.7-2.4,2c-3.1-1.7-3.8,2.2-5.9,2.8
			c-0.5-0.5-1.7-0.4-2.8-0.4c-1.2,0.4-1.2,1.9-2.8,2c-2.5-0.9-3.7,1.1-5.5,2c-0.7-0.6-1.4-1.2-2.8-1.2c-1.5,0.4-2.1,1.6-3.5,2
			c-0.9-0.3-1.3-1-2.8-0.8c-2.7,1.8-5.6-1-9.1,0.4c-1.2-1.2-3-2-5.1-1.2c-1.2-1.3-3.5-2.7-5.9-1.6c-1.4-1.2-2.8-2.5-5.9-2
			c-0.7-1-1.3-2.1-2.8-2.4c-1.2,0.1-2.4,0.3-2.4,1.6C46.4,146.3,46.7,143.8,48.2,144.5z M57.7,148.4c-0.1,0.9-1,0.9-2,0.8
			c0-0.6,0.1-1.1-0.4-1.2C55.7,147.1,56.5,148.9,57.7,148.4z"/>
		<path fill="none" d="M101.8,107.6c-1.6-0.8-2-2.7-3.6-3.6c1.3,1.6,2.3,3.5,4.3,4.4c0-1-0.2-1.9-0.8-2.4c0,0.1,0,0.3,0,0.4
			C101.7,107.1,102.5,107.5,101.8,107.6z"/>
		<path fill="none" d="M140.1,168.6c-1.2,1.2-5.1-0.4-6.3,0.8c2.7-0.5,6,1,7.1-0.4c-0.7-0.4-1.2-1-2-1.2
			C137.9,168,139.5,168.7,140.1,168.6z"/>
		<path fill="none" d="M95.5,94.1c0.2,1.8,1,2.9,1.6,4.4c1-0.3-0.7-1.1-0.4-2c1.5,1.3,3,2.5,3.6,4.8c-1-0.4-1.3-1.6-2.4-2
			c0.8,1.1,1.7,2,2.8,2.8c0.1-2.8-1.9-4-3.2-5.5C96.8,95.7,96.4,94.8,95.5,94.1z"/>
		<path fill="none" d="M139.3,171.8c1.6,0,3,0.2,3.9,0.8c-1.1-0.2-3.4,0.2-5.9,0c-2.4-0.2-8.7-1.6-5.7-2.3c-1.2,0-2.3-1.1-3-0.1
			c3.3,2.3,10,3.5,15.4,2.4c-1-0.9-2.6-1-4.3-1.2C139.2,171.4,138.7,171.6,139.3,171.8z"/>
		<path fill="none" d="M89.6,144.8c-0.1-0.5-0.7-0.3-1.2-0.4c1.2-1,2.1-2.2,3.6-3.2c0.5-0.3,0.7-1.4,2-1.6c0.2-0.3,0.5-0.7,0-0.8
			c-1.7,1.4-3.1,3-4.7,4.4c-0.7,0.6-1.7,0.9-2,2C88.2,145.3,88.4,144.6,89.6,144.8z"/>
		<path fill="none" d="M117.2,154.8c2.8,1.4,5.1,3.3,8.3,4.4c-1.5-1.3-4.4-2.4-6.7-3.6C118.2,155.2,117.9,154,117.2,154.8z"/>
		<path fill="none" d="M114,150.8c2.1,1.2,4.3,2.7,6.7,4c1.1,0.6,2.4,1.1,3.6,1.6c1.1,0.5,2.2,2,3.5,1.2c-2.5-0.8-6.1-2.4-7.9-3.6
			c-1.1-0.7-2.3-1.2-3.2-1.6c-0.1-0.1-0.2-0.7-0.4-0.8c-0.2-0.1-0.6,0.1-0.8,0c-0.1-0.1-0.2-0.7-0.4-0.8c-0.2-0.1-0.6,0.1-0.8,0
			c-0.1-0.1-0.2-0.7-0.4-0.8c-0.2-0.1-0.6,0.1-0.8,0c-0.4-0.2-1.1-2.2-1.6-0.8c1.8,1.6,3.1,3.8,5.1,5.2
			C116.3,153,113.6,151.8,114,150.8z"/>
		<path fill="none" d="M135.7,165.1c-1.7-0.1-3.2,0-4.7-0.4c-2.5-0.6-4.6-2.5-6.7-2c1.6,0.6,2.7,0.8,4.3,1.2
			c1.1,0.3,2.8,1.4,3.9,1.6c1.5,0.3,3.8,0.7,4.3-0.4c-1-0.5-1.9-1-3.2-1.2C133.9,164.8,135.5,164.2,135.7,165.1z"/>
		<path fill="none" d="M142.8,114.3c0.7-0.4,1.2-0.9,1.6-1.6c-0.8,0.7-1.8,1.1-2,2.4c1,0.1,1.9,0.1,2.4-0.4
			C145,113.7,143,115.7,142.8,114.3z"/>
		<path fill="none" d="M132.6,161.1c-1.9-0.1-4.1-1.9-5.5-1.2c2.3,0.1,4.5,2.3,6.7,1.2c-1.7-1.2-2.7-3.1-5.5-3.2
			C129.7,158.7,133,159.7,132.6,161.1z"/>
		<path fill="none" d="M135.7,103.3c-0.9,2,0.3,5.7-2.4,2.8c0,0.1,0,0.3,0,0.4c0.9,0.1,0.7,1.4,2,1.2
			C136.1,106.8,135.6,104.7,135.7,103.3z"/>
		<path fill="none" d="M127.4,161.5c-1.5-0.2-2.5-0.9-3.9-1.2C124.3,161,126.7,162.1,127.4,161.5z"/>
		<path fill="none" d="M117.2,148c-1-0.6-2.7-1.2-3.2-1.6c-0.3-0.3-0.8-0.5-1.2-0.8c-0.3-0.3-0.4-0.1-0.8-0.4
			c-1.6-1.2-2.7-3.4-4.3-3.2c1.6,1.6,2.9,3.4,4.7,4.8c-0.1-0.4-0.4-0.6-0.8-0.8c1.4-0.6,2.8,0.9,3.9,1.6c1.4,0.8,2.8,1.6,4.3,2.4
			c2.9,1.5,6.3,2.5,8.3,4.8c-2.1,1-5.2-2.5-6.7-2c2.3,0.7,4.8,3.4,7.5,2.4c-1.1-0.7-1.5-1.8-2.4-2.4c-1.2-0.8-2.7-1.4-3.9-2
			C120.9,149.9,118.9,149,117.2,148z"/>
		<path fill="none" d="M118.8,158.3c1.1,0.2,2.6,2.1,3.6,1.2c-2.3-0.2-4-3-5.9-2.4c2.1,2.1,4.3,4.1,7.5,5.2c-0.9-0.8-2-1.3-3.2-2
			C119.8,159.7,118.2,159.2,118.8,158.3z"/>
		<path fill="none" d="M129,94.9c-0.8-0.1-3.9-1.3-3.9,0.4C125.9,94.2,128.6,95.7,129,94.9z"/>
		<path fill="none" d="M95.9,86.6c0.2,0,0.5-0.1,0.4-0.4c0.8,0.6,1.6,1.3,1.6,2.8c-0.1,0-0.3,0-0.4,0c-0.2,0.3,0.8,0.7,0.8,0.8
			c0.6-1.6-1.8-4.7-2.8-5.5C95.2,85.5,96.2,85.4,95.9,86.6z"/>
		<path fill="none" d="M155,117.9c-0.1-1.2-0.7-2-1.6-2.4c0.1,0.6,1.7,1.7,0.8,2c-1-0.3-2.3-0.3-2.8-1.2
			C151.5,118,153.6,117.6,155,117.9z"/>
		<path fill="#B32621" d="M118.8,87.4c0.8,1.5,1.4,3.1,3.2,3.6c3-2.4,5.1-5.7,6.4-9.8h-1.2C125.8,84.7,123.5,87.3,118.8,87.4z"/>
		<path fill="#B32621" d="M106.9,91.8c-0.6,0.7,0.2,2.4,0.4,3.6C109.4,95.5,108.7,91.3,106.9,91.8z"/>
		<path fill="#B32621" d="M132.6,92.6c-2.2-1-6.9-1.4-8.3,0.4c8.9,0.2,12.4,5.8,13.4,13.9C139.9,100.4,137.1,94.6,132.6,92.6z"/>
		<path fill="#B32621" d="M110.1,102.1c4.1-1.4,0.7-8-1.6-3.6C109.1,99.6,109.7,100.7,110.1,102.1z"/>
		<path fill="#B32621" d="M112.5,106.8c1.8-0.5,3.1-2.5,2.4-4.4C112.2,102.3,110.9,105.1,112.5,106.8z"/>
		<path fill="#B32621" d="M113.6,109.6c0,0.1,0.6,1.3,0.8,1.6c0.3,0.7,0.8,1.2,1.2,1.6c0.9-2,3-2.8,2.8-5.9
			C116.5,104.8,113.6,107.6,113.6,109.6z"/>
		<path fill="#B32621" d="M148.7,111.6c-0.3,3.5-3.1,4.6-5.5,5.9c5.7,1,7-2.5,7.5-6.7c-3.8-2.2-9-1-12.6,0c-0.1,1.8,0.8,2.6,2,3.2
			C141,111.5,145.7,109.4,148.7,111.6z"/>
		<path fill="#B32621" d="M118.4,118.3c1.1-1.7,4.6-5.4,1.6-7.5C117,111.8,115.2,116.4,118.4,118.3z"/>
		<path fill="#B32621" d="M119.9,122.3c2.8-0.8,3.5-3.6,4.7-5.9c-0.8-0.2-0.3-1.5-1.6-1.2C120.9,116.4,118.9,120.1,119.9,122.3z"/>
		<path fill="#B32621" d="M49,142.1c1.2-0.9,1.2-2.5,1.6-4c1.5-6,1.8-13.9,2.8-19.4c-0.1-0.3-0.3-0.5-0.8-0.4
			c0.2,1.5-0.2,2.6-0.4,3.2c-0.2,0.4-0.2,0.8-0.4,1.6c-1.3,5-2.5,10.2-3.5,14.7C47.8,139.4,45.7,141.9,49,142.1z"/>
		<path fill="#B32621" d="M122.7,127c1.4-0.1,1.6-1.8,2-2.4c0.4-0.8,0.8-1.5,1.2-2c0.7-0.9,2.1-1.5,2-2.8c-0.8-0.2-1-0.9-2-0.8
			C124.4,121.2,120.4,123.6,122.7,127z"/>
		<path fill="#B32621" d="M125.1,127.8c-0.7,2,0.2,3.5,1.6,4.4c1-3.1,3.9-4.2,3.9-8.3C128.3,121.4,125.6,126.4,125.1,127.8z"/>
		<path fill="#B32621" d="M129,136.5c1.6-0.2,1.9-1.8,2.4-3.2c1.6-1.4,4-3.4,2.8-6.3c-0.7,0-1.3,0-2,0
			C130.6,129.5,126.2,133.3,129,136.5z"/>
		<path fill="#B32621" d="M133.4,142.1c1-4,4.1-5.9,5.5-9.5c-0.5-0.1-0.4-0.6-0.4-1.2c-1,0.2-0.9-0.7-2-0.4
			c-2.2,2.3-3.9,5.1-5.5,7.9C131.5,140.3,131.8,141.7,133.4,142.1z"/>
		<path fill="#B32621" d="M137.3,147.6c1-2.1,1.9-4,3.2-5.9c1.1-1.8,3.6-3.6,2.4-6.3c-3.1-0.1-3.9,1.5-5.5,4
			C134.8,143.3,134,145.8,137.3,147.6z"/>
		<path fill="#B32621" d="M141.6,143.3c-0.2,0.2-0.5,1.1-0.8,1.6c-1.6,3.3-3,7,0.8,7.9c1-3.7,3.2-5.8,4.7-8.3c0.6-1,1.6-1.9,1.2-3.6
			c-0.3-0.1-0.5-0.3-0.4-0.8c-0.9,0-1.2-0.7-2.4-0.4c-0.5,0.6-1.9,2.2-2.4,3.2C142.4,143,141.7,143.1,141.6,143.3z"/>
		<path fill="#B32621" d="M144.4,157.5c0.5,0.7,1.1,1.3,2,1.6c1.2-2.4,1.7-4.8,2.8-7.1c1-2.1,3.1-4.1,2.8-7.1c-0.8-0.2-1-0.9-2-0.8
			c-1.6,1.5-2.9,2.9-4.3,5.6C143.5,153.3,142.6,155.4,144.4,157.5z"/>
		<path fill="#F7CC00" d="M85.6,150.4c-0.1,1.8,1.4,1,2,0.4c0-0.1,0-0.3,0-0.4C86.4,150.2,86.4,151.1,85.6,150.4z"/>
		<path fill="#B32621" d="M50.6,156.3c0.5-0.5,0.5-1.9,0-2.4c-1.4-0.1-2.1,0.6-2,2C49,156.3,49.6,156.5,50.6,156.3z"/>
		<path fill="#B32621" d="M96.7,156.7c1.2,0.2,1.8-0.3,1.6-1.6C97.2,153.9,95.5,155.6,96.7,156.7z"/>
		<path fill="#B32621" d="M46.6,157.1c-0.3-0.9-0.5-1.8-1.6-2c-0.3,0.5-0.5,1.1-0.4,2C45.9,156.9,45.9,157.9,46.6,157.1z"/>
		<path fill="#B32621" d="M101.4,159.1c0.4-0.6,1.3-0.8,1.2-2c-0.7,0-1.3,0-2,0C100.6,158.1,100.6,159.1,101.4,159.1z"/>
		<path fill="#B32621" d="M52.9,158.3c-0.9-0.1-1.5,0.1-2,0.4C50.4,161.1,53.8,160.6,52.9,158.3z"/>
		<path fill="#B32621" d="M64.8,159.5c0.8,0.7,2.9,0.6,2.4-1.2C65.7,158.1,64.9,158.5,64.8,159.5z"/>
		<path fill="#B32621" d="M80.9,159.1c-0.3,1.3,0.7,1.4,1.6,1.6c0-0.8,1.1-0.5,0.8-1.6C82.8,158.6,81.4,158.6,80.9,159.1z"/>
		<path fill="#B32621" d="M46.2,160.7c0.1,1,0.6,1.5,1.6,1.6c0.6-0.3,1.3-0.6,1.2-1.6c-0.3-0.1-0.5-0.3-0.4-0.8c-0.7,0-1.3,0-2,0
			C46.5,160.2,46.6,160.7,46.2,160.7z"/>
		<path fill="#B32621" d="M94.7,159.9c-0.3,0.5-0.5,1.1-0.4,2C96.6,162.7,97.1,159.4,94.7,159.9z"/>
		<path fill="#B32621" d="M60,162.3c0.1,0.8,2.7,1.8,2.8-0.4C62,160.1,59.9,161.4,60,162.3z"/>
		<path fill="#B32621" d="M99.1,162.3c0,0.5,0.2,0.9,0.4,1.2c1,0.1,1.2-0.6,1.6-1.2C100.5,161.8,99.6,161.8,99.1,162.3z"/>
		<path fill="#B32621" d="M67.5,164.3c1.4,0.1,2.7,0.1,2.4-1.6C68.8,162.2,67.4,162.4,67.5,164.3z"/>
		<path fill="#B32621" d="M84.5,163.9c0.8,0.7,2.4,0.1,2.4-1.2C85.9,161.8,84.4,162.5,84.5,163.9z"/>
		<path fill="#B32621" d="M77.8,163.1c-0.3,2.2,2.6,1.8,2-0.4C78.8,162.6,78.2,162.7,77.8,163.1z"/>
		<path fill="#B32621" d="M47.8,175c1.9,0.8,4,1.1,5.9,1.6c2,0.5,3.9,1.2,5.9,1.6c10.4,2,22.6,1.6,32.3-0.4c1.8-0.4,3.4-1,5.1-1.6
			c1.9-0.6,3.8-0.9,5.5-1.6c0.7-0.3,1.2-0.9,2-1.2s1.9-0.4,2.8-0.8c1.6-0.7,3.2-1.6,4.7-2.4c1.2-0.5,2.5-1.2,3.2-1.6
			c1-0.6,1.7-0.8,2.4-1.2c1.1-0.7,3.1-1.1,2.8-2.8c-0.6-0.1-0.7-0.7-1.2-0.8c-0.5,0.7-1.4,0.9-2,1.2c-0.2,0.1-0.5,0.6-0.8,0.8
			c-2.3,1.3-4.8,2.2-7.1,3.2c-0.6,0.3-1.3,0.9-2,1.2c-0.8,0.3-2,0.5-2.8,0.8c-1.7,0.6-3.4,1.4-5.1,2c-7.5,2.4-15.6,3.8-23.7,4
			c-10,0.3-19.6-1.7-27.6-4.8c-2.7-1-4.8-2.1-7.1-3.2c-0.9-0.4-1.5-0.8-2.4-1.2c-1.3-0.7-3-2.4-4.7-1.6c-0.4,1.3,0.5,1.7,1.2,2.4
			c0.6,0.5,1.8,1.2,2.4,1.6c1.5,0.9,3.5,1.7,5.1,2.4C44.3,173.3,46.1,174.3,47.8,175z"/>
		<path fill="#B32621" d="M64.4,165.4c-1.6,0.9,0.2,2.7,1.6,1.6C65.9,166,65.4,165.5,64.4,165.4z"/>
		<path fill="#B32621" d="M81.7,165.4c-0.5,0.5-0.5,1.9,0,2.4c1.1,0.3,0.8-0.8,1.6-0.8C83.2,166,82.7,165.5,81.7,165.4z"/>
		<path fill="#B32621" d="M123.9,176.9c1,1.5,1.9,3.1,3.9,3.6C127.7,178.3,125.3,176.4,123.9,176.9z"/>
		<path fill="#B32621" d="M118.8,189.6c-0.9-1.3-1.8-2.7-3.9-2.8C115.2,188.5,117.5,190.2,118.8,189.6z"/>
		<path fill="#B32621" d="M153.5,190.8c-0.6-1.5-1.6-2.6-3.2-3.2c-0.9,1.3-0.7,3.8-2.4,4.4c-2.2-0.3-0.9-4.1-3.2-4.4
			c-0.8,1-2.5,1.2-2.4,3.2c1.6,0.5,3.8,0.4,4.3,2c-0.6,1.6-2.7,1.8-4.3,2.4c0.5,1.7,2,2.5,3.2,3.6c1.1-1.3,0.8-3.9,2.4-4.8
			c1,1.1,1.3,2.9,2,4.4c1.7-0.5,2.5-1.9,3.2-3.6c-1.5-0.6-3.4-0.9-3.9-2.4C149.8,191.1,151.9,191.2,153.5,190.8z"/>
		<path fill="#B32621" d="M21.8,201.9c-2.9-3.1-6.6-6.3-9.1-9.1c-0.1-0.1,0.1-0.7,0-0.8s-0.5-0.1-0.8,0v4.4l0,0
			c4.3,3.7,7.8,8.4,11.4,12.3c1.3,1.4,3.2,2.4,3.9,4.4c-5,5.2-10.2,10.5-15.4,15.8v3.7c6.5-6.5,12.9-13.1,18.9-19.8
			C28.7,208.7,25,205.4,21.8,201.9z"/>
		<path fill="#B32621" d="M153.1,201.5c1,1.6,2.9,2.4,4.6,3.3V197c-0.2,0.3-0.4,0.7-0.6,0.9C155.7,199.1,153.8,199.8,153.1,201.5z"
			/>
		<path fill="#B32621" d="M105.8,197.1c0.3,1.9,1.7,3.6,3.5,2.8C108.7,198.4,107.9,197.1,105.8,197.1z"/>
		<path fill="#B32621" d="M136.9,207.8c-2-0.6-3.9-1.4-6.3-1.6c-0.1,2.7,1.2,4.1,1.6,6.3C134.7,212,135.9,210,136.9,207.8z"/>
		<path fill="#B32621" d="M121.9,213c0.8-2,2.1-3.4,2.4-5.9c-2.9-0.3-4.6,0.7-6.7,1.2C118.3,210.5,119.9,211.9,121.9,213z"/>
		<path fill="#B32621" d="M146.4,212.2c-1.2-0.8-2.4-2-3.9-2.4c-0.2,1.6-0.2,5.5,0.4,7.5c2.4-0.6,4.4-1.7,6.7-2.4
			C149.1,213.5,147.5,213,146.4,212.2z"/>
		<path fill="#B32621" d="M112.5,211.4c-0.1-0.3-0.3-0.5-0.8-0.4c-0.6,1-2.4,0.8-2.8,2c-1.3,0.4-2.4,1.4-2.8,2.4
			c1.5,1.4,3.6,2.1,5.9,2.8C112.5,216.7,112.5,214.2,112.5,211.4z"/>
		<path fill="#B32621" d="M154.6,218.1c-0.7,0.6-1.4,0.6-2,1.2c-0.2,0.2-0.2,1-0.4,1.2s-0.6,0.6-0.8,0.8c-2.7,2.9-5.5,5.7-8.3,8.3
			c-0.2,0.2-0.9,0.2-1.2,0.4c-0.5,0.4-1.4,1.3-1.6,1.6c-0.2,0.3-0.1,0.9-0.4,1.2c-0.2,0.2-0.3,0.4-0.5,0.5h3.4
			c0.1,0,0.2-0.1,0.3-0.1c0.2-0.2,0.2-0.9,0.4-1.2c0.8-1,1.9-1.6,2.8-2.4c2-1.8,4.5-4.1,5.9-5.9c0.3-0.3,0.5-0.1,0.8-0.4
			c1.5-1.5,3.6-3.1,4.6-5.2v-2.7c-0.1,0-0.2,0-0.2,0C156.1,216,155.5,217.3,154.6,218.1z"/>
		<path fill="#B32621" d="M33.2,218.5c-1.4,2.3-2.5,4.9-3.5,7.5c3-0.1,5.1,0.7,8.3,0.4C37,223.1,35.4,220.5,33.2,218.5z"/>
		<path fill="#B32621" d="M99.1,225.3c1.8,0,3.7,0,5.5,0c0.4-1.7-1.1-4.6-2.4-5.9C100.9,221.1,99.3,222.5,99.1,225.3z"/>
		<path fill="#B32621" d="M126.3,228c-1.8-0.4-2.2,1.3-2.4,2.4c-0.1,0.5,0.4,1.8,0.9,2.9h1.5C126.4,231.5,126.4,229.2,126.3,228z"/>
		<path fill="#B32621" d="M130.2,230c0.2-0.8,0.7-1.5,0-2c-2.6-0.1-2.4,2.7-2.4,5.3h1.5c0.2-0.5,0.3-0.9,0.5-1.3
			C130,231.5,130.1,230.5,130.2,230z"/>
		<path fill="#B32621" d="M134.5,230c-0.5,0-0.5-0.5-1.2-0.4c-1.6,0.7-1.7,2.2-2.3,3.7h2.4C134.1,232.5,134.8,231.8,134.5,230z"/>
		<path fill="#B32621" d="M120.3,230c0,0.8-1.1,0.5-0.8,1.6c0.3,0.6,0.7,1.2,1.1,1.7h3C123.1,231.7,122.2,230.4,120.3,230z"/>
		<path fill="#B32621" d="M95.5,230.8c-0.3,0.8-0.6,1.6-0.8,2.5h3.5C97.3,232.4,96.5,231.6,95.5,230.8z"/>
		<path fill="#B32621" d="M14.7,231.6c-0.4,0.7-0.9,1.2-1.5,1.7h1.6C15.4,232.6,15.7,231.8,14.7,231.6z"/>
		<path fill="#B32621" d="M37.1,233.3h3.5c-0.2-0.6-0.4-1.2-0.6-1.7C38.7,231.9,37.8,232.6,37.1,233.3z"/>
		<path fill="#B32621" d="M117.2,233.2c0,0.1,0,0.1,0,0.1h0.7C117.7,233.2,117.5,233.1,117.2,233.2z"/>
		<path fill="#171717" d="M154.6,211.4c-0.3-0.3-0.9-0.1-1.2-0.4c-0.3-0.3-0.1-0.9-0.4-1.2c-0.6-0.5-1.7-0.4-2-1.2
			c-1.9-0.8-3.1-2.4-5.1-3.2c-0.3,0.1-0.4-0.2-0.4-0.4c-1.8-1-4-1.5-5.5-2.8c-2-0.7-4.7-0.8-6.7-1.6c-2.5,0-5,0-7.5,0
			c0,0.4-0.5,0.3-0.8,0.4c-6.5,0.3-11.3,2.4-15.8,4.8c0.1,0.3-0.2,0.4-0.4,0.4c-3,1.3-5.1,3.6-7.5,5.5c-1.6,1.6-3,3.5-4.7,5.5
			c-1.6,1.9-3.3,5.1-4.7,8.3c-0.4,0.9-0.8,1.8-1.2,2.8c-0.1,0.2,0.2,1,0,1.2c-0.1,0.1-0.8-0.1-0.8,0c-0.3,0.9-0.2,2-0.4,3.2
			c0,0.2-0.1,0.3-0.1,0.5h1.3v-0.1c0.5-0.5,1.5-0.5,2,0c0,0.1,0,0.1,0,0.1h1.9c0.2-0.9,0.5-1.7,0.8-2.5c1,0.8,1.8,1.6,2.6,2.5h3.1
			c-1.2-1.3-2.8-2.7-2.9-4.9c3.3-0.8,7.9-0.3,11.8-0.4c-0.7,2.3-3.3,2.7-6.3,2.8c0.2,1.3,1.2,1.8,2,2.5h11.4v-0.1
			c0.3,0,0.5,0,0.6,0.1h2.8c-0.4-0.5-0.8-1.1-1.1-1.7c-0.3-1.1,0.8-0.8,0.8-1.6c1.8,0.4,2.8,1.7,3.3,3.3h1.1
			c-0.5-1.1-0.9-2.4-0.9-2.9c0.1-1.1,0.6-2.7,2.4-2.4c0.2,1.2,0.1,3.5,0,5.3h1.5c-0.1-2.6-0.3-5.4,2.4-5.3c0.7,0.5,0.2,1.1,0,2
			c-0.1,0.5-0.2,1.5-0.4,2c-0.1,0.4-0.3,0.9-0.5,1.3h1.7c0.5-1.6,0.7-3,2.3-3.7c0.6-0.1,0.7,0.4,1.2,0.4c0.3,1.7-0.4,2.5-1.1,3.3
			h6.1c0.2-0.2,0.4-0.4,0.5-0.5c0.3-0.3,0.2-0.9,0.4-1.2s1.1-1.2,1.6-1.6c0.2-0.2,0.9-0.2,1.2-0.4c2.8-2.6,5.6-5.4,8.3-8.3
			c0.2-0.2,0.6-0.6,0.8-0.8s0.2-1,0.4-1.2c0.5-0.5,1.3-0.6,2-1.2c0.9-0.8,1.4-2.1,2.8-2.8c0.1,0,0.2,0,0.2,0v-1.8
			C156.5,213.5,155.5,212.1,154.6,211.4z M135.7,203.5c0.2,1.2-0.3,1.8-1.6,1.6C132.9,204,134.6,202.2,135.7,203.5z M121.1,203.5
			c0.4,0,0.8,0,1.2,0c0.1,1.1,0.1,2.2-1.2,2C120.6,204.9,120.6,204,121.1,203.5z M124.3,207c-0.2,2.5-1.6,4-2.4,5.9
			c-2-1-3.6-2.4-4.3-4.8C119.7,207.7,121.4,206.8,124.3,207z M108.5,209.4c0.2,1.4-0.1,2.3-1.6,2
			C106.2,210.6,106.8,208.9,108.5,209.4z M108.9,213c0.4-1.2,2.2-1,2.8-2c0.5-0.1,0.7,0.1,0.8,0.4c0,2.8,0,5.3-0.4,6.7
			c-2.3-0.6-4.4-1.4-5.9-2.8C106.5,214.4,107.6,213.4,108.9,213z M97.5,220.5c0-0.5,0-1.1,0-1.6c0.5,0,1,0,1.6,0
			C99.2,220.2,98.7,220.7,97.5,220.5z M104.6,225.3c-1.8,0-3.7,0-5.5,0c0.2-2.8,1.9-4.2,3.2-5.9C103.4,220.7,105,223.6,104.6,225.3z
			 M112.1,225.3c-1.2,0-2.4,0-3.6,0c-1.3-2-2.5-4.1-3.2-6.7c2.9,0.6,5.2,1.7,7.1,3.2C112.6,223.1,112.4,224.3,112.1,225.3z
			 M117.6,216.9c-1,1.1,0.1,4.3-0.8,5.5c-1-0.2-0.9,0.7-2,0.4c-0.7-3.6,0-7,0.4-11.1c2.5,0.6,4.1,2.8,5.9,4.4
			c0.8,0.7,2.4,1.6,2.8,3.2C120.7,220.9,119.5,217.8,117.6,216.9z M127.4,218.5c-1.7-0.7-2.9-1.9-3.6-3.6c1.1-2.2,2.3-4.3,3.2-6.7
			c1.7,0.1,1.5,1.9,2,3.2c0.8,1.1,1.7,2.3,1.6,3.6C130.5,216.2,128.6,217.7,127.4,218.5z M136.9,207.8c-1,2.1-2.2,4.1-4.7,4.8
			c-0.4-2.3-1.7-3.6-1.6-6.3C133,206.5,134.9,207.2,136.9,207.8z M136.9,216.9c-2.4,0.7-2.7,3.6-5.9,2.4c0.4-2.3,2.2-3.7,3.5-5.2
			c1.4-1.4,2.9-2.6,4.3-4c1,1.2,1,3.3,1.2,5.2c0.2,2.4-0.1,5,0.4,7.1C137.5,222.4,137,219.8,136.9,216.9z M149.1,209.4
			c0.5,0.5,0.5,1.5,0,2c-0.8,0.2-1-0.3-1.6-0.4C147.4,209.8,147.9,209.2,149.1,209.4z M146.4,223.7c-0.9,0.8-1.7,1.8-2.8,2
			c-1.2-0.8-0.7-3.2-0.8-5.2c2-1,4.1-1.9,6.7-2.4C149.4,220.7,148.1,222,146.4,223.7z M142.8,217.3c-0.6-2-0.6-5.9-0.4-7.5
			c1.5,0.4,2.8,1.6,3.9,2.4c1.2,0.8,2.7,1.3,3.2,2.8C147.2,215.6,145.2,216.7,142.8,217.3z"/>
		<path fill="#171717" d="M93.9,85c-1.8-0.4-4-1-5.5-2c-0.1-0.1-0.3-0.7-0.4-0.8c-0.4-0.2-1.3-0.4-1.6-1.1h-0.8
			c0.9,0.9,1.8,2.1,2.7,2.6c1.8,1.1,6.2,1.2,5.5,4.8c-1.3,0.2-2.5-0.6-3.9-1.2c-1.9-0.8-3.3-1.7-4.7-2.8c-0.8-0.6-2.4-2.1-2.8-3.4
			h-1.2c0.5,0.6,0.9,1.5,1.6,2.2c0.5,0.7,1.5,0.7,1.2,1.6c1.9,0.8,3.5,2.1,5.5,3.2c0.3,0.2,0.9-0.1,1.2,0c0.2,0.1,1.1,1.2,1.6,1.6
			c0.6,0.5,2.1,0.6,2,2.4c-0.6,0.5-1.4-0.1-2-0.4c-0.3-0.1-0.6-0.7-0.8-0.8c-0.3-0.1-0.8,0.1-1.2,0c-1-0.4-2.7-1.3-3.9-2
			c-0.8-0.4-1.8-0.4-2.4-0.8c-0.4-0.3-0.6-1.1-1.2-1.6c-0.3-0.3-0.9-0.1-1.2-0.4c-1-1-2.7-2.9-3.3-5h-0.9c0.5,0.9,0.7,2.1,1.5,2.6
			c1.2,1.8,2.8,2.8,4.3,4.4c0.3,0.3,0.9,0.5,1.2,0.8c1.5,1.5,6.6,2.3,8.3,4c0.9,0.9,1.2,2.3,1.6,3.6c-1.4,0-2.1-1.3-3.2-2
			c-1-0.7-2.1-1-3.2-1.6c-0.2-0.1-0.3-0.7-0.4-0.8c-0.8-0.4-1.8-0.3-2.8-0.8c-1.1-0.5-2.3-1.1-3.2-1.6c-0.2-0.1-0.2-0.7-0.4-0.8
			c-1.5-0.7-3.4-3-4.7-4.4c-0.4-0.4-1.2-2.1-1.5-3.4H74c0.2,0.6,0.2,1.4,0.4,1.8c0.4,0.8,1.1,1.6,1.6,2.4c0.8,1.1,2,2.7,3.6,4
			c0.4,0.3,1.5,0.5,2,0.8c0.7,0.4,1,0.9,1.6,1.2c1.8,1,3.7,1.3,5.5,2.4c0.4,0.2,0.7,0.9,1.2,1.2c0.4,0.3,0.9,0.1,1.2,0.4
			c0.2,0.2,0.2,0.7,0.4,0.8c1,0.7,2.5,1.6,3.2,3.2s0.5,4.8,0.8,7.5c0.2,2.1,0.8,4,0.8,6.3c0,0.1,0,0.3,0,0.4c0.6,1.8,1.5,5.3,2,7.5
			c0.4,1.9,1.1,4.1,0.8,6.7c-0.5,4.6-4.2,8.7-7.5,11.9c-1.6,1.6-3.2,3-5.1,4.4c-1.3,0.9-2.7,1.9-4.3,2.8c-3,1.5-9.4,2.9-13.4,1.2
			c-0.3-0.1-1-0.8-1.6-1.2c-2-1.3-2.9-2.4-5.1-5.2c-0.1-0.1-0.7-0.3-0.8-0.4c-0.1-0.2,0.1-0.6,0-0.8c-0.1-0.1-0.7-0.3-0.8-0.4
			c-0.1-0.2,0.1-0.6,0-0.8c-0.6-0.8-1.5-1.2-2-2c-0.3-0.6-0.4-1.5-0.8-2.4c-1.1-2.3-2.8-5.6-3.2-8.7c-0.3-2.6,0.3-6.1,0.4-8.7
			c0-0.1,0-0.3,0-0.4c-0.8-0.9-0.3-3,0-4c0-0.1,0-0.3,0-0.4c0.2-1-0.7-0.9-0.4-2c1.8-1.1,4.7-0.1,7.1-0.4c2.3-0.3,4.3-1.2,5.5-2.4
			c-0.7-1.2-2.3-1.1-3.5-1.6c-1.1-0.4-2-1.3-3.2-1.6c-1.7-0.5-4,0.1-5.5-1.2c-0.5,0.3,1.9,2.6,0.4,4c-2.8-0.9-1.1-6.3-1.6-9.5
			c1.9-2.5,4.5-5.6,7.5-7.5c2.4-1.5,6.7-3.5,8.7-5.9c0.3-0.3,0.1-0.5,0.4-0.8c0.5-0.5,0.7-1.8,1.3-2.6h-0.9
			c-0.1,0.4-0.2,0.7-0.4,1.1c-1.5,3.5-6.5,6-9.9,8.3c-0.4,0.3-0.8,0.1-1.2,0.4c-1.1,0.8-2.6,2.3-3.9,3.6c-0.2,0.2-0.5,1.5-1.2,0.8
			c0.1-3.1,2.9-4.9,4.7-6.7c1.1-1.1,4.2-2.1,5.9-3.2c0.3-0.2,0.6-0.6,0.8-0.8c0.2-0.1,0.9-0.2,1.2-0.4c1.1-0.9,1.4-2.2,2.2-3H68
			c-1,2.1-3.5,3.4-5.6,4.6c-2,1.1-4.2,2.1-5.9,3.6c-0.6,0.5-0.9,1.9-2,1.6c-0.6-0.9,0.5-1,0.8-1.6c0.6-1.1,0.8-2.2,2-3.2
			s3.1-1.7,4.7-2.8c0.8-0.5,1.6-1.5,2.7-2.2h-1.2c-1.6,2.3-5.2,3.2-7.4,5c-0.6,0.5-0.7,1.7-1.6,1.2c0.4-3.2,3.7-4.5,6.3-5.9
			c0.1-0.1,0.2-0.2,0.3-0.3h-1.6c-1.2,1.5-3.3,2-5,3c0-1.8,1.3-2.3,2.3-3h-3.5c-0.3,3.1-1.1,5.9-1.5,9c0,0.1,0,0.3,0,0.4
			c0.1,12.7-3.9,21.4-7.5,30.5c-0.1,0-0.3,0-0.4,0c-2.6,8.3-6.2,15.4-6.3,26.1c0,0.3-0.4,0.4-0.4,0.8c0,0.3,0.6,1.1,0.4,2.4
			c-0.6,3.5-3,6.5-4.7,9.1c-1.9,2.9-3.7,5.6-5.5,7.9c0.1,1.6,0.8,2.6,1.6,3.6c-1.6,3.7-5.3,5.7-7.9,8.7c-0.3,0.4-0.4,1.2-0.8,1.6
			c-0.4,0.4-1.2,0.4-1.6,0.8c-0.4,0.4-0.4,1.2-0.8,1.6c-1.4,1.5-3,3.1-4.7,4.8c-0.4,0.4-0.8,0.8-1.2,1.1v2.4c0.3-0.1,0.7-0.1,0.8,0
			s-0.1,0.7,0,0.8c2.5,2.8,6.2,6,9.1,9.1c3.2,3.5,7,6.8,9.1,10.7c-6,6.7-12.4,13.3-18.9,19.8v0.9h1.3c0.6-0.5,1.1-1,1.5-1.7
			c1,0.2,0.7,1,0.1,1.7h15.8c0.5-0.4,0.9-0.9,1-1.7c-2.1-0.7-7.1,0-5.5-3.2c3.9,0.1,8.1-0.3,11.4,0.4c-1,1.6-2.6,3-4.1,4.5h3.6
			c0.8-0.8,1.6-1.4,2.8-1.7c0.2,0.5,0.4,1.1,0.6,1.7H43v-0.1c0.5-0.1,0.9,0,1.2,0.1h1.6c-0.3-1.2-0.7-2.3-1.2-3.3
			c0.6-1.3-0.2-2.9-1.2-5.2c-0.1-0.2-0.7-0.6-0.8-0.8c-1.1-3.5-3.2-6.5-5.5-9.1c-0.8-1.1-1.7-2-2.8-2.8c0-1.2,1-1.3,1.2-2.4
			c1.6-0.2,2,0.6,2.8,1.2c0.3-0.1,0.4,0.2,0.4,0.4c1.9,1.7,3.3,3.8,4.7,5.9c1.3,1.3,2.4,4.6,3.5,7.1c0.3,0.7,1,1.4,1.2,2
			c0.5,1.5,0.5,3.4,0.8,5.2c0.1,0.6,0.2,1.2,0.3,1.7h36.2c0.1-0.9,0.3-1.7,0.5-2.5c0.2-0.9,0.8-0.8,1.2-1.6c0.2-0.5,0.2-1.5,0.4-2
			c1.5-3.6,3.3-8,5.9-11.1c0.6-1,1.3-1.8,2-2.8c0.6-1.2,1.9-1.9,2.8-2.8c2-2.1,4.2-4.1,7.1-5.9c0.8-0.5,1.9-0.7,2.8-1.2
			c0.2-0.1,0.3-0.7,0.4-0.8c0.7-0.3,1.8-0.5,2.8-1.2c1.8-0.3,2.9-1.3,4.7-1.6c2.6-1.3,6.5-1.4,9.9-2c2,0,3.9,0,5.9,0
			c3,0.3,6.9,0.9,9.9,2c0.4,0.1,0.6,0.7,0.8,0.8c0.4,0.2,1.1-0.2,1.6,0c0.3,0.1,1,0.8,1.6,1.2c0.4,0.3,1.1,0.5,1.6,0.8
			c2.8,1.5,5.3,3.4,7.9,5.5c0.8,0.7,1.8,1.3,2.6,2.1v-5.5c-1.7-0.9-3.5-1.7-4.6-3.3c0.7-1.7,2.6-2.4,3.9-3.6
			c0.3-0.2,0.4-0.6,0.6-0.9v-17.7c-0.3-0.3-0.6-0.8-0.6-0.8c-1.7-1.4-3.1-3-4.7-4.8c-4-4.3-7.9-8.7-11.8-13.5
			c-1.4-1.7-2.9-3.3-4.3-5.2c-0.2-0.3-0.6-0.5-0.8-0.8c-0.6-0.7-1.2-1.8-2-2.8c-0.2-0.3-0.6-0.5-0.8-0.8c-0.9-1.2-2-3.3-3.2-4.8
			c-0.5-0.6-1.1-1-1.6-1.6c-4.1-5.6-8.5-12.8-12.2-19.4c-0.2-0.4-0.1-0.8-0.4-1.2c-0.1-0.2-0.7-0.6-0.8-0.8
			c-0.3-0.7-0.1-1.6-0.4-2.4c-0.3-0.9-1.4-2.4-2-3.6c-3.3-7.4-7.1-16.7-8.7-26.1c1.1,0,1.2,1.9,1.6,3.2c1,3.4,1.9,7,3.1,10.3
			c1.7,4.4,3.2,8.7,5.1,12.7c3.8,7.9,7.7,15.6,12.6,22.6c2.5,3.6,5.3,6.9,7.9,10.3c2.3,2.9,4.7,5.6,7.1,8.7
			c3.9,5.1,9.2,10.5,13.8,15.4c0.7,0.8,1.3,1.6,2,2.4c0.3,0.3,0.7,0.5,1,0.7v-4.1c-1.7-1.2-3.1-2.7-4.2-4.5c0-0.1,0-0.3,0-0.4
			c-1.3-0.7-1.9-2.1-2.8-3.2c-1.5-1.9-3.1-2.8-2-6.3c0.5-1.7,2-4.8,3.2-6.7c1.8-3,4.3-5.4,5.7-7.3v-0.4c-7-7.4-14.7-14.1-21.5-21.6
			c1.3-1.5,4.2-2.7,7.1-3.2c4.1-0.7,10.2-0.4,14.4,0.5v-1.8c-0.4-0.4-0.8-0.8-1-1c-0.8-0.8-1.3-2.3-2-3.2c-0.7-0.9-1.6-1.7-2.4-2.8
			c-3.1-4.5-6.3-11.4-7.9-17.4c-0.4-1.1-0.8-2.1-0.8-3.6c-0.7-1-0.8-2.6-0.8-4.4c0-0.1,0-0.3,0-0.4c-0.7-0.8-0.4-2.6-0.4-4.2h-1.6
			c0,0.3,0,0.7,0,1.1c0.6,8.9,3.2,15.8,5.9,22.6c0.6,0.3,0.8,1,0.8,2c-1.6,0-3.2,0-4.7,0c0.1,0.9-1.4,0.2-2,0.4
			c-0.3-3,0.7-5.1,0.4-7.5c-0.4-3.1-2.4-6.1-4.7-7.9s-4.7-2.5-8.3-3.2c0.2-1.5,1.1-2.3,1.6-3.6c0.5-1.1,1.1-2.1,1.6-3.2
			c0-0.3,0-0.5,0.1-0.7h-3.1c-1.3,4.1-3.4,7.4-6.4,9.8c-1.8-0.5-2.4-2.1-3.2-3.6c4.8-0.1,7-2.7,8.4-6.2h-5c-0.7,0.9-2.2,2-2.9,2.6
			c-0.1,1.3-0.9,1.7-0.8,3.2c-1.1-0.8-2.2-1.5-2.4-3.2c1.2-1.1,2.6-1.9,4.1-2.6h-8.1c1.1,1,1.7,2.4,2.8,3.4c1,1.8,2.7,2.9,3.6,4.8
			c2.2,2.8,4.7,5.4,6.7,8.3c0.3,0.2,0.7,0.3,0.8,0.8c1.4,1.5,2.2,3.5,3.5,5.1c0.7,0.8,1.7,1.2,2.4,2c0.3,0.3,0.5,1.2,0.8,1.6
			c0.1,0.1,0.7,0.3,0.8,0.4c1.2,2.7,4.1,5.2,5.9,7.9c0.4,0.5,1.6,1.5,0.8,2.4c0,0.1,0,0.3,0,0.4c-4.2,0.8-5.9-1.9-7.9-4.4
			c-0.7-0.9-1.3-1.9-2-2.8c-0.6-0.8-1.4-1.7-2-2.4c0.6-1,0.1-3.1,0.8-4c-0.7-0.7-2.3-0.3-3.6-0.4c-3.3-2.7-5.5-6.6-8.3-9.9
			c-0.4-1.7,0.8-2.7,0-3.6c-0.7-0.6-1.9-0.8-3.2-0.8c-2.3-2.9-4.9-5.5-6.6-9H97.1c0.5,0.8,0.6,1.9,0.8,3c-1-0.8-2-1.5-2.3-3h-3.3
			C93.3,82,94,83.2,93.9,85z M56.9,105.2c2.1-0.2,0.5,3.2,2.4,3.2c1.1-0.1,1.7-0.7,1.6-2c0.7-0.7,1.2,0.1,1.6,0.8
			c1-0.9,2.3,0.3,3.2,0.8c-0.3,1.1-1.6,1.3-2.8,1.6c-0.2-0.3-0.4-0.6-0.4-1.2C60.3,110.8,56.1,109.1,56.9,105.2z M56.1,108
			c0.7,0.4,1.5,0.9,0.8,1.6C55.6,109.8,55.5,108.6,56.1,108z M22.2,180.5c0.6-0.4,1.7-1,2.4-0.4c-0.3,2.2-2,3-3.5,4
			c0.1,0.3-0.2,0.4-0.4,0.4c-0.4,0-0.8,0-1.2,0C19.6,183.1,21,181.2,22.2,180.5z M24.9,198.7c-0.3,0.2-0.7,0.3-0.8,0.8
			c-2.5-0.4-4.3-1.5-5.1-3.6c0.7-0.3,0.5-1.6,2-1.2c0.2,0.5,1.5,0.1,1.6,0.8C24.2,195.8,25.3,196.5,24.9,198.7z M26.9,192
			c-0.2,2-2.4,2.1-4.7,2c-0.4-0.3-0.9-0.4-1.6-0.4c-0.1-1-0.1-1.9,0.4-2.4c0.3-1.7,2.9-1,4.7-1.2c0,0.7,1.3,0.3,1.2,1.2
			C27.4,191.3,27.3,192,26.9,192z M25.3,187.6c-0.6,0.7-2.1,0.5-2.8,1.2c-0.9,0.1-1.5-0.1-2-0.4c-0.1-1.2,0-1.3,0.4-2
			c0.9-1.4,4.9-3.4,6.3-1.2C27.3,186.8,26.5,187.4,25.3,187.6z M124.3,81.9c0.3,1.3-0.6,1.2-0.8,2c-0.1,0-0.3,0-0.4,0
			c-0.2,0.3-0.3,0.7-0.8,0.8c-0.3,0.2-0.6,0.4-1.2,0.4C121.3,83.1,122.6,82.3,124.3,81.9z M142.4,115.1c0.1-1.3,1.2-1.7,2-2.4
			c0.1-0.9,1.7-0.2,2,0c-0.4,0.8-0.7,1.7-1.6,2C144.3,115.2,143.4,115.2,142.4,115.1z M153.5,115.5c0.9,0.4,1.4,1.2,1.6,2.4
			c-1.4-0.3-3.5,0.1-3.6-1.6C151.7,115.3,153.3,113.2,153.5,115.5z M135.3,107.6c-1.2,0.2-1-1.1-2-1.2c0-0.1,0-0.3,0-0.4
			c-1.8-1.5-1.9-2.8-1.6-5.9c-0.6-1.4-3-1-4.3-1.6c-0.8-1.1-1.6-2.1-2.4-3.2c0.1-1.7,3.2-0.5,3.9-0.4c3.5,1.5,5.7,4.3,6.7,8.3
			C135.6,104.7,136.1,106.8,135.3,107.6z M124.3,93c1.4-1.8,6.1-1.4,8.3-0.4c4.5,2,7.4,7.9,5.1,14.3C136.7,98.7,133.2,93.1,124.3,93
			z M140.1,113.9c-1.1-0.6-2.1-1.3-2-3.2c3.6-1,8.9-2.2,12.6,0c-0.5,4.3-1.8,7.7-7.5,6.7c2.5-1.3,5.2-2.4,5.5-5.9
			C145.7,109.4,141,111.5,140.1,113.9z M149.9,144.1c1-0.1,1.2,0.6,2,0.8c0.3,3.1-1.8,5.1-2.8,7.1c-1.1,2.3-1.5,4.7-2.8,7.1
			c-0.8-0.3-1.4-0.9-2-1.6c-1.8-2.2-0.9-4.2,1.2-7.9C147,146.9,148.3,145.6,149.9,144.1z M147.2,140.1c-0.1,0.5,0.1,0.7,0.4,0.8
			c0.4,1.6-0.6,2.6-1.2,3.6c-1.5,2.5-3.7,4.6-4.7,8.3c-3.8-0.9-2.4-4.6-0.8-7.9c0.2-0.5,0.6-1.3,0.8-1.6c0.1-0.2,0.7-0.3,0.8-0.4
			c0.4-1,1.8-2.5,2.4-3.2C146,139.4,146.2,140.1,147.2,140.1z M142.8,135.3c1.2,2.8-1.2,4.6-2.4,6.3c-1.3,2-2.2,3.9-3.2,5.9
			c-3.3-1.8-2.5-4.3,0-8.3C138.9,136.8,139.7,135.3,142.8,135.3z M136.5,131c1.1-0.3,1,0.6,2,0.4c0,0.6-0.1,1.1,0.4,1.2
			c-1.4,3.6-4.5,5.5-5.5,9.5c-1.5-0.3-1.9-1.8-2.4-3.2C132.6,136.1,134.4,133.3,136.5,131z M134.1,127c1.3,3-1.2,4.9-2.8,6.3
			c-0.5,1.4-0.7,3-2.4,3.2c-2.8-3.2,1.6-7,3.2-9.5C132.8,127,133.5,127,134.1,127z M130.6,123.9c0,4.1-3,5.2-3.9,8.3
			c-1.3-0.8-2.3-2.4-1.6-4.4C125.6,126.4,128.3,121.4,130.6,123.9z M125.9,119.1c1-0.1,1.2,0.6,2,0.8c0.1,1.3-1.3,1.9-2,2.8
			c-0.4,0.5-0.7,1.2-1.2,2c-0.3,0.6-0.6,2.3-2,2.4C120.4,123.6,124.4,121.2,125.9,119.1z M123.1,115.1c1.3-0.3,0.8,1,1.6,1.2
			c-1.2,2.3-2,5.2-4.7,5.9C118.9,120.1,120.9,116.4,123.1,115.1z M119.9,110.8c3,2.1-0.5,5.8-1.6,7.5
			C115.2,116.4,117,111.8,119.9,110.8z M118.4,106.8c0.2,3.1-1.9,3.9-2.8,5.9c-0.4-0.4-0.8-0.9-1.2-1.6c-0.2-0.3-0.8-1.5-0.8-1.6
			C113.6,107.6,116.5,104.8,118.4,106.8z M114.8,102.5c0.7,1.8-0.6,3.9-2.4,4.4C110.9,105.1,112.2,102.3,114.8,102.5z M110.1,102.1
			c-0.4-1.4-1-2.5-1.6-3.6C110.8,94.1,114.2,100.7,110.1,102.1z M106.9,91.8c1.8-0.5,2.4,3.7,0.4,3.6
			C107.2,94.2,106.4,92.5,106.9,91.8z M89.2,143.3c1.7-1.4,3-3,4.7-4.4c-0.1-0.3,0.2-0.4,0.4-0.4c1.1-1.9,2.7-3.4,3.5-5.5
			c1-1.3,1.6-2.9,2.4-4.4c1,1.3,1.1,3.2,1.6,4.8s1.4,3,1.6,4.8c-4.1,2.8-8.8,4.9-13.8,6.7c-1.2-0.3-1.4,0.4-2.4,0.4
			C87.5,144.2,88.5,143.9,89.2,143.3z M55.7,134.5c1.9,1.8,3.2,4.2,4.3,6.7c1.1,0.6,1.5,1.9,2.4,2.8c0.2,0.8,1.5,0.3,1.2,1.6
			c-0.4,0-0.8,0-1.2,0c-3.2-0.6-6.3-1.3-8.7-2.8C54.2,140,54.6,136.9,55.7,134.5z M48.2,137.7c1.1-4.5,2.2-9.6,3.5-14.7
			c0.2-0.7,0.2-1.2,0.4-1.6c0.2-0.6,0.6-1.7,0.4-3.2c0.5-0.1,0.7,0.1,0.8,0.4c-1,5.5-1.3,13.4-2.8,19.4c-0.4,1.5-0.4,3.1-1.6,4
			C45.7,141.9,47.8,139.4,48.2,137.7z M48.2,143.7c1.5,0.2,2.1,1.3,2.8,2.4c3.1-0.5,4.5,0.8,5.9,2c2.4-1.1,4.7,0.3,5.9,1.6
			c2.1-0.8,3.9,0,5.1,1.2c3.4-1.4,6.4,1.4,9.1-0.4c1.4-0.2,1.9,0.5,2.8,0.8c1.5-0.4,2.1-1.6,3.5-2c1.3,0,2.1,0.5,2.8,1.2
			c1.8-0.9,3-2.9,5.5-2c1.5-0.1,1.6-1.6,2.8-2c1,0,2.2-0.1,2.8,0.4c2.1-0.6,2.8-4.5,5.9-2.8c1.2-0.3,0.8-2.1,2.4-2
			c0.1,0.7-0.5,0.8-0.4,1.6c0,1.2-1.6,3.1-2.4,1.2c-2.5-1.4-3.5,1.7-3.9,3.6c-1.4-0.2-2.1-1.1-3.2-1.6c-1.2,0-1.5,0.9-2,1.6
			c-0.3,0.3-0.2,1.1-0.8,1.2c-0.6,1.8-1.7-0.5-3.2-0.4c-1,0.1-1.2,0.2-2,1.2c0,0.1,0,0.3,0,0.4c-1.2,3.1-2.1-1.3-4.3-0.8
			c-1.7,0.2-1.9,1.8-2.8,2.8c-1.5-0.1-1.5-1.7-3.2-1.6c-1.8-0.2-2.1,1.1-3.2,1.6c-1.1-0.1-1.1-1.3-2-1.6c-2.4-0.4-3.3,0.7-4.7,1.2
			c-0.8-0.5-1-1.6-2-2c-2-0.4-2.3,0.9-3.9,0.8c0-0.1,0-0.3,0-0.4c-0.4-0.3-0.6-0.7-0.8-1.2c-0.1-0.8-1.1-0.8-1.6-1.2
			c-1.6,0-1.6,1.6-3.6,1.2c-0.4-1.2-0.8-2.3-2-2.8c-1.6-0.9-2.1,0.8-3.9,0.8c0.3-1.9-0.6-2.6-1.6-3.2c-1.5-0.7-1.8,1.8-2.4,0.8
			C45.8,143.9,47,143.7,48.2,143.7z M102.2,166.6c-3,0.4-4.7-0.6-5.9-2c-1.2,0.9-3.2-0.3-4.3-0.8c-1.9-2.4,0-5.5,1.6-6.7
			c-1.1-5.1,5.1-7.7,7.5-3.2c2.1-0.4,2.7,0.7,3.9,1.2c1.4,2.1,0.4,4.7-1.2,5.9C104.1,163.8,103.5,165.5,102.2,166.6z M86.4,167
			c-0.6,2.8-3.1,4.9-6.7,3.6c-0.4-1-1.4-1.5-1.6-2.8c-1.4-1-3.3-1.5-3.6-3.6c-0.2-2.2,1.4-3.8,3.6-4.4c0.1-1.4,0.8-2.4,1.2-3.6
			c1.5-0.4,3.5-1.4,4.7,0c1.2,0.3,1.6,1.5,2,2.8C90.3,159.4,91.6,166.7,86.4,167z M72.6,161.9c0.4,3.3-0.6,5.2-3.6,5.2
			c-0.6,1.1-1.1,2.4-2,3.2c-3.1,1.8-6.4-0.6-6.7-4c-0.6-0.9-2.1-0.8-2.8-1.6c-0.8-2.2,0-3.9,0.8-5.5c1.3-0.1,1.8-1.1,3.6-0.8
			c1-0.9,1.4-2.3,2.4-3.2c2.4-0.2,4.4,0.1,5.5,1.2c0.2,0.9,0.6,1.8,0.4,3.2C70.9,160.5,72.1,160.8,72.6,161.9z M43.9,152.4
			c1.3-0.2,1.8,0.3,2.8,0.4c1.4-0.5,2.4-1.7,3.9-1.6c0.7,0.1,1.1,1,2,0.8c0.3,1.2,1.2,1.7,0.8,3.6c1.7,1,2.9,4.7,1.2,6.7
			c-0.9,0.5-1.6,1-3.2,0.8c-1.1,0.7-1.8,1.9-3.2,2.4c-2.5-0.6-4.8-1.6-4.3-5.1c0-1.5-2.2-1.9-2.4-3.6
			C41.2,154.6,42,153.5,43.9,152.4z M26.9,226.1c-2,1-4.1,0-4.7-1.6c1.1-3.6,4.7-4.7,8.3-5.9C29.8,221.6,28.3,223.7,26.9,226.1z
			 M39.5,220.1c0.2,1.2-0.3,1.8-1.6,1.6C36.7,220.6,38.4,218.9,39.5,220.1z M37.9,226.4c-3.2,0.3-5.3-0.5-8.3-0.4
			c1-2.6,2.2-5.2,3.5-7.5C35.4,220.5,37,223.1,37.9,226.4z M37.5,170.2c-0.6-0.4-1.8-1-2.4-1.6c-0.7-0.7-1.6-1.1-1.2-2.4
			c1.7-0.8,3.4,0.9,4.7,1.6c0.8,0.4,1.5,0.8,2.4,1.2c2.3,1.1,4.4,2.2,7.1,3.2c8,3,17.6,5,27.6,4.8c8-0.2,16.1-1.5,23.7-4
			c1.8-0.6,3.4-1.3,5.1-2c0.8-0.3,1.9-0.4,2.8-0.8c0.7-0.3,1.3-0.9,2-1.2c2.3-1,4.8-1.9,7.1-3.2c0.3-0.1,0.6-0.6,0.8-0.8
			c0.5-0.3,1.4-0.5,2-1.2c0.5,0.1,0.6,0.7,1.2,0.8c0.3,1.6-1.6,2-2.8,2.8c-0.6,0.4-1.3,0.6-2.4,1.2c-0.7,0.4-2,1-3.2,1.6
			c-1.6,0.7-3.1,1.7-4.7,2.4c-0.8,0.4-1.9,0.5-2.8,0.8c-0.8,0.3-1.3,0.9-2,1.2c-1.7,0.7-3.6,1-5.5,1.6c-1.7,0.6-3.3,1.2-5.1,1.6
			c-9.7,2-21.9,2.4-32.3,0.4c-2-0.4-3.9-1.1-5.9-1.6s-4-0.8-5.9-1.6c-1.7-0.7-3.5-1.6-5.1-2.4C41.1,171.8,39.1,171.1,37.5,170.2z
			 M108.5,152.8c-0.3,1.1,0.8,0.8,0.8,1.6c1.4,0.6,2.4-1.3,2.8-0.4c1.2,0.5,2.1,2.2,2.8,3.6c-1.6,0-1.7-1.5-2.8-2
			c-2,1-4.1,0-5.1-1.2c-0.3-3.1,0.6-4.9,2.8-5.6C110.9,150.4,108,150.7,108.5,152.8z M118.8,189.6c-1.3,0.6-3.6-1.1-3.9-2.8
			C117,186.9,117.8,188.3,118.8,189.6z M113.6,183.7c-0.2-2,0.6-3.1,1.2-4.4c2.7,0.8,2.6,2.3,2.8,5.2
			C115.8,184.7,115.3,183.6,113.6,183.7z M116.8,176.9c1.3-0.7,2.5-1.5,4.7-1.2c0.4,1.1,1.7,2.7,0.8,4c-1.7-0.7-1.9-0.7-3.6,0
			C118.4,178.5,116.8,178.5,116.8,176.9z M45,190.8c2.3-0.4,2.1-5.2,4.3-4.4c-1,3.8-3.9,5.9-5.5,9.1c-1.1-1.7,0-3.3,0-5.2
			c0.1-4.9-1-9.7-1.6-14.3c1.4,0.7,3.3,0.9,3.9,2.4c2,0.1,3.1,1.1,4.7,1.6c-2.2,0.9-5-1.1-6.7-2C43.8,181.5,45.7,185.9,45,190.8z
			 M38.3,206.6c0.6-0.9,1.3-1.6,2-2.4C41,204.8,39.3,206.4,38.3,206.6z M43.1,213.4c0.6-1.4,1.8-2.2,2-4c1,0.4,3,0.7,3.5-0.4
			c0.3-1.6-1.5-1.1-2.8-1.2c-1-0.8-0.5-3-2.8-2.4c-0.6-0.2-0.1-1.1-0.4-1.6c-0.1-0.1-1.2-0.7-1.2-0.8c0-1.1,1.9-2.2,3.6-2.4
			c0.6,0.2,0.5,1,1.2,1.6c0.3,0.3,1.2,0.3,1.6,0.8c0.3,0.3,0.2,0.9,0.4,1.2c0.2,0.4,1.4,1.9,1.6,2.8c0.6,3.1-0.6,6-2,8.3
			C45.9,215,44.1,214.6,43.1,213.4z M51.7,228c-1.9,0.5-1.8-1.1-2.4-2c-0.1-1.2,1.4-0.7,1.6-1.6c-0.2-0.3-0.4-0.6-0.4-1.2
			c-0.1-0.9-1.7-0.2-2.4-0.4c-0.6-1.5-1.6-2.6-2-4.4C51.1,215.4,52.5,224.2,51.7,228z M65.9,226.4c0.1,0.3-0.2,0.4-0.4,0.4
			c0.6,3.6-3.7,2.1-6.3,2.4c-1.8,0-1.7-2-2-3.6c-0.5-1.5,0.8-0.1,1.6,0c0.9,0.1,3.1-0.9,2.4,0.8c-0.2,0.3-0.4,0.6-0.4,1.2
			c0.4,0,0.8,0,1.2,0c0.9-0.2,0-2.1,0.8-2.4c0.6,0.6,3.1,0.8,2.8-0.8C66.4,224.4,65.7,225.9,65.9,226.4z M66.3,223.3
			c-1.1,0.1-1-1.1-1.6-1.6c-0.7-0.1-2,0.4-1.6-0.8c0.5-0.5,0.5-1.5,0-2c-0.3-1.4-2.7-0.7-3.2,0c0,0.1,0,0.3,0,0.4c0,0.8,0,1.6,0,2.4
			c-1.1-0.2-2.3,1.6-2.8,0.8c-0.1,0-0.3,0-0.4,0c0.1-3.2-0.9-5.1-0.8-8.3c-0.6-2.4-0.7-5.4-1.2-7.9c-1-3.9-0.9-8.9-2.4-12.3
			c0-1.7-0.9-2.5-0.8-4.4c0.7-3.6,2.8-5.9,3.9-9.1c-0.3-1.1,0.8-0.8,0.8-1.6c0.9,0.2,1.8,0.6,3.2,0.4c1.6,0.6,3.6,0.9,5.9,0.8
			c1.3,0.8,4,0.2,5.9,0.4c0.6-0.1,0.7,0.4,1.2,0.4c-0.8,8.6-1.9,16.8-3.6,24.6c0.3,1.9-1.1,3.7-0.4,4.8c-0.8,3.9-1.3,8.2-2.4,11.9
			C66.3,222.5,66.3,222.9,66.3,223.3z M86.4,225.7c-0.2,0.9-1,3.8-2.8,3.2c0.1-2.2,1.6-2.9,2.4-4.4C87,224,86.6,225,86.4,225.7z
			 M89.2,218.9c-1.2-0.9,0.5-2.4,0.4-3.6c0.4,0,0.8,0,1.2,0C90.9,217.2,89.5,217.6,89.2,218.9z M92,213.8c-1-1.9,1.1-3.5,3.2-3.6
			C94.5,211.8,93.7,213.3,92,213.8z M96.3,191.6c-0.4,0.8-0.8,1.6-1.2,2.4c-2.5,4.6-4.9,9.3-7.5,13.9c-0.5,1.3-1.4,2.3-2,3.6
			c-1.9,4.2-4.1,8.1-5.9,12.3c-0.6,1.1-1.1,2.3-1.6,3.6c0.1,0.3-0.2,0.4-0.4,0.4c0.3,1.3-7.2,2-8.7,1.6c-0.2,0-0.3-0.6-0.4-0.8
			c0.7-0.9,0.2-3,1.2-3.6c0-1,0.2-1.9,0.8-2.4c0.7-5.2,2.2-9.4,3.6-13.9c0.1-1.4,1-1.9,0.8-3.6c2.5-7.8,4.4-16.2,6.7-24.2
			c2.1-0.2,4.1-0.6,5.9-1.2c1.8,0.3,2.4-0.5,3.9-0.4c-0.1-0.3,0.2-0.4,0.4-0.4c1.6-0.2,3.1-0.6,4.7-0.8c-0.1-0.3,0.2-0.4,0.4-0.4
			c2.3-0.2,3.6-1.4,5.9-1.6c0.6-0.6,1.5-0.8,2.8-0.8c-0.9,3.2-3.2,5.7-4.7,8.3C99.4,186.4,98.2,189,96.3,191.6z M100.6,205.8
			c-0.8,0.7-2,0.9-2.4,2c-2.3-0.9-0.8-5-0.4-6.7c1.5-0.2,1.6,1,2.8,1.2C100.3,203.9,100.3,204.3,100.6,205.8z M103.4,200.3
			c-0.9,0.1-0.7,1-1.6,0.8c-1.2-0.2-1.9-0.8-2.4-2.4c0.9-0.9,2.1-1.4,3.2-2c1,1.1,2.1,2.1,2.4,4C104.2,201,103.9,200.3,103.4,200.3z
			 M105,194c-0.3-1.8,0.6-2.5,0.8-4c2.6,0.7,2.8,3.3,2.8,5.2C107,195.1,106.1,194.5,105,194z M105.8,197.1c2.2-0.1,2.9,1.3,3.5,2.8
			C107.5,200.7,106,199,105.8,197.1z M108.1,187.6c1-0.7,2.1-1.3,3.6-1.6c0.5,1.2,2.7,2.3,1.6,4c-1.8-0.8-1.6-0.4-3.6,0
			C109,189.3,108.1,189,108.1,187.6z M112.5,199.1c-1.4-0.1-1.7-1.2-2-2.4c2.4-0.1,3.5-0.7,3.9,1.6
			C113.4,198.3,113.2,198.9,112.5,199.1z M118.4,197.1c-1.5-0.4-3.2-1.5-3.6-2.8c-0.2-0.6,0.4-0.7,0.4-1.2c0.1-0.8-0.7-1.5,0-2
			c1.4-0.6,3.3,1.3,4.7,2C120,195,119.2,196.2,118.4,197.1z M121.5,190.8c-0.8-1.5-2-2.5-2-4.8c0.8-0.3,1.1,0.5,1.6,0.4
			c0.2,0,0.9-0.8,0.8-0.8c1.5,0.2,3.9,2.6,3.9,2.8C125.8,189.9,123.7,190.4,121.5,190.8z M130.2,176.9c1.1-0.3,1.5-1.1,2.4-1.6
			c0.9,0,1.6,0.7,2.4,1.2c1.6,1.2,2.7,1.5,0.4,3.2c-0.3,0.2-0.9,0.1-1.2,0.4c-0.1,0.1-0.3,0.8-0.4,0.8c-1,0.4-2.3,0.2-3.2,0.4
			c-1.3-3.7-3.1-6.9-7.1-7.9c-0.2-2,0.9-2.8,1.6-4c1.3,0.2,1.4,1.5,2.8,1.6c0.2,1.3-0.6,1.5-0.8,2.4
			C128,174.7,129.2,175.7,130.2,176.9z M127.8,180.5c-2-0.5-2.9-2.1-3.9-3.6C125.3,176.4,127.7,178.3,127.8,180.5z M127.4,186.8
			c-1.5-0.4-2-1.7-3.2-2.4c0.1-1.8,0.3-1.6,0-3.2c2,0.2,2.9,1.5,4.3,2.4C128.4,184.9,127.9,185.9,127.4,186.8z M142,186.8
			c-2,1.6-4.1,3-5.9,4.8c-1.7,1.6-2.9,4.7-6.3,4.4c0.2-1,0.5-1.7,1.2-2.4c0.8-0.8,1.9-1,2.8-2c0.1-0.1-0.1-0.7,0-0.8s0.7,0.1,0.8,0
			c0.3-0.3,0.1-0.9,0.4-1.2c0.3-0.3,0.9-0.1,1.2-0.4c2.1-2.1,3.8-4.3,6.7-5.9c1.1-0.7,1.7-2.4,3.5-0.8c0.2,1.2-1.1,1.1-1.2,2
			c-0.1,0-0.3,0-0.4,0C144,185.4,142.9,186,142,186.8z M153.1,194.8c-0.6,1.6-1.4,3.1-3.2,3.6c-0.7-1.5-0.9-3.3-2-4.4
			c-1.5,0.8-1.3,3.4-2.4,4.8c-1.2-1.1-2.6-1.8-3.2-3.6c1.6-0.6,3.7-0.8,4.3-2.4c-0.5-1.6-2.7-1.5-4.3-2c-0.1-2,1.6-2.1,2.4-3.2
			c2.3,0.2,0.9,4.1,3.2,4.4c1.7-0.5,1.4-3.1,2.4-4.4c1.5,0.6,2.6,1.6,3.2,3.2c-1.6,0.4-3.6,0.3-4.3,1.6
			C149.7,193.9,151.6,194.1,153.1,194.8z M152.7,180.1c-0.1,0.5,1.6,1.2,0.4,1.6c-0.1,0.5-1,0.3-1.6,0.4c0-0.1,0-0.3,0-0.4
			c-1.2-0.1-2.2-0.4-3.2-0.8C149.4,180.3,151.1,180.2,152.7,180.1z M147.9,178.9c-2,0.3-5.3,0.4-7.1-0.8c3.2-0.1,6.4-0.2,9.5,0
			C150.6,179.5,148.6,178.8,147.9,178.9z M147.5,176.5c-2.5,0-5,0-7.5,0c-0.5,0.1-0.7-0.1-0.8-0.4c-1.3-0.8-3.9-0.3-4.3-2
			c1.7,0.7,4.4,0.3,6.7,0.4c1.4,0.3,3.3,0.1,4.3,0.8C146.7,175.5,147.7,175.5,147.5,176.5z M128.6,170.2c0.7-1,1.7,0.1,3,0.1
			c0.2,0,0.4-0.1,0.6-0.1c2.3,0.6,5.3,0.5,7.5,1.2c1.7,0.1,3.4,0.3,4.3,1.2C138.6,173.7,132,172.5,128.6,170.2z M140.8,169
			c-1.1,1.4-4.4-0.1-7.1,0.4c-0.3-0.1-0.4-0.4-0.8-0.4c-4.4-0.3-7.1-2.4-9.9-4.4c0.8-1.2,1.7,0.6,2.8,0.4c1.6,0.9,4.3,0.7,5.9,1.6
			c1.8-0.2,2.5,0.7,4.3,0.4c1,0.2,2.2,0.2,2.8,0.8C139.7,168.1,140.1,168.7,140.8,169z M136.9,165.1c-0.6,1.1-2.9,0.7-4.3,0.4
			c-1.2-0.2-2.8-1.3-3.9-1.6c-1.6-0.4-2.7-0.6-4.3-1.2c-0.3,0.1-0.4-0.2-0.4-0.4c-3.2-1-5.4-3-7.5-5.2c1.9-0.7,3.6,2.2,5.9,2.4
			c0.3,0.3,1.1,0.2,1.2,0.8c1.5,0.2,2.5,0.9,3.9,1.2c1.7,1.2,4.6,1.2,6.3,2.4C135,164.1,136,164.6,136.9,165.1z M133.7,161.1
			c-2.2,1.1-4.4-1.1-6.7-1.2c-0.2-0.5-1.5-0.1-1.6-0.8c-3.1-1.1-5.5-2.9-8.3-4.4c-0.3,0.1-0.4-0.2-0.4-0.4c-2.1-1.4-3.3-3.5-5.1-5.2
			c0.5-1.4,1.2,0.6,1.6,0.8c0.2,0.1,0.6-0.1,0.8,0c0.2,0.1,0.3,0.7,0.4,0.8c0.2,0.1,0.6-0.1,0.8,0c0.1,0.1,0.3,0.7,0.4,0.8
			c0.2,0.1,0.6-0.1,0.8,0c0.2,0.1,0.3,0.7,0.4,0.8c0.9,0.4,2.1,0.9,3.2,1.6c1.8,1.2,5.4,2.8,7.9,3.6c0.3-0.1,0.4,0.2,0.4,0.4
			C131,158,132,159.9,133.7,161.1z M129,155.1c-2.7,1-5.2-1.6-7.5-2.4c-3.2-1.8-6.4-3.6-9.1-5.9c-1.8-1.3-3.2-3.2-4.7-4.8
			c1.7-0.2,2.7,2,4.3,3.2c0.4,0.3,0.5,0.1,0.8,0.4c0.3,0.3,0.8,0.5,1.2,0.8c0.4,0.4,2.1,1,3.2,1.6c1.7,1,3.7,1.9,5.5,2.8
			c1.3,0.6,2.7,1.2,3.9,2C127.5,153.3,127.9,154.4,129,155.1z M123.1,148.8c-0.7,0.1-0.8-0.5-1.6-0.4c-3-1.4-6-2.6-8.3-4.8
			c-3.4-2.3-6.4-4.9-8.7-8.3c1.1-0.5,2.5,1.4,3.5,2.4c1.7,1.6,3.1,3,5.5,4.4c2,1.1,4.7,2.4,7.5,3.2
			C121.4,146.6,123.7,147.9,123.1,148.8z M116.4,138.5c0.9,1,1.2,2.5,2.4,3.2c-0.9,1.3-2.1-0.5-3.2-0.4c-2.1-1.2-4.1-2.4-5.9-4
			c-1.9-1.5-3.6-3.3-5.1-5.1c-0.4-1-1.4-1.5-1.6-2.8C107,132.9,110.8,136.6,116.4,138.5z M114.4,135.3c-0.3,1.2-0.8-0.4-1.6,0
			c-0.7-0.4-1.2-0.9-1.6-1.6c-0.4,0-0.8,0-1.2,0c-2.6-2.5-5.7-4.6-7.9-7.5c0.1-0.7-0.5-0.8-0.4-1.6c2.7,1.4,4,4.2,7.1,5.1
			c0.3-0.1,0.4,0.2,0.4,0.4C112.5,130.4,112.8,133.6,114.4,135.3z M109.3,125.8c0.8,0.3,0.3,1.9,1.2,2c-1.7,1-3.7-1-4.7-2
			c-1.5-1.2-2.8-2.5-3.9-4c-0.7-0.4-0.7-1.4-1.2-2c-0.5-0.2-0.1-1.5-0.8-1.6c0.8-0.7,1.8,1.9,3.2,2c0,0.8,1.1,0.5,0.8,1.6
			c1.9,0.7,3.4,1.9,5.1,2.8C108.8,125.3,109.3,125.3,109.3,125.8z M106.9,119.9c0.2,0.3,0.4,0.6,0.4,1.2c-4-1-6.3-3.7-8.3-6.7
			c0.1-1.3-1-1.3-0.8-2.8c2,2.3,4,4.3,6.7,6.3C105.7,118.4,107.1,118.5,106.9,119.9z M104.2,112c0,1,0.2,1.9,0.8,2.4
			c-0.1,0.9-1.7,0.2-2,0c-2.7-2.1-4.8-4.7-5.9-8.3c0-0.4,0.5-0.3,0.8-0.4c0.8,1.6,2.7,2,3.2,4C102.7,109.8,102.8,111.5,104.2,112z
			 M102.6,108.4c-2.1-0.8-3.1-2.7-4.3-4.4c-0.3,0.1-0.4-0.1-0.4-0.4c-0.3-1.1-1.3-1.6-1.2-3.2c1.5,1.9,3.6,3.3,5.1,5.2
			c0,0.1,0,0.3,0,0.4C102.4,106.5,102.6,107.4,102.6,108.4z M97.9,99.3c-0.3-0.2-0.7-0.3-0.8-0.8c-0.6-1.4-1.4-2.6-1.6-4.4
			c0.9,0.7,1.3,1.5,2,2.4c1.2,1.6,3.2,2.8,3.2,5.5C99.5,101.3,98.6,100.4,97.9,99.3z M99.5,96.1c-2.4-0.8-3-3.4-3.9-5.6
			c0-0.7,0-1.3,0-2c1.5,1.6,2.5,3.6,3.6,5.5C99.4,94.6,99.6,95.2,99.5,96.1z M95.5,84.2c0.9,0.8,3.3,3.9,2.8,5.5c0,0-1-0.4-0.8-0.8
			c-0.7-0.6-1.2-1.5-1.6-2.4C96.2,85.4,95.2,85.5,95.5,84.2z"/>
		<path fill="#171717" d="M153.1,223.3c-0.3,0.3-0.5,0.1-0.8,0.4c-1.4,1.8-4,4.1-5.9,5.9c-0.9,0.8-2,1.4-2.8,2.4
			c-0.2,0.3-0.2,0.9-0.4,1.2c-0.1,0.1-0.2,0.1-0.3,0.1h3.3c0.6-0.4,1.2-0.7,1.7-0.9c1.2-0.6,3-1.3,4.3-1.6c0.7-0.1,1,0.4,1.2,0.4
			c1.1,0,2.3-0.8,3.5-0.4c0.1,1.2-1.3,0.8-2,1.2c-1.2,0.8-3.4,0.7-5.1,1.3h5.4c0.7-0.3,1.4-0.5,2.3-0.5v-5.2
			c-0.1,0.1-0.2,0.2-0.2,0.5c-0.1,0-0.3,0-0.4,0c-0.3,1-2.1,0.6-2.8,1.2c-1-0.4-2.4-0.5-3.9-0.4c0.6-2.4,2.7-3.1,5.1-3.6
			c0,0.7-1.3,0.3-1.2,1.2c-0.1,0.3,0.1,0.4,0.4,0.4c1.4,0.3,1.9-0.4,3-0.4v-8.3C156.7,220.2,154.6,221.8,153.1,223.3z"/>
		<path fill="#171717" d="M16.7,213.4c0-0.4,0.5-0.3,0.8-0.4c0.8,0.2,1-0.3,1.6-0.4c-2.4-1.2-4.7,0.5-7.1,0.8v1.6
			c0.3-0.1,0.6-0.2,0.8-0.4C13.6,214.1,15,213.8,16.7,213.4z"/>
		<path fill="#171717" d="M21,173c-0.6-1-2.6-0.5-4.3-0.8c-1.1-0.2-2.2-0.9-3.2-0.8c1.5,1,3.6,1.3,5.9,1.6c0.6,1-1,2.5-2,3.2
			c-1.6,0.7-2.8,2-4.7,2.4c0,0.4-0.4,0.4-0.8,0.4v0.9C16,178.8,19.3,176.2,21,173z"/>
		<path fill="#171717" d="M11.9,175.7v0.9c0.6-0.1,1.1-0.3,1.6-0.5C14.7,175.8,13.6,175.7,11.9,175.7z"/>
		<path fill="#171717" d="M13.5,218.9c-0.5-0.3-1-0.3-1.6-0.3v1.1c0.3-0.1,0.6-0.2,0.8-0.4C13.2,219.4,13.4,219.2,13.5,218.9z"/>
		<path fill="#171717" d="M11.9,170.9v0.4c0.4,0,0.8,0.1,1.2,0.1C12.7,171.2,12.3,171.1,11.9,170.9z"/>
		<path fill="#171717" d="M13.1,155.9c-0.1-2.3-0.5-4.4-1.2-6.1v8.7c0.5-0.7,0.9-1.4,1.2-2.2C13.1,156.2,13.1,156.1,13.1,155.9z"/>
		<path fill="#171717" d="M23.4,208.6c-3.7-3.8-7.1-8.6-11.4-12.3l0,0v2.9c2.1,1.2,1.3,7.2,0.4,8.9c-0.2,0.2-0.2,0.7-0.4,0.9v3.6
			c0.9-0.6,1.9-1.2,3.2-1.4c1.6-1,5.3-1.8,7.5-0.8c0.8,0.2,1.7,0.1,1.6,1.2c-1.6,0.6-3.1,1.4-4.7,2c-1.2,0.9-3.1,1.1-4.7,1.6
			c-1.3-0.3-1.8,0.3-2.8,0.4v1.9c2.2-0.2,4.6,0.1,6.7,0.5c0.2,1.1-1.5,0.4-1.6,1.2c-0.1,0-0.3,0-0.4,0c-1.2,0.9-3,1.3-4.7,1.7v2.9
			c0.2,0.1,0.5,0.2,0.8,0.2c-0.1,0.6-0.4,0.9-0.8,1.2v3.5c5.2-5.3,10.3-10.6,15.4-15.8C26.5,211,24.7,210,23.4,208.6z M17.4,207
			c-0.5,1-2.4,1.5-2.4,2.4c-0.7-1.3,1.9-2.5,2-4.4C18.5,205,17.6,206.6,17.4,207z"/>
		<path fill="#171717" d="M157.6,233.3V233c-0.1,0.1-0.1,0.2-0.2,0.3H157.6z"/>
		<path fill="#F7CC00" d="M117.2,91c0.8,0.9-0.4,1.9,0,3.6c2.8,3.3,5,7.2,8.3,9.9c1.2,0.1,2.9-0.3,3.6,0.4c-0.7,0.9-0.2,3-0.8,4
			c0.6,0.7,1.3,1.6,2,2.4c0.7,0.9,1.3,1.9,2,2.8c2,2.5,3.7,5.2,7.9,4.4c0-0.1,0-0.3,0-0.4c-0.2-1.2-1.2-2.4-1.6-3.2
			c-0.1-0.1-0.7-0.3-0.8-0.4c-0.4-0.6-0.3-1-0.8-1.6c-0.3-0.3-0.9-0.5-1.2-0.8c-0.4-0.4-0.4-1.1-0.8-1.6c-2.6-3.3-5.6-6.5-7.9-9.5
			c-0.6-0.8-2.9-3.7-1.2-2.4c-0.1-0.5-0.4-0.6-0.8-0.8c-2.3-2.3-5.1-5.7-6.7-7.9c-0.1-0.1-0.6-0.2,0-0.4c-0.9-1.9-2.5-3-3.6-4.8
			c-1.4-0.8-2.2-2.3-3.2-3.4h-4.2c1.8,3.4,4.4,6,6.6,9C115.3,90.2,116.5,90.4,117.2,91z"/>
		<path fill="#F7CC00" d="M97.9,84.2c-0.1-1.1-0.3-2.3-0.8-3h-1.5C95.9,82.7,96.9,83.5,97.9,84.2z"/>
		<path fill="#B32621" d="M118.4,87c-0.1-1.4,0.7-1.9,0.8-3.2c0.7-0.6,2.2-1.8,2.9-2.6h-1.9c-1.5,0.7-2.9,1.6-4.1,2.6
			C116.2,85.5,117.3,86.2,118.4,87z"/>
		<path fill="#F7CC00" d="M121.9,84.6c0.2-0.9,1.2-0.9,0.4,0c0.4-0.1,0.6-0.4,0.8-0.8c0.1-0.5,0.7-0.6,0.8-1.2
			C122.6,82.4,121,84,121.9,84.6z"/>
		<path fill="#F7CC00" d="M96.3,86.2c0.1,0.3-0.2,0.4-0.4,0.4c0.4,0.9,0.9,1.7,1.6,2.4c0.1,0,0.3,0,0.4,0
			C97.9,87.6,97.1,86.9,96.3,86.2z"/>
		<path fill="#F7CC00" d="M95.5,90.6c1,2.2,1.6,4.8,3.9,5.6c0.1-0.9-0.1-1.5-0.4-2C97.6,93.4,96.2,88.2,95.5,90.6z"/>
		<path fill="#F7CC00" d="M100.2,101.3c-0.5-2.3-2.1-3.4-3.6-4.8c-0.3,0.9,1.4,1.7,0.4,2c0.1,0.4,0.4,0.6,0.8,0.8
			C98.9,99.7,99.2,100.9,100.2,101.3z"/>
		<path fill="#F7CC00" d="M135.7,103.3c-1-4-3.2-6.8-6.7-8.3c-0.4,0.8-3.1-0.8-3.9,0.4c0.8,1.1,1.6,2.1,2.4,3.2
			c1.4,0.6,3.7,0.2,4.3,1.6c-0.3,3.1-0.2,4.4,1.6,5.9C136,109,134.8,105.3,135.7,103.3z"/>
		<path fill="#171717" d="M78.2,102.9c2-0.9,4.5-1.2,6.7-0.8c2.2,0.4,3.8,2.2,5.1,2.8c-1.7-4.3-9.3-4-13.8-2.4
			c0.1,1.5,2.1,1.1,2,2.8c-0.9,1.2-2,2.2-2.4,4c3.6,0,7.9,1.2,11.4,0.4c1.8-0.4,3.2-2.1,4.7-2.4c-3.4-1.4-6.6-2.7-9.9-3.2
			C80.9,103.9,78.8,104.6,78.2,102.9z M77.8,108.8c-0.9-0.9,0-2,0.4-2.8c1,0.4,1,1.6,1.2,2.8C78.8,108.8,78.3,108.8,77.8,108.8z
			 M89.2,107.2c-0.2,1.8-2,2-3.9,2c0.1-1.3,1-1.9,0.8-3.6C87.4,105.9,88.5,106.4,89.2,107.2z M85.3,105.6c0.6,5-7.1,4.3-5.9-0.8
			c2.1-0.2,0.9,3.1,2.8,3.2C84.5,108.6,83.3,105.6,85.3,105.6z"/>
		<path fill="#F7CC00" d="M98.3,102.5c-1.4,0,0.8,1.3-0.4,1.2c0,0.2,0.1,0.5,0.4,0.4c1.5,0.9,2,2.8,3.6,3.6c0.7-0.2-0.1-0.5,0-1.2
			c0-0.1,0-0.3,0-0.4s0-0.3,0-0.4C100.7,104.5,99.1,103.9,98.3,102.5z"/>
		<path fill="#F7CC00" d="M104.2,114.3c0.3-1.2-0.7-1.2-0.4-2.4c-1-1.1-2.5-1.7-3.6-2.8c-1-1-1.4-3-3.2-3.2c1.1,3.7,3.2,6.3,5.9,8.3
			C103.2,113.8,103.5,114.5,104.2,114.3z"/>
		<path fill="#171717" d="M67.9,125.8c0.6,0.7,0.9,1.8,1.6,2.4c1.3-2.8-3.2-3.1-4.7-4.4c0-3.1,1.2-5.1,2-7.5c0-0.1,0-0.3,0-0.4
			c0.5-2.6,1.3-5,2-7.5c0-0.4,0-0.8,0-1.2c0.6-6.6-3.9-11.8-9.9-10.7c-2,0.4-3.7,2-4.7,4c2.6-0.3,4.8-1.9,7.5-1.6
			c3.5,0.4,6,3,6.3,6.7c0,0.1,0,0.3,0,0.4c0.5,1-0.8,5.8-1.2,7.5c-0.3,1.5-0.7,2.5-1.2,4c-0.2,0.7-0.2,1.4-0.4,2
			c-0.5,1.6-1.4,2.5-1.2,3.6C64.4,124.9,66.3,125.5,67.9,125.8z"/>
		<path fill="#F7CC00" d="M106.5,119.1c-1-0.2-1.9-1.3-2.8-2c-0.3-0.2-0.9-0.1-1.2-0.4c-1.2-1-1.3-2.3-2.8-2.8c0,0-0.1-0.7-0.4-0.4
			c-0.2,0.2,0.1,0.9-0.4,0.8c2,3,4.3,5.7,8.3,6.7c0-0.5-0.2-0.9-0.4-1.2C106.6,119.9,106.6,119.4,106.5,119.1z"/>
		<path fill="#F7CC00" d="M142.8,114.3c0.2,1.4,2.2-0.6,2,0.4c0.9-0.3,1.2-1.2,1.6-2c-0.2-0.2-1.9-0.9-2,0
			C144,113.5,143.5,114,142.8,114.3z"/>
		<path fill="#F7CC00" d="M154.3,117.5c0.9-0.3-0.7-1.4-0.8-2c-0.2-2.3-1.7-0.2-2,0.8C151.9,117.2,153.2,117.2,154.3,117.5z"/>
		<path fill="#F7CC00" d="M100.6,119.9c0.5,0.6,0.5,1.6,1.2,2c1.5,1.2,2.8,2.5,3.9,4c1,1,3,3,4.7,2c-0.9-0.1-0.4-1.7-1.2-2
			c-1.4-1.4-2.9-2.6-5.1-3.2C103.3,121.5,101.9,119.3,100.6,119.9z"/>
		<path fill="#F7CC00" d="M113.3,134.9c-0.4-2.5-1.9-3.9-3.9-4.8c0-0.2-0.1-0.5-0.4-0.4c-1.3,0.8-4.9-3.1-5.5-3.6
			c-0.3-0.2-0.2,1,0.4,0.8c-0.4,1.1-0.9-0.9-1.6-0.8c2.2,2.9,5.3,5,7.9,7.5c0.4,0,0.8,0,1.2,0c0.4,0.7,0.9,1.2,1.6,1.6
			C112.4,134.5,112.4,134.5,113.3,134.9z"/>
		<path fill="#F7CC00" d="M93.9,139.7c-1.3,0.2-1.4,1.2-2,1.6c-1.4,0.9-2.3,2.2-3.6,3.2c0.5,0.1,1.1-0.1,1.2,0.4
			c5-1.8,9.7-4,13.8-6.7c-0.1-1.7-1.1-3.2-1.6-4.8s-0.6-3.4-1.6-4.8c-0.8,1.5-1.4,3.1-2.4,4.4c0.2,0,0.5,0.1,0.4,0.4
			c-1.3,1.7-2.2,3.9-3.9,5.1c-0.2,0-0.5,0.1-0.4,0.4C94.4,139,94.2,139.3,93.9,139.7z"/>
		<path fill="#B32621" d="M107.7,134.9c-1.3-0.7-1.9-2.1-3.2-2.8c1.5,1.9,3.3,3.6,5.1,5.1C109.3,136.3,108.1,136,107.7,134.9z"/>
		<path fill="#171717" d="M77.8,134.9c-0.9,0-1.6-0.1-2-1.2c-0.2,0-0.5-0.1-0.4-0.4c-1.1-0.4-1.7-1.2-2.8-1.6
			c-1.3-0.2-1.7,0.7-2.4,1.2c-0.5-0.6-1.5-0.6-2-1.2c-1.8,0.7-1.6,3.4-3.9,3.6c0.2,1.4,2.8,0.1,3.5-0.4c1,0.4,1.7,0.9,3.2,0.8
			c1,0.1,1.2-0.6,2-0.8c2.2-0.4,5.8,2.4,6.7-0.4C79.2,134.2,78.8,135,77.8,134.9z"/>
		<path fill="#F7CC00" d="M117.6,141.3c0.3-1.5-2.7-2.4-3.9-3.6c-1-0.9-4.1-2.1-5.5-3.2c-0.1-0.1-0.3-0.7-0.4-0.8
			c-0.2-0.1-0.6,0.1-0.8,0c-0.1-0.1-0.2-0.2-0.3-0.3c0.4,0.4,0.7,0.9,1.1,1.5c0.4,1.1,1.6,1.3,2,2.4c1.8,1.5,3.8,2.7,5.9,4
			c0-0.1,0-0.3,0-0.4C114.7,140,116.6,141.6,117.6,141.3z"/>
		<path fill="#F7CC00" d="M106.6,133.5l-0.1-0.1C105.5,132.1,106.1,132.9,106.6,133.5z"/>
		<path fill="#F7CC00" d="M60,141.3c-1.1-2.5-2.4-5-4.3-6.7c-1.1,2.3-1.4,5.4-2,8.3c2.3,1.5,5.5,2.1,8.7,2.8
			C63,144.2,60.6,142.8,60,141.3z"/>
		<path fill="#F7CC00" d="M122.3,148c-0.9-3.1-5.3-3.6-8.3-5.2c-0.8-0.4-1.9-0.8-2.8-1.6c-0.5-0.5-1.1-1.2-2-2
			c-0.3-0.3-0.9-0.1-1.2-0.4c-0.4-0.4-1-1.6-2-2c1.9,2.7,4.9,4.3,7.1,6.7c2.2,2.1,5.3,3.4,8.3,4.8C121.5,148,122,148.1,122.3,148z"
			/>
		<path fill="#171717" d="M69.9,140.9c-0.2,1.5,1.7,0.5,2.4,0.4c0.6-0.1,1.5,0.6,1.2-0.4C72.2,140.9,71.1,140.9,69.9,140.9z"/>
		<path fill="#F7CC00" d="M128.2,154.8c-2-2.2-5.4-3.3-8.3-4.8c-1.5-0.8-2.9-1.6-4.3-2.4c-1.2-0.7-2.5-2.2-3.9-1.6
			c0.4,0.2,0.7,0.3,0.8,0.8c2.7,2.4,5.9,4.1,9.1,5.9C123.1,152.3,126.2,155.7,128.2,154.8z"/>
		<path fill="#F7CC00" d="M102.6,144.8c0.7,1.9,2.3,0,2.4-1.2C104.1,142.8,103.4,144.5,102.6,144.8z"/>
		<path fill="#F7CC00" d="M55.7,149.2c1,0.1,1.9,0.1,2-0.8c-1.2,0.5-2-1.4-2.4-0.4C55.7,148.1,55.7,148.6,55.7,149.2z"/>
		<path fill="#171717" d="M99.8,155.9c-0.4-1.6-1-3-3.2-2.8c-1.9,0.9-1.6,3.4-0.8,5.2c-1.7,0.6-3.3,1.4-3.2,4
			c0.7,1.3,3.2,1.5,4.7,0.8c0.9,0.6,0.9,2,2.4,2c2.9,0.3,2.1-2.5,2-4.4c1-1.2,2.8-2.5,1.6-4.8C102,155.2,101.5,156,99.8,155.9z
			 M94.3,161.9c-0.1-0.9,0.1-1.5,0.4-2C97.1,159.4,96.6,162.7,94.3,161.9z M96.7,156.7c-1.2-1.1,0.5-2.8,1.6-1.6
			C98.5,156.4,97.9,156.9,96.7,156.7z M99.5,163.5c-0.2-0.3-0.4-0.6-0.4-1.2c0.5-0.5,1.5-0.5,2,0
			C100.7,162.9,100.4,163.5,99.5,163.5z M101.4,159.1c-0.9-0.1-0.8-1-0.8-2c0.7,0,1.3,0,2,0C102.7,158.3,101.9,158.5,101.4,159.1z"
			/>
		<path fill="#171717" d="M67.5,156.7c-0.8,0-1.6,0-2.4,0c-1,0.7-0.7,2.8-1.6,3.6c-2.3-1.1-5,0-4.7,2.8c0.4,1.6,2.9,1,3.6,2.4
			c-0.3,1.5,0.5,1.9,0.4,3.2c1.4,0.3,2.1,1.2,3.5,0.4c0.8-0.6,0.5-2.4,1.2-3.2c1.9,0.3,2.6-0.6,3.5-1.2c0.6-2.8-1.5-3-2.8-4
			C68.4,159,68.4,157.4,67.5,156.7z M60,162.3c-0.1-0.9,2-2.2,2.8-0.4C62.7,164.1,60.1,163.1,60,162.3z M64.4,165.4
			c1,0.1,1.5,0.6,1.6,1.6C64.6,168.2,62.8,166.3,64.4,165.4z M64.8,159.5c0.1-1,1-1.4,2.4-1.2C67.7,160.1,65.5,160.2,64.8,159.5z
			 M69.9,162.7c0.4,1.7-0.9,1.7-2.4,1.6C67.4,162.4,68.8,162.2,69.9,162.7z"/>
		<path fill="#F7CC00" d="M131,164.7c1.5,0.4,3.1,0.3,4.7,0.4c-0.3-0.8-1.8-0.3-2-1.2c-1.7-1.2-4.6-1.2-6.3-2.4
			c-0.8,0.6-3.2-0.5-3.9-1.2c-0.1-0.6-0.9-0.5-1.2-0.8c-0.9,0.9-2.4-1-3.6-1.2c-0.6,0.9,1.1,1.4,2,2c1.1,0.7,2.3,1.1,3.2,2
			c0,0.2,0.1,0.5,0.4,0.4C126.4,162.1,128.5,164.1,131,164.7z"/>
		<path fill="#F7CC00" d="M131.8,166.6c-1.6-0.9-4.3-0.7-5.9-1.6c-0.8,0.8,0.2,0.8,0.4,1.6c2.2,0.9,4.6,1.5,6.7,2.4
			c0.4,0,0.5,0.3,0.8,0.4c1.2-1.2,5.1,0.4,6.3-0.8c-0.5,0.1-2.2-0.6-1.2-0.8c-0.6-0.6-1.7-0.6-2.8-0.8
			C135.7,168,130,166.7,131.8,166.6z"/>
		<path fill="#F7CC00" d="M105.8,175.4c-1.2,0-2.2,0.2-2.8,0.8c-1.7,0.9-3.7,1.6-5.9,2c0-0.1,0-0.3,0-0.4c-0.2,0-0.5,0.1-0.4,0.4
			c-1,1-3.2,0.7-4.7,1.2c0-0.1,0-0.3,0-0.4c-0.2,0-0.5,0.1-0.4,0.4c-0.7,0.5-3.1,1.4-3.9,0.4c-1.8,0.6-3.8,1-5.9,1.2
			c-2.3,8-4.2,16.4-6.7,24.2c0.6,0,0.2,1.1,0.8,1.2c0.4-0.9,2.8-1.9,3.9-0.8c0.8-0.9,0.1-3.3,1.2-4c0.2-1.9,5.3-1.3,3.9,0.4
			c0.5,0.5,0.5,1.9,0,2.4c1.3,0.6-0.8,1-0.4,2c0.8-0.2,2,1.1,1.2,1.2c0,0.2,0.1,0.5,0.4,0.4c0.8,1.5,0.4,0.8,1.6,0
			c2.6-4.5,5-9.3,7.5-13.9c0-1.5-1,0.1-1.6-0.4c-0.6,0.6-2,0.4-3.2,0.4c-0.2-0.6-0.6-1-1.2-1.2c0.1,0.6,0.6,0.7,0.8,1.2
			c-0.8,0-0.5-1.1-1.6-0.8c0,1.1,0,2.1,0,3.2c-0.4,0.4-2.8,0.8-3.2,0c0-0.2,0.1-0.5,0.4-0.4c0-1.2,0.8-1.5,1.2-2.4
			c-2.1-0.1-2.7,1.3-5.1,0.8c0.1-0.7-1.9-1.2-0.8-1.6c0-0.2-0.1-0.5-0.4-0.4c-1.5-2.5,1.4-5.9,3.2-5.2c0.5,0,1.1,0,1.6,0
			c0-0.5-0.7-0.4-0.8-0.8c0.7-0.1,0.9,0.5,1.6,0.4c0.2-0.8-0.5-2.6,0.4-2.8c1-3.7,5.9-4.2,6.7-0.8c0.3,1.4-0.6,2.9-1.2,4.4
			c2-0.2,3.5,0.2,3.5,2c0.9,0.1,0.2,1.7,0,2c0.1,0.5,0.4,0.2,0.8,0c1.9-2.5,3.1-5.2,4.7-7.9C102.6,181.1,104.8,178.5,105.8,175.4z"
			/>
		<path fill="#F7CC00" d="M144.8,184.5c0.1-0.8,1.1-0.8,1.2-1.6c-2-1.3-3.5,1-4.7,2c-3.8,3-7.7,7-11,10.7c3.1,0.1,4.3-2.8,5.9-4.4
			c1.7-1.6,3.6-3,5.5-4.4c0.2-0.9,1.2-0.9,0.4,0C142.9,186,144,185.4,144.8,184.5z"/>
		<path fill="#171717" d="M55.7,193.2c0.5,0.5,1.4,0.5,2.4,0.4s1.4-1,2.4-1.2c0,1.2-0.2,2.2-0.8,2.8c-0.6,1.9,1,1.6,2.4,1.6
			c1.1-1.4-0.4-2.8,0-4.8c1.4,1.4,3.8,2.4,5.5,1.2c0.6-0.5,1.3-2.5,1.2-3.2c-0.2-1.1-0.9-1.4-2-2.4c-1.2,0.3-1.2-0.7-2.4-0.4
			c0.7-0.7,0.3-2.3,0.4-3.6c-0.7-2.6-5.9-1.9-6.3,0.4c0,1.1,0,2.1,0,3.2c-1.5-0.9-4.3-0.3-4.3,1.6c-0.1,0.3,0,0.8-0.4,0.8
			C53.6,191.6,54.1,193,55.7,193.2z"/>
		<path fill="#F7CC00" d="M26.9,185.6c-0.1-0.8-1.1-0.8-1.6-1.2c-1.7,1-4.5,0.7-4.3,3.6c-0.3,1.1,1.9-0.3,1.6,0.8
			c0.6-0.7,2.1-0.5,2.8-1.2C25.7,186.8,27.1,187,26.9,185.6z"/>
		<path fill="#F7CC00" d="M11.9,199.3v9.2c0.1,0,0.2-0.1,0.4-0.3C13.2,206.5,14,200.5,11.9,199.3z"/>
		<path fill="#F7CC00" d="M84.1,212.2c-1,0-2.3,0.2-2.4-0.8c-0.2-0.5-0.5-0.8-1.2-0.8c0.1,1.5,0,2.9-0.8,3.6c-0.4,0-0.8,0-1.2,0
			c0-0.3,0-0.5,0-0.8c-0.8,0.1,0.1-1.1,0.4-1.2c0.2-1.1-2.2,0.3-2-0.8c-0.6-0.5-1.1-1-1.6-1.6c-0.9-0.2,0.1-2.5-1.2-1.2
			c-1.4,4.4-2.9,8.7-3.6,13.9c0.4,0.9,1.4-1,2.8-0.4c0.1-0.5-0.1-1.1,0.4-1.2c0.4-3,5.6-1.6,3.6,1.6c0.6,0.1,0.7,0.7,1.2,0.8
			c0.7,0.3,0.3,1.2,1.2,0.4c1.8-4.2,4-8.1,5.9-12.3C84.9,210.6,84.7,211.8,84.1,212.2z"/>
		<path fill="#F7CC00" d="M48.2,226.4c-0.2-0.6-0.9-1.3-1.2-2c-1.1-2.6-2.2-5.9-3.5-7.1c-1.1-0.3-1.1-1.3-1.6-2
			c-1-1.4-2.7-2.3-3.2-4c0-0.2-0.1-0.5-0.4-0.4c-1.3-0.7-2.7-1.3-3.6,0.8c0,0.7,1.6,1.5,2.4,2.4c0.8,1,1.6,2,0,0.8
			c2.3,2.6,4.5,5.6,5.5,9.1c0,0.1,0.7,0.6,0.8,0.8c1,2.3,1.7,3.9,1.2,5.2c0.5,1,0.9,2.1,1.2,3.3h3.5c-0.1-0.6-0.2-1.1-0.3-1.7
			C48.7,229.9,48.7,228,48.2,226.4z"/>
		<path fill="#F7CC00" d="M17.4,218.5c-0.4-0.9-2.5-0.2-3.6-0.4c-0.2,0,0,2.6-1.2,1.2c-0.2,0.2-0.5,0.3-0.8,0.4v1.3
			c1.8-0.4,3.5-0.8,4.7-1.7C16.8,219,17,218.6,17.4,218.5z"/>
		<path fill="#F7CC00" d="M63.2,226.1c-0.8,0.1-0.1,1.7-0.8,2c-0.6,0-1.5,0.2-1.6-0.4c0-0.5,0.2-0.9,0.4-1.2c-0.5-1.1-2.4,0-3.9-0.8
			c0.3,1.5,0.2,3.5,2,3.6c1.6-1.1,3.9,0.2,5.1-0.4c1.2-0.5,0.5-1.6,1.2-2c0.2,0,0.5-0.1,0.4-0.4C65.4,225.2,64.8,226.3,63.2,226.1z"
			/>
		<path fill="#F7CC00" d="M131.4,81.9c-0.5,1.1-1.1,2.1-1.6,3.2c0.9,0.2-1,2.2-1.2,2.8c-0.1,0.5,0.8,0.9-0.4,0.8
			c3.6,0.7,6,1.4,8.3,3.2c2.3,1.8,4.4,4.9,4.7,7.9c0.3,2.5-0.7,4.6-0.4,7.5c0.6-0.2,2,0.5,2-0.4c0.9-1.2,5.8,0.8,3.9-2
			c-2.7-6.8-5.3-13.6-5.9-22.6c-0.7-0.1-0.5-0.6-0.3-1.1h-8.6C131.9,81.5,131.7,81.8,131.4,81.9z"/>
		<path fill="#171717" d="M80.9,97.7c4.3-0.3,7.1,1.6,9.9,1.2c-1.4-1.1-4.1-2.8-7.5-3.2c-3.3-0.4-5.7,0.1-7.1,1.2
			c-0.6,0.5-1.6,1-1.2,2C77.1,98.8,78.7,97.9,80.9,97.7z"/>
		<path fill="#171717" d="M58.8,112.8c-0.4,0-0.3,0.5,0.4,0.4c1.1,0,2.1,0,3.2,0c-0.2-1,1.8,0.2,1.2-1.2
			C61.8,112,61,113.1,58.8,112.8z"/>
		<path fill="#171717" d="M73.8,123.5c0.5,0.9,0.8,2.1,2,2.4c1.2-0.3,2-3.8,0.4-4.4c-0.1,1.2,1.1,2.8-0.4,3.2
			c-1.2-0.5-1.1-2.4-2.8-2.4c-1.7,0-2.6,0.8-2.8,2.4C71.4,124.2,71.7,122.9,73.8,123.5z"/>
		<path fill="#F7CC00" d="M90.8,148.8c0.3,0.8,1.2,1.6,2,0.8c0.6-0.1,0.4-0.9,0.8-1.2C92.6,147.5,92.5,149.4,90.8,148.8z"/>
		<path fill="#F7CC00" d="M63.2,150.4c-0.6-0.6-1.7-1.5-2.4-0.8c0.2,0.5,0.4,0.9,0.8,1.2C62.4,151,62.6,150.5,63.2,150.4z"/>
		<path fill="#171717" d="M45.8,159.1c-1,1.8-0.3,4.9,2,4.8c1.7,0,1.6-1.9,2.8-2.4c1.5,0.8,2.6,0,3.5-0.8c0.5-2.5-0.9-3.1-2-4
			c0.3-2.7-0.4-4.3-3.2-4c-1.2,0.1-0.5,2.1-2,2c-1.2-0.1-1.4-1.2-3.2-0.8c-0.5,0.7-1,1.3-0.8,2.8C43.4,158.1,45.4,157.9,45.8,159.1z
			 M52.9,158.3c0.8,2.3-2.5,2.7-2,0.4C51.4,158.4,52,158.2,52.9,158.3z M50.6,154c0.5,0.5,0.5,1.9,0,2.4c-0.9,0.1-1.5-0.1-2-0.4
			C48.5,154.5,49.2,153.9,50.6,154z M48.6,159.9c-0.1,0.5,0.1,0.7,0.4,0.8c0.1,1-0.6,1.2-1.2,1.6c-1-0.1-1.5-0.6-1.6-1.6
			c0.4,0,0.3-0.5,0.4-0.8C47.3,159.9,47.9,159.9,48.6,159.9z M45,155.1c1,0.1,1.3,1,1.6,2c-0.8,0.7-0.7-0.2-2,0
			C44.5,156.2,44.7,155.6,45,155.1z"/>
		<path fill="#171717" d="M84.5,161.1c0.1-2.5-0.8-4-3.2-4c-0.9,0.9-1.5,1.9-1.2,4c-2.2,0.1-3.7,1-3.6,3.6c0.5,1.2,2.4,1,3.2,2
			c0.5,0.5,0.2,1.9,0.8,2.4c1.1,0.5,2.4,0.5,3.6,0c-0.2-1.3,0.7-1.4,0.4-2.8c1.4-0.9,3.8-0.9,3.9-3.2
			C87.9,161.6,86.7,160.8,84.5,161.1z M77.8,163.1c0.5-0.3,1.1-0.5,2-0.4C80.4,164.9,77.4,165.2,77.8,163.1z M81.7,167.8
			c-0.5-0.5-0.5-1.9,0-2.4c1,0.1,1.5,0.6,1.6,1.6C82.5,167,82.8,168.1,81.7,167.8z M82.5,160.7c-0.9-0.1-1.8-0.3-1.6-1.6
			c0.5-0.5,1.9-0.5,2.4,0C83.6,160.2,82.5,159.9,82.5,160.7z M84.5,163.9c-0.1-1.3,1.5-2.1,2.4-1.2C86.9,164,85.2,164.6,84.5,163.9z
			"/>
		<path fill="#F7CC00" d="M132.6,161.1c0.5-1.4-2.9-2.3-4.3-3.2c0-0.2-0.1-0.5-0.4-0.4c-1.3,0.8-2.5-0.7-3.5-1.2
			c-1.2-0.5-2.5-1-3.6-1.6c-2.4-1.3-4.6-2.7-6.7-4c-0.5,1,2.3,2.2,2.8,3.6c0,0.2,0.1,0.5,0.4,0.4c0.7-0.8,1,0.5,1.6,0.8
			c2.3,1.2,5.2,2.3,6.7,3.6c0.1,0.7,1.3,0.2,1.6,0.8C128.5,159.1,130.6,161,132.6,161.1z"/>
		<path fill="#F7CC00" d="M137.3,172.6c2.5,0.2,4.8-0.2,5.9,0c-1-0.6-2.4-0.8-3.9-0.8c-0.6-0.2,0-0.4,0.4-0.4
			c-2.2-0.7-5.2-0.6-7.5-1.2c-0.2,0-0.4,0.1-0.6,0.1C128.6,170.9,134.9,172.4,137.3,172.6z"/>
		<path fill="#F7CC00" d="M55.7,207.4c0.2,0,0.5-0.1,0.4-0.4c-0.4-0.6,1.2-2.5,3.2-2c0-0.7-1.1-2.3,0-2.8c0.5-0.4,0.8-1.1,1.2-1.6
			c0.5-1.5,4.1-0.9,4.3,0.4c0.2,0.9,0.6,1.8,0.4,3.2c-0.4,1.4,3.2,0.7,2,1.6c0,0.2,0.1,0.5,0.4,0.4c1.1,1.1,1-0.3,1.6-0.8
			c1.6-7.8,2.8-16,3.6-24.6c-0.5,0-0.6-0.5-1.2-0.4c-1.1,0.6-5.4,1-5.9-0.4c-2.3,0.1-4.3-0.2-5.9-0.8c-1.3,1.2-3.5-0.9-3.9,1.2
			c-1.1,3.2-3.2,5.5-3.9,9.1c0.4,1.1,1.6,3.4,0.8,4.4c1.4,3.4,1.4,8.4,2.4,12.3C55.5,206.3,55.1,207.3,55.7,207.4z M53.7,189.6
			c0.4,0,0.3-0.5,0.4-0.8c-0.8-1.2,1.5-2.7,3.6-2.4c1.1,0.1-0.3-2.4,0.8-2.4c0.4-2.3,5.6-3,6.3-0.4c1.1,0.7-0.6,4.3,2,3.6
			c0,0.1,0,0.3,0,0.4c1.1,0.9,1.8,1.3,2,2.4c0.1,0.6-0.5,2.7-1.2,3.2c-1.7,1.2-4.1,0.2-5.5-1.2c-0.4,1.9,1.1,3.4,0,4.8
			c-0.9,1.4-4.1-0.3-2.4-1.6c0.6-0.6,0.8-1.5,0.8-2.8c-1,0.2-1.3,1.1-2.4,1.2c-1,0.1-1.9,0.1-2.4-0.4
			C54.6,194.2,52.4,191,53.7,189.6z"/>
		<path fill="#F7CC00" d="M150.7,180.5c-0.8,1.3,2.2,0.6,0.8,1.2c0,0.1,0,0.3,0,0.4c0.6-0.1,1.5,0.1,1.6-0.4
			C152.5,181.1,152.3,180.1,150.7,180.5z"/>
		<path fill="#F7CC00" d="M24.1,180.5c-1.4-0.5-3.3,1.9-4.3,3.2c0.1,0.4,0.8,0.3,0.8,0.8c0.2,0,0.5-0.1,0.4-0.4
			C21.9,182.7,23.8,182.4,24.1,180.5z"/>
		<path fill="#F7CC00" d="M26.9,191.2c-1.2-1.1-4.7-1.1-5.9,0c-0.5,0.5-0.5,1.4-0.4,2.4c0.7,0,1.2,0.1,1.6,0.4
			c1.5-0.7,4.3-0.1,4.7-2C27.3,192,27.4,191.3,26.9,191.2z"/>
		<path fill="#F7CC00" d="M19.4,196.3c0.9,1.5,2.5,2.2,4.3,2.8c2-1,0-3.3-1.2-3.6c-0.1-0.7-1.3-0.2-1.6-0.8
			C20.6,195.5,19.5,195.4,19.4,196.3z"/>
		<path fill="#171717" d="M75.4,209.8c0.5,0.6,1,1.1,1.6,1.6c1.4,0.3,1.5-0.6,2.8-0.4c-0.4,0.8-0.8,1.6-1.2,2.4c0,0.3,0,0.5,0,0.8
			c0.4,0,0.8,0,1.2,0c0.8-0.7,0.8-2.1,0.8-3.6c0.7,0,1,0.3,1.2,0.8c2.4,1.2,4.5-1,4.3-3.6c-0.3,0.1-0.4-0.2-0.4-0.4
			c0-1-1.5-0.6-2-1.2c0.1-0.9,1.4-0.7,1.2-2c0.5-0.5,0.5-1.9,0-2.4c-0.1-1.9-3.1-1.1-3.9-0.4c-1,0.7-0.4,3-1.2,4
			C76.4,205.1,74.9,206.5,75.4,209.8z"/>
		<path fill="#171717" d="M67.5,206.2c-0.3,0.1-0.4-0.2-0.4-0.4c-0.5-0.5-1.7-0.4-2.8-0.4c-0.1-0.3,0.2-0.4,0.4-0.4
			c0-0.3,0-0.5,0-0.8c0.1,0,0.3,0,0.4,0c0.2-1.4-0.2-2.2-0.4-3.2c-0.8-0.7-3.2-1.3-4.3-0.4c-0.4,0.5-0.7,1.2-1.2,1.6
			c-0.3,1.5,0.5,1.9,0.4,3.2c-2-0.3-3,0.4-3.6,1.6c0.1,0.3-0.2,0.4-0.4,0.4c0,1.7-0.1,3.5,1.6,3.6c0.7,0.8,1.9,0.2,2.8,0
			c0.8,0,0.5-1.1,1.6-0.8c0.3,1.5-0.7,1.7-0.4,3.2c-0.3,0.6,1.9,0.6,1.6,0c0-0.1,0-0.3,0-0.4c0.3-1-0.8-3.4,0.8-3.2
			c0,0.1,0,0.3,0,0.4c0.7,0.3,1,1.1,2.4,0.8C67.9,210.9,69.1,207.7,67.5,206.2z"/>
		<path fill="#F7CC00" d="M65.9,211.4c0-0.1,0-0.3,0-0.4c-1.4,0.3-1.7-0.4-2.4-0.8c0,0.2,0.1,0.5,0.4,0.4c0,0.2-0.3,0.5-0.4,0
			c-1.1-0.1,0.3,2.4-0.8,2.4c0,0.1,0,0.3,0,0.4c1.2,0.6-1.6,1.3-2,0.4c-0.2-1.3,0.3-1.9,0.4-2.8c-0.7-0.2-1,0.6-1.2,0
			c-0.9,0.2-2,0.8-2.8,0c-1.3-0.1-1.3,1-1.2,3.2c-0.2,3.2,0.9,5.1,0.8,8.3c0.1,0,0.3,0,0.4,0c0.8-0.4,1.6-0.8,2.4-1.2
			c0.2-0.6-0.5-2.1,0.4-2c0-0.1,0-0.3,0-0.4c-0.2-2.1,4.4-1,3.2,0c0.5,0.5,0.5,1.5,0,2c1.4,0,2.2,2,3.2,1.2
			c1.1-3.6,1.6-7.9,2.4-11.9C67.5,209.1,67.5,211.6,65.9,211.4z"/>
		<path fill="#F7CC00" d="M11.9,224.1v0.6c0-0.1,0-0.2,0-0.3C12,224.3,12,224.2,11.9,224.1z"/>
		<path fill="#F7CC00" d="M72.6,228.8c0.8-0.4-0.4-2.2,0.8-2c0.2,0,0.5-0.1,0.4-0.4c-1.1,0.2-3.7-0.2-2.8-0.8c0-0.2-0.1-0.5-0.4-0.4
			c-0.3-0.1-0.4-0.4-0.8-0.4c-1,0.6-0.5,2.7-1.2,3.6C70.1,228.9,71.9,229.2,72.6,228.8z"/>
		<path fill="#F7CC00" d="M154.6,226.8c-0.2,0-0.5-0.1-0.4-0.4c-1.7-0.9-2.3,1-3.6,1.6c0.6,1,3.3-0.2,3.6,1.2
			c0.7-0.6,2.4-0.2,2.8-1.2c0-0.5,0.5-0.5,0.4-1.2C156.7,226.8,155.1,227.9,154.6,226.8z"/>
		<path fill="#F7CC00" d="M78.2,226.4c0-0.6-2.2,0.6-2.8-0.4c-0.9,0-0.2,1.7-0.4,2.4c1.4,0.3,2.1-0.3,2.8-0.8c0.2,0,0.5-0.1,0.4-0.4
			C77.6,227.1,78.2,226.9,78.2,226.4z"/>
		<path fill="#F7CC00" d="M153.5,231.6c-0.8-1-4.8,0.9-6.3,1.6c-0.1,0-0.2,0.1-0.3,0.1h3c1.7-0.7,3.9-0.6,5.1-1.3
			C157.7,230.5,153.5,231.6,153.5,231.6z"/>
		<path fill="#F7CC00" d="M12.7,178.5c1.4-0.8,3.7-2.6,4.7-2.4c1-0.7,2.6-2.1,2-3.2c-2.3-0.2-4.4-0.6-5.9-1.6c-0.1,0-0.3,0-0.4,0
			c-0.4,0-0.8,0-1.2-0.1v3.9c1.1,0,2,0,2.4,0.2c0.5,0.3,1.2,1.3-0.8,1.2c0-0.1,0-0.3,0-0.4c-0.5,0.2-1,0.4-1.6,0.5v2.3
			C12.3,178.9,12.7,178.9,12.7,178.5z"/>
		<path fill="#F7CC00" d="M138.9,175.7c0.3,0.1,0.4,0,0.4,0.4c0.1,0.3,0.3,0.5,0.8,0.4c1.5-0.9,4.6-0.1,6.7-0.4
			c-0.1-0.3-0.3-0.5-0.8-0.4c0-0.1,0-0.3,0-0.4c-1.1-0.6-2.9-0.5-4.3-0.8C139.7,175.5,135.3,174.5,138.9,175.7z"/>
		<path fill="#F7CC00" d="M147.2,202.7c-0.5-0.3-1.1-0.5-1.6-0.8c-0.6-0.4-1.3-1-1.6-1.2c-0.4-0.2-1.1,0.2-1.6,0
			c-0.2-0.1-0.4-0.7-0.8-0.8c-3-1.1-6.9-1.7-9.9-2c-1.1,0.7-4.8,0.7-5.9,0c-3.4,0.6-7.2,0.6-9.9,2c-1.2,1-3,1.5-4.7,2
			c0-0.1,0-0.3,0-0.4c-0.9,0.7-2,0.9-2.8,1.2c-0.1,0.1-0.2,0.7-0.4,0.8c-0.8,0.5-1.9,0.7-2.8,1.2c-2.9,1.8-5.1,3.9-7.1,5.9
			c-0.9,0.9-2.1,1.6-2.8,2.8c0.5-0.2,2.3-2.2,1.6-1.2c-1,1.4-2.4,2.3-3.2,4c-0.1,0-0.3,0-0.4,0c-2.7,3.1-4.4,7.4-5.9,11.1
			c-0.2,0.5-0.2,1.5-0.4,2c-0.4,0.8-0.9,0.7-1.2,1.6c-0.2,0.8-0.4,1.6-0.5,2.5h3.9c0-0.2,0.1-0.4,0.1-0.5c0.2-1.2,0.1-2.3,0.4-3.2
			c0-0.1,0.7,0.1,0.8,0c0.2-0.1-0.1-1,0-1.2c0.4-1,0.8-1.9,1.2-2.8c1.4-3.2,3.1-6.4,4.7-8.3c1.7-2,3.2-3.9,4.7-5.5
			c0.7-1.2,2.4-2.6,3.6-3.2c0.1-0.1,0.3-0.7,0.4-0.8c1.1-0.8,2.7-1.8,3.6-1.6c0.2,0,0.5-0.1,0.4-0.4c3.3-2.9,8.5-3.8,13.4-5.1
			c0.7,0.2,2.3-0.5,2.4,0.4c0.3-0.1,0.8,0,0.8-0.4c0.5-0.9,2.7-0.1,3.9-0.4c0.8,0,1.6,0,2.4,0c0.5-0.1,2.4,0.1,1.2,0.4
			c2,0.7,4.7,0.9,6.7,1.6c2,0.8,4.3,1.2,5.5,2.8c0,0.2,0.1,0.5,0.4,0.4c1.4-0.4,3.4,2.1,5.1,2.8c0,0.1,0,0.3,0,0.4
			c0.3,0.8,1.4,0.7,2,1.2c0.3,0.3,0.1,0.9,0.4,1.2c0.3,0.3,0.8,0.1,1.2,0.4c0.9,0.7,1.8,2.1,3,2.2v-3.3c-0.7-0.7-1.8-1.4-2.6-2.1
			C152.5,206.1,149.9,204.2,147.2,202.7z"/>
		<path fill="#F7CC00" d="M19.4,212.2c-0.1,0.6-1.5,1.9-2,0.8c-0.3,0.1-0.8,0-0.8,0.4c0.5,0.4-2.1,1.1-3.2,1.2
			c0,0.7,1.1,0.2,1.2,0.8c1.6-0.5,3.5-0.7,4.7-1.6c0.8-1.3,3-1.2,4-2.4c0-0.5-0.7-0.4-0.8-0.8c-2.2-1-5.9-0.2-7.5,0.8
			C14,213.2,18.4,210.7,19.4,212.2z"/>
		<path fill="#171717" d="M58.8,102.1c-0.4,0-1,0.2-0.4,0.4c1.9-0.6,3.2,1.5,4.3,0.4C61.4,102.7,60.7,101.8,58.8,102.1z"/>
		<path fill="#171717" d="M72.2,139.3c-0.3-0.9-2.2-0.2-3.2-0.4c-0.2-0.8-0.8-1-0.8-2c-0.4,0.2-0.7,0.3-0.8,0.8c0,0.1,0,0.3,0,0.4
			C68.5,139.8,70,139.5,72.2,139.3z"/>
		<path fill="#171717" d="M95.5,189.6c0-1.8-1.5-2.2-3.5-2c0.6-1.5,1.5-3,1.2-4.4c-0.8-3.4-5.7-2.9-6.7,0.8
			c-0.2,0.9,0.5,2.9-0.4,3.2c-0.3,0-0.5,0-0.8,0c-0.5,0-1.1,0-1.6,0c-2.3,0.5-3.5,2.1-3.2,5.2c0.3-0.1,0.4,0.2,0.4,0.4
			c1.1,2.5,5.6,0.8,5.9-1.2c1.2,0.3-0.2,1.3,0,2c-0.4,0.8-1.2,1.2-1.2,2.4c0.1,0.9,1.7,0.2,2.4,0.4c-0.3-2,0.4-3.1,0.4-4.8
			c0.5,0.2,0.8,0.5,0.8,1.2c0.6,0.2,1,0.6,1.2,1.2c1.1,0,2.6,0.2,3.2-0.4C94.8,192.9,95.5,191.6,95.5,189.6z"/>
		<path fill="#171717" d="M70.7,225.3c0.3-0.1,0.4,0.2,0.4,0.4c0.8,0.8,1.9,0.2,2.8,0c0,0.3,0,0.5,0,0.8c0.1,0.3-0.2,0.4-0.4,0.4
			c-0.2,1-0.7,1.5,0.8,1.6c0.9-0.3-0.1-2.4,0.8-2.8c1.3,0.6,2.6,0.3,3.5-0.4c0-0.7,0-1.3,0-2c-0.5-0.1-0.6-0.7-1.2-0.8
			c2.1-3.2-3.2-4.6-3.6-1.6c0,0.5,0,1.1,0,1.6C71.6,222.3,70.4,223,70.7,225.3z"/>
	</g>
</g>
</svg>
