<?xml version="1.0" encoding="utf-8"?>
<!-- Generator: Adobe Illustrator 19.2.0, SVG Export Plug-In . SVG Version: 6.00 Build 0)  -->
<svg version="1.1" baseProfile="tiny" id="Layer_1" xmlns="http://www.w3.org/2000/svg" xmlns:xlink="http://www.w3.org/1999/xlink"
	 x="0px" y="0px" viewBox="0 0 170 244" xml:space="preserve">
<metadata><?xpacket begin="﻿" id="W5M0MpCehiHzreSzNTczkc9d"?>
<x:xmpmeta xmlns:x="adobe:ns:meta/" x:xmptk="Adobe XMP Core 5.6-c111 79.158366, 2015/09/25-01:12:00        ">
   <rdf:RDF xmlns:rdf="http://www.w3.org/1999/02/22-rdf-syntax-ns#">
      <rdf:Description rdf:about=""/>
   </rdf:RDF>
</x:xmpmeta>
                                                                                                    
                                                                                                    
                                                                                                    
                                                                                                    
                                                                                                    
                                                                                                    
                                                                                                    
                                                                                                    
                                                                                                    
                                                                                                    
                                                                                                    
                                                                                                    
                                                                                                    
                                                                                                    
                                                                                                    
                                                                                                    
                                                                                                    
                                                                                                    
                                                                                                    
                                                                                                    
                           
<?xpacket end="w"?></metadata>
<g id="Layer_10">
	<path fill="#FFFFFF" d="M17,0h136c9.4,0,17,7.6,17,17.1v209.8c0,9.4-7.6,17.1-17,17.1H17c-9.4,0-17-7.6-17-17.1V17.1
		C0,7.6,7.6,0,17,0z"/>
	<path fill="#C80813" d="M74.1,72.1c0,0,3.1-7.8,10.5-16.1C92.1,47.7,98,43.3,98,43.3s-7.8-4.7-13.2-12C79.4,24,74.4,14.7,74.4,14.7
		s-4.5,9-10.9,16.5c-5.8,7-12.8,12.1-12.8,12.1S56.6,47.7,64,56C71.5,64.3,74.1,72.1,74.1,72.1z"/>
	<path fill="#C80813" d="M42.1,69.5c-1.6,0-2.8-1.2-3.4-1.9c3.3-1.8,5.5-5.3,5.5-9.3V26.5c0-5.9-4.8-10.7-10.8-10.7H25
		c-6,0-10.8,4.8-10.8,10.7v23.4L10.3,50l0.2,6.8l3.7-0.1v1.6C14.2,64.2,19.1,69,25,69h6.2c0.5,0.7,1.1,1.4,1.5,2l-0.2-0.2
		c1.3,2,4.7,5.5,9.5,5.5h5.1v-6.8H42.1L42.1,69.5z M26.7,21.7h5.1c3.7,0,6.6,3.7,6.6,8.3v24.8c0,3.3-1.5,6.1-3.7,7.5
		c-2.9-3.8-6.6-8.6-7.8-9.9c-1.9-2.1-4.7-2.6-6.8-2.6V30C20,25.4,23,21.7,26.7,21.7L26.7,21.7z M26.7,63.2c-3.2,0-5.8-2.8-6.5-6.6
		c0.8,0.1,1.5,0.2,1.7,0.4c0.7,0.7,2.7,3.2,4.9,6.1L26.7,63.2L26.7,63.2z"/>
	<g>
		<path fill="none" d="M135,109.5c0.5,2.4,3,2.7,4.7,3.9c0,1-0.1,2.2,0.4,2.7c1.2,0.3,1.4-0.4,2.3-0.4c0.2-0.6,0.2-0.9,0-1.6
			C141.6,111.7,138,109.2,135,109.5z"/>
		<path fill="none" d="M148.7,112.6c-0.1-0.3-0.2-0.6-0.3-1C148.5,112,148.6,112.3,148.7,112.6z"/>
		<path fill="none" d="M148.2,111.3c-0.1-0.2-0.1-0.3-0.2-0.5C148.1,110.9,148.1,111.1,148.2,111.3z"/>
		<path fill="none" d="M132.8,143.3C132.8,143.3,132.8,143.4,132.8,143.3C132.8,143.4,132.8,143.3,132.8,143.3z"/>
		<path fill="none" d="M131.2,107.9c-1.4-0.4-2.1,1.4-0.8,0.4c1.6,0,2.3,1,2.7,2.3c0.9,0.3,1.9,1.4,2.7,2.3c1,1.1,2.4,3,1.6,3.5
			c0.5,0,0.5,0.5,1.2,0.4c-1.9-4.2-5.3-6.9-7.8-10.5C129.6,106.7,131.7,107,131.2,107.9z"/>
		<path fill="none" d="M143.8,106.2L143.8,106.2L143.8,106.2z"/>
		<path fill="none" d="M146.7,108.6c0-0.1-0.1-0.1-0.1-0.2C146.6,108.5,146.6,108.6,146.7,108.6z"/>
		<path fill="none" d="M130.4,106c-1-1.2-1.7-2.7-3.1-3.5c-0.1,0.7,0.4,0.9,0.4,1.6C129,103,129,105.8,130.4,106z"/>
		<path fill="none" d="M144.6,106.7L144.6,106.7L144.6,106.7z"/>
		<path fill="none" d="M91.9,207.9c0.3,4-0.5,9.1,0.4,12.5C92,216.4,92.8,211.3,91.9,207.9z"/>
		<path fill="none" d="M114.8,230.2c-1.6-0.4-2.9,0-4.3,0.8c-0.9-1.8-1.8-5-4.7-3.5c-1.1,1.2-0.8,3.8-0.4,5.5
			c-0.5,0.1-0.9,0.2-1.3,0.4h2.4c0.3-0.4,0.5-0.8,0.8-1.2c1.5-0.5,2.3,0.2,2.6,1.2h4.9C115.4,232.2,114.8,231.7,114.8,230.2z"/>
		<path fill="none" d="M147.7,110.3c-0.1-0.1-0.1-0.2-0.2-0.3C147.6,110.1,147.7,110.2,147.7,110.3z"/>
		<path fill="none" d="M147.2,109.4c-0.1-0.1-0.1-0.2-0.1-0.2C147.1,109.3,147.2,109.3,147.2,109.4z"/>
		<path fill="none" d="M155.6,182.9c-0.9-1-1.8-2.2-2.7-3.1c-1.5-1.4-3.5-2.7-4.7-3.9c-0.5-0.5-0.6-1.6-1.6-1.6
			c-0.4,0-0.5-0.3-0.8-0.4c0.6,1.2,1.4,2.5,2.3,3.5c2,2.2,4.3,4.3,6.2,6.2c0.8,0.8,1.7,1.8,2.8,2.4v-1.8
			C156.7,183.8,156.1,183.4,155.6,182.9z"/>
		<path fill="none" d="M140.9,210.7c0.6,0,0.7,2.3,1.2,1.9c0.2-1.5-0.8-1.8-1.6-2.3c-0.1,0.5-0.6,0.7-0.4,1.6
			C140.7,213.7,140,210.7,140.9,210.7z"/>
		<path fill="none" d="M142.4,90.7c0.8,1.7,1.6,3,2.3,4.3c0.5,0.8,0.7,1.6,1.2,2.3c0.3,0.6,1.2,0.9,1.5,1.6c0.5,0.7,0.7,1.6,1.2,2.3
			c1.9,2.8,3.9,5.2,5.8,7.4c0.8,0.9,1.6,2.2,2.8,2.8V81.2h-19.6c0.6,2,1.7,4,2.4,5.2C141,88.1,141.8,89.4,142.4,90.7z"/>
		<path fill="none" d="M126.9,82.6c0,2.1,0,4.2,0,6.2C127.5,87.6,127.5,83.7,126.9,82.6z"/>
		<path fill="none" d="M136.4,81.2h-0.3c0.4,0.7,0.7,1.6,1.3,2.1C137.3,82.4,136.9,81.8,136.4,81.2z"/>
		<path fill="none" d="M133.1,188.8c-2.1-2.3-4.5-4.4-6.2-6.6c-0.6-0.7-1.7-1.5-1.6-2.7c2.6-1.3,5.7-2.1,8.2-3.5
			c0.2-0.1,0.2-0.7,0.4-0.8c0.3-0.2,0.9-0.2,1.2-0.4c2-1.3,4.3-1.9,5.4-3.9c-1.4-0.6-2.1-2-4.3-2c-3.5,2.4-9,5.1-12.8,6.6
			c-3.6,1.4-7.1,2-10.1,3.9c7,7.9,14.5,15.4,21.8,23c7.3,7.7,14.4,15.8,22.2,23c0,0.1,0,0.1,0.1,0.1v-11c-5.4-5.7-10.7-11.5-16-17.2
			C138.6,194.5,135.8,191.7,133.1,188.8z"/>
		<path fill="none" d="M105.5,82.2c0.1,0,0.3,0,0.4,0c0.1-0.2,0-0.6,0-0.9h-0.4C105.5,81.5,105.5,81.8,105.5,82.2z"/>
		<path fill="none" d="M134.3,123.2c1.1,3.2,3.7,4.9,5.1,7.8c1.8,1.5,2.7,3.8,4.3,5.5c0,0.1,0,0.3,0,0.4c2,1.3,2.9,3.5,4.3,5.5
			c1.1,1.6,2.8,3.2,3.5,5.1c2,2.5,3.9,5.1,5.9,7.6v-40.2C147.3,112.8,138.8,116.9,134.3,123.2z"/>
		<path fill="none" d="M153.3,231.7c-0.9,0.4-1.6,0.9-2.3,1.6h2.5C153.7,232.8,153.7,232.2,153.3,231.7z"/>
		<path fill="none" d="M114.4,88c0-0.6,0.2-1.5-0.4-1.6c0.4,1.8-0.7,2.2-2.3,1.9c-0.3,0.5-0.5,1.1-0.4,2
			C111.5,88.7,113.5,88.9,114.4,88z"/>
		<path fill="none" d="M117.2,82.6c-1.4,4.3,2.1,5.9,3.1,9c2.3-0.6,1.9-3.7,1.5-5.5c-0.3-1.7-1.9-3.5-2.8-4.9h-4.7
			C115.4,81.5,116.7,81.6,117.2,82.6z"/>
		<path fill="none" d="M110.6,83.3c-0.3,1.1-1.4,1.5-2.3,2c1.8,0.7,1.8-1.6,3.1-1.6c1.4,0,1.7,0.8,2.7,2.3c-0.1-0.1,0.1-0.3,0-0.4
			c1.3,1,2.8,3.8,4.7,5.1c-2.5-3.2-5-6.3-7.5-9.5h-0.4c0.6,0.8,1.3,1.5,1.7,2.5C112,83.4,111.5,83.2,110.6,83.3z"/>
		<path fill="none" d="M138.9,87.2c-0.8-0.1-4.5,0-2.3,0.4c1,0,2.2,0.1,2.7-0.4c-0.1-1.2-0.8-1.8-1.2-2.7
			C137.3,85,139.1,86.1,138.9,87.2z"/>
		<path fill="none" d="M126.9,81.2h-0.4c0,0.2,0,0.4,0,0.6C126.8,81.7,126.9,81.5,126.9,81.2z"/>
		<path fill="none" d="M141.7,225.1c0-2.3,0-4.7,0-7C141,219.5,141,223.7,141.7,225.1z"/>
		<path fill="none" d="M132.3,230.2c0.2-0.2,0.6-0.2,0.4-0.8c-1-4.5-4.4-1.5-7.4,0c-2.2,1.1-4.1,1.9-5,2.7c0,0.4,0,0.8,0,1.2h8.9
			C130.3,232.3,131.4,231.3,132.3,230.2z"/>
		<path fill="none" d="M145.3,107.3C145.3,107.3,145.3,107.2,145.3,107.3C145.3,107.2,145.3,107.3,145.3,107.3z"/>
		<path fill="none" d="M133.1,159.9c0.5,1.3,1.3,2.4,3.1,2.3c-0.3-1.4,0.7-1.7,0.4-3.1c-0.8,0.5-0.2,2.3-1.2,2.7
			c-2-0.6-2.2-3.1-3.5-4.3c-0.1,1,0.6,1.2,0.8,2C133,159.4,133.1,159.6,133.1,159.9z"/>
		<path fill="none" d="M95.4,143.9c0.5,0.5,2.3-1.3,2.7-1.6c0.4-0.2,0.5-0.6,0.8-0.8c0.5-0.4,1.4-0.4,1.9-0.8
			c0.2-0.1,0.2-0.6,0.4-0.8c0.3-0.3,0.8-0.1,1.2-0.4c1.6-1.3,3.9-4,5.1-5.1c2.2-2.2-1.3,0.4-1.6,0.8c-2.2,2.5-4.4,4.9-7.8,6.2
			C97.6,142.7,96.4,143.1,95.4,143.9z"/>
		<path fill="none" d="M62,134.1c-1.7,1.2-3.3,2.5-4.5,4.1C59,136.9,61,135.5,62,134.1z"/>
		<path fill="none" d="M91.9,146.2c1.4-0.3,2.4-1,3.1-2c-1.3,1-3.2,1.4-4.3,2.7c1,0,2.1,0,3.1,0C94,145.9,91.7,147.3,91.9,146.2z"/>
		<path fill="none" d="M152.1,168.5c-0.5,1.5-4.6,0.3-5,0.8c1.4,0.6,5.5,0.9,5.4-1.2C151.7,167.6,151.7,167.7,152.1,168.5z"/>
		<path fill="none" d="M143,105.8C143,105.8,142.9,105.8,143,105.8C142.9,105.8,143,105.8,143,105.8z"/>
		<path fill="none" d="M55.4,140.7c0.3-0.8,1-1.6,1.9-2.3c-1.1,0.2-2.9,1.7-1.9,2.7C55.9,141.1,55.4,140.7,55.4,140.7z"/>
		<path fill="none" d="M132.7,148.2c1.4-0.3,2.1,0.3,2.7,0.8c-2.4-3.2-6.2,0.5-5,4.7c0.1,0,0.3,0,0.4,0
			C130.5,150.9,131,148.9,132.7,148.2z"/>
		<path fill="none" d="M66.6,145c0.7-0.2,2.3,0.5,2.3-0.4c-0.9-0.5-0.9-1.9-1.9-2.3c0.2,1,1.2,1.2,1.2,2.3
			C67.6,144.7,66.7,144.5,66.6,145z"/>
		<path fill="none" d="M140.5,150.9c0.8,0.9,1.2,2.2,2.3,2.7c-0.8-1.2-1.5-2.4-2.7-3.1c-0.2,0.7-0.8,1-0.8,2
			C140.1,152.4,139.7,151,140.5,150.9z"/>
		<path fill="none" d="M87.2,104.8c-0.4,1.7-1.7,2.5-1.9,4.3c2.6,0.2,4.1-0.8,5.8-1.6C91,105.5,88.4,105.8,87.2,104.8z"/>
		<path fill="none" d="M138.5,153.6c-0.7,1.5-2.2,2.2-4.7,1.9C135.8,157.1,139.1,154.6,138.5,153.6z"/>
		<path fill="none" d="M65.9,139.6c-0.6-1-1.4-1.7-1.6-3.1c-0.7,1.1,1.1,3.1,1.9,3.9c0-0.1,0-0.3,0-0.4
			C65.9,140,65.9,139.8,65.9,139.6z"/>
		<path fill="none" d="M90.7,84.9c0.4-2.6-2.4-2.1-3.5-3.1c-0.6,0-1.1-0.3-1.5-0.6H83C84.6,83.4,87.2,84.6,90.7,84.9z"/>
		<path fill="none" d="M94.2,88.8c-0.1-1.4-1.4-1.5-1.6-2.7c-1.6-0.4-2.8-0.2-4.3-0.4c-1.5-0.2-3.5-1.4-4.3-2
			c-0.5-0.3-1.4-0.6-1.6-0.8c-0.5-0.4-0.9-1.1-1.3-1.7h-2.6C80.5,87.1,87.8,87.5,94.2,88.8z"/>
		<path fill="none" d="M148.7,112.6c0.2,1.4,2.5,0.6,3.9,0.8C152,112.4,149.2,113.6,148.7,112.6z"/>
		<path fill="none" d="M154.5,110.7c0.6,0.7,1.3,1.5,1.2,2.3c-0.4-0.1-0.7,0.1-0.8,0.4c2.6,0,0.8-1.6,0.4-2.3
			c-0.8-1.2-2.7-2.4-3.1-3.1C152.6,109,153.5,109.6,154.5,110.7z"/>
		<path fill="none" d="M140.9,91.5c1.7,1.4,2.1,4.1,3.9,5.5c-1.3-2.1-2.4-4.4-3.9-6.2c0,0.9-0.7,1.2-0.4,2.3
			C141.1,93,140.8,92.1,140.9,91.5z"/>
		<path fill="none" d="M152.1,107.9c-0.4-0.6-0.9-1.2-1.2-1.6c-0.4-0.7-0.9-1.2-1.2-1.6c-0.6-0.9-1.3-1.9-1.9-2.4
			c0.9,1.5,2.3,3.3,3.5,5.1C151.5,107.7,152.1,107.8,152.1,107.9z"/>
		<path fill="none" d="M88.4,81.2h-0.7c0.2,0.1,0.5,0.1,0.7,0.2C88.4,81.3,88.4,81.3,88.4,81.2z"/>
		<path fill="none" d="M145.9,107.8l0.1,0.1C146,107.9,146,107.8,145.9,107.8z"/>
		<path fill="none" d="M138.2,104c-0.6,0-1.1,0.1-1.2-0.4c0.1-0.9,1.8-2.1,0.8-2.7c0.1,1.4-1.9,2.8-1.2,3.5c0.1,0,0.1,0,0.2,0
			C137.5,104.5,139.3,104.4,138.2,104z"/>
		<path fill="none" d="M118.3,97c1,0,2.3,0.2,2.3-0.8c-0.5,0.6-2.2,0.1-2.7,0.8c0,0.4,0,0.8,0,1.2C118.3,99.4,118.5,97.5,118.3,97z"
			/>
		<path fill="none" d="M132.3,159.9c-0.7-1.7-1.8-3.1-2.3-5.1c-0.1,0-0.3,0-0.4,0C130.3,156.7,131,158.6,132.3,159.9z"/>
		<path fill="none" d="M121.4,94.7c0.5,1.2,1.3,2.1,2.3,2.7c-1.1-0.8-2-3.9-3.5-3.1c0.6,0.1,0.3,0.9,0.4,1.6
			C121.3,95.8,120.9,94.7,121.4,94.7z"/>
		<path fill="none" d="M124.9,100.1c-0.5-0.1-0.7,0.1-0.8,0.4c1.3-0.6,1.7,1.7,2.3,0.4c-1.1-0.7-1.5-2.1-2.3-3.1
			C123.3,98.2,125.3,99,124.9,100.1z"/>
		<path fill="none" d="M128.8,98.6c3,0.1,4.4-1.3,4.7-3.9C131.6,94.2,128.9,96,128.8,98.6z"/>
		<path fill="none" d="M137.8,147.4c0.3,0.5,0.1,1.1,0.8,1.2c-0.8-2-1.8-3.7-4.3-3.9C135.4,145.1,137,146.1,137.8,147.4z"/>
		<path fill="none" d="M126.1,132.9c-3-0.1-4.5,1.2-5,3.5C121.9,134.4,123.7,133.4,126.1,132.9z"/>
		<path fill="none" d="M114.4,152.1c-1.4-0.5-1.4-2.2-2.7-2.7c1,1.2,1.3,3.1,3.5,3.1c-0.3-1.9-1.7-2.7-1.2-5.5
			c-1.2,0.1-2.4,0.2-2.7,1.2c0.7-0.3,1.4-0.7,2.3-0.8C112.9,149.8,115.2,151.1,114.4,152.1z"/>
		<path fill="none" d="M118.7,147.4c-0.7-0.2-1-0.8-1.9-0.8C111.8,149.1,119.8,154.1,118.7,147.4z"/>
		<path fill="none" d="M98.1,158.3c-0.4-1,1.2-1.9,0-2.3c0.3,1.5-1.3,1.8-0.4,2.7c2.4-0.9,2.8-3.7,4.3-5.5
			C100.3,154.5,99.6,156.9,98.1,158.3z"/>
		<path fill="none" d="M97,154.4c-0.6-2.3-5-2.7-4.3,2C94.5,158.8,97.6,156.9,97,154.4z"/>
		<path fill="none" d="M101.2,151.3c2.8,0.4,0.2,0,1.2,1.6c0.2-0.7,0.8-1,0.8-2c-0.8,0-1.6,0-2.3,0
			C100.8,151.2,100.9,151.2,101.2,151.3z"/>
		<path fill="none" d="M117.2,156.8c0.2,1.1,0.8,1.8,1.6,2.3c0-0.5,0.5-0.5,0.4-1.2c-0.7,0.7-1.5-0.1-1.6-1.2
			c0.5-0.1,0.7-0.6,1.6-0.4c0.1,0.5-0.1,1.1,0.4,1.2c0-0.5,0-1,0-1.6C118.1,155.7,117.9,156.4,117.2,156.8z"/>
		<path fill="none" d="M98.1,153.2c0.1-0.6-0.4-0.7-0.4-1.2c0.7-0.4,1.9-0.1,2.3-0.8c-1.4-0.3-1.5,0.6-2.7,0.4
			C97.4,152.4,97.6,153,98.1,153.2z"/>
		<path fill="none" d="M118.7,130.6c0.2,2.4,1.3-2.8,2.3-2.3C120.1,127.3,119.5,130,118.7,130.6z"/>
		<path fill="none" d="M90,163.4c1.2,0.9,1,3.1,2.7,3.5c0.8-1.3,2.2-1.9,2.3-3.9C94.1,162.1,90.3,161.6,90,163.4z M94.6,163
			c0,1.8-1.4,2.3-1.9,3.5c-1.4-0.4-1.3-2.3-2.3-3.1C90.7,162,93.6,162.7,94.6,163z"/>
		<path fill="none" d="M117.9,121.6c1.3,0.6,3.1,2.4,2.3,3.9c0.1,0,0.3,0,0.4,0c0.9-2-1.5-3.6-2.7-4.7c-0.7,0.6-0.3,2.3-0.4,3.5
			C118.4,124.2,117.7,122.4,117.9,121.6z"/>
		<path fill="none" d="M121.1,134.1c-0.5,0.1-0.6,0.7-1.2,0.8c-0.2-0.6,0.5-2-0.4-1.9c0,1,0,2.1,0,3.1c1.2-0.2,1.1-1.8,1.9-2.3
			C121.1,133.6,121.1,133.9,121.1,134.1z"/>
		<path fill="none" d="M121.8,127.1c0,0.4-0.3,0.5-0.4,0.8c0.1,0,0.3,0,0.4,0c0-0.6,1.1-0.2,1.2-0.8c-1.3-0.9-3.8-0.4-3.9,1.2
			C120,127.9,120.1,126.7,121.8,127.1z"/>
		<path fill="none" d="M119.9,146.6c0-0.8-1.1-0.5-0.8-1.6c1-1,1.4,0.3,1.9,0.8c0.1-0.7-0.4-0.9-0.4-1.6c-1.3-0.1-1.7,0.7-2.3,1.2
			C118.9,145.6,120.6,147.6,119.9,146.6z"/>
		<path fill="none" d="M85.7,187.6c2.6,0,5.2,0,7.8,0C91.8,187,87.4,187,85.7,187.6z"/>
		<path fill="none" d="M122.6,128.6c-1.1,0.1-1.7,1.1-2.3,2c0.9-0.7,1.6-1.5,3.1-1.6c1.4,0.8,2.4,1.8,2.3,3.1c0.1,0,0.8,0,0.8,0
			C126.5,130.9,124.3,128.5,122.6,128.6z"/>
		<path fill="none" d="M62,104.8c0.4-2.5-2.6-1.5-3.1-3.1c0.6-0.2,2,0.5,1.9-0.4c-0.8,0-1.6,0-2.3,0C58.6,103.5,61.7,102.7,62,104.8
			z"/>
		<path fill="none" d="M70.5,106c-0.5-3.1-3.5-3.8-6.6-4.3c0.4-1.6,2.3-0.4,3.5-0.4c1.5,0.7,1.7,2.7,3.9,2.7c0.6-6.2-4.6-7.8-9.7-7
			c-0.7,1.8,0.5,3.9,1.2,5.5C66.5,102.5,68.1,104.6,70.5,106z"/>
		<path fill="none" d="M47.6,144.6c-0.8,0.5-1.5,1.1-1.9,2c-2.1,0.9-3.2,2.8-4.7,4.3c2.1-1.8,3.9-3.9,6.2-5.5
			C47.8,144.7,48.8,143.1,47.6,144.6z"/>
		<path fill="none" d="M49.1,143.5c1.3-0.6,1.7-1.9,1.6-3.9C50.1,140.8,50.2,142.8,49.1,143.5z"/>
		<path fill="none" d="M60.4,97.4c0-1.6,0-3.1,0-4.7C59.8,93.4,59.8,96.7,60.4,97.4z"/>
		<path fill="none" d="M11.5,172.4c0,0.3,0,0.6,0,0.8v3.6c5.9-5,11.2-10.8,17-15.3c2.2-1.7,4.6-3.2,6.2-5.5
			c-1.2-8.8,0.1-16.9,1.2-23.8c0.4-2.3,0.7-4.8,1.2-7c3-13.5,9-24.2,14.8-34.4c0.1,0,0.3,0,0.4,0c0.9-0.2,0.7-0.9,1.2-1.6
			c0.4-0.5,0.8-0.7,1.2-1.2s0.4-1.1,0.8-1.6c1.1-1.5,2.1-2.6,3.1-3.9c0.3-0.4,0.8-0.9,1.1-1.3H11.5V172.4z"/>
		<path fill="none" d="M75.2,154.8c0.8-0.7,2-1.2,2.3-2.3c-0.1-0.5-0.6-0.4-1.2-0.4c-0.7,0.3,0.2,0.4,0.8,0.4
			c-1.2,1.6-2.7,3-4.3,4.3c-0.3-0.2-0.6-0.4-1.2-0.4c-1-1.1,1-1.9,0-2.7c0.1,1.1-0.9,1.2-0.8,2.3c0.7,0.4,1.1,0.9,1.9,1.2
			C73.8,156.6,74.4,155.6,75.2,154.8z"/>
		<path fill="none" d="M63.9,162.2c0,0.7,0.1,1.2,0.4,1.6c1.8-0.3,2.6-1.6,3.5-2.7c-1.3,0.7-1.9,1.9-3.5,2.3
			C64.3,162.8,64.4,162.3,63.9,162.2z"/>
		<path fill="none" d="M68.2,105.2c-0.5,0.5-0.4,1.7-0.4,2.7c1.2,0.3,1.2-0.6,1.9-0.8C69.7,106,68.9,105.7,68.2,105.2z"/>
		<path fill="none" d="M90.7,157.5c-1.8,0.6-3,0.3-3.9-0.8c0.6,2.1,3,1.5,4.7,0.8c0-0.5,0-1,0-1.6C90.8,156,91.3,157.3,90.7,157.5z"
			/>
		<path fill="none" d="M70.1,154.4c0.9-1.8,0.4-4.2-2.3-3.5C66.1,152.7,67.6,155.7,70.1,154.4z"/>
		<path fill="none" d="M64.3,159.1c-0.3,0.7-0.7,1.4-0.8,2.3c0.9-0.1,0.4-1.7,1.2-1.9c1.8-0.3,2.6,0.6,3.5,1.2
			C67.6,159.4,66.3,158.9,64.3,159.1z"/>
		<path fill="none" d="M65.1,107.2c-1.8,0-0.3-3.3-1.9-3.5c-0.1,2.4,0.4,4.3,2.3,4.7c1-0.6,1.9-1.3,1.6-3.1
			C65.4,104.9,66.9,107.7,65.1,107.2z"/>
		<path fill="none" d="M120.3,147.8c0,1,0.1,2.2-0.4,2.7c1.2,0.2,1.2-0.8,1.2-2C120.6,148.5,120.8,147.8,120.3,147.8z"/>
		<path fill="none" d="M25.8,219.6c0.6-0.8,1-1.8,2.3-2c1.9,1.1,2.6,3.3,4.3,4.7c-1.1-1.9-2.5-3.5-3.9-5.1c-1.8,0.1-2.6,1.3-3.1,2.7
			c0.5,0.6,1.1,1.2,1.5,2C27.8,221.5,25.7,220.6,25.8,219.6z"/>
		<path fill="none" d="M96.6,220.8c0-1.7,0-3.4,0-5.1C95.9,216.5,95.9,220,96.6,220.8z"/>
		<path fill="none" d="M128.8,140c2.6-1.8,0.4-6.5-2.3-6.6C128.6,134.2,130.8,137.4,128.8,140z"/>
		<path fill="none" d="M28.1,225.9c-0.6-0.6-1.5-0.8-2.3-1.2c-1.1,0.7-2.1,1.5-3.1,2.3c-0.5-0.8-0.7-1.9-1.2-2.7
			c-2.2-0.2-3,0.8-3.5,2.3c-0.4,1.8,1.6,1.3,1.2,3.1c-1.7,0.5-3.3,1.1-3.5,3.1c0.1,0.1,0.2,0.3,0.3,0.4h3.8c0.3-0.3,0.6-0.6,1-0.8
			c0.1,0.3,0.2,0.5,0.3,0.8h5.2c-0.3-1.2-1.3-1.6-1.6-2.7C26.5,229.7,28.7,229.2,28.1,225.9z M21.1,231.7c-1-0.7-0.5-1.9,0-3.1
			c1.4-0.2,2,0.3,2.3,1.2C23.2,231,22.6,231.8,21.1,231.7z"/>
		<path fill="none" d="M17.6,200.9c1.4-0.2-1.2-1.7-1.6-2.3c-0.4-0.9,0-0.9-0.8-1.6c-0.6-0.6-1.9-2.3-2.7-3.1
			c-0.3-0.3-0.7-0.6-1.1-0.8v0.7C13.8,195.9,16,198.1,17.6,200.9z"/>
		<path fill="none" d="M11.5,215.3v2.2c0.6-0.6,1.2-1.3,1.1-2.2C12.2,215.3,11.9,215.3,11.5,215.3z"/>
		<path fill="none" d="M11.5,195.8v1.4c0.4,0,0.9-0.2,1.4-0.2C13.2,196,12.3,195.7,11.5,195.8z"/>
		<path fill="none" d="M75.6,191.1c-0.6,2.5-1.8,4.5-2.3,7C74.2,196.3,75.8,192.9,75.6,191.1z"/>
		<path fill="none" d="M17.3,195.4c-0.1-0.6-0.6-0.7-0.8-1.2c-1.6-1.3-3-2.7-4.3-4.3c-0.3,0-0.4-0.2-0.7-0.3v0.1
			C13.3,191.8,15.2,193.7,17.3,195.4z"/>
		<path fill="none" d="M102.8,183.7c0.5,1.3-1.5,2.1-0.4,2.7c0.2-1.2,0.8-2,1.2-3.1c-0.6,0-1.3,0-1.9,0
			C101.7,183.8,102.3,183.6,102.8,183.7z"/>
		<path fill="none" d="M69.7,211.8c-0.4-0.8,0.9-1.2,0-2.3c0.1,1.3-0.7,1.6-0.4,3.1c0.9-0.1,1.5,0.1,1.9,0.4
			C71.5,212.2,70,212.4,69.7,211.8z"/>
		<path fill="none" d="M70.9,204.8c0.2,1.9-1,2.4-0.8,4.3C70.5,208,71.9,205.9,70.9,204.8z"/>
		<path fill="none" d="M79.5,184.9c2.9,0.6,8.4,0.7,11.3,0c-3.8-0.2-8.5,0.4-11.7-0.4c-0.6,0.7-1.5,1.1-1.6,2.3c0.1,0,0.3,0,0.4,0
			C78.3,186.1,78.6,185.2,79.5,184.9z"/>
		<path fill="none" d="M95,184.5c-1.3,0-2.6,0-3.9,0C90.3,185.4,96.2,185,95,184.5z"/>
		<path fill="none" d="M35.5,227.1c1,1.6,1.4,3.8,2.3,5.9c0.1,0.1,0.1,0.3,0.2,0.4h0.7c-1-2.3-2.1-4.5-3.2-6.7
			C35,226.8,35.5,227,35.5,227.1z"/>
		<path fill="none" d="M24.6,213.8c0.3,1.1,0.6,2.2,1.6,2.7c0.4-0.8,1.7-0.6,1.6-1.9C26.8,216.7,25.2,215.2,24.6,213.8z"/>
		<path fill="none" d="M130.4,140c-1.2,2.2-5.5,1.9-5.8-0.8C124.1,143.2,130.9,141.9,130.4,140z"/>
		<path fill="none" d="M128,145.9c0.1-0.1,0.2-0.2,0.3-0.3C128.2,145.6,128.1,145.8,128,145.9z"/>
		<path fill="none" d="M84.5,103.2c1.8,0.5,3.2,1,4.7,1.6c0.6,0.3,1.5,1,1.9,0.4c-2.5-1.4-4.7-3.1-8.5-3.1
			C82.3,103.3,83.9,103.1,84.5,103.2z"/>
		<path fill="none" d="M122.6,145.4c0.7,3,2.1,5.4,3.9,7.4c-0.7-4.5-3.8-6.6-3.9-11.7C121.1,142.3,123.9,144.5,122.6,145.4z"/>
		<path fill="none" d="M126.5,139.6c1,0.3,2.4-0.9,1.6-1.2c0,1-1.3,0.8-2.3,0.8c-0.1,0.9,0.3,1.2,1.2,1.2
			C127.6,140,126.5,140.1,126.5,139.6z"/>
		<path fill="none" d="M132.7,141.1c0.3,0.3,0.9,0.5,1.2,0.8c0.3,0.4-0.1,1.2,0.4,1.2c0.1,0,0.2,0,0.4,0c-0.5-1.2-1.5-2.9-2.3-3.5
			c-0.7-0.6-1.5-1.6-1.6,0C132,138.7,132.2,140.4,132.7,141.1z"/>
		<path fill="none" d="M131.5,143.7C131.4,143.7,131.4,143.7,131.5,143.7C131.4,143.7,131.4,143.7,131.5,143.7z"/>
		<path fill="none" d="M18,201.3c1.9,3.8,4.3,7.1,5.8,11.3c0.1,0,0.3,0,0.4,0C22.6,208.5,20.6,204.6,18,201.3z"/>
		<path fill="none" d="M126.9,147.6c-0.2,0.4-0.3,0.9-0.4,1.3C126.6,148.5,126.7,148,126.9,147.6z"/>
		<path fill="none" d="M130.3,144.2c-0.1,0-0.1,0.1-0.1,0.1C130.2,144.2,130.2,144.2,130.3,144.2z"/>
		<path fill="none" d="M129.2,144.8c-0.1,0.1-0.1,0.1-0.2,0.2C129,144.9,129.1,144.8,129.2,144.8z"/>
		<path fill="none" d="M127.5,146.5c-0.1,0.2-0.2,0.4-0.3,0.6C127.3,146.9,127.4,146.7,127.5,146.5z"/>
		<path fill="none" d="M115.2,127.9c0.3-0.4,0.7-0.6,1.2-0.8c0,0.6-0.1,1.1,0.4,1.2c0.1-1,0.1-1.9-0.8-1.9c-0.2,0.6-0.6,1-1.2,1.2
			C114.8,127.8,115,127.8,115.2,127.9z"/>
		<path fill="none" d="M41.4,165.7c0,1-0.2,2.2,0.4,2.7C43.7,168.4,43.7,165.3,41.4,165.7z"/>
		<path fill="none" d="M55,177.1c3.1,2.1,5.6-0.8,5.4-3.5C58.1,171.8,55.3,174.4,55,177.1z"/>
		<path fill="none" d="M48.4,169.6c-1.9-2.7-5,0.8-5.8,2.7C44.9,174.6,48.5,173.1,48.4,169.6z"/>
		<path fill="none" d="M149.8,189.2c-1.4-3.5-7.1-1.3-6.2,3.1c0.1,0,0.3,0,0.4,0C143.2,187.9,148,186.6,149.8,189.2z"/>
		<path fill="none" d="M55.4,162.2c-0.9,0.4-0.2,2.5-0.4,3.5C55.6,165.3,55.5,162.2,55.4,162.2z"/>
		<path fill="none" d="M57.3,167.3c-0.4,0.2-1.7-0.8-2.7-1.2c0.3,1.4,2,1.4,3.5,1.6c0-0.9,0-1.8,0-2.7
			C57.3,165.1,58.1,166.8,57.3,167.3z"/>
		<path fill="none" d="M154.1,170.8c0.6,1.2,1.7,1.9,1.9,3.5c0.8-1.3-1.4-2.7-1.9-3.9c-0.8,0-1.6,0-2.3,0c0,0.1,0,0.3,0,0.4
			C152.5,170.8,153.3,170.8,154.1,170.8z"/>
		<path fill="none" d="M107.1,161.1c1.9-0.1,3-1.2,3.5-2.7C109.8,159.6,108.4,160.3,107.1,161.1z"/>
		<path fill="none" d="M139.7,184.1c2.2,0.2,3.2-0.7,3.9-2C142.7,183.2,141.1,183.6,139.7,184.1z"/>
		<path fill="none" d="M108.2,156c0.5,0.8,1.1,1.5,1.9,1.9c-0.4-0.9-1.3-1.3-1.6-2.3c-1.3,0-1.4,1.2-1.9,2
			C107.7,157.5,107.2,156,108.2,156z"/>
		<path fill="none" d="M54.6,154.8c0.8,0,0.5-1.1,1.6-0.8c0,0.5,0,1,0,1.6c-0.9,0.1-1.5-0.1-1.9-0.4c0,0.1,0,0.3,0,0.4
			c1,0.5,1.2,0.9,2.3,0.4c0.1-1,0.1-1.9-0.4-2.3C55.2,153.6,54.9,154.2,54.6,154.8z"/>
		<path fill="none" d="M85.3,104.8c-0.2,1.1-0.4,2.2-1.9,1.9c-1.3-0.2-0.7-2.4-1.9-2.7C79.9,108.9,87.3,108.8,85.3,104.8z"/>
		<path fill="none" d="M151.4,191.1c0,3.3-4.8,4.1-5.8,1.2c-0.7,0.6,1.4,1.6,1.9,2.3c-1.9,0.1-2.5-1.2-3.5-2
			c0.3,1.5,1.5,2.1,3.1,2.3C149.2,194.7,152.2,193.1,151.4,191.1z"/>
		<path fill="none" d="M53,209.9c-1.4-0.2-1.5-1.7-1.9-2.7c-0.8,2.4,0.5,2.6,2.3,3.1c0.9-0.9,1.3-2.4,1.5-3.9
			C53.8,207,54.5,209.6,53,209.9z"/>
		<path fill="none" d="M151,195.4c-1-1-1.9,0.4-3.5,0c0.6,1.6,3.2-1.3,3.1,0.8C151,196.2,150.9,195.7,151,195.4z"/>
		<path fill="none" d="M56.9,190.3c-0.3,1.8-1.3,2.9-1.6,4.7C56.1,193.9,57.5,191.5,56.9,190.3z"/>
		<path fill="none" d="M43.3,177.5c1-0.1,2.6,1.2,3.1,0.4c-1.3-0.1-1.9-1-3.5-0.8c0,0.8,0,1.6,0,2.3C43.8,179.5,43.1,178,43.3,177.5
			z"/>
		<path fill="none" d="M138.2,180.6c-0.1-0.9,0.3-1.2,1.2-1.2c-0.2,0.9-0.6,1.8-0.4,3.1c0.9-0.1,1,0.8,1.9,0.8s2.5-1.3,1.5-2
			c-0.3,0.9-0.8,1.6-1.9,1.6c-0.6-0.3-1.2-0.6-1.2-1.6c-0.4-1.5,1-1.1,0.8-2.3c-1.6-0.2-2.5,0.4-2.3,1.9
			C138.1,181,138.1,180.8,138.2,180.6z"/>
		<path fill="none" d="M65.9,173.9c-2.5,0.5-3.7,2.3-4.7,4.3C63.9,180.6,68.1,176.5,65.9,173.9z"/>
		<path fill="none" d="M106.7,161.4c-0.1-0.6-1.2-0.1-1.2-0.8c0.1-0.8,1.4-2.4,0.8-2.7c-0.5,1.2-1.3,2.1-1.6,3.5
			C105.4,161.4,106,161.4,106.7,161.4z"/>
		<path fill="none" d="M141.3,177.1c-1.2,0-2.3,0-3.5,0c-0.4,0.7-2.4,1.7-1.5,2.3c0.2-2,5-3,5.8-0.8
			C143.1,178.3,141.2,177.8,141.3,177.1z"/>
		<path fill="none" d="M55.7,181c2,1.5,5.7,1.3,7.8,2.7c-0.3-1.8-2.8-1.1-4.3-1.6C58,181.8,56.7,180.7,55.7,181z"/>
		<path fill="none" d="M105.9,173.9c-3.5-0.4-3.3,2.9-3.9,5.5c1.6,0.2,2.5-0.4,3.5-0.8C105.8,177.4,106.8,175.2,105.9,173.9z"/>
		<path fill="none" d="M77.1,167.3c-0.5,0.9-1.6,1.3-1.2,3.1c0.7,0.6,1.8,0.8,2.3,1.6C80.8,171.2,79.9,167.1,77.1,167.3z"/>
		<path fill="none" d="M85.3,196.6c-1.5,0.1-2.1,1-1.9,2.7c1,0.5,1.2,0.9,2.3,0.4C86.3,199,86.3,196.8,85.3,196.6z"/>
		<path fill="none" d="M88.8,220.4c-1.1,0.4-3.5,1.4-4.7,0.4c-0.2-1.9,1.9-1.5,1.9-3.1c-1.2,0-1.9,0.5-2.7,0.8
			c-0.6,1.2-0.8,2.8-1.6,3.9c-1.4,0.2-3.9,1-4.7-0.4c-0.5-2,1.5-1.6,1.9-2.7c-0.9-0.3-2.1-0.6-3.1,0.4c-0.3,1.3-0.8,2.6-1.9,3.1
			c-1.3-0.2-3.6,0.5-4.3-0.4c-0.1-1,0.6-1.2,0.8-2c0.3-0.6,1.9,0.1,1.6-1.2c-3.6-0.8-3.2,2.6-5.1,3.5c-2,0.1-3.8-0.1-5-0.8
			c0.2-1.9,2-2.1,3.5-2.7c-0.9-0.2-1.8-0.6-3.1-0.4c-1.4,0.9-1.7,2.8-3.5,3.1c-1.3,0.2-2.8-1-4.3-1.2c0.2-1.6,1.5-2.2,3.5-1.9
			c0-1.3-1.8-0.8-2.7-1.2c-1.1,0.4-1.8,2.5-3.5,2.7c-1.4,0.2-3-0.4-3.9-1.6c0.4-2.3,2.7-0.5,3.5-2c-2.8-2-3.4,1.1-5.8,1.6
			c-0.9-1-3.3-0.6-3.5-2.3c0.2-1.8,2.8-0.7,3.5-1.2c-0.1-1.2-1.4-1.2-2.3-1.6c-1.5,0.4-2,1.9-3.5,2.3c-1.1-0.8-3-0.9-3.1-2.7
			c0.9-1.4,3.2,0.1,3.5-1.2c-2-2.4-3.1,0.4-5.4,0.8c-1.2-0.5-2.5-0.9-2.7-2.3c0.5-1.6,1.4-0.8,3.1-0.8c-0.2-1.1-0.8-1.8-1.9-1.9
			c-1.6,0.7-2.7,2-3.1,3.9c8.4,5.3,19.4,11.1,32.7,12.1c10.7,0.8,19.2,0,28-2.7c0.6-1.3,0.4-3.3-0.4-4.3
			C89.5,217.5,89.9,219.7,88.8,220.4z"/>
		<path fill="none" d="M138.9,187.6c-0.4-0.4-1.2-0.6-1.6-0.8c-0.2-0.1-0.3-0.2-0.4-0.3c0.1,0.2,0.3,0.4,0.4,0.7
			c1.5-0.2,1.9,4.3,3.1,1.6C139.3,190,139.6,188.4,138.9,187.6z"/>
		<path fill="none" d="M81.4,161.8c-1,0.3-2.1,0.5-3.5,0.4c-0.1-0.6,0.4-0.7,0.4-1.2C74.9,161.8,80.8,163.8,81.4,161.8z"/>
		<path fill="none" d="M77.9,175.9c-2.8,0.2-3.8,2.2-4.3,4.7c1.1,0.5,2.7,0.4,4.3,0.4c0.7-1.3,1.6-3,0.8-4.7
			C78.4,176.2,77.9,176.3,77.9,175.9z"/>
		<path fill="none" d="M74.4,168.9c-0.8-0.1-0.2,1.4-0.4,2c-0.6,0.2-2-0.5-1.9,0.4C74.1,171.7,74.8,170.9,74.4,168.9z"/>
		<path fill="none" d="M68.6,169.6c0.6-0.6,1.4-1,1.6-2c-0.8,0.7-2.1,1.1-1.9,2.7c1.3,0,1.9,0.7,3.5,0.4
			C71.1,170,69,170.7,68.6,169.6z"/>
		<path fill="none" d="M148.3,186c2.1-0.4,2.2,1.2,3.1,2C151.3,186.7,149.6,184.9,148.3,186z"/>
		<path fill="none" d="M80.6,181.8c1.3,0,2.6,0,3.9,0c0.7-1.5,2.2-3.4,1.2-5.5C81.6,175.7,81.1,178.7,80.6,181.8z"/>
		<path fill="none" d="M64.3,217.3c-1.3-0.1-2.6-0.7-3.9-0.8c-10.5-1-18.5-5.5-24.5-10.2c-0.9,0.2-0.8-0.7-1.9-0.4
			c-0.5,2.4,2.8,1.1,2.3,3.5c-0.6,1.7-3.4-0.3-3.5,1.2c1.8,2.5,3.6-0.1,5.4-0.8c1.4,0.5,2.8,0.8,3.1,2.3c-0.1,2.2-3.1,0-3.1,1.6
			c1.9,2.2,3.5-1,5.4-1.2c1,0.9,3,0.7,3.1,2.3c-0.5,2.1-3,0-3.5,1.6c1.1,0.3,1.9,0.9,3.1,1.2c0.6-1,0.9-2.2,2.3-2.3
			c1.5,0.4,3.5,0.4,4.3,1.6c-0.4,1.5-2.2,1.4-3.5,2c0.7,0.3,1.4,0.7,2.3,0.8c1.2-0.4,1.8-2.4,3.5-2.7c1.4-0.3,3.2,0.2,4.3,1.2
			c-0.5,1.4-2.1,1.8-3.5,2.3c0.6,0.7,2.3,0.3,3.5,0.4c0.9-1.1,1.3-2.8,3.1-3.1c0.1,0,1.7,0.3,2.3,0.4c0.7,0.1,2-0.2,1.9,0.8
			c-0.4,1.4-1.3,2.3-3.5,1.9c0.1,1.2,1.5,1.1,2.7,1.2c1.4-0.8,2.1-2.3,3.1-3.5c2,0.4,3.5-1.1,4.3,0.4c0,1.8-1.9,1.7-2.3,3.1
			c0.9,0,1.8,0,2.7,0c0.8-1.2,1.1-3.1,2.3-3.9c1.4,0.2,4-0.6,4.3,0.8c-0.7,0.1-0.2,1.3-0.8,1.6c-0.3,0.6-1.9-0.1-1.6,1.2
			c1.3,0.2,2.2-0.2,3.1-0.4c-0.1-3.4,3.2-5.4,6.2-4.3c0.1,2-1.2,2.5-2.3,3.1c1.5,0.3,1.9-0.5,3.1-0.4c0.2-0.9,0.6-1.8,0.4-3.1
			c0.4-0.9,1.5-1.1,1.9-1.9c-2.6,0.1-5.2,1.4-7.8,1.9c-0.5,0.1-1-0.1-1.6,0c-1.1,0.2-2.1,0.8-3.1,0.8c-0.5,0-0.7-0.4-1.6-0.4
			C72.5,217.2,68.5,217.6,64.3,217.3z"/>
		<path fill="none" d="M55.4,180.6c-2.2-0.3-3.7-1.2-5.8-1.6C51,179.8,53.9,181.2,55.4,180.6z"/>
		<path fill="none" d="M45.6,163c0.4-1,1.5-1.3,1.9-2.3c-0.9,0.8-2.1,1.3-2.3,2.7c1.4,0.1,1.7,1.1,3.1,1.2c-0.1-0.7,0.4-0.9,0.4-1.6
			c-0.4,0.3-0.6,0.7-0.8,1.2C47.2,163.8,46.4,163.4,45.6,163z"/>
		<path fill="none" d="M136.9,186.5C136.6,186,136.6,186.2,136.9,186.5L136.9,186.5z"/>
		<path fill="none" d="M140.1,175.9c1.8,0.2,2.9,2.6,5,3.1c-0.8,0.3-2.2,1.9-1.2,2.7c-0.3-2,1.4-1.9,1.6-3.5
			c-2.5,0.4-3.5-2.6-5.8-2.7c-2-0.1-3.3,0.9-4.7,2.7C136.9,176.8,138.3,175.7,140.1,175.9z"/>
		<path fill="none" d="M67.4,179.8c3.7,1.6,6-2.1,5.4-4.7C70,174.3,68,177.1,67.4,179.8z"/>
		<path fill="none" d="M104.3,168.5c-0.5,0.1-0.3,1-0.4,1.6c-1.7,0-2.7,0.7-4.7,0.4c0.3-0.3,0.6-1.1,0-1.2c0.1,0.7-0.4,0.9-0.4,1.6
			c2.2,0.3,3.5-0.4,5.4-0.4C104.3,169.8,104.3,169.1,104.3,168.5z"/>
		<path fill="none" d="M96.6,175.1c-0.5,1.3-3,5.1-0.4,5.9c-0.1-0.8,1.4-0.2,1.9-0.4c0.9-1.1,1.3-2.6,1.2-4.7
			C98.6,175.4,98,174.9,96.6,175.1z"/>
		<path fill="none" d="M88,181.4c1.2,0,2.3,0,3.5,0c0.9-1.1,1.7-3.8,0.8-5.5C89.6,175.1,88.2,178.4,88,181.4z"/>
		<path fill="none" d="M48,193.1c-1.2-1.9-3.9,0.5-2.3,2.3C47.5,195.7,47.9,194.6,48,193.1z"/>
		<path fill="none" d="M48,147c0.3,0.1,0.8,0,0.8,0.4c1.3,0,2.2-1.6,1.6-2.3C48.8,145,48.2,145.8,48,147z"/>
		<path fill="none" d="M81.8,171.2c-0.2-0.8,0.5-2.6-0.4-2.7c0.1,1.2-0.3,2.9,0.4,3.5c1.6-1.3,6.1,1.5,5-1.2
			C85,172.1,84.6,171.1,81.8,171.2z"/>
		<path fill="none" d="M48.7,175.1c1.4-0.1,1.9,1,3.1,0.8c1.4-0.2,2.3-2.4,2.7-3.9C52.5,169.6,49.3,172.5,48.7,175.1z"/>
		<path fill="none" d="M143.2,163.8c0.5,0.1,0.7-0.1,0.8-0.4c-1.3-0.4-1.3,0.5-1.2,1.6c1.7,0.8,4.2,0.4,4.7-1.2
			C146.9,164.6,143.4,166.1,143.2,163.8z"/>
		<path fill="none" d="M142.8,160.7c0.5,0.2,0.8,0.5,0.8,1.2c-1.5-0.6-2.6,1.3-1.2,0.4c0.7,0,1.3,0,1.9,0c0-1.1-0.9-1.4-1.6-2
			C142.4,160.3,142.6,160.7,142.8,160.7z"/>
		<path fill="none" d="M14.9,226.3c0.1-0.5-0.1-0.7-0.4-0.8c-0.1,0.9,0.1,1.5,0.8,1.6c0.4-1,1.5-1.3,1.9-2.3
			C16.2,225,16.3,226.3,14.9,226.3z"/>
		<path fill="none" d="M19.2,208.3c1.4-0.1,1-1,0.8-2C18.7,206,19.4,207.6,19.2,208.3z"/>
		<path fill="none" d="M13.8,183.3c0.6-1,0.9-1.5,0.4-2.7C10.9,179.6,10.5,184,13.8,183.3z"/>
		<path fill="none" d="M143.6,186c1.1,0.7-1.6,0.9-1.9,1.6c2.5,0.1,3.8-2.8,6.2-1.6c-0.7-1.1,0.2-0.8,0.4-0.8
			c3.4-0.1,3.8,2.5,5.8,3.1c-1.2-1.1-2.4-2.2-3.4-3.5c-3.5-0.8-5.7,0-8.2,1.2C142.5,186.5,143.6,186.6,143.6,186z"/>
		<path fill="none" d="M111.7,181.8c-1.3,0.8-1.5,2.7-2.7,3.5c-1.5-1.8-5.2-1.4-5.1,1.6c0.5,1.7,2.6,1.8,3.5,3.1
			c-1,1.6-1.1,4.3,0.8,5.1c2.6,0.1,2.6-2.3,3.9-3.5c1.1,0.1,1.6,0.7,2.7,0.8c0.9-0.8,2.1-1.3,1.9-3.1c-0.3-1.6-2.7-0.9-2.7-2.7
			C114.9,184.1,115.2,181.5,111.7,181.8z M109.4,190c-0.2-0.4-0.3-0.7-0.8-0.8c-0.6-2.6,2.3-3.5,3.5-2
			C112.4,189.4,111.5,190.3,109.4,190z"/>
		<path fill="none" d="M64.3,81.2h-1c-0.1,0.2-0.1,0.4-0.2,0.6C63.5,81.6,63.9,81.4,64.3,81.2z"/>
		<path fill="none" d="M152.1,222.8c1.2,0.5,1.5,1.9,0.4,2.7c2-0.6,1-3.4-1.2-3.1c-0.2,1.3,0.2,2.2,0.4,3.1
			C152.9,225.3,150.8,223.2,152.1,222.8z"/>
		<path fill="none" d="M139.3,160.7c0.6-1.2,1.7-1.9,3.9-1.6C141.9,158,139.2,159,139.3,160.7z"/>
		<path fill="none" d="M144,166.9c0.3-0.1,0.8,0,0.8-0.4c-2.2,0-3.3-1.1-3.1-3.5c-0.7,1.7-0.9,0.7-1.6-0.4c0.9,3.3,3.7,5.4,6.6,6.3
			C146.1,167.9,144.4,168.1,144,166.9z"/>
		<path fill="none" d="M147.1,230.6c1.7-0.3,0.4-3.5,0.8-5.1C146.8,226.4,148.1,229.7,147.1,230.6z"/>
		<path fill="none" d="M135.4,164.6c-0.6-0.5-1.3-0.6-1.9-1.2c-0.2-0.2-0.1-0.6-0.4-0.8c-0.8-0.6-1.6-2.3-2.7-3.1
			c1.9,3.8,5.4,6,8.6,8.6c0-1.2-1-1.3-1.2-2.3c-0.1,0-0.3,0-0.4,0C137.2,166.5,136.4,165.3,135.4,164.6z"/>
		<path fill="none" d="M136.2,164.5C136.5,164.9,136.4,164.8,136.2,164.5L136.2,164.5z"/>
		<path fill="none" d="M133.5,162.6c0.5,0.5,1.1,0.4,1.6,0.8c0.5,0.4,0.9,0.8,1.1,1.1c-0.2-0.2-0.4-0.6-0.7-1.1
			c-1.2-0.6-2-1.7-2.7-2.7C132,159.5,132.6,161.7,133.5,162.6z"/>
		<path fill="none" d="M62.4,84.5c1.6-0.2,3.3-1.2,4.7-1.9c0.9-0.5,2-0.8,2.8-1.3h-3.3c-0.1,0.1-0.2,0.1-0.3,0.2
			C64.8,82.2,62.9,82.7,62.4,84.5z"/>
		<path fill="none" d="M115.2,165.7c0.3,0.9-2.2,2.7-3.9,1.6c0,0.3,0,0.5,0,0.8c1,0.8,3.2-0.7,4.3-1.2
			C115.6,166.4,115.4,166.1,115.2,165.7z"/>
		<path fill="none" d="M69.3,82.6c-2.7,1.7-7.2,1.7-7.4,5.9c2.3-0.9,4.7-2.3,7-3.5c1.7-0.9,3.9-1.7,4.7-3.7h-2.8
			C70.4,81.7,69.9,82.2,69.3,82.6z"/>
		<path fill="none" d="M61.2,90.7c0,1.3,0,2.6,0,3.9c1.5,0.5,2.4-0.6,4.3-0.4c0.8,0.1,2.4,0.7,3.1,1.2c0.8,0.5,0.7,1.4,1.2,2
			c0.6,0.7,1.2,0.9,1.6,1.6c1.8,3.7,0.2,8.2-0.8,12.5c-0.4,1.6-0.7,3.3-1.2,4.7c-0.6,1.8-1.7,3.1-1.2,4.7c-0.2,1.5,2.6,2.1,1.9,2.7
			c-5-1.3-2-6.4-0.8-9.8c0-0.1,0-0.3,0-0.4c0.1,0,0.3,0,0.4,0c0.3-3-1.8,0.1-2.7-1.2c0.9-1.6,4-0.9,3.5-3.9c-2.7,0.9-5.3,1.5-7.8,0
			c-1.1,4-1.7,10.5-0.8,15.2c0,0.1,0,0.3,0,0.4c-0.1,4.2,1.1,7.3,1.9,10.5c0.2,0,0.5-0.1,0.4-0.4c1.6,3.1,3.8,5.6,5,9
			c-0.4,0-0.5-0.3-0.8-0.4c0.1,0.6,0.6,0.7,0.8,1.2c2,3.7,5.5,5.6,9.7,5.5c2.1,0,3.8-0.8,5-1.2c5-1.5,10.2-4.7,14-6.6
			c1.4-1.9,3.5-3.1,5.1-4.3c0.3-0.2,0.5-0.5,0.8-0.8c1.1-0.9,1.2-1.4,1.9-2.3c1.1-1.4,2.3-2.5,3.5-3.5c0.3-1.5,1.1-2.6,1.9-3.5
			c1.4,0.1,2.5-0.1,3.5-0.4c3.2-4.8,0.9-9-1.2-12.1c-1.8-2.7-4-5.2-5.4-7.4c-0.5-0.8-0.8-1.4-1.2-2c-0.1-0.2-0.6-0.5-0.8-0.8
			c-1.7-2.3-3.4-4.5-5.1-6.6c-0.8-1.1-1.5-2.4-2.3-3.5c-0.9-1.2-2.5-1.9-2.7-3.5c-6.5-2.5-14.2-2.1-17.9-7.4
			c-0.5-0.7-0.6-1.4-0.8-2.1H75C72.5,86.5,64.7,86.5,61.2,90.7z M111.7,122.8c0.1-2.3,0.3-4.4,0.8-6.2c1.8,1.4-0.3,4.7,0.4,7.4
			c-0.5,0.6-1.5,0.6-1.9,1.2C109.2,124.5,111.5,123.7,111.7,122.8z M71.3,135.3c1.4-0.4,0.3,1.8,1.6,1.6c1-0.1,1.9-0.1,2.3,0.4
			C73.8,138.2,71,137.3,71.3,135.3z M85.3,94.3c3.6,0.2,7.8,2.6,9.3,3.9c-2,0.5-4.2-1.2-7-1.6c-3.1-0.3-5.8,0.5-8.5,0.8
			C79.1,94,82.8,94.1,85.3,94.3z M77.9,107.2c1.4-0.2,1.4-1.8,1.9-2.7c-1.2-0.1-1.3-1.3-1.2-2.7c1.2-0.3,0.7,1.1,1.9,0.8
			c1.5-2,3.7-1.1,5.8-0.4c1,0.3,1.9,0.4,2.7,0.8c0.1,0.1,0.2,0.7,0.4,0.8c0.5,0.3,0.9,0.3,1.6,0.8c1.5,1,3.5,2.4,3.1,3.5
			c-3.8,0.1-6.3,2.2-9.7,2c-1.9-0.2-4.4-1.2-6.2-2c-0.1,0,0-0.6-0.4-0.4C77.9,107.4,77.9,107.3,77.9,107.2z M83,112.2
			c-1,1-3.1-0.2-3.1-1.6C80.9,111.2,81.9,111.7,83,112.2z M75.2,121.2c1,0.3,3.3-0.8,3.1,0.8c1.4,0.8,1.7-0.2,1.6-2
			c1.5,0.4,0.5,2.8,0,3.5c-1,0-1.5-0.6-1.6-1.6c-1.9-0.2-3.2,0.1-3.5,1.6C73.7,123,74.9,121.6,75.2,121.2z M78.3,131
			c0,0.1,0,0.3,0,0.4c0.9,1,1.5,2.4,3.1,2.7c0.5-0.5,0.8-1.2,1.6-0.4c0,0.1,0,0.3,0,0.4c-1.4,0.1,1,1.5-0.4,1.6
			c-1.9-0.5-3.6-1.1-5.1-1.9c-2.5,0.8-4,0.6-7,0.4c-0.4,0.4-0.8,0.8-1.2,1.2c-0.8-0.3-1.4-1-1.2-2.3c2.4,1.6,1.7-2.8,3.9-2.7
			C73.9,132.3,76.6,129.1,78.3,131z"/>
		<path fill="none" d="M147.5,160.3c-1.1-1.2-1.9-2.8-3.9-3.1C145.1,158,146.2,159.3,147.5,160.3z"/>
		<path fill="none" d="M114.4,164.6c-0.5-2.7-4.7-0.8-3.5,1.2C110.9,163.3,113.5,163,114.4,164.6z"/>
		<path fill="none" d="M130.4,164.6c-0.3,0-0.5,0-0.8,0c-1,1.9-1.5,4.2-1.6,7c1.4-0.2,2.3-1.1,3.5-1.6c0.5-1.2,0.4-3,0.4-4.7
			C131.2,165.3,131.4,164.3,130.4,164.6z"/>
		<path fill="none" d="M38.6,158.3c0-0.4,0-0.8,0-1.2c-0.5,0-0.5,0.5-1.2,0.4c0-1.1-0.7-0.8,0-1.6c0.5,0,0.8,0.2,1.2,0.4
			c0-0.3,0-0.5,0-0.8c-0.6-1.1-1.6,0.7-1.9,1.2C37.5,157.2,37.3,158.5,38.6,158.3z"/>
		<path fill="none" d="M154.5,197c1.8,0.5,2.7-2.3,1.2-2.7C155.3,195.2,154.1,195.3,154.5,197z"/>
		<path fill="none" d="M119.9,197c-0.1-0.3-0.3-0.5-0.8-0.4c-2.6,1.9-1.4,3.5-1.2,6.6c1.8,0.3,4.3,1.2,6.6,1.6
			c2.4,0.4,5,1.1,6.6-0.8c0.8-3.7-2.3-3.9-4.3-4.7C124.7,198.4,122.2,197.1,119.9,197z"/>
		<path fill="none" d="M142,186.4c-3.7,0.6-4.8-1.4-6.2-3.1C136.3,185.7,139.2,187.7,142,186.4z"/>
		<path fill="none" d="M112.1,177.1c0-1.7,0.6-2.7,0.4-4.7c-0.3-0.1-0.8,0-0.8-0.4c-2.7,0.4-3,3.3-3.1,6.2
			C110.4,178.4,110.9,177.5,112.1,177.1z"/>
		<path fill="none" d="M152.9,190.3c0.1,0,0.3,0,0.4,0c-0.1-1,1.5-0.3,1.2-1.6c-0.1-0.1-0.3-0.2-0.4-0.4
			C154.5,189.8,152.6,189,152.9,190.3z"/>
		<path fill="none" d="M46.4,152.5c-0.9-1.3-2.4,0.9-1.2,1.6C45.4,153.2,46.3,153.3,46.4,152.5z"/>
		<path fill="none" d="M151.4,171.2c0-0.4-0.5-0.3-0.8-0.4c-0.8,0-1.6,0-2.3,0C145.2,170.4,149.6,171.7,151.4,171.2z"/>
		<path fill="none" d="M49.9,165.3c1.8,1.6,4.7,0.5,3.9-2.7c-1.2,0.2-0.9-1.2-2.3-0.8C50.4,162.5,49.5,163.3,49.9,165.3z"/>
		<path fill="none" d="M109,165.7c-0.8,0-1.6,0-2.3,0c-0.4,0.9-1.3,1.3-1.2,2.7C106.9,171.3,111.1,168.6,109,165.7z"/>
		<path fill="none" d="M54.2,145.8c-0.8-0.4-2-1.4-1.9,0.4c0.1,0,0.3,0,0.4,0c0-1,1.3-0.1,1.2,0.4c-0.8,0-0.5,1.1-1.6,0.8
			c-0.1-0.3,0-0.8-0.4-0.8c0.1,0.7-0.4,0.9-0.4,1.6C52.9,147.9,53.9,147.3,54.2,145.8z"/>
		<path fill="none" d="M145.9,216.1c0.9,0.1,0.9,1.2,1.5,1.6c-0.2-1.1-0.8-1.8-1.9-2c-0.5,0.5-0.4,1.7-0.4,2.7
			C146.3,218.5,144.8,216.1,145.9,216.1z"/>
		<path fill="none" d="M118.3,170.4c-3.6-0.4-3.2,3.3-3.5,6.2c2,0.2,2.8-0.8,3.9-1.6C118.6,173.6,119.1,171.4,118.3,170.4z"/>
		<path fill="none" d="M129.2,213.4c0-0.7,0-1.3,0-1.9c-2.6-2.4-8-1.8-11.7-3.1c-0.3,0-0.5,0-0.8,0c-0.8,1-1.3,2.3-1.9,3.5
			c0.7,0.9,1.5,1.6,1.9,2.7C120.1,214.5,126.4,215.1,129.2,213.4z"/>
		<path fill="none" d="M139.3,165c-1.2-0.3-1.1-1.8-1.9-2.3c1.9,4.4,5,7.5,9.3,9.4c-0.8-0.8-3.4-1.8-2.7-2.7
			c0.4,0.5,2.3,1.5,2.7,0.8c-3.7-0.9-6.1-2.9-7.4-6.2C138.6,164.1,139.3,164.5,139.3,165z"/>
		<path fill="none" d="M108.6,200.9c0-1.3,0.7-1.9,0.4-3.5c-0.6-0.6-1.5-0.8-2.3-1.2c-1.9,0.6-1.8,3.1-3.1,4.3
			c-2.5-0.7-4.5,0.1-4.7,2.7c0.7,1.7,3.5,1.2,4.3,2.7c-0.8,2.1-0.1,4.3,1.9,4.7c2.1-0.3,2-2.7,2.7-4.3c1.7,0,3.6,0.2,4.3-0.8
			c0-0.7,0-1.3,0-1.9C111.7,201.9,109.3,202.3,108.6,200.9z M105.1,205.6c-0.8-0.9-1.2-3.1,0-3.9c1.4-0.2,1.9,0.5,2.7,0.8
			C108,204.6,107.2,205.7,105.1,205.6z"/>
		<path fill="none" d="M132.7,222.4c0.6-1.3,0.7-3.9-1.2-3.9C130.9,219.8,130,222.6,132.7,222.4z"/>
		<path fill="none" d="M129.6,222c0-0.8,0-1.6,0-2.3c-3.7-1.2-7.8,0.5-11.7,0.4c-1.9,2.9-2.1,6.1,0.8,6.6c0.7,0.1,1.6-0.7,2.7-1.2
			C124.2,224.4,128.1,223,129.6,222z"/>
		<path fill="none" d="M123,167.7c-1.3,1.4-1.8,3.7-1.6,6.6c1.1-0.2,3.1-0.8,3.5-1.2c0.5-0.5-0.1-2.2,1.2-2
			C125.2,169.9,125.7,167.2,123,167.7z"/>
		<path fill="none" d="M129.2,161.1c-1.2,1.2-3.4,1.6-5,2.3C125.3,163.6,128.5,162.5,129.2,161.1z"/>
		<path fill="none" d="M106.7,212.2c-0.8,0-1.6,0-2.3,0c-1.3,0.8-0.9,3.2-1.6,4.7c-2.8-0.3-4.2,0.7-3.9,3.5c0.6,0.9,2.3,0.8,3.9,0.8
			c1.2,1.6,0.7,4.7,3.5,4.7c1.9-0.4,1.4-3.3,1.9-5.1c2.6,0.2,4.5-0.2,3.9-3.1c-0.9-1.1-2.9-1-4.3-1.6
			C108.2,214.1,107.5,213.1,106.7,212.2z M104.3,220.4c-0.6-0.6-0.3-2-0.4-3.1c1.8-1,3.4,0.1,3.5,1.9
			C106.8,220.3,105.6,221,104.3,220.4z"/>
		<path fill="#B32621" d="M93.4,85.7c0.1,0.2,0.6,0.2,0.8,0.4c0.3,0.3,0.2,0.9,0.4,1.2c0.6,0.8,1.7,1.5,2.3,2.3
			c0.8,1,1.2,2.2,1.9,3.1c5.6,7.7,11.4,15.1,16.7,22.7c1.1,1.5,2.7,3.5,3.5,4.7c0.6,0.9,1,1.6,1.6,2.3c0.9,1.3,2.1,2.8,2.7,3.5
			c0.3,0.3,0.1,0.8,0.4,1.2c0.7,0.9,1.6,1.4,2.3,2.3c0.2,0.3,0.5,1.2,0.8,1.6c0.4,0.6,0.8,1.1,1.2,1.6c4.9,6.5,10.2,13.3,14.8,19.5
			c0.3,0.4,0.8,0.7,1.2,1.2s0.4,1.4,0.8,2c0.6,0.9,1.7,1.4,2.3,2.3c0.4,0.6,0.9,2,1.2,2.3c0.2,0.3,0.6,0.5,0.8,0.8s-0.5,0.6-0.4,0.8
			c0,0.1,0.7,0.3,0.8,0.4c1,1.8,2.1,2.9,3.1,4.3c1.4,1.9,2.5,4.2,4.3,5.9c0,0.4,0.3,0.5,0.4,0.8c0,0.1,0,0.1,0.1,0.1v-5.7
			c-0.8-1-1.8-1.9-2.4-2.7c-0.4-0.5-0.4-1.4-0.8-2c-0.3-0.5-0.9-0.7-1.2-1.2s-0.4-1-0.8-1.6c-1.1-1.5-2.2-3-3.1-4.3
			c-0.8-1.1-1.3-1.7-1.9-2.7c-1.5-2.6-3.7-4.7-5.4-7c-11.9-15.6-24-31.9-35.4-47.3c-0.4-0.5-0.4-1.1-0.8-1.6
			c-0.4-0.4-1.2-0.7-1.6-1.2c-0.3-0.4-0.5-1.2-0.8-1.6c-0.8-1.1-1.4-1.7-1.9-2.7c0-0.1-0.3,0-0.4,0c-0.2-0.2,0.4-0.5,0.4-0.4
			c-0.1-0.5-0.5-0.4-0.8-0.8c-0.6-0.8-1.3-1.9-1.9-2.7c-0.4-0.5-0.8-0.7-1.2-1.2c-0.3-0.4-0.5-1.5-0.8-2c-0.2-0.4-0.8-0.7-1.2-1.2
			c-0.5-0.7-1-1.5-1.5-2.1h-3.5c0.3,0.7,0.7,1.1,1.1,1.7C92.3,84,92.7,84.7,93.4,85.7z"/>
		<path fill="#B32621" d="M100.1,82.6c1.8,2.6,4,5.3,5.4,7.4c0.3,0.5,0.5,1.1,0.8,1.6c0.8,1.2,2.1,2.5,2.7,3.5
			c0.9,1.2,1.3,1.6,1.9,2.3c0.4,0.4,0.4,1.1,0.8,1.6c2,2.6,4,5,5.8,7.4c1.3,1.7,2.3,3.4,3.5,5.1c1.5,2,3.5,4.2,4.7,5.9
			c0.3,0.4,0.5,1.2,0.8,1.6c0.7,0.9,1.7,1.5,2.3,2.3c0.1,0.2-0.1,0.6,0,0.8c0.1,0.1,0.7,0.2,0.8,0.4c0.3,0.4,0.5,1.2,0.8,1.6
			c0.3,0.3,0.9,0.5,1.2,0.8c0.4,0.5,0.4,1.1,0.8,1.6c1.4,1.8,3.1,3.7,3.9,5.5c0.1,0.1,0.7,0.3,0.8,0.4c0.8,1,1.4,1.7,1.9,2.3
			c0.4,0.5,0.4,1.1,0.8,1.6c2.1,2.9,4.9,6,6.6,8.6c1.3,1.9,2.5,3.6,3.5,5.1c0.8,1.2,1.3,1.6,1.9,2.3c0.4,0.4,0.4,1.1,0.8,1.6
			c1.4,1.7,2.5,3.2,3.9,4.7c0.1,0.1,0.4,1.1,0.8,1.5v-2.4c-1.7-2.9-3.9-5.5-5.9-8c-1-1.3-2-2.5-2.7-3.5c-0.3-0.4-0.5-1.2-0.8-1.6
			c-0.9-1.3-2-2.5-2.7-3.5c-0.8-1.2-1.4-1.6-1.9-2.3c-0.4-0.5-0.4-1.1-0.8-1.6c-2.7-3.6-5.9-7.6-8.2-10.9c-0.8-1.1-1.4-1.6-1.9-2.3
			c-0.4-0.5-0.4-1.1-0.8-1.6c-1.9-2.7-4-5-5.8-7.4c-1.3-1.6-2.3-3.4-3.5-5.1c-0.2-0.3-0.9-0.5-1.2-0.8c-0.4-0.5-0.4-1.1-0.8-1.6
			c-2-2.6-4-4.9-5.8-7.4c-1.3-1.7-3.2-3.9-3.9-5.5c-0.1-0.1-0.7-0.2-0.8-0.4c-0.7-1-1.1-2-1.6-2.7c-0.7-1.2-1.4-1.6-1.9-2.3
			c-0.4-0.5-0.5-1.2-0.8-1.6c-1.4-1.9-3-4.5-4.4-6h-2.2c0.1,0.4,0.3,0.6,0.4,0.9C99.3,82.3,100,82.4,100.1,82.6z"/>
		<path fill="#B32621" d="M122.2,93.1c1.3,0.2,0.9-1.8,1.2-2.3c0.1-0.1,0.7,0.1,0.8,0c0.1-0.1,0-0.6,0-0.8c0.7-2.7,0.3-6.4-0.7-8.8
			h-3.1c0.7,1.3,1.8,2.6,2.2,4.1C123.5,88.4,122.3,90.5,122.2,93.1z"/>
		<path fill="#B32621" d="M126.9,98.9c0.1-4.5,5.1-7.1,8.2-6.2c0,0.4,0.3,0.5,0.4,0.8c-0.4,4.5-2.3,7.4-7,7.4
			c0.8,2.1,1.9,3.9,3.9,4.7c3.3-4.1,5.3-9.5,6.6-15.6c-6.8,0-10.8,2.7-14.8,5.5C124.5,97.1,125.5,98.2,126.9,98.9z"/>
		<path fill="#B32621" d="M138.9,106.8c-1.7-0.1-4.2,0.2-5,1.2c3.3,0,5.2,1.1,7,2.7c1.5,1.3,2.4,4.7,5.4,3.1
			C146.2,109.7,142.6,107.1,138.9,106.8z"/>
		<path fill="#B32621" d="M60.4,113.8c-3.2,6.6-5.7,14.8-7,23c-0.1,0.8-1.5,2.5,0,3.1c1.6-1.7,1.5-4.1,1.9-6.2
			c0.4-2.2,0.9-4.5,1.6-6.6c1.2-4.2,3.3-8.2,3.9-12.5C60.7,114.3,60.8,113.8,60.4,113.8z"/>
		<path fill="#B32621" d="M52.6,150.5c-0.1,0.9,0.7,1.4,0.8,2.7c1.6-0.1,1.6-1.7,3.5-1.6c1.5,5.8,1.7,10.7,3.1,16.4
			c2,0.4,3.6,1.5,5.4,1.2c1.1-0.2,2.1-1.4,3.1-2.3c1.1-1,2.6-1.9,2.7-3.1c-0.9-0.4-1.3-1.3-2.3-1.6c-1.7,1.5-3.3,2.9-5.1,4.3
			c-1-1.4-1.3-3.4-1.6-5.1c-0.1-0.7,0.4-0.9,0.4-1.6c-0.1-1.8-1.2-3.8-1.6-5.5c-0.5-2.1-0.4-4-1.2-5.9c-1.3-0.7-2.7-1.4-4.7-1.6
			C54.8,148.4,52.8,148.9,52.6,150.5z"/>
		<path fill="#B32621" d="M102,155.6c-0.8,1.4-1.3,2.9-1.9,3.9c0.9,0.5,2.2,0.6,3.1,1.2c2-2,2.3-5.7,5.1-7c0.6,0.8,1.5,1.4,1.9,1.9
			c0.3,0.3,0.1,0.8,0.4,1.2c0.8,1.1,1.9,1.9,2.7,3.1c0.4,0.6,0,0.9,0.4,1.6c0.3,0.5,1.1,0.6,1.6,1.2c0.4,0.5,0.5,1.6,0.8,2
			c1.1,1.4,2.5,1.5,4.3,0.8c2.3-0.9,2-1.9,2.7-4.3c0.4-1.3,1.3-2.4,0.8-3.5c-1.1-0.3-1.6-1.3-3.1-1.2c-0.5,1.9-0.3,4.6-2.3,5.1
			c-0.7-1.4-2.1-2.9-2.7-3.9c-0.2-0.4-0.6-0.5-0.8-0.8c-0.4-0.6-0.4-1.4-0.8-1.9c-0.1-0.2-0.6-0.2-0.8-0.4c-0.2-0.3-0.2-0.9-0.4-1.2
			c-0.5-0.8-1.6-1.5-1.9-1.9c-0.7-0.9-0.6-2.5-1.9-2.3c-2.8,0.5-3.4,1.1-4.7,3.1c-0.7,1.1-1.2,2.2-1.6,3.1
			C102.7,155.3,102.1,155.4,102,155.6z"/>
		<path fill="#B32621" d="M123.8,152.5c-0.3-1.1-0.6-2.2-1.6-2.7C121.9,151.5,122.6,152.2,123.8,152.5z"/>
		<path fill="#B32621" d="M42.9,161.8c1.6,0.1,1.4-0.9,1.9-1.2c0.3-0.1,0.9,0.2,1.2,0c0.5-0.4,1.4-1.4,1.9-1.9
			c0.7-0.8,1.5-1.5,1.6-2.3c-0.7-0.6-0.9-1.7-1.6-2.4c-2,0.3-1.9,2.7-4.7,2.4c0-1.6,0-3.1,0-4.7C38.2,152.4,38.7,161.5,42.9,161.8z"
			/>
		<path fill="#B32621" d="M76.7,155.6c-1,0.8-2.5,1.5-2.7,3.1c0.8,0.3,0.7,1.7,1.9,1.6c0.6,0.8,1.3-1.1,1.6-1.2
			c0.3-0.1,0.6,0.5,0.8,0.4c0.7-0.5,1.1-2.3,2.7-2c1.7,1.2,1.5,3.1,2.3,4.7c0.3,0.7,1.1,1.2,1.6,2s0.7,1.9,1.2,2.7
			c1,1.7,2.3,3,3.1,4.7c2.6,0,5.4,0.2,7.4-0.4c1.3-1.7,2.4-3.6,3.1-5.9c-1-0.3-1.5-1.1-2.7-1.2c-2.3,1-2.3,4.2-4.7,5.1
			c-4.1-4.6-5.6-11.8-9.7-16.4c-0.9,0-1.8,0-2.7,0c-0.6,1.2-1.5,1.5-2.3,2C77,155,77.1,155.3,76.7,155.6z"/>
		<path fill="#F7CC00" d="M37.5,157.5c0.6,0.1,0.7-0.4,1.2-0.4c0-0.3,0-0.5,0-0.8c-0.3-0.2-0.6-0.4-1.2-0.4
			C36.8,156.7,37.5,156.5,37.5,157.5z"/>
		<path fill="#F7CC00" d="M92.7,166.5c0.6-1.2,2-1.7,1.9-3.5c-1-0.3-3.9-1.1-4.3,0.4C91.4,164.2,91.3,166.1,92.7,166.5z"/>
		<path fill="#B32621" d="M30.5,176.7c-0.1-2-1-4.1-1.6-5.9c-0.6-1.7-0.8-4.1-2.7-4.7c-0.4,0-0.5-0.3-0.8-0.4
			c-2.3,1.9-4.7,3.6-6.6,5.9c0.4,2.3,1.7,4.4,1.9,7c0.6,6.5-2.1,10.5-3.9,14.1c0.9,1.1,1.7,2.6,2.7,3.9c1,1.2,2.1,3.1,3.5,2.7
			C26.8,194.5,31.1,185.4,30.5,176.7z"/>
		<path fill="#B32621" d="M49.1,208.7c1.9-3.6,2.8-7.8,4.3-11.7c1.4-3.9,3.1-7.7,4.3-11.7c-4.4-0.7-7.9-2.3-12.1-3.1
			c-2.5,1.8-2.5,4.7-3.5,8.2c-1.1,4.2-3.4,8.1-4.7,11.7C40.4,205.2,45,206.8,49.1,208.7z M43.7,191.1c1-2,2-4.3,3.9-6.2
			c2.3,0.6,4.6,1.1,6.6,2c0.2,1.9-0.6,3.5-1.2,5.1c-0.3,0.7-0.5,1.5-0.8,2.3c-0.2,0.7-0.9,1.3-1.2,2c-1.1,3-1.4,6.3-3.1,9
			c-3.1-1-6.3-2-8.2-4.3C40.4,197.4,42.2,194.2,43.7,191.1z"/>
		<path fill="#B32621" d="M69.7,185.7c-1,2.1-4.3,2.6-4.7,5.1c-0.3,1.9,1.3,2.8,1.6,5.1c1.4-0.2,2.6-1.1,3.5-1.9
			c0.9-0.8,1.8-2,2.3-3.1C71.4,189.2,72,186,69.7,185.7z"/>
		<path fill="#171717" d="M108.6,189.2c0.4,0.1,0.6,0.4,0.8,0.8c2.1,0.3,3-0.6,2.7-2.7C110.9,185.7,108,186.6,108.6,189.2z"/>
		<path fill="#B32621" d="M115.6,227.5c-0.3-1.1-2.1-0.8-1.9-2.3c0.3-2.1,1.5-3.6,1.6-5.9c0.1-3.1-1.8-5.6-3.1-7.8
			c1.4-2.1,3.5-5,3.5-8.2c0-1.9-0.9-3.2-1.2-5.1c2.5-2.5,5.7-4.4,5.4-9.8c-0.5,0-0.5-0.5-1.2-0.4c-0.2,5.2-3.3,7.3-6.6,9.4
			c0.6,1.7,1.7,2.5,1.9,4.3c0.3,2.1-0.2,4.5-1.2,6.2c-0.9,1.6-2.8,2.2-3.1,3.9c3.5,1.7,5.1,6.5,3.5,10.5c-0.6,1.5-2.1,2-2.3,3.5
			c3,1,5.3,3.9,5.8,7.4h1.2C117.8,230.8,117.1,228.5,115.6,227.5z"/>
		<path fill="#B32621" d="M88.8,209.1c0.5-0.3,0.4-1,0.8-1.2c0.7-0.4,1.1,0.8,1.6,0c0.2-7.6,2.5-13.1,3.9-19.5
			c-4.3,0.3-8.5,0.5-13.2,0.4c-3.5,7-6.8,14.3-7.8,23.8c2.8-0.6,5-0.2,7-0.8C84.1,211,86.9,210.2,88.8,209.1z M77.5,209.5
			c-0.6-3.4,0.9-6.7,1.9-9.8c1-3,2.1-6,3.5-8.6c2.4-0.6,7.1-0.4,8.9-0.4c0.7,1.2-0.4,2.6-0.8,3.9c-1,3.9-1.9,8.3-2.7,12.5
			C85.3,208.2,81.1,210.2,77.5,209.5z"/>
		<path fill="#B32621" d="M103.9,193.9c-1.2-0.4-0.3-2.8-1.9-2.7c-0.7,1.4-1.4,2.8-1.6,4.7C101.8,195.3,103.4,195.1,103.9,193.9z"/>
		<path fill="#B32621" d="M124.2,196.2c1.4,0.6,3.3,2,4.3,1.2c-1.7-1.8-3.7-3.3-7-3.5C120.4,195.7,122.8,195.6,124.2,196.2z"/>
		<path fill="#B32621" d="M60.8,203.6c-0.3,1.9,1.4,3.5,1.6,5.9c1.4-0.4,2.4-1.2,3.1-2.3c4.4-1.2,1.9-5.2,1.2-8.2
			c-0.4,0-0.8,0-1.2,0C64.1,200.8,61.3,201.2,60.8,203.6z"/>
		<path fill="#B32621" d="M16.5,200.9c-1.5-0.7-3.2-0.4-4.9-0.2v10.7c1.5,0,2.9-0.3,4.2-0.7C16,207.4,16.5,204.4,16.5,200.9z"/>
		<path fill="#B32621" d="M124.2,206.4c-2.2-0.4-4.7-1.4-6.2-0.8c0,0.4,0,0.8,0,1.2c3.7,0.5,8,2.3,11.7,1.6
			C129.1,206.3,126.2,206.7,124.2,206.4z"/>
		<path fill="#B32621" d="M136.2,225.5c1.9-5.3,2.8-11.1,3.1-17.2c-0.5,0-0.5-0.5-1.2-0.4c0,0.5-0.2,0.9-0.4,1.2
			c-0.1,1.8-0.1,3.4-0.4,5.1c-0.8,5.4-2.5,9.5-3.1,14.5C135.7,228.5,135.8,226.5,136.2,225.5z"/>
		<path fill="#B32621" d="M99.7,213c0.3-0.9,1.3-1.1,1.5-2c-1.7-0.3-1.8-2.1-3.1-2.7c-0.8,1.4-0.2,4.2-0.4,6.2
			C99,214.7,98.5,213,99.7,213z"/>
		<path fill="#B32621" d="M14.5,219.6c0.3-0.3,0.1-0.9,0.4-1.2c0.9-1,1.9-1.8,2.7-2.7c1.6-1.8,4.6-3.7,3.9-6.2
			c-0.5,0-0.5-0.5-1.2-0.4c-1.9,2.1-3.6,4.2-5.4,6.3c-1,1.1-2.3,2.4-3.4,3.4v3.9c0.3-0.5,0.7-1,1.1-1.4
			C13.2,220.5,14.2,220,14.5,219.6z"/>
		<path fill="#B32621" d="M128.8,216.5c-2.7-0.6-7.8-0.6-10.5,0c-0.5,0.2-0.8,0.5-0.8,1.2c0.3,0.1,0.4,0.3,0.4,0.8
			C121.6,217.9,126.6,218.6,128.8,216.5z"/>
		<path fill="#B32621" d="M91.9,229c0.2-1.3-0.3-1.8-0.4-2.7c-3.8,0.5-7.6,2-11.7,2.3c-1.7,0.2-3.4-0.1-5,0c-3.5,0.1-7,0.6-10.5,0.4
			c-1.5-0.1-3.2-0.6-4.7-0.8c-1.8-0.2-3.8-0.1-5.4-0.4c-1-0.2-1.7-0.9-2.7-1.2c-2.6-0.8-5.6-1.5-7.4-2.3c-0.5-0.2-0.9-0.1-1.6-0.4
			c-3.9-1.6-7.3-3.8-10.5-5.1c0-0.2-0.1-0.5-0.4-0.4c1.1,2.9,3.4,4.7,4.7,7.4c1.1,0.1,1.6,0.8,2.7,1.2c1,0.3,2.3,0.1,3.1,0.8
			c0.4,0.3,0.8,1.2,1.2,2c0.5,1,1,2.3,1.5,3.5h1.3c-0.4-0.8-0.8-1.6-1.2-2.4c-0.1-0.3,0.2-0.4,0.4-0.4c-0.5-0.5-0.1-0.6,0-1.2
			c1.3-0.2,3.2,0.7,4.7,1.2c6.9,2,15.7,2.6,25.7,2.3c0.6,0,1.3-0.4,1.9-0.4c0.4,0,0.8,0.5,1.6,0.4c2.5-0.2,4.7-1.2,7-1.6
			c0.4,0.6,0.8,1.3,1.1,2h1.4c-0.2-0.8-0.4-1.5-0.6-2.4C89.4,230.4,91.6,230.6,91.9,229z"/>
		<path fill="#B32621" d="M124.5,226.3c-1.7,0.7-4,1.3-4.7,3.1c2.9,0.5,6.1-1.9,8.2-3.1c0.9-0.5,2.6-0.6,2.3-1.9
			C128.4,224.7,126.3,225.5,124.5,226.3z"/>
		<path fill="#B32621" d="M98.5,224.7c0.2,2.9,1.1,5.5,1.2,7.4c1,0.3,0.4-0.7,0.8-1.2c0.1-0.1,0.6,0.1,0.8,0
			c0.2-0.2,0.3-1.3,0.4-1.6c0.3-0.6,1.6-1.1,1.2-2.4C100.7,226.9,100.6,224.8,98.5,224.7z"/>
		<path fill="#B32621" d="M152.5,230.6c1.3-1.3,3.7-2.5,2.7-4.7c-0.1-0.3-0.3-0.5-0.8-0.4c-1.2,1.6-2.5,2.6-3.9,3.9
			c-1.3,1.2-2.9,2.5-4.1,3.9h3.3l0,0C150.9,232.2,151.6,231.5,152.5,230.6z"/>
		<path fill="#B32621" d="M30.5,230.2c-0.7,0.8-1.1,1.9-1.3,3.1h3.3c-0.4-0.9-0.9-1.7-1.2-2.7C31.2,230.3,30.9,230.1,30.5,230.2z"/>
		<path fill="#B32621" d="M13.4,231.4c-0.2,0.7-0.2,1.4-0.2,2h1.4c-0.3-0.6-0.6-1.3-0.9-2C13.7,231.3,13.4,231.4,13.4,231.4z"/>
		<path fill="#B32621" d="M131.5,233.3h0.4C131.9,233.3,131.7,233.3,131.5,233.3L131.5,233.3z"/>
		<path fill="#171717" d="M11.5,172.4v0.8C11.6,172.9,11.6,172.7,11.5,172.4z"/>
		<path fill="#171717" d="M19.8,233.3H21c-0.1-0.3-0.2-0.5-0.3-0.8C20.3,232.7,20,233,19.8,233.3z"/>
		<path fill="#171717" d="M55.4,86.5c-0.4,0.5-0.4,1-0.8,1.6c-0.3,0.5-0.8,0.6-1.2,1.2c-0.5,0.7-0.3,1.4-1.2,1.6c-0.1,0-0.3,0-0.4,0
			C46,101,40.1,111.8,37,125.3c-0.5,2.2-0.8,4.7-1.2,7c-1,6.9-2.3,15.1-1.2,23.8c-1.6,2.3-4,3.8-6.2,5.5c-5.8,4.5-11.1,10.3-17,15.3
			v12.9c0.2,0.1,0.3,0.3,0.7,0.3c1.6,1.3,3,2.7,4.3,4.3c0.1,0.5,0.7,0.6,0.8,1.2c2.3,2.1,4.8,6.1,6.6,9.4c1.6,2.9,3.3,6.2,3.9,9.8
			c0.2,1.3-1.2,1.2-1.6,1.9c-0.9-0.5-1.3-1.6-1.6-2.7c-0.4-0.3-0.6-0.7-0.8-1.2c-1.5-4.2-3.9-7.5-5.8-11.3c-0.3,0.1-0.4-0.2-0.4-0.4
			c-1.7-2.8-3.8-5-6.1-7.2v2.1c0.8-0.1,1.7,0.2,1.4,1.2c-0.6,0-1.1,0.2-1.4,0.2v3.5c1.7-0.2,3.5-0.5,4.9,0.2c0,3.6-0.5,6.6-0.8,9.8
			c-1.3,0.5-2.7,0.7-4.2,0.7v3.9c0.4,0,0.7,0,1.1,0c0.1,0.9-0.5,1.6-1.1,2.2v1.2c1-1,2.4-2.3,3.4-3.4c1.8-2.1,3.5-4.2,5.4-6.3
			c0.6-0.1,0.7,0.4,1.2,0.4c0.7,2.6-2.3,4.5-3.9,6.2c-0.8,0.9-1.8,1.8-2.7,2.7c-0.3,0.3-0.1,0.9-0.4,1.2c-0.4,0.4-1.3,0.9-1.9,1.6
			c-0.4,0.4-0.7,0.9-1.1,1.4v10.7h1.6c-0.1-0.6,0-1.2,0.2-2h0.4c0.3,0.7,0.6,1.3,0.9,2H16c-0.1-0.1-0.2-0.3-0.3-0.4
			c0.2-2,1.8-2.7,3.5-3.1c0.4-1.8-1.6-1.3-1.2-3.1c0.5-1.5,1.3-2.6,3.5-2.3c0.4,0.9,0.6,2,1.2,2.7c1-0.8,2-1.6,3.1-2.3
			c0.8,0.4,1.7,0.6,2.3,1.2c0.6,3.3-1.7,3.8-3.5,4.7c0.3,1.1,1.4,1.5,1.6,2.7h2.9c0.2-1.3,0.6-2.4,1.3-3.1c0.4-0.1,0.7,0.1,0.8,0.4
			c0.3,1,0.8,1.9,1.2,2.7h1.1c-0.3-0.5-0.5-1-0.7-1.6c-0.3-0.8-0.4-1.6-0.8-2.3c-1.3-2.7-3.5-5-5.1-7.4c-0.5-0.7-1-1.3-1.5-2
			c0.5-1.4,1.3-2.6,3.1-2.7c1.4,1.6,2.8,3.2,3.9,5.1c1,1.5,2,2.9,3.1,4.3c1.1,2.2,2.2,4.4,3.2,6.7h6c-0.5-1.2-1-2.5-1.5-3.5
			c-0.4-0.8-0.8-1.6-1.2-2c-0.8-0.7-2.2-0.4-3.1-0.8c-1.1-0.4-1.6-1.1-2.7-1.2c-1.3-2.7-3.5-4.5-4.7-7.4c0.3-0.1,0.4,0.2,0.4,0.4
			c3.2,1.3,6.6,3.5,10.5,5.1c0.7,0.3,1,0.2,1.6,0.4c1.8,0.8,4.8,1.6,7.4,2.3c1,0.3,1.7,1,2.7,1.2c1.6,0.3,3.6,0.2,5.4,0.4
			c1.5,0.2,3.2,0.7,4.7,0.8c3.5,0.3,7-0.2,10.5-0.4c1.7-0.1,3.4,0.2,5,0c4.1-0.4,7.8-1.9,11.7-2.3c0.1,0.9,0.6,1.5,0.4,2.7
			c-0.3,1.6-2.5,1.4-3.9,1.9c0.2,0.8,0.4,1.6,0.6,2.4h5c-0.1-0.3-0.1-0.5-0.2-0.8c-0.3-1.4-0.2-3-0.4-4.7c-0.3-2.2-1-4.3-0.8-7.4
			c-0.9-3.4-0.1-8.5-0.4-12.5c1-7.3,2.2-14.5,4.7-20.3c-0.9-0.9-1.9,0.1-3.1,0c-2.6,0-5.2,0-7.8,0c-1.1,1.2-2.9-0.2-4.3,0
			c-1.3,0.5-1,2-1.6,3.1c-0.4,0.9-1.2,1.8-1.6,2.7c-0.1,0.3,0.2,0.9,0,1.2c-0.1,0.2-0.7,0.2-0.8,0.4c-0.2,0.5-0.2,1.4-0.4,2
			c-1.1,2.9-2.2,6.5-3.1,10.2c-0.5,1.9-0.6,5-2.7,5.9c-0.5-0.3-1-0.5-1.9-0.4c-0.3-1.5,0.5-1.9,0.4-3.1c-0.1-0.3,0.2-0.4,0.4-0.4
			c-0.2-1.9,1-2.4,0.8-4.3c1.1-1.9,1.2-4.8,2.3-6.6c0.6-2.6,1.7-4.5,2.3-7c0.9-1.2,0.9-3.3,1.9-4.3c0.1-1.2,1-1.6,1.6-2.3
			c3.2,0.8,7.8,0.2,11.7,0.4c-0.1-0.3,0.1-0.4,0.4-0.4c1.3,0,2.6,0,3.9,0c1.8-0.8,4.9-0.3,6.6-1.2c0.6,0,1.3,0,1.9,0
			c-0.3,1.1-0.9,1.9-1.2,3.1c-3.5,8-6.6,18.3-5.8,29.3c0,1.7,0,3.4,0,5.1c1,4,1.3,8.7,2.5,12.5h5.2c0.4-0.2,0.8-0.3,1.3-0.4
			c-0.4-1.7-0.7-4.3,0.4-5.5c2.9-1.5,3.8,1.7,4.7,3.5c1.4-0.8,2.7-1.2,4.3-0.8c0,1.5,0.6,2.1,0.2,3.1h1.7c-0.4-3.5-2.8-6.4-5.8-7.4
			c0.2-1.6,1.7-2,2.3-3.5c1.6-4.1,0-8.8-3.5-10.5c0.3-1.7,2.2-2.3,3.1-3.9c0.9-1.7,1.4-4.2,1.2-6.2c-0.2-1.8-1.4-2.6-1.9-4.3
			c3.3-2,6.4-4.2,6.6-9.4c0.6-0.1,0.7,0.4,1.2,0.4c0.3,5.4-2.9,7.3-5.4,9.8c0.2,1.8,1.2,3.2,1.2,5.1c0,3.2-2.1,6.1-3.5,8.2
			c1.3,2.2,3.2,4.7,3.1,7.8c0,2.2-1.3,3.8-1.6,5.9c-0.2,1.6,1.6,1.2,1.9,2.3c1.5,1.1,2.2,3.4,2.3,5.9h2.3c0-0.4,0-0.8,0-1.2
			c0.9-0.9,2.9-1.6,5-2.7c3-1.5,6.4-4.5,7.4,0c0.2,0.5-0.2,0.6-0.4,0.8c-1,1.1-2,2.2-3.2,3.1h2.4l0,0c0.2,0,0.3,0,0.4,0h2.2
			c0.2-0.7,0.5-1.4,1.3-1.2c0.1,0.4,0.1,0.8,0.2,1.2h3.7c-0.7-7-0.6-15.1,0.8-21.5c-0.2-0.8,0.3-1,0.4-1.6c0.7,0.6,1.7,0.9,1.6,2.3
			c0.2,2.2-0.2,3.7-0.4,5.5c0,2.3,0,4.7,0,7c1.1,2.5-0.2,5.6,0.1,8.2h4.7c1.2-1.4,2.8-2.7,4.1-3.9c1.3-1.3,2.7-2.4,3.9-3.9
			c0.5-0.1,0.7,0.1,0.8,0.4c0.9,2.2-1.4,3.4-2.7,4.7c-0.9,0.9-1.7,1.6-2.7,2.7l0,0h1.2c0.6-0.6,1.4-1.2,2.3-1.6
			c0.4,0.5,0.4,1,0.2,1.6h3.7v-7.7L157,226c-7.8-7.3-14.8-15.3-22.2-23c-7.3-7.7-14.8-15.1-21.8-23c3-1.9,6.5-2.5,10.1-3.9
			c3.8-1.5,9.3-4.3,12.8-6.6c2.2-0.1,2.8,1.3,4.3,2c-1.1,2-3.5,2.6-5.4,3.9c-0.3,0.2-0.9,0.2-1.2,0.4c-0.2,0.1-0.2,0.7-0.4,0.8
			c-2.5,1.4-5.5,2.2-8.2,3.5c-0.2,1.2,1,2,1.6,2.7c1.7,2.2,4.1,4.4,6.2,6.6c2.7,2.9,5.5,5.7,8.2,8.6c5.3,5.7,10.6,11.6,16,17.2
			v-28.5c-1.1-0.6-1.9-1.6-2.8-2.4c-1.9-1.9-4.2-4-6.2-6.2c-0.9-1-1.7-2.3-2.3-3.5c0.3,0.1,0.4,0.4,0.8,0.4c1-0.1,1.1,1.1,1.6,1.6
			c1.2,1.2,3.2,2.5,4.7,3.9c0.9,0.9,1.8,2.1,2.7,3.1c0.4,0.5,1.1,0.9,1.6,1.4v-11.4l-0.1-0.1c-0.1-0.3-0.4-0.4-0.4-0.8
			c-1.8-1.7-2.9-3.9-4.3-5.9c-1-1.4-2.1-2.5-3.1-4.3c-0.1-0.1-0.8-0.3-0.8-0.4c-0.1-0.2,0.6-0.5,0.4-0.8c-0.2-0.3-0.6-0.5-0.8-0.8
			c-0.2-0.4-0.7-1.7-1.2-2.3c-0.7-1-1.7-1.5-2.3-2.3c-0.4-0.5-0.4-1.5-0.8-2c-0.4-0.5-0.9-0.8-1.2-1.2c-4.5-6.2-9.9-13-14.8-19.5
			c-0.4-0.5-0.8-1-1.2-1.6c-0.3-0.4-0.5-1.2-0.8-1.6c-0.7-0.9-1.7-1.4-2.3-2.3c-0.3-0.4-0.1-0.9-0.4-1.2c-0.7-0.7-1.8-2.2-2.7-3.5
			c-0.5-0.8-1-1.5-1.6-2.3c-0.8-1.2-2.4-3.1-3.5-4.7c-5.3-7.6-11.2-15-16.7-22.7c-0.7-1-1.2-2.1-1.9-3.1c-0.6-0.8-1.7-1.5-2.3-2.3
			c-0.2-0.3-0.1-0.8-0.4-1.2c-0.2-0.2-0.6-0.2-0.8-0.4c-0.7-1-1.1-1.6-1.9-2.7c-0.5-0.6-0.8-1.1-1.1-1.7h-1.9c0,0.1,0,0.1,0,0.2
			C88,82,87.7,82,87.5,81.9h-1.9c0.4,0.3,0.9,0.5,1.5,0.6c1.1,1.1,3.9,0.5,3.5,3.1c-3.5-0.3-6.1-1.5-7.7-3.7h-1.8
			c0.4,0.6,0.8,1.3,1.3,1.7c0.2,0.2,1.1,0.5,1.6,0.8c0.8,0.5,2.8,1.7,4.3,2c1.5,0.2,2.7,0,4.3,0.4c0.2,1.3,1.5,1.4,1.6,2.7
			c-6.4-1.3-13.7-1.7-15.6-7.6h-1.1c0.2,0.7,0.3,1.4,0.8,2.1c3.7,5.4,11.4,5,17.9,7.4c0.2,1.6,1.8,2.3,2.7,3.5
			c0.9,1.1,1.5,2.4,2.3,3.5c1.6,2.2,3.3,4.4,5.1,6.6c0.2,0.2,0.6,0.6,0.8,0.8c0.4,0.6,0.7,1.2,1.2,2c1.4,2.2,3.6,4.8,5.4,7.4
			c2.1,3.1,4.4,7.3,1.2,12.1c-1,0.3-2.1,0.5-3.5,0.4c-0.9,1-1.6,2-1.9,3.5c-1.2,1.1-2.4,2.1-3.5,3.5c-0.8,1-0.8,1.4-1.9,2.3
			c-0.3,0.2-0.5,0.6-0.8,0.8c-1.6,1.2-3.6,2.4-5.1,4.3c3.3-1.3,5.6-3.8,7.8-6.2c1.9-2.3,4.2-4.1,5.4-7c1.6,0.2,2.5-0.4,3.5-0.8
			c0.6-0.2,1-0.6,1.2-1.2c0.9,0.1,0.8,1,0.8,1.9c0.8,3.4,0.8,7.5,1.9,10.5c-6.9,4.1-15.5,6.6-24.9,8.2c-1,0-2.1,0-3.1,0
			c1-1.3,2.9-1.7,4.3-2.7c-0.1-0.3,0.2-0.4,0.4-0.4c1-0.7,2.2-1.2,2.7-2.3c-3.8,1.9-9,5.1-14,6.6c-1.3,0.4-3,1.1-5,1.2
			c-4.2,0.1-7.7-1.8-9.7-5.5c-0.1-0.5-0.7-0.6-0.8-1.2c-1.2-0.5-1.4-2-2.3-2.7c0,0.1,0,0.3,0,0.4c0.2,0.7,0.8,1,0.8,1.9
			c1,0.4,1.1,1.8,1.9,2.3c-0.1,0.9-1.6,0.2-2.3,0.4c-3.4-1.6-8.1-2-11.3-3.9c-1-1,0.7-2.5,1.9-2.7c0.1-0.1,0.1-0.1,0.2-0.2
			c1.2-1.7,2.9-2.9,4.5-4.1c0-0.1,0-0.3,0-0.4c1.6-0.2,1.5,1.3,1.9,2.3c1.2-0.3-0.4-0.8,0-1.6c-0.9-3.3-2-6.3-1.9-10.5
			c0-0.1,0-0.3,0-0.4c-0.9-4.8-0.4-11.2,0.8-15.2c2.4,1.5,5,0.9,7.8,0c0.5,3-2.6,2.3-3.5,3.9c0.9,1.3,3-1.9,2.7,1.2
			c-0.1,0-0.3,0-0.4,0c0,0.1,0,0.3,0,0.4c-1.2,3.4-4.2,8.4,0.8,9.8c0.6-0.6-2.2-1.2-1.9-2.7c-0.5-1.6,0.6-2.9,1.2-4.7
			c0.5-1.4,0.8-3,1.2-4.7c1-4.3,2.6-8.8,0.8-12.5c-0.3-0.6-1-0.9-1.6-1.6c-0.4-0.5-0.4-1.4-1.2-2c-0.7-0.5-2.3-1.1-3.1-1.2
			c-1.9-0.2-2.8,0.9-4.3,0.4c0-1.3,0-2.6,0-3.9c3.5-4.3,11.3-4.2,13.8-9.5h-1.3c-0.8,2-3,2.8-4.7,3.7c-2.3,1.2-4.7,2.6-7,3.5
			c0.2-4.1,4.7-4.1,7.4-5.9c0.6-0.4,1-0.9,1.5-1.3h-1c-0.8,0.6-1.9,0.9-2.8,1.3c-1.4,0.7-3,1.8-4.7,1.9c0.6-1.8,2.5-2.3,3.9-3.1
			c0.1-0.1,0.2-0.1,0.3-0.2h-2.2c-0.4,0.2-0.8,0.4-1.2,0.6c0-0.2,0.1-0.4,0.2-0.6h-3.7c-0.4,0.5-0.8,0.9-1.1,1.3
			C57.4,83.9,56.4,85,55.4,86.5z M13.8,183.3c-3.2,0.6-2.8-3.7,0.4-2.7C14.7,181.8,14.3,182.3,13.8,183.3z M19.2,208.3
			c0.2-0.7-0.5-2.4,0.8-2C20.2,207.3,20.6,208.2,19.2,208.3z M17.3,224.7c-0.4,1-1.5,1.3-1.9,2.3c-0.7-0.1-0.9-0.7-0.8-1.6
			c-1.4-1.8-0.7-5.1,1.2-5.9C17.5,219.8,18.1,223.2,17.3,224.7z M24.6,217.3c-0.2,1.7-1.9,2.1-2.7,3.1c-1.3-1.1-1.3-3.7-1.9-5.5
			c0.6-0.8,1.4-1.5,1.9-2.3C23.1,212.1,24.8,216.5,24.6,217.3z M151.4,222.4c2.1-0.3,3.2,2.6,1.2,3.1c-0.1,0.5-0.8,0.4-0.8,0
			C151.5,224.6,151.2,223.7,151.4,222.4z M145.5,215.7c1.1,0.2,1.8,0.8,1.9,2c0.5,1.8-0.5,5.5,0.4,7.8c-0.4,1.5,0.9,4.8-0.8,5.1
			c-0.7,0.2-0.7,1.1-1.9,0.8c0.6-3.6-1-8.6,0-12.9C145.2,217.4,145,216.2,145.5,215.7z M114.8,211.8c0.6-1.2,1.2-2.5,1.9-3.5
			c0.3,0,0.5,0,0.8,0c3.6,1.3,9.1,0.8,11.7,3.1c0,0.6,0,1.3,0,1.9c-2.8,1.7-9.1,1.1-12.4,1.2C116.3,213.4,115.5,212.7,114.8,211.8z
			 M117.9,206.7c0-0.4,0-0.8,0-1.2c1.6-0.6,4.1,0.4,6.2,0.8c2,0.4,4.9-0.1,5.4,2C126,209,121.7,207.2,117.9,206.7z M117.6,217.7
			c0-0.7,0.3-1,0.8-1.2c2.7-0.6,7.8-0.6,10.5,0c-2.2,2.1-7.2,1.3-10.9,2C118,218,117.9,217.8,117.6,217.7z M118.7,226.7
			c-2.9-0.6-2.7-3.7-0.8-6.6c3.9,0.1,7.9-1.6,11.7-0.4c0,0.8,0,1.6,0,2.3c-1.5,1.1-5.4,2.4-8.2,3.5
			C120.3,226,119.4,226.8,118.7,226.7z M128,226.3c-2,1.2-5.3,3.6-8.2,3.1c0.7-1.8,2.9-2.4,4.7-3.1c1.7-0.7,3.8-1.6,5.8-1.9
			C130.6,225.7,129,225.8,128,226.3z M137.4,214.2c0.2-1.7,0.3-3.3,0.4-5.1c0.2-0.3,0.4-0.6,0.4-1.2c0.6-0.1,0.7,0.4,1.2,0.4
			c-0.3,6.1-1.2,11.9-3.1,17.2c-0.4,1-0.5,3-1.9,3.1C134.9,223.7,136.6,219.6,137.4,214.2z M132.7,222.4c-2.7,0.2-1.8-2.5-1.2-3.9
			C133.4,218.5,133.3,221.1,132.7,222.4z M131.2,204c-1.6,1.9-4.2,1.2-6.6,0.8c-2.3-0.4-4.8-1.2-6.6-1.6c-0.3-3.2-1.5-4.7,1.2-6.6
			c0.5-0.1,0.7,0.1,0.8,0.4c2.3,0.1,4.8,1.4,7,2.3C128.8,200.1,131.9,200.3,131.2,204z M121.4,193.9c3.3,0.2,5.3,1.7,7,3.5
			c-1,0.9-2.9-0.5-4.3-1.2C122.8,195.6,120.4,195.7,121.4,193.9z M38.6,155.6c0,0.3,0,0.5,0,0.8s0,0.5,0,0.8c0,0.4,0,0.8,0,1.2
			c-1.3,0.2-1.2-1.2-1.9-1.6C37,156.3,38.1,154.5,38.6,155.6z M48,154c0.6,0.7,0.8,1.8,1.6,2.4c0,0.8-0.8,1.6-1.6,2.3
			c-0.6,0.6-1.4,1.6-1.9,1.9c-0.3,0.2-0.9-0.1-1.2,0c-0.5,0.3-0.4,1.3-1.9,1.2c-4.2-0.4-4.7-9.4,0.4-10.2c0,1.6,0,3.1,0,4.7
			C46,156.8,46,154.4,48,154z M46.4,152.5c-0.1,0.8-1,0.8-1.2,1.6C44,153.4,45.5,151.1,46.4,152.5z M51.9,146.6
			c-0.1-0.3,0.2-0.4,0.4-0.4c0-1.8,1.1-0.8,1.9-0.4c-0.3,1.4-1.3,2-2.7,2.3C51.4,147.5,51.9,147.3,51.9,146.6z M53.8,162.6
			c0.8,3.2-2.1,4.3-3.9,2.7c-0.4-2.1,0.5-2.8,1.6-3.5C52.9,161.4,52.6,162.8,53.8,162.6z M63.5,183.7c-3.5,6.9-6.2,14.6-8.6,22.7
			c-0.3,1.5-0.7,3-1.5,3.9c-1.9-0.6-3.1-0.7-2.3-3.1c1.5-4,2.5-8.4,4.3-12.1c0.3-1.8,1.3-2.9,1.6-4.7c1.1-1.6,1.6-3.9,2.3-5.9
			c-2.4-0.4-4.9-0.8-7-1.6c-1.4-0.2-3-0.4-3.9-1.2c-1.2,0-1.9-0.5-2.7-0.8c-1.5-0.2-1.5,2.3-2.7,1.2c0-0.9,0-1.8,0-2.7
			c0-0.8,0-1.6,0-2.3c1.6-0.2,2.2,0.7,3.5,0.8c0.8,0.7,2.4,0.4,3.1,1.2c2.1,0.3,3.6,1.3,5.8,1.6c0.3-0.1,0.4,0.2,0.4,0.4
			c0.9-0.3,2.3,0.8,3.5,1.2C60.8,182.6,63.2,181.9,63.5,183.7z M61.2,178.2c1-2,2.1-3.8,4.7-4.3C68.1,176.5,63.9,180.6,61.2,178.2z
			 M65.5,198.9c0.4,0,0.8,0,1.2,0c0.8,3,3.2,6.9-1.2,8.2c-0.7,1.1-1.7,1.9-3.1,2.3c-0.1-2.3-1.9-4-1.6-5.9
			C61.3,201.2,64.1,200.8,65.5,198.9z M48.4,169.6c0.1,3.5-3.5,5-5.8,2.7C43.4,170.4,46.4,167,48.4,169.6z M41.7,168.5
			c-0.5-0.5-0.4-1.7-0.4-2.7C43.7,165.3,43.7,168.4,41.7,168.5z M55,177.1c0.3-2.6,3.2-5.2,5.4-3.5C60.5,176.3,58,179.2,55,177.1z
			 M58.1,167.7c-1.5-0.2-3.2-0.1-3.5-1.6c-0.1-0.3,0.2-0.4,0.4-0.4c0.2-1.1-0.5-3.1,0.4-3.5c0.1-0.5,1-0.3,1.6-0.4
			c0.7,0.8,0.7,2.2,1.2,3.1C58.1,165.9,58.1,166.8,58.1,167.7z M56.5,156c-1.2,0.5-1.3,0.1-2.3-0.4c0-0.1,0-0.3,0-0.4
			c-0.1-0.3,0.1-0.4,0.4-0.4c0.3-0.6,0.6-1.2,1.6-1.2C56.6,154.1,56.6,155,56.5,156z M54.6,172c-0.5,1.5-1.3,3.7-2.7,3.9
			c-1.2,0.2-1.7-0.9-3.1-0.8C49.3,172.5,52.5,169.6,54.6,172z M51.1,160.7c-1.4,0.1-1.8,1.3-2.3,2.3c0.1,0.7-0.5,0.8-0.4,1.6
			c-1.4-0.1-1.7-1.1-3.1-1.2c0.3-1.4,1.4-1.9,2.3-2.7c0.6-1,1.3-1.8,2.7-1.9C50,159.9,51.4,159.5,51.1,160.7z M48.7,147.4
			c0-0.4-0.5-0.3-0.8-0.4c0.2-1.2,0.9-2,2.3-1.9C50.9,145.8,50,147.3,48.7,147.4z M42.1,190.3c0.9-3.5,1-6.4,3.5-8.2
			c4.2,0.9,7.7,2.5,12.1,3.1c-1.2,4-2.8,7.8-4.3,11.7c-1.4,3.9-2.3,8.1-4.3,11.7c-4.2-1.9-8.7-3.5-11.7-6.6
			C38.7,198.4,41,194.5,42.1,190.3z M23.1,199.3c-1.4,0.4-2.5-1.5-3.5-2.7c-1-1.3-1.9-2.8-2.7-3.9c1.8-3.5,4.5-7.6,3.9-14.1
			c-0.2-2.7-1.5-4.7-1.9-7c1.9-2.2,4.3-4,6.6-5.9c0.3,0.1,0.4,0.4,0.8,0.4c1.9,0.6,2.1,3,2.7,4.7c0.6,1.8,1.4,3.9,1.6,5.9
			C31.1,185.4,26.8,194.5,23.1,199.3z M90.7,220.8c-8.7,2.7-17.3,3.5-28,2.7c-13.3-1-24.2-6.8-32.7-12.1c0.5-1.9,1.5-3.2,3.1-3.9
			c1.1,0.2,1.8,0.8,1.9,1.9c-1.7,0-2.6-0.8-3.1,0.8c0.2,1.5,1.5,1.9,2.7,2.3c2.3-0.4,3.5-3.2,5.4-0.8c-0.3,1.3-2.6-0.2-3.5,1.2
			c0.1,1.8,2,1.9,3.1,2.7c1.5-0.4,2-1.9,3.5-2.3c1,0.4,2.2,0.4,2.3,1.6c-0.7,0.5-3.3-0.7-3.5,1.2c0.2,1.8,2.6,1.3,3.5,2.3
			c2.4-0.5,3-3.5,5.8-1.6c-0.8,1.5-3.1-0.3-3.5,2c0.9,1.2,2.5,1.7,3.9,1.6c1.7-0.2,2.4-2.3,3.5-2.7c1,0.3,2.7-0.1,2.7,1.2
			c-2-0.2-3.3,0.3-3.5,1.9c1.5,0.2,3,1.4,4.3,1.2c1.8-0.3,2.1-2.2,3.5-3.1c1.3-0.2,2.2,0.2,3.1,0.4c-1.5,0.6-3.3,0.8-3.5,2.7
			c1.2,0.7,3.1,0.8,5,0.8c1.9-1,1.4-4.3,5.1-3.5c0.3,1.3-1.3,0.5-1.6,1.2c-0.2,0.7-0.8,1-0.8,2c0.7,0.9,3,0.1,4.3,0.4
			c1.1-0.6,1.6-1.8,1.9-3.1c1-1,2.3-0.7,3.1-0.4c-0.5,1.1-2.4,0.7-1.9,2.7c0.7,1.4,3.3,0.6,4.7,0.4c0.7-1.1,1-2.7,1.6-3.9
			c0.9-0.3,1.5-0.8,2.7-0.8c-0.1,1.6-2.2,1.2-1.9,3.1c1.2,1,3.6,0,4.7-0.4c1.1-0.7,0.7-2.9,1.6-3.9
			C91.1,217.5,91.3,219.5,90.7,220.8z M81.8,188.8c4.7,0.2,8.9-0.1,13.2-0.4c-1.4,6.4-3.7,12-3.9,19.5c-0.5,0.8-0.9-0.4-1.6,0
			c-0.4,0.2-0.3,0.9-0.8,1.2c-1.9,1.1-4.7,1.9-7.8,2.7c-2,0.6-4.2,0.2-7,0.8C75,203,78.2,195.8,81.8,188.8z M76.7,216.9
			c0.8,0,1,0.4,1.6,0.4c1,0,2-0.6,3.1-0.8c0.5-0.1,1.1,0.1,1.6,0c2.6-0.5,5.2-1.9,7.8-1.9c-0.4,0.9-1.5,1.1-1.9,1.9
			c0.2,1.3-0.2,2.2-0.4,3.1c-1.3-0.1-1.6,0.7-3.1,0.4c1.1-0.7,2.5-1.2,2.3-3.1c-3-1.1-6.4,0.9-6.2,4.3c-0.9,0.2-1.8,0.6-3.1,0.4
			c-0.3-1.3,1.3-0.5,1.6-1.2c0.5-0.2,0.1-1.5,0.8-1.6c-0.3-1.4-2.8-0.5-4.3-0.8c-1.3,0.8-1.5,2.7-2.3,3.9c-0.9,0-1.8,0-2.7,0
			c0.4-1.4,2.3-1.3,2.3-3.1c-0.8-1.5-2.3,0-4.3-0.4c-1,1.2-1.7,2.7-3.1,3.5c-1.2-0.1-2.7,0.1-2.7-1.2c2.2,0.4,3.1-0.6,3.5-1.9
			c0-1-1.2-0.7-1.9-0.8c-0.6-0.1-2.3-0.4-2.3-0.4c-1.8,0.4-2.2,2.1-3.1,3.1c-1.2-0.1-2.8,0.3-3.5-0.4c1.4-0.5,3-0.9,3.5-2.3
			c-1-1-2.9-1.4-4.3-1.2c-1.7,0.3-2.3,2.3-3.5,2.7c-0.9-0.1-1.6-0.5-2.3-0.8c1.3-0.5,3.1-0.5,3.5-2c-0.8-1.1-2.7-1.2-4.3-1.6
			c-1.4,0.1-1.8,1.3-2.3,2.3c-1.2-0.2-2-0.8-3.1-1.2c0.5-1.5,3,0.5,3.5-1.6c-0.1-1.7-2.2-1.5-3.1-2.3c-2,0.2-3.6,3.3-5.4,1.2
			c0-1.6,3,0.6,3.1-1.6c-0.3-1.5-1.8-1.9-3.1-2.3c-1.9,0.7-3.7,3.3-5.4,0.8c0.1-1.5,2.9,0.6,3.5-1.2c0.5-2.4-2.8-1.1-2.3-3.5
			c1.1-0.3,1,0.5,1.9,0.4c6,4.6,14,9.2,24.5,10.2c1.3,0.1,2.6,0.7,3.9,0.8C68.5,217.6,72.5,217.2,76.7,216.9z M70.1,193.9
			c-0.9,0.8-2.1,1.7-3.5,1.9c-0.2-2.3-1.8-3.2-1.6-5.1c0.4-2.4,3.6-2.9,4.7-5.1c2.3,0.3,1.6,3.6,2.7,5.1
			C71.9,191.9,71,193,70.1,193.9z M67.4,179.8c0.6-2.7,2.6-5.5,5.4-4.7C73.4,177.7,71.1,181.4,67.4,179.8z M72.1,171.2
			c-0.3,0.1-0.4-0.2-0.4-0.4c-1.6,0.3-2.2-0.4-3.5-0.4c-0.1-1.7,1.1-2,1.9-2.7c0.8-0.8,1.3-2.3,2.7-2.3c1.9,0,3.1,1.6,1.6,3.5
			C74.8,170.9,74.1,171.7,72.1,171.2z M77.9,181c-1.6,0-3.2,0.1-4.3-0.4c0.5-2.5,1.5-4.5,4.3-4.7c0,0.4,0.5,0.3,0.8,0.4
			C79.5,178,78.6,179.7,77.9,181z M78.3,172c-0.5-0.8-1.7-0.9-2.3-1.6c-0.4-1.8,0.6-2.2,1.2-3.1C79.9,167.1,80.8,171.2,78.3,172z
			 M78.3,161.1c0.6-0.9,1-1.8,2.7-1.6c0.5,1,0.9,1.9,0.4,2.3C80.8,163.8,74.9,161.8,78.3,161.1z M84.5,181.8c-1.3,0-2.6,0-3.9,0
			c0.4-3.1,1-6,5.1-5.5C86.7,178.3,85.2,180.2,84.5,181.8z M81.8,172c-0.7-0.7-0.3-2.3-0.4-3.5c-0.1,0-0.3,0-0.4,0
			c0.3-1.5,1.8-1.9,3.5-2c0.8,1.4,1.7,2.7,2.3,4.3C87.9,173.5,83.4,170.7,81.8,172z M91.5,181.4c-1.2,0-2.3,0-3.5,0
			c0.2-2.9,1.6-6.2,4.3-5.5C93.2,177.5,92.4,180.3,91.5,181.4z M98.1,180.6c-0.6,0.2-2-0.5-1.9,0.4c-2.6-0.7-0.1-4.6,0.4-5.9
			c1.4-0.3,2.1,0.3,2.7,0.8C99.4,177.9,99,179.5,98.1,180.6z M98.9,170.8c0-0.7,0.5-0.8,0.4-1.6c0.5-1.2,1.2-2.2,1.9-3.1
			c1.1,0.1,2.6-0.2,3.1,0.4c0,0.7,0,1.3,0,2c0,0.6,0,1.3,0,1.9C102.4,170.4,101.1,171.1,98.9,170.8z M102,179.4
			c0.6-2.6,0.4-5.8,3.9-5.5c0.9,1.3,0,3.4-0.4,4.7C104.5,179,103.6,179.6,102,179.4z M106.7,157.5c0.5-0.8,0.6-2,1.9-2
			c0.3,1.1,1.1,1.5,1.6,2.3c0.3-0.1,0.4,0.2,0.4,0.4c-0.5,1.6-1.6,2.6-3.5,2.7c0.1,0.3-0.2,0.4-0.4,0.4c-0.6,0-1.3,0-1.9,0
			c0.2-1.4,1.1-2.3,1.6-3.5C106.2,157.6,106.4,157.6,106.7,157.5z M111.7,172c0,0.4,0.5,0.3,0.8,0.4c0.3,1.9-0.4,3-0.4,4.7
			c-1.2,0.4-1.7,1.4-3.5,1.2C108.7,175.2,109,172.4,111.7,172z M105.5,168.5c-0.2-1.5,0.8-1.8,1.2-2.7c0.8,0,1.6,0,2.3,0
			C111.1,168.6,106.9,171.3,105.5,168.5z M102,191.1c1.6-0.1,0.8,2.3,1.9,2.7c-0.5,1.3-2.2,1.4-3.5,1.9
			C100.6,193.9,101.3,192.5,102,191.1z M97.7,214.6c0.2-2-0.4-4.8,0.4-6.2c1.3,0.6,1.4,2.5,3.1,2.7c-0.3,0.9-1.3,1-1.5,2
			C98.5,213,99,214.7,97.7,214.6z M101.6,229.4c-0.1,0.3-0.2,1.4-0.4,1.6c-0.1,0.1-0.7-0.1-0.8,0c-0.3,0.4,0.3,1.5-0.8,1.2
			c-0.1-2-0.9-4.5-1.2-7.4c2.1,0.1,2.2,2.2,4.3,2.3C103.2,228.3,101.9,228.8,101.6,229.4z M112.1,217.7c0.6,3-1.3,3.4-3.9,3.1
			c-0.6,1.8,0,4.7-1.9,5.1c-2.8,0-2.3-3.1-3.5-4.7c-1.6,0.1-3.2,0.1-3.9-0.8c-0.3-2.8,1.1-3.8,3.9-3.5c0.6-1.5,0.3-3.9,1.6-4.7
			c0.8,0,1.5,0,2.3,0c0.8,0.8,1.5,1.9,1.2,3.9C109.2,216.7,111.2,216.6,112.1,217.7z M112.1,205.6c-0.7,1-2.6,0.8-4.3,0.8
			c-0.7,1.6-0.6,4-2.7,4.3c-2.1-0.4-2.7-2.5-1.9-4.7c-0.8-1.5-3.6-1.1-4.3-2.7c0.2-2.7,2.1-3.4,4.7-2.7c1.3-1.2,1.3-3.7,3.1-4.3
			c0.8,0.4,1.7,0.6,2.3,1.2c0.3,1.6-0.4,2.2-0.4,3.5c0.7,1.4,3.1,1,3.5,2.7C112.1,204.3,112.1,204.9,112.1,205.6z M114.1,186.4
			c0,1.8,2.5,1.2,2.7,2.7c0.1,1.8-1.1,2.3-1.9,3.1c-1.1-0.1-1.6-0.7-2.7-0.8c-1.3,1.2-1.3,3.6-3.9,3.5c-1.9-0.7-1.8-3.4-0.8-5.1
			c-0.9-1.3-3-1.5-3.5-3.1c-0.1-2.9,3.5-3.4,5.1-1.6c1.3-0.8,1.4-2.7,2.7-3.5C115.2,181.5,114.9,184.1,114.1,186.4z M111.3,168.1
			c0-0.3,0-0.5,0-0.8c-0.3-0.4-0.4-0.9-0.4-1.6c-1.2-1.9,3-3.9,3.5-1.2c0.4,0.3,0.6,0.7,0.8,1.2c0.2,0.3,0.4,0.6,0.4,1.2
			C114.5,167.4,112.4,168.8,111.3,168.1z M118.7,175.1c-1.1,0.8-1.9,1.7-3.9,1.6c0.3-3-0.1-6.7,3.5-6.2
			C119.1,171.4,118.6,173.6,118.7,175.1z M124.9,173.2c-0.4,0.4-2.4,0.9-3.5,1.2c-0.2-3,0.2-5.2,1.6-6.6c2.7-0.5,2.2,2.2,3.1,3.5
			C124.8,170.9,125.5,172.6,124.9,173.2z M125.3,158.3c2.2-0.3,2.9,0.9,3.9,1.9c0,0.3,0,0.5,0,0.8c-0.7,1.5-3.9,2.6-5,2.3
			C123.4,162.1,124.8,159.6,125.3,158.3z M131.5,170c-1.2,0.5-2.1,1.3-3.5,1.6c0.1-2.8,0.6-5.1,1.6-7c0.3,0,0.5,0,0.8,0
			c1.1-0.3,0.8,0.8,1.6,0.8C131.9,167,132.1,168.9,131.5,170z M154.5,197c-0.4-1.7,0.8-1.8,1.2-2.7
			C157.1,194.6,156.2,197.5,154.5,197z M150.6,184.9c1,1.3,2.2,2.4,3.4,3.5c0,0,0,0,0.1,0l0,0c0.1,0.1,0.3,0.2,0.4,0.4
			c0.3,1.3-1.3,0.5-1.2,1.6c-0.1,0-0.3,0-0.4,0c0,2.6-1,5.9,0,8.2c0.3,1.6,2.8,1.1,3.1,2.7c-0.5,0.5-1.4,0.5-1.9,0
			c-0.9,0.3-1,1.4-1.6,1.9c-1.4-0.3,0-1.2-0.4-2.7c-0.6-1.3-1.1-2.8-1.5-4.3c0.1-2.1-2.5,0.8-3.1-0.8c-0.3,0.1-0.4-0.2-0.4-0.4
			c-1.6-0.2-2.8-0.9-3.1-2.3c-0.3,0.1-0.4-0.2-0.4-0.4c-0.9-4.5,4.8-6.6,6.2-3.1c1.1,0.5-0.2,1.9-0.8,1.9c-1.3,0.1-0.6-2-1.9-1.9
			c-1.4,0.1-2.6,1.8-1.6,3.1c1,2.9,5.8,2.2,5.8-1.2c1-1-0.3-1.7,0-3.1c-0.9-0.8-1.1-2.3-3.1-2c-0.1,0-0.3,0-0.4,0
			c-2.4-1.3-3.7,1.6-6.2,1.6c-0.4,0.4-0.8,0.8-1.2,1.2c-1.2,2.7-1.6-1.7-3.1-1.6c-2.7-1.4-4.6-5.9-2.3-9c1.3-1.8,2.7-2.8,4.7-2.7
			c2.4,0.1,3.4,3.1,5.8,2.7c-0.1,1.6-1.8,1.5-1.6,3.5c0.1,0.3-0.2,0.4-0.4,0.4c-0.7,1.2-1.7,2.2-3.9,2c-1.4,0-2.7-2.2-1.9-3.1
			c-0.1-1.5,0.7-2.1,2.3-1.9c0.2,1.2-1.2,0.9-0.8,2.3c-0.1,1,0.6,1.2,1.2,1.6c1.2,0,1.6-0.7,1.9-1.6c0.9-0.9,0-2-0.4-2.7
			c-0.9-2.2-5.6-1.2-5.8,0.8c-0.7,0.7-0.3,2.6-0.4,3.9c1.4,1.7,2.5,3.7,6.2,3.1c-0.1-0.3,0.2-0.4,0.4-0.4
			C144.9,184.9,147.1,184.1,150.6,184.9z M149,163.8c2.1,0.5,2.1,3.1,3.5,4.3c0.1,2.1-4,1.8-5.4,1.2c-0.3,0.1-0.4-0.1-0.4-0.4
			c-2.9-0.8-5.7-2.9-6.6-6.3c-0.1,0-0.3,0-0.4,0c0.1-1.9,1.3-2.6,3.1-2.7c0,0.1,0,0.3,0,0.4c0.7,0.5,1.5,0.8,1.6,2
			c-0.6,0-1.3,0-1.9,0c-0.2,0.3-0.3,0.7-0.8,0.8c-0.2,2.4,0.9,3.6,3.1,3.5C146.9,166.4,148.3,165.3,149,163.8z M147.5,160.3
			c-0.1,1.1,1.1,2.8,0,3.5c-0.5,1.6-3,1.9-4.7,1.2c-0.1-1-0.1-2,1.2-1.6c3.2-0.1,0.7-4.1-0.8-4.3c-2.2-0.3-3.3,0.4-3.9,1.6
			c-0.6,0.6-0.6,2.6,0,3.1c1.2,3.3,3.7,5.4,7.4,6.2c0.7,0.1,1.3,0.3,1.6,0.8c0.8,0,1.6,0,2.3,0c0.1-0.5,0.7-0.3,1.2-0.4
			c0.8,0,1.6,0,2.3,0c0.5,1.2,2.8,2.6,1.9,3.9c0,0.1,0,0.3,0,0.4c-4.2,0.1-7.5-0.6-9.3-2.7c-4.3-1.9-7.5-5-9.3-9.4
			c-1-3.2,2.5-7,6.2-5.5C145.6,157.5,146.4,159,147.5,160.3z M138.5,148.6c1.3,0.9-0.8,5.5-1.9,5.9c-1.7,0.5-3.8,0.1-4.3-2.7
			c1-0.9,1.4,1.2,3.1,0.8c2.1-1,1.1-5-0.4-5.9c-5.5-0.9-6.3,4.6-5,8.2c0.5,2,1.6,3.3,2.3,5.1c0.3,0.1,0.4-0.2,0.4-0.4
			c-0.2-0.7-0.8-1-0.8-2c-1.1-0.7-0.9-2.8-1.6-3.9c-1.2-4.2,2.7-7.8,5-4.7c1.1,0.5-0.1,1.9-0.4,2.3c-1.4,0.1-1.3-1.3-2.3-1.6
			c-2.4,1.4-0.7,5.3,1.2,5.9c2.5,0.3,3.9-0.5,4.7-1.9c0.3-0.3,0.2-1.1,0.8-1.2c-0.1-1,0.6-1.2,0.8-2c1.3,0.7,1.9,2,2.7,3.1
			c0.6,0.5,1,1.3,1.2,2.3c-3.9-0.4-6.1,0.9-7.4,3.1c0.3,1.5-0.7,1.7-0.4,3.1c-1.9,0-2.6-1.1-3.1-2.3c-0.6,0.1,0.3,0.7-0.4,0.8
			c0.7,1.1,1.5,2.1,2.7,2.7c0.9,0.6,1.7,1.4,2.3,2.3c0.2,1,1.2,1.2,1.2,2.3c-3.1-2.6-6.7-4.8-8.6-8.6c-0.5-0.2-1-1.6-1.6-2.7
			c-0.7-1.5-1.9-3.6-1.6-6.6s3.2-6.8,7-5.5C136.8,144.9,137.8,146.6,138.5,148.6z M130.8,139.6c0-1.6,0.8-0.6,1.6,0s1.8,2.3,2.3,3.5
			c-0.2,0-0.3,0.1-0.4,0c-0.5,0.1-1,0.1-1.5,0.2l0,0c-0.5,0.1-0.9,0.2-1.3,0.3h-0.1c-0.4,0.1-0.8,0.3-1.1,0.4
			c-0.1,0-0.1,0.1-0.1,0.1c-0.3,0.2-0.6,0.3-0.9,0.5c-0.1,0.1-0.1,0.1-0.2,0.2c-0.2,0.2-0.5,0.4-0.7,0.6c-0.1,0.1-0.2,0.2-0.3,0.3
			c-0.2,0.2-0.3,0.4-0.5,0.6c-0.1,0.2-0.2,0.4-0.3,0.6c-0.1,0.2-0.2,0.3-0.3,0.5c-0.2,0.4-0.3,0.9-0.4,1.3c-1.3-0.2-1.7-2.6-2.3-4.7
			c-0.6-1.9-1.6-3.9-1.2-5.5s2.6-3.8,4.3-1.6c0,1.3-2.2,0.4-2.7,1.2c0,0.3,0,0.5,0,0.8c0.4,2.7,4.7,3,5.8,0.8
			C130.3,139.6,130.5,139.6,130.8,139.6z M128.8,140c0.2,0.8-1.8,1.3-1.9,0.4c-0.8,0.1-1.2-0.3-1.2-1.2c1,0,2.3,0.2,2.3-0.8
			c0.5-6.2-8-2.1-5.4,2.7c0.1,5.1,3.1,7.3,3.9,11.7c-1.8-2-3.2-4.4-3.9-7.4c-1.2-2.1-2.6-5.9-1.6-9c0.6-2.3,2.1-3.6,5-3.5
			c0.3-0.1,0.4,0.2,0.4,0.4C129.2,133.4,131.4,138.1,128.8,140z M123.8,152.5c-1.1-0.3-1.9-1-1.6-2.7
			C123.2,150.2,123.5,151.3,123.8,152.5z M126.5,132.1c0,0-0.7,0-0.8,0c-2.3-0.4-3.2,0.7-4.3,1.6c-0.9,0.6-0.8,2.1-1.9,2.3
			c0-1,0-2.1,0-3.1s0.2-1.9,0.8-2.3c0.7-0.9,1.2-1.8,2.3-2C124.3,128.5,126.5,130.9,126.5,132.1z M117.6,124.3
			c0.1-1.2-0.3-2.9,0.4-3.5c1.2,1.1,3.6,2.7,2.7,4.7c-0.1,0-0.3,0-0.4,0c-0.8,0.5-1.1,1.5-2.3,1.6
			C118.3,125.7,117.4,125.6,117.6,124.3z M119.1,128.2c0.1-1.5,2.6-2.1,3.9-1.2c-0.1,0.6-1.2,0.1-1.2,0.8c-0.1,0-0.3,0-0.4,0
			c0.1,0.3-0.2,0.4-0.4,0.4c-1.1-0.5-2.1,4.8-2.3,2.3C118,130.5,118.8,128.6,119.1,128.2z M120.7,144.3c-0.1,0.7,0.5,0.8,0.4,1.6
			c0.6,0.5,0.6,2.2,0,2.7c0.1,1.1,0,2.1-1.2,2c0.5-0.5,0.4-1.7,0.4-2.7c-0.6-0.8-1.4-1.5-1.9-2.3C119,144.9,119.3,144.1,120.7,144.3
			z M119.1,157.9c0.1,0.6-0.4,0.7-0.4,1.2c-0.8-0.5-1.3-1.3-1.6-2.3c0.7-0.3,1-1.1,2.3-0.8c0,0.5,0,1,0,1.6
			C119.6,157.9,119.3,157.9,119.1,157.9z M116.8,146.6c1-0.1,1.2,0.6,1.9,0.8C119.8,154.1,111.8,149.1,116.8,146.6z M111.3,148.2
			c0.3-0.9,1.6-1,2.7-1.2c-0.5,2.8,0.9,3.6,1.2,5.5c-2.2,0-2.5-2-3.5-3.1C111.4,149.3,110.5,148,111.3,148.2z M109,148.9
			c1.3-0.2,1.2,1.4,1.9,2.3c0.3,0.4,1.4,1.2,1.9,1.9c0.2,0.3,0.1,0.9,0.4,1.2c0.1,0.2,0.7,0.2,0.8,0.4c0.4,0.5,0.4,1.4,0.8,1.9
			c0.2,0.3,0.6,0.4,0.8,0.8c0.6,1,2,2.5,2.7,3.9c2-0.5,1.8-3.1,2.3-5.1c1.5-0.1,2,0.8,3.1,1.2c0.5,1.1-0.4,2.2-0.8,3.5
			c-0.7,2.4-0.5,3.4-2.7,4.3c-1.8,0.7-3.2,0.6-4.3-0.8c-0.3-0.3-0.4-1.5-0.8-2c-0.4-0.6-1.2-0.7-1.6-1.2c-0.4-0.6,0-1-0.4-1.6
			c-0.9-1.3-1.9-2.1-2.7-3.1c-0.3-0.3-0.1-0.9-0.4-1.2c-0.5-0.5-1.3-1.1-1.9-1.9c-2.7,1.3-3.1,5-5.1,7c-0.9-0.5-2.2-0.6-3.1-1.2
			c0.7-1,1.1-2.5,1.9-3.9c0.1-0.2,0.7-0.3,0.8-0.4c0.4-0.9,0.8-2,1.6-3.1C105.6,150,106.2,149.5,109,148.9z M100.1,151.3
			c0-0.4,0.5-0.3,0.8-0.4c0.8,0,1.6,0,2.3,0c0.1,1-0.6,1.2-0.8,2c0.1,0.3-0.2,0.4-0.4,0.4c-1.5,1.7-1.9,4.6-4.3,5.5
			c-0.9-0.9,0.7-1.3,0.4-2.7c0-0.9,0-1.8,0-2.7c-0.5-0.3-0.7-0.8-0.8-1.6C98.6,151.9,98.7,151,100.1,151.3z M97,154.4
			c0.6,2.5-2.5,4.4-4.3,2C91.9,151.7,96.4,152.1,97,154.4z M95,163c-0.1,2-1.5,2.6-2.3,3.9c-1.7-0.4-1.6-2.6-2.7-3.5
			C90.3,161.6,94.1,162.1,95,163z M91.9,152.5c0,1.3-0.7,1.9-0.4,3.5c0,0.5,0,1,0,1.6c-1.7,0.7-4,1.3-4.7-0.8
			c-0.9-1.1-1.5-2.4-1.9-3.9C86.7,152.1,89.5,152.6,91.9,152.5z M79.8,152.9c0.9,0,1.8,0,2.7,0c4.1,4.6,5.6,11.8,9.7,16.4
			c2.3-0.9,2.4-4.1,4.7-5.1c1.2,0.1,1.8,0.8,2.7,1.2c-0.8,2.2-1.9,4.1-3.1,5.9c-2,0.6-4.8,0.4-7.4,0.4c-0.8-1.6-2.1-3-3.1-4.7
			c-0.5-0.8-0.7-1.9-1.2-2.7c-0.4-0.7-1.2-1.3-1.6-2c-0.8-1.6-0.7-3.5-2.3-4.7c-1.6-0.3-2,1.5-2.7,2c-0.1,0.1-0.5-0.5-0.8-0.4
			c-0.2,0.1-1,2-1.6,1.2c-1.3,0.1-1.1-1.2-1.9-1.6c0.2-1.6,1.7-2.3,2.7-3.1c0.3-0.3,0.3-0.5,0.8-0.8
			C78.4,154.4,79.3,154.1,79.8,152.9z M71.7,153.6c0.5-0.5,0.2-1.8,0.8-2.3c1.4,0.2,2.9,0.2,3.9,0.8c0.6,0,1.1-0.1,1.2,0.4
			c-0.3,1.1-1.5,1.6-2.3,2.3s-1.3,1.8-2.3,2.3c-0.8-0.2-1.3-0.8-1.9-1.2C70.8,154.8,71.8,154.8,71.7,153.6z M67.8,150.9
			c2.7-0.7,3.2,1.8,2.3,3.5C67.6,155.7,66.1,152.7,67.8,150.9z M68.2,160.7c0.1,0.3-0.2,0.4-0.4,0.4c-0.9,1.1-1.7,2.5-3.5,2.7
			c-0.3-0.3-0.4-0.9-0.4-1.6c-0.1-0.3-0.4-0.4-0.4-0.8c0.1-0.9,0.5-1.6,0.8-2.3C66.3,158.9,67.6,159.4,68.2,160.7z M62,148.9
			c1.6,0.2,3,0.6,4.3,1.2c0.1,1.7-1.2,1.9-0.8,3.9c-1.1-0.1-1.2,0.9-2.3,0.8C62.2,153.5,61.5,150.4,62,148.9z M55.4,147
			c1.9,0.1,3.3,0.8,4.7,1.6c0.7,1.9,0.7,3.8,1.2,5.9c0.4,1.7,1.4,3.7,1.6,5.5c0,0.7-0.5,0.8-0.4,1.6c0.3,1.7,0.6,3.6,1.6,5.1
			c1.7-1.4,3.4-2.8,5.1-4.3c1,0.3,1.5,1.1,2.3,1.6c-0.1,1.2-1.6,2.1-2.7,3.1c-1,0.9-2.1,2.1-3.1,2.3c-1.8,0.4-3.4-0.8-5.4-1.2
			c-1.5-5.7-1.6-10.6-3.1-16.4c-1.8-0.2-1.9,1.5-3.5,1.6c-0.1-1.3-0.9-1.8-0.8-2.7C52.8,148.9,54.8,148.4,55.4,147z M56.9,127.1
			c-0.6,2.2-1.1,4.5-1.6,6.6c-0.4,2.1-0.4,4.5-1.9,6.2c-1.5-0.6-0.1-2.3,0-3.1c1.3-8.2,3.8-16.5,7-23c0.4,0,0.3,0.5,0.4,0.8
			C60.2,118.9,58.1,122.8,56.9,127.1z M65.5,108.3c-2-0.4-2.4-2.3-2.3-4.7c1.6,0.2,0.2,3.5,1.9,3.5c1.9,0.6,0.4-2.2,1.9-2
			C67.3,107.1,66.5,107.8,65.5,108.3z M67.8,107.9c0-1-0.1-2.2,0.4-2.7c0.7,0.5,1.5,0.8,1.6,2C69,107.3,69,108.3,67.8,107.9z
			 M61.6,97c5.1-0.7,10.3,0.8,9.7,7c-2.1-0.1-2.4-2-3.9-2.7c-1.2,0-3.1-1.2-3.5,0.4c3.1,0.5,6.1,1.2,6.6,4.3c-2.4-1.4-4-3.5-7.8-3.5
			C62,100.9,60.9,98.8,61.6,97z M61.2,88c0.4,2.2-1.2,2.5-0.8,4.7c0,1.6,0,3.1,0,4.7c-0.4,1.6,1.3,3.1,0.4,3.9
			c0.1,0.8-1.4,0.2-1.9,0.4c0.5,1.6,3.5,0.6,3.1,3.1c0.1,2.3-1.8,4-2.7,5.9c-4.1,7.9-6.8,18.2-8.6,28.9c0.2,2-0.3,3.3-1.6,3.9
			c-0.5,0.8-1.1,1.5-1.9,1.9c-2.3,1.6-4.1,3.7-6.2,5.5c-0.2,0.4-0.3,0.7-0.8,0.8c-1.9-0.2-1.1-2.9-1.2-4.3
			c-0.2-5.1,0.4-9.4,1.2-13.7c0.2-1.2,0.1-2.8,0.4-3.9c0-0.2,0.7-1,0.8-1.2c0.7-3.2,1.2-6.3,2.3-9.4c2.1-5.8,4.4-11.5,7.4-16.8
			c1.2-2.1,2.7-5.4,4.3-7.8c0.2-0.3,0.7-0.6,0.8-0.8c0.9-1.6,0.8-2,1.9-3.5C58.7,89.5,59.7,87.6,61.2,88z"/>
		<path fill="#171717" d="M96.6,84.5c0.3,0.4,0.5,1.5,0.8,2c0.4,0.5,0.8,0.7,1.2,1.2c0.7,0.9,1.4,1.9,1.9,2.7
			c0.2,0.3,0.7,0.2,0.8,0.8c0-0.2-0.6,0.2-0.4,0.4c0.1,0,0.4-0.1,0.4,0c0.6,1,1.2,1.6,1.9,2.7c0.3,0.4,0.5,1.1,0.8,1.6
			s1.2,0.7,1.6,1.2s0.4,1.1,0.8,1.6c11.3,15.4,23.5,31.7,35.4,47.3c1.8,2.3,3.9,4.4,5.4,7c0.6,1,1.2,1.7,1.9,2.7
			c0.9,1.3,2,2.8,3.1,4.3c0.4,0.5,0.5,1.1,0.8,1.6s0.8,0.7,1.2,1.2s0.4,1.4,0.8,2c0.6,0.8,1.6,1.6,2.4,2.7v-7.4
			c-0.5-0.4-0.8-1.4-0.8-1.5c-1.4-1.5-2.5-3-3.9-4.7c-0.4-0.5-0.4-1.1-0.8-1.6c-0.6-0.7-1.1-1.1-1.9-2.3c-1-1.5-2.2-3.2-3.5-5.1
			c-1.8-2.6-4.5-5.7-6.6-8.6c-0.3-0.5-0.4-1.1-0.8-1.6c-0.5-0.7-1.2-1.3-1.9-2.3c-0.1-0.1-0.7-0.3-0.8-0.4c-0.8-1.8-2.5-3.7-3.9-5.5
			c-0.4-0.5-0.4-1.1-0.8-1.6c-0.3-0.3-0.9-0.5-1.2-0.8c-0.3-0.4-0.5-1.1-0.8-1.6c-0.1-0.1-0.7-0.3-0.8-0.4c-0.1-0.2,0.1-0.6,0-0.8
			c-0.7-0.9-1.7-1.5-2.3-2.3c-0.3-0.4-0.5-1.1-0.8-1.6c-1.2-1.7-3.2-3.9-4.7-5.9c-1.2-1.6-2.2-3.4-3.5-5.1c-1.8-2.5-3.8-4.8-5.8-7.4
			c-0.3-0.5-0.4-1.1-0.8-1.6c-0.6-0.8-1.1-1.1-1.9-2.3c-0.7-1-1.9-2.3-2.7-3.5c-0.3-0.4-0.5-1.1-0.8-1.6c-1.5-2.2-3.7-4.8-5.4-7.4
			c-0.1-0.1-0.7-0.3-0.8-0.4c-0.1-0.3-0.3-0.6-0.4-0.9h-5c0.6,0.6,1,1.5,1.5,2.1C95.8,83.8,96.3,84.1,96.6,84.5z"/>
		<path fill="#171717" d="M136.6,104.4c0.1,0,0.1,0,0.2,0l0,0C136.7,104.4,136.7,104.4,136.6,104.4z"/>
		<path fill="#171717" d="M106.3,88.8c0.6,0.7,1.2,1.1,1.9,2.3c0.4,0.8,0.9,1.7,1.6,2.7c0.1,0.1,0.7,0.3,0.8,0.4
			c0.7,1.6,2.6,3.8,3.9,5.5c1.9,2.5,3.8,4.8,5.8,7.4c0.4,0.5,0.4,1.1,0.8,1.6c0.3,0.3,0.9,0.5,1.2,0.8c1.2,1.6,2.2,3.4,3.5,5.1
			c1.9,2.4,3.9,4.8,5.8,7.4c0.3,0.5,0.4,1.1,0.8,1.6c0.6,0.7,1.2,1.2,1.9,2.3c2.3,3.4,5.5,7.3,8.2,10.9c0.4,0.5,0.4,1.1,0.8,1.6
			c0.6,0.7,1.1,1.2,1.9,2.3c0.7,1,1.8,2.2,2.7,3.5c0.3,0.4,0.5,1.2,0.8,1.6c0.7,1,1.7,2.2,2.7,3.5c2,2.6,4.2,5.1,5.9,8V155
			c-2-2.5-3.9-5.1-5.9-7.6c-3.2-3-4.8-7.4-7.8-10.5c0-0.1,0-0.3,0-0.4c-1.9-1.4-2.9-3.6-4.3-5.5c-1.4-2.9-4-4.6-5.1-7.8
			c4.5-6.3,13.1-10.3,23-8.3v-3.3c-1.1-0.6-1.9-1.9-2.8-2.8c-2-2.2-4-4.7-5.8-7.4c-0.5-0.8-0.7-1.6-1.2-2.3c-0.4-0.6-1.2-1-1.5-1.6
			c-0.4-0.7-0.7-1.6-1.2-2.3c-0.8-1.3-1.5-2.6-2.3-4.3c-0.6-1.4-1.4-2.6-2.3-4.3c-0.7-1.3-1.9-3.2-2.4-5.2h-1.2
			c0.4,0.6,0.9,1.2,0.9,2.1c0.4,0.3,0.6,0.7,0.8,1.2c0.3,1,1.1,1.5,1.2,2.7c-0.5,0.5-1.7,0.4-2.7,0.4c-1.7,0.5-4.2,0.8-6.2,1.6
			c-1.3,0.5-2.6,2-3.9,1.2c-0.2-0.8,0.3-1,0.4-1.6c0-2.1,0-4.2,0-6.2c-0.4,0-0.3-0.5-0.4-0.8c0-0.2,0-0.4,0-0.6h-3
			c1,2.4,1.4,6,0.7,8.8c0,0.2,0.1,0.7,0,0.8c-0.1,0.1-0.7-0.1-0.8,0c-0.3,0.5,0.1,2.6-1.2,2.3c0.1-2.6,1.3-4.7,0.4-7.8
			c-0.4-1.5-1.5-2.8-2.2-4.1H119c0.9,1.4,2.5,3.1,2.8,4.9s0.7,4.9-1.5,5.5c-1-3.1-4.5-4.7-3.1-9c-0.4-1-1.7-1.1-2.8-1.3h-3.1
			c2.5,3.2,5,6.3,7.5,9.5c0,1,0.7,1.4,1.2,2c-0.3,0.8-1.2-1.1-2.7-0.4c-0.6,0.3-0.6,1.3-0.8,2c-3.4,0.3-4.9-2.1-5-3.9
			c-0.1-0.9,0.1-1.5,0.4-2c1.7,0.2,2.7-0.1,2.3-1.9c0-0.1,0-0.3,0-0.4c-1.1-1.5-1.3-2.3-2.7-2.3c-1.3,0-1.3,2.3-3.1,1.6
			c-1.1-0.8-2.2-1.7-2.7-3.1c0-0.3,0-0.6,0-0.9h-4.4c1.4,1.5,3,4.1,4.4,6C105.8,87.6,105.9,88.3,106.3,88.8z M137.4,116.5
			c-2.2-0.6-1.4,1.7-2.7,1.9c-2.8-0.5-4.3-2.2-4.3-5.5c0.4-1.2,3.4,0.1,2.7-2.3c-0.4-1.3-1.1-2.3-2.7-2.3c-0.7,0.8-0.9,2-1.6,2.7
			c-2.7-0.5-4.7-1.8-4.3-5.5c0.4-1.1,2.8-0.3,3.1-1.6c0-0.7-0.5-0.8-0.4-1.6c1.4,0.8,2.1,2.3,3.1,3.5c0.3-0.1,0.4,0.1,0.4,0.4
			c2.4,3.7,5.8,6.4,7.8,10.5C137.9,117,137.9,116.5,137.4,116.5z M142.4,115.7c-0.9,0-1.1,0.7-2.3,0.4c-0.5-0.5-0.4-1.7-0.4-2.7
			c-1.7-1.2-4.2-1.5-4.7-3.9c2.9-0.3,6.5,2.2,7.4,4.7C142.7,114.8,142.7,115.1,142.4,115.7z M140.9,110.7c-1.8-1.6-3.7-2.7-7-2.7
			c0.8-1,3.3-1.3,5-1.2c3.7,0.3,7.3,3,7.4,7C143.3,115.4,142.4,112,140.9,110.7z M140.5,93.1c-0.3-1.2,0.4-1.4,0.4-2.3
			c1.5,1.9,2.6,4.2,3.9,6.2c1.1,1.8,2.7,3,3.1,5.5c0.7,0.4,1.3,1.4,1.9,2.4c0.2,0.4,0.7,0.9,1.2,1.6c0.2,0.4,0.7,0.9,1.2,1.6
			s2.3,1.9,3.1,3.1c0.5,0.7,2.2,2.4-0.4,2.3c-0.8,0-1.6,0-2.3,0c-1.4-0.2-3.7,0.6-3.9-0.8c-0.1-0.3-0.2-0.6-0.3-1
			c0-0.1-0.1-0.3-0.2-0.4c-0.1-0.2-0.1-0.3-0.2-0.5c-0.1-0.2-0.2-0.3-0.3-0.5c-0.1-0.1-0.1-0.2-0.2-0.3c-0.1-0.2-0.2-0.4-0.3-0.5
			s-0.1-0.2-0.1-0.2c-0.1-0.2-0.3-0.4-0.4-0.5c0-0.1-0.1-0.1-0.1-0.2c-0.2-0.2-0.3-0.4-0.5-0.5L146,108c-0.2-0.2-0.4-0.4-0.6-0.5
			c0,0-0.1,0-0.1-0.1c-0.2-0.2-0.4-0.3-0.7-0.5l0,0c-0.2-0.2-0.5-0.3-0.7-0.5l0,0c-0.3-0.1-0.5-0.3-0.8-0.4l0,0
			c-1.7-0.8-3.8-1.2-6.2-1.4c-0.1,0-0.1,0-0.2,0c-0.7-0.7,1.2-2.1,1.2-3.5C139.2,98.8,139.4,95.5,140.5,93.1z M138.9,90
			c-1.3,6.1-3.3,11.6-6.6,15.6c-2-0.8-3.1-2.6-3.9-4.7c4.7-0.1,6.6-3,7-7.4c-0.1-0.3-0.4-0.4-0.4-0.8c-3-0.9-8.1,1.7-8.2,6.2
			c-1.3-0.7-2.3-1.8-2.7-3.5C128.1,92.6,132.1,89.9,138.9,90z M128.8,98.6c0.1-2.6,2.8-4.4,4.7-3.9
			C133.3,97.3,131.8,98.7,128.8,98.6z M117.9,98.2c0-0.4,0-0.8,0-1.2c0.5-0.6,2.2-0.1,2.7-0.8c0-0.1,0-0.3,0-0.4
			c0-0.6,0.2-1.5-0.4-1.6c1.5-0.8,2.4,2.3,3.5,3.1c0.3-0.1,0.4,0.2,0.4,0.4c0.8,1,1.2,2.4,2.3,3.1c-0.7,1.3-1-1-2.3-0.4
			c-0.4,0.9-0.6,2-1.2,2.7c-3.3-0.2-4.8-2.2-5.4-5.1C117.7,98.2,117.8,98.2,117.9,98.2z"/>
		<path fill="#171717" d="M134.3,143.1c0.1,0,0.2,0,0.4,0C134.5,143.1,134.4,143.1,134.3,143.1L134.3,143.1z"/>
		<path fill="#F7CC00" d="M64.3,134.1c0.1,0.3-0.2,0.4-0.4,0.4c-0.4,0.7,1.2,1.3,0,1.6c-0.4-1-0.3-2.5-1.9-2.3c0,0.1,0,0.3,0,0.4
			c-1,1.4-3,2.8-4.5,4.1c-0.1,0.1-0.1,0.1-0.2,0.2c-0.9,0.8-1.6,1.5-1.9,2.3c0-0.1,0.6,0.4,0,0.4c3.2,1.9,7.9,2.3,11.3,3.9
			c0.1-0.6,0.9-0.4,1.6-0.4c0-1.2-1-1.3-1.2-2.3c0.1-1-0.6-1.2-0.8-1.9c-0.9-0.8-2.6-2.8-1.9-3.9c0-0.2,0.1-0.5,0.4-0.4
			c-0.1,1.4,1.9,2.8,1.2,3.5c0,0.2,0.1,0.5,0.4,0.4c1,0.7,1.1,2.3,2.3,2.7c0.3,0.1,0.4,0.4,0.8,0.4
			C68.1,139.7,65.9,137.2,64.3,134.1z"/>
		<path fill="#F7CC00" d="M114.1,85.7c0.1,0-0.1,0.3,0,0.4c0,0.1,0,0.3,0,0.4c0.6,0.1,0.4,0.9,0.4,1.6c-1,0.9-2.9,0.7-3.1,2.3
			c0.1,1.8,1.7,4.2,5,3.9c0.2-0.7,0.2-1.6,0.8-2c1.5-0.7,2.4,1.2,2.7,0.4c-0.5-0.6-1.1-1-1.2-2C116.9,89.5,115.4,86.7,114.1,85.7z"
			/>
		<path fill="#F7CC00" d="M105.9,82.2c-0.1,0-0.3,0-0.4,0c0.6,1.4,1.6,2.3,2.7,3.1c0.9-0.5,2-0.8,2.3-2c0.9-0.1,1.5,0.1,1.9,0.4
			c-0.4-1-1.1-1.7-1.7-2.5h-4.9C105.9,81.6,106,81.9,105.9,82.2z"/>
		<path fill="#F7CC00" d="M56.1,93.9c-0.1,0.2-0.6,0.5-0.8,0.8c-1.6,2.4-3.1,5.7-4.3,7.8c-3,5.3-5.3,11-7.4,16.8
			c-1.1,3.1-1.6,6.2-2.3,9.4c0,0.1-0.7,1-0.8,1.2c-0.3,1.2-0.2,2.7-0.4,3.9c-0.7,4.3-1.4,8.6-1.2,13.7c0.1,1.4-0.7,4.1,1.2,4.3
			c0.4-0.1,0.6-0.4,0.8-0.8c1.5-1.5,2.6-3.4,4.7-4.3c0.5-0.8,1.1-1.5,1.9-2c1.2-1.6,0.3,0.1-0.4,0.8c0.8-0.5,1.5-1.1,1.9-1.9
			c1.1-0.7,0.9-2.7,1.6-3.9c1.7-10.7,4.5-21,8.6-28.9c0.9-1.8,2.8-3.5,2.7-5.9c-0.2-2.1-3.4-1.3-3.5-3.5c0.8,0,1.6,0,2.3,0
			c0.9-0.8-0.8-2.3-0.4-3.9c-0.6-0.7-0.6-4,0-4.7c-0.4-2.2,1.2-2.5,0.8-4.7c-1.4-0.4-2.5,1.5-3.1,2.3C56.9,91.8,57,92.3,56.1,93.9z"
			/>
		<path fill="none" d="M136.8,104.4c-0.1,0-0.1,0-0.2,0"/>
		<path fill="#F7CC00" d="M137,103.6c0.1,0.5,0.6,0.4,1.2,0.4c1.1,0.4-0.6,0.4-1.4,0.4l0,0c2.4,0.1,4.4,0.6,6.2,1.4l0,0
			c0.3,0.1,0.6,0.3,0.8,0.4l0,0c0.3,0.1,0.5,0.3,0.7,0.5l0,0c0.2,0.2,0.5,0.3,0.7,0.5c0,0,0.1,0,0.1,0.1c0.2,0.2,0.4,0.3,0.6,0.5
			l0.1,0.1c0.2,0.2,0.3,0.4,0.5,0.5c0,0.1,0.1,0.1,0.1,0.2c0.1,0.2,0.3,0.4,0.4,0.5c0.1,0.1,0.1,0.2,0.1,0.2
			c0.1,0.2,0.2,0.4,0.3,0.5s0.1,0.2,0.2,0.3c0.1,0.2,0.2,0.3,0.3,0.5s0.1,0.3,0.2,0.5c0.1,0.1,0.1,0.2,0.2,0.4
			c0.1,0.3,0.2,0.6,0.3,1c0.6,1,3.3-0.2,3.9,0.8c0.8,0,1.6,0,2.3,0c0.1-0.3,0.3-0.5,0.8-0.4c0.1-0.8-0.6-1.7-1.2-2.3
			c-0.9-1.1-1.8-1.6-2.3-2.7c-0.1-0.1-0.7-0.3-0.8-0.4c-1.2-1.8-2.6-3.6-3.5-5.1c-0.4-2.5-2-3.7-3.1-5.5c-1.8-1.3-2.2-4.1-3.9-5.5
			c0,0.6,0.2,1.5-0.4,1.6c-1.1,2.4-1.3,5.7-2.7,7.8C138.7,101.5,137.1,102.8,137,103.6z"/>
		<path fill="#F7CC00" d="M135.8,113c-0.8-1-1.8-2-2.7-2.3c0.7,2.4-2.3,1.1-2.7,2.3c0,3.3,1.5,5,4.3,5.5c1.3-0.3,0.5-2.6,2.7-1.9
			C138.2,116,136.8,114.2,135.8,113z"/>
		<path fill="#F7CC00" d="M131.2,107.9c0.5-1-1.5-1.2-0.4-1.6c0-0.2-0.1-0.5-0.4-0.4c-1.4-0.1-1.4-3-2.7-2c-0.3,1.3-2.7,0.4-3.1,1.6
			c-0.4,3.7,1.6,4.9,4.3,5.5c0.7-0.8,0.9-2,1.6-2.7C129.1,109.3,129.8,107.5,131.2,107.9z"/>
		<path fill="#B32621" d="M139.3,131c1.4,1.9,2.4,4.1,4.3,5.5C142.1,134.7,141.1,132.4,139.3,131z"/>
		<path fill="#B32621" d="M143.6,136.8c3,3.1,4.6,7.6,7.8,10.5c-0.7-1.9-2.4-3.5-3.5-5.1C146.5,140.3,145.6,138.1,143.6,136.8z"/>
		<path fill="#F7CC00" d="M120.3,125.5c0.8-1.5-1-3.3-2.3-3.9c-0.2,0.8,0.5,2.6-0.4,2.7c-0.2,1.2,0.7,1.4,0.4,2.7
			C119.1,127,119.4,126,120.3,125.5z"/>
		<path fill="#171717" d="M72.8,136.8c-1.2,0.2-0.1-1.9-1.6-1.6c-0.3,2,2.5,3,3.9,1.9C74.7,136.8,73.8,136.8,72.8,136.8z"/>
		<path fill="#171717" d="M64.7,136.1c-0.3-0.1-0.4,0.1-0.4,0.4c0.2,1.4,1,2.1,1.6,3.1C66.5,138.8,64.6,137.4,64.7,136.1z"/>
		<path fill="#F7CC00" d="M124.5,139.2c0-0.3,0-0.5,0-0.8c0.5-0.8,2.7,0.1,2.7-1.2c-1.7-2.3-3.9,0-4.3,1.6s0.6,3.6,1.2,5.5
			c0.7,2.1,1.1,4.5,2.3,4.7c0.1-0.5,0.2-0.9,0.4-1.3c0.1-0.2,0.2-0.4,0.3-0.5c0.1-0.2,0.2-0.4,0.3-0.6c0.1-0.2,0.3-0.4,0.5-0.6
			c0.1-0.1,0.2-0.2,0.3-0.3c0.2-0.2,0.5-0.4,0.7-0.6c0.1-0.1,0.1-0.1,0.2-0.2c0.3-0.2,0.6-0.4,0.9-0.5c0.1,0,0.1-0.1,0.1-0.1
			c0.4-0.2,0.7-0.3,1.1-0.4h0.1c0.4-0.1,0.9-0.2,1.3-0.3l0,0c0.5-0.1,1-0.2,1.5-0.2l0,0c-0.5,0-0.1-0.8-0.4-1.2
			c-0.2-0.3-0.9-0.5-1.2-0.8c-0.5-0.7-0.7-2.5-1.9-1.6c-0.2,0-0.5,0.1-0.4,0.4C130.9,141.9,124.1,143.2,124.5,139.2z"/>
		<path fill="#F7CC00" d="M134.7,143.1c-0.1,0-0.2,0-0.4,0C134.4,143.1,134.5,143.1,134.7,143.1z"/>
		<path fill="#F7CC00" d="M121.1,148.6c0.6-0.5,0.6-2.2,0-2.7s-1-1.8-1.9-0.8c-0.3,1.1,0.8,0.8,0.8,1.6c0.7,1-1-1-1.6-1.2
			c0.5,0.9,1.3,1.5,1.9,2.3C120.8,147.8,120.6,148.5,121.1,148.6z"/>
		<path fill="#F7CC00" d="M137.8,147.4c-0.8-1.3-2.4-2.3-3.5-2.7c-3.8-1.3-6.7,2.4-7,5.5c-0.3,3,0.8,5.2,1.6,6.6
			c0.6,1.1,1.1,2.6,1.6,2.7c1.1,0.8,2,2.5,2.7,3.1c0.3,0.2,0.2,0.6,0.4,0.8c0.6,0.5,1.3,0.7,1.9,1.2c0.9,0.7,1.8,1.9,1.9,1.2
			c0.1,0,0.3,0,0.4,0c-0.6-0.9-1.4-1.7-2.3-2.3c0.4,0.5,0.6,0.9,0.7,1.1c0.3,0.3,0.3,0.4,0,0c-0.2-0.3-0.6-0.7-1.1-1.1
			c-0.4-0.4-1.1-0.3-1.6-0.8c-0.9-0.9-1.5-3.1-0.8-1.9c0.7-0.1-0.2-0.6,0.4-0.8c0-0.2-0.1-0.5-0.4-0.4c0,0.2-0.1,0.5-0.4,0.4
			c-1.4-1.2-2-3.2-2.7-5.1c0.1,0,0.3,0,0.4,0c-1.3-3.6-0.5-9.1,5-8.2c1.4,0.8,2.5,4.8,0.4,5.9c-1.7,0.4-2.1-1.7-3.1-0.8
			c0.5,2.8,2.6,3.3,4.3,2.7c1.1-0.4,3.2-4.9,1.9-5.9C137.8,148.5,138.1,147.9,137.8,147.4z"/>
		<path fill="#F7CC00" d="M135.4,161.8c0.9-0.4,0.3-2.3,1.2-2.7c1.3-2.2,3.4-3.6,7.4-3.1c-0.2-1-0.5-1.8-1.2-2.3
			c-1.1-0.6-1.5-1.9-2.3-2.7c-0.8,0.1-0.4,1.5-1.2,1.6c-0.5,0.1-0.4,0.9-0.8,1.2c0.6,1-2.8,3.4-4.7,1.9c-1.8-0.6-3.6-4.5-1.2-5.9
			c1.1,0.2,1,1.6,2.3,1.6c0.3-0.4,1.5-1.8,0.4-2.3c-0.6-0.5-1.3-1-2.7-0.8c-1.7,0.7-2.2,2.7-1.9,5.5c-0.1,0-0.3,0-0.4,0
			c0.7,1.2,0.5,3.2,1.6,3.9C133.3,158.8,133.4,161.3,135.4,161.8z"/>
		<path fill="#F7CC00" d="M65.5,154c-0.4-2,0.9-2.2,0.8-3.9c-1.3-0.6-2.6-1-4.3-1.2c-0.5,1.4,0.3,4.6,1.2,5.9
			C64.3,154.9,64.3,153.9,65.5,154z"/>
		<path fill="#F7CC00" d="M71.7,156.4c0.5,0,0.9,0.2,1.2,0.4c1.5-1.3,3.1-2.7,4.3-4.3c-0.5,0-1.5-0.1-0.8-0.4
			c-1-0.6-2.5-0.6-3.9-0.8c-0.5,0.5-0.2,1.8-0.8,2.3C72.7,154.4,70.7,155.2,71.7,156.4z"/>
		<path fill="#F7CC00" d="M90.7,157.5c0.5-0.2,0.1-1.5,0.8-1.6c-0.3-1.6,0.4-2.2,0.4-3.5c-2.3,0.1-5.2-0.3-7,0.4
			c0.4,1.5,1.1,2.8,1.9,3.9C87.8,157.9,89,158.1,90.7,157.5z"/>
		<path fill="#F7CC00" d="M137.4,162.6c0.9,0.6,0.8,2.1,1.9,2.3c-0.1-0.5-0.7-0.9,0-1.2c-0.6-0.6-0.6-2.6,0-3.1
			c-0.1-1.7,2.5-2.6,3.9-1.6c1.5,0.2,4,4.2,0.8,4.3c-0.1,0.3-0.3,0.5-0.8,0.4c0.2,2.3,3.7,0.8,4.3,0c1.1-0.8-0.1-2.4,0-3.5
			c-1.3-1-2.4-2.3-3.9-3.1C139.9,155.6,136.3,159.4,137.4,162.6z"/>
		<path fill="#F7CC00" d="M129.2,160.3c-0.9-1-1.7-2.2-3.9-1.9c-0.5,1.3-2,3.8-1.2,5.1c1.7-0.8,3.8-1.1,5-2.3
			C129.2,160.8,129.2,160.5,129.2,160.3z"/>
		<path fill="#F7CC00" d="M50.3,158.7c-1.4,0.2-2.1,1-2.7,1.9c-0.4,1-1.5,1.3-1.9,2.3c0.8,0.4,1.5,0.8,2.3,1.2
			c0.2-0.5,0.4-0.9,0.8-1.2c0.6-1,0.9-2.2,2.3-2.3C51.4,159.5,50,159.9,50.3,158.7z"/>
		<path fill="#F7CC00" d="M81.4,161.8c0.6-0.5,0.2-1.3-0.4-2.3c-1.7-0.3-2.2,0.7-2.7,1.6c0,0.5-0.5,0.5-0.4,1.2
			C79.3,162.3,80.4,162.2,81.4,161.8z"/>
		<path fill="#F7CC00" d="M144.8,166.5c0,0.4-0.5,0.3-0.8,0.4c0.4,1.2,2.2,1,2.7,2c0,0.2,0.1,0.5,0.4,0.4c0.4-0.5,4.6,0.8,5-0.8
			c-0.4-0.8-0.4-0.8,0.4-0.4c-1.4-1.2-1.4-3.8-3.5-4.3C148.3,165.3,146.9,166.4,144.8,166.5z"/>
		<path fill="#F7CC00" d="M141.7,163c0.4-0.1,0.6-0.4,0.8-0.8c-1.5,0.9-0.3-0.9,1.2-0.4c0-0.7-0.3-1-0.8-1.2c-0.2,0-0.4-0.3,0-0.4
			c0-0.1,0-0.3,0-0.4c-1.8,0.2-3,0.9-3.1,2.7c0.1,0,0.3,0,0.4,0C140.8,163.7,141,164.7,141.7,163z"/>
		<path fill="#F7CC00" d="M55.4,162.2c0.2,0,0.2,3.1-0.4,3.5c-0.2,0-0.5,0.1-0.4,0.4c1,0.4,2.4,1.4,2.7,1.2c0.8-0.5,0-2.2,0.8-2.3
			c-0.5-0.9-0.5-2.4-1.2-3.1C56.3,161.9,55.5,161.7,55.4,162.2z"/>
		<path fill="#F7CC00" d="M74,170.8c0.2-0.6-0.5-2,0.4-2c1.6-1.9,0.3-3.6-1.6-3.5c-1.4,0-1.9,1.5-2.7,2.3c-0.2,1-1,1.4-1.6,2
			c0.4,1,2.5,0.3,3.1,1.2c0,0.2,0.1,0.5,0.4,0.4C72,170.4,73.4,171,74,170.8z"/>
		<path fill="#F7CC00" d="M99.3,170.4c1.9,0.3,3-0.4,4.7-0.4c0.1-0.6-0.1-1.4,0.4-1.6c0-0.7,0-1.3,0-2c-0.6-0.6-2-0.3-3.1-0.4
			c-0.7,1-1.5,1.9-1.9,3.1C99.9,169.4,99.6,170.1,99.3,170.4z"/>
		<path fill="#F7CC00" d="M81.8,171.2c2.8-0.2,3.2,0.9,5-0.4c-0.6-1.6-1.6-2.9-2.3-4.3c-1.7,0.1-3.2,0.4-3.5,2c0.1,0,0.3,0,0.4,0
			C82.3,168.6,81.6,170.4,81.8,171.2z"/>
		<path fill="#F7CC00" d="M144,169.3c-0.6,0.9,1.9,2,2.7,2.7c1.9,2.2,5.2,2.9,9.3,2.7c0-0.1,0-0.3,0-0.4c-0.2-1.6-1.4-2.3-1.9-3.5
			c-0.8,0-1.6,0-2.3,0c0-0.1,0-0.3,0-0.4c-0.5,0.1-1.1-0.1-1.2,0.4c0.3,0.1,0.8,0,0.8,0.4c-1.7,0.5-6.1-0.8-3.1-0.4
			c-0.3-0.5-0.8-0.7-1.6-0.8C146.3,170.8,144.4,169.8,144,169.3z"/>
		<path fill="#F7CC00" d="M147.9,186c0.1,0,0.3,0,0.4,0c1.3-1.2,3,0.6,3.1,2c-0.3,1.4,1,2.2,0,3.1c0.8,2-2.2,3.6-4.3,3.9
			c0,0.2,0.1,0.5,0.4,0.4c1.6,0.4,2.5-1,3.5,0c-0.1,0.3,0,0.8-0.4,0.8c0.5,1.5,0.9,3,1.5,4.3c0.4,1.5-1,2.4,0.4,2.7
			c0.6-0.6,0.7-1.6,1.6-1.9c0.5,0.5,1.4,0.5,1.9,0c-0.3-1.7-2.8-1.1-3.1-2.7c-1-2.3,0-5.6,0-8.2c-0.3-1.3,1.5-0.5,1.2-1.9l0,0
			c0,0,0,0-0.1,0c-2-0.6-2.4-3.2-5.8-3.1C148,185.3,147.2,185,147.9,186z"/>
		<path fill="#F7CC00" d="M143.6,186c0,0.5-1.1,0.5-1.2,0c-0.2,0-0.5,0.1-0.4,0.4c-2.8,1.3-5.8-0.7-6.2-3.1c0.1-1.3-0.3-3.2,0.4-3.9
			c-0.9-0.6,1.2-1.7,1.5-2.3c1.2,0,2.3,0,3.5,0c-0.1,0.7,1.8,1.2,0.8,1.6c0.4,0.8,1.3,1.9,0.4,2.7c1,0.7-0.7,1.9-1.5,2
			c-0.9,0-1-0.9-1.9-0.8c-0.2-1.3,0.2-2.2,0.4-3.1c-0.8-0.1-1.2,0.3-1.2,1.2c0,0.2-0.1,0.5-0.4,0.4c-0.7,0.9,0.5,3.1,1.9,3.1
			c1.4-0.5,3-0.9,3.9-2c0.2,0,0.5-0.1,0.4-0.4c-1-0.8,0.4-2.4,1.2-2.7c-2.2-0.5-3.2-2.9-5-3.1c-1.8-0.2-3.2,0.9-5.1,2.3
			c-2.3,3.1-0.3,7.6,2.3,9c-0.2-0.3-0.3-0.6-0.4-0.7c-0.4-0.3-0.3-0.5,0,0c0.1,0.1,0.3,0.2,0.4,0.3c0.3,0.2,1.2,0.3,1.6,0.8
			c0.6,0.8,0.4,2.4,1.6,1.2c0.4-0.4,0.8-0.8,1.2-1.2C142,187,144.7,186.8,143.6,186z"/>
		<path fill="#B32621" d="M52.2,182.9c-0.9-0.8-2.5-0.9-3.9-1.2C49.3,182.5,50.8,182.7,52.2,182.9z"/>
		<path fill="#F7CC00" d="M55.4,180.6c-1.5,0.6-4.4-0.8-5.8-1.6c-0.7-0.7-2.3-0.5-3.1-1.2c-0.5,0.9-2.1-0.5-3.1-0.4
			c-0.2,0.6,0.5,2-0.4,2c0,0.9,0,1.8,0,2.7c1.2,1.1,1.2-1.4,2.7-1.2c0.9,0.3,1.5,0.8,2.7,0.8c1.4,0.3,3,0.4,3.9,1.2
			c2.1,0.8,4.6,1.1,7,1.6c-0.7,2-1.2,4.2-2.3,5.9c0.6,1.1-0.9,3.6-1.6,4.7c-1.8,3.7-2.8,8.2-4.3,12.1c0.5,1.1,0.5,2.6,1.9,2.7
			c1.5-0.3,0.7-2.9,1.9-3.5c2.4-8.1,5.1-15.7,8.6-22.7c-2-1.5-5.8-1.2-7.8-2.7C55.7,180.7,55.7,180.5,55.4,180.6z"/>
		<path fill="#F7CC00" d="M96.6,215.7c-0.8-10.9,2.4-21.3,5.8-29.3c-1.1-0.7,0.9-1.4,0.4-2.7c-0.5-0.1-1.1,0.1-1.2-0.4
			c-1.7,0.9-4.8,0.3-6.6,1.2c1.2,0.5-4.7,0.9-3.9,0c-0.2,0-0.5,0.1-0.4,0.4c-2.9,0.7-8.4,0.6-11.3,0c-0.9,0.3-1.2,1.2-1.6,2
			c-0.1,0-0.3,0-0.4,0c-1.1,1-1,3.1-1.9,4.3c0.3,1.8-1.4,5.1-2.3,7c-1.1,1.9-1.2,4.8-2.3,6.6c1,1.1-0.4,3.2-0.8,4.3
			c-0.2,0-0.5,0.1-0.4,0.4c0.9,1.2-0.4,1.5,0,2.3c0.3,0.6,1.7,0.4,1.6,1.2c2.1-0.9,2.2-4,2.7-5.9c0.9-3.7,2-7.2,3.1-10.2
			c0.2-0.6,0.2-1.4,0.4-2c0.1-0.1,0.7-0.2,0.8-0.4c0.2-0.3-0.1-0.8,0-1.2c0.4-0.9,1.1-1.8,1.6-2.7c0.5-1.2,0.2-2.6,1.6-3.1
			c1.4-0.2,3.2,1.2,4.3,0c1.7-0.7,6.1-0.7,7.8,0c1.2,0.1,2.2-0.9,3.1,0c-2.5,5.8-3.6,13-4.7,20.3c0.9,3.4,0.1,8.5,0.4,12.5
			c-0.2,3.1,0.5,5.2,0.8,7.4c0.2,1.7,0.1,3.3,0.4,4.7c0.1,0.3,0.1,0.5,0.2,0.8H99c-1.2-3.8-1.5-8.5-2.5-12.5
			C95.9,220,95.9,216.5,96.6,215.7z"/>
		<path fill="#B32621" d="M16.5,194.2c-1.3-1.6-2.7-3-4.3-4.3C13.5,191.5,14.9,193,16.5,194.2z"/>
		<path fill="#F7CC00" d="M15.3,197c0.7,0.7,0.4,0.7,0.8,1.6c0.3,0.6,3,2.2,1.6,2.3c0,0.2,0.1,0.5,0.4,0.4c2.5,3.3,4.5,7.2,6.2,11.3
			c-0.1,0-0.3,0-0.4,0c0.2,0.5,0.4,0.9,0.8,1.2c0.6,1.4,2.2,2.9,3.1,0.8c-0.6-3.6-2.3-6.9-3.9-9.8c-1.8-3.2-4.3-7.3-6.6-9.4
			c-2.1-1.8-4-3.7-5.7-5.7v3.3c0.4,0.3,0.8,0.5,1.1,0.8C13.4,194.7,14.7,196.4,15.3,197z"/>
		<path fill="#F7CC00" d="M145.5,192.3c-1-1.3,0.1-3.1,1.6-3.1c1.3,0,0.6,2,1.9,1.9c0.6-0.1,1.9-1.5,0.8-1.9
			c-1.8-2.6-6.7-1.3-5.8,3.1c-0.1,0-0.3,0-0.4,0c0,0.2,0.1,0.5,0.4,0.4c1,0.8,1.6,2.1,3.5,2C147,193.9,144.8,192.9,145.5,192.3z"/>
		<path fill="#171717" d="M105.1,201.7c-1.2,0.8-0.8,3,0,3.9c2.1,0.1,2.9-1,2.7-3.1C107,202.1,106.5,201.4,105.1,201.7z"/>
		<path fill="#F7CC00" d="M21.9,212.6c-0.5,0.9-1.3,1.5-1.9,2.3c0.7,1.8,0.6,4.3,1.9,5.5c0.9-1,2.5-1.4,2.7-3.1
			C24.8,216.5,23.1,212.1,21.9,212.6z"/>
		<path fill="#F7CC00" d="M35.5,227.1c-0.1-0.1-0.6-0.2,0-0.4c-1.1-1.4-2.1-2.8-3.1-4.3c-1.7-1.3-2.4-3.6-4.3-4.7
			c-1.3,0.1-1.7,1.2-2.3,2c-0.1,1,2,1.9,1.2,2.3c1.6,2.4,3.7,4.7,5.1,7.4c0.4,0.7,0.5,1.6,0.8,2.3c0.2,0.5,0.5,1.1,0.7,1.6h4.5
			c-0.1-0.1-0.1-0.3-0.2-0.4C37,230.8,36.5,228.6,35.5,227.1z"/>
		<path fill="#F7CC00" d="M15.7,219.6c-1.9,0.7-2.6,4-1.2,5.9c0.3,0.1,0.5,0.3,0.4,0.8c1.4,0.1,1.3-1.3,2.3-1.6
			C18.1,223.2,17.5,219.8,15.7,219.6z"/>
		<path fill="#171717" d="M21.1,228.6c-0.5,1.2-1,2.4,0,3.1c1.5,0,2.1-0.8,2.3-2C23.2,229,22.5,228.4,21.1,228.6z"/>
		<path fill="#F7CC00" d="M126.5,81.8c0.1,0.3,0,0.8,0.4,0.8c0.6,1.2,0.6,5.1,0,6.2c-0.1,0.5-0.6,0.7-0.4,1.6
			c1.3,0.8,2.5-0.7,3.9-1.2c2-0.7,4.5-1.1,6.2-1.6c-2.1-0.4,1.5-0.5,2.3-0.4c0.2-1.1-1.6-2.2-0.8-2.7c-0.2-0.5-0.4-0.9-0.8-1.2
			c-0.6-0.5-0.9-1.4-1.3-2.1h-9.2C126.9,81.5,126.8,81.7,126.5,81.8z"/>
		<path fill="#F7CC00" d="M123,103.2c0.5-0.8,0.7-1.9,1.2-2.7c0.1-0.3,0.3-0.5,0.8-0.4c0.3-1.2-1.7-1.9-0.8-2.4
			c0-0.2-0.1-0.5-0.4-0.4c-1-0.6-1.8-1.5-2.3-2.7c-0.6,0.1-0.1,1.2-0.8,1.2c0,0.1,0,0.3,0,0.4c0,1-1.3,0.8-2.3,0.8
			c0.1,0.5-0.1,2.4-0.4,1.2c-0.1,0-0.3,0-0.4,0C118.2,101.1,119.7,103.1,123,103.2z"/>
		<path fill="#171717" d="M78.3,107.9c1.9,0.7,4.4,1.8,6.2,2c3.5,0.3,5.9-1.8,9.7-2c0.4-1.1-1.6-2.5-3.1-3.5c-0.7-0.4-1-0.5-1.6-0.8
			c-0.2-0.1-0.2-0.7-0.4-0.8c-0.8-0.4-1.8-0.5-2.7-0.8c-2.1-0.7-4.3-1.6-5.8,0.4c-1.2,0.3-0.7-1.1-1.9-0.8c-0.2,1.4-0.1,2.7,1.2,2.7
			c-0.6,1-0.6,2.6-1.9,2.7c0,0.1,0,0.3,0,0.4C78.3,107.3,78.2,107.9,78.3,107.9z M85.3,109.1c0.2-1.8,1.5-2.6,1.9-4.3
			c1.2,1,3.7,0.7,3.9,2.7C89.4,108.3,87.9,109.3,85.3,109.1z M82.6,102.1c3.9,0,6.1,1.7,8.5,3.1c-0.4,0.6-1.3-0.1-1.9-0.4
			c-1.5-0.6-2.8-1-4.7-1.6C83.9,103.1,82.3,103.3,82.6,102.1z M81.4,104c1.3,0.3,0.6,2.5,1.9,2.7c1.5,0.2,1.7-0.9,1.9-1.9
			C87.3,108.8,79.9,108.9,81.4,104z"/>
		<path fill="#171717" d="M83,112.2c-1-0.5-2.1-1.1-3.1-1.6C79.8,112,81.9,113.2,83,112.2z"/>
		<path fill="#171717" d="M110.9,125.1c0.5-0.6,1.5-0.6,1.9-1.2c-0.7-2.8,1.4-6-0.4-7.4c-0.5,1.8-0.7,4-0.8,6.2
			C111.5,123.7,109.2,124.5,110.9,125.1z"/>
		<path fill="#171717" d="M79.8,123.6c0.5-0.7,1.5-3.1,0-3.5c0.2,1.7-0.1,2.8-1.6,2C78.3,123,78.9,123.5,79.8,123.6z"/>
		<path fill="#F7CC00" d="M121.1,128.2c0.2,0,0.5-0.1,0.4-0.4c0.1-0.3,0.4-0.4,0.4-0.8c-1.7-0.4-1.8,0.8-2.7,1.2
			c-0.3,0.4-1.1,2.2-0.4,2.3C119.5,130,120.1,127.3,121.1,128.2z"/>
		<path fill="#F7CC00" d="M107.4,134.5c-1.1,1.1-3.4,3.7-5.1,5.1c-0.3,0.3-0.9,0.1-1.2,0.4c-0.2,0.1-0.2,0.7-0.4,0.8
			c-0.6,0.4-1.4,0.4-1.9,0.8c-0.3,0.2-0.4,0.5-0.8,0.8c-0.5,0.3-2.2,2.1-2.7,1.6c-0.2,0-0.5,0.1-0.4,0.4c-0.7,0.9-1.7,1.7-3.1,2
			c-0.2,1.1,2.1-0.3,1.9,0.8c9.4-1.6,18-4.1,24.9-8.2c-1.1-3-1.2-7.2-1.9-10.5c-0.5-0.1-0.4-0.6-0.4-1.2c-0.5,0.2-0.9,0.4-1.2,0.8
			c-0.2,0-0.5-0.1-0.4-0.4c-1,0.4-1.9,1-3.5,0.8c-1.2,2.9-3.6,4.7-5.4,7C106.2,134.9,109.7,132.2,107.4,134.5z"/>
		<path fill="#F7CC00" d="M123.4,129c-1.5,0.1-2.2,0.9-3.1,1.6c-0.6,0.5-0.7,1.3-0.8,2.3c0.8-0.1,0.2,1.4,0.4,1.9
			c0.6-0.1,0.7-0.6,1.2-0.8c0-0.2,0.1-0.5,0.4-0.4c1.1-0.8,2-1.9,4.3-1.6C125.8,130.9,124.8,129.8,123.4,129z"/>
		<path fill="#F7CC00" d="M126.5,133.3c0-0.2-0.1-0.5-0.4-0.4c-2.4,0.5-4.2,1.5-5,3.5c-1,3,0.3,6.9,1.6,9c1.3-0.9-1.5-3.1,0-4.3
			c-2.6-4.9,6-8.9,5.4-2.7c0.8,0.2-0.5,1.5-1.6,1.2c0,0.6,1.1,0.4,0.4,0.8c0.2,0.9,2.1,0.4,1.9-0.4
			C130.8,137.4,128.6,134.2,126.5,133.3z"/>
		<path fill="#F7CC00" d="M52.2,147.4c1.1,0.3,0.8-0.8,1.6-0.8c0.1-0.5-1.1-1.4-1.2-0.4c-0.1,0-0.3,0-0.4,0c-0.2,0-0.5,0.1-0.4,0.4
			C52.2,146.6,52.2,147.1,52.2,147.4z"/>
		<path fill="#F7CC00" d="M111.7,149.3c1.3,0.5,1.4,2.3,2.7,2.7c0.7-1-1.6-2.3-0.8-4.7c-0.9,0.1-1.6,0.5-2.3,0.8
			C110.5,148,111.4,149.3,111.7,149.3z"/>
		<path fill="#F7CC00" d="M97.7,152.1c0,0.5,0.5,0.5,0.4,1.2c0,0.9,0,1.8,0,2.7c1.2,0.5-0.4,1.3,0,2.3c1.5-1.5,2.2-3.8,3.9-5.1
			c0.2,0,0.5-0.1,0.4-0.4c-0.9-1.6,1.6-1.1-1.2-1.6c-0.3-0.1-0.4-0.1-0.4-0.4c-0.3,0.1-0.8,0-0.8,0.4
			C99.7,151.9,98.4,151.7,97.7,152.1z"/>
		<path fill="#F7CC00" d="M56.1,155.6c0-0.5,0-1,0-1.6c-1.1-0.3-0.8,0.8-1.6,0.8c-0.2,0-0.5,0.1-0.4,0.4
			C54.6,155.5,55.2,155.7,56.1,155.6z"/>
		<path fill="#F7CC00" d="M119.1,156.4c-0.8-0.2-1,0.3-1.6,0.4c0,1.1,0.9,1.9,1.6,1.2c0.2,0,0.5-0.1,0.4-0.4
			C119,157.5,119.2,156.8,119.1,156.4z"/>
		<path fill="#F7CC00" d="M105.5,160.7c0,0.6,1.1,0.2,1.2,0.8c0.2,0,0.5-0.1,0.4-0.4c1.3-0.8,2.7-1.4,3.5-2.7c0-0.2-0.1-0.5-0.4-0.4
			c-0.8-0.5-1.5-1.1-1.9-1.9c-1,0-0.6,1.5-1.6,1.6c-0.2,0-0.5,0.1-0.4,0.4C106.9,158.2,105.6,159.8,105.5,160.7z"/>
		<path fill="#F7CC00" d="M64.7,159.5c-0.8,0.2-0.3,1.8-1.2,1.9c0,0.4,0.3,0.5,0.4,0.8c0.5,0.1,0.4,0.6,0.4,1.2
			c1.5-0.4,2.2-1.7,3.5-2.3c0.2,0,0.5-0.1,0.4-0.4C67.2,160,66.5,159.2,64.7,159.5z"/>
		<path fill="#F7CC00" d="M115.2,165.7c-0.2-0.5-0.4-0.9-0.8-1.2c-0.9-1.6-3.6-1.3-3.5,1.2c0,0.7,0.1,1.2,0.4,1.6
			C113,168.5,115.5,166.6,115.2,165.7z"/>
		<path fill="#171717" d="M48,205.2c1.7-2.7,2-6,3.1-9c0.2-0.6,0.9-1.3,1.2-2c0.3-0.9,0.5-1.6,0.8-2.3c0.6-1.6,1.3-3.2,1.2-5.1
			c-2-0.8-4.4-1.4-6.6-2c-1.8,1.9-2.9,4.2-3.9,6.2c-1.5,3.1-3.3,6.3-3.9,9.8C41.7,203.2,44.8,204.2,48,205.2z M48,193.1
			c0,1.5-0.5,2.6-2.3,2.3C44.1,193.6,46.8,191.2,48,193.1z"/>
		<path fill="#171717" d="M91.1,194.6c0.3-1.3,1.5-2.7,0.8-3.9c-1.8,0-6.6-0.3-8.9,0.4c-1.4,2.6-2.5,5.6-3.5,8.6
			c-1,3.1-2.6,6.4-1.9,9.8c3.6,0.7,7.8-1.3,10.9-2.3C89.3,203,90.1,198.5,91.1,194.6z M85.7,199.7c-1.2,0.5-1.3,0.1-2.3-0.4
			c-0.2-1.7,0.5-2.6,1.9-2.7C86.3,196.8,86.3,199,85.7,199.7z"/>
		<path fill="#F7CC00" d="M141.7,225.1c-0.6-1.4-0.6-5.6,0-7c0.2-1.8,0.6-3.3,0.4-5.5c-0.5,0.3-0.6-2-1.2-1.9c-0.8,0-0.2,3-0.8,1.2
			c-1.3,6.4-1.5,14.5-0.8,21.5h2.4C141.4,230.7,142.8,227.6,141.7,225.1z"/>
		<path fill="#171717" d="M103.9,217.3c0.1,1.1-0.2,2.5,0.4,3.1c1.3,0.6,2.4-0.1,3.1-1.2C107.4,217.4,105.7,216.3,103.9,217.3z"/>
		<path fill="#F7CC00" d="M145.2,231.4c1.2,0.3,1.2-0.6,1.9-0.8c1-0.9-0.3-4.2,0.8-5.1c-0.9-2.3,0.1-6-0.4-7.8
			c-0.7-0.4-0.6-1.4-1.5-1.6c-1.1-0.1,0.3,2.4-0.8,2.3C144.1,222.7,145.7,227.7,145.2,231.4z"/>
		<path fill="#F7CC00" d="M152.1,222.8c-1.4,0.4,0.7,2.6-0.4,2.7c0,0.4,0.7,0.5,0.8,0C153.6,224.7,153.4,223.2,152.1,222.8z"/>
		<path fill="#171717" d="M107.4,232.1c-0.3,0.4-0.5,0.8-0.8,1.2h3.4C109.8,232.4,108.9,231.7,107.4,232.1z"/>
		<path fill="#171717" d="M79.1,232.9c-0.7,0.1-1.1-0.4-1.6-0.4c-0.6,0-1.3,0.4-1.9,0.4c-10,0.2-18.7-0.3-25.7-2.3
			c-1.5-0.4-3.4-1.4-4.7-1.2c-0.1,0.6-0.5,0.6,0,1.2c-0.2,0-0.5,0.1-0.4,0.4c0.4,0.8,0.8,1.6,1.2,2.4h41.1c-0.3-0.7-0.7-1.3-1.1-2
			C83.8,231.7,81.5,232.7,79.1,232.9z"/>
		<path fill="#F7CC00" d="M134.1,233.3h1.5c-0.1-0.4-0.1-0.8-0.2-1.2C134.7,232,134.3,232.7,134.1,233.3z"/>
		<path fill="#171717" d="M87.6,96.6c2.8,0.3,5,2,7,1.6c-1.6-1.3-5.8-3.7-9.3-3.9c-2.5-0.2-6.2-0.2-6.2,3.1
			C81.8,97.1,84.5,96.3,87.6,96.6z"/>
		<path fill="#171717" d="M74.8,123.6c0.3-1.4,1.6-1.7,3.5-1.6c0.2-1.5-2.1-0.5-3.1-0.8C74.9,121.6,73.7,123,74.8,123.6z"/>
		<path fill="#171717" d="M68.2,132.9c-0.2,1.4,0.3,2,1.2,2.3c0.4-0.4,0.8-0.8,1.2-1.2c3,0.3,4.5,0.4,7-0.4c1.5,0.9,3.2,1.5,5.1,1.9
			c1.4-0.1-1-1.5,0.4-1.6c0-0.1,0-0.3,0-0.4c-0.8-0.8-1-0.1-1.6,0.4c-1.6-0.4-2.2-1.7-3.1-2.7c0-0.1,0-0.3,0-0.4
			c-1.7-1.9-4.4,1.3-6.2-0.8C69.9,130.1,70.6,134.6,68.2,132.9z"/>
	</g>
</g>
</svg>
