<?xml version="1.0" encoding="utf-8"?>
<!-- Generator: Adobe Illustrator 19.2.0, SVG Export Plug-In . SVG Version: 6.00 Build 0)  -->
<svg version="1.1" baseProfile="tiny" id="Layer_1" xmlns="http://www.w3.org/2000/svg" xmlns:xlink="http://www.w3.org/1999/xlink"
	 x="0px" y="0px" viewBox="0 0 170 244" xml:space="preserve">
<metadata><?xpacket begin="﻿" id="W5M0MpCehiHzreSzNTczkc9d"?>
<x:xmpmeta xmlns:x="adobe:ns:meta/" x:xmptk="Adobe XMP Core 5.6-c111 79.158366, 2015/09/25-01:12:00        ">
   <rdf:RDF xmlns:rdf="http://www.w3.org/1999/02/22-rdf-syntax-ns#">
      <rdf:Description rdf:about=""/>
   </rdf:RDF>
</x:xmpmeta>
                                                                                                    
                                                                                                    
                                                                                                    
                                                                                                    
                                                                                                    
                                                                                                    
                                                                                                    
                                                                                                    
                                                                                                    
                                                                                                    
                                                                                                    
                                                                                                    
                                                                                                    
                                                                                                    
                                                                                                    
                                                                                                    
                                                                                                    
                                                                                                    
                                                                                                    
                                                                                                    
                           
<?xpacket end="w"?></metadata>
<g id="Layer_11">
	<path fill="#FFFFFF" d="M17,0h136c9.4,0,17,7.6,17,17.1v209.8c0,9.4-7.6,17.1-17,17.1H17c-9.4,0-17-7.6-17-17.1V17.1
		C0,7.6,7.6,0,17,0z"/>
	<path fill="#C80813" d="M74.9,67c0,0,5.9-12.2,12.5-20.6c6.6-8.5,11.7-13,11.8-20.5c0-4.6-3.7-11-11.2-11.2
		c-10.1-0.3-13.1,9.2-13.1,9.2s-3-9.5-13.1-9.2c-7.5,0.2-11.3,6.6-11.2,11.2c0.1,7.4,5.2,12,11.8,20.5C69,54.8,74.9,67,74.9,67z"/>
	<path fill="#C80813" d="M42.2,69.5c-1.6,0-2.8-1.2-3.4-1.9c3.3-1.8,5.5-5.3,5.5-9.3V26.5c0-5.9-4.8-10.7-10.8-10.7h-8.3
		c-6,0-10.8,4.8-10.8,10.7v23.4l-4,0.1l0.2,6.8l3.7-0.1v1.6c0,5.9,4.8,10.7,10.8,10.7h6.2c0.5,0.7,1.1,1.4,1.5,2l-0.2-0.2
		c1.3,2,4.7,5.5,9.5,5.5h5.1v-6.8H42.2L42.2,69.5z M26.8,21.7h5.1c3.7,0,6.6,3.7,6.6,8.3v24.8c0,3.3-1.5,6.1-3.7,7.5
		c-2.9-3.8-6.6-8.6-7.8-9.9c-1.9-2.1-4.7-2.6-6.8-2.6V30C20.1,25.4,23.1,21.7,26.8,21.7L26.8,21.7z M26.8,63.2
		c-3.2,0-5.8-2.8-6.5-6.6c0.8,0.1,1.5,0.2,1.7,0.4c0.7,0.7,2.7,3.2,4.9,6.1L26.8,63.2L26.8,63.2z"/>
	<g>
		<path fill="none" d="M143.9,135.3c0.5-0.5,1.8-0.5,2.3,0c-0.9-2.4-4.4,1-1.9,2C143.9,136.8,143.7,136.2,143.9,135.3z"/>
		<path fill="none" d="M144.6,203.5c-2,1.6-4.4,3.3-6.6,5.1c-0.5,0.4-0.5,1-1.2,1.6c-0.3,0.2-0.9,0.2-1.2,0.4
			c-0.1,0.1-0.7,0.6-0.8,0.8c-1.1,1.3-2.3,2.2-1.2,4.3c1.3-0.1,2.2-1.2,3.1-2c2.2-1.7,3.9-3.5,5.8-5.1c2-1.7,4-3.3,5.8-4.7
			c0.4-0.3,0.1,0.1,0.4,0c0.5-0.1,0.4-0.5,0.8-0.8c2.7-2,5.7-4.6,8.2-6.4v-3.2c-3.2,1.7-6,5-9,6.4
			C147.2,200.9,146.1,202.4,144.6,203.5z"/>
		<path fill="none" d="M143.5,226.2c1.7-1.4,3.2-2.7,5-3.5c0.1,0.6-0.1,1.4,0.4,1.6c0-0.6,0-1.3,0-1.9c-3,0.8-4.9,3.4-7,5.1
			c-2.2,1.8-4.9,3.1-6.6,5.5c1.2-1,2.3-1.8,3.5-2.7C140.5,228.7,142.1,227.3,143.5,226.2z"/>
		<path fill="none" d="M152.8,214.5c-1.9-0.4-2.7,1.9-3.5,2.3c-0.5,0.3-1.1,0.1-1.5,0.4c-1,0.7-1.9,1.6-2.7,1.9
			c-0.1,0.1-0.3,0.7-0.4,0.8c-2,1.4-3.6,2.8-5.4,4.3c-1.4,1.1-3.7,2.2-3.9,4.3c1.4-0.5,2.4-1.5,3.5-2.3c2.3-1.9,4.5-3.8,6.6-5.5
			c1.1-0.9,2.3-2,3.5-2.7c-0.2,0.1,0.2,0.4,0.4,0.4c0.5-0.1,0.7-1.9,1.9-1.2c0.5,5.1,0,10.5-0.2,16.1h1.1
			C152.5,227.2,153.3,221.4,152.8,214.5z"/>
		<path fill="none" d="M145.8,166.9c-2,0.3-3.6,1-3.5,3.5c1.3,1,3.4-0.1,4.3-0.8C146.8,168.2,146.1,167.7,145.8,166.9z"/>
		<path fill="none" d="M133,221.5c-0.5-3.9-0.6-7.8-1.2-11.7c-0.5-3.8-1.2-7.4-1.6-11.3c-0.8-9-0.7-17.2,0.8-25
			c0.4-1.9,0.6-3.8,1.2-5.5c0.4-1.3,1.2-2.7,1.6-3.5c0.2-0.4,0.6-0.9,0-1.2c-1.8,1.6-2.1,4.1-2.7,6.2c-2,7.4-2.8,16.4-2.3,25.3
			c0.5,9.4,2.6,18.8,3.5,27.7c0.4,3.6,0.4,7.3,0.5,10.7h1.4c0-0.2,0-0.3,0-0.5C134.2,229,133.5,225.4,133,221.5z"/>
		<path fill="none" d="M150.8,140.8c0,0.6,0,1.3,0,1.9c-0.5,0.4-1.4,0.4-1.9,0.8c0.3,1.3-0.7,2-0.8,3.1c-0.2,1.6,0.7,3.4,0.4,5.5
			c0.9,0.3,1.1-0.8,1.6-1.2c1.9-1.3,3.8-1.7,5.4-2.7c0.5,0.5,0.4,1.7,0.4,2.7c0,0.1,0,0.3,0,0.4c-0.2,2-1.4,3.2-1.9,3.9
			c-0.3,0.4-0.1,0.9-0.4,1.2c-0.2,0.3-0.9,0.6-1.2,0.8c-0.4,0.3-0.7,0.6-1.2,0.8c-1.3,0.7-3.1,0.5-3.9,1.9c1.7,0.1,3.3,0.3,3.5,2
			c1.5-0.1,2.7,0.1,3.1,1.2c1.1,2.4-1,4.6-2.3,5.9c0.2,1.4,1,2.1,0.8,3.9c-0.2,1.5-1.8,1.6-1.9,3.1c0.8,1.4,2.5,2.3,3.9,3.5
			c1.1,0.9,2.2,2.6,3.5,2.8v-44.4C154.9,138.4,154.5,141.9,150.8,140.8z"/>
		<path fill="none" d="M148.9,230.1c0-1.8,0-3.6,0-5.5C148.3,225.5,148.3,229.1,148.9,230.1z"/>
		<path fill="none" d="M131.8,83c0.1-0.6,0.8-1.2,1-1.8h-0.4C132,81.9,131.2,82.8,131.8,83z"/>
		<path fill="none" d="M81.4,83.8c0.2,0.1,0.2,0.6,0.4,0.8c0.3,0.2,0.9,0.2,1.2,0.4c3.2,2.2,6.4,4.1,9.3,5.9
			c-0.1-1.2,0.1-1.9-0.4-2.7c-0.4-0.6-1.5-0.7-1.9-1.2c-0.8-0.8-1.9-1.5-2.7-2c-0.8-0.5-1.4-0.8-1.9-1.2c-1.2-0.8-3-1.7-3.9-2.3
			c-0.1-0.1-0.2-0.2-0.3-0.3H79c0.2,0.5,0.4,0.9,0.5,1C80.1,83,80.5,83.2,81.4,83.8z"/>
		<path fill="none" d="M92.2,81.2h-3.7c1.2,0.6,2,1.7,3.7,1.8C92.2,82.4,92.2,81.8,92.2,81.2z"/>
		<path fill="none" d="M84.1,82.2c0.7,0.5,1.9,1.1,2.7,1.6c1.7,1,3.7,2.2,5.4,2.7c0.3-1.4-0.8-1.5-0.8-2.7c-1.6-0.7-2.8-1.8-4.3-2.6
			h-4.4C83,81.6,83.7,81.9,84.1,82.2z"/>
		<path fill="none" d="M146.6,166.1c0.5,1.2,0.4,3,1.6,3.5c0.1-0.6,0.9-0.3,1.2,0c1-1.1-0.5-2.7,0.4-3.5c0.2,0.7,0.8,1,0.8,1.9
			c1.8-0.6,2.9-2,3.1-4.3c-0.4-0.1-0.6-0.4-0.8-0.8c-2.1-0.2-2.6,1-3.5,2C147.8,164.7,147.7,165.9,146.6,166.1z"/>
		<path fill="none" d="M154.7,150.5c0.5-1.4-2.2-0.3-2.7,0c-1,0.6-1.8,2.4-2.3,2.7C151.1,152.3,152.7,149.7,154.7,150.5z"/>
		<path fill="none" d="M147.7,157.1c0.9-1.4,2.8-1.9,3.9-3.1c0.6-1.9-2.3,2.8-3.5,1.2C148.5,156.1,146.8,156.9,147.7,157.1z"/>
		<path fill="none" d="M129.9,100.6c0.1,1.2-0.3,2.9,0.4,3.5c0.1,2.2,0.5,4.2,1.2,5.9c0,0.1,0,0.3,0,0.4c-0.3,1.7,0.7,2.2,0.4,3.9
			c-1.9,0.6-4.1,1.2-6.2,2c-2,0.8-4.4,1.4-5.4,2.7c-0.1,0.1-0.6,1.1-0.8,1.6c-1.1,2.6,0.6,5.2,1.9,7.8c2.7,5.3,6.6,12.2,8.5,16.8
			c1.3,0.1,2.1,1.2,2.7,1.6c1.1,0.6,2.2,1.1,3.1,1.6c0.8,0.4,1.8,0.4,2.3,0.8c1.1,0.8,1.8,2.4,2.7,3.5c0.8,1,1.6,2.7,3.1,2.3
			c0-0.5,0.5-0.5,0.4-1.2c0-0.1,0-0.3,0-0.4c0.9-0.8,0.1-3.2,0.4-4.7c-0.9-2-4.5-2.7-3.1-5.8c-0.5-0.5-1.4-0.4-2.3-0.4
			c-0.5-0.5-0.2-1.9-1.2-1.9c-0.6,0.5-1,1.1-1.9,1.2c-0.9-0.9-2.1-1.6-2.7-2.7c-1-0.4-2.2-0.6-2.3-2c1.6-1.8,2.5-4.2,4.7-5.5
			c0.7,1.1,2,1.6,3.5,2c0-0.8,0-1.6,0-2.3c1.2-1.1,2.3,0,3.1-1.6c-0.6-0.8-0.9-1.7-1.2-2.7c1.5-2,1.7-5.4,3.9-6.2
			c1.1,2,1.9,4.4,3.5,5.9c0,0.1,0,0.3,0,0.4c0.3,1.5-0.7,1.7-0.4,3.1c1,0.8,3.1,0.6,2.7,2.7c3.1-1.3,4.7,2.4,7,2.8V81.2h-24
			C130.8,85.9,128.8,93.2,129.9,100.6z"/>
		<path fill="none" d="M109.7,85c-0.9-1.6-2-2.9-3.6-3.8h-0.7C107.2,82.1,108.4,83.5,109.7,85z"/>
		<path fill="none" d="M115.9,81.9c0-0.1,0-0.3,0-0.4s0-0.2-0.1-0.3h-0.4C115.6,81.4,115.6,81.8,115.9,81.9z"/>
		<path fill="none" d="M111.3,99.4c1,1.6,1.5,3.6,2.7,5.1C113.2,102.6,112.6,100.6,111.3,99.4z"/>
		<path fill="none" d="M103.5,81.9c0-0.1,0-0.3,0-0.4s0-0.2,0-0.3H103C103,81.5,103,81.8,103.5,81.9z"/>
		<path fill="none" d="M118.3,233.3h2.9c0-0.2,0.1-0.4,0.1-0.5C120.2,232.8,119.2,233,118.3,233.3z"/>
		<path fill="none" d="M89.9,141.1c2-2.5,6-5.2,7.8-7.4c0.2-0.2-0.2-0.4-0.4-0.4c-2.6,3-5.4,5.8-8.5,8.2c0.5,0,1,0,1.6,0
			C90.5,141.3,90,141,89.9,141.1z"/>
		<path fill="none" d="M20,175.9c0-1.7-1.1-3.1-1.6-4.3c-2.4-1-5.1,0.1-6.2,1.6c2,0.7,3.6,0.5,4.3,1.9c1.2,2.6-1.2,3.6-4.4,3.9v0.9
			C15.5,183.3,20,180.2,20,175.9z"/>
		<path fill="none" d="M13.4,186.4c-0.6,0.1-0.9,0.3-1.3,0.6v6.7c0-0.1,0.1-0.2,0.1-0.2C13.2,191.1,13.7,189.2,13.4,186.4z"/>
		<path fill="none" d="M12.2,181.4v4C12.7,184.2,12.7,182.6,12.2,181.4z"/>
		<path fill="none" d="M122.1,224.6c0,1.3,0,2.6,0,3.9C122.8,228.1,122.8,225,122.1,224.6z"/>
		<path fill="none" d="M31.7,185.6c-0.1-1-0.6-1.5-1.6-1.6c-0.6,2-2,3.2-2.7,5.1C29.1,188.3,29.8,182.7,31.7,185.6z"/>
		<path fill="none" d="M25.1,173.5c-0.7,0-1,0.3-1.2,0.8c-3.8,5.1-7.1,11.8-9.7,17.6c-0.3,0.6-0.5,1.4-0.8,1.9
			c-0.5,1.1-0.9,2.2-1.3,3.3v3.2c3.6-9.1,8.7-17.2,12.9-26C25.1,174,25.1,173.8,25.1,173.5z"/>
		<path fill="none" d="M51.5,102.5c2.7-0.1,5.1-0.9,7.4-0.4c2.5,0.5,3.6,3.3,5.4,2.7c-0.3-1.8,0.4-3.6,0-5.1c-0.5-1.8-2.9-3.6-5-3.9
			C54.1,95.1,48.4,98.7,51.5,102.5z M53.8,99.8c3.5-0.2,6.2,0.2,8.2,1.6c-1.5,0.6-3.9-1.3-6.6-0.8c-1.2,0.1-1.7,0.9-3.1,0.8
			C52,100,53.7,100.7,53.8,99.8z"/>
		<path fill="none" d="M60,104.1c-0.1,1.2-0.9,1.7-0.8,3.1c1.3-0.3,2.6-0.8,3.1-1.9C61.4,105,61.5,103.8,60,104.1z"/>
		<path fill="none" d="M14.2,166.1c-0.3-1-1.1-1.7-2-2.2v7.6C13.8,170.2,14.7,168,14.2,166.1z"/>
		<path fill="none" d="M36.3,232c-0.6,0-1,0.7-1.4,1.3h0.4c0.4-0.4,0.5-0.9,1.1-0.9c0.7,0,1,0.4,1.3,0.9H38
			C37.5,232.7,37.3,232,36.3,232z"/>
		<path fill="none" d="M60.8,142.3c-0.2-1.6-1.6-2.4-3.1-1.6C57.6,142.4,59.6,141.9,60.8,142.3z"/>
		<path fill="none" d="M51.9,82.6c0.4-0.8,1.5-0.8,2-1.4h-1.7C51.7,81.7,51.5,82.3,51.9,82.6z"/>
		<path fill="none" d="M14.2,164.2c0.2,0.1,0.3,0.7,0.4,0.8c0.5,0.3,1.4,0.4,1.9,0.8c1.9,1.3,3.8,2.8,5.8,3.9
			c12.6,7,29,12.1,46.6,12.9c3.1,0.1,6.4-0.4,9.7-0.4c1.3,0,2.2,0.5,3.5,0.4s2.5-0.6,3.9-0.8c1.3-0.2,3-0.2,4.3-0.4
			c4.1-0.7,7.7-1.7,11.3-2.7c1.2-0.4,2.4-0.8,3.5-1.2c3.6-1.2,6.9-2.9,9.7-4.3c0.3-0.2,0.8,0.1,1.2,0c0.1-0.1,0.2-0.7,0.4-0.8
			c0.3-0.2,0.8,0.2,1.2,0c0.1-0.1,0.2-0.7,0.4-0.8c1-0.6,2.1-1,3.1-1.6c1.7-0.9,3.1-2,4.3-2.7c0.4-0.3,1-0.4,1.6-0.8
			c0.5-0.3,0.7-0.8,1.2-1.2c0.4-0.3,1.1-0.5,1.6-0.8c0.7-0.5,0.3-1.9,1.2-0.8c0.2,0.3,0.4-0.4,0.4-0.4c1.1-0.6,3.3-1.6,2.3-3.1
			c-1.6-1.7-2.9,0.4-3.9,1.2c-1.3,1-1.8,1.3-2.7,1.9c-1.6,1.1-2.8,1.9-4.3,2.7c-5.8,3.5-12,6.3-18.6,8.6c-4.8,1.7-9.4,3.1-14.8,3.9
			c-1.3,0.2-2.9,0.2-4.3,0.4c-1.5,0.2-2.6,0.7-3.9,0.8s-2.6-0.4-3.9-0.4c-3.3,0-6.5,0.6-9.7,0.4c-18.6-1-35.7-7.2-47.4-15.2
			c-2.7-1.9-5.5-3.8-7.9-5.9v3.9c0,0,0.1,0,0.1,0.1C13,163.2,13.7,163.8,14.2,164.2z"/>
		<path fill="none" d="M33.6,122c0.3-0.5,0.4-1.3,0.8-2c0.3-0.5,1.2-1,1.6-1.6c0.3-0.5,0.4-1.3,0.8-2c0.3-0.5,0.9-1,1.2-1.6
			c2.2-3.8,4.1-7.5,5.8-11.3c1.2-2.6,2.1-5.4,3.1-8.2c0.1-0.3,0.2-0.5,0.4-0.8c1.8-2.9,2.2-8.5,1.6-12.1c0-0.3,0-0.5,0-0.8
			c0-0.2,0-0.4,0-0.7H12.2V152c3-1.1,6.1-2.2,9.4-3.4C23.7,138.3,29,129.7,33.6,122z"/>
		<path fill="none" d="M17.3,233.3h2.9c-0.7-0.5-1.5-0.8-2.5-0.9C17.6,232.7,17.5,233,17.3,233.3z"/>
		<path fill="none" d="M147,171.2c-3.8,0-6.3,1.2-6.6,4.7c1,0.9,3,1.1,3.1-0.8c0.5-1.7-1.8-0.5-1.6-1.9c1.5-1,2.5,1.2,2.7,2.7
			c1.2,0.2,1.5-0.6,2.3-0.8c0.2-0.8-0.5-2.6,0.4-2.7c0.8,0.5-0.1,2.7,1.2,2.7c1.4,0,4.1-2.2,2.7-5.1
			C149.3,169.8,148.2,170.6,147,171.2z"/>
		<path fill="none" d="M122.5,233.3h0.4c0-0.5-0.1-1-0.4-1.3C122.6,232.5,122.6,232.9,122.5,233.3z"/>
		<path fill="none" d="M144.6,160.3c1-0.6,1.2-2.5,1.6-3.9c0.5-1.6,1-3.3,1.2-4.7c0.1-1.4,0.6-3.6-0.8-4.3c-0.5,0.6-0.5,1.6-1.2,2
			c0.2,1.1,0.2,2.2,0,3.5s-1,2.8-1.2,3.5C144,157.5,143.2,160.1,144.6,160.3z"/>
		<path fill="none" d="M108.5,231.2c-0.6,0.4-0.8,1.3-0.8,2.1h1.6C109.4,232.3,109.2,231.3,108.5,231.2z"/>
		<path fill="none" d="M124.5,232.4c0-1.6,0-3.1,0-4.7C123.8,228.4,123.8,231.7,124.5,232.4z"/>
		<path fill="none" d="M119,185.6c0,3.8,0,7.5,0,11.3C119.7,194.1,119.7,188.5,119,185.6z"/>
		<path fill="none" d="M138.8,156.7c0.3-0.1,0.8,0,0.8-0.4c-1.8-0.9-3-2.4-4.3-3.9C134.6,153.1,138,155.2,138.8,156.7z"/>
		<path fill="none" d="M121.3,198.5c0-1.3,0-2.6,0-3.9c-0.1,0-0.3,0-0.4,0C121.2,195.8,120.5,197.9,121.3,198.5z"/>
		<path fill="none" d="M59.7,233.3h1.2c0.3-0.1,0.6-0.2,1-0.1c0.1,0,0.1,0.1,0.2,0.1h1C62.3,232.3,60.7,232.4,59.7,233.3z"/>
		<path fill="none" d="M137.6,163c0.1,0.3,0.3,0.5,0.8,0.4c2.1-1.4,5-2,4.7-5.9c-2.4,0.3-5.3,0.2-7.4,0.8
			C136.2,160,137,161.4,137.6,163z"/>
		<path fill="none" d="M93.8,229.7c-1.6,0.9-1.3,3.4,0.8,3.5C93,232.3,92.7,231.4,93.8,229.7z"/>
		<path fill="none" d="M55,231.6c-1.2,0.2-1.4,1.5-2.7,1.6c-1.2-0.6-1.1-2.6-2.7-2.7c-1.5,0.6-2.3,1.6-2.2,2.9h0.9
			c-0.2-0.6-0.3-1.1-0.2-1.7c0.5-0.5,1.4-0.4,2.3-0.4c0.2,0.7,0.3,1.4,0.5,2.1h2.9c0.4-0.5,0.8-0.9,1.7-0.9c0.6,0.1,0.9,0.4,1.1,0.9
			h0.8v-0.1C56.9,232.3,56.1,231.8,55,231.6z"/>
		<path fill="none" d="M101.5,230.1c0-0.4,0.3-0.5,0.4-0.8c-1.2-1-2.8-1.6-4.3-2.3C98.5,228.4,101.8,228.7,101.5,230.1z"/>
		<path fill="none" d="M133.4,168.4c-1.4,5-2.7,10.1-2.3,16.8c2.1,0.6,4,1.5,7,1.2c0.5-0.2,0.1-1.5,0.8-1.6c0.6-2.3-1.4-2-1.2-3.9
			c0.4-1.8,2.4-2,2.7-3.9c-2.6-2.3,2.1-4.8,0.4-7.4c0-0.1,0-0.3,0-0.4c1.4-0.9,2.2-2.5,3.5-3.5c2-1.1,5.5-0.7,5.4-3.9
			c-3.1-1.8-7.2,0-8.9,1.2C138.1,164.8,135.4,166.9,133.4,168.4z"/>
		<path fill="none" d="M58.1,103.3c-0.9,1-0.3,3.6-2.3,3.5c-0.5-0.4-1.4-0.4-1.6-1.2c-0.8-0.3,0.2-2.3-1.2-1.9
			c-0.4,2.2,0.8,2.8,1.5,3.9c0.9,0,1.8,0,2.7,0C57.8,107,60.3,103.9,58.1,103.3z"/>
		<path fill="none" d="M105.8,187.6c-6.8,10.7-14.2,22.5-21,32.8c-0.6,0.8-1.6,2.8-1.9,3.1c-0.8,0.9-1.2,2-1.6,2.7
			c-0.3,0.6-1.6,1.1-0.8,1.9c2.4,1,3-1.7,3.9-3.1c1.3-2.1,3-4.6,3.9-6.6c0.1-0.1,0.7-0.2,0.8-0.4c0.5-0.9,1.2-2.7,1.6-3.1
			c0.9-1,1.4-2.3,1.9-3.1s0.9-1.7,1.2-2c0.3-0.3,0.5-0.8,0.8-1.2c0.6-0.6,1.3-2,1.6-2.3c0.3-0.3,0.5-0.8,0.8-1.2
			c0.6-0.6,0.8-1.4,1.2-1.9c0.5-0.8,1.4-1.5,1.9-2.3c0.6-0.9,1.2-2.7,1.6-3.1c0.3-0.3,0.5-0.8,0.8-1.2c0.6-0.6,1.3-2,1.6-2.3
			c0.3-0.3,0.5-0.8,0.8-1.2C105.8,191.8,106.9,189.3,105.8,187.6z"/>
		<path fill="none" d="M98.8,225.8c-0.7-0.4-1.7-1.6-1.9-0.8c1.3,0.6,2.6,1.3,3.9,2C101.5,226.4,99.6,226.2,98.8,225.8z"/>
		<path fill="none" d="M138,200.8c-0.5,0.5-1.4,0.4-2.3,0.4c-0.1-0.9-0.6-1.5-0.4-2.7c-0.8,0.1-0.1,1.7-0.8,2
			c0.8,0.3-0.1,2.5,0.8,2.7c0-0.7,0-1.3,0-2C135.8,202.1,139.1,201.4,138,200.8z"/>
		<path fill="none" d="M132.2,199.3c-1-1.8,2.8-1.3,1.6-2.7c0.1,1.2-1.3,0.8-1.9,1.2c0,0.8,0,1.6,0,2.3c0.8,0,1.6,0,2.3,0
			C133.2,199.2,132.6,200,132.2,199.3z"/>
		<path fill="none" d="M106.2,215.6c0.1,0.5-0.1,1.1,0.4,1.2c0.3-1.4-0.6-1.7-1.9-1.6c0.3,1.1-0.8,0.8-0.8,1.6
			C104.8,216.6,104.7,215.3,106.2,215.6z"/>
		<path fill="none" d="M21.6,213.7c-0.1,2.2-1.5,3.2-1.2,5.9C25.9,221.1,26.6,213.3,21.6,213.7z"/>
		<path fill="none" d="M139.2,205.5c0.1-1,0.1-1.9-0.4-2.3c-1.4-0.1-2.3,0.3-2.7,1.2c0.8-0.3,1.3-1,2.7-0.8c0,1.2-0.2,2.6,1.2,2.3
			c0-0.6,0-1.3,0-2C138.9,203.7,140.2,205.8,139.2,205.5z"/>
		<path fill="none" d="M34,197.3c0.1-1.6,1.5-2.3,1.6-3.9c0.1-2.1-1.8-4.3-3.1-5.5c-0.9,1.7-2.3,2.9-2.3,5.5
			c0.6,1.1,1.9,1.5,2.7,2.3C33,196.5,33,197.4,34,197.3z M31.7,191.1c0.5-0.6,2.2-0.6,2.7,0c0.2,1.4-0.3,2.1-0.8,2.7
			C32.3,193.5,31.5,192.8,31.7,191.1z"/>
		<path fill="none" d="M19.6,222.7c-1,1.6-1.1,4.1-1.6,6.2c1.9,0.7,3.1,2.1,5.4,2.3c0.3-3.2,1.9-6.9,1.6-9.4
			C23.5,222.4,21.9,222.9,19.6,222.7z M23.1,227.7c-1.2,0.7-2.1,0.8-3.1,0c-0.6-2.7,1.8-3.3,3.1-2C23.1,226.4,23.1,227.1,23.1,227.7
			z"/>
		<path fill="none" d="M103.5,216.8c-4-0.3-1.6,3.6-0.4,4.7C104,221.1,99,217.3,103.5,216.8z"/>
		<path fill="none" d="M88.3,105.7c-0.4-1.6-2.3-1.8-4.3-1.9c-0.1,1.2-0.9,1.7-0.8,3.1C85.7,107.1,86.6,106,88.3,105.7z"/>
		<path fill="none" d="M30.1,204.3c-1.6,0.4-3.4,0.5-5.4,0.4c-0.4,2-1.8,2.9-1.6,5.5c0.2,1.2,1.8,1.1,2.3,1.9c1,0.2,1.3,2.2,2.3,1.2
			c0.7-2.1,1.7-5,2.3-7C30.3,205.8,31.4,204.3,30.1,204.3z M26.2,206.7c1.2-0.2,1.6,0.5,1.9,1.2C28.2,212.3,22.7,208.5,26.2,206.7z"
			/>
		<path fill="none" d="M115.5,176.2c0.4,1.1,1.1,2,2.7,2c1-0.8,0.5-3.2,1.2-4.3C118,173.2,115.8,174.6,115.5,176.2z"/>
		<path fill="none" d="M118.2,213.3c-0.6,0.7-1.7,0.9-2.3,1.6c0,1,0,2.1,0,3.1c0.9,0.7,1.9,1.5,3.9,1.2
			C119.8,218.1,120.3,213.5,118.2,213.3z"/>
		<path fill="none" d="M122.9,104.5c0.1-0.9,2.4-1.7,1.6-2.3c-0.4,1.2-1.9,1.2-1.9,2.7c1.4,0.8,3,1.4,4.3,2.3
			C126.1,105.6,123.9,105.7,122.9,104.5z"/>
		<path fill="none" d="M32.8,157.5c2.2,1.6,4.6,2.2,7.8,1.2c0.9,3.5,4.8,5.2,9.3,3.9c1.5,2,2.5,3.6,5.4,3.5c1.5-0.1,2.2-1.4,3.9-1.2
			c1,1,2.1,2.2,3.9,2.3c2.2,0.2,4.3-1.1,5.8-1.9c2.1,3.1,8.1,1.9,9.7-0.8c1.1,1.2,1.5,2,2.7,2.3c2.9,0.9,5.1-1.6,7.4-2.7
			c0.6,2.7,5.5,1.4,7.4,0.8c1-0.9,1.1-2.8,2.3-3.5c3.1,2.2,6.9,1,8.2-1.2c0.6-0.9,0.1-2.6,1.2-3.1c1.5,0.8,3.5,0.9,5.8,0.8
			c0.1-0.8,1-0.8,1.5-1.2c0.8-1,0.7-3,1.9-3.5c3.1,0.1,5.6-0.4,6.2-2.7c-1.9-1.3-6.7-7.9-8.9-7.8c-2.1,0.1-2.2,2.3-3.9,3.9
			c-1.8-0.2-3.2,0.1-4.7,0.4c-0.4,0.7-0.9,1.2-1.6,1.6c-0.7,0.5,0,2.3-1.2,2.3c-1.3-0.1-1.9-1-3.5-0.8c-2.1,0.5-2.8,2.4-4.3,3.5
			c-1.7-0.9-3.7-1.4-5.4-0.8c-1.6,0.6-1.8,2.5-3.1,3.1c-1-1.4-3.1-1.8-5.8-1.6c-0.3,0.5-0.8,0.7-1.6,0.8c-0.7,0.2-0.3,1.5-1.6,1.2
			c-1.5-1.1-2.5-2.5-4.7-2.3c-1.9,0.1-2.6,1.9-4.3,2.3c-1.3-0.8-1.7-2.1-3.5-2.3c-2-0.3-3.3,1-5,1.6c-0.4-3.5-5.4-3-7.8-1.6
			c0.1-1.8-1.1-2.3-1.9-3.1c-2.2-0.2-3.4,0.5-4.7,1.2c-0.2-3.7-2.8-4.2-6.6-3.5c0.4-2-0.7-2.4-1.6-3.1c-4.4,0.7-14.4,2.1-13.6,6.6
			c0.4,2.2,4.4,2.9,7.8,2C31.9,155.6,32.7,156.2,32.8,157.5z M119.8,150.9c-3.4,1.3-4.5-2.7-5-5.5
			C117.2,146.5,120,147.2,119.8,150.9z M112.8,155.2c-2.9,0.8-4.7-2.4-4.7-5.8C110.4,150.4,114.4,151.6,112.8,155.2z M103.1,159.9
			c-2.9-0.3-3-3.5-3.5-6.2C102.4,153.7,106.1,157.6,103.1,159.9z M90.7,159.5c1-0.7-0.4-3.8,1.2-3.9c1.3,1.7,2.6,3.4,2.7,6.2
			c-0.5,0.7-0.8,1.5-1.9,1.6c-1.5-0.3-1.2-2.4-1.9-3.5C90.7,159.7,90.7,159.6,90.7,159.5z M82.1,157.5c2.3,0.3,4.9,7.6,0,7
			C80.7,162.9,81.6,159.5,82.1,157.5z M74,157.5c1,1.8,2.9,6.4-0.4,7C70.8,164.1,72,157.9,74,157.5z M65.1,157.1c1,2,1.8,8.8-1.9,7
			C61.8,162.9,62.9,157.8,65.1,157.1z M56.1,155.6c0.5-0.1,0.7,0.1,0.8,0.4c0.9,2.4,0.7,6.8-2.7,6.2
			C52.3,159.8,55.1,157.4,56.1,155.6z M48.8,153.6c0.3,0.2,0.7,0.3,0.8,0.8c-0.3,3.1-0.4,6.4-4.3,5.9
			C43.8,156.9,47.2,155.2,48.8,153.6z M40.6,150.9c0.5,0,1,0,1.6,0c-0.9,2.7-2.7,6.4-6.2,5.1C35.7,152.4,38.8,152.4,40.6,150.9z
			 M31.3,150.9c-1,0.6-2.8,1.7-4.3,0.4c0.4-3.4,4.4-3.1,7.8-3.5C34.6,148.9,32.7,150.1,31.3,150.9z"/>
		<path fill="none" d="M115.9,99.4c0.4-0.7,1.3-0.8,1.6-1.6c-1.1,0.4-1.9,1-1.9,2.3c0.5,0,1,0,1.6,0
			C117,99.6,115.9,100.1,115.9,99.4z"/>
		<path fill="none" d="M114.7,221.1c-0.6,2.5,0.8,6.2,0.4,9.8c1.5,0.5,3.4-1.5,5.4-1.6c0.3-0.1,0.4-0.3,0.4-0.8
			c0.3-2.4-0.5-3.7-0.4-5.9C118.7,222.1,116.6,221.7,114.7,221.1z M119,226.6c-1.5,1.4-3.7-0.8-2.3-2.3
			C118.4,224,119.2,224.8,119,226.6z"/>
		<path fill="none" d="M117.8,190.3c0-2.9,0-5.7,0-8.6c-1.5-0.5-2.2-1.7-4.3-1.6c-0.4,3.8-1.2,9.2-0.8,12.5
			C114.8,192.1,116.1,191,117.8,190.3z M116.7,186.4c-1.5,0.2-2.4-0.2-2.7-1.2C114,182.3,118.9,183.9,116.7,186.4z"/>
		<path fill="none" d="M134.5,196.1c0,0.6-0.2,1.5,0.4,1.6c-0.7-2.7,2.5-1.4,2.3-3.5c-0.4,0-0.5-0.3-0.8-0.4
			C137.8,195.3,135.2,195.3,134.5,196.1z"/>
		<path fill="none" d="M117.8,202.4c-2.4,0.3-3.9-1.9-5.4-1.2c0.4,3.7,0.5,7.8,1.2,11.3c1.8-1,3.7-2,5.4-3.1
			C118.8,206.9,118.8,204.2,117.8,202.4z M115.9,207.4c-1.2-0.1-1.7-0.9-1.6-2.3C116.5,203,118.7,206.5,115.9,207.4z"/>
		<path fill="none" d="M117.8,199.3c0-1.7,0-3.4,0-5.1c-2.4-0.1-3.4,1.2-3.9,3.1C114.7,198.5,116,199.1,117.8,199.3z"/>
		<path fill="none" d="M136.1,187.9c-0.9-0.3-2.6,0.4-1.6,0.8c1.2-1.4,2.3,0.5,2.7,1.2c0-0.8,0-1.6,0-2.3c-1.1,0.1-2.7-1.1-3.5,0
			C134.4,187.8,136,187.1,136.1,187.9z"/>
		<path fill="none" d="M133.4,207.1c0.1-0.5-0.1-0.7-0.4-0.8c0,0.5,0,1,0,1.6c1.1,0,2.5-0.2,3.1,0.4c0.3-0.5,0.5-1,0.4-2
			C136.4,208,135.3,207.9,133.4,207.1z"/>
		<path fill="none" d="M62.7,195.4c0.8,1.8,1.9,3.3,2.7,5.1C65.7,199.4,63.9,196.7,62.7,195.4z"/>
		<path fill="none" d="M86,186.8c-1,1.4-1.6,3.2-2.3,4.3c-0.3,0.5-0.8,0.7-1.2,1.2c-1.3,1.9-2.7,4.1-3.5,5.9
			c-0.1,0.1-0.7,0.2-0.8,0.4c-0.3,0.5-0.5,1.1-0.8,1.6s-0.5,1.1-0.8,1.6s-0.9,0.7-1.2,1.2c-0.3,0.5-0.1,1.1-0.4,1.6
			s-0.9,0.8-1.2,1.2c-1.2,1.9-2.4,3.5-3.5,5.1c-0.8,1.2-1.5,2.5-1.9,3.5c-0.1,0.1-0.7,0.2-0.8,0.4c-0.3,0.5-0.5,1.1-0.8,1.6
			c-0.3,0.4-0.5,0.8-0.8,1.2c-0.3,0.5-0.5,1.2-0.8,1.6c-1.1,1.6-3.7,3.1-2.7,5.5c1.7,0.7,2-1.1,2.7-1.9c0.8-0.9,1.9-2,2.3-2.7
			c0.6-0.9,0.9-2.2,1.6-3.1c0.7-1,1.7-1.8,2.3-2.7c0.2-0.3,0.5-1.1,0.8-1.6c0.7-1.2,1.4-1.9,1.9-2.7c0.4-0.6,0.4-1.4,0.8-1.9
			c0.7-1,1.7-1.8,2.3-2.7c0.7-1.1,1.1-2.3,1.6-3.5c1.2,0.1,1.7-1.9,1.9-2.3c0.1-0.1,0.7-0.2,0.8-0.4c0.1-0.2-0.1-0.6,0-0.8
			c0.1-0.1,0.7-0.2,0.8-0.4c0.5-0.7,0.7-1.6,1.2-2.3c0,0,0.3-0.3,0.4-0.4c0.3-0.3,0.1-0.3,0.4-0.8c2.1-3.6,5-6.7,6.6-10.5
			c-1.7,0.1-2.1,0.4-3.1,1.2c-0.4,0.3-0.5,0.7-0.8,1.2C86.9,186.1,86.2,186.5,86,186.8z"/>
		<path fill="none" d="M58.8,183.7c1.1,0.9,3.9,0,4.7,1.2C63,183.4,60.8,183.7,58.8,183.7z"/>
		<path fill="none" d="M139.2,179.4c-0.1,0.9-0.6,1.5-0.4,2.7c1.6,0.2,2.6-0.2,3.5-0.8c0.5-1.1-1.1-2,0-2.3c1,0,0.8,1.3,0.8,2.3
			c3.5,0,8.2-2.1,5.8-5.5C145.4,176.8,141.6,177.4,139.2,179.4z"/>
		<path fill="none" d="M141.5,203.5c-0.1-0.7,1.2-0.3,1.6-1.6c-0.7,0.8-2.2,0.6-1.9,2.3c1.2,0.3,1.2-0.6,1.9-0.8
			C144.5,201.3,141.7,204.9,141.5,203.5z"/>
		<path fill="none" d="M81,107.2c1.2-0.9,2.1-2,1.9-4.3c-2-0.2-0.5,3.1-2.7,2.7c-0.8,0-0.5-1.1-1.6-0.8c-0.5-1-0.2-2.9-1.6-3.1
			C76.9,105,78.3,106.8,81,107.2z"/>
		<path fill="none" d="M30.5,200.4c0.2-2.4-0.5-4-2.7-3.9c-0.4,1.9-1.7,3-1.9,5.1C27.6,202.8,29.6,201.3,30.5,200.4z"/>
		<path fill="none" d="M142.7,199.3c-0.1-0.6-1.2-0.1-1.2-0.8c-1-2.4,2.7-2.3,1.2-3.9c0.1,2.1-2.4,1.5-1.6,4.3
			c0.5,0.4,1.4,0.4,1.9,0.8c0-0.2,0.1-0.5,0.4-0.4c0.2-1.5-0.7-4.1,1.2-3.9c0-0.1,0-0.3,0-0.4C142.2,194.6,143.7,198.2,142.7,199.3z
			"/>
		<path fill="none" d="M56.1,83.4c-1.6,1.3-4.3,2.1-4.7,4.7c1.4-0.7,2.6-1.7,3.9-2.7c0.9-0.7,2.1-1.4,2.7-1.9c0.7-0.7,1.6-1.3,2-2.2
			h-1.9C57.4,81.9,56.8,82.8,56.1,83.4z"/>
		<path fill="none" d="M50.7,95.9c1.9-0.6,3.8-1.7,6.2-1.9c5.7-0.5,7.5,2.5,8.5,6.2c0,0.4,0,0.8,0,1.2c-0.6,5.8-2.3,10.7-2.7,16.8
			c1.1,2.1,4.7,1.8,5.4,4.3c-1,0-1.2-0.8-1.9-1.2c-2-1.1-4.2-1.7-4.7-3.5c-0.4-1.7,0.7-2.8,1.2-4.7c0.5-2.2,0.5-4.4,0.8-6.6
			c-3.1,1.6-7.4,2.8-11.3,1.6c-0.3,1.6-0.2,5.8,0.4,7.8c0,0.1,0,0.3,0,0.4c0.1,14.6,4.8,24.5,15.1,28.9c2.1,0.6,5.1,0.3,7.8,0.4
			c1.6-0.9,3.7-0.5,5-0.8c10-4.5,17.7-11.3,22.1-21.4c-1.8-3.7-3.8-7.3-5-10.9c-1-2.8-1.4-5.3-2.7-7.4c0-0.1,0-0.3,0-0.4
			c-0.1-2.7-1.2-4.4-1.6-6.6c-0.2-1.3,0.1-3.1-0.4-4.3c-0.9-2.2-3.9-3.6-6.2-5.1c-2.5-1.6-4.9-3.1-7-4.7c0-0.1,0-0.3,0-0.4
			c-0.6-0.8-1.2-1.5-1.9-2.2H61.4C57.9,86.2,50.3,87.1,50.7,95.9z M65.4,133c0-0.1,0-0.3,0-0.4c0-0.1,0-0.3,0-0.4
			c0.9-0.9,1,0.7,1.6,1.2c0.9,0,1.8,0,2.7,0C69,135.1,66.1,133.7,65.4,133z M67,136.5c0.4-1.5,4.1-1.5,5.4-0.8
			C71.2,136.5,68.4,135.8,67,136.5z M71.7,129.8c-1.5,1.1-3.8,0.7-5.8,0.4c-1.3,0.1-1.7,1.1-3.5,0.8c-0.3-0.3-0.2-1.1-0.8-1.2
			c0-0.1,0-0.3,0-0.4c0.7-0.7,1.1,0.2,1.9,0.4c0.6-1.3,1.2-2.7,2.7-3.1c1.6,1.6,2.7-0.2,5,0c1.6,0.5,2.5,2.2,3.9,3.1
			c0.6,0.4,2.1-0.1,1.9,1.2C74.6,131.3,73.6,130.1,71.7,129.8z M79.8,109.6c-1.2,0.8-3.4-0.7-3.9-1.9c1.6,0.2,2.3,1.4,3.9,1.6
			C79.8,109.3,79.8,109.4,79.8,109.6z M89.9,105.3c-1.9,1.7-6,3.4-8.9,3.1c-0.4,0-1.1-0.6-1.6-0.8c-2.1-0.8-3.9-1.4-5.4-2.3
			c0.5-1.2,1.3-2.1,1.2-3.9c-0.2-0.5-2.2-1.1-1.2-1.6c1.8,0.6,3-1.1,5-1.2c2.9-0.1,5.4,1.6,7,2.3c1,0.5,2.3,0.7,2.7,1.6
			c-1.1-0.3-2.8-1.1-3.9-1.6c-1.2-0.5-7-2.9-7.4-0.4c4.6,1,8.6,2.6,12.4,4.3C89.9,105,89.9,105.1,89.9,105.3z M74,94.7
			c1.7-0.9,3-1.6,5-1.6c0.7,0,0.7,0.5,1.6,0.8c1.2,0.4,2.6,0.1,3.5,0.4c1.1,0.4,2.2,1.4,3.1,1.9c1,0.6,2.8,0.9,2.3,2
			c-3-1.1-7-2.5-11.3-2.3c-2,0.1-4.4,1.9-5,0C73.5,95.6,73.4,94.8,74,94.7z M72.8,119.7c2.4,0.4,2.5-1.4,2.3-3.5
			c1.9,1.4,0.3,5-1.9,4.7c-1.1-0.5-1.8-1.3-2.3-2.3c-1.4-0.3-1.7,0.7-3.1,0.4C68.8,116.8,72.2,118,72.8,119.7z"/>
		<path fill="none" d="M53.8,82.2c-0.7,0.7-3.1,1.9-1.9,3.1c1.4-1.7,4.2-2,5.2-4.2h-2C54.7,81.6,54.3,82.1,53.8,82.2z"/>
		<path fill="none" d="M63.9,204.7c1.3,2.4,2.6,4.9,4.3,7c2.1-1.5,0-3.2-0.8-4.7c-2.8-5.5-5.9-10.8-8.5-16c-0.6-1.1-1-2.1-1.6-3.1
			c-1.3-2.3-2.3-5.4-5-5.5c2,5.3,5.1,9.9,7.8,14.8C61.3,199.7,62.6,202.3,63.9,204.7z"/>
		<path fill="none" d="M144.6,187.2c-1.2,0-2.6-0.2-2.3,1.2c0.2,0,0.5-0.1,0.4-0.4c0.1-0.5,0.6-0.4,1.2-0.4c0.1,0.5-1.6,1.2-0.4,1.6
			C143.3,187.9,144.5,188.1,144.6,187.2z"/>
		<path fill="none" d="M35.9,189.9c1.2,2.1,2.4,4.3,3.5,6.2c1.2,2.2,2.3,4.2,3.5,6.2s2.4,4.3,3.5,6.2c1.8,3.3,3.5,6.1,5.4,9.4
			c1,1.7,2.1,5,5,4.7c-0.6-2.9-3.1-5.6-4.3-7.4c-0.4-0.6-0.5-1.1-0.8-1.6c-0.6-1-1-2.4-1.6-3.5c-0.2-0.4-1-0.8-1.2-1.2
			c-0.4-0.6-0.5-1.1-0.8-1.6c-1.3-2.3-2.3-4.1-3.5-6.2c-1.3-2.3-2.3-4.1-3.5-6.2c-1.3-2.3-2.4-4.2-3.5-6.2c-1.3-2.3-2.3-4.1-3.5-6.2
			c-1.7-3.1-2.7-7.2-6.6-8.2c0.2,2.5,2,4.2,3.1,6.2c0.5,1,1,2.1,1.6,3.1C33.7,185.9,34.8,187.8,35.9,189.9z"/>
		<path fill="none" d="M65.8,200.8c0.9,1.8,1.8,3.6,2.7,5.5C68.9,205.7,67,201.9,65.8,200.8z"/>
		<path fill="none" d="M37.1,218.8c-0.6-1.8-1.8-2.9-2.3-4.7c-0.9-0.2-1.2,1.5-1.2,1.9c0,0,1.2,2.4,1.2,2.3
			C35.4,218.9,36.5,218.7,37.1,218.8z"/>
		<path fill="none" d="M141.1,183.3c-1.6-0.1-1.5,2-1.9,3.5c-0.7,2.3-1.5,4.6-1.2,7.4c0.2,1.4,0.8,3.6,1.9,3.9
			c1.3-1.5-0.3-3.6-0.4-5.9C139.5,189.2,140.9,186,141.1,183.3z"/>
		<path fill="none" d="M150.1,182.5c-0.5-0.7-0.8-1.5-1.9-1.6c-1.7,0.5-2.8,1.6-5,1.6c-0.6,0.9-1.3,1.8-1.2,3.5
			c1.9,0.6,0.4-2.2,1.9-2c-0.1,0.9,0.1,1.5,0.4,2C146.6,185.3,149.5,185.1,150.1,182.5z"/>
		<path fill="none" d="M80.2,184.8c2.2,0.4,4.7-1.4,5.8,0.4c-0.2-0.4,0.5-1.1,0.4-1.2c-0.1-0.1-1,0-1.2,0c-1.6-0.2-2.3,0.3-3.1,0.4
			c-2.5,0.3-3.6,0.6-3.9,1.9c0.1,0,0.3,0,0.4,0C79,185.7,79.5,185.2,80.2,184.8z"/>
		<path fill="none" d="M75.5,191.1c0.7-1,1.8-2.3,1.6-3.1c-1.3,2.2-2.8,4.2-4.3,6.2c0.1,0,0.3,0,0.4,0
			C73.8,193.3,74.8,192.2,75.5,191.1z"/>
		<path fill="none" d="M68.9,206.7c0.2,0.7,0.8,1,0.8,1.9c1.5,0.3,1.3-1,1.9-1.6C70.4,208.6,70,207.9,68.9,206.7z"/>
		<path fill="#B32621" d="M108.5,82.2c1.2,1.4,2.6,2.8,3.1,4.7c0.8,2.8-0.3,5.2,0.4,7.4c3.2-3,3.2-10.1,0.2-13.1h-4.5
			C107.9,81.6,108.3,82,108.5,82.2z"/>
		<path fill="#B32621" d="M105.8,125.9c0.2,0.3,0.3,1,0.4,1.2c1.1,2.1,2,3.8,3.1,5.5c3.8,5.8,8.2,11.2,12.8,15.2
			c0.9,0.8,2.1,2.6,3.1,1.9c-2.3-4.4-4.3-8.9-6.6-13.3c-1.7-3.4-3.9-6.8-5.4-9.8c-0.6-1.1-0.9-2.4-1.6-3.5c-1.8-3.3-3.9-6.7-5.4-9.8
			c-0.6-1.1-1-2.4-1.6-3.5c-2.4-4.4-5.4-8.5-7.4-12.9c-0.7-1.4-0.3-1.6-0.8-2.7c-0.5-1-1.5-1.8-1.9-2.7c0-0.2-0.1-0.5-0.4-0.4
			c0,6.9,1.8,12.7,3.9,18.7c1.9,5.6,4.3,11,7,15.6C105.1,125.7,105.7,125.7,105.8,125.9z"/>
		<path fill="#B32621" d="M125.2,94.3c-4-1-8.5,0-10.9,1.2c-1,0.5-2.2,0.9-2.3,1.9c-0.4,1.5,1,1.1,0.8,2.3c1.9-0.8,3.1-3.8,5.8-4.3
			c1-0.2,3.2-0.5,4.3,0.8c-0.9,3.8-4.1,5.3-8.5,5.5c0.5,1.2,0.3,3.1,1.9,3.1C120.8,102.9,124.2,99.8,125.2,94.3z"/>
		<path fill="#B32621" d="M30.1,145.8c2.9,0.2,3.2-3.4,3.9-5.1c0.7-1.6,1.2-2.9,1.9-4.3c0.8-1.7,2-3.8,2.7-5.1
			c0.8-1.3,1.7-2.8,2.3-3.9c0.8-1.3,1.7-2.8,2.3-3.9c0.8-1.3,1.7-2.9,2.3-3.9c0.8-1.3,1.7-2.9,2.3-3.9c0.1-0.2,0.6-0.5,0.8-0.8
			c0.4-0.8,0.4-2.2,0.8-3.1c0.1-0.3,0.6-0.8,0.8-1.2c0.7-1.9,0.7-3.8-0.4-5.5c-2.7,7.7-6.6,13.9-10.5,20.3c-3.6,6-7.6,12-9.7,19.5
			C29.6,145.5,29.1,145.8,30.1,145.8z"/>
		<path fill="#B32621" d="M118.2,107.6c2.8,0.9,4,2.8,5.4,4.7c0.6,0.8,1.3,1.9,2.3,2.3c1.2,0.3,1.4-0.4,2.3-0.4
			C126.9,110.4,123.2,106.7,118.2,107.6z"/>
		<path fill="#B32621" d="M50.7,112.3c0.3,1.3-0.5,1.2-0.8,1.6c-0.2,0.3-0.2,0.9-0.4,1.2c-0.3,0.6-0.8,1.3-1.2,1.9
			c-0.7,1.4-1.2,3-1.9,4.3c-0.7,1.2-1.6,2.4-2.3,3.5c-4,6.4-7.6,12.6-10.1,20.3c1.7,0.3,2.2-0.7,3.9-0.4c3.4-6.4,6.4-13.2,10.1-19.1
			c1.3-2.1,3.1-4.2,3.5-6.2c0.5-2.3-0.3-4.3,0-6.6C51.4,112.4,51.1,112.2,50.7,112.3z"/>
		<path fill="#171717" d="M69.7,133.3c-0.9,0-1.8,0-2.7,0c-0.6-0.5-0.7-2.1-1.6-1.2c0,0.1,0,0.3,0,0.4c0,0.1,0,0.3,0,0.4
			C66.1,133.7,69,135.1,69.7,133.3z"/>
		<path fill="#B32621" d="M40.2,145c0,1.1,1.3,1.2,1.9,1.6c0.8,0.4,1.8,0.8,2.7,1.2c1.7,0.6,3.6,1.4,5.4,1.9
			c9.1,2.9,21.6,4.1,31.8,3.1c3-0.3,5.9-1.2,8.9-1.9c6.2-1.6,11.3-3.3,15.9-5.9c2.3-1.3,5.2-2.5,6.2-4.7c-1.3-1.4-1.5-3.9-3.9-4.3
			c-1,0.7-1.9,0.7-2.7,1.2c-0.5,0.3-0.7,0.9-1.2,1.2c-3.1,1.7-6.4,2.7-9.7,3.9c-4.8,1.8-9.8,3.8-14.4,3.9c-1,0-2.1-0.5-3.1-0.4
			c-0.7,0.1-1.4,0.7-1.9,0.8c-4.9,0.7-7.8,0-12-0.8c-0.7-0.1-1.5-0.3-2.3-0.4c-0.7-0.1-1.7-0.3-2.3-0.4c-2.6-0.5-5.2-2.2-8.2-2.3
			C47.6,142.5,43.8,144.4,40.2,145z"/>
		<path fill="#B32621" d="M16.5,153.2c-1.3-0.7-3.3-0.3-4.4,0.5v0.6C13.8,154.1,15.8,154.4,16.5,153.2z"/>
		<path fill="#B32621" d="M123.7,157.5c0.9,0.6,2.2,0.9,3.5,1.2c0.4-1,0.5-2.4,0.4-3.9C125.6,155,124.6,156.3,123.7,157.5z"/>
		<path fill="#B32621" d="M13.4,157.5c0.3,0.3,0.8,0.1,1.2,0.4c1,0.7,1.7,1.9,3.1,1.9c-0.6-1.2-0.2-3.4-0.8-4.7
			c-2-0.3-2.9,0.5-4.8,0.4v0.5C12.6,156.7,13.2,157.3,13.4,157.5z"/>
		<path fill="#B32621" d="M23.1,158.3c0.2-1.1-1.2-1-1.6-1.2c-0.9-0.4-1.6-2.4-3.1-2c-0.2,1.9,0.2,3.2,0.8,4.3
			C20.8,159.4,21.9,158.7,23.1,158.3z"/>
		<path fill="#B32621" d="M130.3,158.3c0.2-1.5-0.8-1.8-1.6-2.3c0,1,0,2.1,0,3.1C129.8,159.4,129.5,158.3,130.3,158.3z"/>
		<path fill="#B32621" d="M115.5,162.2c1.4,0.5,2.4,1.2,4.3,1.2c0.4-1.5,2.3-3.4,1.2-5.1C119.7,160.1,117.1,160.7,115.5,162.2z"/>
		<path fill="#B32621" d="M122.9,159.1c-0.5,1.6-1.4,2.8-1.6,4.7c2.4-0.7,4.7-1.5,5.4-3.9C125.1,160,124.7,158.8,122.9,159.1z"/>
		<path fill="#B32621" d="M29.7,162.2c-0.3-1.7-3-1.2-3.5-2.7c-0.4,0-0.8,0-1.2,0c-0.3,1.8,0.6,2.5,0.8,3.9
			C27.4,163.3,28.5,162.6,29.7,162.2z"/>
		<path fill="#B32621" d="M19.3,161.4c1.8,0.8,2.8,2.4,5,2.7c0-1.7-0.3-3-0.8-4.3C21.6,159.9,20,160.2,19.3,161.4z"/>
		<path fill="#B32621" d="M36.3,164.9c-1.4-0.6-2.4-1.5-4.3-1.6c0.4,1.2-0.4,3.1,1.2,3.9C34.2,166.4,36.1,166.5,36.3,164.9z"/>
		<path fill="#B32621" d="M112.4,163.4c-1.4,1.2-3.4,1.8-5.4,2.3c0.6,1.5,2.4,1.8,4.3,2c0.2-1.5,1.1-2.3,1.5-3.5
			C112.7,163.8,112.8,163.4,112.4,163.4z"/>
		<path fill="#B32621" d="M25.9,165.3c1.7,0.7,3.8,3.2,5.8,2.3c-0.6-1-0.7-2.4-0.8-3.9C28.8,163.9,26.9,164.2,25.9,165.3z"/>
		<path fill="#B32621" d="M114.7,163.8c-1.2,1.2-1.8,2.8-2.3,4.7c3.1-0.3,4.8-2,6.6-3.5C117.6,164.6,116.8,163.5,114.7,163.8z"/>
		<path fill="#B32621" d="M44.5,168.1c-2.1-0.6-3.7-1.7-6.2-1.9c0.6,1.6,0.8,3.6,2.3,4.3C41.5,169.2,43.9,169.5,44.5,168.1z"/>
		<path fill="#B32621" d="M33.6,169.2c1.5,0.8,3.3,1.4,5,1.9c0.2-2-0.9-2.7-1.2-4.3C35.8,167.3,34,167.6,33.6,169.2z"/>
		<path fill="#B32621" d="M98.4,168.8c0.5,1.7,2.2,2.3,3.9,2.7c1.2-1.1,1.8-2.9,2.3-4.7C102.3,167.3,100.7,168.4,98.4,168.8z"/>
		<path fill="#B32621" d="M106.2,167.7c-0.9,1.4-1.8,2.8-2.3,4.7c2.7-0.3,4.2-1.7,6.6-2.3C109.9,168.4,107.8,168.3,106.2,167.7z"/>
		<path fill="#B32621" d="M52.6,170.4c-1.7-0.8-4-0.9-5.8-1.6c0,1.8,1.1,2.5,1.6,3.9C50.5,172.6,51.6,171.6,52.6,170.4z"/>
		<path fill="#B32621" d="M94.9,169.6c-1.1,1.1-3.6,0.8-5,1.6c0.5,1.4,1.8,2.1,3.1,2.7c0.5-0.2,1.5-1.1,1.9-2
			C95.3,171.3,96.6,169.7,94.9,169.6z"/>
		<path fill="#B32621" d="M40.6,172c1.8,1,4.2,1.5,6.6,2c0.2-2-1.5-2.1-1.5-3.9C43.4,170.1,41.7,170.7,40.6,172z"/>
		<path fill="#B32621" d="M61.2,171.6c-2.4,0-4.3-0.4-6.2-0.8c0,2,1.3,2.5,1.9,3.9c1.2,0,1.5-0.8,2.3-1.2
			C59.6,172.6,61.2,172.9,61.2,171.6z"/>
		<path fill="#B32621" d="M96.9,171.2c-0.8,1.3-1.6,2.5-2.3,3.9c2.6-0.1,4.3-1.2,6.6-1.6C100.6,171.9,99.1,171.1,96.9,171.2z"/>
		<path fill="#B32621" d="M81.7,172.3c0.6,1.5,1.6,2.6,3.1,3.1c0.9-1.3,2.1-2.4,2.7-3.9C85.5,171.7,83.8,172.2,81.7,172.3z"/>
		<path fill="#B32621" d="M70.1,172.3c-2.6,0.7-5.9-1.3-7,0.4c1.3,0.9,1.6,2.8,3.5,3.1C67.9,174.8,69.2,173.7,70.1,172.3z"/>
		<path fill="#B32621" d="M79,172c-1.7,0.5-4,0.4-6.2,0.4c-0.5,1.3,1.7,2.9,3.1,3.5C77,174.6,78.9,174.2,79,172z"/>
		<path fill="#B32621" d="M53.4,172.3c-1.4,0.7-3.5,0.6-3.5,2.7c2,0.2,3.7,0.7,5.8,0.8C55.3,174.4,54.8,172.9,53.4,172.3z"/>
		<path fill="#B32621" d="M86,176.6c2.6,0,5-0.2,6.6-1.2c-1.4-0.8-2.1-2.3-4.3-2.3C87.5,174.2,86.5,175.2,86,176.6z"/>
		<path fill="#B32621" d="M61.9,173.5c-1.8,0.5-3.3,1.4-4.3,2.7c1.9,0.3,5,1.5,7,0.4C63.5,175.9,63.5,173.9,61.9,173.5z"/>
		<path fill="#B32621" d="M70.9,173.9c-1,1.1-2.5,1.7-3.1,3.1c1.5,0.8,4.5,0.2,6.6,0.4C73.7,175.8,72.5,174.6,70.9,173.9z"/>
		<path fill="#B32621" d="M80.2,173.9c-1.1,1.3-2.7,2-3.5,3.5c2.9,0.2,4.1,0.2,7,0C83.1,175.7,81.7,174.7,80.2,173.9z"/>
		<path fill="#B32621" d="M48,193c1.1-3.4,1.4-9.8-1.2-11.7c-2.7-0.6-3,1.2-3.9,2.3c-1.6-0.2-2.6,0.2-3.5,0.8
			c-0.1,0.5,0.1,1.1-0.4,1.2C40.3,189.8,44.2,191.3,48,193z"/>
		<path fill="#B32621" d="M154.3,193.4c1.7,0,2.5-1,3.5-1.7v-7.8c-1.5-0.7-2.1-2.2-3.9-2.6C153.7,183.5,154,189.5,154.3,193.4z"/>
		<path fill="#B32621" d="M92.2,189.9c-0.1,2.2,0.3,3.8,0.8,5.1c4.6-1.2,11.1-3.8,8.9-9.4c-1.2-0.5-1.7,0.2-3.5,0
			c-0.3-0.8-0.6-1.7-1.2-2.3c-0.8,0.2-1.7-0.2-2.3,0c-1.8,0.6-2.5,3.9-2.7,5.9c0,0.4,0.4,0.3,0.4,0.4
			C92.7,189.8,92.2,189.9,92.2,189.9z"/>
		<path fill="#B32621" d="M150.5,185.6c-0.4,0-0.8,0-1.2,0c0,0.6-1,0.3-0.8,1.2c1.1,4.7,0.1,6.7,1.2,11.3c1.6,0.3,1.1-1.8,1.2-2.7
			C151.2,191.7,150.1,188.7,150.5,185.6z"/>
		<path fill="#B32621" d="M121,194.6c0.1,0,0.3,0,0.4,0c0-2.2,0-4.4,0-6.6C120.4,189.4,121.2,192.5,121,194.6z"/>
		<path fill="#B32621" d="M46.8,196.9c-0.1,0.3,0,0.8-0.4,0.8c0.5,4.8,4.6,6,8.9,7c1.3-3,1.1-9.2-1.2-10.9c-2.8-0.8-2.6,1.5-3.9,2.3
			C48.8,196,47.4,196.1,46.8,196.9z"/>
		<path fill="#B32621" d="M87.2,197.7c-4,0-4.2,6.9-3.9,12.5c2.6-0.1,5.1-1.6,7-3.1c1.8-1.5,4.4-3.4,2.7-6.2c-1-0.9-2.3,0-3.5,0
			C89.2,199.3,88.6,198.1,87.2,197.7z"/>
		<path fill="#B32621" d="M105,197.7c-0.6,1.1-1.5,2-1.9,2.7c-0.2,0.4-0.1,0.8-0.4,1.2c-0.4,0.6-1.2,1-1.6,1.6
			c-0.2,0.4-0.2,0.9-0.4,1.2c-0.5,0.8-0.8,1.4-1.2,1.9c-1.6,2.6-3.7,5.6-5,7.8c-1.5,2.5-3.7,5.5-5,7.8c-0.4,0.8-0.8,1.3-1.2,2
			c-1,1.7-2.4,3.5-2.7,5.5c1.4-0.4,2.1,0.7,2.7,0c0.8-2.9,1.5-7.3,3.1-9c0.7-0.8,1.2-1.5,1.9-2.3c3.3-3.8,7.1-6.7,12-8.2
			C105.2,205.9,105.9,200.9,105,197.7z"/>
		<path fill="#B32621" d="M39.4,219.5c4.2,0.2,8.5,2.4,12.4,1.6c-4-6.6-7.7-13.6-11.3-20.7c-0.4,0-0.5-0.3-0.8-0.4
			c0-0.2-0.1-0.5-0.4-0.4c-1.3,2.8-2.6,6.4-3.5,9c-1.2,3.4-0.2,4.6,1.2,7C37.9,217,38.9,218,39.4,219.5z"/>
		<path fill="#171717" d="M114.4,205.1c-0.2,1.5,0.3,2.3,1.6,2.3C118.7,206.5,116.5,203,114.4,205.1z"/>
		<path fill="#B32621" d="M61.9,207.4c-2.9-0.7-2.8,1.6-4.3,2.3c-1.6-0.5-2,0-3.1,0.8c-1.5,4,5.1,7.5,8.5,7.4
			C63.6,214.9,64.3,209,61.9,207.4z"/>
		<path fill="#B32621" d="M96.1,218.8c1.5-1.7,3.3-3.2,5-4.3c0.9-0.5,1.9-0.7,2.7-1.2c0.6-0.3,2.2-0.5,1.9-2c-0.4,0-0.8,0-1.2,0
			c-8.7,3.7-14.9,10.8-15.1,21.4c0,0.2,0,0.3,0,0.5h1.4c0-6,2.2-10.8,4.5-13.8C95.5,219.3,95.9,219,96.1,218.8z"/>
		<path fill="#B32621" d="M80.2,216c-0.7-1-0.8-2.6-1.9-3.1c-5.2,0-5.9,6.6-5,11.3c3.4,0.1,5.1-2,7.4-1.9c1-1.9,3.5-2.2,3.1-5.5
			C83.1,216,81.7,215.9,80.2,216z"/>
		<path fill="#B32621" d="M55,224.2c-3.6-0.7-7.2-1.4-10.1-1.9c-3.5-0.7-7.9-2-11.3-2c-0.4,0-0.5,0.3-0.8,0.4c0,0.5,0.2,0.9,0.4,1.2
			c2.3,0.3,4.7,0.8,7,1.2c1.8,0.3,3.7,0.4,5.4,0.8c0.5,0.1,1.1,0.7,1.5,0.8c1.1,0.2,2.4,0.2,3.5,0.4c4.5,0.8,10.1,1.9,14,2.7
			c3.7,0.8,7.1,1.5,10.5,2.3s6.7,2.4,10.1,2.7c0.5,0.1,2.8,0.8,2.7-0.8c-4.1-1.4-8.4-2.5-12.8-3.5C68.7,227.1,61.2,225.4,55,224.2z"
			/>
		<path fill="#B32621" d="M40.6,230.9c-2.5-2.1-5.1-3.3-8.2-4.7c-0.6,0-1.3-0.1-1.2,0.8c0.1,0.3,0.3,0.5,0.8,0.4
			c4,1.4,6.9,3.4,9.1,6H43C42.4,232.3,41.8,231.8,40.6,230.9z"/>
		<path fill="#B32621" d="M67.8,145c1.3,1.2,5.9,1.1,7.8,0.4C72.9,145.4,69.9,145.6,67.8,145z"/>
		<path fill="#171717" d="M60.9,233.3h1.2c-0.1,0-0.1-0.1-0.2-0.1C61.5,233.1,61.2,233.2,60.9,233.3z"/>
		<path fill="#171717" d="M55.4,232.4c-0.9,0-1.3,0.4-1.7,0.9h2.8C56.3,232.9,56,232.5,55.4,232.4z"/>
		<path fill="#171717" d="M48,231.6c-0.1,0.5,0,1.1,0.2,1.7h2.6c-0.2-0.7-0.3-1.4-0.5-2.1C49.3,231.2,48.4,231.2,48,231.6z"/>
		<path fill="#171717" d="M51.9,82.6c-0.4-0.4-0.2-0.9,0.3-1.4h-3.4c0,0.2,0,0.4,0,0.7c0,0.3,0,0.5,0,0.8c0.7,3.6,0.2,9.2-1.6,12.1
			c-0.2,0.3-0.3,0.4-0.4,0.8c-1,2.8-1.9,5.6-3.1,8.2c-1.7,3.8-3.6,7.5-5.8,11.3c-0.3,0.5-0.8,1-1.2,1.6s-0.5,1.4-0.8,2
			c-0.4,0.6-1.2,1-1.6,1.6c-0.4,0.6-0.5,1.4-0.8,2c-4.6,7.6-10,16.3-12,26.9c-3.3,1.2-6.4,2.3-9.4,3.4v1.4c1.1-0.8,3.1-1.2,4.4-0.5
			c-0.7,1.1-2.7,0.9-4.4,1.1v1.3c1.8,0.1,2.8-0.7,4.8-0.4c0.6,1.2,0.2,3.4,0.8,4.7c-1.4,0-2.2-1.3-3.1-1.9c-0.4-0.3-0.8-0.1-1.2-0.4
			c-0.3-0.2-0.9-0.8-1.3-1.4v2.5c2.4,2.2,5.1,4.1,7.9,5.9c11.7,8,28.8,14.3,47.4,15.2c3.2,0.2,6.4-0.4,9.7-0.4
			c1.2,0,2.6,0.5,3.9,0.4s2.4-0.6,3.9-0.8c1.4-0.2,2.9-0.2,4.3-0.4c5.3-0.8,10-2.2,14.8-3.9c6.6-2.3,12.8-5.1,18.6-8.6
			c1.4-0.9,2.7-1.6,4.3-2.7c0.9-0.7,1.4-1,2.7-1.9c1-0.7,2.2-2.8,3.9-1.2c1,1.6-1.2,2.5-2.3,3.1c0,0-0.2,0.7-0.4,0.4
			c-0.9-1.1-0.5,0.3-1.2,0.8c-0.5,0.3-1.1,0.5-1.6,0.8c-0.5,0.4-0.7,0.8-1.2,1.2s-1.1,0.5-1.6,0.8c-1.1,0.8-2.6,1.8-4.3,2.7
			c-1,0.6-2.1,1-3.1,1.6c-0.2,0.1-0.2,0.7-0.4,0.8c-0.3,0.2-0.9-0.2-1.2,0c-0.2,0.1-0.2,0.7-0.4,0.8c-0.3,0.1-0.9-0.2-1.2,0
			c-2.9,1.4-6.1,3.1-9.7,4.3c-1.1,0.4-2.3,0.8-3.5,1.2c-3.6,1.1-7.1,2-11.3,2.7c-1.3,0.2-3,0.2-4.3,0.4c-1.4,0.2-2.6,0.7-3.9,0.8
			c-1.2,0.1-2.2-0.4-3.5-0.4c-3.3,0-6.6,0.5-9.7,0.4c-17.6-0.8-33.9-5.9-46.6-12.9c-2-1.1-3.9-2.6-5.8-3.9c-0.6-0.4-1.5-0.4-1.9-0.8
			c-0.1-0.1-0.2-0.6-0.4-0.8c-0.5-0.4-1.2-1-1.9-1.6c0,0-0.1,0-0.1-0.1v1.3c0.9,0.5,1.8,1.2,2,2.2c0.5,1.9-0.4,4.1-2,5.4v2.8
			c1.6-0.3,3.7,0.3,3.6,1.9c0,1.6-2,1.7-3.6,1.5v1.2c3.2-0.3,5.6-1.3,4.4-3.9c-0.7-1.4-2.2-1.2-4.3-1.9c1.1-1.5,3.9-2.6,6.2-1.6
			c0.5,1.2,1.6,2.5,1.6,4.3c0,4.4-4.5,7.4-7.9,3.9v1.6c0.6,1.2,0.6,2.8,0,4v1.6c0.3-0.3,0.7-0.5,1.3-0.6c0.3,2.8-0.2,4.8-1.2,7
			c0,0.1-0.1,0.1-0.1,0.2v3.5c0.4-1.1,0.7-2.2,1.3-3.3c0.2-0.5,0.5-1.3,0.8-1.9c2.6-5.7,6-12.4,9.7-17.6c0.2-0.5,0.5-0.8,1.2-0.8
			c0,0.3,0,0.5,0,0.8c-4.2,8.8-9.3,16.9-12.9,26v33h1.6c0.1-0.8,0.3-1.6,0.4-2.5c0.4-2.4,0.8-4.5,1.2-6.6c2.2-12.7,6.6-25.1,12-35.1
			c0.7-1.9,2.1-3.1,2.7-5.1c1,0.1,1.5,0.6,1.6,1.6c0.1,2.3-2.1,4.3-3.1,6.2c-1,1.8-1.5,3.9-2.3,5.8c-0.4,0.9-1.1,1.7-1.6,2.7
			c-0.2,0.6-0.2,0.9-0.4,1.6c-2.2,5.6-4.8,13.2-6.2,20.3c-0.7,3.6-1.2,7.5-2.1,11h1.3c0.1-0.3,0.2-0.6,0.3-0.9
			c1,0.1,1.8,0.5,2.5,0.9h9.3c0.2-1.1,0.4-2.1,0.6-3.3c1.8,0.1,2.9-0.9,3.9,0.4c0,1-0.3,2-0.7,2.9h1.6c0.5-0.6,0.9-1.3,1.4-1.3
			c0.9,0,1.2,0.6,1.6,1.3H41c-2.2-2.6-5.2-4.6-9.1-6c-0.5,0.1-0.7-0.1-0.8-0.4c-0.2-0.8,0.6-0.7,1.2-0.8c3,1.4,5.6,2.6,8.2,4.7
			c1.2,0.9,1.8,1.4,2.5,2.5h4.2c-0.1-1.3,0.7-2.3,2.2-2.9c1.7,0.2,1.5,2.1,2.7,2.7c1.3-0.1,1.5-1.4,2.7-1.6c1.2,0.1,1.9,0.7,2.3,1.6
			v0.1h2.4c1-0.9,2.6-1,3.4,0h26.4c0-0.2,0-0.4,0-0.5c0.3-10.6,6.4-17.8,15.1-21.4c0.4,0,0.8,0,1.2,0c0.3,1.4-1.4,1.6-1.9,2
			c-0.8,0.4-1.9,0.7-2.7,1.2c-1.8,1.1-3.5,2.6-5,4.3c-0.2,0.2-0.6,0.6-0.8,0.8c-2.3,3-4.5,7.7-4.5,13.8h3.9c-0.1,0-0.1-0.1-0.2-0.1
			c-2.1-0.1-2.4-2.6-0.8-3.5c0-0.9,0-1.8,0-2.7c1.4-0.7,2.6-0.8,3.9,0c1.4,0.8,3,1.4,4.3,2.3c-0.1,0.3-0.4,0.4-0.4,0.8
			c-0.6,1.2-1.6,2-2.3,3.1c-0.9-0.3-1.7-0.1-2.5,0.1h11.1c-0.1-0.8,0.2-1.7,0.8-2.1c0.7,0.1,0.9,1.1,0.8,2.1h9
			c0.9-0.3,1.8-0.5,3-0.5c0,0.2-0.1,0.3-0.1,0.5h1.3c0-0.4,0.1-0.8,0-1.3c0.1-1.4-0.1-2.5-0.4-3.5c0-1.3,0-2.6,0-3.9
			c-1.5-8.8-2.2-18.3-3.1-27.7c0-3.8,0-7.5,0-11.3c0.3-2,0.7-5.6,1.2-8.2c0.5-2.6,0.3-5.8,2.7-6.2c0.6,5.2-2,10.5-1.6,16.8
			c0,2.2,0,4.4,0,6.6c0,1.3,0,2.6,0,3.9c1.1,9.7,1.8,19.8,3.1,29.3c0,1.6,0,3.1,0,4.7c-0.1,0.3-0.1,0.6-0.1,0.9h8.4
			c-0.1-3.4-0.2-7.1-0.5-10.7c-0.9-8.9-3-18.3-3.5-27.7c-0.5-9,0.3-17.9,2.3-25.3c0.6-2.2,0.9-4.7,2.7-6.2c0.6,0.3,0.2,0.8,0,1.2
			c-0.3,0.9-1.2,2.3-1.6,3.5c-0.5,1.7-0.8,3.5-1.2,5.5c-1.5,7.7-1.5,15.9-0.8,25c0.3,3.9,1,7.6,1.6,11.3c0.5,3.9,0.7,7.8,1.2,11.7
			s1.2,7.6,1.2,11.3c0,0.2,0,0.4,0,0.5h1c0-0.2,0.1-0.3,0.2-0.5c1.7-2.3,4.4-3.7,6.6-5.5c2.1-1.7,4-4.3,7-5.1c0,0.6,0,1.3,0,1.9
			c0,0.1,0,0.3,0,0.4c0,1.8,0,3.6,0,5.5c-0.3,1.1-0.4,2.2-0.4,3.3h2.6c0.2-5.6,0.7-11,0.2-16.1c-1.2-0.7-1.4,1.1-1.9,1.2
			c-0.2,0-0.6-0.3-0.4-0.4c-1.2,0.7-2.4,1.9-3.5,2.7c-2.1,1.7-4.2,3.6-6.6,5.5c-1.1,0.9-2.1,1.9-3.5,2.3c0.2-2.1,2.5-3.2,3.9-4.3
			c1.8-1.4,3.5-2.9,5.4-4.3c0.1-0.1,0.3-0.7,0.4-0.8c0.8-0.4,1.7-1.2,2.7-1.9c0.4-0.3,1-0.1,1.5-0.4c0.8-0.5,1.6-2.8,3.5-2.3
			c0.5,6.9-0.3,12.8-0.6,18.9h5.7v-36.5c-2.5,1.8-5.5,4.3-8.2,6.4c-0.3,0.2-0.2,0.7-0.8,0.8c-0.3,0.1,0-0.3-0.4,0
			c-1.8,1.3-3.9,3-5.8,4.7c-1.9,1.6-3.6,3.4-5.8,5.1c-0.9,0.7-1.8,1.9-3.1,2c-1.2-2.1,0.1-3,1.2-4.3c0.1-0.1,0.6-0.7,0.8-0.8
			c0.3-0.2,0.9-0.1,1.2-0.4c0.6-0.5,0.7-1.2,1.2-1.6c2.2-1.8,4.6-3.4,6.6-5.1c1.5-1.2,2.6-2.7,4.3-3.5c2.9-1.5,5.8-4.8,9-6.4v-1.9
			c-1,0.7-1.8,1.7-3.5,1.7c-0.4-3.9-0.7-9.9-0.4-12.1c1.8,0.4,2.4,1.9,3.9,2.6v-1.8c-1.3-0.2-2.5-1.8-3.5-2.8
			c-1.4-1.2-3-2.1-3.9-3.5c0.2-1.5,1.7-1.7,1.9-3.1c0.3-1.8-0.6-2.5-0.8-3.9c1.3-1.2,3.5-3.4,2.3-5.9c-0.4-1-1.6-1.3-3.1-1.2
			c-0.2-1.7-1.8-1.9-3.5-2c0.8-1.5,2.6-1.3,3.9-1.9c0.4-0.2,0.8-0.5,1.2-0.8c0.3-0.2,0.9-0.5,1.2-0.8s0.1-0.8,0.4-1.2
			c0.6-0.7,1.7-1.9,1.9-3.9c0-0.1,0-0.3,0-0.4c0-1,0.1-2.2-0.4-2.7c-1.7,1-3.6,1.4-5.4,2.7c-0.5,0.4-0.6,1.5-1.6,1.2
			c0.4-2.1-0.5-3.8-0.4-5.5c0.1-1.1,1.1-1.8,0.8-3.1c0.5-0.4,1.4-0.4,1.9-0.8c0-0.6,0-1.3,0-1.9c3.7,1.1,4.1-2.3,7-3v-2.4
			c-2.3-0.4-3.9-4.1-7-2.8c0.3-2.2-1.7-2-2.7-2.7c-0.3-1.5,0.7-1.7,0.4-3.1c0-0.1,0-0.3,0-0.4c-1.6-1.5-2.4-3.8-3.5-5.9
			c-2.2,0.9-2.4,4.2-3.9,6.2c0.3,1,0.6,2,1.2,2.7c-0.8,1.6-1.9,0.5-3.1,1.6c0,0.8,0,1.6,0,2.3c-1.5-0.3-2.8-0.9-3.5-2
			c-2.1,1.2-3,3.7-4.7,5.5c0.1,1.3,1.3,1.6,2.3,2c0.6,1.2,1.8,1.9,2.7,2.7c1,0,1.4-0.7,1.9-1.2c1,0,0.6,1.5,1.2,1.9
			c1-0.1,1.9-0.1,2.3,0.4c-1.4,3.1,2.2,3.8,3.1,5.8c-0.2,1.4,0.5,3.9-0.4,4.7c0,0.1,0,0.3,0,0.4c0.1,0.6-0.4,0.7-0.4,1.2
			c-1.5,0.4-2.3-1.4-3.1-2.3c-1-1.1-1.6-2.7-2.7-3.5c-0.6-0.4-1.5-0.4-2.3-0.8c-1-0.4-2-0.9-3.1-1.6c-0.6-0.4-1.4-1.5-2.7-1.6
			c-2-4.5-5.9-11.5-8.5-16.8c-1.3-2.6-3-5.2-1.9-7.8c0.2-0.4,0.7-1.5,0.8-1.6c1.1-1.4,3.4-2,5.4-2.7c2.2-0.8,4.3-1.4,6.2-2
			c0.3-1.7-0.7-2.2-0.4-3.9c0-0.1,0-0.3,0-0.4c-0.7-1.7-1-3.6-1.2-5.9c-0.6-0.6-0.3-2.3-0.4-3.5c-1.1-7.4,0.9-14.7,4-19.4h-1.1
			c-0.2,0.6-0.8,1.2-1,1.8c-1.5,2.8-2.4,6.1-3.1,9.8c-3.7-1.1-6.9-2.5-11.6-1.6c0.2-3.7-0.1-6.9-1.2-9.4c-0.3-0.1-0.3-0.5-0.5-0.7
			h-3.2c3,3,3,10.1-0.2,13.1c-0.7-2.2,0.4-4.6-0.4-7.4c-0.5-1.9-1.9-3.3-3.1-4.7c-0.2-0.2-0.7-0.6-0.8-1H106
			c1.6,0.9,2.8,2.2,3.6,3.8c1.5,1.6,1.4,6,0.8,8.6c-2.7-0.9-2.2-4.4-1.9-7.4c-2-1.1-4.3-1.9-5-4.3c-0.5,0-0.5-0.3-0.4-0.7h-1.4
			c3.5,5.7,6.7,11.8,9.6,18.2c1.4,1.2,2,3.2,2.7,5.1c0.8,0.9,2,3.8,3.5,6.6c2.2,4.2,4.7,7.1,0,9.4c-2.1-4.1-4.5-8-6.6-12.1
			c-1.1-2-2-4.3-3.1-6.2c-0.8-1.5-1.7-2.6-2.7-4.3c-0.8-1.3-1.4-3.9-2.3-5.9c-0.6-1.2-1.6-2.3-2.3-3.5c-1.4-2.4-2.7-4.7-3.7-7.3
			h-4.5c0,0.6,0,1.2,0,1.8c-1.7-0.1-2.5-1.2-3.7-1.8h-1.4c1.5,0.8,2.7,1.9,4.3,2.6c-0.1,1.2,1,1.3,0.8,2.7c-1.7-0.5-3.7-1.7-5.4-2.7
			c-0.8-0.5-2.1-1-2.7-1.6c-0.4-0.3-1-0.6-1.3-1h-1.7c0.1,0.1,0.2,0.2,0.3,0.3c0.9,0.7,2.7,1.6,3.9,2.3c0.6,0.4,1.2,0.7,1.9,1.2
			c0.8,0.5,1.9,1.2,2.7,2c0.5,0.4,1.6,0.5,1.9,1.2c0.5,0.8,0.3,1.5,0.4,2.7c-2.9-1.8-6.1-3.7-9.3-5.9c-0.3-0.2-0.9-0.2-1.2-0.4
			c-0.2-0.1-0.2-0.7-0.4-0.8c-0.9-0.6-1.2-0.8-1.9-1.6c-0.2-0.2-0.4-0.5-0.5-1h-1c0.7,0.7,1.4,1.4,1.9,2.2c0,0.1,0,0.3,0,0.4
			c2.1,1.6,4.5,3.1,7,4.7c2.3,1.4,5.3,2.8,6.2,5.1c0.5,1.2,0.2,3,0.4,4.3c0.4,2.2,1.5,4,1.6,6.6c0,0.1,0,0.3,0,0.4
			c1.3,2.2,1.7,4.6,2.7,7.4c1.3,3.6,3.3,7.2,5,10.9c-4.4,10.1-12.2,16.9-22.1,21.4c-1.4,0.3-3.4-0.1-5,0.8c-1.8,0.7-6.4,0.8-7.8-0.4
			c-10.3-4.3-15-14.3-15.1-28.9c0-0.1,0-0.3,0-0.4c-0.5-2-0.7-6.2-0.4-7.8c3.9,1.3,8.2,0.1,11.3-1.6c-0.3,2.3-0.3,4.4-0.8,6.6
			c-0.4,1.9-1.6,3-1.2,4.7c0.5,1.8,2.7,2.4,4.7,3.5c0.7,0.4,1,1.2,1.9,1.2c-0.7-2.5-4.3-2.2-5.4-4.3c0.4-6.1,2.1-10.9,2.7-16.8
			c0-0.4,0-0.8,0-1.2c-1.1-3.8-2.8-6.7-8.5-6.2c-2.4,0.2-4.3,1.4-6.2,1.9C50.5,86.9,58.1,86,61.6,81h-1.3c-0.5,0.9-1.3,1.5-2,2.2
			c-0.6,0.5-1.8,1.2-2.7,1.9c-1.3,1-2.5,2.1-3.9,2.7c0.4-2.6,3.1-3.4,4.7-4.7c0.7-0.6,1.3-1.5,2.1-2.2H57c-0.9,2.2-3.8,2.4-5.2,4.2
			c-1.1-1.3,1.2-2.4,1.9-3.1c0.6-0.2,0.9-0.6,1.2-1h-1.1C53.3,81.8,52.2,81.9,51.9,82.6z M92.2,189.1c0.2-2,0.9-5.2,2.7-5.9
			c0.6-0.2,1.5,0.2,2.3,0c0.6,0.6,0.8,1.5,1.2,2.3c1.8,0.2,2.3-0.5,3.5,0c2.2,5.5-4.3,8.1-8.9,9.4c-0.5-1.3-0.9-2.9-0.8-5.1
			c0,0,0.5-0.1,0.4-0.4C92.6,189.4,92.2,189.5,92.2,189.1z M93,200.8c1.6,2.8-0.9,4.8-2.7,6.2c-1.9,1.5-4.4,3-7,3.1
			c-0.3-5.5-0.1-12.5,3.9-12.5c1.4,0.4,2,1.6,2.3,3.1C90.7,200.8,92,199.9,93,200.8z M80.6,222.3c-2.3-0.1-4,2-7.4,1.9
			c-0.8-4.7-0.2-11.4,5-11.3c1.2,0.5,1.3,2.1,1.9,3.1c1.5-0.1,2.9,0,3.5,0.8C84.1,220.1,81.5,220.4,80.6,222.3z M87.2,185.6
			c0.3-0.4,0.4-0.8,0.8-1.2c1-0.8,1.4-1,3.1-1.2c-1.6,3.9-4.5,6.9-6.6,10.5c-0.3,0.5-0.1,0.4-0.4,0.8l-0.4,0.4
			c-0.5,0.8-0.7,1.6-1.2,2.3c-0.1,0.1-0.7,0.3-0.8,0.4c-0.1,0.2,0.1,0.6,0,0.8c-0.1,0.1-0.7,0.3-0.8,0.4c-0.2,0.5-0.7,2.5-1.9,2.3
			c-0.5,1.2-0.8,2.4-1.6,3.5c-0.6,0.9-1.7,1.7-2.3,2.7c-0.3,0.5-0.4,1.3-0.8,1.9c-0.5,0.8-1.3,1.6-1.9,2.7c-0.2,0.4-0.6,1.2-0.8,1.6
			c-0.6,1-1.6,1.7-2.3,2.7c-0.6,1-0.9,2.2-1.6,3.1c-0.5,0.7-1.5,1.8-2.3,2.7c-0.7,0.8-1,2.6-2.7,1.9c-1-2.4,1.6-3.8,2.7-5.5
			c0.3-0.4,0.4-1.1,0.8-1.6c0.3-0.4,0.5-0.7,0.8-1.2s0.5-1.1,0.8-1.6c0.1-0.1,0.7-0.3,0.8-0.4c0.5-1,1.1-2.3,1.9-3.5
			c1.1-1.6,2.3-3.2,3.5-5.1c0.3-0.4,0.9-0.7,1.2-1.2c0.3-0.5,0.1-1.1,0.4-1.6s0.9-0.7,1.2-1.2c0.3-0.5,0.4-1,0.8-1.6
			c0.3-0.4,0.5-1.1,0.8-1.6c0.1-0.1,0.7-0.3,0.8-0.4c0.8-1.8,2.2-3.9,3.5-5.9c0.3-0.5,0.8-0.7,1.2-1.2c0.8-1.1,1.4-2.8,2.3-4.3
			C86.2,186.5,86.9,186.1,87.2,185.6z M54.6,210.6c1.1-0.8,1.5-1.3,3.1-0.8c1.4-0.8,1.4-3,4.3-2.3c2.3,1.5,1.6,7.4,1.2,10.5
			C59.6,218,53.1,214.5,54.6,210.6z M58.8,183.7c1.9,0,4.2-0.3,4.7,1.2c2.8,3.4,4.5,8,7.4,11.3c1.4,0.1,1.2-1.4,1.9-1.9
			c1.5-2,3-4,4.3-6.2c0.4-0.5,0.6-1.2,1.2-1.6c0.2-1.4,1.4-1.7,3.9-1.9c0.9-0.1,1.5-0.5,3.1-0.4c0.1,0,1.1-0.1,1.2,0
			s-0.6,0.8-0.4,1.2c-4.5,7.6-9.5,14.6-14.4,21.8c-0.6,0.5-0.5,1.9-1.9,1.6c0.1-1-0.6-1.2-0.8-1.9c-0.3,0.1-0.4-0.2-0.4-0.4
			c-0.9-1.8-1.8-3.6-2.7-5.5c-0.3,0.1-0.4-0.2-0.4-0.4c-0.8-1.8-2-3.2-2.7-5.1c-1.1-2-2.1-4-3.1-5.8c-1-1.9-2.5-3.7-2.7-6.2
			C57.5,183.5,58.9,182.8,58.8,183.7z M57.3,187.9c0.6,1,1,2,1.6,3.1c2.7,5.2,5.7,10.5,8.5,16c0.7,1.4,2.9,3.2,0.8,4.7
			c-1.7-2.1-3-4.6-4.3-7c-1.3-2.5-2.6-5-3.9-7.4c-2.6-4.9-5.8-9.5-7.8-14.8C55,182.5,56,185.7,57.3,187.9z M50.3,196.1
			c1.3-0.8,1-3.1,3.9-2.3c2.3,1.7,2.5,7.9,1.2,10.9c-4.3-1-8.5-2.2-8.9-7c0.4,0,0.3-0.5,0.4-0.8C47.4,196.1,48.8,196,50.3,196.1z
			 M39.4,184.4c0.9-0.6,1.9-1,3.5-0.8c0.9-1.2,1.2-2.9,3.9-2.3c2.6,1.9,2.3,8.3,1.2,11.7c-3.7-1.7-7.7-3.2-8.9-7.4
			C39.5,185.5,39.4,184.9,39.4,184.4z M30.9,180.5c-1.2-2.1-3-3.7-3.1-6.2c3.9,1,4.9,5.1,6.6,8.2c1.1,2.1,2.2,3.9,3.5,6.2
			c1.1,2.1,2.2,4,3.5,6.2c1.2,2.1,2.2,3.9,3.5,6.2c1.2,2.1,2.2,3.9,3.5,6.2c0.3,0.5,0.4,0.9,0.8,1.6c0.2,0.4,1,0.8,1.2,1.2
			c0.6,1.1,1,2.5,1.6,3.5c0.3,0.5,0.4,1,0.8,1.6c1.2,1.8,3.6,4.5,4.3,7.4c-2.9,0.3-4-2.9-5-4.7c-2-3.3-3.6-6.1-5.4-9.4
			c-1.1-1.9-2.3-4.2-3.5-6.2c-1.2-2.1-2.2-4-3.5-6.2c-1.1-1.9-2.3-4.1-3.5-6.2c-1.2-2.1-2.3-4-3.5-6.2
			C31.9,182.7,31.4,181.5,30.9,180.5z M33.6,216c0-0.4,0.3-2.1,1.2-1.9c0.5,1.8,1.8,2.9,2.3,4.7c-0.6-0.1-1.7,0.1-2.3-0.4
			C34.9,218.4,33.6,216,33.6,216z M35.9,208.6c0.9-2.6,2.2-6.1,3.5-9c0.3-0.1,0.4,0.2,0.4,0.4c0.3,0.1,0.4,0.4,0.8,0.4
			c3.6,7.1,7.3,14,11.3,20.7c-4,0.9-8.2-1.4-12.4-1.6c-0.5-1.5-1.5-2.5-2.3-3.9C35.7,213.2,34.8,212,35.9,208.6z M27.8,196.5
			c2.2-0.1,2.9,1.5,2.7,3.9c-0.9,0.9-2.9,2.3-4.7,1.2C26.1,199.5,27.4,198.4,27.8,196.5z M21.6,213.7c5-0.4,4.3,7.4-1.2,5.9
			C20.1,216.9,21.5,215.9,21.6,213.7z M23.5,231.2c-2.3-0.3-3.5-1.6-5.4-2.3c0.4-2.2,0.5-4.7,1.6-6.2c2.3,0.2,3.9-0.3,5.4-0.8
			C25.4,224.4,23.8,228.1,23.5,231.2z M30.1,206.3c-0.6,2-1.6,4.9-2.3,7c-1,1-1.3-1-2.3-1.2c-0.6-0.9-2.1-0.8-2.3-1.9
			c-0.3-2.6,1.2-3.5,1.6-5.5c2,0.1,3.9,0,5.4-0.4C31.4,204.3,30.3,205.8,30.1,206.3z M30.1,193.4c0.1-2.5,1.4-3.8,2.3-5.5
			c1.3,1.2,3.2,3.4,3.1,5.5c0,1.6-1.4,2.3-1.6,3.9c-1,0.1-1-0.8-1.2-1.6C32,194.9,30.7,194.5,30.1,193.4z M85.2,232.8
			c-3.4-0.3-6.7-1.9-10.1-2.7s-6.8-1.5-10.5-2.3c-3.9-0.8-9.4-1.9-14-2.7c-1.1-0.2-2.4-0.2-3.5-0.4c-0.5-0.1-1-0.7-1.5-0.8
			c-1.7-0.4-3.6-0.5-5.4-0.8c-2.3-0.4-4.7-0.9-7-1.2c-0.2-0.3-0.4-0.6-0.4-1.2c0.3-0.1,0.4-0.4,0.8-0.4c3.3-0.1,7.8,1.3,11.3,2
			c2.9,0.6,6.5,1.2,10.1,1.9c6.2,1.2,13.7,2.8,20.2,4.3c4.5,1,8.7,2.2,12.8,3.5C88.1,233.6,85.8,232.8,85.2,232.8z M105.4,209.8
			c-4.9,1.5-8.8,4.4-12,8.2c-0.7,0.8-1.2,1.6-1.9,2.3c-1.6,1.7-2.3,6.1-3.1,9c-0.6,0.7-1.3-0.4-2.7,0c0.3-2,1.7-3.8,2.7-5.5
			c0.3-0.6,0.7-1.2,1.2-2c1.3-2.3,3.5-5.3,5-7.8c1.4-2.2,3.5-5.2,5-7.8c0.4-0.6,0.7-1.2,1.2-1.9c0.2-0.3,0.2-0.8,0.4-1.2
			c0.3-0.5,1.2-1,1.6-1.6c0.3-0.4,0.2-0.8,0.4-1.2c0.4-0.7,1.4-1.6,1.9-2.7C105.9,200.9,105.2,205.9,105.4,209.8z M104.6,193
			c-0.3,0.3-0.5,0.8-0.8,1.2c-0.3,0.3-1,1.7-1.6,2.3c-0.3,0.3-0.5,0.8-0.8,1.2c-0.4,0.4-1,2.2-1.6,3.1c-0.5,0.8-1.4,1.5-1.9,2.3
			c-0.4,0.6-0.6,1.3-1.2,1.9c-0.3,0.3-0.5,0.8-0.8,1.2c-0.3,0.3-0.9,1.7-1.6,2.3c-0.3,0.3-0.5,0.8-0.8,1.2c-0.2,0.2-0.7,1.2-1.2,2
			s-1,2.2-1.9,3.1c-0.4,0.4-1,2.2-1.6,3.1c-0.1,0.2-0.7,0.3-0.8,0.4c-0.9,2-2.6,4.6-3.9,6.6c-0.9,1.4-1.5,4.1-3.9,3.1
			c-0.9-0.9,0.5-1.3,0.8-1.9c0.3-0.7,0.7-1.8,1.6-2.7c0.3-0.4,1.4-2.3,1.9-3.1c6.8-10.2,14.2-22,21-32.8
			C106.9,189.3,105.8,191.8,104.6,193z M102.7,227.7c-0.7-0.2-1.6-0.2-1.9-0.8c-1.3-0.6-2.6-1.3-3.9-2c-0.9-0.4-1.4-1.2-1.6-2.3
			c1.6-0.6,2.1-2.3,3.5-3.1c2.7,0.3,3,2.9,4.7,4.3C103.3,225.2,103,226.4,102.7,227.7z M103.1,221.5c-1.2-1.1-3.6-4.9,0.4-4.7
			c0.1,0,0.3,0,0.4,0c0-0.8,1.1-0.5,0.8-1.6c1.3-0.2,2.2,0.1,1.9,1.6c0.6,1.8,0.9,4.1,1.2,6.2C106,224.1,103.6,222.9,103.1,221.5z
			 M113.6,180.1c2.1-0.1,2.8,1.1,4.3,1.6c0,2.9,0,5.7,0,8.6c-1.7,0.7-3.1,1.8-5,2.3C112.4,189.3,113.2,183.9,113.6,180.1z
			 M117.8,194.2c0,1.7,0,3.4,0,5.1c-1.8-0.1-3.1-0.8-3.9-1.9C114.4,195.4,115.5,194.1,117.8,194.2z M112.4,201.2
			c1.6-0.8,3.1,1.5,5.4,1.2c0.9,1.8,1,4.5,1.2,7c-1.8,1.1-3.6,2.1-5.4,3.1C112.9,209,112.8,204.9,112.4,201.2z M121,228.5
			c0.1,0.5-0.1,0.7-0.4,0.8c-2.1,0.1-4,2.1-5.4,1.6c0.4-3.6-0.9-7.3-0.4-9.8c1.8,0.6,4,1,5.8,1.6C120.4,224.9,121.3,226.1,121,228.5
			z M119.8,219.1c-2,0.3-2.9-0.4-3.9-1.2c0-1,0-2.1,0-3.1c0.6-0.6,1.7-0.9,2.3-1.6C120.3,213.5,119.8,218.1,119.8,219.1z
			 M118.2,178.2c-1.6,0.1-2.3-0.8-2.7-2c0.3-1.6,2.5-3.1,3.9-2.3C118.7,175,119.3,177.4,118.2,178.2z M126,114.6
			c-1-0.4-1.7-1.5-2.3-2.3c-1.5-1.9-2.6-3.7-5.4-4.7c5-1,8.6,2.8,10.1,6.6C127.4,114.2,127.2,114.9,126,114.6z M129.9,110.3
			c-1.2-0.9-2.2-1.9-3.1-3.1c-1.2-1-2.8-1.6-4.3-2.3c0.1-1.5,1.6-1.5,1.9-2.7c1.4-1.6,2.3-3.7,3.5-5.5
			C128.9,100.9,129.5,105.6,129.9,110.3z M116.3,104.9c-1.6-0.1-1.5-1.9-1.9-3.1c4.5-0.2,7.6-1.7,8.5-5.5c-1.1-1.3-3.2-1-4.3-0.8
			c-2.8,0.5-3.9,3.5-5.8,4.3c0.2-1.2-1.2-0.9-0.8-2.3c0.1-1,1.4-1.5,2.3-1.9c2.4-1.2,6.9-2.2,10.9-1.2
			C124.2,99.8,120.8,102.9,116.3,104.9z M115.5,100.2c0.1-1.4,0.9-2,1.9-2.3c0.8-0.8,1.8-1.3,3.5-1.2c-0.1,2.4-2.2,2.8-3.9,3.5
			C116.6,100.2,116,100.2,115.5,100.2z M117.8,109.2c3.2,0.7,5.1,2.7,5.8,5.9C120.4,114.4,118.6,112.3,117.8,109.2z M29.7,145
			c2.1-7.5,6.1-13.5,9.7-19.5c3.8-6.4,7.8-12.6,10.5-20.3c1.1,1.6,1.1,3.5,0.4,5.5c-0.1,0.4-0.7,0.9-0.8,1.2c-0.4,1-0.4,2.3-0.8,3.1
			c-0.1,0.3-0.6,0.5-0.8,0.8c-0.6,1-1.5,2.6-2.3,3.9c-0.6,1-1.6,2.6-2.3,3.9c-0.6,1-1.6,2.6-2.3,3.9c-0.6,1.1-1.5,2.6-2.3,3.9
			c-0.7,1.2-1.9,3.4-2.7,5.1c-0.7,1.4-1.3,2.7-1.9,4.3c-0.7,1.6-1,5.3-3.9,5.1C29.1,145.8,29.6,145.5,29.7,145z M51.5,119.3
			c-0.4,2.1-2.2,4.2-3.5,6.2c-3.7,5.9-6.7,12.7-10.1,19.1c-1.7-0.3-2.2,0.7-3.9,0.4c2.5-7.7,6.1-13.9,10.1-20.3
			c0.7-1.1,1.6-2.3,2.3-3.5c0.8-1.3,1.2-2.9,1.9-4.3c0.3-0.6,0.8-1.4,1.2-1.9c0.1-0.3,0.2-0.9,0.4-1.2c0.2-0.3,1.1-0.3,0.8-1.6
			c0.4-0.1,0.7,0.1,0.8,0.4C51.1,115,51.9,117,51.5,119.3z M18.5,155.2c1.5-0.4,2.2,1.6,3.1,2c0.3,0.1,1.8,0,1.6,1.2
			c-1.2,0.4-2.3,1.1-3.9,1.2C18.7,158.4,18.3,157,18.5,155.2z M19.3,161.4c0.8-1.2,2.3-1.6,4.3-1.6c0.4,1.3,0.8,2.6,0.8,4.3
			C22.1,163.8,21,162.2,19.3,161.4z M25.9,165.3c1.1-1.1,3-1.4,5-1.6c0,1.5,0.2,2.9,0.8,3.9C29.7,168.5,27.6,166.1,25.9,165.3z
			 M25.1,159.5c0.4,0,0.8,0,1.2,0c0.5,1.5,3.2,1,3.5,2.7c-1.3,0.4-2.3,1.1-3.9,1.2C25.7,162,24.8,161.3,25.1,159.5z M24.3,152.1
			c-0.8-4.6,9.2-5.9,13.6-6.6c0.8,0.7,2,1.1,1.6,3.1c3.7-0.7,6.4-0.2,6.6,3.5c1.3-0.6,2.5-1.4,4.7-1.2c0.9,0.8,2.1,1.3,1.9,3.1
			c2.3-1.4,7.3-1.9,7.8,1.6c1.8-0.6,3-1.8,5-1.6c1.8,0.2,2.2,1.6,3.5,2.3c1.6-0.5,2.4-2.2,4.3-2.3c2.1-0.1,3.2,1.2,4.7,2.3
			c1.2,0.3,0.8-1,1.6-1.2c0.7-0.1,1.3-0.3,1.6-0.8c2.7-0.2,4.8,0.1,5.8,1.6c1.4-0.6,1.5-2.5,3.1-3.1c1.8-0.7,3.7-0.1,5.4,0.8
			c1.4-1.1,2.2-3,4.3-3.5c1.6-0.2,2.2,0.7,3.5,0.8c1.2,0,0.5-1.8,1.2-2.3c0.7-0.3,1.2-0.9,1.6-1.6c1.4-0.3,2.8-0.5,4.7-0.4
			c1.7-1.6,1.8-3.8,3.9-3.9c2.2-0.1,7,6.5,8.9,7.8c-0.6,2.4-3.1,2.8-6.2,2.7c-1.3,0.5-1.1,2.5-1.9,3.5c-0.5,0.4-1.4,0.4-1.5,1.2
			c-2.4,0.2-4.4,0-5.8-0.8c-1.1,0.5-0.6,2.2-1.2,3.1c-1.3,2.2-5,3.4-8.2,1.2c-1.2,0.7-1.3,2.6-2.3,3.5c-1.9,0.6-6.8,1.9-7.4-0.8
			c-2.3,1.1-4.5,3.6-7.4,2.7c-1.3-0.4-1.7-1.1-2.7-2.3c-1.6,2.7-7.6,3.9-9.7,0.8c-1.5,0.8-3.6,2.2-5.8,1.9c-1.8-0.2-2.8-1.3-3.9-2.3
			c-1.6-0.2-2.4,1.1-3.9,1.2c-2.9,0.1-4-1.6-5.4-3.5c-4.5,1.3-8.4-0.4-9.3-3.9c-3.1,1.1-5.6,0.4-7.8-1.2c-0.1-1.3-1-1.9-0.8-3.5
			C28.7,155,24.7,154.3,24.3,152.1z M32.1,163.4c1.9,0.1,2.9,1,4.3,1.6c-0.3,1.6-2.2,1.5-3.1,2.3C31.7,166.5,32.5,164.6,32.1,163.4z
			 M38.7,171.2c-1.7-0.6-3.5-1.1-5-1.9c0.4-1.7,2.2-2,3.9-2.3C37.7,168.5,38.8,169.2,38.7,171.2z M38.3,166.1
			c2.5,0.2,4.1,1.3,6.2,1.9c-0.6,1.5-3,1.2-3.9,2.3C39.1,169.7,38.9,167.7,38.3,166.1z M40.6,172c1.1-1.2,2.8-1.9,5-1.9
			c0,1.8,1.7,1.9,1.5,3.9C44.8,173.5,42.4,173,40.6,172z M46.8,168.8c1.8,0.7,4.1,0.8,5.8,1.6c-1,1.2-2.2,2.2-4.3,2.3
			C47.9,171.4,46.8,170.6,46.8,168.8z M49.9,175.1c0-2.1,2.1-2,3.5-2.7c1.4,0.5,1.8,2,2.3,3.5C53.6,175.8,51.9,175.3,49.9,175.1z
			 M55,170.8c2,0.4,3.8,0.8,6.2,0.8c0,1.3-1.6,1-1.9,2c-0.8,0.3-1.1,1.2-2.3,1.2C56.3,173.3,54.9,172.8,55,170.8z M57.7,176.2
			c1-1.4,2.5-2.2,4.3-2.7c1.6,0.4,1.6,2.3,2.7,3.1C62.7,177.7,59.6,176.5,57.7,176.2z M66.6,175.9c-1.9-0.3-2.2-2.2-3.5-3.1
			c1.1-1.6,4.4,0.3,7-0.4C69.2,173.7,67.9,174.8,66.6,175.9z M67.8,177c0.6-1.4,2.1-2,3.1-3.1c1.6,0.7,2.8,1.9,3.5,3.5
			C72.2,177.2,69.3,177.8,67.8,177z M75.9,175.9c-1.4-0.6-3.6-2.2-3.1-3.5c2.2,0,4.5,0.1,6.2-0.4C78.9,174.2,77,174.6,75.9,175.9z
			 M76.7,177.4c0.8-1.5,2.4-2.3,3.5-3.5c1.5,0.8,2.9,1.8,3.5,3.5C80.8,177.7,79.6,177.7,76.7,177.4z M81.7,172.3
			c2.1-0.1,3.8-0.6,5.8-0.8c-0.7,1.5-1.9,2.6-2.7,3.9C83.3,174.9,82.3,173.9,81.7,172.3z M86,176.6c0.5-1.5,1.5-2.4,2.3-3.5
			c2.1,0.1,2.9,1.6,4.3,2.3C91,176.5,88.6,176.6,86,176.6z M93,173.9c-1.3-0.6-2.6-1.3-3.1-2.7c1.5-0.7,3.9-0.5,5-1.6
			c1.6,0.1,0.3,1.7,0,2.3C94.5,172.8,93.5,173.7,93,173.9z M94.6,175.1c0.7-1.4,1.5-2.6,2.3-3.9c2.3-0.1,3.7,0.7,4.3,2.3
			C98.8,173.9,97.2,175,94.6,175.1z M102.3,171.6c-1.7-0.5-3.4-1-3.9-2.7c2.3-0.4,3.9-1.6,6.2-2
			C104.1,168.7,103.5,170.4,102.3,171.6z M103.9,172.3c0.5-1.8,1.4-3.3,2.3-4.7c1.6,0.6,3.7,0.7,4.3,2.3
			C108.1,170.6,106.6,172.1,103.9,172.3z M107,165.7c2-0.6,4.1-1.1,5.4-2.3c0.4,0,0.3,0.5,0.4,0.8c-0.5,1.2-1.3,2-1.5,3.5
			C109.4,167.5,107.5,167.2,107,165.7z M112.4,168.4c0.5-1.9,1.2-3.5,2.3-4.7c2-0.2,2.8,0.8,4.3,1.2
			C117.2,166.5,115.5,168.2,112.4,168.4z M119.8,163.4c-1.9,0-2.9-0.7-4.3-1.2c1.6-1.5,4.1-2.1,5.4-3.9
			C122.1,160,120.2,161.9,119.8,163.4z M121.3,163.8c0.2-1.9,1.1-3.1,1.6-4.7c1.8-0.2,2.2,0.9,3.9,0.8
			C126,162.2,123.7,163,121.3,163.8z M140,205.9c-1.4,0.2-1.2-1.2-1.2-2.3c-1.4-0.2-1.9,0.5-2.7,0.8c-0.3,1.1,0.6,1,0.4,1.9
			c0.1,0.9-0.1,1.5-0.4,2c-0.6-0.6-2-0.3-3.1-0.4c0-0.5,0-1,0-1.6c0-0.3,0-0.5,0-0.8c0.8-0.4,1.5-0.8,2.3-1.2c0-0.4,0-0.8,0-1.2
			c-0.9-0.2,0.1-2.4-0.8-2.7c-0.3,0.1-0.4-0.2-0.4-0.4c-0.8,0-1.6,0-2.3,0c0-0.8,0-1.6,0-2.3c0.7-0.4,2.1,0,1.9-1.2
			c0-0.9,0-1.8,0-2.7c-0.7-1.2-3.2-0.7-2.7-3.1c0.8-0.2,1.1-1,2.3-0.8c0-1-0.1-1.9,0.4-2.3c0.8-1.1,2.4,0.1,3.5,0c0,0.8,0,1.6,0,2.3
			c-0.4-0.7-1.6-2.6-2.7-1.2c0,1.4,0,2.9,0,4.3c-0.2,1.1,2.1-0.3,1.9,0.8c0.3,0.1,0.4,0.4,0.8,0.4c0.2,2.1-3.1,0.8-2.3,3.5
			c0.1,0.3,0.4,0.4,0.4,0.8c-0.2,1.3,0.3,1.8,0.4,2.7c1,0.1,1.9,0.1,2.3-0.4c0.2-0.3,0.4-0.6,0.4-1.2c1.6,0.4,1.1,2.8,1.6,4.3
			C140,204.6,140,205.2,140,205.9z M140,198.1c-1.2-0.3-1.8-2.5-1.9-3.9c-0.4-2.8,0.4-5.1,1.2-7.4c0.5-1.5,0.4-3.6,1.9-3.5
			c-0.2,2.8-1.7,6-1.6,9C139.7,194.5,141.3,196.6,140,198.1z M143.5,189.1c0,1.5-0.8,2.1-1.9,2.3c-1.1-1.2,0.2-2.4,0.8-3.1
			c-0.2-1.4,1.2-1.2,2.3-1.2C144.5,188.1,143.3,187.9,143.5,189.1z M144.2,186c-0.3-0.5-0.5-1-0.4-2c-1.6-0.3-0.1,2.5-1.9,2
			c-0.1-1.7,0.5-2.6,1.2-3.5c2.2,0,3.3-1.1,5-1.6c1.1,0,1.4,0.9,1.9,1.6C149.5,185.1,146.6,185.3,144.2,186z M143.1,181.3
			c0-1,0.2-2.3-0.8-2.3c-1.1,0.4,0.5,1.2,0,2.3c-0.9,0.6-1.9,1-3.5,0.8c-0.2-1.3,0.3-1.8,0.4-2.7c2.4-2,6.2-2.6,9.7-3.5
			C151.3,179.2,146.6,181.4,143.1,181.3z M147,199.6c-0.1-1.9-0.6-3.3-0.8-5.1c-1.1-0.3-0.8,0.8-1.6,0.8c-1.9-0.2-0.9,2.4-1.2,3.9
			c0.5,0.5,1.4,0.4,2.3,0.4c0.2,2.4-1.7,2.8-2.7,3.9c-0.7,0.2-0.7,1.1-1.9,0.8c-0.3-1.7,1.3-1.6,1.9-2.3c0-0.8,0-1.6,0-2.3
			c-0.5-0.4-1.4-0.4-1.9-0.8c-0.8-2.8,1.7-2.2,1.6-4.3c-0.1-1.6,1-3.4,2.3-2.3c0,0.1,0,0.3,0,0.4c0.6,0.1,0.1,1.2,0.8,1.2
			c1.5-1.9-1.2-5.8,0.8-7c1.3-0.4,0.6,1.2,0.8,1.9c0.2,0.9,0.3,3.2,0.4,5.9C147.8,196.4,149,199.2,147,199.6z M150.8,195.4
			c-0.1,1,0.4,3-1.2,2.7c-1-4.6-0.1-6.7-1.2-11.3c-0.2-0.9,0.7-0.6,0.8-1.2c0.4,0,0.8,0,1.2,0C150.1,188.7,151.2,191.7,150.8,195.4z
			 M148.5,175.1c-1.3,0-0.4-2.2-1.2-2.7c-0.9,0.2-0.2,1.9-0.4,2.7c-0.8,0.2-1.1,1-2.3,0.8c-0.2-1.5-1.2-3.8-2.7-2.7
			c-0.3,1.5,2.1,0.3,1.6,1.9c-0.1,1.8-2.2,1.7-3.1,0.8c0.3-3.5,2.8-4.7,6.6-4.7c1.2-0.6,2.3-1.3,4.3-1.2
			C152.6,172.9,149.9,175,148.5,175.1z M142.3,170.4c-0.1-2.5,1.5-3.2,3.5-3.5c0.3,0.8,1,1.3,0.8,2.7
			C145.7,170.3,143.7,171.4,142.3,170.4z M152.8,163c0.2,0.3,0.3,0.7,0.8,0.8c-0.2,2.3-1.3,3.6-3.1,4.3c0.1-1-0.6-1.2-0.8-1.9
			c-0.9,0.8,0.6,2.4-0.4,3.5c-0.3-0.3-1.1-0.6-1.2,0c-1.1-0.6-1.1-2.3-1.6-3.5c1.1-0.2,1.2-1.4,2.7-1.2
			C150.1,164,150.7,162.7,152.8,163z M148.1,155.2c0.5-0.7,1-1.3,1.6-1.9c0.5-0.4,1.3-2.1,2.3-2.7c0.5-0.3,3.3-1.4,2.7,0
			c0.1,3.4-1.8,4.7-3.5,6.2c-1.1-0.7,0.9-1.4,0.4-2.7c-1.1,1.3-3,1.7-3.9,3.1C146.8,156.9,148.5,156.1,148.1,155.2z M152.4,133.3
			c2,0.7,3.2,2.2,5,3.1c-1.5,1.3-3,2.4-4.7,3.5c-2.5-0.3-3.9-1.8-5.4-3.1c0-0.5,0-1,0-1.6C148.8,133.8,150.7,134.8,152.4,133.3z
			 M144.2,122.4c0.4-0.1,0.7,0.1,0.8,0.4c0.2,1.5,2.1,2.6,2.3,4.3c0.3,2.3-1,4.9-2.3,6.2c-1.3,0.1-1.5-1.6-1.9-2.7
			c-0.3-0.9-0.8-2.7-0.8-3.5C142.4,125.2,143.9,123.9,144.2,122.4z M146.2,135.3c0.2,1.6-0.4,2.5-1.9,2.3c0-0.1,0-0.3,0-0.4
			C141.8,136.3,145.3,132.9,146.2,135.3z M139.6,138.8c-0.9,0.6-2.1,1.2-3.1,1.6c-1.8-0.8-3.1-2.1-3.9-3.9c1.2-0.9,1.9-2.3,2.7-3.5
			c0.4,0,0.8,0,1.2,0c1.1,2,4.8,1.4,5.8,3.5C142.1,137.8,140.6,138.2,139.6,138.8z M142.3,144.7c0.2-2.4,1.1-4.1,1.9-5.8
			c0.6,0,1.3,0,1.9,0c0.1,1.9,1.8,3.5,1.6,5.5c-0.2,1.4-1.2,2.3-2.3,3.1C143.8,147,143.2,145.7,142.3,144.7z M144.2,156.4
			c0.1-0.8,1-2.2,1.2-3.5s0.2-2.4,0-3.5c0.7-0.4,0.7-1.4,1.2-2c1.4,0.7,0.9,2.9,0.8,4.3c-0.1,1.3-0.7,3.1-1.2,4.7
			c-0.4,1.4-0.6,3.3-1.6,3.9C143.2,160.1,144,157.5,144.2,156.4z M149.7,161.8c0.1,3.2-3.4,2.8-5.4,3.9c-1.3,1-2.1,2.6-3.5,3.5
			c0,0.1,0,0.3,0,0.4c1.7,2.6-2.9,5.1-0.4,7.4c-0.4,1.9-2.3,2.1-2.7,3.9c-0.2,1.9,1.8,1.6,1.2,3.9c-0.7,0.1-0.2,1.3-0.8,1.6
			c-3,0.3-4.8-0.6-7-1.2c-0.3-6.7,1-11.8,2.3-16.8c2-1.6,4.7-3.7,7.4-5.5C142.5,161.9,146.6,160,149.7,161.8z M143.1,157.5
			c0.4,3.9-2.6,4.4-4.7,5.9c-0.4,0.1-0.7-0.1-0.8-0.4c-0.7-1.5-1.4-3-1.9-4.7C137.8,157.7,140.7,157.9,143.1,157.5z M130.7,146.6
			c1.1,0.6,2.2,1.2,3.1,1.9c3,0.1,4.1,1.9,5.8,3.9c0.9,1.1,2.4,2,2.3,3.5c-2.8-0.2-4.9-3.9-6.6-3.5c1.2,1.5,2.4,3,4.3,3.9
			c0,0.4-0.5,0.3-0.8,0.4C133.2,158.1,128.8,152.8,130.7,146.6z M128.7,156c0.7,0.6,1.7,0.9,1.6,2.3c-0.8,0-0.5,1.1-1.6,0.8
			C128.7,158,128.7,157,128.7,156z M127.2,158.7c-1.3-0.3-2.6-0.5-3.5-1.2c1-1.2,1.9-2.5,3.9-2.7
			C127.6,156.3,127.6,157.7,127.2,158.7z M98.1,109.9c-2-6-3.9-11.8-3.9-18.7c0.3-0.1,0.4,0.2,0.4,0.4c0.5,1,1.5,1.7,1.9,2.7
			c0.5,1.1,0.1,1.3,0.8,2.7c2,4.3,5,8.5,7.4,12.9c0.6,1.1,1,2.4,1.6,3.5c1.6,3,3.7,6.5,5.4,9.8c0.6,1.1,1,2.4,1.6,3.5
			c1.5,3,3.7,6.4,5.4,9.8c2.3,4.4,4.3,8.9,6.6,13.3c-1,0.6-2.2-1.1-3.1-1.9c-4.7-4.1-9-9.5-12.8-15.2c-1.1-1.7-2-3.3-3.1-5.5
			c-0.1-0.2-0.2-0.8-0.4-1.2c-0.1-0.2-0.7-0.2-0.8-0.4C102.4,120.9,100,115.6,98.1,109.9z M97.3,133.3c2.4-2.4,3.8-5.8,5.8-8.6
			c2,2.3,3.3,5.3,5,7.8c-1,2.4-3.9,3.2-6.2,4.3c-3.6,1.6-7.2,3.3-11.6,4.7c-0.5,0-1,0-1.6,0C91.9,139.1,94.7,136.3,97.3,133.3z
			 M60.8,142.3c-1.2-0.4-3.2,0.1-3.1-1.6C59.2,140,60.6,140.7,60.8,142.3z M59.6,145c0.7,0.1,1.6,0.3,2.3,0.4
			c0.9,0.1,1.6,0.2,2.3,0.4c4.2,0.8,7.1,1.5,12,0.8c0.6-0.1,1.3-0.7,1.9-0.8c1-0.1,2.1,0.4,3.1,0.4c4.5-0.1,9.5-2.1,14.4-3.9
			c3.3-1.2,6.6-2.2,9.7-3.9c0.5-0.3,0.7-0.9,1.2-1.2c0.8-0.5,1.8-0.4,2.7-1.2c2.3,0.4,2.6,2.8,3.9,4.3c-1,2.2-3.9,3.4-6.2,4.7
			c-4.6,2.6-9.7,4.3-15.9,5.9c-3,0.8-6,1.7-8.9,1.9c-10.2,1-22.7-0.2-31.8-3.1c-1.8-0.6-3.7-1.3-5.4-1.9c-0.9-0.3-1.9-0.7-2.7-1.2
			c-0.7-0.4-1.9-0.5-1.9-1.6c3.6-0.7,7.4-2.6,11.3-2.3C54.4,142.9,57.1,144.5,59.6,145z M57.3,107.6c-0.9,0-1.8,0-2.7,0
			c-0.7-1.1-1.9-1.7-1.5-3.9c1.4-0.4,0.4,1.7,1.2,1.9c0.1,0.8,1,0.8,1.6,1.2c2,0.1,1.4-2.5,2.3-3.5C60.3,103.9,57.8,107,57.3,107.6z
			 M59.2,107.2c-0.1-1.4,0.7-1.9,0.8-3.1c1.5-0.3,1.4,1,2.3,1.2C61.8,106.4,60.6,106.9,59.2,107.2z M59.2,95.9
			c2.1,0.3,4.5,2.1,5,3.9c0.4,1.5-0.3,3.3,0,5.1c-1.8,0.6-2.9-2.2-5.4-2.7c-2.3-0.5-4.7,0.3-7.4,0.4C48.4,98.7,54.1,95.1,59.2,95.9z
			"/>
		<path fill="#171717" d="M78.3,95.9c4.2-0.1,8.3,1.2,11.3,2.3c0.5-1.1-1.3-1.3-2.3-2c-0.9-0.6-2-1.6-3.1-1.9
			c-0.9-0.3-2.3,0-3.5-0.4c-0.9-0.3-0.8-0.8-1.6-0.8c-2.1,0-3.4,0.7-5,1.6c-0.5,0.1-0.4,0.9-0.8,1.2C73.8,97.8,76.2,96,78.3,95.9z"
			/>
		<path fill="#171717" d="M55.4,100.6c2.7-0.5,5.1,1.3,6.6,0.8c-1.9-1.3-4.7-1.8-8.2-1.6c-0.1,0.9-1.8,0.2-1.5,1.6
			C53.6,101.5,54.1,100.6,55.4,100.6z"/>
		<path fill="#F7CC00" d="M121,96.7c-1.7-0.2-2.7,0.4-3.5,1.2c-0.3,0.8-1.2,0.9-1.6,1.6c0,0.6,1.1,0.2,1.2,0.8
			C118.8,99.4,120.8,99,121,96.7z"/>
		<path fill="#171717" d="M84.8,101c1.1,0.4,2.7,1.2,3.9,1.6c-0.4-0.8-1.7-1-2.7-1.6c-1.6-0.8-4.1-2.4-7-2.3c-2,0.1-3.2,1.7-5,1.2
			c-1,0.5,1,1,1.2,1.6c0.1,1.8-0.7,2.7-1.2,3.9c1.5,0.9,3.3,1.5,5.4,2.3c0.4,0.2,1.1,0.7,1.6,0.8c2.9,0.3,7-1.4,8.9-3.1
			c0-0.1,0-0.3,0-0.4c-3.8-1.7-7.8-3.3-12.4-4.3C77.9,98.1,83.6,100.5,84.8,101z M84.1,103.7c2,0.1,3.8,0.3,4.3,1.9
			c-1.7,0.4-2.7,1.5-5,1.2C83.2,105.4,84,104.9,84.1,103.7z M78.6,104.9c1.1-0.3,0.8,0.8,1.6,0.8c2.2,0.4,0.7-2.9,2.7-2.7
			c0.2,2.3-0.8,3.4-1.9,4.3c-2.6-0.5-4-2.2-3.9-5.5C78.4,102,78.1,103.9,78.6,104.9z"/>
		<path fill="#F7CC00" d="M117.8,109.2c0.8,3.1,2.5,5.2,5.8,5.9C123,111.8,121,109.9,117.8,109.2z"/>
		<path fill="#F7CC00" d="M145,133.3c1.4-1.3,2.6-3.9,2.3-6.2c-0.2-1.7-2.1-2.8-2.3-4.3c-0.1-0.3-0.3-0.4-0.8-0.4
			c-0.3,1.5-1.9,2.8-1.9,4.7c0,0.8,0.4,2.6,0.8,3.5C143.5,131.8,143.8,133.5,145,133.3z"/>
		<path fill="#F7CC00" d="M97.7,133.7c-1.7,2.2-5.8,4.9-7.8,7.4c0.1-0.1,0.6,0.2,0.4,0.4c4.4-1.4,8.1-3,11.6-4.7
			c2.3-1.1,5.2-1.9,6.2-4.3c-1.7-2.5-3-5.5-5-7.8c-2,2.8-3.4,6.2-5.8,8.6C97.4,133.3,97.8,133.5,97.7,133.7z"/>
		<path fill="#171717" d="M75.1,129.8c-1.4-0.9-2.2-2.6-3.9-3.1c-2.3-0.2-3.4,1.6-5,0c-1.5,0.4-2.1,1.8-2.7,3.1
			c-0.8-0.2-1.3-1.1-1.9-0.4c0,0.1,0,0.3,0,0.4c0.5,0.1,0.4,0.9,0.8,1.2c1.8,0.4,2.2-0.7,3.5-0.8c2,0.4,4.3,0.7,5.8-0.4
			c1.9,0.3,3,1.4,5.4,1.2C77.2,129.8,75.7,130.2,75.1,129.8z"/>
		<path fill="#F7CC00" d="M136.5,133c-0.4,0-0.8,0-1.2,0c-0.9,1.2-1.6,2.6-2.7,3.5c0.8,1.8,2.1,3.1,3.9,3.9c1-0.4,2.1-1,3.1-1.6
			s2.5-1,2.7-2.3C141.3,134.3,137.6,135,136.5,133z"/>
		<path fill="#F7CC00" d="M147.4,136.9c1.6,1.3,2.9,2.8,5.4,3.1c1.6-1.1,3.2-2.2,4.7-3.5c-1.8-0.9-3-2.4-5-3.1
			c-1.7,1.5-3.6,0.4-5,1.9C147.4,135.8,147.4,136.3,147.4,136.9z"/>
		<path fill="#F7CC00" d="M146.2,135.3c-0.5-0.5-1.8-0.5-2.3,0c-0.1,0.9,0.1,1.5,0.4,2c0,0.1,0,0.3,0,0.4
			C145.8,137.8,146.4,136.9,146.2,135.3z"/>
		<path fill="#F7CC00" d="M147.7,144.3c0.3-2-1.5-3.6-1.6-5.5c-0.6,0-1.3,0-1.9,0c-0.9,1.7-1.8,3.4-1.9,5.8c0.9,1,1.5,2.4,3.1,2.7
			C146.5,146.5,147.5,145.7,147.7,144.3z"/>
		<path fill="#171717" d="M119.8,150.9c0.2-3.7-2.6-4.4-5-5.5C115.3,148.2,116.4,152.2,119.8,150.9z"/>
		<path fill="#F7CC00" d="M138.8,156.7c-0.8-1.5-4.2-3.6-3.5-4.3c1.7-0.4,3.8,3.3,6.6,3.5c0.1-1.5-1.4-2.4-2.3-3.5
			c-1.7-2-2.9-3.8-5.8-3.9c-0.9-0.8-2-1.3-3.1-1.9C128.8,152.8,133.2,158.1,138.8,156.7z"/>
		<path fill="#171717" d="M103.1,159.9c3-2.2-0.7-6.1-3.5-6.2C100.1,156.4,100.1,159.6,103.1,159.9z"/>
		<path fill="#F7CC00" d="M124.5,227.7c-1.3-9.5-2-19.6-3.1-29.3c-0.9-0.5-0.1-2.7-0.4-3.9c0.3-2.1-0.5-5.2,0.4-6.6
			c-0.4-6.3,2.2-11.5,1.6-16.8c-2.5,0.4-2.3,3.6-2.7,6.2c-0.5,2.6-0.9,6.2-1.2,8.2c0.6,2.9,0.6,8.4,0,11.3
			c0.9,9.4,1.6,18.9,3.1,27.7c0.6,0.4,0.6,3.5,0,3.9c0.3,1,0.5,2.1,0.4,3.5c0.3,0.3,0.4,0.8,0.4,1.3h1.4c0-0.3,0.1-0.6,0.1-0.9
			C123.8,231.7,123.8,228.4,124.5,227.7z"/>
		<path fill="#F7CC00" d="M15.8,176.2c0.1-1.7-2-2.2-3.6-1.9v3.4C13.7,178,15.7,177.9,15.8,176.2z"/>
		<path fill="#F7CC00" d="M62.7,195.4c1.1,1.3,3,4.1,2.7,5.1c0,0.2,0.1,0.5,0.4,0.4c1.2,1.1,3,4.9,2.7,5.5c0,0.2,0.1,0.5,0.4,0.4
			c1.1,1.2,1.4,1.9,2.7,0.4c4.8-7.2,9.9-14.2,14.4-21.8c-1.1-1.8-3.6,0-5.8-0.4c-0.7,0.3-1.2,0.9-1.6,1.6c-0.1,0-0.3,0-0.4,0
			c-0.5,0.4-0.8,1-1.2,1.6c0.2,0.9-0.8,2.1-1.6,3.1c-0.8,1.1-1.7,2.2-2.3,3.1c-0.1,0-0.3,0-0.4,0c-0.7,0.6-0.6,2-1.9,1.9
			c-2.9-3.3-4.6-7.9-7.4-11.3c-0.7-1.2-3.6-0.3-4.7-1.2c0.1-0.8-1.4-0.2-1.9-0.4c0.2,2.6,1.7,4.3,2.7,6.2
			C60.6,191.4,61.6,193.4,62.7,195.4z"/>
		<path fill="#171717" d="M116.7,186.4c2.2-2.5-2.7-4.1-2.7-1.2C114.3,186.2,115.2,186.6,116.7,186.4z"/>
		<path fill="#F7CC00" d="M24.3,202c0.2-0.6,0.2-1,0.4-1.6c0.4-1.1,1.1-1.8,1.6-2.7c0.9-2,1.4-4,2.3-5.8c1-1.9,3.2-4,3.1-6.2
			c-1.8-2.9-2.6,2.7-4.3,3.5c-5.4,10.1-9.8,22.4-12,35.1c-0.4,2.2-0.8,4.2-1.2,6.6c-0.1,0.8-0.3,1.7-0.4,2.5H16
			c0.9-3.6,1.3-7.5,2.1-11C19.5,215.2,22.1,207.6,24.3,202z"/>
		<path fill="#F7CC00" d="M143.1,199.6c0,0.8,0,1.6,0,2.3c-0.4,1.3-1.6,0.9-1.6,1.6c0.2,1.4,3-2.2,1.6,0c1.1-1.1,2.9-1.5,2.7-3.9
			c-1,0.1-1.9,0.1-2.3-0.4C143.1,199.2,143.1,199.4,143.1,199.6z"/>
		<path fill="#B32621" d="M147.4,188.7c-0.1-0.7,0.5-2.3-0.8-1.9c-1.9,1.2,0.7,5.1-0.8,7c-0.6,0-0.2-1.1-0.8-1.2
			c-0.2,0.7,0.5,2.3-0.4,2.3c0,0.1,0,0.3,0,0.4c0.8,0,0.5-1.1,1.6-0.8c0.2,1.8,0.7,3.2,0.8,5.1c2.1-0.5,0.9-3.3,0.8-5.1
			C147.6,191.9,147.5,189.6,147.4,188.7z"/>
		<path fill="#F7CC00" d="M138.4,199.6c0,0.5-0.2,0.9-0.4,1.2c1,0.5-2.2,1.3-2.7,0.4c0,0.6,0,1.3,0,2c0,0.4,0,0.8,0,1.2
			c-0.8,0.4-1.5,0.8-2.3,1.2c0,0.3,0,0.5,0,0.8c0.3,0.1,0.5,0.3,0.4,0.8c1.9,0.8,3,0.9,3.1-0.8c0.2-0.9-0.7-0.8-0.4-1.9
			c0.4-0.9,1.3-1.3,2.7-1.2c0.5,0.5,0.4,1.4,0.4,2.3c1.1,0.3-0.3-1.8,0.8-1.6C139.5,202.5,140,200,138.4,199.6z"/>
		<path fill="#F7CC00" d="M143.9,187.6c-0.6,0-1.1-0.1-1.2,0.4c0.1,0.3-0.2,0.4-0.4,0.4c-0.6,0.7-1.9,1.9-0.8,3.1
			c1.2-0.2,2-0.9,1.9-2.3C142.3,188.7,143.9,188.1,143.9,187.6z"/>
		<path fill="#F7CC00" d="M141.5,198.5c0,0.6,1.1,0.2,1.2,0.8c1-1.1-0.5-4.6,1.9-4.3c0.9,0,0.2-1.6,0.4-2.3c0-0.1,0-0.3,0-0.4
			c-1.3-1.1-2.4,0.7-2.3,2.3C144.2,196.2,140.6,196.1,141.5,198.5z"/>
		<path fill="#171717" d="M26.2,206.7c-3.6,1.8,1.9,5.6,1.9,1.2C27.8,207.1,27.5,206.5,26.2,206.7z"/>
		<path fill="#F7CC00" d="M98.8,219.5c-1.4,0.8-1.9,2.6-3.5,3.1c0.1,1.2,0.7,1.9,1.6,2.3c0.2-0.8,1.2,0.4,1.9,0.8
			c0.8,0.4,2.7,0.6,1.9,1.2c0.3,0.6,1.3,0.6,1.9,0.8c0.3-1.3,0.6-2.5,0.8-3.9C101.8,222.5,101.5,219.8,98.8,219.5z"/>
		<path fill="#F7CC00" d="M148.9,224.6c0-0.1,0-0.3,0-0.4c-0.5-0.1-0.3-1-0.4-1.6c-1.9,0.8-3.4,2.1-5,3.5c-1.3,1.1-3,2.6-4.7,3.9
			c-1.2,1-2.3,1.7-3.5,2.7c-0.1,0.2-0.2,0.4-0.2,0.5h13.4c0.1-1.1,0.2-2.1,0.4-3.3C148.3,229.1,148.3,225.5,148.9,224.6z"/>
		<path fill="#F7CC00" d="M99.2,233.2c0.7-1.1,1.7-1.9,2.3-3.1c0.3-1.4-3-1.6-3.9-3.1c-1.3-0.8-2.5-0.7-3.9,0c0,0.9,0,1.8,0,2.7
			c-1.1,1.7-0.8,2.6,0.8,3.5c0.1,0.1,0.1,0.1,0.2,0.1h2C97.5,233.1,98.3,232.9,99.2,233.2z"/>
		<path fill="#F7CC00" d="M30.1,230.1c-0.2,1.1-0.4,2.2-0.6,3.3h3.8c0.4-0.9,0.7-1.9,0.7-2.9C33,229.1,32,230.2,30.1,230.1z"/>
		<path fill="#F7CC00" d="M36.3,232.4c-0.6,0-0.7,0.5-1.1,0.9h2.3C37.3,232.8,37,232.4,36.3,232.4z"/>
		<path fill="#F7CC00" d="M115.9,81.9c1.1,2.4,1.4,5.6,1.2,9.4c4.7-1,8,0.5,11.6,1.6c0.7-3.6,1.6-7,3.1-9.8
			c-0.6-0.2,0.2-1.1,0.6-1.8h-16.5c0,0.1,0.1,0.2,0.1,0.3C115.9,81.6,115.9,81.7,115.9,81.9z"/>
		<path fill="#F7CC00" d="M103.5,81.9c0.8,2.3,3,3.2,5,4.3c-0.3,3-0.8,6.5,1.9,7.4c0.6-2.6,0.8-7-0.8-8.6c-1.3-1.4-2.5-2.9-4.4-3.8
			h-1.8c0,0.1,0,0.2,0,0.3C103.5,81.6,103.5,81.7,103.5,81.9z"/>
		<path fill="#171717" d="M79.8,109.6c0-0.1,0-0.3,0-0.4c-1.6-0.2-2.3-1.4-3.9-1.6C76.4,108.8,78.6,110.4,79.8,109.6z"/>
		<path fill="#171717" d="M70.9,118.5c0.5,1,1.2,1.9,2.3,2.3c2.3,0.3,3.9-3.3,1.9-4.7c0.2,2.1,0,3.9-2.3,3.5c-0.6-1.6-4.1-2.9-5-0.8
			C69.2,119.2,69.4,118.2,70.9,118.5z"/>
		<path fill="#F7CC00" d="M151.6,154c0.5,1.3-1.5,2.1-0.4,2.7c1.7-1.5,3.6-2.9,3.5-6.2c-2-0.8-3.6,1.8-5,2.7
			c-0.5,0.6-1.1,1.2-1.6,1.9C149.4,156.8,152.2,152.2,151.6,154z"/>
		<path fill="#171717" d="M49.5,154.4c-0.1-0.4-0.4-0.6-0.8-0.8c-1.6,1.6-5,3.2-3.5,6.6C49.1,160.8,49.2,157.5,49.5,154.4z"/>
		<path fill="#171717" d="M56.9,156c-0.1-0.3-0.3-0.5-0.8-0.4c-1,1.9-3.9,4.2-1.9,6.6C57.6,162.8,57.8,158.4,56.9,156z"/>
		<path fill="#171717" d="M73.6,164.5c3.3-0.6,1.3-5.2,0.4-7C72,157.9,70.8,164.1,73.6,164.5z"/>
		<path fill="#171717" d="M92.6,163.4c1.1,0,1.4-0.9,1.9-1.6c-0.1-2.9-1.5-4.5-2.7-6.2c-1.6,0.1-0.2,3.2-1.2,3.9c0,0.1,0,0.3,0,0.4
			C91.4,161,91.1,163.1,92.6,163.4z"/>
		<path fill="#171717" d="M82.1,157.5c-0.5,2-1.5,5.3,0,7C87,165.1,84.4,157.8,82.1,157.5z"/>
		<path fill="#171717" d="M65.1,157.1c-2.2,0.6-3.2,5.8-1.9,7C66.8,166,66.1,159.1,65.1,157.1z"/>
		<path fill="#F7CC00" d="M135.3,198.5c0-0.4-0.3-0.5-0.4-0.8c-0.6-0.1-0.4-0.9-0.4-1.6c0.6-0.8,3.3-0.8,1.9-2.3
			c0.2-1.1-2.1,0.3-1.9-0.8c0-1.4,0-2.9,0-4.3c-1-0.3,0.7-1.1,1.6-0.8c-0.1-0.9-1.6-0.2-2.3-0.4c-0.4,0.5-0.4,1.4-0.4,2.3
			c-1.2-0.2-1.5,0.6-2.3,0.8c-0.5,2.4,2,1.9,2.7,3.1c0,0.9,0,1.8,0,2.7c1.3,1.4-2.5,0.9-1.6,2.7c0.4,0.8,1-0.1,1.9,0.8
			c0,0.2,0.1,0.5,0.4,0.4C135.2,200.2,134.5,198.6,135.3,198.5z"/>
		<path fill="#171717" d="M34.4,191.1c-0.5-0.6-2.2-0.6-2.7,0c-0.2,1.7,0.6,2.5,1.9,2.7C34.1,193.1,34.6,192.5,34.4,191.1z"/>
		<path fill="#F7CC00" d="M106.2,215.6c-1.5-0.3-1.4,1-2.3,1.2c-0.1,0-0.3,0-0.4,0c-4.5,0.5,0.5,4.3-0.4,4.7
			c0.5,1.4,2.9,2.7,4.7,1.6c-0.3-2.2-0.5-4.4-1.2-6.2C106.1,216.7,106.3,216.1,106.2,215.6z"/>
		<path fill="#F7CC00" d="M102.7,92c1,1.9,1.5,4.5,2.3,5.9c1,1.7,1.9,2.8,2.7,4.3c1.1,2,2,4.2,3.1,6.2c2.1,4,4.5,8,6.6,12.1
			c4.7-2.3,2.2-5.1,0-9.4c-1.5-2.9-2.7-5.7-3.5-6.6c-1.2-1.4-1.8-3.4-2.7-5.1c-2.8-6.4-6-12.5-9.6-18.2h-5c1,2.5,2.3,4.9,3.7,7.3
			C101.1,89.7,102.1,90.8,102.7,92z"/>
		<path fill="#F7CC00" d="M122.9,104.5c1,1.2,3.3,1.2,3.9,2.7c0.9,1.2,1.9,2.2,3.1,3.1c-0.4-4.8-1-9.4-1.9-13.7
			c-1.2,1.8-2.1,3.9-3.5,5.5C125.3,102.8,123,103.5,122.9,104.5z"/>
		<path fill="#171717" d="M67,136.5c1.4-0.7,4.2,0.1,5.4-0.8C71.1,135,67.4,134.9,67,136.5z"/>
		<path fill="#171717" d="M34.8,147.8c-3.3,0.4-7.4,0.1-7.8,3.5c1.4,1.3,3.3,0.2,4.3-0.4C32.7,150.1,34.6,148.9,34.8,147.8z"/>
		<path fill="#171717" d="M112.8,155.2c1.6-3.6-2.4-4.8-4.7-5.8C108.1,152.8,109.9,155.9,112.8,155.2z"/>
		<path fill="#171717" d="M42.2,150.9c-0.5,0-1,0-1.6,0c-1.8,1.5-4.9,1.5-4.7,5.1C39.5,157.3,41.3,153.6,42.2,150.9z"/>
		<path fill="#171717" d="M116.7,224.2c-1.4,1.5,0.8,3.7,2.3,2.3C119.2,224.8,118.4,224,116.7,224.2z"/>
		<path fill="#171717" d="M20,227.7c1.1,0.8,1.9,0.7,3.1,0c0-0.7,0-1.3,0-2C21.8,224.5,19.4,225,20,227.7z"/>
	</g>
</g>
</svg>
