<?xml version="1.0" encoding="utf-8"?>
<!-- Generator: Adobe Illustrator 19.2.0, SVG Export Plug-In . SVG Version: 6.00 Build 0)  -->
<svg version="1.1" baseProfile="tiny" id="Layer_1" xmlns="http://www.w3.org/2000/svg" xmlns:xlink="http://www.w3.org/1999/xlink"
	 x="0px" y="0px" viewBox="0 0 170 244" xml:space="preserve">
<metadata><?xpacket begin="﻿" id="W5M0MpCehiHzreSzNTczkc9d"?>
<x:xmpmeta xmlns:x="adobe:ns:meta/" x:xmptk="Adobe XMP Core 5.6-c111 79.158366, 2015/09/25-01:12:00        ">
   <rdf:RDF xmlns:rdf="http://www.w3.org/1999/02/22-rdf-syntax-ns#">
      <rdf:Description rdf:about=""/>
   </rdf:RDF>
</x:xmpmeta>
                                                                                                    
                                                                                                    
                                                                                                    
                                                                                                    
                                                                                                    
                                                                                                    
                                                                                                    
                                                                                                    
                                                                                                    
                                                                                                    
                                                                                                    
                                                                                                    
                                                                                                    
                                                                                                    
                                                                                                    
                                                                                                    
                                                                                                    
                                                                                                    
                                                                                                    
                                                                                                    
                           
<?xpacket end="w"?></metadata>
<g id="Layer_12">
	<path fill="#FFFFFF" d="M17,0h136c9.4,0,17,7.6,17,17.1v209.8c0,9.4-7.6,17.1-17,17.1H17c-9.4,0-17-7.6-17-17.1V17.1
		C0,7.6,7.6,0,17,0z"/>
	<path fill="#171717" d="M42.8,69.5c-1.6,0-2.8-1.2-3.4-1.9c3.3-1.8,5.5-5.3,5.5-9.3V26.5c0-5.9-4.8-10.7-10.8-10.7h-8.3
		c-6,0-10.8,4.8-10.8,10.7v23.4L11,50l0.2,6.8l3.7-0.1v1.6c0,5.9,4.8,10.7,10.8,10.7h6.2c0.5,0.7,1.1,1.4,1.5,2l-0.2-0.2
		c1.3,2,4.7,5.5,9.5,5.5h5.1v-6.8H42.8L42.8,69.5z M27.3,21.7h5.1c3.7,0,6.6,3.7,6.6,8.3v24.8c0,3.3-1.5,6.1-3.7,7.5
		c-2.9-3.8-6.6-8.6-7.8-9.9c-1.9-2.1-4.7-2.6-6.8-2.6V30C20.7,25.4,23.7,21.7,27.3,21.7L27.3,21.7z M27.3,63.2
		c-3.2,0-5.8-2.8-6.5-6.6c0.8,0.1,1.5,0.2,1.7,0.4c0.7,0.7,2.7,3.2,4.9,6.1L27.3,63.2L27.3,63.2z"/>
	<path fill="#171717" d="M83.3,70.1c0,0-2.2-2.6-3.8-6.4c-1.6-3.7-2.2-6.5-2.2-6.5s5.9,2.6,9.6,2.6s12-2.2,12.2-11.2
		s-8.9-15.8-14.6-22.3s-9-12.1-9-12.1s-3.3,5.6-9,12.1S51.7,39.6,51.9,48.6s8.5,11.2,12.2,11.2s9.6-2.6,9.6-2.6s-0.6,2.7-2.2,6.5
		c-1.6,3.7-3.8,6.4-3.8,6.4H83.3z"/>
	<g>
		<path fill="none" d="M84.5,97.4c-1.1,2.5-1.4,5.1-3.4,6.2c-0.3,1.8-1.5,4.1-2.3,5.4c-0.2,0.3-0.6,0.5-0.8,0.8
			c-1.2,2.3-0.4,4.1-0.8,6.6c-0.8-0.6-0.2-2.7-1.1-3.1c-0.7,1.6-2.8,2.9-1.9,5c1,1.5,2.6,1.5,3.8,2.7c0.5,0.4,0.7,1.3,1.2,1.9
			c0.9,1.3,1.9,2.4,2.7,3.5c0.5,0.7,0.7,1.5,1.5,1.9c1.5,1.8,3.2,3.2,4.6,5c5.8,4.3,11.6,8.7,20.3,10c1.3,0.2,2.5,0.6,4.2,0.4
			c2.4-0.6,5-2.3,6.9-4.6c1-1.2,2-3.3,3.1-5.4c1.2-2.2,2.7-5.1,3.4-7.3c0.4-1.3,0.7-2.2,1.2-3.5c0.6-1.5,1.1-3.3,1.5-5
			c0.4-1.3,1-2.4,1.1-3.5c0.9-5,0-11.8,0.8-15.4c-1.4-1.5-0.5-4.8,0.4-6.2c0.3-5.7-2.8-8.1-6.1-9.6c-0.1-0.1-0.2-0.7-0.4-0.8
			c-0.8-0.5-1.6-0.8-2.4-1.2H98.6c-3,2-6.6,3.4-9.9,5C87.3,90,85.8,94.4,84.5,97.4z M100.2,104.3c1.1-0.7,3.1-0.5,3.8-1.5
			c0.1,0,0.3,0,0.4,0c0.7,0,1.2-0.1,1.5-0.4C105.2,104,102,105.1,100.2,104.3z M107.5,118.6c-1.2,1.1-2.2-2.7-1.1-3.9
			C107.3,115.4,106.1,118.3,107.5,118.6z M109,133.2c1-0.6,5-1,5,0.8C112.4,133.1,109.5,134.4,109,133.2z M114.4,131.3
			c-2.1-0.3-3.1,0.5-5,0.4c0-0.7-0.3-1-0.8-1.2c1.1-0.6,6.5,1.2,6.1-1.9C115.8,129.2,114.8,130.9,114.4,131.3z M115.5,93.1
			c0.8-3.4,5.5-6.9,10.4-5.4c0.9,0.3,2.7,1.4,2.7,3.1c-5.2-1.9-12.4-1.2-12.7,5C114.8,95.6,115.4,93.8,115.5,93.1z M119.8,115.1
			c-1.6-6.4-4.1-10.7-4.6-17.3c0.2-1,1.2-0.6,1.9-1.2c0.5-0.4,0.6-1.2,1.2-1.5c2-1.3,3.8-2.1,7.7-1.9c0.5,0.5,0.2,0.6,0,1.2
			c-3.4-0.4-5.7,0.4-7.7,1.9c-1,0.8-2.4,1.7-2.3,3.1c1.4,1.1,1.9-1.2,3.1-1.5c2.3-2.1,6.8-2.2,10.4-3.1c0.3,1.1-0.8,0.8-0.8,1.5
			c0.5,1.2,1.4,1.9,1.1,3.9c-3.3,1.8-8.3,2.4-12.3,0.8c0.4,1.6,1.7,2.2,2.7,3.1c-1.1,1.2-2.2-0.8-3.1-1.2c-0.7,2.3,1.6,6.3,2.7,9.2
			c1.2,3.4,1,5-3.1,5.8c-1.3,0.4-1.3,2-2.7,2.3C114.4,117,118.5,117.5,119.8,115.1z M109.4,117.4c0.2-0.7,0.7-1.7,1.9-1.9
			c0.7-0.1,2.4-0.5,2.3,0.8c-2.5-0.6-2.6,1.3-4.2,1.5C109.4,117.7,109.4,117.6,109.4,117.4z M110.9,124c0.8,0,1,0.7,1.9,0.8
			c1.1,0.1,1.2-0.9,2.3-0.8c0.7,0.9,1.5,1.9,1.9,3.1c1.2,0.2,1.2-0.7,1.9,0c0,0.1,0,0.3,0,0.4c-1.3,1.2-2,0.1-3.8,0
			c-1.1-0.1-1.2,0.9-2.3,0.8c-1.1-0.7-2.8-0.7-4.2-1.2c-1.1,0.7-2.2,1.4-4.2,1.2c-0.3-0.4-2-1.2-0.8-1.9c1.4-0.2,0.9,1.4,2.3,1.2
			C107.4,126.5,108.8,123.9,110.9,124z M102.5,86.2c1.2,0.1,4.4,0.1,3.8,2.7c-5.9-0.9-11,0.2-15,2.3C92.9,89,98.4,85.9,102.5,86.2z
			 M96.7,93.1c0.5-0.2,1.6-0.7,2.7-0.8c1.2-0.1,3.7-0.6,4.2,1.2c-4.8-0.8-9.3,1.6-12.3,3.8C90.5,96,95,94,96.7,93.1z M99,95.1
			c1.4-0.3,3,0,4.6-0.4c0.8-0.2,1.8-0.8,2.7-0.8c0.1,1-0.8,1-1.5,1.2c0.4,2,1.6,3,2.7,4.2c-0.3,1.2-0.8-0.4-1.5,0
			c-1.4,0.9-2.1,2.6-4.2,3.1c-3.5,0.8-7.8-1-10-2.3c-1.1-0.3-1,0.5-1.9,0.4C92.4,98.2,95,95.9,99,95.1z"/>
		<path fill="none" d="M97.9,100.9c-1.6-0.4-1.5-2.7-2.7-3.5c-1,0.6-2.2,1.2-2.7,2.3C94,100.2,96.2,101.9,97.9,100.9z"/>
		<path fill="none" d="M101,100.9c-0.1-0.7,0.9-0.5,1.2-0.8c0.4-0.5,1.6-4.1,0-3.9c-0.8,1.1-0.5,3.4-2.7,3.1
			c-1.7-0.1-1.1-2.5-2.7-2.7C96.5,99.7,98.1,100.9,101,100.9z"/>
		<path fill="none" d="M148.9,157.1c0.8,0.2,3.9-0.2,3.8,1.2c-0.1,0-0.3,0-0.4,0c0.2,1,1.1-0.4,0.8-1.2
			C151.4,157.6,149.9,156,148.9,157.1z"/>
		<path fill="none" d="M105.2,97.8c-0.5-0.1-0.6-0.6-1.1-0.8c-0.2,1.8-1.3,2.8-1.9,4.2C104.1,101,104.7,99.5,105.2,97.8z"/>
		<path fill="none" d="M33.5,144c0.7-2.4,3-3.1,5-4.6c2.6-2,5.7-4.8,8.4-7.3c-0.1,0-0.3,0-0.4,0c-2.6,2.5-6,5.2-8.8,7.3
			c-1.9,1.4-5.2,3.3-4.6,5.4c0.5-0.6,1.7-0.6,2.3-1.2C35.1,142.7,34.3,144.3,33.5,144z"/>
		<path fill="none" d="M88.7,85.1c1,0.1,1.9-0.8,2.7-1.2c1.9-0.9,4-1.5,5.6-2.7h-3.3C91.7,82.3,89.1,83,88.7,85.1z"/>
		<path fill="none" d="M47.3,131.7c1.1-1.1,2.7-2.1,3.8-3.5c0.6-0.7,0.9-1.2,1.5-1.9c0.6-0.7,1.9-2,2.7-3.1c0.1-0.2,1-0.8,0.4-1.2
			c-1.4,2-3.1,3.6-4.6,5.4C50.1,129.1,48.3,130,47.3,131.7z"/>
		<path fill="none" d="M45.3,134.8c-1.4,1.1-2.7,2.4-3.8,3.9C42.9,137.5,44.2,136.2,45.3,134.8z"/>
		<path fill="none" d="M58,120.1c0.1-0.2-0.1-0.6,0-0.8c0.6-0.8,2.6-2.6,1.5-1.9c-0.1,0-0.3,0-0.4,0c-0.8,1.7-2.2,2.7-3.1,4.2
			C56.4,121.7,57.8,120.6,58,120.1z"/>
		<path fill="none" d="M92.1,81.2h-2.5c0,0.2,0.1,0.5,0.3,0.8C90.6,81.8,91.4,81.5,92.1,81.2z"/>
		<path fill="none" d="M121.3,100.9c-0.1-1.2-0.8-1.7-1.1-2.7c-1.3,0.1-2,0.8-1.9,2.3C119.6,100.2,119.9,101.1,121.3,100.9z"/>
		<path fill="none" d="M64.5,184.9c-1.1-0.5-1.5-1.8-2.7-2.3c1.1,0.9,1.4,2.7,3.1,3.1c0-1.3,0-2.6,0-3.9
			C64,182.1,64.8,183.9,64.5,184.9z"/>
		<path fill="none" d="M61.8,181.8c-1.2-1.1-2.4-2.2-3.1-3.9c1.8,1,5.6,0,5.8,2.7c0.4-3.4-4.2-1.9-6.1-3.1c-0.6,1.5,2.3,2.5,2.7,4.2
			C61.5,181.7,61.7,182.3,61.8,181.8z"/>
		<path fill="none" d="M64.5,168.3c-0.6,0.6,0.5,0.5-1.5,0.8c-2.1,0.3-5.1-0.5-7.3-0.4c-0.8-0.3,0.1-2.5-0.8-2.7
			c0,1.1-0.2,2.5,0.4,3.1c2.2,0,5.1,0.5,7.3,0.4c0.8-0.1,2.4,0.5,2.3-0.8C64.7,168.8,64.4,168.4,64.5,168.3z"/>
		<path fill="none" d="M54.6,159c1.8,1.2,2.8,3.1,4.6,4.2c-1-1.6-2.8-2.6-3.8-4.2c-0.6-0.5-1.5-0.6-1.1,0.8
			C54.5,159.8,54.5,159.3,54.6,159z"/>
		<path fill="none" d="M157.5,180v-11.7c-0.9,3.1-2.4,5.3-3.6,7.7C156,176.3,157.2,178,157.5,180z"/>
		<path fill="none" d="M148.9,164.4c-0.4,0.2-0.4,1.9,0,0.8c0.6-0.4,3.3-0.6,3.5,0.8c-0.1,0-0.3,0-0.4,0c-0.2,0.5,0.8,0.2,0.8,0
			C152.7,164.3,150.1,164.8,148.9,164.4z"/>
		<path fill="none" d="M73.7,179.1c1.5,2.6,3.2,5,5.4,6.9C77.3,183.7,75.6,181.3,73.7,179.1z"/>
		<path fill="none" d="M124.4,100.9c1.6-0.2,4-3.5,2.3-4.6c-0.6,1.4-0.9,3.2-2.7,3.5c-1.5-0.2-0.7-2.6-2.7-2.3
			C120.7,99.3,122.5,101,124.4,100.9z"/>
		<path fill="none" d="M127.8,100.1c0.1-0.5,0.8-0.4,1.2-0.8c-0.2-0.7-0.1-1.7-1.2-1.5C127.9,98.5,126.7,99.7,127.8,100.1z"/>
		<path fill="none" d="M129.7,81.2H128c0.5,0.4,0.9,0.8,1.7,0.8C129.8,81.7,129.8,81.4,129.7,81.2z"/>
		<path fill="none" d="M126.7,81.6c0-0.1-0.1-0.3-0.1-0.4h-3c2.2,1.2,4,2.7,6.2,3.9C130,82.6,128.2,82.2,126.7,81.6z"/>
		<path fill="none" d="M136.6,93.1c0.9,2,1.9,3.7,2.7,5.4c0.3,0.6,0.6,1.4,0.8,1.9c0.4,1.3,0.5,2.5,0.8,3.9s0.8,2.8,1.2,4.2
			c0.3,1.3-0.3,3.6,1.5,4.2c2.2,0,2.2-2.3,2.7-3.9c0.6-1.8,0.8-3.6,1.2-5.4c0.1-0.5,0.7-0.5,0.8-0.8c0.4-1.5-0.2-3.3,0.4-4.6
			c-1.6-1.3-2.8-1.7-3.4-3.5c-1.5-4.3,2.4-9.7,3.9-13.5h-15.5C133.5,86.1,135.2,90,136.6,93.1z"/>
		<path fill="none" d="M16.2,226.5c0.9,0.1,1.4,0.9,1.9,0.4c-1.5-1.3-5.3-0.8-6.1,0.8C13,227.1,14.5,226.3,16.2,226.5z"/>
		<path fill="none" d="M16.6,232.3c-1.2-1-0.5-1.9,0-3.1c-0.3-0.2-0.7-0.5-0.8,0c1.2,0.7-1,1-0.4,2.3c0.8,1.6,3,1.2,3.4-0.4
			C17.9,231.3,18.1,232.6,16.6,232.3z"/>
		<path fill="none" d="M14.3,218.4c0.8-3.6-1.6-6.4-2.3-8.9c1.6,0.7,1.7,3,3.1,3.9c0.3-0.2,1.4-1.6,1.5-0.8
			c-0.5,1.2-1.5,1.8-1.1,3.9c3.2,0,3.1-5.6,2.3-7.7c-0.6-1.7-2.4-3-1.9-3.9c1.7,0.6,1.9,2.7,2.7,4.2c1.1,0.3,1-0.5,1.9-0.4
			c-0.7,0.9-2.3,2.3-1.1,3.9c2.2,0.3,2.4-2.7,1.9-3.1c0.1,0,0.1-3.5,0-3.9c-0.5-2.3-2.5-4.3-2.3-6.2c1.2,1.4,2.7,2.4,4.2,3.5
			c0,3.3,3.5,2.9,3.1,6.6c1.2,0.1,0.8-1.3,1.1-1.9c0.6-0.6,1.6-0.7,1.9-1.5c-0.2-0.7-1.2-0.6-1.5-1.2c0-0.9,0-1.8,0-2.7
			c-0.4-0.9-1.5-1.1-1.9-1.9c-0.3-0.7-0.6-1.4-0.8-2.3c-2.6-3-7.9-5.6-13.2-5.4v26c0.1,0.1,0.1,0.2,0.2,0.2
			C13.1,219,13.1,218.1,14.3,218.4z"/>
		<path fill="none" d="M11.8,186.3v0.5c0.3-0.2,0.6-0.5,1-0.7C12.3,186,12,186.1,11.8,186.3z"/>
		<path fill="none" d="M14.3,230.3c-0.7,0.9-0.3,2.2,0.4,3h0.6C14.5,232.8,14.1,231.8,14.3,230.3z"/>
		<path fill="none" d="M152.7,186.8c0,0.8,0.7,1.1,1.2,1.5c1.3,1.5,2.7,3.2,3.1,5.4c0.4,2,0.1,4.9,0,7.3c-0.1,1.8-0.3,3.8-0.4,5.8
			c-0.2,3.3-1.6,7.1,0.4,8.9c0.3-0.1,0.4-0.2,0.6-0.3v-33.1C157.1,184.6,155.5,186.8,152.7,186.8z"/>
		<path fill="none" d="M15.4,177.9c-0.6,1.2-1.7,1.9-1.9,3.5c0.8-1.3,1.8-2.3,2.3-3.9c-1.5-0.1-3,1.8-2.7,2.3
			C13.8,179.1,14.2,178.1,15.4,177.9z"/>
		<path fill="none" d="M148.5,218.4c-1.4-1-3.1-1.7-4.6-2.7s-2.7-2.8-4.6-3.1c-1.3,1.9-2.3,4.1-3.4,6.2c3.3-1.5,9-1.6,11.9,0
			c0.5,0.3,1.3,1.4,1.5,1.5c1.1,0.7,1.9,2.1,2.7,3.5c0.6,1.1,1.4,2.8,1.5,3.9c0.3,1.7,0,3.8-0.2,5.7h2.2c0.6-0.8,1.2-1.5,1.9-2.2
			c0-1,0.1-1.9,0.2-2.7v-4.7c-1.7-0.8-3.3-1.4-4.8-2.2C151.2,220.6,150,219.4,148.5,218.4z"/>
		<path fill="none" d="M152,228.8c0-0.5,0.5-0.5,0.4-1.2c-0.1-1-1.1-1.8-1.5-2.7c-0.4-0.7-0.5-1.9-0.8-2.3c-1.6-2.1-4.8-3.8-7.7-3.9
			c-6.7-0.2-11.2,4.5-10.7,13.1c0.3,0.5,0.6,1,0.9,1.4h5.4c-1.7-0.6-2.7-2.4-2.9-4.9c1.4-1.7,1.7-3,3.5-3.9c0.8-0.4,1.6-0.7,2.3-0.8
			c1.2-0.1,3.3,0.5,4.2,1.2c0.4,0.3,0.4,1,0.8,1.5c1,1.3,1,0.5,0.8,1.5c-0.1,0.4,0.4,0.3,0.4,0.4c0.3,1.5,0.4,3.5,0.1,4.9h5.1
			c0-0.2,0.1-0.5,0.1-0.7C152.5,231.5,152,229.1,152,228.8z"/>
		<path fill="none" d="M53.8,126.7c-0.1,0.1-0.3,0.7-0.4,0.8c-0.8,0.3-0.9,0.5-1.5,1.2c-0.3,0.3-0.8,0.4-0.8,1.2
			c3-2.4,5.2-5.6,7.7-8.5C56.9,122.9,55.5,124.8,53.8,126.7z"/>
		<path fill="none" d="M29.6,223.4c1.8-2.2,4.5-4.8,6.1-6.6c0.3-0.3,0.1-0.9,0.4-1.2c0.2-0.3,0.9-0.1,1.2-0.4
			c0.2-0.3,0.2-0.9,0.4-1.2c0.7-0.8,1.5-1.4,1.9-1.9c0.3-0.3,0.1-0.8,0.4-1.2c0.9-1.1,1.9-2,2.7-3.1s1.4-2.7,1.9-3.9
			c0.6-1.3,1.7-2.4,1.1-3.9c-2.5,7-8.4,10.6-13.8,14.6c0.4,1,0.7,3.3,0,4.2c-1.4-0.1-1.6-1.5-3.1-1.5c-5.8-0.5-8.2,2.6-12.3,3.9
			c-0.8,1.1-1.4,2.4-3.1,2.7c-0.6-0.2-1.1-0.5-1.7-0.7v2.7c0.7-0.4,1.3-0.7,1.7-0.9c2.1-0.8,3.9,0.3,6.5,0.4
			c3.1,0.1,6.1-0.1,5.7-2.7c-0.1-1-0.9-1.9-2.7-1.9c-1.2,0.9,0.9,2.8-0.8,3.1c-0.3-0.8-1.2-1.1-1.2-2.3c2-4.2,6.6-0.6,5.4,2.7
			c-0.2,0.5-0.4,0-0.8,0.4c-0.3,0.3,0,0.9-0.4,1.2s-1.4,0.2-1.9,0.8c-1.2,0.1-2.8-0.3-3.4,0.4c0.3,1.1,0.4,2.4,0.8,3.5
			c-0.6,0.8-0.8,2-1.5,2.6h1.3c1.6-2.1,3.5-3.8,4.9-6.1C27.9,226.8,28.3,224.9,29.6,223.4z"/>
		<path fill="none" d="M145.8,228c0.3-0.2-0.4-0.4-0.4-0.4c-0.6-1.3-1-1.3-2.3-1.9c-0.8-0.4-1.3-0.8-1.9-0.8c-5,0-7.6,7.8-1.2,7.3
			c1-1.3-2.1-1-1.1-3.5c5-2,4.5,3.6,1.4,4.5h5.7c0-0.1,0.1-0.2,0.1-0.3C146.6,231.3,145.6,228.2,145.8,228z"/>
		<path fill="none" d="M73,82c-0.6-0.6-2-0.3-3.1-0.4c-2,0.8-0.7,5.6,1.2,3.1c-1.6,0.8-1.4-2.1-0.8-2.3c0.4,0,0.5-0.3,0.8-0.4
			c3.7,1.3,1.3,7-1.5,7.3c-5.7-0.4-5.4,5.1-5.4,10.4c-3-0.2-4.6,1.1-4.6,3.9c0.5,0.7,2.4,1.4,2.3-0.4c-0.3-1-1.3,1.4-1.5-0.4
			c0.7-0.8,0.6-2.5,2.3-2.3c1.3,0,1.4,1.1,1.9,1.9c-0.9,2.7-1.8,4.1-4.2,5.4c-1.1,0.5-2.5,0.3-3.4,0.8c-1.1,0.5-2,1.6-2.3,2.3
			c-0.1,0.1-0.7,0.2-0.8,0.4c-0.9,1.9,0.1,4.7-1.9,6.6c-0.9,0-1.8,0-2.7,0c-0.5,0.9-1.4,1.4-1.2,3.1c0.5,0.7,2.9,1.5,2.7-0.4
			c-0.7-0.4-1.3,1.2-1.5,0c-0.2-1.4,0.3-2.3,1.5-2.3c1.1,0,1.4,0.9,1.9,1.5c-1,3.8-3.8,5.6-8.4,5.8c-1.6,1.7-3.1,3.6-3.1,6.9
			c-1,0.2-2.6,1.7-1.5,2.7c0.3-1.3,1.3-1.7,2.7-1.9c0-1.4,0-2.8,0-4.2c0.7-1.1,3.5-4.5,4.6-1.5c0.6,1.9-2.2,0.4-1.9,1.9
			c1.2,0.5,1.7,0.2,2.7-0.4c0-1,0-2.1,0-3.1c2.6-0.5,3.5-2.6,5.4-3.9c0.6-2.4,0.6-7.3,1.5-10c0.5-1.4,3.5-3.6,5-1.5
			c0,1.5-0.2,2.9-1.9,2.7c-0.9-0.2,0.1-2.1-1.1-1.9c-1.1,1.3,0.3,2.6,1.1,3.1c1.4,0,1.7-1.1,2.7-1.5c0.1-1.5,0-2.8-0.4-3.9
			c2.1-1.2,3.4-2,4.2-3.9c0.1-0.1,0.7-0.2,0.8-0.4c0.2-0.6,0.3-1.9,0.4-2.7c0.2-2.8-0.6-6.7,0-8.9c0.4-1.5,1.3-3.1,2.7-3.1
			c1.4,0,2.7,0.9,2.3,3.5c-0.8,0-0.5,1.1-1.5,0.8c-0.8-0.1-0.4-1.4-1.2-1.5c-0.1,1.5,0.4,2.4,1.5,2.7c2.6-0.4,2.6-3.7,1.5-5.8
			c3.2-1,3.3-5.2,4.2-8.5h-1C73.7,81.6,73.5,81.9,73,82z"/>
		<path fill="none" d="M48.4,114.3c0.6-1.3,1.3-2.6,1.9-3.9C49.4,111.2,48.1,113.6,48.4,114.3z"/>
		<path fill="none" d="M61.5,117c-0.2,0.3-0.8,1.5-0.4,1.5c0.8-1.4,1.9-2.5,2.7-3.9C63.2,115.3,62,116.1,61.5,117z"/>
		<path fill="none" d="M52.6,106.6c0.4-1.5,1.7-2.2,1.9-3.9C53.9,103.8,52.2,105.8,52.6,106.6z"/>
		<path fill="none" d="M67.2,109.7c0.6-1.4,1.8-2.3,2.3-3.9C68.6,106.8,66.8,108.8,67.2,109.7z"/>
		<path fill="none" d="M13.1,164c0-1.4,0-2.8,0-4.2C12.5,160.3,12.5,163.5,13.1,164z"/>
		<path fill="none" d="M11.8,166.5L11.8,166.5c0.1,0,0.1-0.1,0.2-0.2C11.9,166.4,11.9,166.5,11.8,166.5z"/>
		<path fill="none" d="M16.2,168.7c0.9-1.1,1.5-2.4,2.3-3.5c0.9-1.2,1.9-2.3,2.7-3.5c2.1-2.9,4-6.6,5.8-9.2c0.4-0.6,0.8-1.3,1.1-1.9
			c5.3-9.1,10.9-18.2,15.3-27.7c-2-0.9-4.2-1.7-5.4-3.5c-0.1-8.3-4.8-11.8-7.3-17.7c-3.2-2-1.5-3.5-0.4-6.6c1.3-3.4,2-7.7,1.2-11.6
			c0-0.1,0-0.3,0-0.4c0-0.6,0-1.3,0-1.9H11.8V156c1.5,1.4,2.5,3.4,2.5,5.7c0,2.4-1.1,4.7-2.5,6.3v5.1c0.5-0.5,0.9-0.9,1.3-1.4
			C14.1,170.7,15.3,169.7,16.2,168.7z"/>
		<path fill="none" d="M36.1,96.2c1.4,0,2.8,0,4.2,0C39.8,95.6,36.7,95.6,36.1,96.2z"/>
		<path fill="none" d="M32.3,102.8c0.5,1,1.3,1.8,1.9,2.7c0.8,1,0.9,2.7,2.3,3.1c0.6-0.8-0.7-1.6-1.1-2.3c-1.1-1.8-1.7-3.7-2.3-5.8
			C33,101.8,34.1,103.9,32.3,102.8z"/>
		<path fill="none" d="M151.2,82c0,0.1,0,0.3,0,0.4c0.8,2.7,2.5,4.7,3.5,7.3c0,0.1,0,0.3,0,0.4c0.4,1.6,0.4,3.7,0.4,5.8
			c-0.7,1.6-2.5,1.6-3.1,3.5c-0.3,1,0.9,3.5,0,4.2c-0.2,0.2,0.4,0.5,0.4,0.4c0.1,3.7,1,6.4,1.9,8.5c1.7,0.6,2.8,1.2,3.2,2.3V81.2
			h-6.9C150.7,81.5,150.9,81.8,151.2,82z"/>
		<path fill="none" d="M147.4,194.9c0.1-0.4,0.6-0.4,1.1-0.4c-0.2-0.9-1.9-0.2-1.5,0.8c0.3,0.3,2.1,0.9,2.3,0
			C148.7,195,147.3,195.7,147.4,194.9z"/>
		<path fill="none" d="M149.7,177.2c1,0.2,2.3,0,2.3,1.2c-1.2,0.3-1.1-0.7-2.3-0.4c0.5,0.6,2,1.1,2.7,0.4c0.4-1.4-1.3-0.7-1.5-1.5
			C148.9,176,148.4,178.9,149.7,177.2z"/>
		<path fill="none" d="M150.8,176.8c0.6,0,1.3,0,1.9,0c-1.5-0.9-4.7-1.1-6.1,0C147,177.5,149.8,175.4,150.8,176.8z"/>
		<path fill="none" d="M152,180.2c0,0.3,0,0.5,0,0.8c-1.2,0.1-1.6-0.7-3.1-0.4c0.7,0.6,2,0.5,3.1,0.8
			C152.5,181.3,152.5,179,152,180.2z"/>
		<path fill="none" d="M154.3,169.4c2.3,0.8-3.1,2.6-0.4,3.8c-1.8-1.8,2.5-2.4,1.1-3.8C154.7,169.2,154.3,169,154.3,169.4z"/>
		<path fill="none" d="M71.8,177.9c1-0.3,0.8,0.8,1.5,0.8c0-0.1,0-0.3,0-0.4c-0.9-0.1-0.7-1.3-1.9-1.2c0,1.3,0,2.6,0,3.9
			C72.3,180.7,71.6,178.8,71.8,177.9z"/>
		<path fill="none" d="M142,166.4c-0.4,0.8-0.8,1.5-1.2,2.3C142,168.7,143.6,166.9,142,166.4z"/>
		<path fill="none" d="M143.9,204.9c0.7,2.7,3.1,3.8,5,5.4c0-0.1,0-0.3,0-0.4C146.9,208.6,145.1,207,143.9,204.9z"/>
		<path fill="none" d="M147,205.3c-0.2,0.2,1.4,0.2,0.4,0c0,0,0.1-0.6,0.4-0.4c1,0.3,3.3-0.7,3.1,0.8c-0.8,0-1.5,0-2.3,0
			c0.2,0.8,2.8,0.2,2.7,0.4C152.3,204.5,148.2,203.7,147,205.3z"/>
		<path fill="none" d="M150.8,211.8c0.8,0.6,2.5,2.3,3.5,1.5c-0.5-0.2-0.8-0.5-0.8-1.2C152.8,213.8,152.1,211.9,150.8,211.8z"/>
		<path fill="none" d="M147.8,198.3c0.9,0.4,3.8,1.1,3.8,0C151,198.9,149.3,198,147.8,198.3z"/>
		<path fill="none" d="M155.4,151.7c-1.9,1.4,0.6,3.4,0.4,4.2c1.2-1.2-0.9-1.4-0.8-2.7c-0.2-1.2,1.2-0.9,0.8-2.3
			c-0.7,0-1-0.3-1.1-0.8C153.6,150.5,155.5,151,155.4,151.7z"/>
		<path fill="none" d="M156.6,115.9c-0.2-1.6-1.1-2.4-3.1-2.3C154.8,114,156.1,114.6,156.6,115.9z"/>
		<path fill="none" d="M153.5,119c-0.1,0.4-2.3,0.4-1.1,0.8c1,0.3,0.8-0.8,1.5-0.8c0.1-1.2-1-1.3-0.8-2.7c-0.1,0-0.2,0-0.4,0
			C152.5,117.7,153.6,117.7,153.5,119z"/>
		<path fill="none" d="M144.7,114c2.3-0.6,3.4,1.6,4.6,2.7c-1.1-1.6-1.9-3.5-5-3.1c-0.1,0.8-1,0.8-1.1,1.5
			C144,114.8,144,114.1,144.7,114z"/>
		<path fill="none" d="M145.1,171.4c0.6,1.7,1.9,2.7,3.8,3.1C147.5,173.6,146,172.7,145.1,171.4z"/>
		<path fill="none" d="M143.1,159.4c0,1.4,0,2.8,0,4.2C143.8,163.1,143.8,160,143.1,159.4z"/>
		<path fill="none" d="M156.2,162.5c0,1-2.1,1.7-1.2,2.3c0.5-1,1.7-1.4,1.5-3.1c-0.4,0-0.8,0-1.2,0
			C155.5,162.2,156.2,162,156.2,162.5z"/>
		<path fill="none" d="M150.4,119.4c-0.7,2.1,2.6,1.4,1.5,2.7c0.1,0,0.3,0,0.4,0c0-0.2,0.1-0.5,0.4-0.4c0-0.3,0-0.5,0-0.8
			c-0.9,0.3-2.6-0.4-1.5-0.8C151,119.8,150.9,119.4,150.4,119.4z"/>
		<path fill="none" d="M152,183.3c-1-0.3-2.4-0.2-3.1-0.8c0-0.2-0.1-0.5-0.4-0.4c0,1.6,3,1.6,3.8,1.2
			C152.4,182.7,151.9,182.4,152,183.3z"/>
		<path fill="none" d="M153.1,176.8c0.1,1.4,1.7,1.4,1.2,3.5c0.3,0.4,0.7,0.6,1.1,0.8c0,0.1,0,0.3,0,0.4c0.1,0,0.3,0,0.4,0
			c-0.4-1.1-1.7-1.4-1.1-3.5C153.4,178.3,153.9,176.9,153.1,176.8z"/>
		<path fill="none" d="M154.3,144c-0.7,0.6-1,1.9,0,2.3c-0.6-1.2,0.2-1.7,0.4-3.1c-1.2-0.4-0.8-2.3-1.2-3.5
			C152.7,140.7,153.8,143.1,154.3,144z"/>
		<path fill="none" d="M141.6,193c0.2,0.6-0.4,2,0.4,1.9c0-0.8,0-1.5,0-2.3c-1.7,0.3-2.4,1.5-3.8,1.9
			C138.9,195,140.7,193.4,141.6,193z"/>
		<path fill="none" d="M150.8,184.1c-0.7,0.3-0.3,1.1-1.1,0.4c0,0.7,0.3,1.3,0.8,1.5c0.5,0.1,0.7,0.5,1.5,0.4
			C151.7,185.5,152.1,184.7,150.8,184.1z"/>
		<path fill="none" d="M93.3,226.1c0.7-1.2,1.8-2.3,2.3-3.1c1-1.5,0.9,0.2,1.5,0.8c0-1.2-0.4-2-1.2-2.3c-0.8,2.1-3.9,4.1-3.5,6.2
			C92.7,227.1,92.9,226.8,93.3,226.1z"/>
		<path fill="none" d="M92.5,213c-0.4-0.5-2.3-1.5-2.7-0.8c1.2-0.2,3.5,2.5,3.5,0C92.9,212.3,93,213,92.5,213z"/>
		<path fill="none" d="M85.6,209.5c0-0.9,0-1.8,0-2.7c-2.1,3.3,1.8,3.7,3.1,4.6C88.1,210.3,86.6,210.2,85.6,209.5z"/>
		<path fill="none" d="M46.5,152.9c-0.6,0-1.5-0.2-1.5,0.4c0.1,0,0.3,0,0.4,0c0.5,0,1,0,1.5,0c0-2.4-2.6-2.1-3.1-3.9
			c-0.4,0-0.8,0-1.1,0C44.2,150.3,45.6,151.3,46.5,152.9z"/>
		<path fill="none" d="M42.3,149.8c-1.8,1.3-3.8,2.4-5.4,3.9c0.5,0,1,0,1.5,0C38.8,151.4,41.5,151.6,42.3,149.8z"/>
		<path fill="none" d="M72.2,186.4c-0.1,0-0.3,0-0.4,0c0,0.5,0,1,0,1.5c2,0.4,3.5,1.3,5.7,1.5C76.2,188,72.2,189.2,72.2,186.4z"/>
		<path fill="none" d="M39.6,153.7c1.7,0,3.3,0,5,0C43.8,153,40.4,153,39.6,153.7z"/>
		<path fill="none" d="M71.8,181.8c0,1.3,0,2.6,0,3.9C72.5,185.4,72.3,180.8,71.8,181.8z"/>
		<path fill="none" d="M84.8,227.6c0.2-2.4-0.9-4.4-1.5-6.2c-0.7-1.9-1-3.9-2.7-5c0.4,3.5,0.6,7.7,0,11.2
			C81.4,228.2,84.1,228.2,84.8,227.6z"/>
		<path fill="none" d="M81.4,190.6c0.2-1.5-1-1.6-1.2-2.7c-1.7-0.8,0.6,0.8,0.4,1.9c-0.5,0-1.1-0.1-1.1,0.4
			C80.6,189.9,80.5,190.8,81.4,190.6z"/>
		<path fill="none" d="M87.5,219.9c-1.3-0.7-2.3-1.8-4.2-1.9c-0.1,0.7,0.4,0.8,0.4,1.5c0.5,0,0.4-0.7,0.8-0.8
			c0.8,0.6,2.4,0.4,2.7,1.5c-0.6,1-0.5,2.5-1.9,2.7c-0.1-0.3,0-0.8-0.4-0.8C85.6,225,87.5,221.4,87.5,219.9z"/>
		<path fill="none" d="M136.2,179.8c0.1,0.3,0,0.8,0.4,0.8c-0.2-0.7-0.2-1.6-0.8-1.9c-0.4,0.7-0.9,1.1-1.2,1.9
			C135.5,180.6,135.2,179.6,136.2,179.8z"/>
		<path fill="none" d="M127,211.5c0.9-0.3,1-1.3,1.9-1.5c0-0.5,0-1.1,0-1.6C128.7,209.5,126.3,212.3,127,211.5z"/>
		<path fill="none" d="M132.8,182.5c0.5-1.1,0.6-2.3,1.2-3.5c0.5-1,1.4-2,1.9-3.1c0.9-1.9,1.9-4.4,3.1-6.5c2.1-3.8,4.7-6,3.1-10.8
			c-4.8,7.6-9.4,16.7-12.7,25.8c-0.2,0.6-0.5,1-0.8,1.5c-2.9,6.3-4.9,13.9-6.9,20.8c-0.3,1.2-1,2.3-1.1,3.5
			c-0.3,2.6-0.1,4.9,0.4,7.3c2.8-10,5.6-18.8,9.2-28.5c0.4-1.1,0.7-2.3,1.1-3.5C131.7,184.5,132.3,183.6,132.8,182.5z"/>
		<path fill="none" d="M137.4,201.4c-0.7,0.6-0.6,2-1.9,1.9c0,0.3,0,0.5,0,0.8c1.4-0.1,1.1-2,2.3-2.3c0.7-0.1,0.8,0.4,1.5,0.4
			c-0.1-0.7,0.4-0.8,0.4-1.5c-0.1,0-0.3,0-0.4,0C139.2,202.3,138.6,201.4,137.4,201.4z"/>
		<path fill="none" d="M137.8,194.9c-1.6,0.4-2.5,1.6-3.8,2.3c0,0.5,0,1,0,1.5C134.3,196.6,136.5,196.2,137.8,194.9z"/>
		<path fill="none" d="M44.2,164.8c-1.3-0.9-2.7-2.1-3.1-3.5c0.9-0.2,2.8,0.5,3.1-0.4c-1.7,0-3.5-0.1-4.2,0.8c1.7,0.9,4,3.4,5.4,4.6
			c0.4,0.4,3,3.4,3.1,1.5c-0.9-0.2-1.7-0.6-1.9-0.8C45.7,166.4,44.8,165.2,44.2,164.8z"/>
		<path fill="none" d="M123.6,213.8c-0.4-1,1.2-1.8,0-2.3c0.2,1-1.1,2.4,0,3.1c1-0.7,1.7-1.7,2.7-2.3
			C125.6,211.5,124.8,213.8,123.6,213.8z"/>
		<path fill="none" d="M54.9,157.9c0.3,0.2,0.9,0.1,1.2,0.4c4.1,3.6,7.4,8.4,11.5,11.6c0.8,2.2,2.7,3.7,4.2,5.4
			c1.1,1.2,2.2,2.9,3.1,3.9c1.9,2.2,3.9,4.6,5.4,6.9c0.3,0.5,0.5,1.1,0.8,1.5c0.7,1.2,1.3,2.1,1.9,3.1c0.4,0.6,0.8,0.9,1.1,1.5
			c5.2,8.1,8.9,17,13,26.2c1.4-6.1-1.1-8.4-3.5-13.1c-1.4-2.9-2.5-6.1-3.8-8.5c-1.5-2.7-3.1-5-4.6-7.3c-1-1.5-1.4-2.7-1.9-3.5
			c-1-1.5-2.3-3.1-3.1-4.2c-0.5-0.7-0.8-1.4-1.1-1.9c-0.2-0.3-0.5-0.5-0.8-0.8c-0.9-1.2-1.7-2.3-2.7-3.5c-0.9-1.1-2.1-2-3.1-3.1
			c-0.3-0.3-0.1-0.9-0.4-1.2c-0.2-0.3-0.9-0.1-1.1-0.4c-0.2-0.3-0.2-0.9-0.4-1.2c-0.2-0.2-0.5-0.5-0.8-0.8c-1.9-2.3-3.7-4.5-5.7-6.6
			c-1.6-1.6-3.9-4.2-5.4-5.4c-0.3-0.2-0.9-0.1-1.1-0.4c-1.1-1-2.5-2.8-3.4-3.5c-0.4-0.3-0.5-0.5-0.8-0.8c-0.6-0.5-1.3-0.7-1.9-1.2
			c-0.9-0.7-1.9-2-3.1-2.7c-1.1-0.7-2.2-2.3-3.8-0.8c-0.6,1.3,1.2,2.1,1.9,2.7c1.5,1.4,3.3,2.8,4.6,3.9c0.8,0.7,1.6,1.5,2.3,1.9
			C54.2,156.8,54.4,157.5,54.9,157.9z"/>
		<path fill="none" d="M118.6,228.8c-0.8-0.1-1.9,0-2.7,0c-17.2-0.4-37.4-0.2-54.1,0c-1.1,0-2.3-0.4-3.4-0.4
			c-6.9,0.1-15.4,0-22.2,0.4c-0.9,0.1-3.3-0.7-3.4,1.2c0.7,1.3,2.5,0.7,3.4,0.8c1.6,0.1,3.1,0,4.6,0c9,0,20.4-0.5,28.8,0
			c3.8,0.2,7.5-0.4,11.1-0.4c1.9,0,3.6,0.4,5.4,0.4c2.2,0,5.3-0.7,6.1,0c0.7-0.9,2.9-0.1,4.2-0.4c2.2,0.2,4.9,0.5,7.7,0.4
			c3.3-0.1,5.2,0.1,7.7,0.4c0.5-0.9,2.7-0.2,3.8-0.4c1.9,0.6,4.5,0.7,5-1.2C120.7,228.3,119,228.8,118.6,228.8z"/>
		<path fill="none" d="M127.8,204.1c0.3-1.2-0.7-1.1-0.4-2.3c-1.2-0.1-0.8,1.3-1.1,1.9C127,202.5,127.3,203.3,127.8,204.1z"/>
		<path fill="none" d="M121.3,221.8c0.1,1.8-2.2,6,1.2,5.4C122.4,225.1,122.6,222.7,121.3,221.8z"/>
		<path fill="none" d="M37.3,207.6c0,0.1,0,0.3,0,0.4c0.7,0.8,1.6-0.2,2.3-0.8c1.3-1,2-2.5,2.7-3.5
			C40.5,204.7,39.6,208.4,37.3,207.6z"/>
		<path fill="none" d="M100.2,161.3c-0.9,1.4-1.1-1.1-2.7-0.4c-5.6-0.1-10.8-0.3-16.1-1.5c0.1,2.1,2.6,1.3,3.8,1.5
			c5,0.9,11.2,0.9,15,1.2C100.4,161.8,100.7,161.4,100.2,161.3z"/>
		<path fill="none" d="M33.1,196.8c-1-1-0.9-3.2-1.5-4.6c-1.1,4.3,3.7,7.1,6.1,4.2C36.7,197.3,34.4,197.4,33.1,196.8z"/>
		<path fill="none" d="M35,189.1c1-0.3,2.1,0.6,3.1-0.4c-3.4-0.3-5.2,0.9-6.1,3.1C33,191,33.4,189.6,35,189.1z"/>
		<path fill="none" d="M102.1,161c0.9,0,2.9,0.2,1.9-0.4c-1.5,0-3.1,0-4.6,0C99.5,161.2,101,161,102.1,161z"/>
		<path fill="none" d="M39.2,196c-0.2,1.6-1.1,2.5-2.7,2.7C37.5,199.7,40.2,197,39.2,196z"/>
		<path fill="none" d="M33.8,187.6c-1.1,0.4-3.3,2.8-2.7,3.1c1-1.5,2.1-3,4.6-3.1C35.6,186.7,34.3,187.4,33.8,187.6z"/>
		<path fill="none" d="M35.4,190.6c3.2-0.1,4.6,1.5,4.2,5C41.2,192.8,37.9,189.4,35.4,190.6z"/>
		<path fill="none" d="M124.7,175.2c-0.3,0.9-0.1,2.2-0.4,3.1c-0.2,0.6-0.9,1.3-1.2,1.9c-1,2.6-0.8,5.1-2.7,6.9
			c-0.4,3.7-1.8,7.2-2.7,10.8c-0.5,1.9-0.7,3.9-1.1,5.8c-0.4,1.8-1.6,3.6-0.8,5.4c1.7-1.9,4.7-2.4,5-5.8c-2.3-0.8-2.7,1.9-3.8,1.2
			c0.4-1.6,0.8-3.1,1.2-4.6c1.2-0.4,2.4-1.8,3.4-3.1c0.8-1,3.3-2.6,1.2-4.2c-1.6,0.2-2.3,3.3-3.5,2.7c0.4-2.1,0.7-4.5,1.5-5.4
			c1.5-1.5,3-3,4.6-4.6c1.2-1.2,3.7-2.4,2.7-5c-2.8,0-2.6,3-5,3.5c0.2-2.5,1.5-3.9,1.9-6.2c1.4-0.9,3.1-2.3,4.6-3.5
			c1.4-1.1,3.9-2,3.1-4.2c-2.4-0.9-3.2,2.5-5.7,2.7c1.2-2.4,1.2-4.5,2.7-6.2c0.6-0.7,2.3-1.2,3.1-1.5c0.1,0,0.3-0.7,0.4-0.8
			c2-1.4,5.3-2,5.4-5c-2.5-1.5-4.7,2.4-6.1,1.9c0.2-1.4,1.2-2.5,1.9-3.9c0.7-1.3,1.9-2.6,1.5-3.9c-4,5.7-6.8,13-9.6,19.3
			C125.8,173.6,125.1,174.3,124.7,175.2z"/>
		<path fill="none" d="M44.2,189.5c-1.3-1.9-2.5-3.9-5.4-4.2C41.2,186,42.5,187.9,44.2,189.5z"/>
		<path fill="none" d="M28.5,191c1.2-1.4,2.3-2.8,3.4-4.2C30.5,187.9,29.2,189.2,28.5,191z"/>
		<path fill="none" d="M71.8,140.9c-3.8-1.5-7.5-3-11.5-4.2c0,0.1,0,0.3,0,0.4C64.4,138.2,67.4,140.2,71.8,140.9z"/>
		<path fill="none" d="M101,161.7c1.4,0,2.8,0,4.2,0C104.6,161.1,101.5,161.1,101,161.7z"/>
		<path fill="none" d="M110.9,161c-0.8,0.7-3.5,0-4.6-0.4c0.6,0,3.1,0.1,1.9-0.4c-1,0-2.1,0-3.1,0c1.2,0.5-0.2,1.1,1.2,1.2
			c2.1-0.3,3.1,0.5,5,0.4C111.4,161.3,111.2,161.1,110.9,161z"/>
		<path fill="none" d="M36.5,201c3.1-0.4,4.5-2.4,5.4-5C40.6,198.3,39.1,200.2,36.5,201z"/>
		<path fill="none" d="M28.1,196c1.1,3.4,3.3,5.7,8.1,5.4C32,201.1,29.4,199.2,28.1,196z"/>
		<path fill="none" d="M128.6,147.5c-0.4-2-2.6-2.3-3.5-3.9c-0.6,0.2-2-0.4-1.9,0.4C126.2,143.9,126.9,146.2,128.6,147.5z"/>
		<path fill="none" d="M51.9,147.5c-0.1,2.2,2.6,2.5,4.2,3.1c2.2,0.8,5.1,1.3,6.5,1.9c1,2,3.6,2.5,4.2,5c-1.9,0-3.5-1-4.2,0.8
			c0.8,1.5,2.7,1.9,5,1.9c0.6,1.2,2.3,1.2,3.8,1.5c1,2,3.5,2.4,3.8,5c-1.3-0.1-2.6-1.4-3.8-0.4c0.2,4.1,5.2,2.8,7.7,4.2
			c1,0.6,1.7,2,2.3,2.7c0.8,1,1.6,1.8,1.9,3.1c-1.5-0.2-3-1.9-4.6-0.8c-0.6,2.1,1.5,2.3,2.3,2.7c2,0.9,4.3,2.2,6.5,2.7
			c0.8,1.9,3.5,3.6,2.7,5.8c-1.1-0.5-2.5-2.2-3.8-1.2c-1.1,2.3,2.7,3.7,3.8,4.2c0.1,0.1,0.2,0.7,0.4,0.8c1.7,1,2.7,1.2,3.8,2.7
			c0.5,0.7,1.3,2.1,1.2,3.1c-1.6-0.4-1.9-2.2-4.2-1.9c-0.6,2,1,2.9,2.3,3.9c1.4,1.1,3.7,1.5,4.6,2.7c0.7,1,0.9,3,1.2,4.2
			c-1.2,0-2-1.4-3.1-0.4c0,1.3,0.8,2,1.2,2.3c0.3,0.3,0.8,0.1,1.1,0.4c0.9,0.7,1.9,1.7,3.1,1.9c0.2-1.9-1.2-3.6-1.5-4.6
			c-0.2-0.6-0.1-1.3-0.4-1.9c-0.4-0.9-1.2-1.8-1.5-2.7c-0.5-1.2-0.6-2.4-1.1-3.5c-0.1-0.3-0.6-0.8-0.8-1.2c-1.6-2.6-3.5-6-4.6-8.5
			c-0.3-0.7-0.1-1.4-0.4-1.9c-0.1-0.2-0.7-0.2-0.8-0.4c-0.2-0.3-0.2-0.9-0.4-1.2c-3.2-4.6-6.9-9.4-10.4-13.1
			c-0.3-0.3-0.1-0.8-0.4-1.2c-0.4-0.5-1.1-0.6-1.5-1.2c-0.5-0.5-0.6-1.4-1.1-1.9c-0.7-0.8-1.9-1.4-2.3-1.9c-0.2-0.3-0.1-0.9-0.4-1.2
			c-0.4-0.4-1.1-0.7-1.5-1.2c-0.5-0.6-0.6-1.4-1.2-1.9c-0.9-1-2.7-2.4-3.4-3.1c-0.8-0.8-1.2-1.6-1.9-2.3c-0.4-0.4-1.1-0.4-1.5-0.8
			c-0.5-0.4-0.7-1.1-1.1-1.5c-1.6-1.6-2.7-2.7-4.2-3.9c-2-1.5-3.8-3-5-5c-1,0.4-1.3-1.7-1.9-0.4c1.1,1.6,3.1,2.3,3.8,4.2
			C54.6,147.6,53,146.5,51.9,147.5z"/>
		<path fill="none" d="M39.6,183.3c0.8,0,1.4-2.1,1.9-1.2c0.9,0.8-0.5,1.5,0.4,2.3c2.2,1.8,3.6,4.4,5,6.9c-0.5-2.7-0.6-6-1.1-7.7
			c-0.4-1.4-1.3-3-1.9-4.2c-0.7-1.4-1.4-3.1-2.7-3.5c-2.3,2.6-4.8,4.9-6.5,8.1C36.3,183.9,37.8,183.4,39.6,183.3z"/>
		<path fill="none" d="M154.7,120.1c-0.9,3.5-0.2,8.6-0.4,12.7c0.1,0,0.3,0,0.4,0c0,0.1,0,0.3,0,0.4c-0.3,3.6,0.8,5.8,1.1,8.5
			c0.3,2,0.1,3.9,0.4,5.8c0.2,1.3,0.8,2.9,1.1,4.2c0.1,0.3,0.1,0.7,0.2,1v-35.6C156.9,118.6,155.3,118.4,154.7,120.1z"/>
		<path fill="none" d="M152,96.2c-0.2-0.7,0.5-2.3-0.4-2.3c0,1-0.2,2.2,0.4,2.7c1.2,0.2,1.6-0.5,1.9-1.2
			C153.2,95.6,153.2,96.6,152,96.2z"/>
		<path fill="none" d="M76,203c-0.3-0.5-0.5-1.4-0.8-1.9c-0.7-1.3-1.3-2.6-1.9-3.9c1.5,0.6,3.5,0.8,4.2,2.3c-0.2,0.8-0.9,3.2,0,3.9
			c-0.2-1.7,0.2-2.9,0.4-4.2c-1.3-1.1-4.1-2.8-5.8-2.3c2,2.1,3.2,6.3,5,8.1c-0.1-0.1,0-0.3,0-0.4C77.3,203.7,76.4,203.5,76,203z"/>
		<path fill="none" d="M150.4,98.9c0.8-1.3,0.2-3.9,0.4-5.8C150.1,94.2,150.5,98.4,150.4,98.9z"/>
		<path fill="none" d="M150.1,82.7c0,1,0.7,1.4,1.1,1.9c-0.2-1.1-0.8-1.8-1.5-2.3c-0.6,1-1.4,1.7-1.5,3.1
			C149.1,84.9,148.9,83.1,150.1,82.7z"/>
		<path fill="none" d="M151.2,109.7c-0.4-0.1-0.7,0.1-0.8,0.4c0.1,0,0.3,0,0.4,0c2.4,0.6-0.1-1.6-1.5-1.5
			C147.9,109.5,151.1,109,151.2,109.7z"/>
		<path fill="none" d="M30.8,202.2c-0.8-1.6-2.8-2.1-3.1-4.2C27,199.6,29.7,201.1,30.8,202.2z"/>
		<path fill="none" d="M22,206.8c0,1.4,0,2.8,0,4.2C22.6,210.5,22.6,207.4,22,206.8z"/>
		<path fill="none" d="M148.5,111.3c0.7,0.7,3.9,0.2,2.7,1.5c0.7-0.2,1.7-0.1,1.5-1.2c-1.5,0-2.9-0.2-3.8-0.8
			c0.1-0.4,0.6-0.4,1.2-0.4c0-0.1,0-0.3,0-0.4C149.1,110,148.4,110.2,148.5,111.3z"/>
		<path fill="none" d="M143.9,149.4c0.7-3.9,2.5-8.5,3.1-13.9c0.3-3,0.5-6,0.4-8.5c-0.1-1.5-0.3-3.6-0.8-5c-0.8-2.5-0.6-3.3-3.5-3.5
			c-0.8,3.3-1.3,7.6-1.5,11.6c-0.3,5.2-0.2,9.5,0.4,13.9C142.3,145.9,142.6,148.4,143.9,149.4z"/>
		<path fill="none" d="M150.4,92.8c-0.2-0.8,0.5-2.5-0.4-2.7c-0.5,1.2-0.4,2.9-0.4,4.6C150.7,94.9,149.4,92.6,150.4,92.8z"/>
		<path fill="none" d="M57.2,144c-0.1,0.5-0.5,0.6,0,1.2c5.8,3.8,10.5,9.7,15,14.3c0.2,0.2,0.6,0.2,0.8,0.4c0.3,0.4,0.5,1.2,0.8,1.5
			c0.7,0.7,1.5,1.1,1.9,1.5c0.3,0.3,0.1,0.8,0.4,1.2c2.9,3.4,6.1,6.5,8.8,10c1.3,1.7,2.6,3.6,3.8,5.4c1.3,1.9,2.8,3.8,3.8,5.8
			c0.3,0.6-0.1,0.8,0,1.2c0.2,0.4,1,0.8,1.2,1.2c1.6,3.1,3.2,5.9,4.6,8.9c1.4,3.1,2.3,6.8,3.5,9.6c0.3,0.9,0.6,2.6,1.9,2.7
			c0.1-1.2,0.6-2.8,0.8-4.2c0.1-1.3,0.9-3.1-0.8-3.5c-1.4,0-0.1,2.7-1.5,2.7c0-1.2-1.4-2-1.5-3.5c0-0.3,0.3-2.4,0.4-3.5
			c0.3-2.2,0.9-6.1-1.5-6.6c-1.5,1.1,0.1,3.9-1.2,4.6c-0.4-1.5-1.9-2.5-2.3-4.6s0.4-4.7,0-6.9c-0.2-1.5-0.4-3.8-2.3-3.9
			c-2,1,1,4.8-0.8,5.4c0.1-0.6-0.5-1.1-0.8-1.5s-0.4-1-0.8-1.5c-0.5-0.8-1.5-1.5-1.9-2.7c-0.6-1.6-0.3-4.2-0.8-6.2s-1-5.1-3.5-4.6
			c-0.6,2,1.1,3.8,0,5c-1-1.5-2.5-2.1-3.5-3.8c-1.1-2.1-1.4-6.2-1.9-8.1c-0.4-1.4-1.1-3.4-2.7-3.1c-1.4,1.6,1,4.2,0,5.4
			c-1.9-1.3-3.1-3.3-4.6-5c-1.4-3.4-1.2-8.5-5-9.6c-0.6,0.6-0.2,1.8,0.4,2.3c0,0.1,0,0.3,0,0.4c-0.5,1,1.1,1.6,0,1.9
			c-3-2.5-5.2-4.7-6.5-8.5c-0.6-1.6-1-4.7-3.8-4.6c-0.5,1.3,0.9,2.7,0,3.1c-1.2-0.4-2.4-2.7-3.4-1.9C55.5,142.2,55.6,143.8,57.2,144
			z"/>
		<path fill="none" d="M15.8,219.2c0.6,2.1,3.5-0.6,3.5-1.2C18.3,218.5,17.2,220.3,15.8,219.2z"/>
		<path fill="none" d="M37.7,187.6c2.9,0.3,4,2.4,5.4,4.2C42.4,189.4,39.9,187,37.7,187.6z"/>
		<path fill="none" d="M105.6,147.1c-1.4,0-2.8,0-4.2,0C101.9,147.7,105,147.7,105.6,147.1z"/>
		<path fill="none" d="M102.1,144c-1.5,0.2-4.1-0.5-5,0.4C98.7,144.2,101.2,144.9,102.1,144z"/>
		<path fill="none" d="M109.4,144.8c-0.1,0.7,0.3,0.7,0.8,0.8c1.8,0.2,2.4-0.7,4.2-0.4c-1-1.2,1.9-1,1.9-2.3
			c-2.9,3.4-9.2,0.7-13,1.2c0.1,0,0.3,0,0.4,0C105.6,144.2,107.3,144.7,109.4,144.8z"/>
		<path fill="none" d="M102.9,158.3c-0.5,0.5-1.7,0.4-2.7,0.4c-0.2,0.3-0.4,0.6-0.4,1.2c0.6-0.6,2-0.3,3.1-0.4
			C102.7,158.9,102.4,158.8,102.9,158.3z"/>
		<path fill="none" d="M88.7,159.4c1.8,0,3.6,0,5.4,0C93.1,158.8,89.6,158.8,88.7,159.4z"/>
		<path fill="none" d="M88.3,159c-1.6-0.6-3.8-0.6-5.8-0.8C84,159,86.1,159.1,88.3,159z"/>
		<path fill="none" d="M76.4,145.9c1,0.6,2.5,0.8,4.2,0.8C79.5,146.1,78,146,76.4,145.9z"/>
		<path fill="none" d="M66.4,143.2c2.2,0.4,3.5,1.9,6.1,1.9c-0.5-1.2-2.6-0.7-3.8-1.2c-0.3-0.1-0.8-1-1.2-1.2
			c-1.3-0.5-2.5-0.5-3.1-0.4c1,0.5,1.5,1.5,2.3,2.3C67.3,143.8,65.3,143.6,66.4,143.2z"/>
		<path fill="none" d="M100.2,148.3c-1.1,0.1-1.9,0.7-2.3,1.5c0.9-0.4,1.2-1.3,2.7-1.2c-0.2-0.8,0.3-1,0.4-1.5
			c-1.5,0.8-4.4,0.2-6.5,0.4c0,0.1,0,0.3,0,0.4C96.2,148.1,99,147.4,100.2,148.3z"/>
		<path fill="none" d="M80.2,147.9c1-0.3,2.1-0.5,3.5-0.4c0.6-0.2,0.9,1.5,1.1,0.4c-0.4-0.1-0.2-0.4,0-0.4c1.2-0.2,3.3,0.5,3.8-0.4
			c-3,0.3-4.9-0.5-7.7-0.4C81.2,147.6,80.3,147.3,80.2,147.9z"/>
		<path fill="none" d="M48.9,98.1c1.1,1,2.7-2.5,2.6-4.2C50.5,95.2,50.7,97.7,48.9,98.1z"/>
		<path fill="none" d="M119.8,140.5c0,0,1.2,0.6,1.5,0.8c0.4,0.3,0.6,1.2,1.2,1.5c0-0.1,0-0.3,0-0.4c-0.5-1.4-2-2.4-3.1-2.3
			c-1.3,0.1-1.5,2.1-2.7,2.3C117.8,143,118.2,140.5,119.8,140.5z"/>
		<path fill="none" d="M48.4,97.4c0.1,0.3,0.2,0.5,0.4,0.7C48.8,97.7,48.7,97.5,48.4,97.4z"/>
		<path fill="none" d="M84.5,156c-0.2,2.4-3.6,1.4-4.6,0.4c-0.2,0.6,1.5,0.9,0.4,1.2c-1.5-0.4-2.2-1.7-3.1-2.7c1-0.1,1.8,2,2.3,1.2
			c-1.2-0.6-2-2.2-3.1-3.1c-0.7-0.6-2.3-0.8-1.9-1.9c-0.3-0.8-0.3,0.5-0.8,0.4c-2.2-0.7-3.3-4.2-5.7-5.4c0,0.1,0,0.3,0,0.4
			c1.7,1.4,3.2,2.9,4.6,4.6c3.7,1.9,4.4,6.9,9.6,7.3C82.8,157.6,85.6,157.2,84.5,156z"/>
		<path fill="none" d="M89.8,146.3c3.3,0,6.7,0,10,0c0-0.1,0-0.3,0-0.4C96.6,146.2,92.4,145.4,89.8,146.3z"/>
		<path fill="none" d="M89.1,144c-0.5-0.9-2.7-0.1-3.8-0.4C85.8,144.5,87.9,143.8,89.1,144z"/>
		<path fill="none" d="M103.3,159.4c1.4,0,2.8,0,4.2,0C106.9,158.8,103.8,158.8,103.3,159.4z"/>
		<path fill="none" d="M40.4,115.1c-0.5-0.1-0.7-0.5-1.5-0.4c0,0.6,0,1.3,0,1.9C40,116.8,39.9,115.7,40.4,115.1z"/>
		<path fill="none" d="M125.1,152.5c-0.2-0.7,0.5-2.3-0.4-2.3c-0.3,1,0.7,3.3-0.8,3.1c1.1,1.4-1,4.5-2.7,3.1
			c0.9,0.3,1.6-1.4,0.8-1.5c0,0.1,0,0.3,0,0.4c-0.3,1.7-3.3,1.3-4.6,0.8c0.2,1.2,2.6,0.3,3.1,1.2c-1,0.2-2.1,0.2-2.7,0.8
			c2.2-0.1,3.8-0.8,5.8-1.2c1-2.1,1.9-4.2,3.1-6.2C125.6,150.7,126,152.2,125.1,152.5z"/>
		<path fill="none" d="M114.4,161c1.7,0.3,2.3-0.5,3.8-0.4C117.5,159.8,115.2,160.6,114.4,161z"/>
		<path fill="none" d="M13.1,219.5c-0.7,1.2-0.7,2.2,0,3.5c2.1,0.5,2.3-2.3,1.5-3.5C14.2,219.5,13.6,219.5,13.1,219.5z"/>
		<path fill="none" d="M40.4,101.6c1.3,1,3,1.6,3.1,3.9c-1,0.5-1.6-1.1-1.9,0c0.8,0.2,2.5,0.9,2.7-0.4
			C43,103.9,42.6,101.8,40.4,101.6z"/>
		<path fill="none" d="M122.4,158.7c0.1-0.8-1.4-0.2-1.9-0.4c3.1,0.8-0.4,1.4-1.9,1.9C120.4,160.2,122.1,160.1,122.4,158.7z"/>
		<path fill="none" d="M101.7,211.8c-1,0.8-1.9,1.7-2.7,2.7c0,2.8,0,5.7,0,8.5c0.9-1.9,0.1-5.5,0.4-8.1c0.7-0.7,1.2-1.9,2.3-2.3
			c0.9-0.4,5.3-0.6,6.5-0.4c0.7,0.1,1.2,0.7,1.9,0.8c0.7,0,1.6-0.3,2.3-0.4c2.7-0.2,4,0.6,5,0.4c-2-1.5-4.7-0.7-7.3-0.8
			C107.6,212.1,104.7,211.5,101.7,211.8z"/>
		<path fill="none" d="M126.7,159c0.1,2.1,0.4,4.3,0.8,5.8c-1.2,1.9-1.6,4.6-3.1,6.2c-1.3-1.5,0.9-6.5-1.5-6.9
			c-2.4,0.6-1.7,4.9-1.5,7.3c0.3,3.9,1,6.2,0,8.9c-0.3,0.9-0.2,2.5-1.5,2.3c-0.1-2.5,0.5-5.6-1.5-6.2c-1.8,1.2-1.2,3.1-1.2,5
			c0.1,1.6,1.1,3.6,1.2,5c0,2.1-0.7,4.1-1.2,5.4c-0.2,0.7,0.2,2.3-1.1,1.9c-0.3-1.6-0.2-3.7-2.3-3.5c-1.7,4.7,2.9,9.7,0.4,13.9
			c-1.2-0.4-0.8-2.3-2.7-1.9c-1.3,3.1,1.4,5.2,2.7,6.9c1.1-5.2,1.9-9.6,3.1-14.3c0.4-1.6,0.7-3.5,1.2-5c0.5-1.6,1.4-3.1,1.9-4.2
			c2.4-6,4.1-12,6.5-17.7c0.9-2.3,1.9-4.5,2.7-6.2c1.1-2.6,2.2-5.4,3.4-7.3c0.5-0.8,2-1.7,1.2-2.7c-1.6,2.2-2.7,5-4.6,6.9
			c-0.3-2.5,0.8-6.5-1.9-6.6C126.2,153.6,126.5,156.6,126.7,159z"/>
		<path fill="none" d="M28.9,211.8c1.2-0.3,1.5-2.8,0.8-3.9C27.3,206.1,26.2,211.8,28.9,211.8z"/>
		<path fill="none" d="M79.9,142.9c-1.3-0.6-3-0.8-4.6-1.2C76.2,142.4,79.1,143.2,79.9,142.9z"/>
		<path fill="none" d="M93.7,144.4c-0.7-0.9-2.9-0.1-4.2-0.4C90.1,144.9,92.4,144.2,93.7,144.4z"/>
		<path fill="none" d="M112.1,227.6c3.4,0.2,6,0.2,6.9-3.1c0.4-1.3,0.1-4.6,0-6.6s0.5-5.1-1.5-4.2c2.5,2.2,0.2,8.8,1.1,10.8
			c-0.7,3-6.7,2.4-9.2,2.3C108.2,228.1,111.1,227.5,112.1,227.6z"/>
		<path fill="none" d="M108.2,227.2c0.7,0,0.8-0.3,0.4-0.8c-3.1-0.2-7.4,1.1-8.8-1.5c-0.4-0.6,0.9-1.6-0.8-1.5
			C99.1,227.7,103.7,227.4,108.2,227.2z"/>
		<path fill="none" d="M131.3,147.5c-0.7-1.7,0-2.4,0-4.2c0-1-0.4-2-0.4-3.1c0.1-5.5,1.9-11.5,2.3-17.3c0.3-4.6,0-8.9-0.8-11.9
			c-0.2-0.9-0.1-2.8-1.5-3.1c0,1.8,0.9,3.2,1.2,5c0.8,5.8-0.4,12.2-1.2,17.3c-0.6,4.2-1.1,8.1-1.2,12.7c0,1.5-0.7,3,0.4,4.2
			C130.6,147.1,130.9,147.3,131.3,147.5z"/>
		<path fill="#B32621" d="M74.1,100.9c-0.7,1.3-1.9,2.5-2.7,3.9c-0.9,1.5-1.5,2.9-2.3,4.2c-0.8,1.3-1.9,2.6-2.7,3.9
			c-1,1.4-1.7,2.9-2.7,4.2c-5.5,7.7-12.3,14.8-19.2,20.8c-2.5,2.1-4.7,4.4-7.3,6.2c-0.4,0.3-1,0.4-1.5,0.8c-1.5,1-2.9,2.1-4.6,2.7
			c-0.9,1.7-2,3.6-3.1,5.4c-1.1,1.8-3,3.7-2.7,5.4c0.5-0.8,1.3-0.6,1.9-0.8c2.3-0.8,4.7-2.3,6.5-3.1c0.1-0.1,0.2-0.7,0.4-0.8
			c0.7-0.5,1.6-0.7,2.3-1.2c1.5-1,2.8-1.8,4.2-2.7c1.7-1.1,2.9-2.1,4.2-3.1c2.1-1.6,4.2-3,6.1-4.6c3-2.5,5.7-5.5,8.1-8.1
			c0.7-0.7,1.1-1.3,1.5-1.9c0.8-1.1,2-1.9,2.7-2.7c0.6-0.7,1-1.6,1.5-2.3c0.2-0.3,0.5-0.5,0.8-0.8c1.4-1.8,2.7-3.4,3.8-5
			c0.5-0.8,1-1.5,1.5-2.3c1.4-2.1,3.2-4.3,4.2-6.2c0.5-0.9,0.6-1.8,1.2-2.7c0.4-0.7,1.1-1.3,1.5-1.9c0.5-0.9,0.6-1.8,1.2-2.7
			c0.4-0.7,0.7-1.6,1.1-2.3c0.1-0.1,0.6,0.1,0.8,0l0.4-0.8c0.8-1.1,1-2.6,1.5-3.9c0.4-0.9,0.8-1.5,1.1-2.3c0.3-0.8,0.5-1.8,0.8-2.7
			c0.3-0.8,0.9-1.6,1.2-2.3c0.2-0.5-0.1-1.1,0-1.5c0.1-0.2,0.7-0.8,0.8-1.2c0.2-1,0.2-2.1,0.4-3.1c0.3-1.4,0.8-2.8,0.8-4.2h-7
			c-1.1,5.2-3.3,10.4-5,14.6C75.4,97.5,74.9,99.4,74.1,100.9z"/>
		<path fill="#B32621" d="M130.9,84.3c0,0-0.4,0.1-0.4,0.4c0,3.2,1.8,7.9,0.4,11.2c0-1,0-2.1,0-3.1c-0.9,1.4-1.8,4.7-0.4,6.2
			c-0.1-1.1,0.1-2,0.8-2.3c-0.2,1.6,0.3,2.5,0.4,3.9c1.3,1.1,1.3,3,1.9,4.6c0.6,1.8,1.5,3.6,1.9,5.8c2,11.4-2.2,26.5-1.1,37.8
			c1.1,1.2,2.4,2.5,3.8,3.5c1.4,1,3,2.1,5,2.3c0.5-3.1-1.3-5.1-1.9-7.7c-0.3-1.4,0.1-1.6,0-2.7c-0.1-0.9-0.7-1.9-0.8-2.7
			c-0.5-3.8-0.3-8,0-11.9c0.2-2.8,1-5.6,1.1-8.5c0.1-1.8-0.3-3.5-0.4-5.4c0-0.1,0.4-0.3,0.4-0.8c-0.1-3.1-1-5.8-1.5-8.1
			c-0.7-2.9-1.1-5.1-1.9-6.9c-1.2-2.7-2.5-5.2-3.5-7.7c-1.2-3.2-1.8-6-2.3-8.9c-0.1-0.4,0.1-1.3,0-1.9h-1.7
			C130.5,82,130.8,83.2,130.9,84.3z"/>
		<path fill="#B32621" d="M47.7,89.7c1-2.3,1.5-2.8,3.1-3.9c0.6-0.4,1.1-0.9,1.5-1.2c1.3-0.6,3.3-0.3,3.4-1.5
			c-1.6,0.2-3.3-0.3-4.6,0c-0.6,0.1-3.2,1.4-3.4,1.5c-4.1,2.9-4,10.1-0.4,13.5C45.9,94.7,46.6,92.1,47.7,89.7z"/>
		<path fill="#B32621" d="M43,110.1c0.3-1,1.1-1.5,1.2-2.7c-3.9-0.8-7.3-2.6-6.9-6.6c1.7-1,4.2,0,5.7,0.4c1.2,1,1.3,3,2.7,3.9
			c0.1-1.6,1.7-1.6,1.5-3.5c-2.8-1.6-7-3.7-11.5-2.3c-0.4,0.1-0.6,0.4-0.8,0.8c1,1.3,0.8,2.6,1.1,3.9
			C38.6,105.8,39.7,109.1,43,110.1z"/>
		<path fill="#B32621" d="M41.1,113.6c0.1-1.4-3.2-2.1-3.5-0.8C38.6,114,39.4,113.7,41.1,113.6z"/>
		<path fill="#B32621" d="M68.7,133.6c7.2,1.3,14.6,4.4,22.6,3.5c-1.8-1-3.3-2.3-5-3.8c-1.5-1.5-3.3-4.4-5.4-4.6
			c-4.2-0.5-9.1-1-13-3.1c-0.1-0.1,0-0.6-0.4-0.4c-1.1,2.2-3.2,3.4-4.2,5.8C65,131.9,67.7,131.9,68.7,133.6z"/>
		<path fill="#B32621" d="M70.7,139.4c0.1,0,0.6,0.7,0.8,0.8c0.9,0.2,2,0.1,3.1,0.4c8,2,16.8,3,26.5,2.7c0.3-1.1-1.1-0.9-1.5-1.2
			c-1.8-1-3.7-2-5.4-3.1c-6.4-0.2-11.7-1-16.9-2.3c-2.6-0.6-5.3-1.1-7.7-1.9c-1.1-0.4-2.1-1.1-3.1-1.5c-1.3-0.6-3.1-1.2-4.2-1.2
			c-0.8,1.1-2.2,1.6-2.3,3.5c2.6,0.9,4.7,2.5,8.1,2.7C68.1,139.7,69.7,139.1,70.7,139.4z"/>
		<path fill="#B32621" d="M99.8,146.3c1.2-0.2,3.3,0.5,3.8-0.4c-1.3,0-2.6,0-3.8,0C99.8,146.1,99.8,146.2,99.8,146.3z"/>
		<path fill="#171717" d="M152,148.6c0-1.2-1.3-1-2.3-1.2C149.7,148.6,151,148.4,152,148.6z"/>
		<path fill="#171717" d="M152.4,151.3c-0.1-1.1-2.8-1.5-3.5-0.8C150.2,150.7,150.7,151.5,152.4,151.3z"/>
		<path fill="#171717" d="M148.9,157.1c-0.3,0.1-0.8,0-0.8,0.4c1.9-0.2,2.3,1,4.2,0.8c0.1,0,0.3,0,0.4,0
			C152.8,156.9,149.7,157.3,148.9,157.1z"/>
		<path fill="#B32621" d="M31.2,228c0.4-0.4,1.1-0.4,1.5-0.8c0.4-0.3,0.7-1.1,1.1-1.5c1.8-1.8,3.9-4.2,5.4-5.8
			c0.3-0.3,0.1-0.8,0.4-1.2c0.1-0.2,0.6-0.2,0.8-0.4c0.3-0.3,0.1-0.8,0.4-1.2c0.6-0.7,1.6-1.2,1.9-1.5c0.3-0.3,0.1-0.8,0.4-1.2
			c1.3-1.5,2.6-2.7,3.5-4.2c0.6-1.2,1.1-1.8,1.5-2.3c0.2-0.3,0.2-0.9,0.4-1.2c1-1.6,1.3-2.7,1.9-4.6c0.3-1,1-1.9,1.2-2.7
			c0.9-3.9,0.6-6.8,0-10.4c-0.3-1.7-0.1-3.4-0.4-4.6c-0.2-0.8-1-2.3-1.5-3.5c-0.2-0.5-0.5-1.4-0.8-1.9c-0.4-0.9-1.2-1.9-1.5-2.3
			c-0.2-0.2-0.2-0.6-0.4-0.8c-0.9-1.1-1.2-1.8-1.9-2.7c-0.7-1-1.2-1.8-1.9-2.7c-0.4-0.5-0.8-0.7-1.1-1.2c-0.8-0.9-1.3-2-1.9-2.7
			c-1.7-2-4.4-4.1-6.1-5.4c-0.5-0.4-0.7-0.8-1.1-1.2c-0.5-0.4-1.1-0.5-1.5-0.8c-0.6-0.5-0.6-1.6-1.9-1.2c-0.1-0.5-0.4-0.2-0.8,0
			c-0.4,0-0.5,0.3-0.8,0.4c-0.9,1.8,1.6,2.1,2.3,2.7c2.6,2.2,5.1,4.2,7.3,6.6c1.3,1.4,2.3,3.1,3.4,4.6c0.2,0.3,0.9,0.4,1.2,0.8
			c0.3,0.5,0.1,1.1,0.4,1.5c0.5,0.7,1.4,1.2,1.9,1.9c0.5,0.8,0.7,1.8,1.1,2.7c0.5,0.9,1.2,1.8,1.5,2.7c0.8,2.1,0.8,3.6,1.2,5.4
			c0.6,3.3,1.3,6.1,0.8,9.6c-0.6,4.2-2.5,7.3-4.2,10c-0.6,0.9-1.1,2.2-1.5,2.7c-0.3,0.3-0.5,0.8-0.8,1.2c-0.6,0.6-0.8,1.1-1.1,1.5
			c-1,1.2-1.8,2-2.7,3.1c-2.2,2.5-4.4,5.2-6.5,7.7c-2.3,2.7-5.1,4.8-7.3,7.3c-0.7,0.8-1.4,1.7-2.1,2.6h4.7c1.2-1.3,2.3-2.5,3.1-3.8
			C30.8,229,30.8,228.4,31.2,228z"/>
		<path fill="#B32621" d="M20.4,193c1.7-2.4,3.8-4.4,5.4-6.9c0.7,0,1.2-0.1,1.5-0.4c0.5-1.5,1.8-2.4,2.7-3.5
			c0.9-1.1,1.8-2.3,2.7-3.5c1.9-2.4,4-4.4,5.4-6.9c-2.1-3.1-5.1-5.7-7.7-7.7c-1.9-1.5-3.9-2.5-5.4-4.2c-0.4,0-0.8,0-1.1,0
			c-1.4,2.6-3.2,4.7-5,6.9c-2.3,2.9-4.6,5.5-7.1,8v1.4c0.1-0.1,0.1-0.1,0.2-0.2c2.1-1.8,5.3-2.6,9.2-1.5c-0.4,1.1-1.3,1.8-1.9,2.7
			c-0.5,3.6-2.1,6.1-3.5,8.9c-1.2,0-2.3,1-3.1,1.5c-0.3,0.2-0.6,0.4-1,0.6v3.4c1.2,0.3,2.7,0,4,0.3C17.7,192.1,19.1,192.8,20.4,193z
			"/>
		<path fill="#B32621" d="M121.3,162.1c0-0.7-0.3-1-0.8-1.2c-2,0.9-4.9,1-7.3,1.5c0.9,3.6,2.2,6.8,4.2,9.3
			C118.7,168.5,119.6,164.9,121.3,162.1z"/>
		<path fill="#171717" d="M148.5,161.3c1.5-0.2,3.4,1.8,4.2,0C151.5,161.1,149.9,160.6,148.5,161.3z"/>
		<path fill="#B32621" d="M92.9,173.7c0.9,2.5,2.8,4.3,4.2,6.6c0.3,0.5,0.4,1.4,0.8,1.9c0.4,0.6,0.8,1,1.1,1.5
			c1.3,2.6,2.4,5.1,3.5,7.3c1.2,2.7,2.1,5.3,3.1,7.7c0.5,1.3,0.6,2.9,1.9,3.9c-0.4-2.1-0.1-4.1-0.4-6.2c-0.5-3.9-2.5-8.7-1.9-11.9
			c-1.4-3.6-2.4-7.6-3.8-11.2c1.7-1.2,6.8-0.8,8.4-0.8c0.4-3.5,2.6-7.2,2.3-10c-8.2,0.4-19.9,1.6-28.4-0.4c0.2,1.2,1.2,1.8,1.9,2.7
			c1.5,1.9,2.9,3.4,4.2,5c0.8,0.9,1.1,2.2,2.3,2.7c0.6-1.5,1.3-3.1,1.9-4.6c0.7-1.5,1.2-3.2,2.3-4.2c0.6,1.4,1.6,3,2.3,4.6
			c0.7,1.6,1.9,3.4,1.5,5C97.7,173.4,96.1,173.6,92.9,173.7z"/>
		<path fill="#171717" d="M148.9,165.2c0.9,0.4,1.9,0.7,3.1,0.8c0.1,0,0.3,0,0.4,0C152.2,164.6,149.5,164.8,148.9,165.2z"/>
		<path fill="#171717" d="M149.7,169.1c1,0.3,2.2,1.4,2.3,0c-0.9-0.3-2.5-0.4-4.2-0.8C147.3,169.5,149.1,168.9,149.7,169.1z"/>
		<path fill="#171717" d="M148.1,172.5c0.9,0.1,1.4,0.6,2.7,0.4C151.3,171.6,148.2,172,148.1,172.5z"/>
		<path fill="#B32621" d="M110.2,173.3c-0.8,9.2-2.4,19.7-1.1,29.7c0.6-3.4,1.4-6.5,1.9-9.2c0.2-1,0.1-2.4,0.4-3.5
			c0.4-1.8,1.3-3.6,1.9-5.4c0.8-2.5,1.6-5.5,2.3-7.3c0.7-1.7,1.4-2.7,1.2-4.6C113.4,172.8,112.9,173.2,110.2,173.3z"/>
		<path fill="#B32621" d="M35,177.9c-0.4,0.5-0.4,1.1-0.8,1.5c-2.8,3.3-5.6,6.2-8.4,9.2c-1.3,1.4-3.5,3-3.4,5.4
			c1,0.5,1.7-0.6,2.3-1.2c1-0.8,1.8-1.9,2.3-2.7c0.1-0.2,0.6-0.5,0.8-0.8c0.4-0.6,0.8-1.5,1.2-1.9c0.8-0.9,2.2-1.3,2.7-1.9
			c0.3-0.3,0.1-0.9,0.4-1.2c2.1-2.3,4-4.3,5.8-6.5c0.9-1.1,2.3-2.2,2.3-3.9c-0.5,0-0.5-0.5-1.1-0.4C38,175.5,35.9,176.8,35,177.9z"
			/>
		<path fill="#171717" d="M152,181c0-0.3,0-0.5,0-0.8c-1.3-0.1-2.4-0.8-3.1,0.4C150.3,180.3,150.7,181.1,152,181z"/>
		<path fill="#B32621" d="M63.4,199.5c-0.2-1.5-1.7-3-2.3-3.9c-0.4-0.6-0.9-1.2-1.2-1.5c-0.4-0.6-0.9-1.2-1.2-1.5
			c-0.7-1-1.2-1.5-1.9-2.3c-1.3-1.6-2.3-3.2-3.8-3.9c-0.1,3.1,1,4.5,2.3,6.2c0.7,0.9,1.7,1.9,2.3,2.7
			C59,197.1,60.6,200.4,63.4,199.5z"/>
		<path fill="#171717" d="M149.3,189.5c0,1.1,2.4,1.4,2.3,0.4C150.7,189.9,150.5,189.2,149.3,189.5z"/>
		<path fill="#171717" d="M148.9,192.2c1.4-0.4,2.2,1.6,2.7,0C151.3,191.8,149.1,191.4,148.9,192.2z"/>
		<path fill="#171717" d="M146.6,198c0.5,0.1,1.1-0.1,1.2,0.4c1.6-0.3,3.2,0.5,3.8,0C151.1,197.3,147.6,197.3,146.6,198z"/>
		<path fill="#B32621" d="M53.4,198.3c-0.4,1.9-1.9,4.4-0.8,6.6c1.4,0.3,0.8-1.5,1.9-1.5c-0.1-1.3,1.2-1.1,1.5-1.9
			C55.6,200,55.1,198.5,53.4,198.3z"/>
		<path fill="#171717" d="M146.2,201.4c1.6,0.3,3.6,0.2,5,0.8C151.5,199.7,147.7,201.2,146.2,201.4z"/>
		<path fill="#B32621" d="M153.9,216.8c-0.7-0.4-1.9-0.8-2.3-1.2c-0.7-0.5-1.4-1.9-1.9-2.3c-0.3-0.2-0.8-0.1-1.2-0.4
			c-0.9-0.7-1.7-1.8-2.3-2.3c-0.3-0.2-0.9-0.1-1.1-0.4c-0.1-0.1,0.1-0.6,0-0.8c-0.1-0.1-0.6,0.1-0.8,0c-1.9-1.7-3.4-4-5.7-5
			c0-0.2-0.1-0.5-0.4-0.4c-0.6,1.5-1.2,2.6-1.9,3.9c-0.6,1-1,2.1-1.5,3.1c-1.1,1.8-2.5,3.5-3.5,5.4c-1,2-1.9,4-3.1,5.8
			c-1.3,2-2.8,4.5-3.8,5.8c-0.2,0.3-0.6,0.2-0.8,0.4c-0.4,0.4-0.4,1.1-0.8,1.5c-0.8,1.1-1.5,2.3-2.1,3.4h3.8
			c1.4-2.2,2.8-4.4,4.1-6.1c1.4-1.7,2.9-3.8,3.8-5.4c0.5-0.8,0.7-1.9,1.1-2.7c0.4-0.7,1.1-1.3,1.5-1.9c0.5-0.9,0.7-1.9,1.2-2.7
			c0.9-1.5,2-2.9,3.1-4.2c2.6,2.5,5.5,4.4,8.4,6.5c2.8,2,5.8,4.6,9.8,5.4V220C156.8,218.3,155.1,217.6,153.9,216.8z"/>
		<path fill="#B32621" d="M69.9,204.5c0,0.9,0,1.8,0,2.7c1.3-0.1,2.4-0.4,3.1-1.2C72,205.5,71.2,204.7,69.9,204.5z"/>
		<path fill="#171717" d="M147.8,204.9c0.1,0.4,0.4,0.6,0.8,0.8c0.8,0,1.5,0,2.3,0C151.1,204.2,148.7,205.2,147.8,204.9z"/>
		<path fill="#B32621" d="M60.3,211.1c-2.9-0.1-4.5,1.1-5.4,3.1c0.1,1.8,2.2,1.6,2.7,3.1c1.4-0.4,2-1.6,3.5-1.9
			C61.2,213.5,60.8,212.3,60.3,211.1z"/>
		<path fill="#B32621" d="M63,215.3c1.2,0.7,1.8,1.8,3.1,1.9c0.3,0,1.5-0.5,1.9-0.8c0.7-0.5,1.3-1.1,1.5-1.9c-1.6-1.5-2.2-4-5.8-3.5
			C62.8,211.7,63,213.6,63,215.3z"/>
		<path fill="#B32621" d="M52.6,224.2c2,0,2.7-1.4,4.2-1.9c0-1.3,0-2.6,0-3.9c-1.4-0.5-2.2-1.7-4.2-1.5
			C51.1,218,50.9,223.1,52.6,224.2z"/>
		<path fill="#B32621" d="M68.7,224.9c0.6,0.2,1.3-0.1,1.9,0c1.2-1.8,1.6-5.3,0-6.9c-1.9-0.4-2.2,0.9-3.8,0.8
			c-0.1,3.1-0.5,4.2,1.2,5.4C68.3,224.4,68.3,224.8,68.7,224.9z"/>
		<path fill="#B32621" d="M41.9,223.8c0.8-1.1,1.9-1.9,2.3-3.5C42.8,216.2,38.1,222.7,41.9,223.8z"/>
		<path fill="#B32621" d="M79.9,224.2c0-1.4,0-2.8,0-4.2c-1,0.2-1.8,0.8-2.3,1.5C78.8,221.9,79,223.3,79.9,224.2z"/>
		<path fill="#B32621" d="M57.2,223.8c-0.7,1.1-3.6,1.6-2.7,3.1c1.4,0.8,4.8,1.2,6.1,0C60.4,225,58.2,225,57.2,223.8z"/>
		<path fill="#B32621" d="M67.6,227.2c0.1-3.6-4.6-2.9-5,0C63.6,227.9,66.6,227.9,67.6,227.2z"/>
		<path fill="#B32621" d="M38.8,227.6c-0.1-1.3-1.1-1.7-1.9-2.3c-0.5,1-1.6,1.5-1.9,2.7C36.7,228.3,37.3,227.5,38.8,227.6z"/>
		<path fill="#B32621" d="M92.1,230.7c1.3-0.2,3.6,0.5,4.2-0.4C95.1,230.6,92.8,229.8,92.1,230.7z"/>
		<path fill="#B32621" d="M111.7,231.1c1.2-0.2,3.3,0.5,3.8-0.4C114.4,231,112.2,230.2,111.7,231.1z"/>
		<path fill="#B32621" d="M37.7,233.3h2.7c-0.6-0.4-1.2-0.8-1.9-1.1C38.2,232.6,37.9,233,37.7,233.3z"/>
		<path fill="#B32621" d="M48,233c-0.4-0.3-0.7-0.5-1.2-0.8c-0.3,0.4-0.6,0.7-1,1.1h2.4C48.1,233.1,48,233,48,233z"/>
		<path fill="#B32621" d="M54.1,233.3H57c-0.5-0.5-1.2-0.9-2.1-1.1C54.7,232.6,54.4,233,54.1,233.3z"/>
		<path fill="#B32621" d="M29.6,233.3h2.6c-0.5-0.4-1.2-0.7-2.1-0.7C29.9,232.9,29.7,233.1,29.6,233.3z"/>
		<path fill="#B32621" d="M62.9,233.3h2.6c-0.5-0.4-1.1-0.8-2.1-0.7C63.2,232.9,63.1,233.1,62.9,233.3z"/>
		<path fill="#B32621" d="M96.3,233.3h2.1c-0.5-0.3-1-0.5-1.6-0.7C96.6,232.9,96.4,233.1,96.3,233.3z"/>
		<path fill="#B32621" d="M71.6,233.3h1.6c-0.4-0.2-0.8-0.3-1.3-0.3C71.7,233.1,71.6,233.2,71.6,233.3z"/>
		<path fill="#B32621" d="M79.7,233.3h1.4c-0.3-0.2-0.7-0.3-1.2-0.3C79.8,233.1,79.7,233.2,79.7,233.3z"/>
		<path fill="#B32621" d="M88,233.3h1.4c-0.3-0.1-0.7-0.3-1.1-0.3C88.2,233.1,88.1,233.2,88,233.3z"/>
		<path fill="#B32621" d="M104.9,233.3h1.5c-0.3-0.2-0.7-0.3-1.2-0.3C105.1,233.1,105,233.2,104.9,233.3z"/>
		<path fill="#B32621" d="M112.9,233c-0.1,0.1-0.1,0.2-0.2,0.3h1.8C114.1,233.1,113.6,233,112.9,233z"/>
		<path fill="#171717" d="M11.8,156v1.1c0.6,0.8,1,1.7,1.3,2.8c0,1.4,0,2.8,0,4.2c-0.4,0.8-0.8,1.5-1.2,2.3
			c-0.1,0.1-0.1,0.2-0.2,0.2v1.5c1.4-1.6,2.5-3.9,2.5-6.3C14.3,159.4,13.3,157.4,11.8,156z"/>
		<path fill="#171717" d="M156.2,147.5c-0.3-1.8-0.1-3.8-0.4-5.8c-0.4-2.7-1.4-4.9-1.1-8.5c0-0.1,0-0.3,0-0.4c-0.1,0-0.3,0-0.4,0
			c0.2-4.1-0.5-9.2,0.4-12.7c0.6-1.7,2.3-1.6,2.9-3v-2.5c-0.4-1.1-1.5-1.7-3.2-2.3c-0.9-2.1-1.8-4.7-1.9-8.5c0,0.1-0.6-0.2-0.4-0.4
			c0.9-0.7-0.3-3.3,0-4.2c0.6-1.9,2.4-1.8,3.1-3.5c0.1-2.1,0-4.1-0.4-5.8c0-0.1,0-0.3,0-0.4c-1-2.6-2.6-4.6-3.5-7.3
			c0-0.1,0-0.3,0-0.4c-0.3-0.2-0.5-0.4-0.6-0.8H149c-1.5,3.8-5.4,9.2-3.9,13.5c0.6,1.8,1.8,2.2,3.4,3.5c-0.5,1.4,0.1,3.1-0.4,4.6
			c-0.1,0.3-0.7,0.3-0.8,0.8c-0.4,1.8-0.6,3.6-1.2,5.4c-0.5,1.5-0.5,3.8-2.7,3.9c-1.8-0.6-1.3-3-1.5-4.2c-0.3-1.5-0.8-2.9-1.2-4.2
			c-0.3-1.3-0.3-2.6-0.8-3.9c-0.2-0.6-0.5-1.3-0.8-1.9c-0.7-1.7-1.7-3.4-2.7-5.4c-1.4-3.1-3.1-7.1-3.1-11.9h-1.1
			c0.1,0.6-0.1,1.5,0,1.9c0.5,2.8,1.1,5.7,2.3,8.9c1,2.5,2.3,5,3.5,7.7c0.8,1.9,1.2,4.1,1.9,6.9c0.6,2.3,1.4,5,1.5,8.1
			c0,0.4-0.4,0.7-0.4,0.8c0.1,1.9,0.5,3.6,0.4,5.4c-0.2,2.8-0.9,5.6-1.1,8.5c-0.3,3.9-0.5,8.1,0,11.9c0.1,0.8,0.7,1.8,0.8,2.7
			c0.1,1-0.3,1.3,0,2.7c0.6,2.6,2.4,4.6,1.9,7.7c-2-0.2-3.6-1.3-5-2.3s-2.7-2.2-3.8-3.5c-1-11.3,3.1-26.4,1.1-37.8
			c-0.4-2.2-1.3-4-1.9-5.8c-0.6-1.7-0.6-3.5-1.9-4.6c-0.1-1.3-0.6-2.2-0.4-3.9c-0.7,0.4-0.8,1.2-0.8,2.3c-0.8,3.6,0.2,10.4-0.8,15.4
			c-0.2,1-0.8,2.2-1.1,3.5c-0.4,1.7-1,3.5-1.5,5c-0.5,1.3-0.7,2.2-1.2,3.5c-0.7,2.3-2.2,5.1-3.4,7.3c-1.1,2.1-2.1,4.2-3.1,5.4
			c-1.9,2.3-4.5,4.1-6.9,4.6c-0.9,0.9-3.7,0.4-4.2-0.4c-8.8-1.4-14.5-5.7-20.3-10c-1.7-1.5-3.5-2.9-4.6-5c-0.8-0.4-1-1.3-1.5-1.9
			c-0.8-1.1-1.8-2.1-2.7-3.5c-0.4-0.6-0.7-1.5-1.2-1.9c-1.2-1.2-2.8-1.2-3.8-2.7c-0.9-2.1,1.2-3.4,1.9-5c1,0.4,0.3,2.5,1.1,3.1
			c0.3-2.5-0.5-4.3,0.8-6.6c0.1-0.3,0.6-0.4,0.8-0.8c0.8-1.3,2-3.6,2.3-5.4c2-1.1,2.4-3.7,3.4-6.2c1.3-3,2.8-7.4,4.2-11.2
			c3.3-1.6,7-3,9.9-5H97c-1.6,1.2-3.7,1.8-5.6,2.7c-0.8,0.4-1.6,1.3-2.7,1.2c0.5-2.1,3-2.8,5-3.9h-1.6c-0.7,0.3-1.4,0.6-2.2,0.8
			c-0.2-0.3-0.3-0.5-0.3-0.8H88c-0.1,1.4-0.5,2.8-0.8,4.2c-0.2,1-0.1,2.1-0.4,3.1c-0.1,0.4-0.7,0.9-0.8,1.2c-0.1,0.5,0.2,1.1,0,1.5
			c-0.2,0.7-0.9,1.5-1.2,2.3c-0.3,0.9-0.5,1.9-0.8,2.7c-0.3,0.9-0.8,1.4-1.1,2.3c-0.5,1.3-0.7,2.8-1.5,3.9L81,103
			c-0.1,0.1-0.7-0.1-0.8,0c-0.5,0.7-0.8,1.7-1.1,2.3c-0.5,0.9-0.6,1.8-1.2,2.7c-0.4,0.7-1.1,1.3-1.5,1.9c-0.5,0.9-0.7,1.8-1.2,2.7
			c-1,1.9-2.8,4-4.2,6.2c-0.5,0.8-1,1.5-1.5,2.3c-1.1,1.6-2.4,3.2-3.8,5c-0.2,0.3-0.6,0.5-0.8,0.8c-0.6,0.7-0.9,1.6-1.5,2.3
			c-0.7,0.8-1.9,1.6-2.7,2.7c-0.4,0.6-0.9,1.2-1.5,1.9c-2.4,2.6-5.1,5.6-8.1,8.1c-2,1.6-4,3-6.1,4.6c-1.3,1-2.5,2-4.2,3.1
			c-1.4,0.9-2.7,1.7-4.2,2.7c-0.7,0.4-1.6,0.7-2.3,1.2c-0.2,0.1-0.2,0.7-0.4,0.8c-1.8,0.8-4.3,2.3-6.5,3.1c-0.6,0.2-1.4,0-1.9,0.8
			c-0.3-1.7,1.6-3.6,2.7-5.4c1.1-1.8,2.2-3.7,3.1-5.4c1.7-0.6,3.1-1.7,4.6-2.7c0.5-0.4,1.1-0.5,1.5-0.8c2.6-1.8,4.8-4,7.3-6.2
			c6.8-6,13.7-13.1,19.2-20.8c1-1.3,1.7-2.8,2.7-4.2c0.8-1.2,1.9-2.5,2.7-3.9c0.8-1.3,1.4-2.8,2.3-4.2c0.8-1.3,2-2.5,2.7-3.9
			c0.8-1.5,1.2-3.4,1.9-5c1.7-4.2,3.9-9.4,5-14.6h-0.9c-0.1,0.7-0.5,1.5-0.6,1.9c-1.6,7.9-6.1,16.8-10,22.7
			c-0.5,1.6-1.7,2.4-2.3,3.9c-1.2,1.6-2.2,3.5-3.5,5c-0.8,1.4-1.9,2.5-2.7,3.9c-0.7,1-1.2,2.2-2.3,2.7c-2.4,2.9-4.7,6-7.7,8.5
			c-0.7,1.3-2,1.8-2.7,3.1c-3.3,3.1-6.7,6.1-10.4,8.9c-1,0.5-1.8,1.3-2.7,1.9c-0.6,0.6-1.8,0.5-2.3,1.2c-0.6-2.1,2.7-4,4.6-5.4
			c2.9-2.1,6.2-4.9,8.8-7.3c1.4-1.7,2.9-3.2,4.6-4.6c1.5-1.8,3.2-3.4,4.6-5.4c-0.1-0.3,0.1-0.4,0.4-0.4c0.9-1.5,2.3-2.6,3.1-4.2
			c1.4-1.4,2.9-4,4.2-6.2c0.2-0.4,0.5-0.5,0.8-0.8c1.7-2.3,3-6.5,5.7-8.5c0.1-2,1.8-3.6,2.7-5.4c0.4-0.9,0.4-2.2,0.8-3.1
			c0.1-0.4,0.6-0.7,0.8-1.2c1.1-2.9,2.3-6.5,3.4-10c0.1-0.3,0.2-0.7,0.3-1.2H75c-0.9,3.3-1,7.5-4.2,8.5c1.1,2.1,1.1,5.4-1.5,5.8
			c-1.1-0.3-1.6-1.2-1.5-2.7c0.8,0.1,0.4,1.4,1.2,1.5c1,0.3,0.8-0.8,1.5-0.8c0.4-2.6-0.9-3.5-2.3-3.5s-2.3,1.6-2.7,3.1
			c-0.6,2.2,0.2,6,0,8.9c-0.1,0.8-0.2,2.1-0.4,2.7c-0.1,0.2-0.7,0.2-0.8,0.4c-0.8,1.9-2.1,2.6-4.2,3.9c0.4,1,0.5,2.4,0.4,3.9
			c-1,0.4-1.3,1.5-2.7,1.5c-0.9-0.5-2.3-1.8-1.1-3.1c1.2-0.2,0.3,1.8,1.1,1.9c1.7,0.2,1.9-1.2,1.9-2.7c-1.5-2.1-4.5,0.1-5,1.5
			c-0.9,2.8-0.9,7.6-1.5,10c-1.8,1.3-2.8,3.3-5.4,3.9c0,1,0,2.1,0,3.1c-1,0.6-1.5,0.9-2.7,0.4c-0.3-1.6,2.5-0.1,1.9-1.9
			c-1.1-3-3.9,0.5-4.6,1.5c0,1.4,0,2.8,0,4.2c-1.4,0.2-2.4,0.6-2.7,1.9c-1.1-1,0.5-2.5,1.5-2.7c0-3.4,1.5-5.2,3.1-6.9
			c4.6-0.1,7.5-2,8.4-5.8c-0.5-0.7-0.8-1.5-1.9-1.5c-1.2,0.1-1.7,0.9-1.5,2.3c0.3,1.2,0.8-0.4,1.5,0c0.2,1.9-2.2,1.1-2.7,0.4
			c-0.3-1.7,0.7-2.2,1.2-3.1c0.9,0,1.8,0,2.7,0c2-1.9,1-4.6,1.9-6.6c0.1-0.2,0.7-0.2,0.8-0.4c0.3-0.7,1.2-1.8,2.3-2.3
			c1-0.4,2.4-0.2,3.4-0.8c2.5-1.3,3.3-2.7,4.2-5.4c-0.5-0.8-0.6-2-1.9-1.9c-1.7-0.2-1.6,1.5-2.3,2.3c0.3,1.8,1.3-0.6,1.5,0.4
			c0.1,1.8-1.8,1.1-2.3,0.4c0-2.8,1.6-4.1,4.6-3.9c0-5.3-0.3-10.8,5.4-10.4c2.9-0.3,5.3-6.1,1.5-7.3c-0.3,0.1-0.4,0.4-0.8,0.4
			c-0.7,0.2-0.8,3.1,0.8,2.3c-1.8,2.5-3.2-2.3-1.2-3.1c1.1,0.1,2.5-0.2,3.1,0.4c0.5-0.1,0.7-0.4,0.9-0.8h-6.6
			c-0.5,1-1.5,1.8-1.9,2.7c-1.1,2.1-2.2,4.7-3.5,6.9c-1.5,2.7-3,5.1-4.6,8.1c-0.7,1.4-1.1,3.2-2.7,3.9c-0.3,1.7-1.5,2.4-1.9,3.9
			c-0.8,1.3-1.6,2.5-2.3,3.9c-0.6,1.3-1.3,2.6-1.9,3.9c-1.3,2.7-2.9,5-4.2,7.7c-1.8-0.7-3.7-1.2-4.6-2.7c0.1-2,1.8-3.4,2.7-5
			c0.7-1.3,1.1-3.4,2.3-4.6c1.2-1.3,2.2-5.2,3.4-6.9c0.1-0.1,0.7-0.3,0.8-0.4c3.1-6.9,7.6-14.1,11.4-21.2h-1.6
			c-0.5,0.2-1.1,0.2-1.6,0H50c-1.5,0.4-2.9,0.9-4.2,1.9c-1.9,1.4-4.1,4.3-3.5,7.7c0.1,0.4-0.4,0.3-0.4,0.4c0.1,2,1.2,3.8,1.5,5.8
			c-1.2-0.1-2.2-0.4-3.1-0.8c-1.4,0-2.8,0-4.2,0c-0.9,0.7-2.7,0.6-3.4,1.5c-0.3,1.3,0.6,1.5,0.4,2.7c0.6,2,1.2,4,2.3,5.8
			c0.5,0.7,1.7,1.5,1.1,2.3c-1.4-0.4-1.5-2.1-2.3-3.1c-0.6-0.9-1.4-1.7-1.9-2.7c-0.8-1.4-1.9-2.5-2.7-3.9c2.5-4.1,3.8-11.1,2.9-17.7
			h-0.9c0,0.6-0.1,1.3,0,1.9c0,0.1,0,0.3,0,0.4c0.8,3.9,0.1,8.1-1.2,11.6c-1.1,3.1-2.8,4.6,0.4,6.6c2.5,5.9,7.2,9.4,7.3,17.7
			c1.2,1.8,3.3,2.6,5.4,3.5c-4.5,9.6-10,18.7-15.3,27.7c-0.4,0.6-0.7,1.3-1.1,1.9c-1.8,2.6-3.7,6.3-5.8,9.2
			c-0.8,1.1-1.8,2.2-2.7,3.5c-0.8,1.1-1.4,2.4-2.3,3.5s-2.1,2.1-3.1,3.1c-0.4,0.5-0.9,0.9-1.3,1.4v1.6c2.5-2.5,4.8-5.1,7.1-8
			c1.8-2.3,3.6-4.3,5-6.9c0.4,0,0.8,0,1.1,0c1.4,1.8,3.5,2.7,5.4,4.2c2.5,2,5.6,4.7,7.7,7.7c-1.3,2.5-3.5,4.6-5.4,6.9
			c-0.9,1.1-1.7,2.3-2.7,3.5c-0.9,1.1-2.2,2-2.7,3.5c-0.3,0.3-0.9,0.4-1.5,0.4c-1.5,2.6-3.7,4.5-5.4,6.9c-1.3-0.2-2.7-0.8-4.6-1.2
			c-1.3-0.2-2.9,0-4-0.3v1c5.3-0.2,10.7,2.4,13.2,5.4c0.1,0.9,0.5,1.6,0.8,2.3c0.4,0.9,1.5,1.1,1.9,1.9c0,0.9,0,1.8,0,2.7
			c0.4,0.5,1.3,0.5,1.5,1.2c-0.3,0.9-1.3,1-1.9,1.5c-0.4,0.7,0,2.1-1.1,1.9c0.4-3.7-3.1-3.3-3.1-6.6c-1.5-1.1-3-2.1-4.2-3.5
			c-0.2,1.9,1.8,3.9,2.3,6.2c0.1,0.3,0.1,3.9,0,3.9c0.5,0.4,0.3,3.4-1.9,3.1c-1.1-1.5,0.5-2.9,1.1-3.9c-0.9-0.2-0.8,0.7-1.9,0.4
			c-0.8-1.5-1-3.6-2.7-4.2c-0.4,0.9,1.3,2.1,1.9,3.9c0.8,2.1,0.9,7.7-2.3,7.7c-0.4-2.1,0.7-2.7,1.1-3.9c-0.1-0.8-1.2,0.6-1.5,0.8
			c-1.4-0.9-1.5-3.1-3.1-3.9c0.7,2.5,3.1,5.3,2.3,8.9c-1.2-0.3-1.1,0.7-2.3,0.4c-0.1-0.1-0.1-0.2-0.2-0.2v5c0.6,0.2,1.2,0.4,1.7,0.7
			c1.6-0.3,2.2-1.6,3.1-2.7c4.1-1.3,6.5-4.3,12.3-3.9c1.4,0.1,1.6,1.4,3.1,1.5c0.7-0.9,0.4-3.2,0-4.2c5.4-4.1,11.3-7.7,13.8-14.6
			c0.6,1.4-0.6,2.6-1.1,3.9c-0.5,1.2-1.2,2.7-1.9,3.9c-0.7,1.1-1.8,1.9-2.7,3.1c-0.3,0.3-0.1,0.8-0.4,1.2c-0.4,0.5-1.3,1.1-1.9,1.9
			c-0.2,0.3-0.1,0.9-0.4,1.2c-0.2,0.3-0.9,0.1-1.2,0.4c-0.3,0.3-0.1,0.9-0.4,1.2c-1.6,1.8-4.3,4.3-6.1,6.6c-1.3,1.5-1.7,3.5-4.2,3.9
			c-1.4,2.3-3.3,4-4.9,6.1h2c0.7-0.9,1.4-1.8,2.1-2.6c2.1-2.5,5-4.6,7.3-7.3c2.2-2.5,4.3-5.2,6.5-7.7c0.9-1,1.7-1.9,2.7-3.1
			c0.4-0.5,0.6-1,1.1-1.5c0.3-0.3,0.5-0.8,0.8-1.2c0.4-0.4,1-1.8,1.5-2.7c1.7-2.7,3.6-5.9,4.2-10c0.5-3.5-0.2-6.4-0.8-9.6
			c-0.3-1.8-0.3-3.3-1.2-5.4c-0.4-0.9-1-1.8-1.5-2.7s-0.6-1.9-1.1-2.7c-0.5-0.7-1.4-1.3-1.9-1.9c-0.3-0.4-0.1-1.1-0.4-1.5
			c-0.2-0.3-0.9-0.4-1.2-0.8c-1.2-1.5-2.1-3.2-3.4-4.6c-2.2-2.4-4.6-4.4-7.3-6.6c-0.7-0.6-3.2-0.9-2.3-2.7c0.3-0.1,0.4-0.4,0.8-0.4
			c0.3-0.2,0.7-0.5,0.8,0c1.3-0.4,1.3,0.7,1.9,1.2c0.4,0.3,1,0.4,1.5,0.8c0.4,0.3,0.6,0.8,1.1,1.2c1.8,1.3,4.4,3.4,6.1,5.4
			c0.7,0.7,1.2,1.8,1.9,2.7c0.4,0.5,0.8,0.6,1.1,1.2c0.7,0.9,1.2,1.7,1.9,2.7c0.7,0.9,1.1,1.6,1.9,2.7c0.2,0.2,0.2,0.6,0.4,0.8
			c0.4,0.4,1.1,1.4,1.5,2.3c0.2,0.5,0.5,1.4,0.8,1.9c0.5,1.2,1.3,2.6,1.5,3.5c0.3,1.2,0.1,3,0.4,4.6c0.6,3.6,0.9,6.5,0,10.4
			c-0.2,0.8-0.8,1.7-1.2,2.7c-0.6,1.9-0.9,3.1-1.9,4.6c-0.2,0.3-0.2,0.9-0.4,1.2c-0.4,0.5-0.9,1.1-1.5,2.3c-0.8,1.5-2.2,2.7-3.5,4.2
			c-0.3,0.3-0.1,0.9-0.4,1.2c-0.4,0.4-1.4,0.9-1.9,1.5c-0.3,0.3-0.1,0.9-0.4,1.2c-0.2,0.2-0.6,0.2-0.8,0.4c-0.3,0.3-0.1,0.9-0.4,1.2
			c-1.4,1.6-3.6,3.9-5.4,5.8c-0.4,0.4-0.7,1.2-1.1,1.5c-0.5,0.4-1.2,0.3-1.5,0.8c-0.4,0.4-0.4,1-0.8,1.5c-0.8,1.2-1.9,2.5-3.1,3.8
			h2.3c0.1-0.2,0.3-0.4,0.4-0.7c0.9,0,1.6,0.3,2.1,0.7h5.5c0.3-0.3,0.5-0.7,0.8-1.1c0.7,0.3,1.3,0.6,1.9,1.1h5.6
			c0.3-0.4,0.7-0.7,1-1.1c0.4,0.3,0.7,0.5,1.2,0.8c0,0,0.1,0.1,0.3,0.3h5.8c0.3-0.4,0.5-0.7,0.8-1.1c0.9,0.2,1.5,0.6,2.1,1.1h5.9
			c0.2-0.2,0.3-0.4,0.5-0.7c1-0.1,1.6,0.2,2.1,0.7h6.1c0.1-0.1,0.2-0.2,0.3-0.3c0.5,0,1,0.1,1.3,0.3h6.6c0.1-0.1,0.1-0.2,0.2-0.3
			c0.5,0,0.9,0.1,1.2,0.3h7c0.1-0.1,0.2-0.2,0.3-0.3c0.4,0,0.8,0.1,1.1,0.3h6.8c0.2-0.2,0.3-0.4,0.5-0.7c0.6,0.2,1.2,0.4,1.6,0.7
			h6.6c0.1-0.1,0.2-0.2,0.3-0.3c0.5,0,0.9,0.1,1.2,0.3h6.3c0.1-0.1,0.1-0.2,0.2-0.3c0.7-0.1,1.2,0.1,1.6,0.3h6.2
			c0.7-1.1,1.3-2.3,2.1-3.4c0.3-0.5,0.4-1.1,0.8-1.5c0.2-0.2,0.5-0.1,0.8-0.4c1-1.3,2.6-3.8,3.8-5.8c1.2-1.8,2-3.8,3.1-5.8
			c1-1.9,2.4-3.6,3.5-5.4c0.5-0.9,1-2.1,1.5-3.1c0.7-1.2,1.3-2.3,1.9-3.9c0.3-0.1,0.4,0.1,0.4,0.4c2.3,1,3.8,3.3,5.7,5
			c0.1,0.1,0.6-0.1,0.8,0c0.1,0.1-0.1,0.7,0,0.8c0.3,0.3,0.8,0.2,1.1,0.4c0.6,0.5,1.4,1.6,2.3,2.3c0.3,0.3,0.9,0.1,1.2,0.4
			c0.5,0.4,1.2,1.8,1.9,2.3c0.4,0.3,1.6,0.7,2.3,1.2c1.2,0.7,3,1.5,3.6,3.1v-4.6c-0.1,0.1-0.3,0.3-0.6,0.3c-2-1.8-0.6-5.6-0.4-8.9
			c0.1-2,0.3-4,0.4-5.8c0.1-2.5,0.4-5.3,0-7.3c-0.4-2.2-1.8-3.9-3.1-5.4c-0.4-0.5-1.1-0.8-1.2-1.5c2.8,0.1,4.4-2.1,4.8-4.6V180
			c-0.3-2-1.5-3.7-3.6-4c1.2-2.4,2.7-4.7,3.6-7.7v-15.5c0-0.3-0.1-0.7-0.2-1C157,150.3,156.4,148.8,156.2,147.5z M54.2,89.3
			c-0.9,0.2-1.8,0.6-3.1,0.4c0.2,1.3,0.6,2.5,0.4,4.2c0.1,1.7-1.5,5.2-2.6,4.2c0,0,0,0-0.1,0V98c-0.1-0.2-0.3-0.4-0.4-0.7
			c-2.5-6.1,2-13.2,8.1-11.9C56.4,87.4,54.8,87.9,54.2,89.3z M47.7,84.7c0.3-0.2,2.8-1.4,3.4-1.5c1.3-0.3,3,0.2,4.6,0
			c-0.1,1.2-2.2,0.9-3.4,1.5c-0.5,0.2-1,0.8-1.5,1.2c-1.6,1.1-2.1,1.6-3.1,3.9c-1,2.4-1.8,5-0.4,8.5C43.7,94.7,43.6,87.6,47.7,84.7z
			 M36.1,103.9c-0.3-1.3-0.2-2.5-1.1-3.9c0.2-0.3,0.3-0.7,0.8-0.8c4.5-1.4,8.7,0.7,11.5,2.3c0.2,1.8-1.4,1.9-1.5,3.5
			c-1.4-0.8-1.5-2.8-2.7-3.9c-1.6-0.3-4.1-1.4-5.7-0.4c-0.4,4,3,5.7,6.9,6.6c-0.1,1.2-0.8,1.7-1.2,2.7
			C39.7,109.1,38.6,105.8,36.1,103.9z M44.2,105.1c-0.2,1.3-1.8,0.6-2.7,0.4c-0.9-1.2-3.1-1.2-2.7-3.9c0.9,0.5,1.4-1,1.5,0
			C42.6,101.8,43,103.9,44.2,105.1z M37.7,112.8c0.3-1.3,3.6-0.7,3.5,0.8C39.4,113.7,38.6,114,37.7,112.8z M38.8,116.7
			c0-0.6,0-1.3,0-1.9c0.8-0.2,1,0.3,1.5,0.4C39.9,115.7,40,116.8,38.8,116.7z M13.1,223c-0.7-1.2-0.7-2.2,0-3.5c0.5,0,1,0,1.5,0
			C15.5,220.7,15.2,223.5,13.1,223z M29.6,208c0.8,1.1,0.4,3.6-0.8,3.9C26.2,211.8,27.3,206.1,29.6,208z M42.3,203.7
			c-0.7,0.9-1.4,2.4-2.7,3.5c-0.7,0.5-1.6,1.6-2.3,0.8c0-0.1,0-0.3,0-0.4c-0.6-0.7-1.2-1.4-1.9-1.9c-1.4,0.6-0.4,3.7-1.2,5
			c-0.9,0.9-2.3,2.5-3.8,3.5c-1.1,0.7-2.7,0.8-3.4,1.9c-1.8-0.8-2.7,1.3-5,1.2c-0.3-0.9-0.4-2-0.8-2.7c-1,0.8-0.7,2.9-1.9,3.5
			c0,0.5-2.9,3.2-3.5,1.2c-0.1,0-0.3,0-0.4,0c0.3-2.5,3.2-2.4,3.4-5c1.4,0,1.7-1.1,2.7-1.5c-0.2-0.8,0.3-1,0.4-1.5
			c0-1.4,0-2.8,0-4.2c-0.5-1-0.5-2.6-0.8-3.9c1.8,0,1.5,2.1,2.3,3.1c1.5,0.8,1.6,3.1,2.7,4.6c0.7,0.9,1.3,2.2,2.7,1.9
			c2.4-0.4,1.9-4.1,1.1-6.6c-1.2-4-4.7-8.2-5.8-10.4c0.4-0.8,1.3-1.3,1.5-2.3c1.7,0.5,0.7,3.6,1.9,4.6c0.3,2.2,2.2,2.6,3.1,4.2
			c1,0.4,0.8,2.1,0.8,3.5c1.4,0,1.3-1.5,1.5-2.7c7.1,0.2,11.3-4.2,10-11.2c-1.3-1.9-2.4-4-5.4-4.2c-0.5-0.5-1.4-0.5-1.9,0
			c-2.5,0.1-3.6,1.6-4.6,3.1c-2.4,4,1,9.6,5.4,8.1c1.6-0.2,2.5-1.1,2.7-2.7c-0.1-0.3,0.2-0.4,0.4-0.4c0.4-3.5-1.1-5.1-4.2-5
			c-0.7,0.5-1.4,1.2-1.9,1.9c0.5,0.8,0.4,2.2,1.1,2.7c1.6-0.9-0.9-2.5,1.2-3.5c1.9,0.3,2.9,1.5,2.7,3.9c-0.4,0.1-0.3,0.8-0.8,0.8
			c-2.5,2.9-7.2,0.1-6.1-4.2c-0.1-0.3,0.2-0.4,0.4-0.4c0.9-2.2,2.7-3.4,6.1-3.1c2.4,1.1,4.9,4.1,3.8,7.3c-0.9,2.6-2.3,4.6-5.4,5
			c0.1,0.3-0.1,0.4-0.4,0.4c-4.8,0.3-6.9-2-8.1-5.4c-0.8-1.3-0.4-4.1,0.4-5c0.7-1.8,2-3.1,3.4-4.2c1.6-1,4.7-2.5,6.9-1.5
			c2.9,0.3,4,2.4,5.4,4.2C47.2,193.6,45,200.9,42.3,203.7z M41.1,176c1.3,0.4,2,2.1,2.7,3.5c0.7,1.3,1.5,2.9,1.9,4.2
			c0.5,1.7,0.7,5,1.1,7.7c-1.4-2.6-2.8-5.1-5-6.9c-0.9-0.8,0.5-1.5-0.4-2.3c-0.5-0.9-1.1,1.2-1.9,1.2c-1.8,0.1-3.2,0.6-5,0.8
			C36.3,180.9,38.8,178.6,41.1,176z M40,174.1c0,1.6-1.4,2.8-2.3,3.9c-1.7,2.3-3.7,4.3-5.8,6.5c-0.3,0.3-0.1,0.9-0.4,1.2
			c-0.5,0.6-1.9,1.1-2.7,1.9c-0.4,0.4-0.8,1.4-1.2,1.9c-0.2,0.2-0.6,0.5-0.8,0.8c-0.5,0.8-1.3,1.9-2.3,2.7c-0.6,0.5-1.3,1.6-2.3,1.2
			c-0.1-2.4,2.1-3.9,3.4-5.4c2.8-3,5.6-5.9,8.4-9.2c0.4-0.5,0.4-1,0.8-1.5c0.9-1.1,3-2.4,3.8-4.2C39.4,173.6,39.5,174.1,40,174.1z
			 M148.1,85.4c0.2-1.4,1-2.1,1.5-3.1c0.8,0.5,1.3,1.3,1.5,2.3c1,3.2,3.9,6.6,2.7,10.8c-0.4,0.7-0.7,1.3-1.9,1.2
			c-0.5-0.5-0.4-1.7-0.4-2.7c-0.6-2.3-0.9-5-1.2-7.7c-1.8,0.6-0.9,3.2-1.2,5c-0.2,2-0.4,4-0.8,5.4C143.5,95.1,146.3,88.5,148.1,85.4
			z M149.7,94.7c0-1.7-0.1-3.5,0.4-4.6c0.9,0.2,0.2,1.9,0.4,2.7c0.3-0.1,0.4,0.2,0.4,0.4c-0.2,1.9,0.4,4.5-0.4,5.8
			c1.1,0.8-0.4,1.4-0.4,2.3c0,0.7,1.5,1,0.4,1.9c-0.5,0.4-1.2,0.9,0.4,1.2c0.2,1.2-1,1.1-1.5,1.5c0.4,0.8,2,0.6,2.3,1.5
			c-0.3,0.8-2,0.3-2.3,1.2c1.4,0,3.9,2.2,1.5,1.5c0,0.4-0.5,0.3-0.8,0.4c-0.5,0-1.1-0.1-1.2,0.4c1,0.6,2.3,0.7,3.8,0.8
			c0.1,1-0.8,1-1.5,1.2c-0.5,0-1,0-1.5,0c0.9,0.7,1.6,1.7,0.4,2.7c-1.4-0.9-2.3-2.3-3.8-3.1C147.4,106.5,149.6,101.7,149.7,94.7z
			 M142,144c-0.6-4.3-0.7-8.7-0.4-13.9c0.2-3.9,0.7-8.3,1.5-11.6c2.8,0.2,2.6,1,3.5,3.5c0.5,1.4,0.7,3.5,0.8,5
			c0.2,2.5-0.1,5.5-0.4,8.5c-0.5,5.4-2.4,10-3.1,13.9C142.6,148.4,142.3,145.9,142,144z M135.9,153.3c0.3,1.3-0.8,2.5-1.5,3.9
			c-0.7,1.3-1.7,2.4-1.9,3.9c1.5,0.5,3.6-3.4,6.1-1.9c-0.1,3.1-3.4,3.6-5.4,5c-0.1,0.1-0.3,0.7-0.4,0.8c-0.8,0.4-2.4,0.8-3.1,1.5
			c-1.5,1.6-1.5,3.8-2.7,6.2c2.5-0.2,3.3-3.6,5.7-2.7c0.9,2.2-1.7,3.1-3.1,4.2c-1.5,1.2-3.2,2.5-4.6,3.5c-0.4,2.3-1.7,3.7-1.9,6.2
			c2.4-0.5,2.2-3.5,5-3.5c1,2.6-1.4,3.8-2.7,5c-1.6,1.6-3.1,3.1-4.6,4.6c-0.9,0.9-1.1,3.3-1.5,5.4c1.1,0.6,1.9-2.5,3.5-2.7
			c2.2,1.6-0.3,3.2-1.2,4.2c-1,1.3-2.2,2.7-3.4,3.1c-0.4,1.6-0.8,3.1-1.2,4.6c1.2,0.8,1.5-1.9,3.8-1.2c-0.3,3.3-3.3,3.9-5,5.8
			c-0.8-1.8,0.4-3.6,0.8-5.4c0.4-1.8,0.7-3.9,1.1-5.8c0.9-3.6,2.2-7.1,2.7-10.8c1.8-1.8,1.7-4.4,2.7-6.9c0.2-0.6,1-1.3,1.2-1.9
			c0.3-0.9,0.1-2.2,0.4-3.1c0.3-0.9,1.1-1.7,1.5-2.7C129.1,166.2,131.8,158.9,135.9,153.3z M98.7,168.3c-0.7-1.6-1.7-3.2-2.3-4.6
			c-1.1,1-1.6,2.8-2.3,4.2c-0.7,1.5-1.4,3.1-1.9,4.6c-1.2-0.5-1.5-1.8-2.3-2.7c-1.3-1.6-2.7-3.1-4.2-5c-0.7-0.9-1.7-1.5-1.9-2.7
			c8.5,2,20.2,0.8,28.4,0.4c0.2,2.8-1.9,6.5-2.3,10c-1.6,0-6.7-0.4-8.4,0.8c1.5,3.5,2.4,7.6,3.8,11.2c-0.5,3.2,1.4,8,1.9,11.9
			c0.3,2.1,0,4,0.4,6.2c-1.3-0.9-1.4-2.5-1.9-3.9c-1-2.4-1.8-5-3.1-7.7c-1-2.2-2.1-4.7-3.5-7.3c-0.3-0.6-0.8-1-1.1-1.5
			c-0.3-0.5-0.5-1.4-0.8-1.9c-1.4-2.2-3.3-4-4.2-6.6c3.2-0.1,4.8-0.3,7.3-0.4C100.5,171.7,99.4,169.9,98.7,168.3z M113.2,162.5
			c2.4-0.5,5.3-0.6,7.3-1.5c0.5,0.2,0.8,0.5,0.8,1.2c-1.7,2.8-2.6,6.4-3.8,9.6C115.5,169.3,114.2,166.1,113.2,162.5z M115.5,177.5
			c-0.7,1.8-1.5,4.8-2.3,7.3c-0.6,1.8-1.5,3.6-1.9,5.4c-0.3,1.1-0.2,2.4-0.4,3.5c-0.5,2.7-1.3,5.8-1.9,9.2
			c-1.2-10,0.3-20.5,1.1-29.7c2.8-0.1,3.3-0.5,6.5-0.4C116.9,174.8,116.2,175.8,115.5,177.5z M118.6,160.2c0.1,0.3-0.1,0.4-0.4,0.4
			c-1.5-0.1-2.1,0.7-3.8,0.4c-0.3,1-2.7-0.1-3.1,0.8c-1.9,0.1-2.9-0.7-5-0.4c-0.1,0.5-0.7,0.3-1.2,0.4c-1.4,0-2.8,0-4.2,0
			c0,0.4-0.5,0.3-0.8,0.4c-3.8-0.3-9.9-0.2-15-1.2c-1.3-0.2-3.8,0.5-3.8-1.5c5.3,1.2,10.5,1.5,16.1,1.5c-0.1-0.8,1.4-0.2,1.9-0.4
			c1.5,0,3.1,0,4.6,0c0.1-0.5,0.7-0.3,1.1-0.4c1,0,2,0,3.1,0c3.5-0.1,8.8-0.7,12.3-1.9c0.6,0.2,2-0.5,1.9,0.4
			C122.1,160.1,120.4,160.2,118.6,160.2z M110.2,212.2c2.6,0.1,5.3-0.7,7.3,0.8c-1,0.2-2.3-0.6-5-0.4c-0.7,0.1-1.6,0.4-2.3,0.4
			c-0.7,0-1.2-0.6-1.9-0.8c-1.2-0.2-5.6,0-6.5,0.4c-1.1,0.5-1.6,1.6-2.3,2.3c-0.3,2.6,0.5,6.2-0.4,8.1c0-2.8,0-5.7,0-8.5
			c0.8-1,1.7-1.9,2.7-2.7C104.7,211.5,107.6,212.1,110.2,212.2z M99.8,224.9c1.5,2.7,5.7,1.3,8.8,1.5c0.3,0.1,0.4,0.4,0.8,0.4
			c2.5,0.1,8.5,0.7,9.2-2.3c-1-1.9,1.3-8.6-1.1-10.8c2.1-0.9,1.4,2.2,1.5,4.2c0.1,1.9,0.4,5.3,0,6.6c-0.9,3.3-3.5,3.3-6.9,3.1
			c-0.7,0.8-3.6,0.5-3.8-0.4c-4.5,0.2-9.1,0.4-9.2-3.9C100.7,223.3,99.5,224.3,99.8,224.9z M129.7,142.9c0-4.6,0.5-8.5,1.2-12.7
			c0.8-5.1,1.9-11.5,1.2-17.3c-0.2-1.8-1.2-3.2-1.2-5c1.5,0.2,1.3,2.2,1.5,3.1c0.8,3.1,1.1,7.3,0.8,11.9c-0.4,5.8-2.2,11.9-2.3,17.3
			c0,1,0.4,2.1,0.4,3.1c0,1.8-0.7,2.6,0,4.2c-0.3-0.2-0.6-0.4-1.1-0.4C129,145.9,129.7,144.4,129.7,142.9z M129.3,158.7
			c1.9-1.9,3-4.7,4.6-6.9c0.8,1-0.6,1.9-1.2,2.7c-1.2,2-2.3,4.7-3.4,7.3c-0.7,1.7-1.7,3.9-2.7,6.2c-2.4,5.7-4.1,11.7-6.5,17.7
			c-0.5,1.2-1.4,2.7-1.9,4.2s-0.8,3.4-1.2,5c-1.2,4.7-2,9-3.1,14.3c-1.2-1.8-4-3.9-2.7-6.9c1.9-0.4,1.5,1.6,2.7,1.9
			c2.5-4.2-2.1-9.2-0.4-13.9c2.2-0.2,2,1.9,2.3,3.5c1.4,0.4,0.9-1.2,1.1-1.9c0.4-1.3,1.2-3.3,1.2-5.4c0-1.4-1.1-3.4-1.2-5
			c-0.1-1.9-0.6-3.9,1.2-5c2,0.6,1.4,3.7,1.5,6.2c1.3,0.2,1.2-1.4,1.5-2.3c1-2.7,0.3-5,0-8.9c-0.2-2.4-0.9-6.8,1.5-7.3
			c2.4,0.4,0.3,5.4,1.5,6.9c1.5-1.6,1.9-4.3,3.1-6.2c-0.3-1.5-0.7-3.7-0.8-5.8c-0.1-2.4-0.4-5.4,0.8-6.9
			C130.2,152.2,129.1,156.1,129.3,158.7z M125.1,143.6c0.9,1.5,3,1.8,3.5,3.9c-0.8,0.8-1.1,2.3-1.9,3.1c-1.1,2-2.1,4.1-3.1,6.2
			c-2,0.3-3.6,1-5.8,1.2c-3,1.3-7.4,1.3-10.4,1.5c-1.4,0-2.8,0-4.2,0c-0.1,0-0.3,0-0.4,0c-1.1,0.1-2.5-0.2-3.1,0.4
			c-1.1-0.2-4,0.1-5.8-0.4c-1.8,0-3.6,0-5.4,0c-0.3,0.1-0.4-0.2-0.4-0.4c-2.2,0.1-4.3-0.1-5.8-0.8c-0.1,0-0.3,0-0.4,0
			c-5.2-0.4-5.9-5.4-9.6-7.3c-1.7-1.4-3.2-2.9-4.6-4.6c0-0.1,0-0.3,0-0.4c-0.6-0.2-0.9-0.6-1.2-1.2c-0.8-0.8-1.3-1.8-2.3-2.3
			c0.5-0.1,1.7-0.1,3.1,0.4c0.4,0.1,0.8,1,1.2,1.2c1.2,0.5,3.3,0,3.8,1.2c1.6-0.1,2.7,0.4,3.8,0.8c1.6,0.1,3.1,0.2,4.2,0.8
			c0.1,0,0.3,0,0.4,0c2.8-0.1,4.7,0.7,7.7,0.4c1.3,0.8,3.9,0.2,5.7,0.4c2.1-0.2,5,0.4,6.5-0.4c0.1,0,0.3,0,0.4,0c1.4,0,2.8,0,4.2,0
			c6-0.2,12-1.5,17.6-3.1C123.1,143.2,124.6,143.8,125.1,143.6z M72.6,118.6c1.5,0.6,2,2.3,4.2,2.3c1.3,2.3,3,4.2,4.2,6.5
			c-4.1,0.5-9.3-1.1-12.3-3.1C69.9,122.3,71.2,120.4,72.6,118.6z M67.6,125.1c0.4-0.2,0.3,0.3,0.4,0.4c3.9,2.1,8.9,2.6,13,3.1
			c2.1,0.3,3.8,3.1,5.4,4.6c1.6,1.6,3.2,2.8,5,3.8c-8,0.9-15.5-2.2-22.6-3.5c-1-1.7-3.7-1.7-5.4-2.7
			C64.3,128.5,66.5,127.3,67.6,125.1z M62.2,132.1c1.1-0.1,2.9,0.6,4.2,1.2c1,0.4,2,1.2,3.1,1.5c2.4,0.8,5.1,1.3,7.7,1.9
			c5.2,1.3,10.5,2.2,16.9,2.3c1.6,1.1,3.6,2.1,5.4,3.1c0.4,0.2,1.9,0.1,1.5,1.2c-9.7,0.3-18.5-0.7-26.5-2.7c-1-0.3-2.1-0.1-3.1-0.4
			c-0.2-0.1-0.6-0.7-0.8-0.8c-0.9-0.3-2.6,0.3-2.7-1.2c-3.4-0.2-5.4-1.8-8.1-2.7C60,133.7,61.4,133.2,62.2,132.1z M58.4,136.3
			c0.5-0.5,1.4-0.2,1.9,0.4c4,1.3,7.7,2.8,11.5,4.2c1.4,0,2.4,0.4,3.4,0.8c1.6,0.3,3.3,0.5,4.6,1.2c2,0.1,3.8,0.3,5.4,0.8
			c1.2,0.2,3.3-0.5,3.8,0.4c0.1,0,0.3,0,0.4,0c1.3,0.2,3.6-0.5,4.2,0.4c1.2,0,2.3,0,3.5,0c0.9-0.9,3.4-0.1,5-0.4
			c0.5-0.5,0.6-0.2,1.1,0c3.8-0.5,10.1,2.2,13-1.2c-0.1-0.3,0.2-0.4,0.4-0.4c1.2-0.2,1.4-2.2,2.7-2.3c1.1-0.1,2.6,1,3.1,2.3
			c0.9,0.3-1.4,1.3-1.9,1.5c-1.6,0.6-4,0.6-6.1,1.2c-1.8-0.3-2.5,0.6-4.2,0.4c-1.3,0.1-4,0.5-6.5,0.4c-0.5,0.9-2.7,0.1-3.8,0.4
			c-3.3,0-6.6,0-10,0c-5.6-0.2-14.6-1.1-20.3-3.5c-0.6-0.2-0.8-0.2-1.2-0.4c-0.6-0.4-2.7-1-3.8-1.5c-1-0.5-3.2-0.9-4.6-1.9
			C59.1,138.4,57.2,138,58.4,136.3z M57.6,143.6c0.9-0.4-0.5-1.8,0-3.1c2.9-0.1,3.3,3,3.8,4.6c1.3,3.8,3.5,6,6.5,8.5
			c1.1-0.3-0.5-1,0-1.9c0-0.1,0-0.3,0-0.4c-0.6-0.5-1-1.7-0.4-2.3c3.8,1.1,3.6,6.2,5,9.6c1.5,1.7,2.7,3.7,4.6,5c1-1.2-1.4-3.8,0-5.4
			c1.6-0.3,2.3,1.6,2.7,3.1c0.6,1.9,0.8,6,1.9,8.1c0.9,1.8,2.5,2.4,3.5,3.8c1.1-1.2-0.6-3,0-5c2.4-0.4,3,2.6,3.5,4.6
			c0.5,1.9,0.2,4.5,0.8,6.2c0.4,1.2,1.4,1.9,1.9,2.7c0.3,0.5,0.5,1.1,0.8,1.5s0.9,0.9,0.8,1.5c1.8-0.6-1.3-4.4,0.8-5.4
			c1.9,0.1,2.1,2.4,2.3,3.9c0.4,2.2-0.4,4.9,0,6.9c0.4,2.2,1.9,3.1,2.3,4.6c1.3-0.7-0.4-3.5,1.2-4.6c2.4,0.4,1.8,4.3,1.5,6.6
			c-0.1,1-0.4,3.1-0.4,3.5c0.2,1.5,1.6,2.3,1.5,3.5c1.4,0,0.1-2.7,1.5-2.7c1.7,0.4,0.9,2.2,0.8,3.5c-0.1,1.4-0.7,3.1-0.8,4.2
			c-1.3-0.1-1.6-1.8-1.9-2.7c-1.1-2.8-2-6.5-3.5-9.6c-1.4-3-3-5.8-4.6-8.9c-0.2-0.4-1-0.7-1.2-1.2c-0.1-0.3,0.3-0.6,0-1.2
			c-1-2-2.5-3.9-3.8-5.8c-1.2-1.8-2.5-3.7-3.8-5.4c-2.7-3.5-6-6.6-8.8-10c-0.3-0.3-0.1-0.9-0.4-1.2c-0.4-0.5-1.2-0.8-1.9-1.5
			c-0.3-0.3-0.4-1.2-0.8-1.5c-0.1-0.2-0.6-0.2-0.8-0.4c-4.5-4.5-9.2-10.5-15-14.3c-0.5-0.5-0.1-0.6,0-1.2c-1.6-0.2-1.8-1.8-3.1-2.3
			C55.2,140.9,56.5,143.2,57.6,143.6z M52.3,143.2c0.6-1.3,0.9,0.8,1.9,0.4c1.1,2,3,3.5,5,5c1.5,1.2,2.7,2.3,4.2,3.9
			c0.4,0.4,0.7,1.1,1.1,1.5s1.1,0.4,1.5,0.8c0.7,0.7,1.1,1.5,1.9,2.3c0.7,0.7,2.5,2.1,3.4,3.1c0.5,0.5,0.6,1.3,1.2,1.9
			c0.4,0.4,1.1,0.7,1.5,1.2c0.3,0.3,0.2,0.9,0.4,1.2c0.4,0.6,1.6,1.1,2.3,1.9c0.5,0.6,0.7,1.4,1.1,1.9c0.5,0.6,1.1,0.7,1.5,1.2
			c0.3,0.3,0.1,0.9,0.4,1.2c3.4,3.7,7.2,8.5,10.4,13.1c0.2,0.3,0.1,0.8,0.4,1.2c0.1,0.2,0.7,0.2,0.8,0.4c0.3,0.5,0.1,1.3,0.4,1.9
			c1.1,2.4,3,5.9,4.6,8.5c0.2,0.3,0.6,0.9,0.8,1.2c0.5,1.1,0.6,2.3,1.1,3.5c0.4,0.9,1.2,1.8,1.5,2.7c0.2,0.6,0.2,1.3,0.4,1.9
			c0.4,1,1.7,2.7,1.5,4.6c-1.2-0.2-2.2-1.2-3.1-1.9c-0.4-0.3-0.8-0.1-1.1-0.4c-0.4-0.4-1.2-1-1.2-2.3c1.1-1,1.9,0.4,3.1,0.4
			c-0.2-1.2-0.4-3.3-1.2-4.2c-0.9-1.2-3.2-1.6-4.6-2.7c-1.3-1-2.9-1.8-2.3-3.9c2.3-0.3,2.6,1.5,4.2,1.9c0.1-1-0.7-2.4-1.2-3.1
			c-1.1-1.5-2.1-1.7-3.8-2.7c-0.2-0.1-0.3-0.7-0.4-0.8c-1.1-0.5-5-1.9-3.8-4.2c1.4-1,2.8,0.6,3.8,1.2c0.8-2.2-1.9-3.9-2.7-5.8
			c-2.2-0.5-4.5-1.8-6.5-2.7c-0.8-0.4-2.9-0.6-2.3-2.7c1.6-1.1,3.1,0.6,4.6,0.8c-0.3-1.3-1.1-2.1-1.9-3.1c-0.6-0.7-1.3-2.1-2.3-2.7
			c-2.5-1.5-7.5-0.2-7.7-4.2c1.2-1,2.6,0.3,3.8,0.4c-0.3-2.6-2.9-3-3.8-5c-1.5-0.3-3.3-0.3-3.8-1.5c-2.3,0-4.1-0.5-5-1.9
			c0.7-1.7,2.3-0.7,4.2-0.8c-0.6-2.5-3.2-3-4.2-5c-1.4-0.6-4.3-1.2-6.5-1.9c-1.6-0.6-4.3-0.9-4.2-3.1c1.2-1,2.7,0.1,4.2,0
			C55.3,145.5,53.4,144.8,52.3,143.2z M77.2,204.9c-1.7-1.7-2.9-6-5-8.1c1.6-0.5,4.4,1.2,5.8,2.3c-0.2,1.4-0.6,2.5-0.4,4.2
			c0,0.5,0.1,1.1-0.4,1.2C77.2,204.6,77.1,204.8,77.2,204.9z M57.6,217.2c-0.5-1.4-2.6-1.2-2.7-3.1c0.8-2,2.4-3.2,5.4-3.1
			c0.5,1.2,0.9,2.4,0.8,4.2C59.6,215.7,59.1,216.9,57.6,217.2z M60.7,226.9c-1.3,1.2-4.7,0.8-6.1,0c-0.9-1.5,2-2,2.7-3.1
			C58.2,225,60.4,225,60.7,226.9z M54.6,203.4c-1.1,0.1-0.5,1.8-1.9,1.5c-1.1-2.2,0.4-4.6,0.8-6.6c1.7,0.2,2.2,1.6,2.7,3.1
			C55.7,202.2,54.5,202.1,54.6,203.4z M57.6,195.3c-0.6-0.8-1.6-1.8-2.3-2.7c-1.3-1.6-2.4-3-2.3-6.2c1.6,0.6,2.5,2.3,3.8,3.9
			c0.7,0.8,1.3,1.3,1.9,2.3c0.2,0.4,0.7,0.9,1.2,1.5c0.2,0.4,0.7,0.9,1.2,1.5c0.6,0.9,2.1,2.3,2.3,3.9
			C60.6,200.4,59,197.1,57.6,195.3z M58.4,177.5c1.9,1.1,6.5-0.4,6.1,3.1c0.2,0.3,0.4,0.6,0.4,1.2c0,1.3,0,2.6,0,3.9
			c-1.7-0.3-1.9-2.2-3.1-3.1c-0.3-0.1-0.4-0.4-0.8-0.4c0-0.1,0-0.3,0-0.4C60.7,180,57.8,179.1,58.4,177.5z M63.8,211.1
			c3.6-0.5,4.2,1.9,5.8,3.5c-0.2,0.9-0.8,1.4-1.5,1.9c-0.4,0.3-1.6,0.8-1.9,0.8c-1.3-0.1-1.9-1.2-3.1-1.9
			C63,213.6,62.8,211.7,63.8,211.1z M62.6,169.4c-2.2,0.1-5.1-0.4-7.3-0.4c-0.6-0.6-0.3-2-0.4-3.1c-0.6-1.7-0.9-3.8-0.8-6.2
			c-0.3-1.3,0.6-1.3,1.1-0.8c1.6,1.3,3,2.7,4.2,4.2c2,1.6,3.7,3.4,5.4,5.4C65,170,63.4,169.4,62.6,169.4z M67.6,227.2
			c-1,0.6-4,0.6-5,0C63,224.3,67.6,223.7,67.6,227.2z M66.8,218.8c1.6,0.1,1.9-1.2,3.8-0.8c1.6,1.6,1.2,5.2,0,6.9
			c-0.6-0.1-1.3,0.2-1.9,0c-0.5-0.1-0.4-0.5-0.8-0.8C66.3,222.9,66.7,221.9,66.8,218.8z M69.9,207.2c0-0.9,0-1.8,0-2.7
			c1.4,0.2,2.1,1,3.1,1.5C72.3,206.8,71.2,207.1,69.9,207.2z M79.9,219.9c0,1.4,0,2.8,0,4.2c-0.8-0.8-1.1-2.3-2.3-2.7
			C78.1,220.7,78.8,220.2,79.9,219.9z M79.5,190.3c-0.2-0.7-1.8,0-1.9-0.8c-2.2-0.2-3.8-1.1-5.7-1.5c0-0.5,0-1,0-1.5
			c0.1,0,0.3,0,0.4,0c-0.1-0.3-0.4-0.4-0.4-0.8c0-1.3,0-2.6,0-3.9c-0.4,0-0.3-0.5-0.4-0.8c0-1.3,0-2.6,0-3.9c1.2-0.2,1,1,1.9,1.2
			c0,0.1,0,0.3,0,0.4c0.3-0.1,0.4,0.1,0.4,0.4c1.8,2.3,3.6,4.6,5.4,6.9c0.2,0.5,0.4,1.1,1.1,1.9c0.2,1.1,1.4,1.2,1.2,2.7
			C80.5,190.8,80.6,189.9,79.5,190.3z M80.6,216.5c1.7,1.1,2,3.1,2.7,5c0.7,1.7,1.7,3.8,1.5,6.2c-0.8,0.6-3.4,0.6-4.2,0
			C81.2,224.2,81.1,220,80.6,216.5z M84.8,222.2c-0.6-0.6-0.5-2.1-1.1-2.7c0-0.7-0.5-0.8-0.4-1.5c1.9,0.1,2.9,1.2,4.2,1.9
			C87.5,221.4,85.6,225,84.8,222.2z M85.6,206.8c-0.1-2.9,0.4-5.2,1.1-7.3c1.1-0.3,0.8,1,1.2,1.5c0.3,0.4,0.9,0.7,1.1,1.2
			c0.5,1.1,0.7,2.4,1.2,3.5c0.9,2.2,2.3,4.4,3.1,6.5c0.1,2.5-2.3-0.2-3.5,0c-0.3-0.3-1.1-0.2-1.1-0.8
			C87.4,210.6,83.6,210.2,85.6,206.8z M96,221.5c0.8,0.3,1.2,1.1,1.2,2.3c0.6,0.7,0.5,2.1,0.8,3.1c-1.6,1.1-3.6,1.5-5.4,0.8
			C92.1,225.5,95.1,223.6,96,221.5z M39.6,153.7c-0.2,0.9-1.9,0.2-2.7,0.4c0-0.1,0-0.3,0-0.4c1.6-1.5,3.6-2.6,5.4-3.9
			c-0.1-0.3,0.2-0.4,0.4-0.4c0.4,0,0.8,0,1.1,0c0.5,1.8,3.1,1.5,3.1,3.9c-0.5,0-1,0-1.5,0c0,0.4-0.5,0.3-0.8,0.4
			C42.9,153.7,41.3,153.7,39.6,153.7z M45.3,166.4c-1.4-1.2-3.7-3.7-5.4-4.6c0.8-0.9,2.6-0.8,4.2-0.8c0.8,0,1.5,0,2.3,0
			c1.4,1.6,1.1,4.8,1.9,6.9C48.3,169.8,45.8,166.7,45.3,166.4z M51.1,154.4c-1.3-1-3.1-2.5-4.6-3.9c-0.7-0.6-2.5-1.4-1.9-2.7
			c1.6-1.5,2.7,0.1,3.8,0.8c1.2,0.7,2.2,1.9,3.1,2.7c0.6,0.5,1.3,0.7,1.9,1.2c0.3,0.3,0.4,0.5,0.8,0.8c1,0.7,2.4,2.5,3.4,3.5
			c0.3,0.3,0.9,0.2,1.1,0.4c1.5,1.2,3.8,3.8,5.4,5.4c2,2,3.9,4.3,5.7,6.6c0.2,0.3,0.6,0.5,0.8,0.8c0.2,0.3,0.2,0.9,0.4,1.2
			c0.2,0.3,0.9,0.1,1.1,0.4c0.3,0.3,0.1,0.9,0.4,1.2c0.9,1.1,2.2,2,3.1,3.1s1.7,2.3,2.7,3.5c0.2,0.3,0.6,0.5,0.8,0.8
			c0.4,0.5,0.7,1.2,1.1,1.9c0.8,1.1,2.1,2.7,3.1,4.2c0.5,0.7,1,1.9,1.9,3.5c1.5,2.4,3.1,4.7,4.6,7.3c1.3,2.4,2.4,5.5,3.8,8.5
			c2.3,4.7,4.9,7,3.5,13.1c-4.2-9.2-7.8-18.1-13-26.2c-0.4-0.6-0.8-1-1.1-1.5c-0.6-1-1.2-1.9-1.9-3.1c-0.3-0.5-0.5-1.1-0.8-1.5
			c-1.5-2.4-3.4-4.8-5.4-6.9c-0.9-1-2-2.6-3.1-3.9c-1.5-1.7-3.5-3.1-4.2-5.4c-4.1-3.2-7.4-8-11.5-11.6c-0.3-0.3-0.9-0.2-1.2-0.4
			c-0.5-0.4-0.7-1-1.5-1.5C52.7,155.9,51.9,155.1,51.1,154.4z M52.6,216.8c2.1-0.1,2.8,1.1,4.2,1.5c0,1.3,0,2.6,0,3.9
			c-1.5,0.5-2.2,1.9-4.2,1.9C50.9,223.1,51.1,218,52.6,216.8z M44.2,220.3c-0.4,1.6-1.5,2.4-2.3,3.5
			C38.1,222.7,42.8,216.2,44.2,220.3z M36.9,225.3c0.8,0.6,1.8,1,1.9,2.3c-1.5-0.1-2.1,0.7-3.8,0.4
			C35.3,226.8,36.4,226.3,36.9,225.3z M115.5,230.7c-0.5,0.9-2.7,0.1-3.8,0.4c-2.5-0.3-4.3-0.5-7.7-0.4c-2.7,0.1-5.5-0.2-7.7-0.4
			c-0.7,0.9-2.9,0.1-4.2,0.4c-0.8-0.7-4,0-6.1,0c-1.7,0-3.5-0.4-5.4-0.4c-3.6,0-7.3,0.6-11.1,0.4c-8.4-0.5-19.7,0-28.8,0
			c-1.5,0-3,0.1-4.6,0c-1,0-2.8,0.6-3.4-0.8c0.1-1.9,2.5-1.1,3.4-1.2c6.8-0.4,15.3-0.3,22.2-0.4c1.1,0,2.3,0.4,3.4,0.4
			c16.7-0.2,36.9-0.4,54.1,0c0.7,0,1.8-0.1,2.7,0c0.4,0,2.1-0.5,1.9,0.8C120,231.4,117.4,231.3,115.5,230.7z M121.3,221.8
			c1.3,0.8,1.1,3.2,1.2,5.4C119,227.8,121.4,223.6,121.3,221.8z M129,209.9c-0.8,0.9-1.3,2.1-2.7,2.3c-1,0.6-1.7,1.6-2.7,2.3
			c-1.1-0.7,0.2-2.1,0-3.1c1-2.4,1.4-5.5,2.7-7.7c0.4-0.7,0-2.1,1.1-1.9c-0.3,1.2,0.7,1.1,0.4,2.3c0.9,0.8,0.7,2.7,1.2,3.9
			c0,0.1,0,0.2,0,0.3C129,208.8,129,209.4,129,209.9z M120.9,217.6c-0.5-2.5-0.7-4.7-0.4-7.3c0.2-1.2,0.8-2.3,1.1-3.5
			c2-6.9,4-14.5,6.9-20.8c0.3-0.6,0.6-1,0.8-1.5c3.3-9.1,7.9-18.3,12.7-25.8c1.6,4.8-1,7-3.1,10.8c-1.2,2.2-2.1,4.6-3.1,6.5
			c-0.5,1.1-1.4,2.1-1.9,3.1c-0.6,1.2-0.7,2.4-1.2,3.5c-0.4,1.1-1.1,2-1.5,3.1c-0.5,1.1-0.7,2.3-1.1,3.5
			C126.5,198.8,123.7,207.6,120.9,217.6z M132.8,185.6c0.1-2.2,1.2-3.4,1.9-5c0.2-0.8,0.8-1.2,1.2-1.9c0.6,0.3,0.6,1.2,0.8,1.9
			c0.6,1.6,1,3.4,1.1,5.4c-2.1,1.2-4,2.7-6.5,3.5C131.1,187.5,131.8,186.4,132.8,185.6z M142,194.9c-0.3,2.4-1.5,3.9-2.3,5.8
			c0.1,0.7-0.5,0.8-0.4,1.5c-0.7,0.1-0.8-0.5-1.5-0.4c-1.2,0.3-0.9,2.2-2.3,2.3c0-0.3,0-0.5,0-0.8c-0.1,0-0.3,0-0.4,0
			c0-1.9-0.6-3.2-1.1-4.6c0-0.5,0-1,0-1.5c1.3-0.7,2.2-1.9,3.8-2.3c-0.1-0.3,0.2-0.4,0.4-0.4c1.5-0.4,2.2-1.7,3.8-1.9
			C142,193.3,142,194.1,142,194.9z M140.8,168.7c0.4-0.8,0.8-1.5,1.2-2.3C143.6,166.9,142,168.7,140.8,168.7z M154.3,190.6
			c-0.4,1-0.8,2.4,1.1,1.9c0.4,1.4-0.8,1.2-1.1,1.9c0.1,0.7,0.7,0.9,1.5,0.8c0,1.1-0.9,1.4-1.5,1.9c0.1,0.9,1.2,0.9,1.5,1.5
			c-0.1,1.2-1.1,1.5-1.5,2.3c0.4,0.7,1.3,0.7,1.9,1.2c0,1.5-1.6,1.5-1.9,2.7c-0.3,1.2,1.3,0.5,1.1,1.5c0.1,1.4-1.3,1.3-1.5,2.3
			c0.6,1.1,1.4,3-0.4,3.5c0,0.7,0.3,1,0.8,1.2c-0.9,0.8-2.6-0.9-3.5-1.5c-0.4-0.7-1.5-0.8-1.9-1.5c-1.9-1.6-4.2-2.7-5-5.4
			c-2.4-7-0.3-19.9,8.4-16.6C152.9,189.2,152.8,190.7,154.3,190.6z M154.7,177.9c-0.5,2.1,0.7,2.4,1.1,3.5c-0.1,0-0.3,0-0.4,0
			c-0.2,0.3-0.3,0.7-0.8,0.8c0.2,0.5,0.5,0.8,1.1,0.8c-1.3,1.1-1.7,3.1-3.8,3.5c-0.8,0.2-1-0.3-1.5-0.4c-1.2,0.1-3.1,0.2-4.2-0.4
			c-0.6-0.3-2.1-2-2.3-2.7c-0.6-2.3,0.8-4.6,2.3-6.2c0.1,0,0.3,0,0.4,0c1.5-1.1,4.6-0.9,6.1,0c0.1,0,0.3,0,0.4,0
			C153.9,176.9,153.4,178.3,154.7,177.9z M156.2,166.4c0.3,1.4-1.5,0.8-1.5,1.9c-0.1,0.6,0.4,0.7,0.4,1.2c1.4,1.4-2.9,2-1.1,3.8
			c0.1,0,0.3,0,0.4,0c-0.7,1.9-3.6,2.3-5.4,1.2c-1.9-0.4-3.2-1.4-3.8-3.1c-1.2-2-1.7-4.7-1.9-7.7c0-1.4,0-2.8,0-4.2
			c0.6-3.1,0.8-7,1.5-10.8c0.1-0.5,0.7-1,0.8-1.5c0.1-0.6-0.2-1.3,0-1.9c0-0.2,0.7-0.2,0.8-0.4c0.1-0.3,0.4-1.5,0.4-1.5
			c0.4-1.7,0.4-3.9,0.8-6.5c0.3-2.2,1-4.3,0.8-7.3c-0.1-1.1-0.2-4-0.4-6.2c-0.2-2.1-1.4-4.2-0.8-6.6c-0.3-0.8-0.9-1.4-2.3-1.2
			c-0.1,1.3,1.7,0.6,1.2,2.3c-1.6,1.4-4.1-1.1-2.7-2.7c0.1-0.8,1-0.8,1.1-1.5c3.1-0.4,3.9,1.4,5,3.1c0.2,0.3,0.3,0.7,0.8,0.8
			c1-1.4,1.7-3.2,3.4-3.9c1.9-0.1,2.9,0.7,3.1,2.3c0.3,1.2-0.6,1.2-0.8,1.9c-1.3,0-1.4-1.1-1.9-1.9c-0.3,0.1-0.4,0.4-0.8,0.4
			c-0.2,1.4,0.8,1.5,0.8,2.7c-0.8,0-0.5,1.1-1.5,0.8c-0.1,0.5-0.7,0.3-1.2,0.4c-1,0.3,0.7,1.1,1.5,0.8c0,0.3,0,0.5,0,0.8
			c-0.3-0.1-0.4,0.2-0.4,0.4c-0.1,0-0.3,0-0.4,0c-0.1,0.4-0.7,0.3-1.2,0.4c0,1,1.4,0.6,1.9,1.2c-0.3,0.9-1.2,1.2-1.9,1.5
			c0.1,0.7,1.3,0.2,1.5,0.8c0.2,1.2-1,1.1-1.5,1.5c0,1,1.4,0.6,1.9,1.2c-1.1,2.2,1,3.2-0.4,4.6c1.1,0.5,0.4,1.6,0.4,2.7
			c0,1.1,1.3,3.3,0.8,3.9c0.4,1.1,0,3.1,1.2,3.5c-0.2,1.4-1,1.9-0.4,3.1c-0.8,1,0.8,2,0.4,3.9c0.2,0.5,0.5,0.8,1.1,0.8
			c0.4,1.4-1,1.1-0.8,2.3c-0.1,1.3,2,1.5,0.8,2.7c-0.1,0.5-0.7,0.6-0.8,1.2c0.1,0.8,1,0.8,1.2,1.5c0.1,1.3-0.7,1.6-1.2,2.3
			c0.1,0.3,0.4,0.4,0.4,0.8c0.4,0,0.8,0,1.2,0c0.2,1.7-1,2-1.5,3.1C154.7,166.1,156.3,165.4,156.2,166.4z"/>
		<path fill="#171717" d="M147,228.4c0-0.1-0.5,0-0.4-0.4c0.2-1,0.2-0.2-0.8-1.5c-0.4-0.5-0.4-1.3-0.8-1.5c-0.9-0.6-3-1.2-4.2-1.2
			c-0.7,0-1.5,0.4-2.3,0.8c-1.7,0.9-2.1,2.1-3.5,3.9c0.1,2.5,1.1,4.3,2.9,4.9h2.4c3-0.9,3.5-6.5-1.4-4.5c-1,2.4,2.2,2.1,1.1,3.5
			c-6.4,0.5-3.8-7.4,1.2-7.3c0.6,0,1.2,0.4,1.9,0.8c1.3,0.6,1.7,0.6,2.3,1.9c0,0,0.7,0.2,0.4,0.4c-0.2,0.2,0.8,3.3,0.4,5
			c0,0.1-0.1,0.2-0.1,0.3h1C147.4,231.9,147.3,229.9,147,228.4z"/>
		<path fill="#171717" d="M15.4,177.9c-1.3,0.1-1.7,1.2-2.3,1.9c-0.4,0.7-0.9,1.4-1.3,2.1v2.2c0.6-1,1.1-2,1.7-2.8
			C13.7,179.8,14.8,179.1,15.4,177.9z"/>
		<path fill="#171717" d="M20.8,230.7c-0.3-1.1-0.4-2.4-0.8-3.5c0.6-0.6,2.2-0.3,3.4-0.4c0.5-0.5,1.5-0.4,1.9-0.8
			c0.3-0.3,0.1-0.9,0.4-1.2s0.6,0.2,0.8-0.4c1.3-3.3-3.3-6.9-5.4-2.7c0,1.2,0.8,1.5,1.2,2.3c1.7-0.3-0.4-2.2,0.8-3.1
			c1.7,0,2.6,0.9,2.7,1.9c0.3,2.6-2.7,2.8-5.7,2.7c-2.7-0.1-4.4-1.2-6.5-0.4c-0.4,0.2-1.1,0.5-1.7,0.9v1.4c0.1,0,0.1,0,0.2,0
			c0.9-1.6,4.6-2.1,6.1-0.8c0.5,0.9,1.9,3,0.8,4.2c-0.4,1.6-2.7,2-3.4,0.4c-0.6-1.3,1.6-1.6,0.4-2.3c-1-0.1-1.2,0.6-1.5,1.2
			c-0.2,1.5,0.2,2.5,1.1,3h3.9C20,232.7,20.2,231.5,20.8,230.7z"/>
		<path fill="#171717" d="M15.8,186c1.4-2.7,2.9-5.3,3.5-8.9c0.6-0.9,1.5-1.6,1.9-2.7c-3.9-1.1-7.1-0.2-9.2,1.5
			c-0.1,0-0.1,0.1-0.2,0.2v1.3c1.4-1.7,3.6-2.7,7.1-2.3c-0.2,1.7-1.3,3.8-1.9,5.8c-0.2,0.6-0.2,1.5-0.4,1.9
			c-0.1,0.2-0.7,0.2-0.8,0.4c-0.4,0.9-0.7,1.5-1.5,2.3c-0.3,0.3-0.9,0.4-1.5,0.4c-0.3,0.2-0.6,0.5-1,0.7v1.4c0.3-0.2,0.6-0.4,1-0.6
			C13.6,187,14.6,186.1,15.8,186z"/>
		<path fill="#171717" d="M139.3,210.3c-1,1.3-2.2,2.7-3.1,4.2c-0.5,0.8-0.6,1.8-1.2,2.7c-0.4,0.7-1.1,1.3-1.5,1.9
			c-0.5,0.8-0.7,1.9-1.1,2.7c-0.9,1.6-2.4,3.7-3.8,5.4c-1.3,1.7-2.7,3.9-4.1,6.1h2.2c0.8-1.8,1.9-3.4,3.1-4.9
			c0.3,1.4,0.8,3.1,1.3,4.9h1.5c-0.3-0.5-0.6-0.9-0.9-1.4c-0.5-8.6,4-13.3,10.7-13.1c2.9,0.1,6.1,1.7,7.7,3.9
			c0.3,0.4,0.4,1.6,0.8,2.3c0.4,0.9,1.4,1.7,1.5,2.7c0.1,0.6-0.4,0.7-0.4,1.2c0,0.3,0.5,2.7,0.4,3.9c0,0.2-0.1,0.5-0.1,0.7h1
			c0.2-1.9,0.5-4,0.2-5.7c-0.2-1.1-0.9-2.7-1.5-3.9c-0.8-1.4-1.6-2.8-2.7-3.5c-0.3-0.2-1-1.3-1.5-1.5c-2.9-1.6-8.6-1.5-11.9,0
			c1.2-2,2.1-4.3,3.4-6.2c1.9,0.3,3.1,2.1,4.6,3.1s3.2,1.7,4.6,2.7c1.5,1,2.7,2.2,4.2,3.1c1.5,0.9,3.1,1.4,4.8,2.2v-1.5
			c-4-0.8-6.9-3.3-9.8-5.4C144.8,214.7,141.9,212.8,139.3,210.3z"/>
		<path fill="#171717" d="M124.7,83.1c3.3,1.5,6.4,3.9,6.1,9.6c0,1,0,2.1,0,3.1c1.4-3.3-0.4-8-0.4-11.2c0-0.3,0.4-0.4,0.4-0.4
			c0-1.1-0.3-2.3-0.2-3.1h-1c0.1,0.2,0.1,0.5,0,0.8c-0.8,0-1.2-0.4-1.7-0.8h-1.5c0.1,0.1,0.1,0.2,0.1,0.4c1.6,0.6,3.3,1,3.1,3.5
			c-2.2-1.1-4-2.7-6.2-3.9H122c0.7,0.4,1.5,0.7,2.4,1.2C124.5,82.4,124.6,83.1,124.7,83.1z"/>
		<path fill="#171717" d="M155.5,233.3h2.1v-4.9c-0.1,0.9-0.2,1.7-0.2,2.7C156.7,231.8,156.1,232.6,155.5,233.3z"/>
		<path fill="#F7CC00" d="M13.1,164c-0.6-0.5-0.6-3.7,0-4.2c-0.3-1-0.7-2-1.3-2.8v9.5c0.1-0.1,0.1-0.1,0.2-0.2
			C12.3,165.6,12.8,164.8,13.1,164z"/>
		<path fill="#F7CC00" d="M58.7,81.2h-1.6C57.6,81.5,58.2,81.5,58.7,81.2z"/>
		<path fill="#F7CC00" d="M48,102.8c-1.2,1.7-2.3,5.7-3.4,6.9c-1.2,1.3-1.6,3.3-2.3,4.6c-0.9,1.6-2.6,3-2.7,5c0.9,1.5,2.8,2,4.6,2.7
			c1.3-2.7,3-5,4.2-7.7c-0.3-0.7,1-3.1,1.9-3.9c0.7-1.3,1.5-2.6,2.3-3.9c-0.5-0.9,1.3-2.8,1.9-3.9c1.6-0.7,1.9-2.5,2.7-3.9
			c1.6-2.9,3.1-5.4,4.6-8.1c1.3-2.3,2.4-4.9,3.5-6.9c0.5-0.9,1.4-1.7,1.9-2.7h-7c-3.8,7.1-8.3,14.3-11.4,21.2
			C48.7,102.5,48.1,102.6,48,102.8z"/>
		<path fill="#B32621" d="M87.9,133.2c-1.4-1.8-3.2-3.3-4.6-5C84.4,130.3,86.2,131.7,87.9,133.2z"/>
		<path fill="#B32621" d="M108.2,143.2c0.6,0.7,3.3,1.3,4.2,0.4C110.7,143.8,109.6,143.4,108.2,143.2z"/>
		<path fill="#F7CC00" d="M74.1,92.4c-0.2,0.5-0.6,0.8-0.8,1.2c-0.3,0.9-0.4,2.2-0.8,3.1c-0.8,1.8-2.6,3.3-2.7,5.4
			c-2.7,2-4,6.2-5.7,8.5c-0.2,0.3-0.5,0.4-0.8,0.8c-1.3,2.1-2.9,4.7-4.2,6.2c0.1,0,0.3,0,0.4,0c1.1-0.7-0.9,1.1-1.5,1.9
			c-0.1,0.2,0.1,0.6,0,0.8c-0.2,0.5-1.6,1.6-1.9,1.5c-0.2,0-0.5,0.1-0.4,0.4c0.6,0.3-0.2,1-0.4,1.2c-0.8,1-2.1,2.4-2.7,3.1
			c-0.6,0.7-0.9,1.3-1.5,1.9c-1.2,1.3-2.8,2.4-3.8,3.5c-0.2,0-0.5,0.1-0.4,0.4c-2.7,2.5-5.8,5.3-8.4,7.3c-1.9,1.5-4.2,2.2-5,4.6
			c0.9,0.3,1.6-1.3,1.9-0.4c0.9-0.6,1.7-1.4,2.7-1.9c0.8-1.4,2.3-2.1,3.4-3.1c1.1-1.4,2.4-2.7,3.8-3.9c1.7,0,1.4-1.9,3.1-1.9
			c0.7-1.3,2-1.8,2.7-3.1c-0.1-0.7,0.5-0.8,0.8-1.2c0.6-0.7,0.8-0.8,1.5-1.2c0.1,0,0.3-0.7,0.4-0.8c1.7-1.9,3.1-3.8,5-5.4
			c1.1-0.5,1.6-1.7,2.3-2.7c-0.4-0.1,0.2-1.2,0.4-1.5c0.6-0.9,1.7-1.8,2.3-2.3c1.3-1.5,2.3-3.4,3.5-5c-0.4-0.9,1.4-3,2.3-3.9
			c3.8-5.9,8.4-14.9,10-22.7c0.1-0.5,0.5-1.3,0.6-1.9h-2.3c-0.1,0.4-0.2,0.9-0.3,1.2C76.4,85.9,75.2,89.5,74.1,92.4z"/>
		<path fill="#B32621" d="M47.3,131.7c1-1.6,2.8-2.6,3.8-4.2c-1.7,1.4-3.2,2.9-4.6,4.6c0.1,0,0.3,0,0.4,0
			C46.8,131.7,47,131.7,47.3,131.7z"/>
		<path fill="#B32621" d="M45.3,134.8c-1.1,1.4-2.4,2.7-3.8,3.9c-1.2,1-2.7,1.7-3.4,3.1c3.6-2.8,7.1-5.8,10.4-8.9
			C46.8,132.8,47,134.8,45.3,134.8z"/>
		<path fill="#F7CC00" d="M149.3,91.2c0.2-1.8-0.6-4.4,1.2-5c0.3,2.7,0.5,5.4,1.2,7.7c0.8,0,0.2,1.6,0.4,2.3
			c1.2,0.3,1.2-0.6,1.9-0.8c1.2-4.2-1.7-7.5-2.7-10.8c-0.4-0.6-1.1-0.9-1.1-1.9c-1.2,0.4-0.9,2.1-1.9,2.7c-1.8,3-4.6,9.6,0.4,11.2
			C148.9,95.2,149.1,93.3,149.3,91.2z"/>
		<path fill="#F7CC00" d="M48.4,97.4c0.3,0.1,0.4,0.3,0.4,0.7v0.1c0,0,0,0,0.1,0c1.9-0.4,1.7-2.9,2.6-4.2c0.2-1.7-0.2-2.9-0.4-4.2
			c1.3,0.2,2.2-0.2,3.1-0.4c0.6-1.4,2.2-1.9,2.3-3.9C50.5,84.2,45.9,91.3,48.4,97.4z"/>
		<path fill="#F7CC00" d="M149.7,112.8c0.5,0,1,0,1.5,0c1.2-1.4-2-0.9-2.7-1.5c-0.1-1,0.5-1.3,1.5-1.2c0,0.1,0,0.3,0,0.4
			c0.3-0.1,0.8,0,0.8-0.4c-0.1,0-0.3,0-0.4,0c0.1-0.3,0.3-0.5,0.8-0.4c-0.1-0.7-3.3-0.3-1.9-1.2c0.3-0.8,2-0.3,2.3-1.2
			c-0.3-0.9-1.9-0.7-2.3-1.5c0.6-0.5,1.7-0.3,1.5-1.5c-1.6-0.2-0.9-0.7-0.4-1.2c1.1-0.9-0.3-1.2-0.4-1.9c0-0.9,1.5-1.5,0.4-2.3
			c0-0.5-0.4-4.7,0.4-5.8c0-0.2-0.1-0.5-0.4-0.4c-1.1-0.2,0.3,2.1-0.8,1.9c0,7-2.3,11.9-3.5,17.7c1.6,0.7,2.5,2.1,3.8,3.1
			C151.3,114.5,150.6,113.5,149.7,112.8z"/>
		<path fill="#171717" d="M116.7,117.8c4.1-0.8,4.3-2.4,3.1-5.8c-1.1-3-3.4-6.9-2.7-9.2c0.8,0.3,2,2.3,3.1,1.2
			c-1-0.9-2.3-1.5-2.7-3.1c3.9,1.6,9,1.1,12.3-0.8c0.3-1.9-0.7-2.6-1.1-3.9c0-0.8,1-0.5,0.8-1.5c-3.6,0.9-8,0.9-10.4,3.1
			c-1.2,0.3-1.7,2.7-3.1,1.5c-0.1-1.4,1.3-2.3,2.3-3.1c2-1.5,4.2-2.3,7.7-1.9c0.2-0.6,0.5-0.7,0-1.2c-3.9-0.2-5.7,0.6-7.7,1.9
			c-0.5,0.3-0.7,1.2-1.2,1.5c-0.7,0.6-1.7,0.1-1.9,1.2c0.5,6.7,3,11,4.6,17.3c-1.2,2.4-5.3,1.8-5.8,5
			C115.4,119.8,115.4,118.2,116.7,117.8z M127.8,97.8c1-0.1,1,0.8,1.2,1.5c-0.3,0.3-1.1,0.2-1.2,0.8
			C126.7,99.7,127.9,98.5,127.8,97.8z M121.3,97.4c2-0.3,1.2,2.2,2.7,2.3c1.8-0.2,2-2.1,2.7-3.5c1.7,1.1-0.7,4.5-2.3,4.6
			C122.5,101,120.7,99.3,121.3,97.4z M120.1,98.2c0.3,1,1,1.5,1.1,2.7c-1.4,0.3-1.6-0.7-3.1-0.4C118.1,99,118.8,98.3,120.1,98.2z"/>
		<path fill="#F7CC00" d="M43.4,105.5c-0.1-2.2-1.8-2.8-3.1-3.9c-0.1-1-0.7,0.5-1.5,0c-0.5,2.6,1.7,2.6,2.7,3.9
			C41.8,104.3,42.5,106,43.4,105.5z"/>
		<path fill="#171717" d="M105.9,102.4c-0.3,0.3-0.9,0.4-1.5,0.4c-0.1,0-0.3,0-0.4,0c-0.7,1.1-2.7,0.9-3.8,1.5
			C102,105.1,105.2,104,105.9,102.4z"/>
		<path fill="#F7CC00" d="M156.2,162.5c0-0.5-0.7-0.4-0.8-0.8c0-0.4-0.3-0.5-0.4-0.8c0.5-0.7,1.3-1,1.2-2.3c-0.1-0.8-1-0.8-1.2-1.5
			c0.1-0.5,0.6-0.6,0.8-1.2c0.2-0.8-2.3-2.9-0.4-4.2c0.1-0.7-1.8-1.2-0.8-1.5c0.4-1.8-1.2-2.9-0.4-3.9c-1-0.5-0.7-1.7,0-2.3
			c-0.5-0.9-1.5-3.3-0.8-4.2c0.5-0.6-0.8-2.7-0.8-3.9c0-1,0.7-2.2-0.4-2.7c1.4-1.5-0.7-2.4,0.4-4.6c-0.5-0.5-1.9-0.2-1.9-1.2
			c0.6-0.4,1.7-0.3,1.5-1.5c-0.2-0.5-1.5-0.1-1.5-0.8c0.8-0.4,1.6-0.7,1.9-1.5c-0.5-0.5-1.9-0.2-1.9-1.2c0.5-0.1,1.1,0.1,1.2-0.4
			c1.1-1.3-2.3-0.6-1.5-2.7c0.4,0.1,0.6,0.4,0.8,0.8c0.5-0.1,1.1,0.1,1.2-0.4c-1.2-0.4,1.1-0.4,1.1-0.8c0.1-1.2-1-1.3-0.8-2.7
			c0.1,0,0.3,0,0.4,0c0.4,0,0.5-0.3,0.8-0.4c0.5,0.8,0.6,2,1.9,1.9c0.2-0.7,1.1-0.7,0.8-1.9c-0.5-1.3-1.7-1.9-3.1-2.3
			c-1.8,0.6-2.5,2.4-3.4,3.9c-0.4-0.1-0.6-0.4-0.8-0.8c-1.2-1.1-2.3-3.3-4.6-2.7c-0.7,0.2-0.7,0.8-1.5,1.2c-1.4,1.6,1.1,4.1,2.7,2.7
			c0.5-1.7-1.3-1-1.2-2.3c1.4-0.2,2,0.3,2.3,1.2c-0.6,2.3,0.6,4.5,0.8,6.6c0.2,2.2,0.3,5,0.4,6.2c0.3,3-0.5,5.2-0.8,7.3
			c-0.3,2.6-0.4,4.8-0.8,6.5c0,0-0.3,1.2-0.4,1.5c-0.1,0.1-0.7,0.2-0.8,0.4c-0.2,0.6,0.1,1.3,0,1.9c-0.1,0.5-0.7,1.1-0.8,1.5
			c-0.7,3.7-0.9,7.7-1.5,10.8c0.6,0.5,0.6,3.7,0,4.2c0.2,3,0.8,5.7,1.9,7.7c0.9,1.4,2.4,2.2,3.8,3.1c1.8,1.2,4.6,0.7,5.4-1.2
			c-0.1,0-0.3,0-0.4,0c-2.7-1.3,2.7-3,0.4-3.8c0.1-0.5,0.4-0.2,0.8,0c0-0.5-0.5-0.5-0.4-1.2c0.1-1.1,1.8-0.5,1.5-1.9
			c0.1-1-1.5-0.3-1.2-1.5C154.1,164.2,156.2,163.5,156.2,162.5z M152.7,154c-0.8,1-1.9,0.1-2.3,0C147.5,153.4,152.3,154,152.7,154z
			 M152,148.6c-1-0.2-2.3,0-2.3-1.2C150.6,147.7,152,147.5,152,148.6z M152.4,151.3c-1.6,0.2-2.1-0.7-3.5-0.8
			C149.6,149.8,152.3,150.2,152.4,151.3z M150.8,172.9c-1.2,0.2-1.8-0.3-2.7-0.4C148.2,172,151.3,171.6,150.8,172.9z M149.7,169.1
			c-0.6-0.2-2.4,0.5-1.9-0.8c1.7,0.4,3.3,0.5,4.2,0.8C151.8,170.5,150.7,169.3,149.7,169.1z M152,166c-1.2-0.1-2.2-0.4-3.1-0.8
			c-0.4,1.1-0.4-0.6,0-0.8c1.2,0.4,3.8-0.2,3.8,1.5C152.7,166.2,151.8,166.4,152,166z M148.5,161.3c1.4-0.7,3-0.3,4.2,0
			C151.9,163.2,150,161.2,148.5,161.3z M152.4,158.3c-1.9,0.2-2.3-1-4.2-0.8c0-0.4,0.5-0.3,0.8-0.4c1-1.2,2.5,0.5,4.2,0
			C153.4,157.9,152.5,159.2,152.4,158.3z"/>
		<path fill="#F7CC00" d="M81,127.4c-1.2-2.4-2.9-4.3-4.2-6.5c-2.2,0-2.7-1.7-4.2-2.3c-1.3,1.9-2.7,3.7-3.8,5.8
			C71.7,126.3,77,127.9,81,127.4z"/>
		<path fill="#171717" d="M114.8,128.6c0.3,3.1-5,1.4-6.1,1.9c0.5,0.2,0.8,0.5,0.8,1.2c1.9,0.1,2.9-0.7,5-0.4
			C114.8,130.9,115.8,129.2,114.8,128.6z"/>
		<path fill="#171717" d="M109,133.2c0.5,1.1,3.4-0.1,5,0.8C114,132.3,110,132.6,109,133.2z"/>
		<path fill="#F7CC00" d="M59.9,139c1.4,1,3.6,1.5,4.6,1.9c1.1,0.5,3.2,1.1,3.8,1.5c0.4,0.2,0.6,0.1,1.2,0.4
			c5.7,2.3,14.7,3.2,20.3,3.5c2.6-0.9,6.8-0.1,10-0.4c1.3,0,2.6,0,3.8,0c2.6,0.1,5.2-0.3,6.5-0.4c-0.5,0-0.9-0.1-0.8-0.8
			c-2.1-0.1-3.8-0.5-5.8-0.8c-0.1,0-0.2,0-0.4,0c-0.5-0.2-0.6-0.5-1.1,0c-0.9,0.9-3.4,0.1-5,0.4c-1.2,0-2.3,0-3.5,0
			c-1.3-0.2-3.6,0.5-4.2-0.4c-0.1,0-0.2,0-0.4,0c-1.2-0.2-3.3,0.5-3.8-0.4c-1.6-0.5-3.4-0.7-5.4-0.8c-0.7,0.3-3.6-0.5-4.6-1.2
			c-1-0.4-2-0.8-3.4-0.8c-4.4-0.7-7.5-2.8-11.5-3.9c0-0.1,0-0.3,0-0.4c-0.5-0.5-1.5-0.9-1.9-0.4C57.2,138,59.1,138.4,59.9,139z"/>
		<path fill="#B32621" d="M68,146.3c1.4,1.7,2.9,3.2,4.6,4.6C71.2,149.3,69.7,147.7,68,146.3z"/>
		<path fill="#F7CC00" d="M101.3,147.1c-0.1,0-0.3,0-0.4,0c-0.1,0.5-0.5,0.7-0.4,1.5c3.1-0.4,3.4,2.1,2.3,3.9
			c2.1,0.3,3.3-0.3,4.6-0.8c-0.2,1,0.5,3.1-0.4,3.5c-1.1-0.7-2.2-1.4-4.2-1.2c0,1.3,1.2,1.3,1.2,2.7c-0.5,0.4-0.8,1-1.2,1.5
			c-0.5,0.5-0.1,0.6,0,1.2c0.1,0,0.3,0,0.4,0c0.5-0.6,3.7-0.6,4.2,0c3-0.2,7.4-0.2,10.4-1.5c0.6-0.6,1.7-0.6,2.7-0.8
			c-0.5-0.9-2.9,0.1-3.1-1.2c-0.3-0.5-1.1-0.6-1.5-0.8c-0.5-0.2-1-0.5-1.5-0.8c-0.8-0.4-2.5-0.4-2.7-1.5c1.3-1,2.5-2.1,3.8-3.1
			c1.3-0.9,2.7-2.1,4.6-2.3c1.4,0.4,2.1,1.4,1.9,3.5c1.2,0,1.1-1.2,2.7-0.8c0.8,0.1,0.2,1.6,0.4,2.3c0.8-0.3,0.5-1.8,1.5-1.9
			c0.9-0.8,1.1-2.2,1.9-3.1c-1.7-1.3-2.4-3.5-5.4-3.5c-5.6,1.6-11.6,2.9-17.6,3.1C105,147.7,101.9,147.7,101.3,147.1z"/>
		<path fill="#F7CC00" d="M73.7,151.3c0.5,0.2,0.5-1.2,0.8-0.4c2.3-0.6,3.8-2.1,5.8-3.1c0-0.6,1-0.3,0.8-1.2c-0.1,0-0.2,0-0.4,0
			c-1.7,0-3.2-0.2-4.2-0.8c-1.1-0.4-2.2-0.9-3.8-0.8c-2.6-0.1-3.9-1.5-6.1-1.9c-1.1,0.3,0.9,0.6,0.4,1.5c0.2,0.6,0.6,0.9,1.2,1.2
			C70.4,147.1,71.6,150.6,73.7,151.3z"/>
		<path fill="#F7CC00" d="M79.5,156c-0.5,0.8-1.3-1.2-2.3-1.2c0.9,1,1.5,2.3,3.1,2.7c1.1-0.2-0.6-0.6-0.4-1.2
			C79.8,156.1,79.8,155.9,79.5,156z"/>
		<path fill="#171717" d="M150.4,154c0.4,0.1,1.5,1,2.3,0C152.3,154,147.5,153.4,150.4,154z"/>
		<path fill="#F7CC00" d="M59.5,163.3c-0.1,0-0.3,0-0.4,0c-1.8-1.2-2.8-3.1-4.6-4.2c-0.1,0.3,0,0.8-0.4,0.8
			c-0.1,2.4,0.2,4.4,0.8,6.2c0.9,0.2-0.1,2.4,0.8,2.7c2.2-0.1,5.2,0.7,7.3,0.4c2-0.3,0.9-0.2,1.5-0.8c-0.1,0.1,0.1,0.6,0.4,0.4
			C63.3,166.7,61.5,164.9,59.5,163.3z"/>
		<path fill="#B32621" d="M59.2,163.3c0.1,0,0.3,0,0.4,0c-1.2-1.6-2.6-3-4.2-4.2C56.4,160.7,58.1,161.6,59.2,163.3z"/>
		<path fill="#F7CC00" d="M154.3,180.2c0.5-2.1-1-2-1.2-3.5c-0.1,0-0.2,0-0.4,0c-0.6,0-1.3,0-1.9,0c0.2,0.8,1.9,0.1,1.5,1.5
			c-0.7,0.7-2.2,0.2-2.7-0.4c0-0.3,0-0.5,0-0.8c-1.2,1.7-0.8-1.1,1.1-0.4c-1-1.4-3.8,0.7-4.2,0c-0.1,0-0.3,0-0.4,0
			c-1.5,1.6-2.9,3.8-2.3,6.2c0.2,0.7,1.7,2.4,2.3,2.7c1.1,0.6,3,0.5,4.2,0.4c-0.5-0.3-0.7-0.8-0.8-1.5c0.9,0.8,0.4-0.1,1.1-0.4
			c1.3,0.6,0.9,1.4,1.2,2.3c2.1-0.3,2.5-2.3,3.8-3.5c-0.7,0-1-0.3-1.1-0.8c0.4-0.1,0.6-0.4,0.8-0.8c0-0.1,0-0.3,0-0.4
			C155,180.8,154.5,180.6,154.3,180.2z M152,180.2c0.5-1.2,0.5,1.1,0,1.2c-1-0.3-2.4-0.2-3.1-0.8C149.6,179.4,150.7,180.1,152,180.2
			z M152.4,183.3c-0.8,0.5-3.8,0.4-3.8-1.2c0.3-0.1,0.4,0.2,0.4,0.4c0.7,0.6,2,0.5,3.1,0.8C151.9,182.4,152.4,182.7,152.4,183.3z"/>
		<path fill="#F7CC00" d="M80.6,189.9c0.3-1.1-2.1-2.8-0.4-1.9c-0.7-0.8-1-1.4-1.1-1.9c-2.1-2-3.9-4.3-5.4-6.9
			c0-0.2-0.1-0.5-0.4-0.4c-0.8,0-0.5-1.1-1.5-0.8c-0.2,0.9,0.5,2.8-0.4,3.1c0.1,0.3,0,0.8,0.4,0.8c0.5-1,0.7,3.6,0,3.9
			c0,0.4,0.3,0.5,0.4,0.8c0,2.8,4,1.6,5.4,3.1c0.1,0.8,1.7,0.1,1.9,0.8C79.5,189.8,80.1,189.8,80.6,189.9z"/>
		<path fill="#F7CC00" d="M61.8,182.5c1.1,0.5,1.6,1.8,2.7,2.3c0.2-0.9-0.5-2.8,0.4-3.1c0-0.5-0.2-0.8-0.4-1.2
			c-0.2-2.7-3.9-1.7-5.8-2.7c0.7,1.6,1.9,2.7,3.1,3.9c-0.2,0.6-0.3,0-0.8,0c0,0.1,0,0.3,0,0.4C61.5,182.2,61.5,182.5,61.8,182.5z"/>
		<path fill="#F7CC00" d="M38.8,185.2c-2.2-0.9-5.3,0.6-6.9,1.5c-1.1,1.4-2.2,2.9-3.4,4.2c-0.7,1-1.2,3.7-0.4,5
			c1.4,3.1,3.9,5.1,8.1,5.4c0.2,0,0.5-0.1,0.4-0.4c2.6-0.8,4.1-2.8,5.4-5c1.1-3.3-1.5-6.2-3.8-7.3c-1,0.9-2.1,0.1-3.1,0.4
			c-1.6,0.5-2,1.9-3.1,2.7c-0.2,0-0.5,0.1-0.4,0.4c0.6,1.4,0.5,3.6,1.5,4.6c1.4,0.6,3.7,0.5,4.6-0.4c0.5,0,0.4-0.7,0.8-0.8
			c0.2-2.4-0.8-3.5-2.7-3.9c-2,1,0.5,2.5-1.2,3.5c-0.7-0.5-0.7-1.9-1.1-2.7c0.5-0.7,1.2-1.4,1.9-1.9c2.6-1.3,5.8,2.1,4.2,5
			c-0.2,0-0.5,0.1-0.4,0.4c1,1-1.7,3.7-2.7,2.7c-4.3,1.5-7.7-4.1-5.4-8.1c-0.7-0.3,1.6-2.7,2.7-3.1c0.5-0.2,1.7-0.8,1.9,0
			c0.5-0.5,1.4-0.5,1.9,0c2.3-0.6,4.8,1.9,5.4,4.2c1.3,6.9-2.9,11.4-10,11.2c-0.2,1.2-0.1,2.7-1.5,2.7c0-1.4,0.2-3-0.8-3.5
			c-1.1-1.1-3.8-2.6-3.1-4.2c-1.2-1-0.3-4.1-1.9-4.6c-0.3,1-1.1,1.5-1.5,2.3c1,2.3,4.6,6.4,5.8,10.4c0.7,2.4,1.3,6.1-1.1,6.6
			c-1.4,0.2-2-1-2.7-1.9c-1.1-1.5-1.2-3.8-2.7-4.6c-0.8-1-0.5-3.1-2.3-3.1c0.3,1.2,0.2,2.8,0.8,3.9c0.6,0.5,0.6,3.7,0,4.2
			c-0.1,0.5-0.6,0.7-0.4,1.5c-1,0.4-1.3,1.5-2.7,1.5c-0.2,2.6-3.1,2.5-3.4,5c0.1,0,0.3,0,0.4,0c1.4,1.1,2.5-0.6,3.5-1.2
			c1.2-0.5,0.9-2.7,1.9-3.5c0.4,0.7,0.5,1.8,0.8,2.7c2.2,0.2,3.2-2,5-1.2c0.7-1.2,2.4-1.3,3.4-1.9c1.5-0.9,2.9-2.5,3.8-3.5
			c0.7-1.3-0.3-4.4,1.2-5c0.7,0.5,1.4,1.2,1.9,1.9c2.3,0.8,3.2-2.9,5-3.9c2.7-2.9,4.9-10.1,1.9-14.3C42.5,187.9,41.2,186,38.8,185.2
			z"/>
		<path fill="#F7CC00" d="M143.9,204.9c1.2,2.1,3,3.7,5,5c0,0.1,0,0.3,0,0.4c0.4,0.7,1.5,0.8,1.9,1.5c1.3,0,2,1.9,2.7,0.4
			c1.7-0.5,1-2.4,0.4-3.5c0.2-1,1.6-1,1.5-2.3c0.1-1-1.5-0.3-1.1-1.5s1.9-1.2,1.9-2.7c-0.6-0.5-1.6-0.5-1.9-1.2
			c0.5-0.8,1.4-1.1,1.5-2.3c-0.3-0.7-1.4-0.6-1.5-1.5c0.7-0.5,1.5-0.8,1.5-1.9c-0.9,0.1-1.4-0.1-1.5-0.8c0.3-0.7,1.6-0.5,1.1-1.9
			c-2,0.5-1.5-0.9-1.1-1.9c-1.5,0.1-1.4-1.4-1.9-2.3C143.6,185,141.5,197.9,143.9,204.9z M151.2,206.1c0.2-0.2-2.5,0.4-2.7-0.4
			c-0.3-0.2-0.7-0.3-0.8-0.8c-0.3-0.3-0.4,0.4-0.4,0.4c1,0.2-0.5,0.2-0.4,0C148.2,203.7,152.3,204.5,151.2,206.1z M146.2,201.4
			c1.5-0.2,5.3-1.7,5,0.8C149.9,201.6,147.8,201.8,146.2,201.4z M147.8,198.3c-0.1-0.5-0.7-0.3-1.2-0.4c1-0.7,4.5-0.7,5,0.4
			C151.6,199.4,148.6,198.7,147.8,198.3z M149.3,195.3c-0.2,0.9-2,0.3-2.3,0c-0.4-1,1.3-1.7,1.5-0.8c1.4,0,3.1-0.3,3.1,1.2
			C150.7,195.7,150.5,195,149.3,195.3z M148.9,192.2c0.2-0.8,2.4-0.4,2.7,0C151.1,193.8,150.3,191.8,148.9,192.2z M149.3,189.5
			c1.2-0.3,1.4,0.4,2.3,0.4C151.7,190.9,149.3,190.6,149.3,189.5z"/>
		<path fill="#F7CC00" d="M141.6,193c-0.9,0.5-2.8,2.1-3.4,1.5c-0.2,0-0.5,0.1-0.4,0.4c-1.2,1.3-3.4,1.7-3.8,3.9
			c0.5,1.4,1.1,2.8,1.1,4.6c0.1,0,0.3,0,0.4,0c1.3,0.1,1.2-1.4,1.9-1.9c1.3-0.1,1.8,0.9,1.9-0.8c0.1,0,0.3,0,0.4,0
			c0.8-1.9,2-3.4,2.3-5.8C141.2,194.9,141.8,193.5,141.6,193z"/>
		<path fill="#F7CC00" d="M88.7,211.5c0.1,0.5,0.8,0.4,1.1,0.8c0.4-0.8,2.3,0.3,2.7,0.8c0.5,0,0.4-0.7,0.8-0.8
			c-0.8-2.2-2.1-4.4-3.1-6.5c-0.5-1.1-0.6-2.4-1.2-3.5c-0.2-0.4-0.9-0.8-1.1-1.2c-0.4-0.5-0.1-1.9-1.2-1.5c-0.7,2.1-1.2,4.4-1.1,7.3
			c0,0.9,0,1.8,0,2.7C86.6,210.2,88.1,210.3,88.7,211.5z"/>
		<path fill="#F7CC00" d="M14.3,230.3c0.3-0.6,0.6-1.2,1.5-1.2c0.1-0.5,0.4-0.2,0.8,0c-0.5,1.2-1.2,2.1,0,3.1
			c1.5,0.3,1.4-0.9,2.3-1.2c1.1-1.3-0.2-3.3-0.8-4.2c-0.5,0.5-1.1-0.3-1.9-0.4c-1.7-0.1-3.2,0.6-4.2,1.2c-0.1,0-0.1,0-0.2,0v5.7h2.9
			C13.9,232.5,13.5,231.2,14.3,230.3z"/>
		<path fill="#B32621" d="M108.2,227.2c0.3,0.9,3.1,1.2,3.8,0.4c-1-0.2-3.9,0.5-2.7-0.8c-0.4,0-0.5-0.3-0.8-0.4
			C109.1,226.9,109,227.3,108.2,227.2z"/>
		<path fill="#F7CC00" d="M85.2,223c1.4-0.2,1.3-1.7,1.9-2.7c-0.3-1.1-1.8-1-2.7-1.5c-0.4,0.1-0.3,0.8-0.8,0.8
			c0.7,0.6,0.5,2.1,1.1,2.7C85.2,222.2,85.2,222.7,85.2,223z"/>
		<path fill="#F7CC00" d="M126.7,233.3h4.4c-0.5-1.8-1-3.5-1.3-4.9C128.6,229.9,127.5,231.5,126.7,233.3z"/>
		<path fill="#F7CC00" d="M95.6,223c-0.5,0.8-1.6,1.9-2.3,3.1c-0.4,0.7-0.6,1-0.8,1.5c1.8,0.7,3.8,0.3,5.4-0.8
			c-0.3-1-0.2-2.4-0.8-3.1C96.4,223.2,96.6,221.5,95.6,223z"/>
		<path fill="#171717" d="M103.6,93.5c-0.5-1.7-3-1.3-4.2-1.2c-1,0.1-2.2,0.5-2.7,0.8C95,94,90.5,96,91.4,97.4
			C94.4,95.1,98.8,92.7,103.6,93.5z"/>
		<path fill="#171717" d="M91.8,100.1c2.2,1.3,6.5,3.1,10,2.3c2.1-0.5,2.8-2.2,4.2-3.1c0.7-0.4,1.3,1.2,1.5,0
			c-1-1.3-2.3-2.3-2.7-4.2c0.7-0.2,1.6-0.1,1.5-1.2c-0.9-0.1-1.9,0.6-2.7,0.8c-1.6,0.3-3.2,0.1-4.6,0.4c-4,0.9-6.7,3.2-9.2,5.4
			C90.8,100.6,90.7,99.8,91.8,100.1z M104,97c0.5,0.1,0.6,0.7,1.1,0.8c-0.4,1.7-1.1,3.2-3.1,3.5C102.8,99.8,103.8,98.8,104,97z
			 M96.7,96.6c1.6,0.2,1,2.6,2.7,2.7c2.2,0.3,1.9-2,2.7-3.1c1.6-0.2,0.4,3.4,0,3.9c-0.3,0.3-1.3,0-1.2,0.8
			C98.1,100.9,96.5,99.7,96.7,96.6z M95.2,97.4c1.2,0.8,1.1,3.1,2.7,3.5c-1.7,1-3.9-0.7-5.4-1.2C93,98.6,94.2,98,95.2,97.4z"/>
		<path fill="#171717" d="M113.6,116.3c0.1-1.2-1.6-0.9-2.3-0.8c-1.2,0.2-1.7,1.3-1.9,1.9c0,0.1,0,0.3,0,0.4
			C111,117.5,111.1,115.6,113.6,116.3z"/>
		<path fill="#F7CC00" d="M114.4,145.2c2.2-0.6,4.5-0.5,6.1-1.2c0.6-0.2,2.8-1.2,1.9-1.5c0,0.1,0,0.3,0,0.4
			c-0.6-0.3-0.8-1.2-1.2-1.5c-0.3-0.2-1.6-0.8-1.5-0.8c-1.5,0-1.9,2.4-3.1,1.9c-0.2,0-0.5,0.1-0.4,0.4
			C116.3,144.2,113.4,143.9,114.4,145.2z"/>
		<path fill="#F7CC00" d="M97.1,157.1c-0.8-2.1-3.8-2.1-4.6-4.2c2.2-0.7,3.8-1.9,5.4-3.1c0.4-0.9,1.2-1.4,2.3-1.5
			c-1.2-0.9-4-0.1-5.8-0.4c0-0.1,0-0.3,0-0.4c-1.9-0.2-4.5,0.4-5.7-0.4c-0.5,0.9-2.7,0.1-3.8,0.4c-0.2,0-0.4,0.3,0,0.4
			c-0.2,1.1-0.6-0.6-1.1-0.4c0.1,0.9,1.3,0.7,1.1,1.9c0.5,1.7-1.8,1.6-0.8,2.7c2.3,0.4,2.9-0.9,5-0.8c-0.2,1.1,0.5,3.1-0.4,3.5
			c-1.3-0.8-3-1.1-4.6-1.5c0.1,0.9,0.6,1.4,0.4,2.7c1.2,1.2-1.6,1.7-2.3,2.3c0.1,0,0.3,0,0.4,0c2,0.2,4.2,0.2,5.8,0.8
			c0,0.2,0.1,0.5,0.4,0.4c0.9-0.6,4.5-0.6,5.4,0c1.8,0.5,4.7,0.2,5.8,0.4c0-0.5,0.2-0.8,0.4-1.2C99,158.3,98.7,157.1,97.1,157.1z"/>
		<path fill="#171717" d="M122.1,155.2c0-0.1,0-0.3,0-0.4c-0.6-1.8,0.9-2.5,1.9-1.5c1.5,0.2,0.5-2.1,0.8-3.1
			c-1.6-0.4-1.5,0.8-2.7,0.8c0.2-2-0.5-3.1-1.9-3.5c-1.9,0.2-3.3,1.4-4.6,2.3c-1.3,0.9-2.5,2.1-3.8,3.1c0.2,1.2,1.9,1.2,2.7,1.5
			c0.5,0.2,1,0.6,1.5,0.8c0.4,0.2,1.3,0.3,1.5,0.8C118.7,156.4,121.8,156.9,122.1,155.2z"/>
		<path fill="#171717" d="M152,178.3c0-1.2-1.3-1-2.3-1.2c0,0.3,0,0.5,0,0.8C150.8,177.6,150.8,178.6,152,178.3z"/>
		<path fill="#F7CC00" d="M136.6,180.6c-0.4,0-0.3-0.5-0.4-0.8c-1-0.3-0.8,0.8-1.5,0.8c-0.7,1.6-1.8,2.8-1.9,5
			c-1,0.8-1.7,1.9-1.5,3.9c2.6-0.8,4.4-2.2,6.5-3.5C137.6,184,137.2,182.2,136.6,180.6z"/>
		<path fill="#171717" d="M148.5,194.5c-0.5,0-1.1-0.1-1.1,0.4c-0.1,0.8,1.4,0.2,1.9,0.4c1.2-0.3,1.4,0.4,2.3,0.4
			C151.6,194.2,149.9,194.5,148.5,194.5z"/>
		<path fill="#F7CC00" d="M77.6,203.4c-0.9-0.7-0.2-3,0-3.9c-0.7-1.5-2.7-1.7-4.2-2.3c0.6,1.3,1.2,2.6,1.9,3.9
			c0.3,0.6,0.5,1.4,0.8,1.9c0.3,0.6,1.2,0.7,1.1,1.5C77.6,204.4,77.6,203.9,77.6,203.4z"/>
		<path fill="#F7CC00" d="M129,208c-0.5-1.2-0.3-3.1-1.2-3.9c-0.5-0.9-0.8-1.6-1.5-0.4c-1.3,2.2-1.6,5.3-2.7,7.7
			c1.2,0.5-0.4,1.3,0,2.3c1.2,0,2.1-2.3,2.7-1.5c1.4-0.3,1.9-1.4,2.7-2.3c-0.9,0.3-1,1.3-1.9,1.5c-0.7,0.8,1.7-2,1.9-3.2
			C129,208.2,129,208.1,129,208z"/>
		<path fill="#F7CC00" d="M29.6,98.9c0.8,1.4,1.9,2.5,2.7,3.9c1.8,1.1,0.7-1,0.8-2.3c0.2-1.2-0.7-1.4-0.4-2.7
			c0.7-0.9,2.5-0.8,3.4-1.5c0.5-0.6,3.7-0.6,4.2,0c0.9,0.4,1.9,0.7,3.1,0.8c-0.3-2-1.4-3.8-1.5-5.8c0,0,0.5,0,0.4-0.4
			c-0.7-3.4,1.5-6.3,3.5-7.7c1.4-1,2.7-1.5,4.2-1.9H32.5C33.4,87.8,32.1,94.8,29.6,98.9z"/>
		<path fill="#F7CC00" d="M122.1,154.8c0.8,0.1,0.1,1.8-0.8,1.5c1.7,1.4,3.8-1.6,2.7-3.1C123,152.3,121.4,153,122.1,154.8z"/>
		<path fill="#F7CC00" d="M120.5,158.3c-3.5,1.2-8.8,1.9-12.3,1.9c1.2,0.5-1.4,0.4-1.9,0.4c1.1,0.4,3.8,1.1,4.6,0.4
			c0.3,0.1,0.4,0.3,0.4,0.8c0.4-0.9,2.7,0.2,3.1-0.8c0.8-0.3,3.1-1.2,3.8-0.4c0.2,0,0.5-0.1,0.4-0.4
			C120.1,159.7,123.7,159.1,120.5,158.3z"/>
		<path fill="#F7CC00" d="M44.2,161c-0.3,0.9-2.2,0.2-3.1,0.4c0.4,1.3,1.8,2.6,3.1,3.5c0.6,0.4,1.5,1.6,2.3,2.3
			c0.2,0.2,1,0.6,1.9,0.8c-0.8-2.1-0.5-5.4-1.9-6.9C45.7,161,45,161,44.2,161z"/>
		<path fill="#F7CC00" d="M14.3,185.6c0.9-0.8,1.1-1.4,1.5-2.3c0.1-0.1,0.7-0.2,0.8-0.4c0.2-0.4,0.2-1.3,0.4-1.9
			c0.6-1.9,1.7-4.1,1.9-5.8c-3.5-0.4-5.7,0.5-7.1,2.3v4.5c0.5-0.7,0.9-1.4,1.3-2.1c-0.4-0.5,1.1-2.4,2.7-2.3
			c-0.5,1.5-1.5,2.6-2.3,3.9c-0.7,0.8-1.2,1.9-1.7,2.8v2.1c0.2-0.2,0.5-0.3,1-0.2C13.4,186,14,185.9,14.3,185.6z"/>
		<path fill="#F7CC00" d="M44.6,153.7c0.3-0.1,0.8,0,0.8-0.4c-0.1,0-0.3,0-0.4,0c0.1-0.6,0.9-0.4,1.5-0.4c-0.9-1.6-2.3-2.5-3.8-3.5
			c-0.2,0-0.5,0.1-0.4,0.4c-0.8,1.8-3.5,1.6-3.8,3.9c-0.5,0-1,0-1.5,0c0,0.1,0,0.3,0,0.4c0.8-0.2,2.5,0.5,2.7-0.4
			C40.4,153,43.8,153,44.6,153.7z"/>
		<path fill="#F7CC00" d="M105.2,160.2c-0.5,0.1-1.1-0.1-1.1,0.4c1,0.6-1,0.4-1.9,0.4c-1.1,0-2.6,0.3-2.7-0.4
			c-0.6,0.2-2-0.5-1.9,0.4c1.5-0.7,1.8,1.8,2.7,0.4c0.5,0.1,0.2,0.4,0,0.8c0.3-0.1,0.8,0,0.8-0.4c0.5-0.6,3.7-0.6,4.2,0
			c0.5-0.1,1.1,0.1,1.2-0.4C105,161.3,106.4,160.7,105.2,160.2z"/>
		<path fill="#171717" d="M106.3,88.9c0.5-2.6-2.7-2.6-3.8-2.7c-4.1-0.3-9.6,2.8-11.1,5C95.3,89.1,100.4,88,106.3,88.9z"/>
		<path fill="#171717" d="M115.9,95.8c0.3-6.2,7.4-6.9,12.7-5c0-1.6-1.8-2.8-2.7-3.1c-4.9-1.5-9.5,2-10.4,5.4
			C115.4,93.8,114.8,95.6,115.9,95.8z"/>
		<path fill="#171717" d="M106.3,114.7c-1.1,1.1,0,5,1.1,3.9C106.1,118.3,107.3,115.4,106.3,114.7z"/>
		<path fill="#171717" d="M105.9,127.4c-1.4,0.2-0.9-1.4-2.3-1.2c-1.3,0.7,0.5,1.6,0.8,1.9c2,0.2,3.1-0.5,4.2-1.2
			c1.4,0.4,3.1,0.5,4.2,1.2c1.1,0.1,1.2-0.9,2.3-0.8c1.8,0.1,2.6,1.2,3.8,0c0-0.1,0-0.3,0-0.4c-0.7-0.7-0.7,0.2-1.9,0
			c-0.4-1.2-1.2-2.1-1.9-3.1c-1.1-0.1-1.2,0.9-2.3,0.8c-1,0-1.1-0.7-1.9-0.8C108.8,123.9,107.4,126.5,105.9,127.4z"/>
		<path fill="#171717" d="M80.2,147.9c-1.9,1-3.4,2.4-5.8,3.1c-0.4,1.1,1.2,1.3,1.9,1.9c1.1,0.9,1.8,2.5,3.1,3.1
			c0.3-0.1,0.4,0.1,0.4,0.4c1,1.1,4.4,2,4.6-0.4c0.2-1.3-0.3-1.8-0.4-2.7c1.6,0.4,3.3,0.7,4.6,1.5c0.9-0.4,0.1-2.4,0.4-3.5
			c-2.1-0.1-2.7,1.2-5,0.8c-1.1-1.1,1.3-1,0.8-2.7c0.2-1.2-1-1-1.1-1.9C82.3,147.4,81.2,147.5,80.2,147.9z"/>
		<path fill="#171717" d="M97.9,149.8c-1.6,1.2-3.2,2.4-5.4,3.1c0.8,2.1,3.8,2.1,4.6,4.2c1.6-0.1,1.9,1.2,3.1,1.5
			c1,0,2.2,0.1,2.7-0.4c0.4-0.5,0.6-1.2,1.2-1.5c0.1-1.4-1.2-1.4-1.2-2.7c2-0.2,3.1,0.5,4.2,1.2c0.9-0.4,0.1-2.4,0.4-3.5
			c-1.3,0.5-2.5,1-4.6,0.8c1.1-1.8,0.8-4.3-2.3-3.9C99.1,148.5,98.8,149.4,97.9,149.8z"/>
	</g>
</g>
</svg>
