<?xml version="1.0" encoding="utf-8"?>
<!-- Generator: Adobe Illustrator 19.2.0, SVG Export Plug-In . SVG Version: 6.00 Build 0)  -->
<svg version="1.1" baseProfile="tiny" id="Layer_1" xmlns="http://www.w3.org/2000/svg" xmlns:xlink="http://www.w3.org/1999/xlink"
	 x="0px" y="0px" viewBox="0 0 170 244" xml:space="preserve">
<metadata><?xpacket begin="﻿" id="W5M0MpCehiHzreSzNTczkc9d"?>
<x:xmpmeta xmlns:x="adobe:ns:meta/" x:xmptk="Adobe XMP Core 5.6-c111 79.158366, 2015/09/25-01:12:00        ">
   <rdf:RDF xmlns:rdf="http://www.w3.org/1999/02/22-rdf-syntax-ns#">
      <rdf:Description rdf:about=""/>
   </rdf:RDF>
</x:xmpmeta>
                                                                                                    
                                                                                                    
                                                                                                    
                                                                                                    
                                                                                                    
                                                                                                    
                                                                                                    
                                                                                                    
                                                                                                    
                                                                                                    
                                                                                                    
                                                                                                    
                                                                                                    
                                                                                                    
                                                                                                    
                                                                                                    
                                                                                                    
                                                                                                    
                                                                                                    
                                                                                                    
                           
<?xpacket end="w"?></metadata>
<g id="Layer_28">
	<path fill="#FFFFFF" d="M17,0h136c9.4,0,17,7.6,17,17.1v209.8c0,9.4-7.6,17.1-17,17.1H17c-9.4,0-17-7.6-17-17.1V17.1
		C0,7.6,7.6,0,17,0z"/>
	<g>
		<path fill="#1F1A17" d="M38.4,12.6L38.4,12.6c6.4,0,11.6,5.2,11.6,11.6V56c0,6.4-5.2,11.6-11.6,11.6l0,0
			c-6.4,0-11.6-5.2-11.6-11.6V24.2C26.9,17.8,32.1,12.6,38.4,12.6L38.4,12.6z M38.4,18.6c-3.9,0-7.2,3.3-7.2,7.2v28.9
			c0,4,3.2,7.2,7.2,7.2l0,0c4,0,7.2-3.3,7.2-7.2V25.8C45.6,21.9,42.4,18.6,38.4,18.6L38.4,18.6z"/>
		<rect x="15.2" y="12.6" fill="#1F1A17" width="4.5" height="55"/>
	</g>
	<path fill="#171717" d="M117.2,229.1c0,0-5.3-6.1-9-15c-3.7-8.8-5.1-15.3-5.1-15.3s13.8,6.1,22.6,6.1s28.3-5.3,28.7-26.5
		s-20.9-37.2-34.3-52.5c-13.5-15.3-21.3-28.4-21.3-28.4s-7.8,13.1-21.3,28.4s-34.7,31.4-34.3,52.5c0.4,21.2,19.9,26.5,28.7,26.5
		s22.6-6.1,22.6-6.1s-1.4,6.5-5.1,15.3s-9,15-9,15H117.2z"/>
	<path fill="#171717" d="M89.2,70.9c0,0-2.2-2.6-3.8-6.4c-1.6-3.7-2.2-6.5-2.2-6.5s5.9,2.6,9.6,2.6s12-2.2,12.2-11.2
		s-8.9-15.8-14.6-22.3s-9-12.1-9-12.1s-3.3,5.6-9,12.1S57.6,40.4,57.8,49.4S66.3,60.6,70,60.6s9.6-2.6,9.6-2.6s-0.6,2.7-2.2,6.5
		c-1.6,3.7-3.8,6.4-3.8,6.4H89.2z"/>
</g>
</svg>
