<?xml version="1.0" encoding="utf-8"?>
<!-- Generator: Adobe Illustrator 19.2.0, SVG Export Plug-In . SVG Version: 6.00 Build 0)  -->
<svg version="1.1" baseProfile="tiny" id="Layer_1" xmlns="http://www.w3.org/2000/svg" xmlns:xlink="http://www.w3.org/1999/xlink"
	 x="0px" y="0px" viewBox="0 0 170 244" xml:space="preserve">
<metadata><?xpacket begin="﻿" id="W5M0MpCehiHzreSzNTczkc9d"?>
<x:xmpmeta xmlns:x="adobe:ns:meta/" x:xmptk="Adobe XMP Core 5.6-c111 79.158366, 2015/09/25-01:12:00        ">
   <rdf:RDF xmlns:rdf="http://www.w3.org/1999/02/22-rdf-syntax-ns#">
      <rdf:Description rdf:about=""/>
   </rdf:RDF>
</x:xmpmeta>
                                                                                                    
                                                                                                    
                                                                                                    
                                                                                                    
                                                                                                    
                                                                                                    
                                                                                                    
                                                                                                    
                                                                                                    
                                                                                                    
                                                                                                    
                                                                                                    
                                                                                                    
                                                                                                    
                                                                                                    
                                                                                                    
                                                                                                    
                                                                                                    
                                                                                                    
                                                                                                    
                           
<?xpacket end="w"?></metadata>
<g id="Layer_60">
	<path fill="#FFFFFF" d="M17,0h136c9.4,0,17,7.6,17,17.1v209.7c0,9.4-7.6,17.1-17,17.1H17c-9.4,0-17-7.6-17-17.1V17.1
		C0,7.6,7.6,0,17,0z"/>
	<path fill="#1F1A17" d="M27,12.6L27,12.6c-6.4,0-11.7,5.3-11.7,11.7l0,0H20c0.7-3.2,3.6-5.7,7.1-5.7l0,0c4,0,7.2,3.3,7.2,7.3
		c0,2.1-0.6,3.1-1.5,4.9L15.4,67.2h1.9h0.5l16.3,0.1h4.5l0,0v-5.6l0,0v-6.5h-4.5v6.5H23.9l0,0l-0.7,0.1l13.7-28.1
		c1.8-3.7,2.2-6.1,1.9-9.5c-0.1-1.2-0.3-2.4-0.6-3.4v-0.2l0,0C36.6,16,32.2,12.6,27,12.6z"/>
	<path fill="#171717" d="M117.4,228.8c0,0-5.3-6.1-9-14.9c-3.7-8.8-5.1-15.3-5.1-15.3s13.8,6.1,22.6,6.1s28.3-5.3,28.7-26.4
		c0.4-21.1-20.9-37.2-34.3-52.5C106.8,110.5,99,97.4,99,97.4s-7.8,13.1-21.3,28.4C64.4,141,43.1,157,43.5,178.2s19.9,26.4,28.7,26.4
		s22.6-6.1,22.6-6.1s-1.4,6.5-5.1,15.3s-9,14.9-9,14.9h36.7V228.8z"/>
	<path fill="#171717" d="M83.3,66.8c0,0-2.2-2.6-3.8-6.4c-1.6-3.7-2.2-6.5-2.2-6.5s5.9,2.6,9.6,2.6s12-2.2,12.2-11.2
		S90.2,29.5,84.5,23s-9-12.1-9-12.1s-3.3,5.6-9,12.1S51.7,36.3,51.9,45.3s8.5,11.2,12.2,11.2s9.6-2.6,9.6-2.6s-0.6,2.7-2.2,6.5
		c-1.6,3.7-3.8,6.4-3.8,6.4H83.3z"/>
</g>
</svg>
