<?xml version="1.0" encoding="utf-8"?>
<!-- Generator: Adobe Illustrator 19.2.0, SVG Export Plug-In . SVG Version: 6.00 Build 0)  -->
<svg version="1.1" baseProfile="tiny" id="Layer_1" xmlns="http://www.w3.org/2000/svg" xmlns:xlink="http://www.w3.org/1999/xlink"
	 x="0px" y="0px" viewBox="0 0 170 244" xml:space="preserve">
<metadata><?xpacket begin="﻿" id="W5M0MpCehiHzreSzNTczkc9d"?>
<x:xmpmeta xmlns:x="adobe:ns:meta/" x:xmptk="Adobe XMP Core 5.6-c111 79.158366, 2015/09/25-01:12:00        ">
   <rdf:RDF xmlns:rdf="http://www.w3.org/1999/02/22-rdf-syntax-ns#">
      <rdf:Description rdf:about=""/>
   </rdf:RDF>
</x:xmpmeta>
                                                                                                    
                                                                                                    
                                                                                                    
                                                                                                    
                                                                                                    
                                                                                                    
                                                                                                    
                                                                                                    
                                                                                                    
                                                                                                    
                                                                                                    
                                                                                                    
                                                                                                    
                                                                                                    
                                                                                                    
                                                                                                    
                                                                                                    
                                                                                                    
                                                                                                    
                                                                                                    
                           
<?xpacket end="w"?></metadata>
<g id="Layer_54">
	<path fill="#FFFFFF" d="M17,0h136c9.4,0,17,7.6,17,17.1v209.6c0,9.4-7.6,17.1-17,17.1H17c-9.4,0-17-7.6-17-17.1V17.1
		C0,7.6,7.6,0,17,0z"/>
	<path fill="#C80813" d="M34.7,38.9c3.3,2.3,5.4,6.1,5.4,10.4V55c0,7-5.7,12.6-12.6,12.6l0,0c-6.9,0-12.6-5.7-12.6-12.6v-1.1h4.8
		c0.1,4.2,3.6,7.7,7.8,7.7l0,0c4.3,0,7.8-3.5,7.8-7.9V51c0-4.3-3.5-7.9-7.8-7.9l0,0c-0.2,0-0.5,0-0.7,0v-7.5c0.2,0,0.4,0,0.7,0l0,0
		c4,0,7.3-3.3,7.3-7.3V26c0-4-3.3-7.3-7.3-7.3l0,0c-4,0-7.3,3.3-7.3,7.3l0,0h-4.4v-1.6c0-6.5,5.3-11.8,11.7-11.8l0,0
		c6.4,0,11.7,5.3,11.7,11.8v5.3C39.2,33.4,37.4,36.7,34.7,38.9z"/>
	<path fill="#C80813" d="M96.9,234.6c0,0,7.7-19.5,26.3-40.3s33.4-31.8,33.4-31.8s-19.4-11.9-33-30.1
		c-13.5-18.2-26.2-41.6-26.2-41.6s-11.3,22.4-27.2,41.4c-14.6,17.4-32,30.3-32,30.3s14.8,11,33.4,31.8
		C90.2,215.1,96.9,234.6,96.9,234.6z"/>
	<path fill="#C80813" d="M74.1,66.7c0,0,3.1-7.8,10.5-16.1C92.1,42.4,98,38,98,38s-7.8-4.7-13.2-12C79.4,18.7,74.4,9.3,74.4,9.3
		s-4.5,8.9-10.9,16.5C57.7,32.8,50.7,38,50.7,38s5.9,4.4,13.3,12.7C71.5,58.9,74.1,66.7,74.1,66.7z"/>
</g>
</svg>
