<?xml version="1.0" encoding="utf-8"?>
<!-- Generator: Adobe Illustrator 19.2.0, SVG Export Plug-In . SVG Version: 6.00 Build 0)  -->
<svg version="1.1" baseProfile="tiny" id="Layer_1" xmlns="http://www.w3.org/2000/svg" xmlns:xlink="http://www.w3.org/1999/xlink"
	 x="0px" y="0px" viewBox="0 0 170 244" xml:space="preserve">
<metadata><?xpacket begin="﻿" id="W5M0MpCehiHzreSzNTczkc9d"?>
<x:xmpmeta xmlns:x="adobe:ns:meta/" x:xmptk="Adobe XMP Core 5.6-c111 79.158366, 2015/09/25-01:12:00        ">
   <rdf:RDF xmlns:rdf="http://www.w3.org/1999/02/22-rdf-syntax-ns#">
      <rdf:Description rdf:about=""/>
   </rdf:RDF>
</x:xmpmeta>
                                                                                                    
                                                                                                    
                                                                                                    
                                                                                                    
                                                                                                    
                                                                                                    
                                                                                                    
                                                                                                    
                                                                                                    
                                                                                                    
                                                                                                    
                                                                                                    
                                                                                                    
                                                                                                    
                                                                                                    
                                                                                                    
                                                                                                    
                                                                                                    
                                                                                                    
                                                                                                    
                           
<?xpacket end="w"?></metadata>
<g id="Layer_55">
	<path fill="#FFFFFF" d="M17,0h136c9.4,0,17,7.6,17,17.1v209.8c0,9.4-7.6,17.1-17,17.1H17c-9.4,0-17-7.6-17-17.1V17.1
		C0,7.6,7.6,0,17,0z"/>
	<path fill="#C80813" d="M93.8,229.1c0,0,14.1-28.9,29.8-49s27.9-31,28-48.7c0.1-10.9-8.8-26.1-26.7-26.6c-24.1-0.7-31.1,22-31.1,22
		s-7-22.7-31.1-22c-17.9,0.5-26.8,15.7-26.7,26.6c0.2,17.7,12.3,28.6,28,48.7C79.7,200.2,93.8,229.1,93.8,229.1z"/>
	<path fill="#C80813" d="M74.9,66.8c0,0,5.9-12.2,12.5-20.6c6.6-8.5,11.7-13,11.8-20.5c0-4.6-3.7-11-11.2-11.2
		c-10.1-0.3-13.1,9.2-13.1,9.2s-3-9.5-13.1-9.2c-7.5,0.2-11.3,6.6-11.2,11.2c0.1,7.4,5.2,12,11.8,20.5C69,54.7,74.9,66.8,74.9,66.8z
		"/>
	<path fill="#C80813" d="M34.8,39c3.3,2.3,5.4,6.1,5.4,10.4v5.7c0,7-5.7,12.7-12.6,12.7l0,0C20.7,67.7,15,62,15,55.1V54h4.8
		c0.1,4.2,3.6,7.7,7.8,7.7l0,0c4.3,0,7.8-3.5,7.8-7.9v-2.6c0-4.3-3.5-7.9-7.8-7.9l0,0c-0.2,0-0.5,0-0.7,0v-7.5c0.2,0,0.4,0,0.7,0
		l0,0c4,0,7.3-3.3,7.3-7.3V26c0-4-3.3-7.3-7.3-7.3l0,0c-4,0-7.3,3.3-7.3,7.3l0,0h-4.4v-1.6c0-6.5,5.3-11.8,11.7-11.8l0,0
		c6.4,0,11.7,5.3,11.7,11.8v5.3C39.4,33.4,37.6,36.8,34.8,39z"/>
</g>
</svg>
