<?xml version="1.0" encoding="utf-8"?>
<!-- Generator: Adobe Illustrator 19.2.0, SVG Export Plug-In . SVG Version: 6.00 Build 0)  -->
<svg version="1.1" baseProfile="tiny" id="Layer_1" xmlns="http://www.w3.org/2000/svg" xmlns:xlink="http://www.w3.org/1999/xlink"
	 x="0px" y="0px" viewBox="0 0 170 244" xml:space="preserve">
<metadata><?xpacket begin="﻿" id="W5M0MpCehiHzreSzNTczkc9d"?>
<x:xmpmeta xmlns:x="adobe:ns:meta/" x:xmptk="Adobe XMP Core 5.6-c111 79.158366, 2015/09/25-01:12:00        ">
   <rdf:RDF xmlns:rdf="http://www.w3.org/1999/02/22-rdf-syntax-ns#">
      <rdf:Description rdf:about=""/>
   </rdf:RDF>
</x:xmpmeta>
                                                                                                    
                                                                                                    
                                                                                                    
                                                                                                    
                                                                                                    
                                                                                                    
                                                                                                    
                                                                                                    
                                                                                                    
                                                                                                    
                                                                                                    
                                                                                                    
                                                                                                    
                                                                                                    
                                                                                                    
                                                                                                    
                                                                                                    
                                                                                                    
                                                                                                    
                                                                                                    
                           
<?xpacket end="w"?></metadata>
<g id="Layer_36">
	<path fill="#FFFFFF" d="M17,0h136c9.4,0,17,7.6,17,17.1v209.8c0,9.4-7.6,17.1-17,17.1H17c-9.4,0-17-7.6-17-17.1V17.1
		C0,7.6,7.6,0,17,0z"/>
	<path fill="#171717" d="M117.2,228.8c0,0-5.3-6.1-9-15c-3.7-8.8-5.1-15.3-5.1-15.3s13.8,6.1,22.6,6.1s28.3-5.3,28.7-26.5
		s-20.9-37.2-34.3-52.5c-13.5-15.3-21.3-28.4-21.3-28.4s-7.8,13.1-21.3,28.4S42.8,157,43.2,178.1c0.4,21.2,19.9,26.5,28.7,26.5
		s22.6-6.1,22.6-6.1s-1.4,6.5-5.1,15.3s-9,15-9,15H117.2z"/>
	<path fill="#171717" d="M83.3,66.8c0,0-2.2-2.6-3.8-6.4c-1.6-3.7-2.2-6.5-2.2-6.5s5.9,2.6,9.6,2.6s12-2.2,12.2-11.2
		S90.2,29.5,84.5,23s-9-12.1-9-12.1s-3.3,5.6-9,12.1S51.7,36.3,51.9,45.3s8.5,11.2,12.2,11.2s9.6-2.6,9.6-2.6s-0.6,2.7-2.2,6.5
		c-1.6,3.7-3.8,6.4-3.8,6.4H83.3z"/>
	<path fill="#1F1A17" d="M35.3,38.9c3.3,2.3,5.6,6.1,5.6,10.4V55c0,7-5.8,12.7-12.9,12.7l0,0c-7.2,0-13-5.7-13-12.7v-5.7
		c0-4.3,2.2-8.1,5.6-10.4c-2.8-2.2-4.7-5.5-4.7-9.3v-5.3c0-6.5,5.4-11.8,12-11.8l0,0c6.6,0,12,5.3,12,11.8v5.3
		C39.9,33.4,38.1,36.8,35.3,38.9L35.3,38.9z M27.9,18.7c-4.1,0-7.5,3.3-7.5,7.3v2.5c0,4,3.4,7.3,7.5,7.3l0,0c4.1,0,7.5-3.3,7.5-7.3
		V26C35.4,22,32,18.7,27.9,18.7L27.9,18.7L27.9,18.7z M27.9,43.2c-4.4,0-8,3.5-8,7.9v2.6c0,4.3,3.6,7.9,8,7.9l0,0c4.4,0,8-3.6,8-7.9
		v-2.6C36,46.7,32.3,43.2,27.9,43.2L27.9,43.2z"/>
</g>
</svg>
