<?xml version="1.0" encoding="utf-8"?>
<!-- Generator: Adobe Illustrator 19.2.0, SVG Export Plug-In . SVG Version: 6.00 Build 0)  -->
<svg version="1.1" baseProfile="tiny" id="Layer_1" xmlns="http://www.w3.org/2000/svg" xmlns:xlink="http://www.w3.org/1999/xlink"
	 x="0px" y="0px" viewBox="0 0 170 244" xml:space="preserve">
<metadata><?xpacket begin="﻿" id="W5M0MpCehiHzreSzNTczkc9d"?>
<x:xmpmeta xmlns:x="adobe:ns:meta/" x:xmptk="Adobe XMP Core 5.6-c111 79.158366, 2015/09/25-01:12:00        ">
   <rdf:RDF xmlns:rdf="http://www.w3.org/1999/02/22-rdf-syntax-ns#">
      <rdf:Description rdf:about=""/>
   </rdf:RDF>
</x:xmpmeta>
                                                                                                    
                                                                                                    
                                                                                                    
                                                                                                    
                                                                                                    
                                                                                                    
                                                                                                    
                                                                                                    
                                                                                                    
                                                                                                    
                                                                                                    
                                                                                                    
                                                                                                    
                                                                                                    
                                                                                                    
                                                                                                    
                                                                                                    
                                                                                                    
                                                                                                    
                                                                                                    
                           
<?xpacket end="w"?></metadata>
<g id="Layer_31">
	<path fill="#FFFFFF" d="M17,0h136c9.4,0,17,7.6,17,17.1v209.8c0,9.4-7.6,17.1-17,17.1H17c-9.4,0-17-7.6-17-17.1V17.1
		C0,7.6,7.6,0,17,0z"/>
	<path fill="#C80813" d="M27.2,12.6L27.2,12.6c6.4,0,11.6,5.3,11.6,11.7v7.2c0,0.2,0,0.5,0,0.7l0,0v20.5v1.7V56
		c0,6.4-5.2,11.7-11.6,11.7l0,0c-6.4,0-11.6-5.3-11.6-11.7v-3.3H20v2.1c0,4,3.3,7.3,7.2,7.3l0,0c4,0,7.2-3.3,7.2-7.3v-0.4h-0.1V40.7
		c-2,1.5-4.4,2.4-7.1,2.4l0,0c-6.4,0-11.6-5.3-11.6-11.7v-7.2C15.6,17.8,20.8,12.6,27.2,12.6L27.2,12.6z M27.2,18.6
		c-4,0-7.2,3.3-7.2,7.3v4.4c0,4,3.3,7.3,7.2,7.3l0,0c4,0,7.2-3.3,7.2-7.3v-4.4C34.4,21.9,31.2,18.6,27.2,18.6L27.2,18.6z"/>
	<path fill="#C80813" d="M93.6,228.9c0,0,14.1-28.9,29.8-49s27.9-31,28-48.7c0.1-10.9-8.8-26.1-26.7-26.6c-24.1-0.7-31.1,22-31.1,22
		s-7-22.7-31.1-22c-17.9,0.5-26.8,15.7-26.7,26.6c0.2,17.7,12.3,28.6,28,48.7S93.6,228.9,93.6,228.9z"/>
	<path fill="#C80813" d="M74.9,66.8c0,0,5.9-12.2,12.5-20.6c6.6-8.5,11.7-13,11.8-20.5c0-4.6-3.7-11-11.2-11.2
		c-10.1-0.3-13.1,9.2-13.1,9.2s-3-9.5-13.1-9.2c-7.5,0.2-11.3,6.6-11.2,11.2c0.1,7.4,5.2,12,11.8,20.5C69,54.7,74.9,66.8,74.9,66.8z
		"/>
</g>
</svg>
