<?xml version="1.0" encoding="utf-8"?>
<!-- Generator: Adobe Illustrator 19.2.0, SVG Export Plug-In . SVG Version: 6.00 Build 0)  -->
<svg version="1.1" baseProfile="tiny" id="Layer_1" xmlns="http://www.w3.org/2000/svg" xmlns:xlink="http://www.w3.org/1999/xlink"
	 x="0px" y="0px" viewBox="0 0 170 244" xml:space="preserve">
<metadata><?xpacket begin="﻿" id="W5M0MpCehiHzreSzNTczkc9d"?>
<x:xmpmeta xmlns:x="adobe:ns:meta/" x:xmptk="Adobe XMP Core 5.6-c111 79.158366, 2015/09/25-01:12:00        ">
   <rdf:RDF xmlns:rdf="http://www.w3.org/1999/02/22-rdf-syntax-ns#">
      <rdf:Description rdf:about=""/>
   </rdf:RDF>
</x:xmpmeta>
                                                                                                    
                                                                                                    
                                                                                                    
                                                                                                    
                                                                                                    
                                                                                                    
                                                                                                    
                                                                                                    
                                                                                                    
                                                                                                    
                                                                                                    
                                                                                                    
                                                                                                    
                                                                                                    
                                                                                                    
                                                                                                    
                                                                                                    
                                                                                                    
                                                                                                    
                                                                                                    
                           
<?xpacket end="w"?></metadata>
<g id="Layer_23">
	<path fill="#FFFFFF" d="M17,0h136c9.4,0,17,7.6,17,17.1v209.8c0,9.4-7.6,17.1-17,17.1H17c-9.4,0-17-7.6-17-17.1V17.1
		C0,7.6,7.6,0,17,0z"/>
	<path fill="#C80813" d="M93.6,229.3c0,0,14.1-28.9,29.8-49s27.9-31,28-48.7c0.1-10.9-8.8-26.1-26.7-26.6c-24.1-0.7-31.1,22-31.1,22
		s-7-22.7-31.1-22c-17.9,0.5-26.8,15.7-26.7,26.6c0.2,17.7,12.3,28.6,28,48.7S93.6,229.3,93.6,229.3z"/>
	<path fill="#C80813" d="M74.9,67.3c0,0,5.9-12.2,12.5-20.6c6.6-8.5,11.7-13,11.8-20.5c0-4.6-3.7-11-11.2-11.2
		c-10.1-0.3-13.1,9.2-13.1,9.2s-3-9.5-13.1-9.2c-7.5,0.2-11.3,6.6-11.2,11.2c0.1,7.4,5.2,12,11.8,20.5C69,55.2,74.9,67.3,74.9,67.3z
		"/>
	<path fill="#C80813" d="M38.1,22.2h6.1v-5.4H26.4v5.4h6.4v35.5l0,0c-0.2,4.2-3.6,7.5-7.8,7.5s-7.6-3.3-7.8-7.5v-8.5h-5.4V58h0.1
		c0.3,7,6.1,12.6,13.2,12.6c7.2,0,13-5.7,13.2-12.9l0,0V22.2H38.1z"/>
</g>
</svg>
