<?xml version="1.0" encoding="utf-8"?>
<!-- Generator: Adobe Illustrator 19.2.0, SVG Export Plug-In . SVG Version: 6.00 Build 0)  -->
<svg version="1.1" baseProfile="tiny" id="Layer_1" xmlns="http://www.w3.org/2000/svg" xmlns:xlink="http://www.w3.org/1999/xlink"
	 x="0px" y="0px" viewBox="0 0 170 244" xml:space="preserve">
<metadata><?xpacket begin="﻿" id="W5M0MpCehiHzreSzNTczkc9d"?>
<x:xmpmeta xmlns:x="adobe:ns:meta/" x:xmptk="Adobe XMP Core 5.6-c111 79.158366, 2015/09/25-01:12:00        ">
   <rdf:RDF xmlns:rdf="http://www.w3.org/1999/02/22-rdf-syntax-ns#">
      <rdf:Description rdf:about=""/>
   </rdf:RDF>
</x:xmpmeta>
                                                                                                    
                                                                                                    
                                                                                                    
                                                                                                    
                                                                                                    
                                                                                                    
                                                                                                    
                                                                                                    
                                                                                                    
                                                                                                    
                                                                                                    
                                                                                                    
                                                                                                    
                                                                                                    
                                                                                                    
                                                                                                    
                                                                                                    
                                                                                                    
                                                                                                    
                                                                                                    
                           
<?xpacket end="w"?></metadata>
<g id="Layer_1_1_">
	<path fill="#FFFFFF" d="M17.1,0.1H153c9.4,0,17,7.6,17,17.1v209.7c0,9.4-7.6,17.1-17,17.1H17.1c-9.4,0-17-7.6-17-17.1V17.2
		C0.1,7.8,7.7,0.1,17.1,0.1z"/>
	<path fill="#171717" d="M115.9,229.6c0,0-5.8-8.1-9.1-17.6c-3.2-9.5-4.4-22.3-4.4-22.3s9.2,14.4,25.2,14.2
		c15.9-0.2,27.4-13.8,27.4-27.5c0-13.8-12.1-27.1-24.6-27.7c-12.5-0.6-16.1,2.2-16.1,2.2s9.9-8.5,9.7-24.7
		c-0.4-25.5-26.4-26.3-26.4-26.3s-26,0.8-26.4,26.3c-0.3,16.2,9.7,24.7,9.7,24.7s-3.6-2.8-16.1-2.2s-24.6,14-24.6,27.7
		c0,13.8,11.5,27.3,27.4,27.5s25.2-14.2,25.2-14.2s-1.2,12.8-4.4,22.3c-3.2,9.5-9.1,17.6-9.1,17.6H115.9z"/>
	<path fill="#171717" d="M81.6,69.4c0,0-2.5-3.4-3.9-7.5c-1.4-4-1.9-9.5-1.9-9.5s3.9,6.1,10.7,6c6.8-0.1,11.6-5.8,11.6-11.7
		c0-5.8-5.1-11.5-10.4-11.8s-6.8,0.9-6.8,0.9s4.2-3.6,4.1-10.5c-0.2-10.8-11.2-11.2-11.2-11.2s-11,0.3-11.2,11.2
		c-0.1,6.9,4.1,10.5,4.1,10.5s-1.5-1.2-6.8-0.9s-10.4,5.9-10.4,11.8c0,5.8,4.9,11.6,11.6,11.7c6.8,0.1,10.7-6,10.7-6
		s-0.5,5.4-1.9,9.5c-1.4,4-3.9,7.5-3.9,7.5H81.6z"/>
	<polygon fill="#171717" points="45.1,63.2 36.2,36.8 45.6,21.5 50.6,21.5 50.6,16.1 34.4,16.1 34.4,21.5 39.4,21.5 23.8,46.6 
		23.8,21.2 28.5,21.2 28.5,15.9 12.3,15.9 12.3,21.2 18.5,21.2 18.5,63.2 12.3,63.2 12.3,68.6 28.5,68.6 28.5,63.2 23.8,63.2 
		23.8,56.7 32.5,42.7 39.5,63.2 34.6,63.2 34.6,68.6 50.9,68.6 50.9,63.2 	"/>
</g>
</svg>
