<?xml version="1.0" encoding="utf-8"?>
<!-- Generator: Adobe Illustrator 19.2.0, SVG Export Plug-In . SVG Version: 6.00 Build 0)  -->
<svg version="1.1" baseProfile="tiny" id="Layer_1" xmlns="http://www.w3.org/2000/svg" xmlns:xlink="http://www.w3.org/1999/xlink"
	 x="0px" y="0px" viewBox="0 0 170 244" xml:space="preserve">
<metadata><?xpacket begin="﻿" id="W5M0MpCehiHzreSzNTczkc9d"?>
<x:xmpmeta xmlns:x="adobe:ns:meta/" x:xmptk="Adobe XMP Core 5.6-c111 79.158366, 2015/09/25-01:12:00        ">
   <rdf:RDF xmlns:rdf="http://www.w3.org/1999/02/22-rdf-syntax-ns#">
      <rdf:Description rdf:about=""/>
   </rdf:RDF>
</x:xmpmeta>                     
<?xpacket end="w"?></metadata>
<g id="Layer_2">
	<path fill="#FFFFFF" d="M17,0h136c9.4,0,17,7.6,17,17.1v209.8c0,9.4-7.6,17.1-17,17.1H17c-9.4,0-17-7.6-17-17.1V17.1
		C0,7.6,7.6,0,17,0z"/>
	<path fill="#C80813" d="M96.7,235.5c0,0,7.7-19.6,26.3-40.4s33.4-31.8,33.4-31.8s-19.4-11.9-33-30.1
		c-13.5-18.3-26.2-41.6-26.2-41.6S85.9,113.9,70,132.9c-14.6,17.4-32,30.3-32,30.3s14.8,11,33.4,31.8
		C90,215.9,96.7,235.5,96.7,235.5z"/>
	<path fill="#C80813" d="M74.1,71.6c0,0,3.1-7.8,10.5-16.1C92.1,47.2,98,42.8,98,42.8s-7.8-4.7-13.2-12
		c-5.4-7.3-10.5-16.6-10.5-16.6s-4.5,9-10.9,16.5c-5.8,7-12.8,12.1-12.8,12.1s5.9,4.4,13.3,12.7C71.5,63.8,74.1,71.6,74.1,71.6z"/>
	<polygon fill="#C80813" points="43.5,63.2 34.5,36.7 44,21.4 49,21.4 49,16 32.7,16 32.7,21.4 37.8,21.4 22.2,46.5 22.2,21.1 
		26.9,21.1 26.9,15.8 10.6,15.8 10.6,21.1 16.9,21.1 16.9,63.2 10.6,63.2 10.6,68.5 26.9,68.5 26.9,63.2 22.2,63.2 22.2,56.6 
		30.9,42.6 37.9,63.2 33,63.2 33,68.5 49.3,68.5 49.3,63.2 	"/>
</g>
</svg>