<?xml version="1.0" encoding="utf-8"?>
<!-- Generator: Adobe Illustrator 19.2.0, SVG Export Plug-In . SVG Version: 6.00 Build 0)  -->
<svg version="1.1" baseProfile="tiny" id="Layer_1" xmlns="http://www.w3.org/2000/svg" xmlns:xlink="http://www.w3.org/1999/xlink"
	 x="0px" y="0px" viewBox="0 0 170 244" xml:space="preserve">
<metadata><?xpacket begin="﻿" id="W5M0MpCehiHzreSzNTczkc9d"?>
<x:xmpmeta xmlns:x="adobe:ns:meta/" x:xmptk="Adobe XMP Core 5.6-c111 79.158366, 2015/09/25-01:12:00        ">
   <rdf:RDF xmlns:rdf="http://www.w3.org/1999/02/22-rdf-syntax-ns#">
      <rdf:Description rdf:about=""/>
   </rdf:RDF>
</x:xmpmeta>
                                                                                                    
                                                                                                    
                                                                                                    
                                                                                                    
                                                                                                    
                                                                                                    
                                                                                                    
                                                                                                    
                                                                                                    
                                                                                                    
                                                                                                    
                                                                                                    
                                                                                                    
                                                                                                    
                                                                                                    
                                                                                                    
                                                                                                    
                                                                                                    
                                                                                                    
                                                                                                    
                           
<?xpacket end="w"?></metadata>
<g id="Layer_3">
	<path fill="#FFFFFF" d="M17.1,0H153c9.4,0,17,7.6,17,17.1v209.8c0,9.4-7.6,17.1-17,17.1H17.1c-9.4,0-17-7.6-17-17.1V17.1
		C0.1,7.6,7.7,0,17.1,0z"/>
	<path fill="#C80813" d="M93.7,229.6c0,0,14.1-28.9,29.8-49s27.8-31,28-48.7c0.1-10.9-8.8-26.1-26.7-26.6c-24.1-0.7-31.1,22-31.1,22
		s-7-22.7-31.1-22c-17.9,0.5-26.8,15.7-26.7,26.6c0.2,17.7,12.3,28.6,28,48.7S93.7,229.6,93.7,229.6z"/>
	<path fill="#C80813" d="M75,66.5c0,0,5.9-12.2,12.5-20.6c6.6-8.5,11.7-13,11.8-20.5c0-4.6-3.7-11-11.2-11.2
		C77.9,13.9,75,23.4,75,23.4s-3-9.5-13.1-9.2c-7.5,0.2-11.3,6.6-11.2,11.2c0.1,7.4,5.2,12,11.8,20.5C69,54.3,75,66.5,75,66.5z"/>
	<polygon fill="#C80813" points="44.3,63.1 35.4,36.7 44.8,21.4 49.8,21.4 49.8,16 33.6,16 33.6,21.4 38.6,21.4 23,46.5 23,21.1 
		27.7,21.1 27.7,15.8 11.5,15.8 11.5,21.1 17.7,21.1 17.7,63.1 11.5,63.1 11.5,68.5 27.7,68.5 27.7,63.1 23,63.1 23,56.6 31.7,42.6 
		38.7,63.1 33.8,63.1 33.8,68.5 50.1,68.5 50.1,63.1 	"/>
</g>
</svg>
