<?xml version="1.0" encoding="utf-8"?>
<!-- Generator: Adobe Illustrator 19.2.0, SVG Export Plug-In . SVG Version: 6.00 Build 0)  -->
<svg version="1.1" baseProfile="tiny" id="Layer_1" xmlns="http://www.w3.org/2000/svg" xmlns:xlink="http://www.w3.org/1999/xlink"
	 x="0px" y="0px" viewBox="0 0 170 244" xml:space="preserve">
<metadata><?xpacket begin="﻿" id="W5M0MpCehiHzreSzNTczkc9d"?>
<x:xmpmeta xmlns:x="adobe:ns:meta/" x:xmptk="Adobe XMP Core 5.6-c111 79.158366, 2015/09/25-01:12:00        ">
   <rdf:RDF xmlns:rdf="http://www.w3.org/1999/02/22-rdf-syntax-ns#">
      <rdf:Description rdf:about=""/>
   </rdf:RDF>
</x:xmpmeta>
                                                                                                    
                                                                                                    
                                                                                                    
                                                                                                    
                                                                                                    
                                                                                                    
                                                                                                    
                                                                                                    
                                                                                                    
                                                                                                    
                                                                                                    
                                                                                                    
                                                                                                    
                                                                                                    
                                                                                                    
                                                                                                    
                                                                                                    
                                                                                                    
                                                                                                    
                                                                                                    
                           
<?xpacket end="w"?></metadata>
<g id="Layer_4">
	<path fill="#FFFFFF" d="M17.1,0H153c9.4,0,17,7.6,17,17.1v209.8c0,9.4-7.6,17.1-17,17.1H17.1c-9.4,0-17-7.6-17-17.1V17.1
		C0.1,7.6,7.7,0,17.1,0z"/>
	<path fill="#171717" d="M117.3,229.6c0,0-5.3-6.1-9-15c-3.7-8.8-5.1-15.3-5.1-15.3s13.8,6.1,22.6,6.1s28.3-5.3,28.7-26.5
		s-20.9-37.2-34.3-52.5C106.7,111.2,98.9,98,98.9,98s-7.8,13.1-21.2,28.4c-13.5,15.3-34.7,31.3-34.3,52.5s19.9,26.5,28.7,26.5
		s22.6-6.1,22.6-6.1s-1.4,6.5-5.1,15.3s-9,15-9,15L117.3,229.6L117.3,229.6z"/>
	<polygon fill="#171717" points="44.6,63.1 35.6,36.7 45.1,21.4 50.1,21.4 50.1,16 33.8,16 33.8,21.4 38.8,21.4 23.3,46.5 
		23.3,21.1 28,21.1 28,15.8 11.7,15.8 11.7,21.1 18,21.1 18,63.1 11.7,63.1 11.7,68.5 28,68.5 28,63.1 23.3,63.1 23.3,56.6 32,42.6 
		38.9,63.1 34.1,63.1 34.1,68.5 50.4,68.5 50.4,63.1 	"/>
	<path fill="#171717" d="M83.3,66.8c0,0-2.2-2.6-3.8-6.4c-1.6-3.7-2.2-6.5-2.2-6.5s5.9,2.6,9.6,2.6s12-2.2,12.2-11.2
		S90.2,29.5,84.5,23s-9-12.1-9-12.1s-3.3,5.6-9,12.1S51.8,36.3,51.9,45.3c0.2,9,8.5,11.2,12.2,11.2s9.6-2.6,9.6-2.6
		s-0.6,2.7-2.2,6.5c-1.6,3.7-3.8,6.4-3.8,6.4H83.3z"/>
</g>
</svg>
