<?xml version="1.0" encoding="utf-8"?>
<!-- Generator: Adobe Illustrator 19.2.0, SVG Export Plug-In . SVG Version: 6.00 Build 0)  -->
<svg version="1.1" baseProfile="tiny" id="Layer_1" xmlns="http://www.w3.org/2000/svg" xmlns:xlink="http://www.w3.org/1999/xlink"
	 x="0px" y="0px" viewBox="0 0 170 244" xml:space="preserve">
<metadata><?xpacket begin="﻿" id="W5M0MpCehiHzreSzNTczkc9d"?>
<x:xmpmeta xmlns:x="adobe:ns:meta/" x:xmptk="Adobe XMP Core 5.6-c111 79.158366, 2015/09/25-01:12:00        ">
   <rdf:RDF xmlns:rdf="http://www.w3.org/1999/02/22-rdf-syntax-ns#">
      <rdf:Description rdf:about=""/>
   </rdf:RDF>
</x:xmpmeta>
                                                                                                    
                                                                                                    
                                                                                                    
                                                                                                    
                                                                                                    
                                                                                                    
                                                                                                    
                                                                                                    
                                                                                                    
                                                                                                    
                                                                                                    
                                                                                                    
                                                                                                    
                                                                                                    
                                                                                                    
                                                                                                    
                                                                                                    
                                                                                                    
                                                                                                    
                                                                                                    
                           
<?xpacket end="w"?></metadata>
<g id="Layer_13">
	<path fill="#FFFFFF" d="M17,0h136c9.4,0,17,7.6,17,17.1v209.8c0,9.4-7.6,17.1-17,17.1H17c-9.4,0-17-7.6-17-17.1V17.1
		C0,7.6,7.6,0,17,0z"/>
	<path fill="#171717" d="M115.8,229.5c0,0-5.8-8.1-9.1-17.6c-3.2-9.5-4.4-22.3-4.4-22.3s9.2,14.4,25.2,14.2
		c15.9-0.2,27.4-13.8,27.4-27.5c0-13.8-12.1-27.1-24.6-27.7c-12.5-0.6-16.1,2.2-16.1,2.2s9.9-8.5,9.7-24.7
		c-0.4-25.5-26.4-26.3-26.4-26.3s-26,0.8-26.4,26.3c-0.3,16.2,9.7,24.7,9.7,24.7s-3.6-2.8-16.1-2.2s-24.6,14-24.6,27.7
		c0,13.8,11.5,27.3,27.4,27.5c16,0.2,25.2-14.2,25.2-14.2s-1.2,12.8-4.4,22.3c-3.2,9.5-9.1,17.6-9.1,17.6H115.8z"/>
	<path fill="#171717" d="M81.6,69.8c0,0-2.5-3.4-3.9-7.5c-1.4-4-1.9-9.5-1.9-9.5s3.9,6.1,10.7,6c6.8-0.1,11.6-5.9,11.6-11.7
		c0-5.9-5.1-11.5-10.4-11.8s-6.9,0.9-6.9,0.9s4.2-3.6,4.1-10.5c-0.1-10.7-11.1-11-11.1-11s-11,0.3-11.2,11.2
		c-0.1,6.9,4.1,10.5,4.1,10.5s-1.5-1.2-6.9-0.9c-5.3,0.3-10.4,5.9-10.4,11.8S54.3,58.9,61,59c6.8,0.1,10.7-6,10.7-6
		s-0.5,5.4-1.9,9.5c-1.4,4-3.9,7.5-3.9,7.5h15.7V69.8z"/>
	<path fill="#171717" d="M43.4,69.5c-1.6,0-2.8-1.2-3.4-1.9c3.3-1.8,5.5-5.3,5.5-9.3V26.5c0-5.9-4.8-10.7-10.8-10.7h-8.3
		c-6,0-10.8,4.8-10.8,10.7v23.4l-4,0.1l0.2,6.8l3.7-0.1v1.6c0,5.9,4.8,10.7,10.8,10.7h6.2c0.5,0.7,1.1,1.4,1.5,2v-0.2
		c1.3,2,4.7,5.5,9.5,5.5h5.1v-6.8H43.4L43.4,69.5z M28,21.7h5.1c3.7,0,6.6,3.7,6.6,8.3v24.8c0,3.3-1.5,6.1-3.7,7.5
		c-2.9-3.8-6.6-8.6-7.8-9.9c-1.9-2.1-4.7-2.6-6.8-2.6V30C21.4,25.4,24.3,21.7,28,21.7L28,21.7z M28,63.2c-3.2,0-5.8-2.8-6.5-6.6
		c0.8,0.1,1.5,0.2,1.7,0.4c0.7,0.7,2.7,3.2,4.9,6.1L28,63.2L28,63.2z"/>
</g>
</svg>
