<?xml version="1.0" encoding="utf-8"?>
<!-- Generator: Adobe Illustrator 19.2.0, SVG Export Plug-In . SVG Version: 6.00 Build 0)  -->
<svg version="1.1" baseProfile="tiny" id="Layer_1" xmlns="http://www.w3.org/2000/svg" xmlns:xlink="http://www.w3.org/1999/xlink"
	 x="0px" y="0px" viewBox="0 0 170 244" xml:space="preserve">
<metadata><?xpacket begin="﻿" id="W5M0MpCehiHzreSzNTczkc9d"?>
<x:xmpmeta xmlns:x="adobe:ns:meta/" x:xmptk="Adobe XMP Core 5.6-c111 79.158366, 2015/09/25-01:12:00        ">
   <rdf:RDF xmlns:rdf="http://www.w3.org/1999/02/22-rdf-syntax-ns#">
      <rdf:Description rdf:about=""/>
   </rdf:RDF>
</x:xmpmeta>
                                                                                                    
                                                                                                    
                                                                                                    
                                                                                                    
                                                                                                    
                                                                                                    
                                                                                                    
                                                                                                    
                                                                                                    
                                                                                                    
                                                                                                    
                                                                                                    
                                                                                                    
                                                                                                    
                                                                                                    
                                                                                                    
                                                                                                    
                                                                                                    
                                                                                                    
                                                                                                    
                           
<?xpacket end="w"?></metadata>
<g id="Layer_14">
	<path fill="#FFFFFF" d="M17,0h136c9.4,0,17,7.6,17,17.1v209.8c0,9.4-7.6,17.1-17,17.1H17c-9.4,0-17-7.6-17-17.1V17.1
		C0,7.6,7.6,0,17,0z"/>
	<path fill="#C80813" d="M96.7,235.3c0,0,7.7-19.6,26.3-40.4s33.4-31.8,33.4-31.8s-19.4-11.9-33-30.1
		c-13.5-18.3-26.2-41.6-26.2-41.6S85.9,113.8,70,132.8c-14.6,17.4-32,30.3-32,30.3s14.8,11,33.4,31.8S96.7,235.3,96.7,235.3z"/>
	<path fill="#C80813" d="M74.1,72.1c0,0,3.1-7.8,10.5-16.1C92.1,47.7,98,43.3,98,43.3s-7.8-4.7-13.2-12C79.4,24,74.4,14.7,74.4,14.7
		s-4.5,9-10.9,16.5c-5.8,7-12.8,12.1-12.8,12.1S56.6,47.7,64,56C71.5,64.3,74.1,72.1,74.1,72.1z"/>
	<path fill="#C80813" d="M42.1,69.5c-1.6,0-2.8-1.2-3.4-1.9c3.3-1.8,5.5-5.3,5.5-9.3V26.5c0-5.9-4.8-10.7-10.8-10.7H25
		c-6,0-10.8,4.8-10.8,10.7v23.4L10.3,50l0.2,6.8l3.7-0.1v1.6C14.2,64.2,19.1,69,25,69h6.2c0.5,0.7,1.1,1.4,1.5,2l-0.2-0.2
		c1.3,2,4.7,5.5,9.5,5.5h5.1v-6.8H42.1L42.1,69.5z M26.7,21.7h5.1c3.7,0,6.6,3.7,6.6,8.3v24.8c0,3.3-1.5,6.1-3.7,7.5
		c-2.9-3.8-6.6-8.6-7.8-9.9c-1.9-2.1-4.7-2.6-6.8-2.6V30C20,25.4,23,21.7,26.7,21.7L26.7,21.7z M26.7,63.2c-3.2,0-5.8-2.8-6.5-6.6
		c0.8,0.1,1.5,0.2,1.7,0.4c0.7,0.7,2.7,3.2,4.9,6.1L26.7,63.2L26.7,63.2z"/>
</g>
</svg>
