<?xml version="1.0" encoding="utf-8"?>
<!-- Generator: Adobe Illustrator 19.2.0, SVG Export Plug-In . SVG Version: 6.00 Build 0)  -->
<svg version="1.1" baseProfile="tiny" id="Layer_1" xmlns="http://www.w3.org/2000/svg" xmlns:xlink="http://www.w3.org/1999/xlink"
	 x="0px" y="0px" viewBox="0 0 170 244" xml:space="preserve">
<metadata><?xpacket begin="﻿" id="W5M0MpCehiHzreSzNTczkc9d"?>
<x:xmpmeta xmlns:x="adobe:ns:meta/" x:xmptk="Adobe XMP Core 5.6-c111 79.158366, 2015/09/25-01:12:00        ">
   <rdf:RDF xmlns:rdf="http://www.w3.org/1999/02/22-rdf-syntax-ns#">
      <rdf:Description rdf:about=""/>
   </rdf:RDF>
</x:xmpmeta>
                                                                                                    
                                                                                                    
                                                                                                    
                                                                                                    
                                                                                                    
                                                                                                    
                                                                                                    
                                                                                                    
                                                                                                    
                                                                                                    
                                                                                                    
                                                                                                    
                                                                                                    
                                                                                                    
                                                                                                    
                                                                                                    
                                                                                                    
                                                                                                    
                                                                                                    
                                                                                                    
                           
<?xpacket end="w"?></metadata>
<path fill="#FFFFFF" d="M17,0h136c9.4,0,17,7.6,17,17.1v209.8c0,9.4-7.6,17.1-17,17.1H17c-9.4,0-17-7.6-17-17.1V17.1
	C0,7.6,7.6,0,17,0z"/>
<path fill="#1F1A17" d="M26.4,12.6L26.4,12.6c-6.4,0-11.7,5.3-11.7,11.7l0,0h4.6c0.7-3.2,3.6-5.7,7.1-5.7l0,0c4,0,7.2,3.3,7.2,7.3
	c0,2.1-0.6,3.1-1.5,4.9L14.7,67.2h1.9h0.5l16.3,0.1H38l0,0v-5.6l0,0v-6.5h-4.5v6.5H23.2l0,0l-0.7,0.1l13.7-28.1
	c1.8-3.7,2.2-6.2,1.9-9.5c-0.1-1.2-0.3-2.4-0.6-3.4v-0.2l0,0C36,16,31.5,12.6,26.4,12.6z"/>
<path fill="#171717" d="M32.8,113c0,0-2-2.7-3.1-5.9c-1.1-3.2-1.5-7.5-1.5-7.5s3.1,4.8,8.4,4.7c5.4-0.1,9.2-4.7,9.2-9.2
	c0-4.7-4-9.1-8.3-9.3c-4.2-0.2-5.4,0.7-5.4,0.7s3.3-2.8,3.2-8.3c-0.2-8.5-8.8-8.8-8.8-8.8s-8.8,0.2-8.8,8.8
	c-0.1,5.4,3.2,8.3,3.2,8.3s-1.2-0.9-5.4-0.7c-4.2,0.2-8.3,4.7-8.3,9.3c0,4.7,3.9,9.2,9.2,9.2s8.4-4.7,8.4-4.7s-0.4,4.3-1.5,7.5
	s-3.1,5.9-3.1,5.9H32.8z"/>
<path fill="#171717" d="M79.1,83.6c0,0-1.4-1.9-2.2-4.1c-0.8-2.2-1-5.2-1-5.2s2.2,3.4,5.9,3.3c3.8-0.1,6.5-3.3,6.5-6.5
	c0-3.3-2.8-6.4-5.8-6.5c-2.9-0.2-3.8,0.5-3.8,0.5s2.3-2,2.3-5.8c-0.1-6-6.2-6.2-6.2-6.2s-6.1,0.2-6.2,6.2C68.5,63,70.8,65,70.8,65
	S70,64.3,67,64.5c-2.9,0.2-5.8,3.3-5.8,6.5c0,3.3,2.7,6.4,6.5,6.5c3.8,0.1,5.9-3.3,5.9-3.3s-0.3,3-1,5.2c-0.8,2.2-2.2,4.1-2.2,4.1
	h8.7V83.6z"/>
<path fill="#171717" d="M134.4,192.8c0,0,1.4,1.9,2.2,4.1c0.8,2.2,1,5.2,1,5.2s-2.2-3.4-5.9-3.3c-3.8,0.1-6.5,3.3-6.5,6.5
	c0,3.3,2.8,6.4,5.8,6.5c2.9,0.2,3.8-0.5,3.8-0.5s-2.3,2-2.3,5.8c0.1,6,6.2,6.2,6.2,6.2s6.1-0.2,6.2-6.2c0.1-3.8-2.3-5.8-2.3-5.8
	s0.8,0.7,3.8,0.5c2.9-0.2,5.8-3.3,5.8-6.5s-2.7-6.4-6.5-6.5s-5.9,3.3-5.9,3.3s0.3-3,1-5.2c0.8-2.2,2.2-4.1,2.2-4.1H134.4z"/>
<rect x="52.6" y="41.2" fill="none" stroke="#000000" stroke-miterlimit="10" width="108.2" height="192.5"/>
</svg>
