<?xml version="1.0" encoding="utf-8"?>
<!-- Generator: Adobe Illustrator 19.2.0, SVG Export Plug-In . SVG Version: 6.00 Build 0)  -->
<svg version="1.1" baseProfile="tiny" id="Layer_1" xmlns="http://www.w3.org/2000/svg" xmlns:xlink="http://www.w3.org/1999/xlink"
	 x="0px" y="0px" viewBox="0 0 170 244" xml:space="preserve">
<metadata><?xpacket begin="﻿" id="W5M0MpCehiHzreSzNTczkc9d"?>
<x:xmpmeta xmlns:x="adobe:ns:meta/" x:xmptk="Adobe XMP Core 5.6-c111 79.158366, 2015/09/25-01:12:00        ">
   <rdf:RDF xmlns:rdf="http://www.w3.org/1999/02/22-rdf-syntax-ns#">
      <rdf:Description rdf:about=""/>
   </rdf:RDF>
</x:xmpmeta>
                                                                                                    
                                                                                                    
                                                                                                    
                                                                                                    
                                                                                                    
                                                                                                    
                                                                                                    
                                                                                                    
                                                                                                    
                                                                                                    
                                                                                                    
                                                                                                    
                                                                                                    
                                                                                                    
                                                                                                    
                                                                                                    
                                                                                                    
                                                                                                    
                                                                                                    
                                                                                                    
                           
<?xpacket end="w"?></metadata>
<path fill="#FFFFFF" d="M17,0h136c9.4,0,17,7.6,17,17.1v209.6c0,9.4-7.6,17.1-17,17.1H17c-9.4,0-17-7.6-17-17.1V17.1
	C0,7.6,7.6,0,17,0z"/>
<path fill="#C80813" d="M33.7,38.9c3.3,2.3,5.4,6.1,5.4,10.4V55c0,7-5.7,12.6-12.6,12.6l0,0c-6.9,0-12.6-5.7-12.6-12.6v-1.1h4.8
	c0.1,4.2,3.6,7.7,7.8,7.7l0,0c4.3,0,7.8-3.5,7.8-7.9V51c0-4.3-3.5-7.9-7.8-7.9l0,0c-0.2,0-0.5,0-0.7,0v-7.5c0.2,0,0.4,0,0.7,0l0,0
	c4,0,7.3-3.3,7.3-7.3V26c0-4-3.3-7.3-7.3-7.3l0,0c-4,0-7.3,3.3-7.3,7.3l0,0h-4.4v-1.6c0-6.5,5.3-11.8,11.7-11.8l0,0
	c6.4,0,11.7,5.3,11.7,11.8v5.3C38.2,33.4,36.4,36.7,33.7,38.9z"/>
<path fill="#C80813" d="M26.6,118.9c0,0,2.7-6.8,9.1-14c6.5-7.2,11.6-11,11.6-11s-6.8-4.1-11.5-10.4s-9.1-14.4-9.1-14.4
	s-3.9,7.7-9.5,14.3c-5,6.1-11,10.5-11,10.5s5.1,3.8,11.5,11C24.4,112.1,26.6,118.9,26.6,118.9z"/>
<rect x="52.6" y="41.2" fill="none" stroke="#C80813" stroke-miterlimit="10" width="108.2" height="192.5"/>
<path fill="#C80813" d="M106.9,119.9c0,0-3.9,13.3-14.3,18.2c0,0,12.4,7,14.5,17.4c0,0,3.9-12.9,14.6-17.5
	C121.6,137.9,111,132.9,106.9,119.9"/>
<path fill="#C80813" d="M73,49.6c0,0-3.9,13.3-14.3,18.2c0,0,12.4,7,14.5,17.4c0,0,3.9-12.9,14.6-17.5C87.8,67.7,77.1,62.6,73,49.6"
	/>
<path fill="#C80813" d="M140.8,190.1c0,0-3.9,13.3-14.3,18.2c0,0,12.4,7,14.5,17.4c0,0,3.9-12.9,14.6-17.5
	C155.5,208.1,144.9,203.1,140.8,190.1"/>
</svg>
