<?xml version="1.0" encoding="utf-8"?>
<!-- Generator: Adobe Illustrator 19.2.0, SVG Export Plug-In . SVG Version: 6.00 Build 0)  -->
<svg version="1.1" baseProfile="tiny" id="Layer_1" xmlns="http://www.w3.org/2000/svg" xmlns:xlink="http://www.w3.org/1999/xlink"
	 x="0px" y="0px" viewBox="0 0 170 244" xml:space="preserve">
<metadata><?xpacket begin="﻿" id="W5M0MpCehiHzreSzNTczkc9d"?>
<x:xmpmeta xmlns:x="adobe:ns:meta/" x:xmptk="Adobe XMP Core 5.6-c111 79.158366, 2015/09/25-01:12:00        ">
   <rdf:RDF xmlns:rdf="http://www.w3.org/1999/02/22-rdf-syntax-ns#">
      <rdf:Description rdf:about=""/>
   </rdf:RDF>
</x:xmpmeta>
                                                                                                    
                                                                                                    
                                                                                                    
                                                                                                    
                                                                                                    
                                                                                                    
                                                                                                    
                                                                                                    
                                                                                                    
                                                                                                    
                                                                                                    
                                                                                                    
                                                                                                    
                                                                                                    
                                                                                                    
                                                                                                    
                                                                                                    
                                                                                                    
                                                                                                    
                                                                                                    
                           
<?xpacket end="w"?></metadata>
<path fill="#FFFFFF" d="M17,0h136c9.4,0,17,7.6,17,17.1v209.8c0,9.4-7.6,17.1-17,17.1H17c-9.4,0-17-7.6-17-17.1V17.1
	C0,7.6,7.6,0,17,0z"/>
<path fill="#C80813" d="M33.8,39c3.3,2.3,5.4,6.1,5.4,10.4v5.7c0,7-5.7,12.7-12.6,12.7l0,0C19.7,67.7,14,62,14,55.1V54h4.8
	c0.1,4.2,3.6,7.7,7.8,7.7l0,0c4.3,0,7.8-3.5,7.8-7.9v-2.6c0-4.3-3.5-7.9-7.8-7.9l0,0c-0.2,0-0.5,0-0.7,0v-7.5c0.2,0,0.4,0,0.7,0l0,0
	c4,0,7.3-3.3,7.3-7.3V26c0-4-3.3-7.3-7.3-7.3l0,0c-4,0-7.3,3.3-7.3,7.3l0,0h-4.4v-1.6c0-6.5,5.3-11.8,11.7-11.8l0,0
	c6.4,0,11.7,5.3,11.7,11.8v5.3C38.4,33.4,36.6,36.8,33.8,39z"/>
<path fill="#C80813" d="M27,114.8c0,0,4.9-10.1,10.4-17.1s9.7-10.8,9.8-17c0-3.8-3.1-9.1-9.3-9.3C29.5,71.2,27,79,27,79
	s-2.5-7.9-10.9-7.6c-6.2,0.2-9.4,5.5-9.3,9.3c0.1,6.1,4.3,9.9,9.8,17C22.1,104.7,27,114.8,27,114.8z"/>
<path fill="#C80813" d="M75.1,82c0,0,3.5-7.2,7.4-12.1c3.9-5,6.9-7.7,7-12.1c0-2.7-2.2-6.5-6.6-6.6c-5.9-0.2-7.7,5.4-7.7,5.4
	s-1.8-5.6-7.7-5.4c-4.4,0.1-6.7,3.9-6.6,6.6c0.1,4.4,3.1,7.1,7,12.1C71.7,74.8,75.1,82,75.1,82z"/>
<path fill="#C80813" d="M106.6,156.3c0,0,3.5-7.2,7.4-12.1c3.9-5,6.9-7.7,7-12.1c0-2.7-2.2-6.5-6.6-6.6c-5.9-0.2-7.7,5.4-7.7,5.4
	s-1.8-5.6-7.7-5.4c-4.4,0.1-6.7,3.9-6.6,6.6c0.1,4.4,3.1,7.1,7,12.1C103.1,149.1,106.6,156.3,106.6,156.3z"/>
<path fill="#C80813" d="M138.8,193.4c0,0-3.5,7.2-7.4,12.1c-3.9,5-6.9,7.7-7,12.1c0,2.7,2.2,6.5,6.6,6.6c5.9,0.2,7.7-5.4,7.7-5.4
	s1.8,5.6,7.7,5.4c4.4-0.1,6.7-3.9,6.6-6.6c-0.1-4.4-3.1-7.1-7-12.1C142.3,200.6,138.8,193.4,138.8,193.4z"/>
<rect x="52.6" y="41.2" fill="none" stroke="#C80813" stroke-miterlimit="10" width="108.2" height="192.5"/>
</svg>
