<?xml version="1.0" encoding="utf-8"?>
<!-- Generator: Adobe Illustrator 19.2.0, SVG Export Plug-In . SVG Version: 6.00 Build 0)  -->
<svg version="1.1" baseProfile="tiny" id="Layer_1" xmlns="http://www.w3.org/2000/svg" xmlns:xlink="http://www.w3.org/1999/xlink"
	 x="0px" y="0px" viewBox="0 0 170 244" xml:space="preserve">
<metadata><?xpacket begin="﻿" id="W5M0MpCehiHzreSzNTczkc9d"?>
<x:xmpmeta xmlns:x="adobe:ns:meta/" x:xmptk="Adobe XMP Core 5.6-c111 79.158366, 2015/09/25-01:12:00        ">
   <rdf:RDF xmlns:rdf="http://www.w3.org/1999/02/22-rdf-syntax-ns#">
      <rdf:Description rdf:about=""/>
   </rdf:RDF>
</x:xmpmeta>
                                                                                                    
                                                                                                    
                                                                                                    
                                                                                                    
                                                                                                    
                                                                                                    
                                                                                                    
                                                                                                    
                                                                                                    
                                                                                                    
                                                                                                    
                                                                                                    
                                                                                                    
                                                                                                    
                                                                                                    
                                                                                                    
                                                                                                    
                                                                                                    
                                                                                                    
                                                                                                    
                           
<?xpacket end="w"?></metadata>
<path fill="#FFFFFF" d="M17,0h136c9.4,0,17,7.6,17,17.1v209.8c0,9.4-7.6,17.1-17,17.1H17c-9.4,0-17-7.6-17-17.1V17.1
	C0,7.6,7.6,0,17,0z"/>
<path fill="#1F1A17" d="M34.4,39c3.3,2.3,5.4,6.1,5.4,10.4v5.7c0,7-5.7,12.7-12.6,12.7l0,0c-6.9,0-12.6-5.7-12.6-12.7V54h4.8
	c0.1,4.2,3.6,7.7,7.8,7.7l0,0c4.3,0,7.8-3.5,7.8-7.9v-2.6c0-4.3-3.5-7.9-7.8-7.9l0,0c-0.2,0-0.5,0-0.7,0v-7.5c0.2,0,0.4,0,0.7,0l0,0
	c4,0,7.3-3.3,7.3-7.3V26c0-4-3.3-7.3-7.3-7.3l0,0c-4,0-7.3,3.3-7.3,7.3l0,0h-4.4v-1.6c0-6.5,5.3-11.8,11.7-11.8l0,0
	c6.4,0,11.7,5.3,11.7,11.8v5.3C39,33.4,37.2,36.8,34.4,39z"/>
<path fill="#171717" d="M33.8,115.3c0,0-1.8-2.1-3.1-5.2c-1.3-3-1.8-5.3-1.8-5.3s4.8,2.1,7.8,2.1s9.8-1.8,10-9.1
	c0.2-7.3-7.3-12.9-11.9-18.2c-4.7-5.3-7.3-9.9-7.3-9.9s-2.7,4.6-7.3,9.9C15.5,84.8,8,90.4,8.2,97.7c0.2,7.3,6.9,9.1,10,9.1
	s7.8-2.1,7.8-2.1s-0.5,2.2-1.8,5.3c-1.3,3-3.1,5.2-3.1,5.2h12.7V115.3z"/>
<path fill="#171717" d="M78.2,85.4c0,0-1.2-1.5-2.2-3.6c-0.9-2.1-1.2-3.7-1.2-3.7s3.3,1.5,5.4,1.5s6.8-1.2,6.9-6.3
	c0.1-5.1-5-9-8.3-12.6c-3.2-3.7-5.1-6.9-5.1-6.9s-1.9,3.2-5.1,6.9c-3.2,3.7-8.4,7.5-8.3,12.6s4.8,6.3,6.9,6.3s5.4-1.5,5.4-1.5
	s-0.3,1.5-1.2,3.7c-0.9,2.1-2.2,3.6-2.2,3.6H78.2z"/>
<path fill="#171717" d="M110.4,153.2c0,0-1.2-1.5-2.2-3.6c-0.9-2.1-1.2-3.7-1.2-3.7s3.3,1.5,5.4,1.5s6.8-1.2,6.9-6.3s-5-9-8.3-12.6
	c-3.2-3.7-5.1-6.9-5.1-6.9s-1.9,3.2-5.1,6.9c-3.2,3.7-8.4,7.5-8.3,12.6s4.8,6.3,6.9,6.3s5.4-1.5,5.4-1.5s-0.3,1.5-1.2,3.7
	c-0.9,2.1-2.2,3.6-2.2,3.6H110.4z"/>
<path fill="#171717" d="M135.4,189.9c0,0,1.2,1.5,2.2,3.6c0.9,2.1,1.2,3.7,1.2,3.7s-3.3-1.5-5.4-1.5c-2.1,0-6.8,1.2-6.9,6.3
	s5,9,8.3,12.6c3.2,3.7,5.1,6.9,5.1,6.9s1.9-3.2,5.1-6.9s8.4-7.5,8.3-12.6c-0.1-5.1-4.8-6.3-6.9-6.3c-2.1,0-5.4,1.5-5.4,1.5
	s0.3-1.5,1.2-3.7c0.9-2.1,2.2-3.6,2.2-3.6H135.4z"/>
<rect x="52.6" y="41.2" fill="none" stroke="#000000" stroke-miterlimit="10" width="108.2" height="192.5"/>
</svg>
