<?xml version="1.0" encoding="utf-8"?>
<!-- Generator: Adobe Illustrator 19.2.0, SVG Export Plug-In . SVG Version: 6.00 Build 0)  -->
<svg version="1.1" baseProfile="tiny" id="Layer_1" xmlns="http://www.w3.org/2000/svg" xmlns:xlink="http://www.w3.org/1999/xlink"
	 x="0px" y="0px" viewBox="0 0 170 244" xml:space="preserve">
<metadata><?xpacket begin="﻿" id="W5M0MpCehiHzreSzNTczkc9d"?>
<x:xmpmeta xmlns:x="adobe:ns:meta/" x:xmptk="Adobe XMP Core 5.6-c111 79.158366, 2015/09/25-01:12:00        ">
   <rdf:RDF xmlns:rdf="http://www.w3.org/1999/02/22-rdf-syntax-ns#">
      <rdf:Description rdf:about=""/>
   </rdf:RDF>
</x:xmpmeta>
                                                                                                    
                                                                                                    
                                                                                                    
                                                                                                    
                                                                                                    
                                                                                                    
                                                                                                    
                                                                                                    
                                                                                                    
                                                                                                    
                                                                                                    
                                                                                                    
                                                                                                    
                                                                                                    
                                                                                                    
                                                                                                    
                                                                                                    
                                                                                                    
                                                                                                    
                                                                                                    
                           
<?xpacket end="w"?></metadata>
<path fill="#FFFFFF" d="M17,0h136c9.4,0,17,7.6,17,17.1v209.8c0,9.4-7.6,17.1-17,17.1H17c-9.4,0-17-7.6-17-17.1V17.1
	C0,7.6,7.6,0,17,0z"/>
<polygon fill="#C80813" points="19,59.6 17.6,59.6 12.8,59.6 27.2,12.6 31.9,12.6 19.7,54 26.9,54 26.9,45 31.4,45 31.4,54 39.1,54 
	39.1,59.6 39.1,59.6 34.6,59.6 31.4,59.6 31.4,67.2 26.9,67.2 26.9,59.6 "/>
<path fill="#C80813" d="M26.6,118.9c0,0,2.7-6.8,9.1-14c6.5-7.2,11.6-11,11.6-11s-6.8-4.1-11.5-10.4s-9.1-14.4-9.1-14.4
	s-3.9,7.7-9.5,14.3c-5,6.1-11,10.5-11,10.5s5.1,3.8,11.5,11C24.4,112.1,26.6,118.9,26.6,118.9z"/>
<rect x="52.6" y="41.2" fill="none" stroke="#C80813" stroke-miterlimit="10" width="108.2" height="192.5"/>
<path fill="#C80813" d="M73,49.6c0,0-3.9,13.3-14.3,18.2c0,0,12.4,7,14.5,17.4c0,0,3.9-12.9,14.6-17.5C87.8,67.7,77.1,62.6,73,49.6"
	/>
<path fill="#C80813" d="M140.3,48.9c0,0-3.9,13.3-14.3,18.2c0,0,12.4,7,14.5,17.4c0,0,3.9-12.9,14.6-17.5
	C155,67,144.4,61.9,140.3,48.9"/>
<path fill="#C80813" d="M140.3,190.1c0,0-3.9,13.3-14.3,18.2c0,0,12.4,7,14.5,17.4c0,0,3.9-12.9,14.6-17.5
	C155,208.1,144.4,203.1,140.3,190.1"/>
<path fill="#C80813" d="M72.2,190.1c0,0-3.9,13.3-14.3,18.2c0,0,12.4,7,14.5,17.4c0,0,3.9-12.9,14.6-17.5
	C87,208.1,76.3,203.1,72.2,190.1"/>
</svg>
