<?xml version="1.0" encoding="utf-8"?>
<!-- Generator: Adobe Illustrator 19.2.0, SVG Export Plug-In . SVG Version: 6.00 Build 0)  -->
<svg version="1.1" baseProfile="tiny" id="Layer_1" xmlns="http://www.w3.org/2000/svg" xmlns:xlink="http://www.w3.org/1999/xlink"
	 x="0px" y="0px" viewBox="0 0 170 244" xml:space="preserve">
<metadata><?xpacket begin="﻿" id="W5M0MpCehiHzreSzNTczkc9d"?>
<x:xmpmeta xmlns:x="adobe:ns:meta/" x:xmptk="Adobe XMP Core 5.6-c111 79.158366, 2015/09/25-01:12:00        ">
   <rdf:RDF xmlns:rdf="http://www.w3.org/1999/02/22-rdf-syntax-ns#">
      <rdf:Description rdf:about=""/>
   </rdf:RDF>
</x:xmpmeta>
                                                                                                    
                                                                                                    
                                                                                                    
                                                                                                    
                                                                                                    
                                                                                                    
                                                                                                    
                                                                                                    
                                                                                                    
                                                                                                    
                                                                                                    
                                                                                                    
                                                                                                    
                                                                                                    
                                                                                                    
                                                                                                    
                                                                                                    
                                                                                                    
                                                                                                    
                                                                                                    
                           
<?xpacket end="w"?></metadata>
<path fill="#FFFFFF" d="M17,0h136c9.4,0,17,7.6,17,17.1v209.8c0,9.4-7.6,17.1-17,17.1H17c-9.4,0-17-7.6-17-17.1V17.1
	C0,7.6,7.6,0,17,0z"/>
<path fill="#C80813" d="M26.5,67.7L26.5,67.7c-6.3,0-11.5-5.2-11.5-11.6l0,0h4.5c0.7,3.2,3.6,5.6,7,5.6l0,0c3.9,0,7.2-3.2,7.2-7.2
	v-10c0-4-3.2-7.2-7.2-7.2l0,0c-3.5,0-6.4,2.5-7,5.9H15c0-0.2,0-0.4,0-0.6l0,0v-29l18.5-0.1H38l0,0V19l0,0v6.5h-4.5V19H19.4v15.2
	c2-1.5,4.4-2.4,7-2.4l0,0c6.3,0,11.5,5.2,11.5,11.6v12.7C38,62.5,32.8,67.7,26.5,67.7z"/>
<path fill="#C80813" d="M26.6,118.9c0,0,2.7-6.8,9.1-14c6.5-7.2,11.6-11,11.6-11s-6.8-4.1-11.5-10.4s-9.1-14.4-9.1-14.4
	s-3.9,7.7-9.5,14.3c-5,6.1-11,10.5-11,10.5s5.1,3.8,11.5,11C24.4,112.1,26.6,118.9,26.6,118.9z"/>
<rect x="52.6" y="41.2" fill="none" stroke="#C80813" stroke-miterlimit="10" width="108.2" height="192.5"/>
<g>
	<path fill="#C80813" d="M106.5,119.4c0,0-3.9,13.3-14.3,18.2c0,0,12.4,7,14.5,17.4c0,0,3.9-12.9,14.6-17.5
		C121.2,137.5,110.6,132.5,106.5,119.4"/>
	<g>
		<path fill="#C80813" d="M71.5,49.6c0,0-3.9,13.3-14.3,18.2c0,0,12.4,7,14.5,17.4c0,0,3.9-12.9,14.6-17.5
			C86.3,67.7,75.6,62.6,71.5,49.6"/>
		<path fill="#C80813" d="M142.3,48.9c0,0-3.9,13.3-14.3,18.2c0,0,12.4,7,14.5,17.4c0,0,3.9-12.9,14.6-17.5
			C157,67,146.4,61.9,142.3,48.9"/>
		<path fill="#C80813" d="M142.3,190.1c0,0-3.9,13.3-14.3,18.2c0,0,12.4,7,14.5,17.4c0,0,3.9-12.9,14.6-17.5
			C157,208.1,146.4,203.1,142.3,190.1"/>
		<path fill="#C80813" d="M70.7,190.1c0,0-3.9,13.3-14.3,18.2c0,0,12.4,7,14.5,17.4c0,0,3.9-12.9,14.6-17.5
			C85.5,208.1,74.8,203.1,70.7,190.1"/>
	</g>
</g>
</svg>
