<?xml version="1.0" encoding="utf-8"?>
<!-- Generator: Adobe Illustrator 19.2.0, SVG Export Plug-In . SVG Version: 6.00 Build 0)  -->
<svg version="1.1" baseProfile="tiny" id="Layer_1" xmlns="http://www.w3.org/2000/svg" xmlns:xlink="http://www.w3.org/1999/xlink"
	 x="0px" y="0px" viewBox="0 0 170 244" xml:space="preserve">
<metadata><?xpacket begin="﻿" id="W5M0MpCehiHzreSzNTczkc9d"?>
<x:xmpmeta xmlns:x="adobe:ns:meta/" x:xmptk="Adobe XMP Core 5.6-c111 79.158366, 2015/09/25-01:12:00        ">
   <rdf:RDF xmlns:rdf="http://www.w3.org/1999/02/22-rdf-syntax-ns#">
      <rdf:Description rdf:about=""/>
   </rdf:RDF>
</x:xmpmeta>
                                                                                                    
                                                                                                    
                                                                                                    
                                                                                                    
                                                                                                    
                                                                                                    
                                                                                                    
                                                                                                    
                                                                                                    
                                                                                                    
                                                                                                    
                                                                                                    
                                                                                                    
                                                                                                    
                                                                                                    
                                                                                                    
                                                                                                    
                                                                                                    
                                                                                                    
                                                                                                    
                           
<?xpacket end="w"?></metadata>
<path fill="#FFFFFF" d="M17,0h136c9.4,0,17,7.6,17,17.1v209.8c0,9.4-7.6,17.1-17,17.1H17c-9.4,0-17-7.6-17-17.1V17.1
	C0,7.6,7.6,0,17,0z"/>
<path fill="#C80813" d="M26.7,67.7L26.7,67.7c-6.4,0-11.6-5.3-11.6-11.7v-7.2c0-0.2,0-0.5,0-0.7l0,0V27.6v-1.7v-1.6
	c0-6.4,5.2-11.7,11.6-11.7l0,0c6.4,0,11.6,5.3,11.6,11.7v3.3h-4.4v-2.1c0-4-3.3-7.3-7.2-7.3l0,0c-4,0-7.2,3.3-7.2,7.3v0.4h0.1v13.7
	c2-1.5,4.4-2.4,7.1-2.4l0,0c6.4,0,11.6,5.3,11.6,11.7V56C38.3,62.5,33.1,67.7,26.7,67.7L26.7,67.7z M26.7,61.7c4,0,7.2-3.3,7.2-7.3
	V50c0-4-3.3-7.3-7.2-7.3l0,0c-4,0-7.2,3.3-7.2,7.3v4.4C19.4,58.4,22.7,61.7,26.7,61.7L26.7,61.7z"/>
<path fill="#C80813" d="M26.6,118.9c0,0,2.7-6.8,9.1-14c6.5-7.2,11.6-11,11.6-11s-6.8-4.1-11.5-10.4s-9.1-14.4-9.1-14.4
	s-3.9,7.7-9.5,14.3c-5,6.1-11,10.5-11,10.5s5.1,3.8,11.5,11C24.4,112.1,26.6,118.9,26.6,118.9z"/>
<rect x="52.6" y="41.2" fill="none" stroke="#C80813" stroke-miterlimit="10" width="108.2" height="192.5"/>
<path fill="#C80813" d="M72.3,50c0,0-3.9,13.3-14.3,18.2c0,0,12.4,7,14.5,17.4c0,0,3.9-12.9,14.6-17.5C87.1,68.1,76.4,63,72.3,50"/>
<path fill="#C80813" d="M141.1,49.3c0,0-3.9,13.3-14.3,18.2c0,0,12.4,7,14.5,17.4c0,0,3.9-12.9,14.6-17.5
	C155.8,67.4,145.2,62.3,141.1,49.3"/>
<path fill="#C80813" d="M141.1,119.9c0,0-3.9,13.3-14.3,18.2c0,0,12.4,7,14.5,17.4c0,0,3.9-12.9,14.6-17.5
	C155.8,138,145.2,133,141.1,119.9"/>
<path fill="#C80813" d="M71.5,120.2c0,0-3.9,13.3-14.3,18.2c0,0,12.4,7,14.5,17.4c0,0,3.9-12.9,14.6-17.5
	C86.3,138.4,75.6,133.4,71.5,120.2"/>
<path fill="#C80813" d="M141.1,190.5c0,0-3.9,13.3-14.3,18.2c0,0,12.4,7,14.5,17.4c0,0,3.9-12.9,14.6-17.5
	C155.8,208.5,145.2,203.5,141.1,190.5"/>
<path fill="#C80813" d="M71.5,190.5c0,0-3.9,13.3-14.3,18.2c0,0,12.4,7,14.5,17.4c0,0,3.9-12.9,14.6-17.5
	C86.3,208.5,75.6,203.5,71.5,190.5"/>
</svg>
