<?xml version="1.0" encoding="utf-8"?>
<!-- Generator: Adobe Illustrator 19.2.0, SVG Export Plug-In . SVG Version: 6.00 Build 0)  -->
<svg version="1.1" baseProfile="tiny" id="Layer_2" xmlns="http://www.w3.org/2000/svg" xmlns:xlink="http://www.w3.org/1999/xlink"
	 x="0px" y="0px" viewBox="0 0 170 244" xml:space="preserve">
<metadata><?xpacket begin="﻿" id="W5M0MpCehiHzreSzNTczkc9d"?>
<x:xmpmeta xmlns:x="adobe:ns:meta/" x:xmptk="Adobe XMP Core 5.6-c111 79.158366, 2015/09/25-01:12:00        ">
   <rdf:RDF xmlns:rdf="http://www.w3.org/1999/02/22-rdf-syntax-ns#">
      <rdf:Description rdf:about=""/>
   </rdf:RDF>
</x:xmpmeta>
                                                                                                    
                                                                                                    
                                                                                                    
                                                                                                    
                                                                                                    
                                                                                                    
                                                                                                    
                                                                                                    
                                                                                                    
                                                                                                    
                                                                                                    
                                                                                                    
                                                                                                    
                                                                                                    
                                                                                                    
                                                                                                    
                                                                                                    
                                                                                                    
                                                                                                    
                                                                                                    
                           
<?xpacket end="w"?></metadata>
<path fill="#FFFFFF" d="M17,0h136c9.4,0,17,7.6,17,17.1v209.8c0,9.4-7.6,17.1-17,17.1H17c-9.4,0-17-7.6-17-17.1V17.1
	C0,7.6,7.6,0,17,0z"/>
<path fill="#C80813" d="M26.7,12.6L26.7,12.6c6.4,0,11.6,5.3,11.6,11.7v7.2c0,0.2,0,0.5,0,0.7l0,0v20.5v1.7V56
	c0,6.4-5.2,11.7-11.6,11.7l0,0c-6.4,0-11.6-5.3-11.6-11.7v-3.3h4.4v2.1c0,4,3.3,7.3,7.2,7.3l0,0c4,0,7.2-3.3,7.2-7.3v-0.4h-0.1V40.7
	c-2,1.5-4.4,2.4-7.1,2.4l0,0c-6.4,0-11.6-5.3-11.6-11.7v-7.2C15,17.8,20.3,12.6,26.7,12.6L26.7,12.6z M26.7,18.6
	c-4,0-7.2,3.3-7.2,7.3v4.4c0,4,3.3,7.3,7.2,7.3l0,0c4,0,7.2-3.3,7.2-7.3v-4.4C33.9,21.9,30.7,18.6,26.7,18.6L26.7,18.6z"/>
<path fill="#C80813" d="M26.6,118.9c0,0,2.7-6.8,9.1-14c6.5-7.2,11.6-11,11.6-11s-6.8-4.1-11.5-10.4s-9.1-14.4-9.1-14.4
	s-3.9,7.7-9.5,14.3c-5,6.1-11,10.5-11,10.5s5.1,3.8,11.5,11C24.4,112.1,26.6,118.9,26.6,118.9z"/>
<rect x="52.6" y="41.2" fill="none" stroke="#C80813" stroke-miterlimit="10" width="108.2" height="192.5"/>
<path fill="#C80813" d="M106.5,120.4c0,0-3.9,13.3-14.3,18.2c0,0,12.4,7,14.5,17.4c0,0,3.9-12.9,14.6-17.5
	C121.2,138.5,110.6,133.5,106.5,120.4"/>
<g>
	<path fill="#C80813" d="M142.1,49.3c0,0-3.9,13.3-14.3,18.2c0,0,12.4,7,14.5,17.4c0,0,3.9-12.9,14.6-17.5
		C156.8,67.4,146.2,62.3,142.1,49.3"/>
	<path fill="#C80813" d="M142.1,96.8c0,0-3.9,13.3-14.3,18.2c0,0,12.4,7,14.5,17.4c0,0,3.9-12.9,14.6-17.5
		C156.8,114.9,146.2,109.9,142.1,96.8"/>
	<path fill="#C80813" d="M142.1,142.9c0,0-3.9,13.3-14.3,18.2c0,0,12.4,7,14.5,17.4c0,0,3.9-12.9,14.6-17.5
		C156.8,161,146.2,156,142.1,142.9"/>
	<path fill="#C80813" d="M142.1,190.5c0,0-3.9,13.3-14.3,18.2c0,0,12.4,7,14.5,17.4c0,0,3.9-12.9,14.6-17.5
		C156.8,208.5,146.2,203.5,142.1,190.5"/>
</g>
<g>
	<path fill="#C80813" d="M71.3,50c0,0-3.9,13.3-14.3,18.2c0,0,12.4,7,14.5,17.4c0,0,3.9-12.9,14.6-17.5C86.1,68.1,75.4,63,71.3,50"
		/>
	<path fill="#C80813" d="M70.5,96.8c0,0-3.9,13.3-14.3,18.2c0,0,12.4,7,14.5,17.4c0,0,3.9-12.9,14.6-17.5
		C85.3,114.9,74.6,109.9,70.5,96.8"/>
	<path fill="#C80813" d="M71.3,143.6c0,0-3.9,13.3-14.3,18.2c0,0,12.4,7,14.5,17.4c0,0,3.9-12.9,14.6-17.5
		C86.1,161.7,75.4,156.7,71.3,143.6"/>
	<path fill="#C80813" d="M70.5,190.5c0,0-3.9,13.3-14.3,18.2c0,0,12.4,7,14.5,17.4c0,0,3.9-12.9,14.6-17.5
		C85.3,208.5,74.6,203.5,70.5,190.5"/>
</g>
</svg>
