<?xml version="1.0" encoding="utf-8"?>
<!-- Generator: Adobe Illustrator 19.2.0, SVG Export Plug-In . SVG Version: 6.00 Build 0)  -->
<svg version="1.1" baseProfile="tiny" id="Layer_2" xmlns="http://www.w3.org/2000/svg" xmlns:xlink="http://www.w3.org/1999/xlink"
	 x="0px" y="0px" viewBox="0 0 170 244" xml:space="preserve">
<metadata><?xpacket begin="﻿" id="W5M0MpCehiHzreSzNTczkc9d"?>
<x:xmpmeta xmlns:x="adobe:ns:meta/" x:xmptk="Adobe XMP Core 5.6-c111 79.158366, 2015/09/25-01:12:00        ">
   <rdf:RDF xmlns:rdf="http://www.w3.org/1999/02/22-rdf-syntax-ns#">
      <rdf:Description rdf:about=""/>
   </rdf:RDF>
</x:xmpmeta>
                                                                                                    
                                                                                                    
                                                                                                    
                                                                                                    
                                                                                                    
                                                                                                    
                                                                                                    
                                                                                                    
                                                                                                    
                                                                                                    
                                                                                                    
                                                                                                    
                                                                                                    
                                                                                                    
                                                                                                    
                                                                                                    
                                                                                                    
                                                                                                    
                                                                                                    
                                                                                                    
                           
<?xpacket end="w"?></metadata>
<path fill="#FFFFFF" d="M17,0h136c9.4,0,17,7.6,17,17.1v209.8c0,9.4-7.6,17.1-17,17.1H17c-9.4,0-17-7.6-17-17.1V17.1
	C0,7.6,7.6,0,17,0z"/>
<path fill="#C80813" d="M27.2,12.6L27.2,12.6c6.4,0,11.6,5.3,11.6,11.7v7.2c0,0.2,0,0.5,0,0.7l0,0v20.5v1.7V56
	c0,6.4-5.2,11.7-11.6,11.7l0,0c-6.4,0-11.6-5.3-11.6-11.7v-3.3H20v2.1c0,4,3.3,7.3,7.2,7.3l0,0c4,0,7.2-3.3,7.2-7.3v-0.4h-0.1V40.7
	c-2,1.5-4.4,2.4-7.1,2.4l0,0c-6.4,0-11.6-5.3-11.6-11.7v-7.2C15.6,17.8,20.8,12.6,27.2,12.6L27.2,12.6z M27.2,18.6
	c-4,0-7.2,3.3-7.2,7.3v4.4c0,4,3.3,7.3,7.2,7.3l0,0c4,0,7.2-3.3,7.2-7.3v-4.4C34.4,21.9,31.2,18.6,27.2,18.6L27.2,18.6z"/>
<path fill="#C80813" d="M27.5,114.8c0,0,4.9-10.1,10.4-17.1s9.7-10.8,9.8-17c0-3.8-3.1-9.1-9.3-9.3C30,71.2,27.5,79,27.5,79
	s-2.5-7.9-10.9-7.6c-6.2,0.2-9.4,5.5-9.3,9.3c0.1,6.1,4.3,9.9,9.8,17C22.6,104.7,27.5,114.8,27.5,114.8z"/>
<path fill="#C80813" d="M75.1,82c0,0,3.5-7.2,7.4-12.1c3.9-5,6.9-7.7,7-12.1c0-2.7-2.2-6.5-6.6-6.6c-5.9-0.2-7.7,5.4-7.7,5.4
	s-1.8-5.6-7.7-5.4c-4.4,0.1-6.7,3.9-6.6,6.6c0.1,4.4,3.1,7.1,7,12.1C71.7,74.8,75.1,82,75.1,82z"/>
<path fill="#C80813" d="M75.1,130.2c0,0,3.5-7.2,7.4-12.1c3.9-5,6.9-7.7,7-12.1c0-2.7-2.2-6.5-6.6-6.6c-5.9-0.2-7.7,5.4-7.7,5.4
	s-1.8-5.6-7.7-5.4c-4.4,0.1-6.7,3.9-6.6,6.6c0.1,4.4,3.1,7.1,7,12.1C71.7,123,75.1,130.2,75.1,130.2z"/>
<path fill="#C80813" d="M138.8,82c0,0,3.5-7.2,7.4-12.1c3.9-5,6.9-7.7,7-12.1c0-2.7-2.2-6.5-6.6-6.6c-5.9-0.2-7.7,5.4-7.7,5.4
	s-1.8-5.6-7.7-5.4c-4.4,0.1-6.7,3.9-6.6,6.6c0.1,4.4,3.1,7.1,7,12.1C135.4,74.8,138.8,82,138.8,82z"/>
<path fill="#C80813" d="M138.8,130.2c0,0,3.5-7.2,7.4-12.1c3.9-5,6.9-7.7,7-12.1c0-2.7-2.2-6.5-6.6-6.6c-5.9-0.2-7.7,5.4-7.7,5.4
	s-1.8-5.6-7.7-5.4c-4.4,0.1-6.7,3.9-6.6,6.6c0.1,4.4,3.1,7.1,7,12.1C135.4,123,138.8,130.2,138.8,130.2z"/>
<path fill="#C80813" d="M106.6,156.3c0,0,3.5-7.2,7.4-12.1c3.9-5,6.9-7.7,7-12.1c0-2.7-2.2-6.5-6.6-6.6c-5.9-0.2-7.7,5.4-7.7,5.4
	s-1.8-5.6-7.7-5.4c-4.4,0.1-6.7,3.9-6.6,6.6c0.1,4.4,3.1,7.1,7,12.1C103.1,149.1,106.6,156.3,106.6,156.3z"/>
<path fill="#C80813" d="M138.8,193.4c0,0-3.5,7.2-7.4,12.1c-3.9,5-6.9,7.7-7,12.1c0,2.7,2.2,6.5,6.6,6.6c5.9,0.2,7.7-5.4,7.7-5.4
	s1.8,5.6,7.7,5.4c4.4-0.1,6.7-3.9,6.6-6.6c-0.1-4.4-3.1-7.1-7-12.1C142.3,200.6,138.8,193.4,138.8,193.4z"/>
<path fill="#C80813" d="M138.8,145.1c0,0-3.5,7.2-7.4,12.1c-3.9,5-6.9,7.7-7,12.1c0,2.7,2.2,6.5,6.6,6.6c5.9,0.2,7.7-5.4,7.7-5.4
	s1.8,5.6,7.7,5.4c4.4-0.1,6.7-3.9,6.6-6.6c-0.1-4.4-3.1-7.1-7-12.1C142.3,152.3,138.8,145.1,138.8,145.1z"/>
<path fill="#C80813" d="M75.1,193.4c0,0-3.5,7.2-7.4,12.1c-3.9,5-6.9,7.7-7,12.1c0,2.7,2.2,6.5,6.6,6.6c5.9,0.2,7.7-5.4,7.7-5.4
	s1.8,5.6,7.7,5.4c4.4-0.1,6.7-3.9,6.6-6.6c-0.1-4.4-3.1-7.1-7-12.1C78.6,200.6,75.1,193.4,75.1,193.4z"/>
<path fill="#C80813" d="M75.1,145.1c0,0-3.5,7.2-7.4,12.1c-3.9,5-6.9,7.7-7,12.1c0,2.7,2.2,6.5,6.6,6.6c5.9,0.2,7.7-5.4,7.7-5.4
	s1.8,5.6,7.7,5.4c4.4-0.1,6.7-3.9,6.6-6.6c-0.1-4.4-3.1-7.1-7-12.1C78.6,152.3,75.1,145.1,75.1,145.1z"/>
<rect x="52.6" y="41.2" fill="none" stroke="#C80813" stroke-miterlimit="10" width="108.2" height="192.5"/>
<g id="Layer_2_1_">
</g>
</svg>
