<?xml version="1.0" encoding="utf-8"?>
<!-- Generator: Adobe Illustrator 19.2.0, SVG Export Plug-In . SVG Version: 6.00 Build 0)  -->
<svg version="1.1" baseProfile="tiny" id="Layer_2" xmlns="http://www.w3.org/2000/svg" xmlns:xlink="http://www.w3.org/1999/xlink"
	 x="0px" y="0px" viewBox="0 0 170 244" xml:space="preserve">
<metadata><?xpacket begin="﻿" id="W5M0MpCehiHzreSzNTczkc9d"?>
<x:xmpmeta xmlns:x="adobe:ns:meta/" x:xmptk="Adobe XMP Core 5.6-c111 79.158366, 2015/09/25-01:12:00        ">
   <rdf:RDF xmlns:rdf="http://www.w3.org/1999/02/22-rdf-syntax-ns#">
      <rdf:Description rdf:about=""/>
   </rdf:RDF>
</x:xmpmeta>
                                                                                                    
                                                                                                    
                                                                                                    
                                                                                                    
                                                                                                    
                                                                                                    
                                                                                                    
                                                                                                    
                                                                                                    
                                                                                                    
                                                                                                    
                                                                                                    
                                                                                                    
                                                                                                    
                                                                                                    
                                                                                                    
                                                                                                    
                                                                                                    
                                                                                                    
                                                                                                    
                           
<?xpacket end="w"?></metadata>
<path fill="#FFFFFF" d="M17,0h136c9.4,0,17,7.6,17,17.1v209.8c0,9.4-7.6,17.1-17,17.1H17c-9.4,0-17-7.6-17-17.1V17.1
	C0,7.6,7.6,0,17,0z"/>
<path fill="#1F1A17" d="M27.2,12.6L27.2,12.6c6.4,0,11.6,5.3,11.6,11.7v7.2c0,0.2,0,0.5,0,0.7l0,0v20.5v1.7V56
	c0,6.4-5.2,11.7-11.6,11.7l0,0c-6.4,0-11.6-5.3-11.6-11.7v-3.3H20v2.1c0,4,3.3,7.3,7.2,7.3l0,0c4,0,7.2-3.3,7.2-7.3v-0.4h-0.1V40.7
	c-2,1.5-4.4,2.4-7.1,2.4l0,0c-6.4,0-11.6-5.3-11.6-11.7v-7.2C15.6,17.8,20.8,12.6,27.2,12.6L27.2,12.6z M27.2,18.6
	c-4,0-7.2,3.3-7.2,7.3v4.4c0,4,3.3,7.3,7.2,7.3l0,0c4,0,7.2-3.3,7.2-7.3v-4.4C34.4,21.9,31.2,18.6,27.2,18.6L27.2,18.6z"/>
<path fill="#171717" d="M33.8,115.3c0,0-1.8-2.1-3.1-5.2c-1.3-3-1.8-5.3-1.8-5.3s4.8,2.1,7.8,2.1s9.8-1.8,10-9.1
	c0.2-7.3-7.3-12.9-11.9-18.2c-4.7-5.3-7.3-9.9-7.3-9.9s-2.7,4.6-7.3,9.9C15.5,84.8,8,90.4,8.2,97.7c0.2,7.3,6.9,9.1,10,9.1
	s7.8-2.1,7.8-2.1s-0.5,2.2-1.8,5.3c-1.3,3-3.1,5.2-3.1,5.2h12.7V115.3z"/>
<path fill="#171717" d="M78.2,85.4c0,0-1.2-1.5-2.2-3.6c-0.9-2.1-1.2-3.7-1.2-3.7s3.3,1.5,5.4,1.5s6.8-1.2,6.9-6.3
	c0.1-5.1-5-9-8.3-12.6c-3.2-3.7-5.1-6.9-5.1-6.9s-1.9,3.2-5.1,6.9c-3.2,3.7-8.4,7.5-8.3,12.6s4.8,6.3,6.9,6.3s5.4-1.5,5.4-1.5
	s-0.3,1.5-1.2,3.7c-0.9,2.1-2.2,3.6-2.2,3.6H78.2z"/>
<path fill="#171717" d="M142.9,85.4c0,0-1.2-1.5-2.2-3.6c-0.9-2.1-1.2-3.7-1.2-3.7s3.3,1.5,5.4,1.5c2.1,0,6.8-1.2,6.9-6.3
	c0.1-5.1-5-9-8.3-12.6c-3.2-3.7-5.1-6.9-5.1-6.9s-1.9,3.2-5.1,6.9c-3.2,3.7-8.4,7.5-8.3,12.6s4.8,6.3,6.9,6.3c2.1,0,5.4-1.5,5.4-1.5
	s-0.3,1.5-1.2,3.7c-0.9,2.1-2.2,3.6-2.2,3.6H142.9z"/>
<path fill="#171717" d="M78.2,132.7c0,0-1.2-1.5-2.2-3.6c-0.9-2.1-1.2-3.7-1.2-3.7s3.3,1.5,5.4,1.5s6.8-1.2,6.9-6.3
	c0.1-5.1-5-9-8.3-12.6c-3.2-3.7-5.1-6.9-5.1-6.9s-1.9,3.2-5.1,6.9s-8.4,7.5-8.3,12.6s4.8,6.3,6.9,6.3s5.4-1.5,5.4-1.5
	s-0.3,1.5-1.2,3.7c-0.9,2.1-2.2,3.6-2.2,3.6H78.2z"/>
<path fill="#171717" d="M142.9,132.7c0,0-1.2-1.5-2.2-3.6c-0.9-2.1-1.2-3.7-1.2-3.7s3.3,1.5,5.4,1.5c2.1,0,6.8-1.2,6.9-6.3
	c0.1-5.1-5-9-8.3-12.6c-3.2-3.7-5.1-6.9-5.1-6.9s-1.9,3.2-5.1,6.9s-8.4,7.5-8.3,12.6s4.8,6.3,6.9,6.3c2.1,0,5.4-1.5,5.4-1.5
	s-0.3,1.5-1.2,3.7c-0.9,2.1-2.2,3.6-2.2,3.6H142.9z"/>
<path fill="#171717" d="M110.4,153.2c0,0-1.2-1.5-2.2-3.6c-0.9-2.1-1.2-3.7-1.2-3.7s3.3,1.5,5.4,1.5s6.8-1.2,6.9-6.3s-5-9-8.3-12.6
	c-3.2-3.7-5.1-6.9-5.1-6.9s-1.9,3.2-5.1,6.9c-3.2,3.7-8.4,7.5-8.3,12.6c0.1,5.1,4.8,6.3,6.9,6.3s5.4-1.5,5.4-1.5s-0.3,1.5-1.2,3.7
	c-0.9,2.1-2.2,3.6-2.2,3.6H110.4z"/>
<path fill="#171717" d="M135.4,189.9c0,0,1.2,1.5,2.2,3.6c0.9,2.1,1.2,3.7,1.2,3.7s-3.3-1.5-5.4-1.5c-2.1,0-6.8,1.2-6.9,6.3
	s5,9,8.3,12.6c3.2,3.7,5.1,6.9,5.1,6.9s1.9-3.2,5.1-6.9s8.4-7.5,8.3-12.6c-0.1-5.1-4.8-6.3-6.9-6.3c-2.1,0-5.4,1.5-5.4,1.5
	s0.3-1.5,1.2-3.7c0.9-2.1,2.2-3.6,2.2-3.6H135.4z"/>
<path fill="#171717" d="M70.7,189.9c0,0,1.2,1.5,2.2,3.6c0.9,2.1,1.2,3.7,1.2,3.7s-3.3-1.5-5.4-1.5s-6.8,1.2-6.9,6.3
	c-0.1,5.1,5,9,8.3,12.6c3.2,3.7,5.1,6.9,5.1,6.9s1.9-3.2,5.1-6.9s8.4-7.5,8.3-12.6s-4.8-6.3-6.9-6.3s-5.4,1.5-5.4,1.5
	s0.3-1.5,1.2-3.7c0.9-2.1,2.2-3.6,2.2-3.6H70.7z"/>
<path fill="#171717" d="M135.4,142.6c0,0,1.2,1.5,2.2,3.6c0.9,2.1,1.2,3.7,1.2,3.7s-3.3-1.5-5.4-1.5c-2.1,0-6.8,1.2-6.9,6.3
	s5,9,8.3,12.6c3.2,3.7,5.1,6.9,5.1,6.9s1.9-3.2,5.1-6.9c3.2-3.7,8.4-7.5,8.3-12.6c-0.1-5.1-4.8-6.3-6.9-6.3c-2.1,0-5.4,1.5-5.4,1.5
	s0.3-1.5,1.2-3.7c0.9-2.1,2.2-3.6,2.2-3.6H135.4z"/>
<path fill="#171717" d="M70.7,142.6c0,0,1.2,1.5,2.2,3.6c0.9,2.1,1.2,3.7,1.2,3.7s-3.3-1.5-5.4-1.5s-6.8,1.2-6.9,6.3s5,9,8.3,12.6
	c3.2,3.7,5.1,6.9,5.1,6.9s1.9-3.2,5.1-6.9s8.4-7.5,8.3-12.6s-4.8-6.3-6.9-6.3s-5.4,1.5-5.4,1.5s0.3-1.5,1.2-3.7
	c0.9-2.1,2.2-3.6,2.2-3.6H70.7z"/>
<rect x="52.6" y="41.2" fill="none" stroke="#000000" stroke-miterlimit="10" width="108.2" height="192.5"/>
</svg>
