<?xml version="1.0" encoding="utf-8"?>
<!-- Generator: Adobe Illustrator 19.2.0, SVG Export Plug-In . SVG Version: 6.00 Build 0)  -->
<svg version="1.1" baseProfile="tiny" id="Layer_5" xmlns="http://www.w3.org/2000/svg" xmlns:xlink="http://www.w3.org/1999/xlink"
	 x="0px" y="0px" viewBox="0 0 170 244" xml:space="preserve">
<metadata><?xpacket begin="﻿" id="W5M0MpCehiHzreSzNTczkc9d"?>
<x:xmpmeta xmlns:x="adobe:ns:meta/" x:xmptk="Adobe XMP Core 5.6-c111 79.158366, 2015/09/25-01:12:00        ">
   <rdf:RDF xmlns:rdf="http://www.w3.org/1999/02/22-rdf-syntax-ns#">
      <rdf:Description rdf:about=""/>
   </rdf:RDF>
</x:xmpmeta>
                                                                                                    
                                                                                                    
                                                                                                    
                                                                                                    
                                                                                                    
                                                                                                    
                                                                                                    
                                                                                                    
                                                                                                    
                                                                                                    
                                                                                                    
                                                                                                    
                                                                                                    
                                                                                                    
                                                                                                    
                                                                                                    
                                                                                                    
                                                                                                    
                                                                                                    
                                                                                                    
                           
<?xpacket end="w"?></metadata>
<path fill="#FFFFFF" d="M17,0h136c9.4,0,17,7.6,17,17.1v209.8c0,9.4-7.6,17.1-17,17.1H17c-9.4,0-17-7.6-17-17.1V17.1
	C0,7.6,7.6,0,17,0z"/>
<path fill="#1F1A17" d="M7.9,58.4h3c4.6-14.9,9.3-30.6,13.8-45.2H29c4.6,14.9,9.1,30,13.7,45h3.1v5c-5,0-10-0.1-15.1-0.1v-5h6.8
	l-3.3-10.7H19.4l-3.3,10.9h6v5H7.9V58.4L7.9,58.4z M26.8,23.2l-5.8,19.2h11.7L26.8,23.2z"/>
<path fill="#171717" d="M32.8,115.3c0,0-1.8-2.1-3.1-5.2c-1.3-3-1.8-5.3-1.8-5.3s4.8,2.1,7.8,2.1s9.8-1.8,10-9.1
	c0.2-7.3-7.3-12.9-11.9-18.2c-4.7-5.3-7.3-9.9-7.3-9.9s-2.7,4.6-7.3,9.9C14.5,84.8,7,90.4,7.2,97.7c0.2,7.3,6.9,9.1,10,9.1
	s7.8-2.1,7.8-2.1s-0.5,2.2-1.8,5.3c-1.3,3-3.1,5.2-3.1,5.2h12.7V115.3z"/>
<path fill="#171717" d="M111.2,152.9c0,0-1.2-1.5-2.2-3.6c-0.9-2.1-1.2-3.7-1.2-3.7s3.3,1.5,5.4,1.5s6.8-1.2,6.9-6.3
	c0.1-5.1-5-9-8.3-12.6c-3.2-3.7-5.1-6.9-5.1-6.9s-1.9,3.2-5.1,6.9c-3.2,3.7-8.4,7.5-8.3,12.6c0.1,5.1,4.8,6.3,6.9,6.3
	s5.4-1.5,5.4-1.5s-0.3,1.5-1.2,3.7c-0.9,2.1-2.2,3.6-2.2,3.6H111.2z"/>
<rect x="52.6" y="41.2" fill="none" stroke="#000000" stroke-miterlimit="10" width="108.2" height="192.5"/>
<path fill-rule="evenodd" fill="#171717" d="M116.1,107.9c12.5,4.2,21.6,16.4,21.6,30.8c0,17.9-13.9,32.4-31.1,32.4
	s-31.1-14.5-31.1-32.4c0-14.4,9.1-26.6,21.6-30.8c-11.8,4.3-20.2,16.2-20.2,30.3c0,17.6,13.3,31.9,29.7,31.9
	c16.4,0,29.7-14.3,29.7-31.9C136.4,124.1,127.9,112.2,116.1,107.9L116.1,107.9z M130.5,165.8L130.5,165.8c-0.4,0.1-0.4-0.1-0.8-0.2
	c-0.3-0.1-0.6-0.4-0.9-0.5c-0.4-0.1-0.5,0.1-0.9,0.2c-0.7,0.2-0.1-0.2-0.2-0.4c-0.4,0-0.7,0.1-1.1,0.2c-0.2,0-0.4,0-0.6,0.1
	c-0.2,0.1-0.3,0.3-0.4,0.4c-0.5,0.3-1.6,0.6-2,0.2c-0.1,0.5,0.4,0.3,0.7,0.4c0.3,0.1,0.3,0.4,0.4,0.7c0.1,0.3,0.1,0.6,0.3,0.8
	c0.2,0.2,0.6,0.4,0.8,0.5c0-0.1,0-0.3-0.1-0.4c0.3,0,0.7,0.3,1,0.4c0.1,0,0.2,0.1,0.3,0.1l2.9-0.7c-0.1,0-0.2-0.1-0.3-0.1
	c0.6-0.3,1.4-0.5,1.9-0.9c0.5-0.4,0.9-1,1.2-1.4c-0.1,0.1-0.5,0.4-0.9,0.6c-0.2,0.1-0.5,0.1-0.6,0.1
	C130.9,165.7,130.8,165.7,130.5,165.8L130.5,165.8L130.5,165.8z M133.9,162.6L133.9,162.6c-0.4,0.1-0.4-0.1-0.8-0.2
	c-0.3-0.1-0.6-0.4-0.9-0.5c-0.4-0.1-0.5,0.1-0.9,0.2c-0.7,0.2-0.1-0.2-0.2-0.4c-0.4,0-0.7,0.1-1.1,0.2c-0.2,0-0.4,0-0.6,0.1
	c-0.2,0.1-0.3,0.3-0.4,0.4c-0.5,0.3-1.6,0.6-2,0.2c-0.1,0.5,0.4,0.3,0.7,0.4c0.3,0.1,0.3,0.4,0.4,0.7c0.1,0.3,0.1,0.6,0.3,0.8
	c0.2,0.2,0.6,0.4,0.8,0.5c0-0.1,0-0.3-0.1-0.4c0.3,0,0.7,0.3,1,0.4c0.1,0,0.2,0.1,0.3,0.1l2.9-0.7c-0.1,0-0.2-0.1-0.3-0.1
	c0.6-0.3,1.4-0.5,1.9-0.9c0.5-0.4,0.9-1,1.2-1.4c-0.1,0.1-0.5,0.4-0.9,0.6c-0.2,0.1-0.5,0.1-0.6,0.1
	C134.2,162.6,134.1,162.6,133.9,162.6L133.9,162.6L133.9,162.6z M136.3,159L136.3,159c-0.4,0.1-0.4,0-0.7-0.1
	c-0.3-0.1-0.6-0.3-0.9-0.3c-0.4,0-0.4,0.2-0.8,0.3c-0.6,0.2-0.1-0.1-0.2-0.4c-0.3,0-0.6,0.2-0.9,0.2c-0.1,0-0.3,0-0.5,0.1
	c-0.1,0.1-0.2,0.3-0.3,0.3c-0.4,0.3-1.3,0.7-1.7,0.4c0,0.4,0.4,0.2,0.7,0.3c0.3,0.1,0.4,0.3,0.5,0.5c0.1,0.3,0.2,0.5,0.4,0.7
	c0.2,0.2,0.5,0.3,0.8,0.4c0-0.1-0.1-0.2-0.1-0.4c0.3,0,0.7,0.2,0.9,0.3c0.1,0,0.2,0,0.2,0.1l2.4-0.8c-0.1,0-0.2,0-0.3-0.1
	c0.5-0.3,1.1-0.6,1.5-1c0.3-0.4,0.6-0.9,0.8-1.4c-0.1,0.1-0.4,0.4-0.7,0.6c-0.2,0.1-0.4,0.2-0.5,0.2
	C136.6,158.9,136.5,158.9,136.3,159L136.3,159L136.3,159z M138.2,155.7L138.2,155.7c-0.4,0.1-0.4,0-0.7-0.1
	c-0.3-0.1-0.5-0.3-0.8-0.4c-0.4-0.1-0.4,0.1-0.8,0.2c-0.6,0.2-0.1-0.1-0.2-0.4c-0.3,0-0.6,0.1-1,0.2c-0.2,0-0.3,0-0.5,0.1
	c-0.1,0.1-0.2,0.2-0.3,0.3c-0.4,0.3-1.3,0.6-1.7,0.3c0,0.4,0.4,0.2,0.6,0.3c0.3,0.1,0.3,0.3,0.4,0.6c0.1,0.3,0.1,0.5,0.3,0.7
	c0.2,0.2,0.5,0.3,0.7,0.4c0-0.1-0.1-0.2-0.1-0.4c0.3,0,0.6,0.2,0.9,0.3c0.1,0,0.2,0.1,0.2,0.1l2.5-0.7c-0.1,0-0.2,0-0.3-0.1
	c0.5-0.3,1.1-0.5,1.6-0.9c0.4-0.3,0.7-0.9,0.9-1.3c-0.1,0.1-0.4,0.4-0.8,0.5c-0.2,0.1-0.4,0.1-0.6,0.2
	C138.5,155.6,138.4,155.6,138.2,155.7L138.2,155.7L138.2,155.7z M139.6,152.2L139.6,152.2c-0.4,0.1-0.4,0-0.7-0.1
	c-0.3-0.1-0.6-0.3-0.9-0.3c-0.4,0-0.4,0.2-0.7,0.3c-0.6,0.2-0.2-0.1-0.3-0.4c-0.3,0-0.6,0.2-0.9,0.3c-0.1,0-0.3,0-0.5,0.1
	c-0.1,0.1-0.2,0.3-0.3,0.4c-0.4,0.3-1.2,0.7-1.7,0.4c0.1,0.4,0.4,0.2,0.7,0.2c0.3,0,0.4,0.3,0.5,0.5c0.1,0.3,0.2,0.5,0.5,0.7
	c0.2,0.1,0.6,0.2,0.8,0.4c0-0.1-0.1-0.2-0.2-0.4c0.3,0,0.7,0.2,1,0.2c0.1,0,0.2,0,0.3,0l2.3-0.9c-0.1,0-0.2,0-0.3-0.1
	c0.4-0.4,1-0.6,1.4-1c0.3-0.4,0.5-0.9,0.6-1.4c-0.1,0.1-0.3,0.4-0.7,0.6c-0.2,0.1-0.4,0.2-0.5,0.2
	C139.9,152.1,139.8,152.1,139.6,152.2L139.6,152.2L139.6,152.2z M140.8,148.7L140.8,148.7c-0.3,0.2-0.4,0-0.7-0.1
	c-0.3-0.1-0.6-0.2-0.9-0.3c-0.4,0-0.4,0.2-0.7,0.3c-0.6,0.3-0.2-0.1-0.3-0.3c-0.3,0-0.6,0.2-0.9,0.3c-0.1,0-0.3,0.1-0.5,0.1
	c-0.1,0.1-0.1,0.3-0.2,0.4c-0.3,0.3-1.2,0.8-1.6,0.5c0.1,0.4,0.4,0.2,0.7,0.2c0.3,0,0.4,0.3,0.5,0.5c0.2,0.3,0.2,0.5,0.5,0.7
	c0.2,0.1,0.6,0.2,0.8,0.3c-0.1-0.1-0.1-0.2-0.2-0.4c0.3-0.1,0.7,0.1,1,0.2c0.1,0,0.2,0,0.3,0l2.3-1c-0.1,0-0.2,0-0.3-0.1
	c0.4-0.4,1-0.7,1.3-1.1c0.3-0.4,0.5-1,0.5-1.4c-0.1,0.1-0.3,0.4-0.6,0.6c-0.2,0.1-0.3,0.2-0.5,0.2
	C141.1,148.6,141,148.6,140.8,148.7L140.8,148.7L140.8,148.7z M141.6,144.9L141.6,144.9c-0.3,0.2-0.4,0.1-0.7,0
	c-0.3,0-0.7-0.2-1-0.1c-0.4,0-0.3,0.2-0.6,0.4c-0.5,0.3-0.2-0.1-0.4-0.3c-0.3,0.1-0.5,0.3-0.8,0.4c-0.1,0.1-0.3,0.1-0.4,0.2
	c-0.1,0.1-0.1,0.3-0.1,0.4c-0.2,0.4-0.9,0.9-1.5,0.7c0.2,0.4,0.5,0.1,0.7,0.1c0.3,0,0.5,0.2,0.7,0.4c0.2,0.2,0.4,0.5,0.7,0.6
	c0.3,0.1,0.6,0.1,0.9,0.2c-0.1-0.1-0.2-0.2-0.3-0.3c0.3-0.1,0.7,0,1,0.1c0.1,0,0.2,0,0.3,0l1.9-1.3c-0.1,0-0.2,0-0.3,0
	c0.3-0.4,0.8-0.8,1-1.2c0.2-0.4,0.2-1,0.1-1.4c0,0.1-0.2,0.5-0.4,0.7c-0.2,0.1-0.3,0.2-0.4,0.3C141.8,144.8,141.7,144.8,141.6,144.9
	L141.6,144.9L141.6,144.9z M142,141.3L142,141.3c-0.3,0.2-0.4,0.1-0.7,0.1c-0.3,0-0.7-0.1-1-0.1c-0.4,0.1-0.3,0.3-0.5,0.5
	c-0.4,0.4-0.2-0.1-0.4-0.3c-0.3,0.1-0.5,0.3-0.7,0.5c-0.1,0.1-0.3,0.1-0.4,0.2c-0.1,0.1,0,0.3-0.1,0.4c-0.2,0.4-0.8,1-1.4,0.8
	c0.3,0.4,0.5,0.1,0.7,0.1c0.3,0,0.5,0.2,0.7,0.4c0.3,0.2,0.4,0.4,0.8,0.6c0.3,0.1,0.6,0.1,0.9,0.2c-0.1-0.1-0.2-0.2-0.3-0.3
	c0.3-0.1,0.7,0,1,0c0.1,0,0.2,0,0.3,0l1.8-1.4c-0.1,0-0.2,0-0.3,0c0.2-0.4,0.7-0.8,0.8-1.3c0.1-0.4,0.1-1-0.1-1.4
	c0,0.1-0.1,0.5-0.3,0.7c-0.1,0.1-0.3,0.2-0.4,0.3C142.3,141.2,142.2,141.2,142,141.3L142,141.3L142,141.3z M141.8,137.8L141.8,137.8
	c-0.2,0.2-0.3,0.1-0.7,0.1c-0.3,0-0.6-0.1-0.9-0.1c-0.4,0.1-0.3,0.2-0.5,0.4c-0.4,0.3-0.2-0.1-0.4-0.3c-0.3,0.1-0.4,0.3-0.7,0.4
	c-0.1,0.1-0.3,0.1-0.4,0.2c-0.1,0.1,0,0.3-0.1,0.4c-0.2,0.4-0.7,0.9-1.2,0.7c0.2,0.4,0.4,0.1,0.7,0.1c0.3,0,0.5,0.2,0.7,0.3
	c0.2,0.2,0.4,0.4,0.7,0.5c0.3,0.1,0.6,0.1,0.8,0.1c-0.1-0.1-0.2-0.2-0.3-0.3c0.2-0.1,0.7,0,0.9,0c0.1,0,0.2,0,0.2,0l1.6-1.3
	c-0.1,0-0.2,0-0.3,0c0.2-0.4,0.6-0.8,0.7-1.2c0.1-0.4,0.1-0.9-0.1-1.3c0,0.1-0.1,0.4-0.3,0.7c-0.1,0.1-0.2,0.2-0.4,0.3
	C142,137.7,141.9,137.7,141.8,137.8L141.8,137.8L141.8,137.8z M141.2,134.6L141.2,134.6c-0.2,0.2-0.3,0.1-0.6,0.1
	c-0.3,0-0.6-0.1-0.8-0.1c-0.3,0.1-0.2,0.2-0.5,0.4c-0.4,0.3-0.2-0.1-0.4-0.2c-0.2,0.1-0.4,0.3-0.6,0.4c-0.1,0.1-0.3,0.1-0.3,0.2
	c-0.1,0.1,0,0.2-0.1,0.3c-0.2,0.3-0.7,0.8-1.1,0.7c0.2,0.3,0.4,0.1,0.6,0.1c0.3,0,0.4,0.2,0.6,0.3c0.2,0.2,0.4,0.4,0.6,0.5
	c0.2,0.1,0.5,0.1,0.8,0.1c-0.1-0.1-0.2-0.2-0.3-0.3c0.2-0.1,0.6,0,0.9,0c0.1,0,0.2,0,0.2,0l1.5-1.2c-0.1,0-0.2,0-0.3,0
	c0.2-0.4,0.6-0.7,0.7-1.1c0.1-0.4,0.1-0.8,0-1.2c0,0.1-0.1,0.4-0.3,0.6c-0.1,0.1-0.2,0.2-0.3,0.3
	C141.4,134.5,141.3,134.5,141.2,134.6L141.2,134.6L141.2,134.6z M140.8,131.4L140.8,131.4c-0.2,0.2-0.3,0.1-0.6,0.1
	c-0.3,0-0.6-0.1-0.8,0c-0.3,0.1-0.2,0.2-0.4,0.4c-0.3,0.3-0.2,0-0.4-0.2c-0.2,0.1-0.4,0.3-0.5,0.4c-0.1,0.1-0.2,0.1-0.3,0.2
	c-0.1,0.1,0,0.2,0,0.3c-0.1,0.3-0.6,0.8-1,0.7c0.3,0.3,0.4,0.1,0.6,0c0.3,0,0.4,0.1,0.6,0.3c0.2,0.2,0.4,0.3,0.7,0.4
	c0.2,0.1,0.5,0.1,0.8,0.1c-0.1-0.1-0.2-0.2-0.3-0.2c0.2-0.1,0.6,0,0.8,0c0.1,0,0.2,0,0.2,0l1.3-1.2c-0.1,0-0.2,0-0.3,0
	c0.1-0.4,0.5-0.7,0.5-1.1c0.1-0.4,0-0.8-0.2-1.2c0,0.1,0,0.4-0.2,0.6c-0.1,0.1-0.2,0.2-0.3,0.3C141,131.3,140.9,131.3,140.8,131.4
	L140.8,131.4L140.8,131.4z M139.7,128.6L139.7,128.6c-0.2,0.2-0.3,0.1-0.5,0.1c-0.2,0-0.5,0-0.7,0c-0.3,0.1-0.2,0.2-0.3,0.4
	c-0.3,0.3-0.2,0-0.4-0.2c-0.2,0.1-0.3,0.3-0.5,0.4c-0.1,0.1-0.2,0.1-0.3,0.2c0,0.1,0,0.2,0,0.3c-0.1,0.3-0.5,0.8-0.9,0.7
	c0.3,0.3,0.4,0,0.6,0c0.2,0,0.4,0.1,0.6,0.2c0.2,0.1,0.4,0.3,0.7,0.4c0.2,0,0.5,0,0.7,0.1c-0.1-0.1-0.2-0.1-0.3-0.2
	c0.2-0.1,0.5-0.1,0.8-0.1c0.1,0,0.1,0,0.2,0l1.1-1.2c-0.1,0-0.2,0-0.2,0c0.1-0.3,0.4-0.7,0.4-1c0-0.3-0.1-0.8-0.3-1.1
	c0,0.1,0,0.4-0.1,0.6c-0.1,0.1-0.2,0.2-0.2,0.3C139.9,128.5,139.8,128.5,139.7,128.6L139.7,128.6L139.7,128.6z M138.7,125.9
	L138.7,125.9c-0.2,0.2-0.2,0.1-0.5,0.1c-0.2,0-0.5,0-0.7,0c-0.3,0.1-0.2,0.2-0.3,0.3c-0.3,0.3-0.2,0-0.3-0.2
	c-0.2,0.1-0.3,0.2-0.4,0.4c-0.1,0.1-0.2,0.1-0.2,0.2c0,0.1,0,0.2,0,0.3c-0.1,0.3-0.4,0.7-0.8,0.6c0.2,0.3,0.3,0,0.5,0
	c0.2,0,0.4,0.1,0.6,0.2c0.2,0.1,0.4,0.3,0.6,0.3c0.2,0,0.5,0,0.7,0.1c-0.1-0.1-0.2-0.1-0.3-0.2c0.2-0.1,0.5,0,0.7-0.1
	c0.1,0,0.1,0,0.2,0l1-1.1c-0.1,0-0.1,0-0.2,0c0.1-0.3,0.3-0.6,0.4-0.9c0-0.3-0.1-0.7-0.2-1c0,0.1,0,0.3-0.1,0.5
	c-0.1,0.1-0.1,0.2-0.2,0.2C138.8,125.8,138.7,125.8,138.7,125.9L138.7,125.9L138.7,125.9z M137.3,123.4L137.3,123.4
	c-0.1,0.2-0.2,0.1-0.4,0.1c-0.2,0-0.4,0-0.6,0c-0.2,0.1-0.1,0.2-0.2,0.3c-0.2,0.3-0.1,0-0.3-0.1c-0.2,0.1-0.2,0.2-0.4,0.4
	c-0.1,0.1-0.2,0.1-0.2,0.2c0,0.1,0,0.2,0,0.2c0,0.3-0.3,0.7-0.7,0.6c0.2,0.2,0.3,0,0.5,0c0.2,0,0.4,0.1,0.5,0.2
	c0.2,0.1,0.4,0.2,0.6,0.3c0.2,0,0.4,0,0.6,0c-0.1-0.1-0.2-0.1-0.3-0.2c0.1-0.1,0.4-0.1,0.6-0.1c0.1,0,0.1,0,0.2,0l0.8-1
	c-0.1,0-0.1,0-0.2,0c0.1-0.3,0.3-0.6,0.2-0.9c0-0.3-0.2-0.6-0.3-0.9c0,0,0,0.3-0.1,0.5c-0.1,0.1-0.1,0.2-0.2,0.2
	C137.5,123.3,137.4,123.3,137.3,123.4L137.3,123.4L137.3,123.4z M136.5,121.2L136.5,121.2c-0.1,0.2-0.2,0.1-0.4,0.1
	c-0.2,0-0.4,0-0.6,0c-0.2,0.1-0.1,0.2-0.2,0.3c-0.2,0.3-0.1,0-0.3-0.1c-0.2,0.1-0.2,0.2-0.4,0.4c-0.1,0.1-0.2,0.1-0.2,0.2
	c0,0.1,0,0.2,0,0.3c0,0.3-0.3,0.7-0.7,0.6c0.2,0.2,0.3,0,0.5,0c0.2,0,0.4,0.1,0.5,0.2c0.2,0.1,0.4,0.2,0.6,0.3c0.2,0,0.4,0,0.6,0
	c-0.1-0.1-0.2-0.1-0.3-0.2c0.1-0.1,0.4-0.1,0.6-0.1c0.1,0,0.1,0,0.2,0l0.8-1c-0.1,0-0.1,0-0.2,0c0.1-0.3,0.3-0.6,0.2-0.9
	c0-0.3-0.2-0.6-0.3-0.9c0,0,0,0.3-0.1,0.5c-0.1,0.1-0.1,0.2-0.2,0.2C136.6,121.1,136.5,121.1,136.5,121.2L136.5,121.2L136.5,121.2z
	 M134.6,119L134.6,119c-0.1,0.1-0.2,0.1-0.4,0.1c-0.2,0-0.4,0-0.6,0c-0.2,0.1-0.1,0.2-0.2,0.3c-0.2,0.2-0.1,0-0.3-0.1
	c-0.1,0.1-0.2,0.2-0.3,0.3c-0.1,0.1-0.2,0.1-0.2,0.2c0,0.1,0,0.2,0,0.2c0,0.2-0.3,0.6-0.6,0.6c0.2,0.2,0.3,0,0.4,0
	c0.2,0,0.3,0.1,0.5,0.2c0.2,0.1,0.3,0.2,0.5,0.3c0.2,0,0.4,0,0.5,0c-0.1-0.1-0.2-0.1-0.2-0.1c0.1-0.1,0.4-0.1,0.6-0.1
	c0.1,0,0.1,0,0.1,0l0.8-0.9c-0.1,0-0.1,0-0.2,0c0.1-0.3,0.2-0.5,0.2-0.8c0-0.3-0.1-0.6-0.3-0.8c0,0,0,0.3-0.1,0.4
	c-0.1,0.1-0.1,0.2-0.2,0.2C134.7,118.9,134.7,119,134.6,119L134.6,119L134.6,119z M133,117L133,117c-0.1,0.1-0.2,0.1-0.4,0.1
	c-0.2,0-0.4,0-0.5,0c-0.2,0.1-0.1,0.2-0.2,0.3c-0.2,0.2-0.1,0-0.3-0.1c-0.1,0.1-0.2,0.2-0.3,0.3c0,0-0.1,0.1-0.2,0.1
	c0,0.1,0,0.2,0,0.2c0,0.2-0.3,0.6-0.6,0.5c0.2,0.2,0.3,0,0.4,0c0.2,0,0.3,0.1,0.4,0.1c0.2,0.1,0.3,0.2,0.5,0.2c0.2,0,0.4,0,0.5,0
	c-0.1,0-0.1-0.1-0.2-0.1c0.1-0.1,0.4-0.1,0.5-0.1c0.1,0,0.1,0,0.1,0l0.7-0.9c-0.1,0-0.1,0-0.2,0c0.1-0.2,0.2-0.5,0.2-0.7
	c0-0.2-0.1-0.5-0.3-0.8c0,0,0,0.3-0.1,0.4c0,0.1-0.1,0.1-0.2,0.2C133.1,116.9,133,116.9,133,117L133,117L133,117z M131.3,115.3
	L131.3,115.3c-0.1,0.1-0.2,0.1-0.3,0.1c-0.1,0-0.3,0-0.5,0c-0.2,0.1-0.1,0.1-0.2,0.3c-0.2,0.2-0.1,0-0.2-0.1
	c-0.1,0.1-0.2,0.2-0.3,0.3c0,0-0.1,0.1-0.2,0.1c0,0.1,0,0.1,0,0.2c0,0.2-0.2,0.5-0.5,0.5c0.2,0.2,0.2,0,0.4,0c0.1,0,0.3,0.1,0.4,0.1
	c0.2,0.1,0.3,0.2,0.4,0.2c0.1,0,0.3,0,0.5,0c-0.1,0-0.1-0.1-0.2-0.1c0.1-0.1,0.3,0,0.5-0.1c0,0,0.1,0,0.1,0l0.6-0.8c0,0-0.1,0-0.2,0
	c0-0.2,0.2-0.4,0.2-0.7c0-0.2-0.1-0.5-0.2-0.7c0,0,0,0.2-0.1,0.4c0,0.1-0.1,0.1-0.1,0.2C131.4,115.2,131.3,115.2,131.3,115.3
	L131.3,115.3L131.3,115.3z M129.7,113.4L129.7,113.4c-0.1,0.1-0.1,0.1-0.3,0.1c-0.1,0-0.3,0-0.5,0.1c-0.2,0.1-0.1,0.2-0.1,0.3
	c-0.1,0.2-0.1,0-0.3-0.1c-0.1,0.1-0.1,0.2-0.2,0.3c0,0-0.1,0.1-0.1,0.1c0,0.1,0.1,0.1,0.1,0.2c0,0.2-0.1,0.5-0.4,0.5
	c0.2,0.2,0.2,0,0.4-0.1c0.1,0,0.3,0,0.4,0.1c0.2,0.1,0.3,0.2,0.5,0.2c0.2,0,0.3,0,0.5,0c-0.1,0-0.2-0.1-0.2-0.1
	c0.1-0.1,0.3-0.1,0.5-0.1c0,0,0.1,0,0.1,0l0.5-0.8c0,0-0.1,0-0.1,0c0-0.2,0.1-0.5,0.1-0.7c0-0.2-0.2-0.5-0.4-0.7c0,0,0.1,0.2,0,0.4
	c0,0.1-0.1,0.1-0.1,0.2C129.7,113.3,129.7,113.3,129.7,113.4L129.7,113.4L129.7,113.4z M127.6,111.8L127.6,111.8
	c-0.1,0.1-0.1,0.1-0.3,0.1c-0.1,0-0.3,0-0.4,0.1c-0.1,0.1,0,0.1-0.1,0.3c-0.1,0.2-0.1,0-0.3-0.1c-0.1,0.1-0.1,0.2-0.2,0.3
	c0,0-0.1,0.1-0.1,0.1c0,0,0.1,0.1,0.1,0.2c0,0.2-0.1,0.5-0.4,0.5c0.2,0.1,0.2,0,0.3-0.1c0.1-0.1,0.3,0,0.4,0.1
	c0.2,0.1,0.3,0.1,0.5,0.1c0.1,0,0.3,0,0.4,0c-0.1,0-0.1-0.1-0.2-0.1c0.1-0.1,0.3-0.1,0.4-0.1c0,0,0.1,0,0.1,0l0.4-0.8
	c0,0-0.1,0-0.1,0c0-0.2,0.1-0.4,0-0.6c-0.1-0.2-0.2-0.4-0.4-0.6c0,0,0.1,0.2,0.1,0.3c0,0.1,0,0.1-0.1,0.2
	C127.6,111.7,127.6,111.7,127.6,111.8L127.6,111.8L127.6,111.8z M125.5,110.2L125.5,110.2c0,0.1-0.1,0.1-0.2,0.2
	c-0.1,0.1-0.3,0.1-0.4,0.2c-0.1,0.1,0,0.1,0,0.3c0,0.2-0.1,0-0.3,0c-0.1,0.1,0,0.2-0.1,0.3c0,0-0.1,0.1-0.1,0.2c0,0,0.1,0.1,0.1,0.2
	c0.1,0.2,0.1,0.5-0.2,0.5c0.3,0.1,0.2-0.1,0.3-0.1c0.1-0.1,0.3,0,0.4,0c0.2,0,0.3,0.1,0.5,0.1c0.1,0,0.3-0.1,0.4-0.1
	c-0.1,0-0.2,0-0.2-0.1c0.1-0.1,0.3-0.1,0.4-0.2c0,0,0.1,0,0.1-0.1l0.1-0.8c0,0-0.1,0-0.1,0.1c-0.1-0.2-0.1-0.4-0.2-0.6
	c-0.1-0.2-0.4-0.4-0.6-0.5c0,0,0.2,0.2,0.2,0.3c0,0.1,0,0.1,0,0.2C125.5,110.1,125.5,110.1,125.5,110.2L125.5,110.2L125.5,110.2z
	 M126,169.2L126,169.2c-0.5,0-0.4-0.1-0.7-0.3c-0.3-0.2-0.4-0.5-0.7-0.6c-0.4-0.2-0.5,0.1-1,0.1c-0.8,0.1-0.1-0.2,0-0.5
	c-0.4-0.1-0.7,0-1.1,0c-0.2,0-0.4-0.1-0.6,0c-0.2,0-0.4,0.2-0.5,0.3c-0.6,0.2-1.8,0.4-2-0.1c-0.2,0.5,0.3,0.3,0.5,0.5
	c0.3,0.1,0.2,0.4,0.2,0.7c0,0.3-0.1,0.6,0,0.9c0.1,0.2,0.4,0.4,0.6,0.6c0-0.1,0-0.3,0.1-0.4c0.3,0,0.6,0.4,0.9,0.5
	c0.1,0.1,0.2,0.1,0.2,0.1l3.1-0.2c-0.1-0.1-0.2-0.1-0.3-0.2c0.7-0.2,1.5-0.3,2.1-0.7c0.6-0.3,1.2-0.8,1.6-1.2
	c-0.1,0-0.6,0.4-1.1,0.4c-0.3,0-0.5,0.1-0.7,0C126.4,169.2,126.2,169.2,126,169.2L126,169.2L126,169.2z M116.8,163.3L116.8,163.3
	L116.8,163.3c0-0.2-0.1-0.3-0.1-0.3c0-0.1,0-0.3,0-0.5c0.1-0.3,0.5-0.7,0.5-0.8c-0.6,0.3-1.3,0.8-1.7,1.2c-0.4,0.5-0.5,1-0.8,1.5
	c-0.1,0-0.2-0.1-0.3-0.2l0,2.1c0,0,0.1,0.1,0.2,0.1c0.3,0.2,0.8,0.3,0.9,0.5c-0.2,0-0.4,0.1-0.6,0.1c0.3,0.1,0.6,0.3,1,0.3
	c0.4,0.1,0.8,0,1.3-0.1c0.4,0,0.8-0.1,1,0.1c0.2,0.2,0,0.5,0.7,0.3c-0.7-0.1-0.6-0.9-0.3-1.4c0.1-0.1,0.3-0.3,0.4-0.4
	c0-0.1-0.1-0.3-0.1-0.4c0-0.3,0-0.5-0.1-0.8c-0.4,0.1-0.7,0.6-0.7,0c0-0.3,0.3-0.4,0.1-0.7c-0.2-0.2-0.6-0.3-0.9-0.4
	C117,163.5,116.8,163.6,116.8,163.3L116.8,163.3z M121.4,160.8L121.4,160.8L121.4,160.8c0-0.2,0-0.2-0.1-0.3c0-0.1,0-0.3,0-0.4
	c0.1-0.3,0.5-0.7,0.6-0.7c-0.6,0.3-1.3,0.7-1.7,1.1c-0.4,0.4-0.5,1-0.9,1.4c-0.1,0-0.2-0.1-0.2-0.2l-0.2,2c0,0,0.1,0.1,0.2,0.2
	c0.2,0.2,0.7,0.3,0.8,0.5c-0.2,0-0.4,0-0.6,0.1c0.3,0.1,0.6,0.3,0.9,0.4c0.4,0.1,0.8,0,1.2,0c0.4,0,0.8-0.1,1,0.1
	c0.2,0.2,0,0.5,0.7,0.3c-0.6-0.2-0.5-0.9-0.2-1.3c0.1-0.1,0.3-0.2,0.4-0.3c0.1-0.1,0-0.3-0.1-0.4c0-0.3,0.1-0.5,0-0.7
	c-0.4,0-0.7,0.5-0.6,0c0-0.3,0.3-0.4,0.1-0.6c-0.2-0.2-0.6-0.3-0.8-0.5C121.5,161.1,121.3,161.2,121.4,160.8L121.4,160.8z
	 M125,158.2L125,158.2L125,158.2c0-0.1,0-0.2-0.1-0.3c0-0.1,0-0.3,0-0.4c0.1-0.3,0.4-0.6,0.5-0.7c-0.5,0.3-1.2,0.7-1.5,1.1
	c-0.4,0.4-0.4,0.9-0.7,1.3c-0.1,0-0.2-0.1-0.2-0.2l-0.1,1.9c0,0,0.1,0.1,0.2,0.1c0.2,0.1,0.7,0.3,0.8,0.5c-0.2,0-0.4,0-0.5,0.1
	c0.3,0.1,0.5,0.2,0.9,0.3c0.3,0.1,0.7,0,1.1-0.1c0.4,0,0.7-0.1,0.9,0.1c0.2,0.1,0,0.5,0.6,0.3c-0.6-0.1-0.5-0.8-0.2-1.2
	c0.1-0.1,0.3-0.2,0.3-0.3c0-0.1-0.1-0.2-0.1-0.3c0-0.2,0-0.5-0.1-0.7c-0.4,0.1-0.6,0.5-0.6,0c0-0.3,0.3-0.4,0.1-0.6
	c-0.2-0.2-0.6-0.2-0.8-0.4C125.2,158.4,125,158.5,125,158.2L125,158.2z M127.9,154.7L127.9,154.7L127.9,154.7c0-0.1-0.1-0.2-0.1-0.3
	c0-0.1,0-0.2,0-0.4c0-0.3,0.3-0.6,0.4-0.7c-0.5,0.3-1,0.7-1.3,1.1c-0.3,0.4-0.3,0.9-0.5,1.3c-0.1,0-0.2-0.1-0.2-0.1l0.2,1.8
	c0,0,0.1,0.1,0.2,0.1c0.2,0.1,0.7,0.2,0.8,0.4c-0.2,0-0.4,0.1-0.5,0.1c0.3,0.1,0.6,0.2,0.9,0.2c0.3,0,0.7-0.1,1.1-0.1
	c0.3-0.1,0.7-0.1,0.9,0c0.2,0.1,0.1,0.5,0.6,0.3c-0.6-0.1-0.6-0.8-0.4-1.2c0.1-0.1,0.3-0.2,0.3-0.3c0-0.1-0.1-0.2-0.1-0.3
	c-0.1-0.2,0-0.5-0.2-0.7c-0.3,0.1-0.5,0.5-0.6,0c0-0.3,0.2-0.4,0-0.6c-0.2-0.2-0.6-0.2-0.8-0.3C128.1,154.9,127.9,155,127.9,154.7
	L127.9,154.7z M130.1,150.9L130.1,150.9L130.1,150.9c0-0.1-0.1-0.2-0.1-0.3c-0.1-0.1-0.1-0.2-0.1-0.4c0-0.3,0.3-0.6,0.3-0.7
	c-0.5,0.3-1,0.8-1.2,1.2c-0.3,0.4-0.2,0.9-0.4,1.3c-0.1,0-0.2-0.1-0.3-0.1l0.3,1.8c0,0,0.1,0.1,0.2,0.1c0.2,0.1,0.7,0.2,0.8,0.4
	c-0.2,0-0.3,0.1-0.5,0.1c0.3,0.1,0.6,0.2,0.9,0.2c0.3,0,0.7-0.1,1.1-0.2c0.3-0.1,0.7-0.2,0.9,0c0.2,0.1,0.1,0.5,0.7,0.2
	c-0.6-0.1-0.6-0.8-0.5-1.2c0-0.1,0.2-0.2,0.3-0.3c0-0.1-0.1-0.2-0.1-0.3c-0.1-0.2-0.1-0.5-0.2-0.7c-0.3,0.1-0.5,0.5-0.6,0.1
	c0-0.3,0.2-0.4-0.1-0.6c-0.2-0.1-0.6-0.2-0.8-0.3C130.4,151.1,130.2,151.1,130.1,150.9L130.1,150.9z M131.9,146.7L131.9,146.7
	L131.9,146.7c0-0.1-0.1-0.2-0.2-0.3c-0.1-0.1-0.1-0.2-0.1-0.4c0-0.3,0.2-0.6,0.2-0.7c-0.4,0.3-0.8,0.8-1,1.2
	c-0.2,0.4-0.1,0.9-0.2,1.3c-0.1,0-0.2-0.1-0.3-0.1l0.5,1.7c0.1,0,0.1,0.1,0.2,0.1c0.3,0.1,0.7,0.2,0.8,0.3c-0.2,0.1-0.3,0.1-0.5,0.2
	c0.3,0,0.6,0.1,0.9,0.2c0.3,0,0.6-0.1,1-0.2c0.3-0.1,0.6-0.2,0.9-0.1c0.2,0.1,0.2,0.4,0.7,0.2c-0.6,0-0.7-0.7-0.6-1.1
	c0-0.1,0.2-0.2,0.2-0.3c0-0.1-0.1-0.2-0.2-0.3c-0.1-0.2-0.1-0.4-0.3-0.6c-0.3,0.1-0.4,0.5-0.5,0.1c-0.1-0.2,0.1-0.4-0.1-0.5
	c-0.2-0.1-0.6-0.1-0.8-0.2C132.1,146.9,131.9,147,131.9,146.7L131.9,146.7z M133,142.8L133,142.8L133,142.8c0-0.1-0.1-0.2-0.2-0.3
	c-0.1-0.1-0.1-0.2-0.1-0.4c-0.1-0.3,0.1-0.6,0.2-0.7c-0.4,0.3-0.8,0.8-0.9,1.2c-0.2,0.4,0,0.9-0.1,1.3c-0.1,0-0.2-0.1-0.3-0.1
	l0.6,1.6c0.1,0,0.1,0.1,0.2,0.1c0.2,0.1,0.7,0.1,0.8,0.3c-0.1,0.1-0.3,0.1-0.4,0.2c0.3,0,0.6,0.1,0.8,0.1c0.3,0,0.6-0.1,0.9-0.2
	c0.3-0.1,0.6-0.2,0.8-0.1c0.2,0.1,0.2,0.4,0.6,0.2c-0.6,0-0.7-0.6-0.6-1c0-0.1,0.2-0.2,0.2-0.3c0-0.1-0.1-0.2-0.2-0.3
	c-0.1-0.2-0.1-0.4-0.3-0.6c-0.3,0.1-0.4,0.5-0.5,0.1c-0.1-0.2,0.1-0.4-0.2-0.5c-0.2-0.1-0.6-0.1-0.8-0.2
	C133.3,143,133.1,143.1,133,142.8L133,142.8z M133.5,138.3L133.5,138.3L133.5,138.3c-0.1-0.1-0.1-0.2-0.2-0.2
	c-0.1-0.1-0.1-0.2-0.2-0.3c-0.1-0.2,0.1-0.6,0.1-0.7c-0.3,0.3-0.7,0.8-0.8,1.2c-0.1,0.4,0,0.8,0,1.2c-0.1,0-0.2-0.1-0.3-0.1l0.7,1.5
	c0.1,0,0.1,0,0.2,0.1c0.2,0.1,0.7,0.1,0.8,0.2c-0.1,0.1-0.3,0.1-0.4,0.2c0.3,0,0.6,0.1,0.8,0.1c0.3,0,0.6-0.2,0.9-0.3
	c0.3-0.1,0.5-0.2,0.8-0.1c0.2,0.1,0.2,0.4,0.6,0.1c-0.5,0-0.8-0.6-0.7-1c0-0.1,0.1-0.2,0.1-0.3c0-0.1-0.1-0.2-0.2-0.3
	c-0.1-0.2-0.2-0.4-0.4-0.5c-0.3,0.1-0.3,0.5-0.5,0.1c-0.1-0.2,0.1-0.4-0.2-0.5c-0.2-0.1-0.6-0.1-0.8-0.2
	C133.7,138.5,133.6,138.6,133.5,138.3L133.5,138.3z M133.2,134.4L133.2,134.4L133.2,134.4c-0.1-0.1-0.1-0.2-0.2-0.2
	c-0.1-0.1-0.1-0.2-0.2-0.3c-0.1-0.2,0-0.6,0-0.6c-0.3,0.3-0.5,0.8-0.6,1.1c-0.1,0.4,0.1,0.8,0.2,1.1c-0.1,0-0.2,0-0.2-0.1l0.9,1.4
	c0.1,0,0.1,0,0.2,0.1c0.2,0.1,0.6,0,0.8,0.2c-0.1,0.1-0.2,0.1-0.4,0.2c0.2,0,0.5,0.1,0.8,0c0.3,0,0.5-0.2,0.8-0.3
	c0.2-0.1,0.5-0.2,0.7-0.2c0.2,0.1,0.3,0.3,0.6,0.1c-0.5,0-0.8-0.5-0.8-0.8c0-0.1,0.1-0.2,0.1-0.3c0-0.1-0.2-0.2-0.2-0.2
	c-0.1-0.2-0.2-0.4-0.4-0.5c-0.2,0.1-0.2,0.5-0.4,0.1c-0.1-0.2,0-0.3-0.3-0.4c-0.2-0.1-0.5-0.1-0.8-0.1
	C133.4,134.5,133.3,134.6,133.2,134.4L133.2,134.4z M133.1,131.3L133.1,131.3L133.1,131.3c-0.1-0.1-0.2-0.1-0.2-0.2
	c-0.1-0.1-0.2-0.1-0.2-0.2c-0.1-0.2-0.1-0.5-0.1-0.5c-0.1,0.3-0.3,0.7-0.2,1c0,0.3,0.3,0.6,0.4,0.9c-0.1,0-0.1,0-0.2,0l1,1.1
	c0,0,0.1,0,0.2,0c0.2,0,0.5,0,0.7,0.1c-0.1,0.1-0.2,0.1-0.3,0.2c0.2,0,0.4,0,0.6-0.1c0.2-0.1,0.4-0.2,0.6-0.3
	c0.2-0.1,0.3-0.2,0.6-0.2c0.2,0,0.3,0.3,0.5,0c-0.4,0.1-0.7-0.3-0.8-0.6c0-0.1,0-0.2,0-0.3c0-0.1-0.2-0.1-0.2-0.2
	c-0.2-0.1-0.2-0.3-0.4-0.4c-0.2,0.1-0.1,0.4-0.3,0.2c-0.1-0.2,0-0.3-0.3-0.3c-0.2,0-0.5,0-0.7,0
	C133.3,131.4,133.2,131.4,133.1,131.3L133.1,131.3z M132.6,128.2L132.6,128.2L132.6,128.2c-0.1-0.1-0.1-0.1-0.2-0.1
	c-0.1-0.1-0.1-0.1-0.2-0.2c-0.1-0.2-0.1-0.4-0.1-0.5c-0.1,0.3-0.2,0.6-0.2,0.9c0,0.3,0.3,0.6,0.3,0.9c-0.1,0-0.1,0-0.2,0l1,1
	c0,0,0.1,0,0.2,0c0.2,0,0.5,0,0.7,0.1c-0.1,0.1-0.2,0.1-0.2,0.2c0.2,0,0.4,0,0.6,0c0.2,0,0.4-0.2,0.6-0.3c0.2-0.1,0.3-0.2,0.5-0.2
	c0.2,0,0.3,0.2,0.5,0c-0.4,0.1-0.7-0.3-0.8-0.6c0-0.1,0-0.2,0-0.3c0-0.1-0.2-0.1-0.2-0.2c-0.1-0.1-0.2-0.3-0.4-0.3
	c-0.2,0.1-0.1,0.4-0.3,0.2c-0.1-0.1,0-0.3-0.3-0.3c-0.2,0-0.4,0-0.6,0C132.8,128.3,132.7,128.4,132.6,128.2L132.6,128.2z
	 M131.8,125.5L131.8,125.5L131.8,125.5c-0.1-0.1-0.1-0.1-0.2-0.1c-0.1,0-0.1-0.1-0.2-0.2c-0.1-0.2-0.1-0.4-0.1-0.4
	c-0.1,0.3-0.2,0.6-0.2,0.9c0,0.3,0.2,0.5,0.3,0.8c-0.1,0-0.1,0-0.2,0l0.9,0.9c0,0,0.1,0,0.1,0c0.2,0,0.5,0,0.6,0.1
	c-0.1,0.1-0.2,0.1-0.2,0.2c0.2,0,0.4,0,0.6,0c0.2,0,0.3-0.2,0.5-0.3c0.2-0.1,0.3-0.2,0.5-0.2c0.2,0,0.2,0.2,0.4,0
	c-0.4,0.1-0.6-0.3-0.7-0.5c0-0.1,0-0.2,0-0.2c0-0.1-0.1-0.1-0.2-0.1c-0.1-0.1-0.2-0.2-0.4-0.3c-0.2,0.1-0.1,0.4-0.3,0.1
	c-0.1-0.1,0-0.2-0.3-0.3c-0.2,0-0.4,0-0.6,0C132,125.5,131.9,125.6,131.8,125.5L131.8,125.5z M130.9,122.9L130.9,122.9L130.9,122.9
	c-0.1-0.1-0.1-0.1-0.2-0.1c-0.1,0-0.1-0.1-0.2-0.2c-0.1-0.1-0.1-0.4-0.1-0.4c-0.1,0.2-0.2,0.5-0.2,0.8c0,0.3,0.2,0.5,0.3,0.7
	c-0.1,0-0.1,0-0.2,0l0.8,0.8c0,0,0.1,0,0.1,0c0.2,0,0.4,0,0.6,0.1c-0.1,0.1-0.1,0.1-0.2,0.1c0.2,0,0.4,0,0.5,0
	c0.2,0,0.3-0.2,0.5-0.3c0.1-0.1,0.3-0.2,0.4-0.2c0.1,0,0.2,0.2,0.4,0c-0.3,0.1-0.6-0.3-0.7-0.5c0-0.1,0-0.2,0-0.2
	c0-0.1-0.1-0.1-0.2-0.1c-0.1-0.1-0.2-0.2-0.3-0.3c-0.1,0.1-0.1,0.3-0.3,0.1c-0.1-0.1,0-0.2-0.2-0.3c-0.2,0-0.4,0-0.5,0
	C131.1,123,131.1,123,130.9,122.9L130.9,122.9z M129.3,120.3L129.3,120.3L129.3,120.3c-0.1-0.1-0.1-0.1-0.2-0.1
	c-0.1,0-0.1-0.1-0.2-0.2c-0.1-0.1-0.2-0.3-0.2-0.4c-0.1,0.2-0.1,0.5,0,0.7c0.1,0.2,0.3,0.4,0.4,0.7c-0.1,0-0.1,0-0.2,0l0.9,0.7
	c0,0,0.1,0,0.1,0c0.2,0,0.4,0,0.5,0c-0.1,0.1-0.1,0.1-0.2,0.2c0.1,0,0.3,0,0.5-0.1c0.2-0.1,0.3-0.2,0.4-0.3c0.1-0.1,0.2-0.2,0.4-0.2
	c0.1,0,0.2,0.2,0.4,0c-0.3,0.1-0.6-0.2-0.7-0.4c0-0.1,0-0.2,0-0.2c0-0.1-0.1-0.1-0.2-0.1c-0.1-0.1-0.2-0.2-0.4-0.2
	c-0.1,0.1,0,0.3-0.2,0.1c-0.1-0.1-0.1-0.2-0.3-0.2c-0.1,0-0.3,0-0.5,0C129.5,120.3,129.4,120.4,129.3,120.3L129.3,120.3z M127.4,118
	L127.4,118L127.4,118c-0.1,0-0.1-0.1-0.2-0.1c-0.1,0-0.1-0.1-0.2-0.1c-0.1-0.1-0.2-0.3-0.2-0.3c0,0.2,0,0.5,0.1,0.7
	c0.1,0.2,0.3,0.4,0.5,0.6c0,0-0.1,0-0.1,0l0.9,0.6c0,0,0.1,0,0.1,0c0.1,0,0.4-0.1,0.5,0c0,0.1-0.1,0.1-0.1,0.2
	c0.1,0,0.3-0.1,0.4-0.1c0.1-0.1,0.2-0.2,0.3-0.3c0.1-0.1,0.2-0.2,0.3-0.2c0.1,0,0.2,0.1,0.3-0.1c-0.3,0.1-0.6-0.1-0.7-0.3
	c0,0,0-0.1-0.1-0.2c0,0-0.1-0.1-0.2-0.1c-0.1-0.1-0.2-0.2-0.4-0.2c-0.1,0.1,0.1,0.3-0.2,0.1c-0.1-0.1-0.1-0.2-0.3-0.2
	c-0.1,0-0.3,0.1-0.4,0.1C127.6,118.1,127.6,118.1,127.4,118L127.4,118z M126,116L126,116L126,116c-0.1,0-0.1-0.1-0.2-0.1
	c-0.1,0-0.1-0.1-0.2-0.1c-0.1-0.1-0.2-0.3-0.2-0.3c0,0.2,0,0.5,0.1,0.6c0.1,0.2,0.3,0.4,0.4,0.5c0,0-0.1,0-0.1,0l0.9,0.5
	c0,0,0.1,0,0.1,0c0.1,0,0.3-0.1,0.4,0c0,0-0.1,0.1-0.1,0.1c0.1,0,0.3-0.1,0.4-0.1c0.1-0.1,0.2-0.2,0.3-0.3c0.1-0.1,0.2-0.2,0.3-0.2
	c0.1,0,0.2,0.1,0.3-0.1c-0.2,0.1-0.5-0.1-0.7-0.3c0,0,0-0.1-0.1-0.2c0,0-0.1-0.1-0.2-0.1c-0.1-0.1-0.2-0.1-0.4-0.2
	c-0.1,0.1,0.1,0.3-0.2,0.1c-0.1-0.1-0.1-0.2-0.3-0.2c-0.1,0-0.3,0.1-0.4,0.1C126.2,116.1,126.1,116.1,126,116L126,116z M124.4,114.2
	L124.4,114.2L124.4,114.2c-0.1,0-0.1-0.1-0.2-0.1c-0.1,0-0.1-0.1-0.2-0.1c-0.1-0.1-0.2-0.2-0.2-0.3c0,0.2,0,0.4,0.1,0.6
	c0.1,0.2,0.3,0.3,0.4,0.5c0,0-0.1,0-0.1,0l0.8,0.5c0,0,0.1,0,0.1,0c0.1,0,0.3-0.1,0.4,0c0,0-0.1,0.1-0.1,0.1c0.1,0,0.2,0,0.4-0.1
	c0.1-0.1,0.2-0.2,0.3-0.2c0.1-0.1,0.1-0.2,0.3-0.2c0.1,0,0.2,0.1,0.3-0.1c-0.2,0.1-0.5-0.1-0.6-0.3c0,0,0-0.1-0.1-0.2
	c0,0-0.1,0-0.2-0.1c-0.1-0.1-0.2-0.1-0.3-0.2c-0.1,0.1,0.1,0.3-0.1,0.1c-0.1-0.1-0.1-0.2-0.2-0.2c-0.1,0-0.3,0-0.4,0.1
	C124.6,114.2,124.5,114.3,124.4,114.2L124.4,114.2z M122.5,112.4L122.5,112.4L122.5,112.4c-0.1,0-0.1,0-0.1-0.1
	c-0.1,0-0.1-0.1-0.2-0.1c-0.1-0.1-0.2-0.2-0.2-0.3c0,0.2,0,0.4,0.1,0.6c0.1,0.2,0.3,0.3,0.4,0.5c0,0-0.1,0-0.1,0l0.8,0.5
	c0,0,0.1,0,0.1,0c0.1,0,0.3-0.1,0.4,0c0,0-0.1,0.1-0.1,0.1c0.1,0,0.2,0,0.3-0.1c0.1,0,0.2-0.1,0.3-0.2c0.1-0.1,0.1-0.2,0.3-0.2
	c0.1,0,0.2,0.1,0.3,0c-0.2,0.1-0.5-0.1-0.6-0.3c0,0,0-0.1-0.1-0.1c0,0-0.1,0-0.2-0.1c-0.1-0.1-0.2-0.1-0.3-0.2
	c-0.1,0.1,0.1,0.2-0.1,0.1c-0.1-0.1-0.1-0.1-0.2-0.2c-0.1,0-0.2,0-0.4,0.1C122.6,112.4,122.6,112.5,122.5,112.4L122.5,112.4z
	 M119.9,110.9L119.9,110.9L119.9,110.9c-0.1,0-0.1,0-0.2-0.1c-0.1,0-0.1,0-0.2-0.1c-0.1-0.1-0.2-0.2-0.2-0.2c0,0.2,0.1,0.4,0.2,0.5
	c0.1,0.2,0.3,0.3,0.5,0.4c0,0-0.1,0-0.1,0l0.8,0.4c0,0,0.1,0,0.1,0c0.1,0,0.3-0.1,0.4-0.1c0,0-0.1,0.1-0.1,0.1
	c0.1,0,0.2-0.1,0.3-0.1c0.1-0.1,0.1-0.2,0.2-0.3c0.1-0.1,0.1-0.2,0.2-0.2c0.1,0,0.2,0.1,0.3-0.1c-0.2,0.1-0.5-0.1-0.6-0.2
	c0,0,0-0.1-0.1-0.1c0,0-0.1,0-0.2-0.1c-0.1,0-0.2-0.1-0.3-0.1c-0.1,0.1,0.1,0.2-0.1,0.1c-0.1-0.1-0.1-0.1-0.3-0.1
	c-0.1,0-0.2,0.1-0.3,0.1C120.1,110.9,120,111,119.9,110.9L119.9,110.9z M123.3,109.1L123.3,109.1c0,0.1-0.1,0.1-0.2,0.2
	c-0.1,0.1-0.3,0.1-0.4,0.1c-0.1,0.1,0,0.1,0,0.3c0,0.2-0.1,0-0.2,0c-0.1,0.1,0,0.2-0.1,0.3c0,0-0.1,0.1-0.1,0.1c0,0,0.1,0.1,0.1,0.1
	c0.1,0.2,0.1,0.5-0.2,0.5c0.2,0.1,0.2-0.1,0.3-0.1c0.1-0.1,0.2,0,0.4,0c0.2,0,0.3,0.1,0.5,0.1c0.1,0,0.3-0.1,0.4-0.1
	c-0.1,0-0.2,0-0.2,0c0-0.1,0.2-0.1,0.4-0.2c0,0,0.1,0,0.1-0.1l0.1-0.8c0,0-0.1,0-0.1,0.1c-0.1-0.2-0.1-0.4-0.2-0.6
	c-0.1-0.2-0.4-0.4-0.6-0.5c0,0,0.1,0.2,0.2,0.3c0,0.1,0,0.1,0,0.2C123.3,109,123.3,109,123.3,109.1L123.3,109.1L123.3,109.1z
	 M120.8,108.2L120.8,108.2c0,0.1,0,0.1-0.1,0.2c-0.1,0.1-0.2,0.1-0.3,0.2c-0.1,0.1,0.1,0.1,0.1,0.2c0.1,0.2-0.1,0-0.2,0
	c0,0.1,0,0.2,0,0.3c0,0,0,0.1,0,0.1c0,0,0.1,0.1,0.2,0.1c0.1,0.1,0.3,0.4,0,0.5c0.2,0,0.1-0.1,0.2-0.1c0.1-0.1,0.2-0.1,0.3-0.1
	c0.2,0,0.3,0,0.4,0c0.1,0,0.2-0.1,0.3-0.2c-0.1,0-0.1,0-0.2,0c0-0.1,0.2-0.2,0.2-0.2c0,0,0,0,0.1-0.1l-0.2-0.7c0,0,0,0-0.1,0.1
	c-0.1-0.1-0.2-0.3-0.4-0.5c-0.2-0.1-0.4-0.2-0.7-0.3c0,0,0.2,0.1,0.3,0.2c0,0.1,0.1,0.1,0,0.2C120.8,108.1,120.8,108.1,120.8,108.2
	L120.8,108.2L120.8,108.2z M117.4,109.4L117.4,109.4L117.4,109.4c-0.1,0-0.1,0-0.2,0c-0.1,0-0.1,0-0.2-0.1c-0.1-0.1-0.2-0.2-0.2-0.2
	c0,0.2,0.1,0.4,0.2,0.5c0.1,0.2,0.3,0.3,0.5,0.4c0,0-0.1,0-0.1,0l0.8,0.4c0,0,0.1,0,0.1,0c0.1,0,0.3-0.1,0.4-0.1
	c0,0-0.1,0.1-0.1,0.1c0.1,0,0.2-0.1,0.3-0.1c0.1-0.1,0.1-0.2,0.2-0.3c0.1-0.1,0.1-0.2,0.2-0.2c0.1,0,0.2,0.1,0.3-0.1
	c-0.2,0.1-0.5-0.1-0.6-0.2c0,0,0-0.1-0.1-0.1c0,0-0.1,0-0.2-0.1c-0.1,0-0.2-0.1-0.3-0.1c-0.1,0.1,0.1,0.2-0.1,0.1
	c-0.1-0.1-0.1-0.1-0.3-0.1c-0.1,0-0.2,0.1-0.3,0.1C117.6,109.4,117.5,109.5,117.4,109.4L117.4,109.4z M118.8,107.6L118.8,107.6
	c0.1,0.1,0,0.1-0.1,0.2c0,0.1-0.1,0.1-0.2,0.2c0,0.1,0.1,0.1,0.1,0.2c0.1,0.1-0.1,0-0.2,0c0,0.1,0.1,0.1,0.1,0.2c0,0,0,0.1,0,0.1
	c0,0,0.1,0,0.2,0.1c0.1,0.1,0.3,0.3,0.2,0.4c0.2,0,0.1-0.1,0.1-0.1c0-0.1,0.2-0.1,0.3-0.1c0.1,0,0.3,0,0.3-0.1
	c0.1,0,0.1-0.1,0.2-0.2c-0.1,0-0.1,0-0.2,0c0-0.1,0.1-0.1,0.1-0.2c0,0,0,0,0-0.1l-0.4-0.5c0,0,0,0,0,0.1c-0.2-0.1-0.3-0.2-0.4-0.3
	c-0.2-0.1-0.4-0.1-0.6-0.2c0,0,0.2,0.1,0.3,0.2C118.7,107.4,118.7,107.5,118.8,107.6C118.8,107.5,118.7,107.6,118.8,107.6
	L118.8,107.6L118.8,107.6z M116.7,107.2L116.7,107.2c0.1,0.1,0,0.1,0,0.1c0,0.1-0.1,0.1-0.1,0.2c0,0.1,0.1,0.1,0.2,0.1
	c0.1,0.1,0,0-0.1,0.1c0,0.1,0.1,0.1,0.2,0.2c0,0,0,0.1,0.1,0.1c0,0,0.1,0,0.2,0c0.1,0.1,0.3,0.2,0.2,0.3c0.2,0,0.1-0.1,0.1-0.1
	c0-0.1,0.1-0.1,0.2-0.1c0.1,0,0.2-0.1,0.3-0.1c0.1,0,0.1-0.1,0.1-0.2c0,0-0.1,0-0.1,0c0-0.1,0-0.1,0.1-0.2c0,0,0,0,0,0l-0.5-0.4
	c0,0,0,0,0,0.1c-0.2-0.1-0.3-0.2-0.5-0.2c-0.2,0-0.4-0.1-0.6-0.1c0,0,0.2,0,0.3,0.1C116.6,107,116.6,107.1,116.7,107.2
	C116.7,107.1,116.7,107.1,116.7,107.2L116.7,107.2L116.7,107.2z M115,108.1L115,108.1L115,108.1c0,0-0.1,0-0.1,0c0,0-0.1,0-0.1-0.1
	c-0.1-0.1-0.2-0.2-0.2-0.2c0,0.1,0.1,0.3,0.1,0.4c0.1,0.1,0.2,0.2,0.3,0.3c0,0-0.1,0-0.1,0l0.6,0.3c0,0,0,0,0.1,0
	c0.1,0,0.2-0.1,0.3,0c0,0,0,0.1-0.1,0.1c0.1,0,0.2,0,0.2-0.1c0.1,0,0.1-0.1,0.2-0.2c0-0.1,0.1-0.1,0.2-0.1c0.1,0,0.2,0.1,0.2-0.1
	c-0.1,0.1-0.4-0.1-0.4-0.1c0,0,0-0.1-0.1-0.1c0,0-0.1,0-0.1,0c-0.1,0-0.2-0.1-0.2-0.1c0,0.1,0.1,0.2-0.1,0.1c-0.1,0-0.1-0.1-0.2-0.1
	c-0.1,0-0.2,0-0.3,0.1C115.1,108.1,115.1,108.2,115,108.1L115,108.1z M114.6,106.5L114.6,106.5c0.1,0.1,0.1,0,0.3,0.1
	c0.1,0,0.3,0,0.4,0c0.1,0,0.1,0.1,0.2,0.2c0.1,0.2,0.1,0,0.2-0.1c0.1,0.1,0.1,0.1,0.2,0.2c0,0,0.1,0.1,0.1,0.1c0,0,0,0.1,0,0.2
	c0,0.2,0.2,0.4,0.4,0.4c-0.1,0.1-0.2,0-0.3,0c-0.1,0-0.2,0-0.3,0.1c-0.1,0.1-0.2,0.1-0.3,0.2c-0.1,0-0.3,0-0.4,0
	c0,0,0.1-0.1,0.2-0.1c-0.1-0.1-0.3,0-0.4,0c0,0-0.1,0-0.1,0l-0.5-0.6c0,0,0.1,0,0.1,0c0-0.2-0.2-0.3-0.2-0.5c0-0.2,0.1-0.4,0.2-0.5
	c0,0,0,0.2,0.1,0.3c0,0.1,0.1,0.1,0.1,0.1C114.5,106.4,114.5,106.4,114.6,106.5L114.6,106.5L114.6,106.5z M82.9,165.7L82.9,165.7
	L82.9,165.7c-0.2-0.1-0.4,0-0.5-0.1c-0.2,0-0.4-0.1-0.6-0.1c-0.4-0.1-0.9-0.5-0.9-0.6c0.3,0.5,0.7,1.1,1.2,1.4
	c0.5,0.4,1.3,0.6,1.9,0.9c-0.1,0.1-0.2,0.1-0.3,0.1l2.9,0.7c0.1,0,0.2,0,0.3-0.1c0.3-0.1,0.7-0.4,1-0.4c0,0.1,0,0.3-0.1,0.4
	c0.2-0.2,0.6-0.3,0.8-0.5c0.2-0.2,0.2-0.5,0.3-0.8c0.1-0.3,0.1-0.6,0.4-0.7c0.3-0.1,0.8,0.1,0.7-0.4c-0.4,0.4-1.5,0.1-2-0.2
	c-0.1-0.1-0.3-0.3-0.4-0.4c-0.2-0.1-0.4,0-0.6-0.1c-0.4-0.1-0.7-0.2-1.1-0.2c0,0.3,0.6,0.6-0.2,0.4c-0.4-0.1-0.5-0.3-0.9-0.2
	c-0.3,0.1-0.6,0.3-0.9,0.5C83.3,165.6,83.3,165.8,82.9,165.7L82.9,165.7z M79.6,162.5L79.6,162.5L79.6,162.5c-0.2-0.1-0.4,0-0.5-0.1
	c-0.2,0-0.4-0.1-0.6-0.1c-0.4-0.1-0.9-0.5-0.9-0.6c0.3,0.5,0.7,1.1,1.2,1.4c0.5,0.4,1.3,0.6,1.9,0.9c-0.1,0.1-0.2,0.1-0.3,0.1
	l2.9,0.7c0.1,0,0.2,0,0.3-0.1c0.3-0.1,0.7-0.4,1-0.4c0,0.1,0,0.3-0.1,0.4c0.2-0.2,0.6-0.3,0.8-0.5c0.2-0.2,0.2-0.5,0.3-0.8
	c0.1-0.3,0.1-0.6,0.4-0.7c0.3-0.1,0.8,0.1,0.7-0.4c-0.4,0.4-1.5,0.1-2-0.2c-0.1-0.1-0.3-0.3-0.4-0.4c-0.2-0.1-0.4,0-0.6-0.1
	c-0.4-0.1-0.7-0.2-1.1-0.2c0,0.3,0.6,0.6-0.2,0.4c-0.4-0.1-0.5-0.3-0.9-0.2c-0.3,0.1-0.6,0.3-0.9,0.5C80,162.4,80,162.6,79.6,162.5
	L79.6,162.5z M77.2,158.9L77.2,158.9L77.2,158.9c-0.2-0.1-0.3-0.1-0.4-0.1c-0.2,0-0.3-0.1-0.5-0.2c-0.4-0.2-0.7-0.5-0.7-0.6
	c0.1,0.4,0.4,1,0.8,1.4c0.4,0.4,1,0.6,1.5,1c-0.1,0-0.2,0-0.3,0.1l2.4,0.8c0.1,0,0.2,0,0.2-0.1c0.3-0.1,0.7-0.3,0.9-0.3
	c0,0.1-0.1,0.2-0.1,0.4c0.2-0.1,0.5-0.2,0.8-0.4c0.2-0.2,0.3-0.4,0.4-0.7c0.1-0.2,0.2-0.5,0.5-0.5c0.3,0,0.6,0.2,0.7-0.3
	c-0.4,0.3-1.3-0.1-1.7-0.4c-0.1-0.1-0.2-0.3-0.3-0.3c-0.1-0.1-0.3-0.1-0.5-0.1c-0.3-0.1-0.6-0.2-0.9-0.2c-0.1,0.2,0.4,0.6-0.2,0.4
	c-0.3-0.1-0.4-0.3-0.8-0.3c-0.3,0-0.6,0.2-0.9,0.3C77.5,158.9,77.5,159,77.2,158.9L77.2,158.9z M75.3,155.6L75.3,155.6L75.3,155.6
	c-0.2-0.1-0.3-0.1-0.4-0.1c-0.2,0-0.3-0.1-0.6-0.2c-0.4-0.1-0.7-0.5-0.8-0.5c0.2,0.4,0.5,1,0.9,1.3c0.4,0.4,1.1,0.6,1.6,0.9
	c-0.1,0-0.2,0.1-0.3,0.1l2.5,0.7c0.1,0,0.2,0,0.2-0.1c0.3-0.1,0.6-0.3,0.9-0.3c0,0.1-0.1,0.2-0.1,0.4c0.2-0.1,0.5-0.3,0.7-0.4
	c0.2-0.2,0.2-0.5,0.3-0.7c0.1-0.2,0.1-0.5,0.4-0.6c0.3-0.1,0.6,0.2,0.6-0.3c-0.4,0.3-1.3,0-1.7-0.3c-0.1-0.1-0.2-0.3-0.3-0.3
	c-0.1-0.1-0.3,0-0.5-0.1c-0.3-0.1-0.6-0.2-1-0.2c-0.1,0.2,0.4,0.6-0.2,0.4c-0.4-0.1-0.4-0.3-0.8-0.2c-0.3,0-0.5,0.3-0.8,0.4
	C75.7,155.5,75.7,155.7,75.3,155.6L75.3,155.6z M73.8,152.1L73.8,152.1L73.8,152.1c-0.2-0.1-0.3-0.1-0.4-0.1c-0.2,0-0.3-0.1-0.5-0.2
	c-0.3-0.2-0.6-0.5-0.7-0.6c0.1,0.4,0.3,1,0.6,1.4c0.3,0.4,0.9,0.7,1.4,1c-0.1,0-0.2,0-0.3,0.1l2.3,0.9c0.1,0,0.2,0,0.3,0
	c0.3-0.1,0.7-0.3,1-0.2c0,0.1-0.1,0.2-0.2,0.4c0.2-0.1,0.6-0.2,0.8-0.4c0.2-0.2,0.3-0.4,0.5-0.7c0.1-0.2,0.2-0.5,0.5-0.5
	c0.3,0,0.6,0.2,0.7-0.2c-0.4,0.3-1.3-0.1-1.7-0.4c-0.1-0.1-0.2-0.3-0.3-0.4c-0.1-0.1-0.3-0.1-0.5-0.1c-0.3-0.1-0.6-0.2-0.9-0.3
	c-0.1,0.2,0.3,0.6-0.3,0.4c-0.3-0.1-0.3-0.3-0.7-0.3c-0.3,0-0.6,0.2-0.9,0.3C74.2,152.1,74.2,152.2,73.8,152.1L73.8,152.1z
	 M72.6,148.6L72.6,148.6L72.6,148.6c-0.2-0.1-0.3-0.1-0.4-0.1c-0.2,0-0.3-0.1-0.5-0.2c-0.3-0.2-0.6-0.6-0.6-0.6
	c0.1,0.4,0.2,1,0.5,1.4c0.3,0.4,0.9,0.7,1.3,1.1c-0.1,0-0.2,0-0.3,0.1l2.3,1c0.1,0,0.2,0,0.3,0c0.3-0.1,0.7-0.2,1-0.2
	c-0.1,0.1-0.1,0.2-0.2,0.4c0.2-0.1,0.6-0.2,0.8-0.3c0.3-0.2,0.3-0.4,0.5-0.7c0.1-0.2,0.2-0.5,0.5-0.5c0.3,0,0.6,0.2,0.7-0.2
	c-0.5,0.3-1.3-0.2-1.6-0.5c-0.1-0.1-0.1-0.3-0.2-0.4c-0.1-0.1-0.3-0.1-0.5-0.1c-0.3-0.1-0.6-0.3-0.9-0.3c-0.1,0.2,0.3,0.6-0.3,0.3
	c-0.3-0.1-0.3-0.4-0.7-0.3c-0.3,0-0.6,0.2-0.9,0.3C73,148.6,72.9,148.8,72.6,148.6L72.6,148.6z M71.9,144.8L71.9,144.8L71.9,144.8
	c-0.2-0.1-0.3-0.1-0.4-0.2c-0.1-0.1-0.3-0.2-0.4-0.3c-0.3-0.2-0.4-0.6-0.4-0.7c-0.1,0.4,0,1,0.1,1.4c0.2,0.5,0.7,0.8,1,1.2
	c-0.1,0-0.2,0-0.3,0l1.9,1.3c0.1,0,0.2,0,0.3,0c0.3,0,0.8-0.1,1-0.1c-0.1,0.1-0.2,0.2-0.3,0.3c0.3-0.1,0.6-0.1,0.9-0.2
	c0.3-0.1,0.5-0.4,0.7-0.6c0.2-0.2,0.4-0.4,0.7-0.4c0.3,0,0.5,0.3,0.7-0.1c-0.5,0.2-1.2-0.3-1.5-0.7c-0.1-0.1-0.1-0.3-0.1-0.4
	c-0.1-0.1-0.3-0.1-0.4-0.2c-0.3-0.1-0.5-0.3-0.8-0.4c-0.2,0.2,0.1,0.6-0.4,0.3c-0.3-0.2-0.2-0.4-0.6-0.4c-0.3,0-0.6,0.1-1,0.1
	C72.2,144.9,72.2,145,71.9,144.8L71.9,144.8z M71.4,141.2L71.4,141.2L71.4,141.2c-0.1-0.1-0.2-0.1-0.4-0.2c-0.1-0.1-0.3-0.2-0.4-0.3
	c-0.2-0.2-0.3-0.6-0.3-0.7c-0.1,0.4-0.2,1-0.1,1.4c0.1,0.5,0.6,0.9,0.8,1.3c-0.1,0-0.2,0-0.3,0l1.8,1.4c0.1,0,0.2,0,0.3,0
	c0.3,0,0.8-0.1,1,0c-0.1,0.1-0.2,0.2-0.3,0.3c0.3-0.1,0.6-0.1,0.9-0.2c0.3-0.1,0.5-0.3,0.8-0.6c0.2-0.2,0.4-0.4,0.7-0.4
	c0.3,0,0.5,0.3,0.7-0.1c-0.6,0.2-1.2-0.4-1.4-0.8c-0.1-0.1,0-0.3-0.1-0.4c-0.1-0.1-0.3-0.1-0.4-0.2c-0.3-0.2-0.4-0.4-0.7-0.5
	c-0.2,0.2,0,0.6-0.4,0.3c-0.3-0.2-0.1-0.4-0.5-0.5c-0.3,0-0.7,0.1-1,0.1C71.8,141.3,71.7,141.4,71.4,141.2L71.4,141.2z M71.6,137.7
	L71.6,137.7L71.6,137.7c-0.1-0.1-0.2-0.1-0.3-0.2c-0.1-0.1-0.2-0.2-0.4-0.3c-0.2-0.2-0.3-0.6-0.3-0.7c-0.1,0.4-0.2,0.9-0.1,1.3
	c0.1,0.4,0.5,0.8,0.7,1.2c-0.1,0-0.2,0-0.3,0l1.6,1.3c0.1,0,0.1,0,0.2,0c0.3,0,0.7-0.1,0.9,0c-0.1,0.1-0.2,0.2-0.3,0.3
	c0.2-0.1,0.6-0.1,0.8-0.1c0.3-0.1,0.5-0.3,0.7-0.5c0.2-0.2,0.4-0.4,0.7-0.3c0.2,0,0.4,0.3,0.7-0.1c-0.5,0.2-1.1-0.4-1.2-0.7
	c0-0.1,0-0.3-0.1-0.4c-0.1-0.1-0.2-0.1-0.4-0.2c-0.2-0.1-0.4-0.3-0.7-0.4c-0.2,0.2,0,0.6-0.4,0.3c-0.2-0.2-0.1-0.4-0.5-0.4
	c-0.3,0-0.6,0.1-0.9,0.1C72,137.8,71.9,137.9,71.6,137.7L71.6,137.7z M72.3,134.5L72.3,134.5L72.3,134.5c-0.1-0.1-0.2-0.1-0.3-0.2
	c-0.1-0.1-0.2-0.1-0.3-0.3c-0.2-0.2-0.3-0.5-0.3-0.6c-0.1,0.4-0.1,0.9,0,1.2c0.1,0.4,0.5,0.7,0.7,1.1c-0.1,0-0.2,0-0.3,0l1.5,1.2
	c0.1,0,0.1,0,0.2,0c0.3,0,0.6-0.1,0.9,0c-0.1,0.1-0.2,0.2-0.3,0.3c0.2-0.1,0.5-0.1,0.8-0.1c0.3-0.1,0.4-0.3,0.6-0.5
	c0.2-0.2,0.4-0.3,0.6-0.3c0.2,0,0.4,0.3,0.6-0.1c-0.5,0.1-1-0.3-1.1-0.7c0-0.1,0-0.3-0.1-0.3c-0.1-0.1-0.2-0.1-0.3-0.2
	c-0.2-0.1-0.4-0.3-0.6-0.4c-0.2,0.2,0,0.5-0.4,0.2c-0.2-0.2-0.1-0.3-0.5-0.4c-0.2,0-0.5,0.1-0.8,0.1
	C72.6,134.6,72.5,134.7,72.3,134.5L72.3,134.5z M72.7,131.3L72.7,131.3L72.7,131.3c-0.1-0.1-0.2-0.1-0.3-0.2
	c-0.1-0.1-0.2-0.2-0.3-0.3c-0.2-0.2-0.2-0.5-0.2-0.6c-0.1,0.4-0.2,0.8-0.2,1.2c0.1,0.4,0.4,0.7,0.5,1.1c-0.1,0-0.2,0-0.3,0l1.3,1.2
	c0.1,0,0.1,0,0.2,0c0.2,0,0.6,0,0.8,0c-0.1,0.1-0.2,0.2-0.3,0.2c0.2,0,0.5,0,0.8-0.1c0.3-0.1,0.5-0.3,0.7-0.4
	c0.2-0.1,0.4-0.3,0.6-0.3c0.2,0,0.4,0.3,0.6,0c-0.5,0.1-0.9-0.4-1-0.7c0-0.1,0-0.2,0-0.3c-0.1-0.1-0.2-0.1-0.3-0.2
	c-0.2-0.1-0.3-0.3-0.5-0.4c-0.2,0.2,0,0.5-0.4,0.2c-0.2-0.2-0.1-0.3-0.4-0.4c-0.2,0-0.5,0-0.8,0C73,131.4,72.9,131.5,72.7,131.3
	L72.7,131.3z M73.7,128.5L73.7,128.5L73.7,128.5c-0.1-0.1-0.2-0.1-0.2-0.2c-0.1-0.1-0.2-0.1-0.2-0.3c-0.1-0.2-0.1-0.5-0.1-0.6
	c-0.2,0.3-0.3,0.8-0.3,1.1c0,0.4,0.3,0.7,0.4,1c-0.1,0-0.2,0-0.2,0l1.1,1.2c0.1,0,0.1,0,0.2,0c0.2,0,0.6,0,0.8,0.1
	c-0.1,0.1-0.2,0.1-0.3,0.2c0.2,0,0.5,0,0.7-0.1c0.3-0.1,0.4-0.2,0.7-0.4c0.2-0.1,0.4-0.3,0.6-0.2c0.2,0,0.3,0.3,0.6,0
	c-0.4,0.1-0.8-0.4-0.9-0.7c0-0.1,0-0.2,0-0.3c0-0.1-0.2-0.1-0.3-0.2c-0.2-0.1-0.3-0.3-0.5-0.4c-0.2,0.1-0.1,0.5-0.4,0.2
	c-0.2-0.2,0-0.3-0.3-0.4c-0.2-0.1-0.5,0-0.7,0C73.9,128.6,73.9,128.7,73.7,128.5L73.7,128.5z M74.8,125.8L74.8,125.8L74.8,125.8
	c-0.1-0.1-0.2-0.1-0.2-0.2c-0.1-0.1-0.1-0.1-0.2-0.2c-0.1-0.2-0.1-0.5-0.1-0.5c-0.1,0.3-0.3,0.7-0.2,1c0,0.3,0.3,0.6,0.4,0.9
	c-0.1,0-0.1,0-0.2,0l1,1.1c0,0,0.1,0,0.2,0c0.2,0,0.5,0,0.7,0.1c-0.1,0.1-0.2,0.1-0.3,0.2c0.2,0,0.4,0,0.7-0.1
	c0.2-0.1,0.4-0.2,0.6-0.3c0.2-0.1,0.3-0.2,0.6-0.2c0.2,0,0.3,0.3,0.5,0c-0.4,0.1-0.7-0.3-0.8-0.6c0-0.1,0-0.2,0-0.3
	c0-0.1-0.2-0.1-0.2-0.2c-0.2-0.1-0.2-0.3-0.4-0.4c-0.2,0.1-0.1,0.4-0.3,0.2c-0.1-0.2,0-0.3-0.3-0.3c-0.2,0-0.5,0-0.7,0
	C75,125.9,74.9,126,74.8,125.8L74.8,125.8z M76.1,123.3L76.1,123.3L76.1,123.3c-0.1-0.1-0.1-0.1-0.2-0.2c-0.1-0.1-0.1-0.1-0.2-0.2
	c-0.1-0.2-0.1-0.4-0.1-0.5c-0.2,0.3-0.3,0.6-0.3,0.9c0,0.3,0.2,0.6,0.2,0.9c-0.1,0-0.1,0-0.2,0l0.8,1c0,0,0.1,0,0.2,0
	c0.2,0,0.5,0,0.6,0.1c-0.1,0.1-0.2,0.1-0.3,0.2c0.2,0,0.4,0,0.6,0c0.2,0,0.4-0.2,0.6-0.3c0.2-0.1,0.3-0.2,0.5-0.2
	c0.2,0,0.2,0.2,0.5,0c-0.4,0.1-0.6-0.3-0.7-0.6c0-0.1,0.1-0.2,0-0.2c0-0.1-0.1-0.1-0.2-0.2c-0.1-0.1-0.2-0.3-0.4-0.4
	c-0.2,0.1-0.1,0.4-0.3,0.1c-0.1-0.1,0-0.3-0.2-0.3c-0.2-0.1-0.4,0-0.6,0C76.3,123.4,76.2,123.4,76.1,123.3L76.1,123.3z M77,121.1
	L77,121.1L77,121.1c-0.1-0.1-0.1-0.1-0.2-0.2c-0.1-0.1-0.1-0.1-0.2-0.2c-0.1-0.2-0.1-0.4-0.1-0.5c-0.2,0.3-0.3,0.6-0.3,0.9
	c0,0.3,0.2,0.6,0.2,0.9c-0.1,0-0.1,0-0.2,0l0.8,1c0,0,0.1,0,0.2,0c0.2,0,0.5,0,0.6,0.1c-0.1,0.1-0.2,0.1-0.3,0.2c0.2,0,0.4,0,0.6,0
	c0.2,0,0.4-0.2,0.6-0.3c0.2-0.1,0.3-0.2,0.5-0.2c0.2,0,0.2,0.2,0.5,0c-0.4,0.1-0.6-0.3-0.7-0.6c0-0.1,0.1-0.2,0-0.3
	c0-0.1-0.1-0.1-0.2-0.2c-0.1-0.1-0.2-0.3-0.4-0.4c-0.2,0.1-0.1,0.4-0.3,0.1c-0.1-0.1,0-0.3-0.2-0.3c-0.2-0.1-0.4,0-0.6,0
	C77.2,121.1,77.1,121.2,77,121.1L77,121.1z M78.8,118.9L78.8,118.9L78.8,118.9c-0.1-0.1-0.1-0.1-0.2-0.1c-0.1,0-0.1-0.1-0.2-0.2
	c-0.1-0.2-0.1-0.4-0.1-0.4c-0.1,0.2-0.3,0.6-0.3,0.8c0,0.3,0.2,0.5,0.2,0.8c-0.1,0-0.1,0-0.2,0l0.8,0.9c0,0,0.1,0,0.1,0
	c0.2,0,0.5,0,0.6,0.1c-0.1,0-0.2,0.1-0.2,0.1c0.2,0,0.4,0,0.5,0c0.2,0,0.3-0.2,0.5-0.3c0.2-0.1,0.3-0.2,0.5-0.2c0.1,0,0.2,0.2,0.4,0
	c-0.3,0.1-0.6-0.3-0.6-0.6c0-0.1,0-0.2,0-0.2c0-0.1-0.1-0.1-0.2-0.2c-0.1-0.1-0.2-0.2-0.3-0.3c-0.2,0.1-0.1,0.4-0.3,0.1
	c-0.1-0.1,0-0.2-0.2-0.3c-0.2,0-0.4,0-0.6,0C79,119,78.9,119.1,78.8,118.9L78.8,118.9z M80.5,116.9L80.5,116.9L80.5,116.9
	c-0.1-0.1-0.1-0.1-0.2-0.1c-0.1,0-0.1-0.1-0.2-0.2c-0.1-0.1-0.1-0.4-0.1-0.4c-0.1,0.2-0.3,0.5-0.3,0.8c0,0.3,0.2,0.5,0.2,0.7
	c-0.1,0-0.1,0-0.2,0l0.7,0.9c0,0,0.1,0,0.1,0c0.2,0,0.4,0,0.5,0.1c-0.1,0-0.1,0.1-0.2,0.1c0.2,0,0.3,0,0.5,0c0.2,0,0.3-0.1,0.5-0.2
	c0.1-0.1,0.3-0.2,0.4-0.1c0.1,0,0.2,0.2,0.4,0c-0.3,0-0.5-0.3-0.6-0.5c0-0.1,0-0.2,0-0.2c0-0.1-0.1-0.1-0.2-0.1
	c-0.1-0.1-0.2-0.2-0.3-0.3c-0.1,0.1-0.1,0.3-0.3,0.1c-0.1-0.1,0-0.2-0.2-0.3c-0.1,0-0.4,0-0.5,0C80.6,116.9,80.6,117,80.5,116.9
	L80.5,116.9z M82.2,115.2L82.2,115.2L82.2,115.2c0-0.1-0.1-0.1-0.1-0.1c-0.1,0-0.1-0.1-0.1-0.2c-0.1-0.1-0.1-0.3-0.1-0.4
	c-0.1,0.2-0.2,0.5-0.2,0.7c0,0.2,0.1,0.4,0.2,0.7c-0.1,0-0.1,0-0.1,0l0.6,0.8c0,0,0.1,0,0.1,0c0.1,0,0.4,0,0.5,0.1
	c-0.1,0-0.1,0.1-0.2,0.1c0.1,0,0.3,0,0.5,0c0.2,0,0.3-0.1,0.4-0.2c0.1-0.1,0.3-0.2,0.4-0.1c0.1,0,0.2,0.2,0.4,0
	c-0.3,0-0.5-0.3-0.5-0.5c0-0.1,0-0.1,0-0.2c0-0.1-0.1-0.1-0.2-0.1c-0.1-0.1-0.2-0.2-0.3-0.3c-0.1,0.1-0.1,0.3-0.2,0.1
	c-0.1-0.1,0-0.2-0.2-0.3c-0.1,0-0.3,0-0.5,0C82.3,115.2,82.3,115.3,82.2,115.2L82.2,115.2z M83.8,113.3L83.8,113.3L83.8,113.3
	c0-0.1-0.1-0.1-0.1-0.1c0,0-0.1-0.1-0.1-0.2c-0.1-0.1,0-0.3,0-0.4c-0.2,0.2-0.3,0.5-0.4,0.7c-0.1,0.2,0.1,0.5,0.1,0.7
	c-0.1,0-0.1,0-0.1,0l0.5,0.8c0,0,0.1,0,0.1,0c0.1,0,0.4,0,0.5,0.1c-0.1,0-0.1,0.1-0.2,0.1c0.1,0,0.3,0,0.5,0c0.2,0,0.3-0.1,0.5-0.2
	c0.1-0.1,0.3-0.1,0.4-0.1c0.1,0,0.1,0.2,0.4,0.1c-0.3,0-0.4-0.3-0.4-0.5c0-0.1,0.1-0.1,0.1-0.2c0-0.1-0.1-0.1-0.1-0.1
	c-0.1-0.1-0.1-0.2-0.2-0.3c-0.1,0.1-0.1,0.3-0.3,0.1c-0.1-0.1,0-0.2-0.1-0.3c-0.1-0.1-0.3,0-0.5-0.1
	C83.9,113.4,83.8,113.4,83.8,113.3L83.8,113.3z M85.9,111.7L85.9,111.7L85.9,111.7c0-0.1-0.1-0.1-0.1-0.1c0,0-0.1-0.1-0.1-0.2
	c0-0.1,0-0.3,0.1-0.3c-0.2,0.2-0.4,0.4-0.4,0.6c-0.1,0.2,0,0.4,0,0.6c0,0-0.1,0-0.1,0l0.4,0.8c0,0,0.1,0,0.1,0
	c0.1,0,0.4,0.1,0.4,0.1c-0.1,0-0.1,0.1-0.2,0.1c0.1,0,0.3,0.1,0.4,0c0.2,0,0.3-0.1,0.5-0.1c0.1,0,0.3-0.1,0.4-0.1
	c0.1,0,0.1,0.2,0.3,0.1c-0.3,0-0.4-0.3-0.4-0.5c0-0.1,0.1-0.1,0.1-0.2c0-0.1-0.1-0.1-0.1-0.1c-0.1-0.1-0.1-0.2-0.2-0.3
	c-0.1,0.1-0.2,0.3-0.3,0.1c-0.1-0.1,0-0.2-0.1-0.3c-0.1-0.1-0.3-0.1-0.4-0.1C86,111.8,85.9,111.8,85.9,111.7L85.9,111.7z M88,110.1
	L88,110.1L88,110.1c0-0.1,0-0.1-0.1-0.1c0,0,0-0.1,0-0.2c0-0.1,0.1-0.3,0.2-0.3c-0.2,0.1-0.5,0.3-0.6,0.5c-0.1,0.2-0.1,0.4-0.2,0.6
	c0,0-0.1,0-0.1-0.1l0.1,0.8c0,0,0.1,0,0.1,0.1c0.1,0.1,0.3,0.1,0.4,0.2c-0.1,0-0.2,0-0.2,0.1c0.1,0,0.3,0.1,0.4,0.1
	c0.2,0,0.3,0,0.5-0.1c0.2,0,0.3-0.1,0.4,0c0.1,0.1,0,0.2,0.3,0.1c-0.3,0-0.3-0.4-0.2-0.5c0,0,0.1-0.1,0.1-0.2c0-0.1,0-0.1-0.1-0.2
	c0-0.1,0-0.2-0.1-0.3c-0.2,0-0.2,0.2-0.3,0c0-0.1,0.1-0.2,0-0.3c-0.1-0.1-0.3-0.1-0.4-0.2C88.1,110.2,88,110.2,88,110.1L88,110.1z
	 M87.4,169.1L87.4,169.1L87.4,169.1c-0.2,0-0.4,0-0.5,0c-0.2,0-0.4,0-0.7,0c-0.5-0.1-1-0.4-1.1-0.4c0.4,0.4,1,0.9,1.6,1.2
	c0.6,0.3,1.5,0.4,2.1,0.7c-0.1,0.1-0.2,0.1-0.3,0.2l3.1,0.2c0.1,0,0.1-0.1,0.2-0.1c0.3-0.2,0.5-0.5,0.9-0.5c0,0.1,0,0.3,0.1,0.4
	c0.2-0.2,0.5-0.4,0.6-0.6c0.1-0.3,0-0.6,0-0.9c0-0.3-0.1-0.6,0.2-0.7c0.3-0.1,0.8,0,0.5-0.5c-0.3,0.4-1.4,0.3-2,0.1
	c-0.2-0.1-0.3-0.2-0.5-0.3c-0.2,0-0.4,0-0.6,0c-0.4,0-0.8-0.1-1.1,0c0.1,0.3,0.7,0.5,0,0.5c-0.4,0-0.6-0.3-1-0.1
	c-0.3,0.1-0.5,0.4-0.7,0.6C87.8,169,87.9,169.1,87.4,169.1L87.4,169.1z M96.7,163.2L96.7,163.2c0,0.3-0.2,0.3-0.5,0.5
	c-0.3,0.2-0.7,0.3-0.9,0.4c-0.3,0.3,0,0.4,0.1,0.7c0,0.5-0.3,0-0.7,0c-0.1,0.2-0.1,0.5-0.1,0.8c0,0.1-0.1,0.3-0.1,0.4
	c0,0.1,0.3,0.3,0.4,0.4c0.3,0.4,0.4,1.2-0.3,1.4c0.7,0.2,0.5-0.2,0.7-0.3c0.2-0.2,0.6-0.1,1-0.1c0.4,0.1,0.9,0.2,1.3,0.1
	c0.3-0.1,0.7-0.3,1-0.3c-0.2,0-0.4-0.1-0.6-0.1c0.1-0.2,0.6-0.4,0.9-0.5c0.1-0.1,0.2-0.1,0.2-0.1l0-2.1c-0.1,0-0.2,0.1-0.3,0.2
	c-0.3-0.5-0.3-1-0.8-1.5c-0.4-0.4-1.1-0.9-1.7-1.2c0.1,0.1,0.5,0.5,0.5,0.8c0,0.2,0.1,0.3,0,0.5C96.7,162.9,96.7,163,96.7,163.2
	L96.7,163.2L96.7,163.2z M92.1,160.7L92.1,160.7c0,0.3-0.2,0.3-0.5,0.5c-0.2,0.2-0.7,0.3-0.8,0.5c-0.2,0.3,0.1,0.4,0.1,0.6
	c0.1,0.5-0.2,0.1-0.6,0c-0.1,0.2,0,0.5,0,0.7c0,0.1-0.1,0.2-0.1,0.4c0,0.1,0.3,0.2,0.4,0.4c0.3,0.4,0.5,1.2-0.2,1.3
	c0.7,0.2,0.5-0.2,0.7-0.3c0.2-0.2,0.6-0.1,1-0.1c0.4,0,0.9,0.1,1.2,0c0.3-0.1,0.6-0.3,0.9-0.4c-0.2,0-0.4,0-0.6-0.1
	c0.1-0.2,0.6-0.4,0.8-0.5c0.1-0.1,0.1-0.1,0.2-0.1l-0.2-2c-0.1,0.1-0.1,0.1-0.2,0.2c-0.3-0.5-0.4-1-0.9-1.4
	c-0.4-0.4-1.1-0.8-1.7-1.1c0.1,0.1,0.5,0.4,0.6,0.7c0,0.2,0.1,0.3,0,0.4C92.1,160.5,92.1,160.6,92.1,160.7L92.1,160.7L92.1,160.7z
	 M88.4,158.1L88.4,158.1c0,0.3-0.2,0.2-0.5,0.4c-0.2,0.1-0.6,0.2-0.8,0.4c-0.2,0.2,0,0.3,0.1,0.6c0,0.5-0.2,0-0.6,0
	c-0.1,0.2,0,0.4-0.1,0.7c0,0.1-0.1,0.2-0.1,0.3c0,0.1,0.3,0.2,0.3,0.3c0.2,0.4,0.4,1.1-0.2,1.2c0.6,0.2,0.5-0.2,0.6-0.3
	c0.2-0.2,0.6-0.1,0.9-0.1c0.4,0,0.8,0.1,1.1,0.1c0.3-0.1,0.6-0.2,0.9-0.3c-0.2,0-0.4-0.1-0.5-0.1c0.1-0.2,0.5-0.3,0.8-0.5
	c0.1,0,0.1-0.1,0.2-0.1l-0.1-1.9c-0.1,0-0.1,0.1-0.2,0.2c-0.3-0.4-0.3-0.9-0.7-1.3c-0.3-0.4-1-0.8-1.5-1.1c0.1,0.1,0.4,0.4,0.5,0.7
	c0,0.2,0,0.3,0,0.4C88.5,157.8,88.4,157.9,88.4,158.1L88.4,158.1L88.4,158.1z M85.5,154.6L85.5,154.6c0,0.3-0.2,0.2-0.5,0.4
	c-0.2,0.1-0.6,0.2-0.8,0.3c-0.3,0.2,0,0.3,0,0.6c0,0.5-0.2,0-0.6,0c-0.1,0.2-0.1,0.4-0.2,0.7c0,0.1-0.1,0.2-0.1,0.3
	c0,0.1,0.2,0.2,0.3,0.3c0.2,0.4,0.2,1.1-0.4,1.2c0.6,0.2,0.5-0.1,0.6-0.3c0.2-0.1,0.6-0.1,0.9,0c0.4,0.1,0.7,0.2,1.1,0.1
	c0.3,0,0.6-0.2,0.9-0.2c-0.2,0-0.4-0.1-0.5-0.1c0.1-0.2,0.6-0.3,0.8-0.4c0.1,0,0.1-0.1,0.2-0.1l0.2-1.8c-0.1,0-0.1,0.1-0.2,0.1
	c-0.2-0.4-0.2-0.9-0.5-1.3c-0.3-0.4-0.8-0.8-1.3-1.1c0,0.1,0.4,0.4,0.4,0.7c0,0.2,0,0.3,0,0.4C85.6,154.4,85.5,154.5,85.5,154.6
	L85.5,154.6L85.5,154.6z M83.3,150.7L83.3,150.7c0,0.3-0.2,0.2-0.5,0.4c-0.3,0.1-0.6,0.2-0.8,0.3c-0.3,0.2,0,0.3-0.1,0.6
	c-0.1,0.5-0.2,0-0.6-0.1c-0.2,0.2-0.1,0.4-0.2,0.7c0,0.1-0.2,0.2-0.1,0.3c0,0.1,0.2,0.2,0.3,0.3c0.2,0.4,0.1,1.1-0.5,1.2
	c0.6,0.2,0.5-0.1,0.7-0.2c0.2-0.1,0.6,0,0.9,0c0.4,0.1,0.7,0.2,1.1,0.2c0.3,0,0.6-0.2,0.9-0.2c-0.2,0-0.3-0.1-0.5-0.1
	c0.1-0.2,0.6-0.3,0.8-0.4c0.1,0,0.1-0.1,0.2-0.1l0.3-1.8c-0.1,0-0.2,0.1-0.3,0.1c-0.2-0.4-0.1-0.9-0.4-1.3c-0.3-0.4-0.8-0.8-1.2-1.2
	c0,0.1,0.3,0.4,0.3,0.7c0,0.2,0,0.3-0.1,0.4C83.4,150.5,83.3,150.6,83.3,150.7L83.3,150.7L83.3,150.7z M81.6,146.6L81.6,146.6
	c-0.1,0.3-0.2,0.2-0.6,0.3c-0.3,0.1-0.6,0.1-0.8,0.2c-0.3,0.2-0.1,0.3-0.1,0.5c-0.1,0.4-0.2,0-0.5-0.1c-0.2,0.2-0.2,0.4-0.3,0.6
	c0,0.1-0.2,0.2-0.2,0.3c0,0.1,0.2,0.2,0.2,0.3c0.1,0.4,0,1-0.6,1.1c0.5,0.2,0.5-0.1,0.7-0.2c0.2-0.1,0.5,0,0.9,0.1
	c0.3,0.1,0.7,0.2,1,0.2c0.3,0,0.6-0.1,0.9-0.2c-0.2-0.1-0.3-0.1-0.5-0.2c0.1-0.2,0.6-0.2,0.8-0.3c0.1,0,0.1-0.1,0.2-0.1l0.5-1.7
	c-0.1,0-0.2,0.1-0.3,0.1c-0.1-0.4,0-0.9-0.2-1.3c-0.2-0.4-0.6-0.9-1-1.2c0,0.1,0.2,0.4,0.2,0.7c0,0.1,0,0.3-0.1,0.4
	C81.7,146.4,81.6,146.5,81.6,146.6L81.6,146.6L81.6,146.6z M80.4,142.7L80.4,142.7c-0.1,0.2-0.2,0.2-0.6,0.3
	c-0.3,0.1-0.6,0.1-0.8,0.2c-0.3,0.2-0.1,0.3-0.2,0.5c-0.2,0.4-0.2,0-0.5-0.1c-0.2,0.2-0.2,0.4-0.3,0.6c-0.1,0.1-0.2,0.2-0.2,0.3
	c0,0.1,0.1,0.2,0.2,0.3c0.1,0.4-0.1,1-0.6,1c0.5,0.3,0.4-0.1,0.6-0.2c0.2-0.1,0.5,0,0.8,0.1c0.3,0.1,0.6,0.2,0.9,0.2
	c0.3,0,0.6-0.1,0.8-0.1c-0.1-0.1-0.3-0.1-0.4-0.2c0.1-0.2,0.6-0.2,0.8-0.3c0.1,0,0.1-0.1,0.2-0.1l0.6-1.6c-0.1,0-0.2,0.1-0.3,0.1
	c-0.1-0.4,0.1-0.9-0.1-1.3c-0.2-0.4-0.6-0.8-0.9-1.2c0,0.1,0.2,0.4,0.2,0.7c0,0.1-0.1,0.3-0.1,0.4C80.5,142.5,80.5,142.6,80.4,142.7
	L80.4,142.7L80.4,142.7z M80,138.2L80,138.2c-0.1,0.2-0.3,0.2-0.6,0.2c-0.3,0.1-0.6,0.1-0.8,0.2c-0.3,0.1-0.1,0.3-0.2,0.5
	c-0.2,0.4-0.2,0-0.5-0.1c-0.2,0.2-0.2,0.4-0.4,0.5c-0.1,0.1-0.2,0.2-0.2,0.3c0,0.1,0.1,0.2,0.1,0.3c0,0.4-0.2,1-0.7,1
	c0.4,0.3,0.4,0,0.6-0.1c0.2-0.1,0.5,0,0.8,0.1c0.3,0.1,0.6,0.3,0.9,0.3c0.3,0,0.6-0.1,0.8-0.1c-0.1-0.1-0.3-0.1-0.4-0.2
	c0.2-0.1,0.6-0.2,0.8-0.2c0.1,0,0.1,0,0.2-0.1l0.7-1.5c-0.1,0-0.2,0.1-0.3,0.1c0-0.4,0.1-0.8,0-1.2c-0.1-0.4-0.5-0.8-0.8-1.2
	c0,0.1,0.2,0.4,0.1,0.7c0,0.1-0.1,0.3-0.2,0.3C80.1,138.1,80,138.1,80,138.2L80,138.2L80,138.2z M80.2,134.3L80.2,134.3
	c-0.1,0.2-0.3,0.1-0.6,0.2c-0.2,0.1-0.6,0-0.8,0.1c-0.3,0.1-0.1,0.3-0.3,0.4c-0.2,0.4-0.2,0-0.4-0.1c-0.2,0.1-0.3,0.3-0.4,0.5
	c-0.1,0.1-0.2,0.1-0.2,0.2c0,0.1,0.1,0.2,0.1,0.3c0,0.3-0.3,0.9-0.8,0.8c0.4,0.3,0.4,0,0.6-0.1c0.2-0.1,0.5,0.1,0.7,0.2
	c0.3,0.1,0.5,0.3,0.8,0.3c0.3,0,0.5,0,0.8,0c-0.1-0.1-0.2-0.1-0.4-0.2c0.2-0.1,0.6-0.1,0.8-0.2c0.1,0,0.1,0,0.2-0.1l0.9-1.4
	c-0.1,0-0.2,0.1-0.2,0.1c0-0.4,0.2-0.8,0.2-1.1c-0.1-0.4-0.3-0.8-0.6-1.1c0,0.1,0.1,0.4,0,0.6c-0.1,0.1-0.1,0.2-0.2,0.3
	C80.4,134.1,80.3,134.2,80.2,134.3L80.2,134.3L80.2,134.3z M80.3,131.2L80.3,131.2c-0.2,0.2-0.2,0.1-0.5,0.1c-0.2,0-0.5,0-0.7,0
	c-0.3,0.1-0.2,0.2-0.3,0.3c-0.3,0.3-0.2,0-0.3-0.2c-0.2,0.1-0.3,0.2-0.4,0.4c-0.1,0.1-0.2,0.1-0.2,0.2c0,0.1,0,0.2,0,0.3
	c-0.1,0.3-0.4,0.7-0.8,0.6c0.2,0.3,0.3,0,0.5,0c0.2,0,0.4,0.1,0.6,0.2c0.2,0.1,0.4,0.3,0.6,0.3c0.2,0,0.5,0,0.6,0.1
	c-0.1-0.1-0.2-0.1-0.3-0.2c0.2-0.1,0.5,0,0.7-0.1c0.1,0,0.1,0,0.2,0l1-1.1c-0.1,0-0.1,0-0.2,0c0.1-0.3,0.3-0.6,0.4-0.9
	c0-0.3-0.1-0.7-0.2-1c0,0.1,0,0.3-0.1,0.5c-0.1,0.1-0.1,0.2-0.2,0.2C80.5,131.1,80.4,131.1,80.3,131.2L80.3,131.2L80.3,131.2z
	 M80.9,128.1L80.9,128.1c-0.1,0.2-0.2,0.1-0.5,0.1c-0.2,0-0.4,0-0.6,0c-0.2,0.1-0.1,0.2-0.3,0.3c-0.2,0.3-0.1,0-0.3-0.2
	c-0.2,0.1-0.3,0.2-0.4,0.3c-0.1,0.1-0.2,0.1-0.2,0.2c0,0.1,0,0.2,0,0.3c-0.1,0.3-0.4,0.7-0.8,0.6c0.2,0.2,0.3,0,0.5,0
	c0.2,0,0.4,0.1,0.5,0.2c0.2,0.1,0.3,0.3,0.6,0.3c0.2,0,0.4,0,0.6,0c-0.1-0.1-0.2-0.1-0.2-0.2c0.1-0.1,0.5,0,0.7-0.1
	c0.1,0,0.1,0,0.2,0l1-1c-0.1,0-0.1,0-0.2,0c0.1-0.3,0.3-0.6,0.3-0.9c0-0.3-0.1-0.7-0.2-0.9c0,0,0,0.3-0.1,0.5
	c-0.1,0.1-0.1,0.2-0.2,0.2C81,128,81,128,80.9,128.1L80.9,128.1L80.9,128.1z M81.7,125.4L81.7,125.4c-0.1,0.1-0.2,0.1-0.4,0.1
	c-0.2,0-0.4,0-0.6,0c-0.2,0.1-0.1,0.2-0.3,0.3c-0.2,0.2-0.1,0-0.3-0.1c-0.2,0.1-0.2,0.2-0.4,0.3c-0.1,0-0.2,0.1-0.2,0.1
	c0,0.1,0,0.2,0,0.2c-0.1,0.2-0.4,0.6-0.7,0.5c0.2,0.2,0.3,0,0.4,0c0.2,0,0.3,0.1,0.5,0.2c0.2,0.1,0.3,0.2,0.5,0.3c0.2,0,0.4,0,0.6,0
	c-0.1-0.1-0.2-0.1-0.2-0.2c0.1-0.1,0.4,0,0.6-0.1c0.1,0,0.1,0,0.2,0l0.9-0.9c-0.1,0-0.1,0-0.2,0c0.1-0.3,0.3-0.5,0.3-0.8
	c0-0.3-0.1-0.6-0.2-0.9c0,0,0,0.3-0.1,0.4c-0.1,0.1-0.1,0.2-0.2,0.2C81.8,125.3,81.7,125.3,81.7,125.4L81.7,125.4L81.7,125.4z
	 M82.5,122.8L82.5,122.8c-0.1,0.1-0.2,0.1-0.4,0.1c-0.2,0-0.4,0-0.5,0c-0.2,0.1-0.1,0.2-0.2,0.3c-0.2,0.2-0.1,0-0.3-0.1
	c-0.1,0.1-0.2,0.2-0.3,0.3c-0.1,0-0.2,0.1-0.2,0.1c0,0.1,0,0.2,0,0.2c-0.1,0.2-0.3,0.6-0.7,0.5c0.2,0.2,0.3,0,0.4,0
	c0.2,0,0.3,0.1,0.4,0.2c0.2,0.1,0.3,0.2,0.5,0.3c0.2,0,0.4,0,0.5,0c-0.1-0.1-0.1-0.1-0.2-0.1c0.1-0.1,0.4,0,0.6-0.1
	c0.1,0,0.1,0,0.1,0l0.8-0.8c-0.1,0-0.1,0-0.2,0c0.1-0.2,0.3-0.5,0.3-0.7c0-0.2-0.1-0.6-0.2-0.8c0,0,0,0.3-0.1,0.4
	c-0.1,0.1-0.1,0.1-0.2,0.2C82.6,122.7,82.6,122.7,82.5,122.8L82.5,122.8L82.5,122.8z M84.2,120.2L84.2,120.2c-0.1,0.1-0.2,0-0.4,0
	c-0.2,0-0.3-0.1-0.5,0c-0.2,0-0.1,0.1-0.3,0.2c-0.2,0.2-0.1,0-0.2-0.1c-0.1,0.1-0.2,0.2-0.4,0.2c-0.1,0-0.2,0.1-0.2,0.1
	c0,0,0,0.1,0,0.2c-0.1,0.2-0.4,0.5-0.7,0.4c0.1,0.2,0.2,0,0.4,0c0.2,0,0.3,0.1,0.4,0.2c0.1,0.1,0.2,0.2,0.4,0.3c0.1,0,0.3,0,0.5,0.1
	c-0.1-0.1-0.1-0.1-0.2-0.2c0.1-0.1,0.4,0,0.5,0c0.1,0,0.1,0,0.1,0l0.9-0.7c0,0-0.1,0-0.2,0c0.1-0.2,0.3-0.4,0.4-0.7
	c0.1-0.2,0-0.5,0-0.7c0,0,0,0.2-0.2,0.4c-0.1,0.1-0.1,0.1-0.2,0.2C84.3,120.1,84.2,120.1,84.2,120.2L84.2,120.2L84.2,120.2z
	 M86,117.9L86,117.9c-0.1,0.1-0.2,0-0.4,0c-0.1,0-0.3-0.1-0.4-0.1c-0.2,0-0.2,0.1-0.3,0.2c-0.2,0.1-0.1,0-0.2-0.1
	c-0.1,0-0.2,0.1-0.4,0.2c-0.1,0-0.2,0-0.2,0.1c0,0,0,0.1-0.1,0.2c-0.1,0.2-0.4,0.4-0.7,0.3c0.1,0.2,0.2,0.1,0.3,0.1
	c0.1,0,0.2,0.1,0.3,0.2c0.1,0.1,0.2,0.2,0.3,0.3c0.1,0.1,0.3,0.1,0.4,0.1c0-0.1-0.1-0.1-0.1-0.2c0.1,0,0.3,0,0.5,0c0,0,0.1,0,0.1,0
	l0.9-0.6c0,0-0.1,0-0.1,0c0.1-0.2,0.4-0.4,0.5-0.6c0.1-0.2,0.1-0.5,0.1-0.7c0,0-0.1,0.2-0.2,0.3c-0.1,0.1-0.1,0.1-0.2,0.1
	C86.1,117.9,86.1,117.9,86,117.9L86,117.9L86,117.9z M87.4,115.9L87.4,115.9c-0.1,0.1-0.2,0-0.3,0c-0.1,0-0.3-0.1-0.4-0.1
	c-0.2,0-0.1,0.1-0.3,0.2c-0.2,0.1-0.1,0-0.2-0.1c-0.1,0-0.2,0.1-0.4,0.2c-0.1,0-0.1,0-0.2,0.1c0,0,0,0.1-0.1,0.2
	c-0.1,0.2-0.4,0.4-0.7,0.3c0.1,0.2,0.2,0.1,0.3,0.1c0.1,0,0.2,0.1,0.3,0.2c0.1,0.1,0.2,0.2,0.3,0.3c0.1,0,0.3,0.1,0.4,0.1
	c0,0-0.1-0.1-0.1-0.1c0.1,0,0.3,0,0.4,0c0,0,0.1,0,0.1,0l0.9-0.5c0,0-0.1,0-0.1,0c0.1-0.2,0.4-0.3,0.4-0.5c0.1-0.2,0.1-0.4,0.1-0.6
	c0,0-0.1,0.2-0.2,0.3c-0.1,0.1-0.1,0.1-0.2,0.1C87.6,115.9,87.5,115.9,87.4,115.9L87.4,115.9L87.4,115.9z M89,114.1L89,114.1
	c-0.1,0.1-0.2,0-0.3,0c-0.1,0-0.3-0.1-0.4-0.1c-0.2,0-0.1,0.1-0.2,0.2c-0.2,0.1-0.1,0-0.1-0.1c-0.1,0-0.2,0.1-0.3,0.2
	c-0.1,0-0.1,0-0.2,0.1c0,0,0,0.1-0.1,0.2c-0.1,0.2-0.4,0.4-0.6,0.3c0.1,0.2,0.2,0.1,0.3,0c0.1,0,0.2,0.1,0.3,0.2
	c0.1,0.1,0.1,0.2,0.3,0.2c0.1,0,0.3,0.1,0.4,0.1c0,0-0.1-0.1-0.1-0.1c0.1,0,0.3,0,0.4,0c0,0,0.1,0,0.1,0l0.8-0.5c0,0-0.1,0-0.1,0
	c0.1-0.2,0.3-0.3,0.4-0.5c0.1-0.2,0.1-0.4,0.1-0.6c0,0-0.1,0.2-0.2,0.3c-0.1,0-0.1,0.1-0.2,0.1C89.1,114,89.1,114,89,114.1L89,114.1
	L89,114.1z M90.9,112.3L90.9,112.3c-0.1,0.1-0.1,0-0.3,0c-0.1,0-0.2-0.1-0.4-0.1c-0.2,0-0.1,0.1-0.2,0.2c-0.2,0.1-0.1,0-0.1-0.1
	c-0.1,0-0.2,0.1-0.3,0.2c0,0-0.1,0-0.2,0.1c0,0,0,0.1-0.1,0.1c-0.1,0.1-0.4,0.3-0.6,0.3c0.1,0.2,0.2,0,0.3,0c0.1,0,0.2,0.1,0.3,0.2
	c0.1,0.1,0.1,0.2,0.3,0.2c0.1,0,0.2,0.1,0.3,0.1c0,0-0.1-0.1-0.1-0.1c0.1,0,0.3,0,0.4,0c0,0,0.1,0,0.1,0l0.8-0.5c0,0-0.1,0-0.1,0
	c0.1-0.2,0.3-0.3,0.4-0.5c0.1-0.2,0.1-0.4,0.1-0.6c0,0-0.1,0.2-0.2,0.3c-0.1,0-0.1,0.1-0.2,0.1C91,112.3,91,112.3,90.9,112.3
	L90.9,112.3L90.9,112.3z M93.5,110.8L93.5,110.8c-0.1,0.1-0.1,0-0.3,0c-0.1,0-0.2-0.1-0.3-0.1c-0.2,0-0.1,0.1-0.3,0.1
	c-0.2,0.1-0.1,0-0.1-0.1c-0.1,0-0.2,0.1-0.3,0.1c-0.1,0-0.1,0-0.2,0.1c0,0-0.1,0.1-0.1,0.1c-0.1,0.1-0.4,0.3-0.6,0.2
	c0,0.2,0.2,0.1,0.3,0.1c0.1,0,0.2,0.1,0.2,0.2c0.1,0.1,0.1,0.2,0.2,0.3c0.1,0.1,0.2,0.1,0.3,0.1c0,0-0.1-0.1-0.1-0.1
	c0.1,0,0.3,0,0.4,0.1c0,0,0.1,0,0.1,0l0.8-0.4c0,0-0.1,0-0.1,0c0.1-0.1,0.4-0.3,0.5-0.4c0.1-0.2,0.2-0.4,0.2-0.5
	c0,0-0.1,0.2-0.2,0.2c-0.1,0-0.1,0.1-0.2,0.1C93.6,110.8,93.6,110.8,93.5,110.8L93.5,110.8L93.5,110.8z M90.2,109L90.2,109L90.2,109
	c0-0.1,0-0.1,0-0.1c0,0,0-0.1,0-0.2c0-0.1,0.1-0.3,0.2-0.3c-0.2,0.1-0.4,0.3-0.6,0.5c-0.1,0.2-0.1,0.4-0.2,0.6c0,0-0.1,0-0.1-0.1
	l0.1,0.8c0,0,0,0,0.1,0.1c0.1,0.1,0.3,0.1,0.4,0.2c-0.1,0-0.2,0-0.2,0c0.1,0,0.2,0.1,0.4,0.1c0.1,0,0.3,0,0.5-0.1
	c0.1,0,0.3-0.1,0.4,0c0.1,0.1,0,0.2,0.3,0.1c-0.3,0-0.3-0.3-0.2-0.5c0,0,0.1-0.1,0.1-0.1c0-0.1,0-0.1-0.1-0.1c0-0.1,0-0.2-0.1-0.3
	c-0.2,0-0.2,0.2-0.2,0c0-0.1,0.1-0.2,0-0.3c-0.1-0.1-0.3-0.1-0.4-0.1C90.3,109.1,90.2,109.1,90.2,109L90.2,109z M92.6,108.1
	L92.6,108.1L92.6,108.1c0-0.1,0-0.1,0-0.1c0,0,0-0.1,0-0.2c0.1-0.1,0.2-0.2,0.3-0.2c-0.2,0.1-0.5,0.2-0.7,0.3
	c-0.2,0.1-0.3,0.3-0.4,0.5c0,0,0,0-0.1-0.1l-0.2,0.7c0,0,0,0,0.1,0.1c0.1,0.1,0.2,0.1,0.2,0.2c-0.1,0-0.1,0-0.2,0
	c0.1,0,0.2,0.1,0.3,0.2c0.1,0,0.3,0,0.4,0c0.1,0,0.3,0,0.3,0.1c0.1,0.1,0,0.2,0.2,0.1c-0.2-0.1-0.1-0.3,0-0.5c0,0,0.1-0.1,0.2-0.1
	c0,0,0-0.1,0-0.1c0-0.1,0.1-0.2,0-0.3c-0.1,0-0.3,0.1-0.2,0c0-0.1,0.1-0.1,0.1-0.2c0-0.1-0.2-0.1-0.3-0.2
	C92.7,108.2,92.6,108.2,92.6,108.1L92.6,108.1z M96,109.3L96,109.3c-0.1,0.1-0.1,0-0.3,0c-0.1,0-0.2-0.1-0.3-0.1
	c-0.2,0-0.1,0.1-0.3,0.1c-0.2,0.1-0.1,0-0.1-0.1c-0.1,0-0.2,0.1-0.3,0.1c-0.1,0-0.1,0-0.2,0.1c0,0-0.1,0.1-0.1,0.1
	c-0.1,0.1-0.4,0.3-0.6,0.2c0,0.2,0.2,0.1,0.3,0.1c0.1,0,0.2,0.1,0.2,0.2c0.1,0.1,0.1,0.2,0.2,0.3c0.1,0.1,0.2,0.1,0.3,0.1
	c0,0-0.1-0.1-0.1-0.1c0.1,0,0.3,0,0.4,0.1c0,0,0.1,0,0.1,0l0.8-0.4c0,0-0.1,0-0.1,0c0.1-0.1,0.4-0.3,0.5-0.4
	c0.1-0.2,0.2-0.4,0.2-0.5c0,0-0.1,0.2-0.2,0.2c-0.1,0-0.1,0.1-0.2,0.1C96.1,109.3,96.1,109.3,96,109.3L96,109.3L96,109.3z
	 M94.7,107.5L94.7,107.5L94.7,107.5C94.7,107.4,94.7,107.4,94.7,107.5c0-0.1,0.1-0.2,0.1-0.2c0.1-0.1,0.2-0.1,0.3-0.2
	c-0.2,0-0.5,0.1-0.6,0.2c-0.2,0.1-0.3,0.2-0.4,0.3c0,0,0,0,0-0.1l-0.4,0.5c0,0,0,0,0,0.1c0,0.1,0.1,0.1,0.1,0.2c-0.1,0-0.1,0-0.2,0
	c0.1,0,0.1,0.1,0.2,0.2c0.1,0,0.2,0.1,0.3,0.1c0.1,0,0.2,0,0.3,0.1c0,0.1-0.1,0.1,0.1,0.1c-0.2-0.1,0-0.3,0.2-0.4c0,0,0.1,0,0.2-0.1
	c0,0,0-0.1,0-0.1c0-0.1,0.1-0.1,0.1-0.2c-0.1,0-0.3,0.1-0.2,0c0.1-0.1,0.1-0.1,0.1-0.2c0-0.1-0.1-0.1-0.2-0.2
	C94.7,107.6,94.6,107.6,94.7,107.5L94.7,107.5z M96.7,107.1L96.7,107.1L96.7,107.1C96.8,107,96.8,107,96.7,107.1
	c0.1-0.1,0.1-0.1,0.2-0.2c0.1-0.1,0.2-0.1,0.3-0.1c-0.2,0-0.4,0-0.6,0.1c-0.2,0-0.3,0.2-0.5,0.2c0,0,0,0,0-0.1l-0.5,0.4c0,0,0,0,0,0
	c0,0.1,0.1,0.1,0.1,0.2c0,0-0.1,0-0.1,0c0,0,0.1,0.1,0.1,0.2c0.1,0.1,0.2,0.1,0.3,0.1c0.1,0,0.2,0.1,0.2,0.1c0,0.1-0.1,0.1,0.1,0.1
	c-0.1-0.1,0.1-0.2,0.2-0.3c0,0,0.1,0,0.2,0c0,0,0-0.1,0.1-0.1c0.1-0.1,0.1-0.1,0.2-0.2c-0.1,0-0.3,0-0.1-0.1c0.1-0.1,0.2,0,0.2-0.1
	c0-0.1-0.1-0.1-0.1-0.2C96.7,107.1,96.7,107.1,96.7,107.1L96.7,107.1z M98.5,108L98.5,108c-0.1,0-0.1,0-0.2,0
	c-0.1,0-0.2-0.1-0.3-0.1c-0.1,0-0.1,0.1-0.2,0.1c-0.2,0.1,0,0-0.1-0.1c-0.1,0-0.2,0.1-0.2,0.1c0,0-0.1,0-0.1,0c0,0,0,0.1-0.1,0.1
	c-0.1,0.1-0.3,0.2-0.4,0.1c0,0.1,0.1,0,0.2,0.1c0.1,0,0.1,0.1,0.2,0.1c0,0.1,0.1,0.1,0.2,0.2c0.1,0,0.2,0.1,0.2,0.1
	c0,0,0-0.1-0.1-0.1c0.1,0,0.2,0,0.3,0c0,0,0.1,0,0.1,0l0.6-0.3c0,0-0.1,0-0.1,0c0.1-0.1,0.3-0.2,0.3-0.3c0.1-0.1,0.1-0.3,0.1-0.4
	c0,0-0.1,0.1-0.2,0.2c0,0-0.1,0.1-0.1,0.1C98.6,108,98.5,108,98.5,108L98.5,108L98.5,108z M98.9,106.4L98.9,106.4L98.9,106.4
	c0,0,0.1-0.1,0.1-0.1c0,0,0.1-0.1,0.1-0.1c0.1-0.1,0.1-0.3,0.1-0.3c0.1,0.2,0.2,0.4,0.2,0.5c0,0.2-0.1,0.3-0.2,0.5c0,0,0.1,0,0.1,0
	l-0.5,0.6c0,0-0.1,0-0.1,0c-0.1,0-0.3,0-0.4,0c0,0,0.1,0.1,0.2,0.1c-0.1,0-0.2,0-0.4,0c-0.1,0-0.2-0.1-0.3-0.2
	c-0.1-0.1-0.2-0.1-0.3-0.1c-0.1,0-0.1,0.1-0.3,0c0.2,0,0.4-0.2,0.4-0.4c0,0,0-0.1,0-0.2c0,0,0.1-0.1,0.1-0.1
	c0.1-0.1,0.1-0.2,0.2-0.2c0.1,0.1,0.1,0.2,0.2,0.1c0.1-0.1,0-0.2,0.2-0.2c0.1,0,0.3,0,0.4,0C98.7,106.4,98.8,106.5,98.9,106.4z"/>
</svg>
