<?xml version="1.0" encoding="utf-8"?>
<!-- Generator: Adobe Illustrator 19.2.0, SVG Export Plug-In . SVG Version: 6.00 Build 0)  -->
<svg version="1.2" baseProfile="tiny" id="Layer_2" xmlns="http://www.w3.org/2000/svg" xmlns:xlink="http://www.w3.org/1999/xlink"
	 x="0px" y="0px" viewBox="0 0 170 244" xml:space="preserve">
<metadata><?xpacket begin="﻿" id="W5M0MpCehiHzreSzNTczkc9d"?>
<x:xmpmeta xmlns:x="adobe:ns:meta/" x:xmptk="Adobe XMP Core 5.6-c111 79.158366, 2015/09/25-01:12:00        ">
   <rdf:RDF xmlns:rdf="http://www.w3.org/1999/02/22-rdf-syntax-ns#">
      <rdf:Description rdf:about=""/>
   </rdf:RDF>
</x:xmpmeta>

<?xpacket end="w"?></metadata>
<linearGradient id="SVGID_1_" gradientUnits="userSpaceOnUse" x1="85" y1="-3.053174e-09" x2="85" y2="244">
	<stop  offset="0" style="stop-color:#0069D6"/>
	<stop  offset="1" style="stop-color:#000203"/>
</linearGradient>
<path fill="url(#SVGID_1_)" d="M17,0h136c9.4,0,17,7.6,17,17.1v209.8c0,9.4-7.6,17.1-17,17.1H17c-9.4,0-17-7.6-17-17.1V17.1
	C0,7.6,7.6,0,17,0z"/>
<path fill="#FFFFFF" d="M25.9,116.2c0,0,2.6-6.6,8.9-13.6c6.3-7,11.3-10.7,11.3-10.7s-6.6-4-11.2-10.1c-4.6-6.1-8.9-14-8.9-14
	s-3.8,7.5-9.2,13.9C11.9,87.6,6.1,91.9,6.1,91.9s5,3.7,11.2,10.7C23.7,109.6,25.9,116.2,25.9,116.2z"/>
<g>
	<path fill="#FFFFFF" d="M30.1,12.2L30.1,12.2c5.3,0,9.6,4.3,9.6,9.6V48c0,5.3-4.3,9.6-9.6,9.6l0,0c-5.3,0-9.6-4.3-9.6-9.6V21.8
		C20.5,16.5,24.8,12.2,30.1,12.2L30.1,12.2z M30.1,17.2c-3.2,0-5.9,2.7-5.9,5.9v23.8c0,3.3,2.6,5.9,5.9,5.9l0,0
		c3.3,0,5.9-2.7,5.9-5.9V23.1C36,19.9,33.3,17.2,30.1,17.2L30.1,17.2z"/>
	<rect x="10.9" y="13.5" fill="#FFFFFF" width="3.7" height="43.2"/>
</g>
<g>
	<linearGradient id="SVGID_2_" gradientUnits="userSpaceOnUse" x1="122.6364" y1="65.975" x2="122.6364" y2="205.8034">
		<stop  offset="0" style="stop-color:#FFFFFF"/>
		<stop  offset="1" style="stop-color:#6F7073"/>
	</linearGradient>
	<path fill="url(#SVGID_2_)" d="M122.6,66L122.6,66c16.3,0,29.5,13.2,29.5,29.5v80.8c0,16.3-13.2,29.5-29.5,29.5l0,0
		c-16.3,0-29.5-13.2-29.5-29.5V95.5C93.1,79.2,106.4,66,122.6,66L122.6,66z M122.6,81.2c-9.9,0-18.3,8.4-18.3,18.3V173
		c0,10.2,8.1,18.3,18.3,18.3l0,0c10.2,0,18.3-8.4,18.3-18.3V99.5C140.9,89.6,132.6,81.2,122.6,81.2L122.6,81.2z"/>
	<linearGradient id="SVGID_3_" gradientUnits="userSpaceOnUse" x1="69.1203" y1="69.831" x2="69.1203" y2="203.1042">
		<stop  offset="0" style="stop-color:#FFFFFF"/>
		<stop  offset="1" style="stop-color:#6F7073"/>
	</linearGradient>
	<rect x="63.4" y="69.8" fill="url(#SVGID_3_)" width="11.4" height="133.3"/>
</g>
</svg>
