<?xml version="1.0" encoding="utf-8"?>
<!-- Generator: Adobe Illustrator 19.2.0, SVG Export Plug-In . SVG Version: 6.00 Build 0)  -->
<svg version="1.2" baseProfile="tiny" id="Layer_2" xmlns="http://www.w3.org/2000/svg" xmlns:xlink="http://www.w3.org/1999/xlink"
	 x="0px" y="0px" viewBox="0 0 170 244" xml:space="preserve">
<metadata><?xpacket begin="﻿" id="W5M0MpCehiHzreSzNTczkc9d"?>
<x:xmpmeta xmlns:x="adobe:ns:meta/" x:xmptk="Adobe XMP Core 5.6-c111 79.158366, 2015/09/25-01:12:00        ">
   <rdf:RDF xmlns:rdf="http://www.w3.org/1999/02/22-rdf-syntax-ns#">
      <rdf:Description rdf:about=""/>
   </rdf:RDF>
</x:xmpmeta>
                                                                                                    
                                                                                                    
                                                                                                    
                                                                                                    
                                                                                                    
                                                                                                    
                                                                                                    
                                                                                                    
                                                                                                    
                                                                                                    
                                                                                                    
                                                                                                    
                                                                                                    
                                                                                                    
                                                                                                    
                                                                                                    
                                                                                                    
                                                                                                    
                                                                                                    
                                                                                                    
                           
<?xpacket end="w"?></metadata>
<linearGradient id="SVGID_1_" gradientUnits="userSpaceOnUse" x1="85" y1="-3.053174e-09" x2="85" y2="244">
	<stop  offset="0" style="stop-color:#0069D6"/>
	<stop  offset="1" style="stop-color:#000203"/>
</linearGradient>
<path fill="url(#SVGID_1_)" d="M17,0h136c9.4,0,17,7.6,17,17.1v209.8c0,9.4-7.6,17.1-17,17.1H17c-9.4,0-17-7.6-17-17.1V17.1
	C0,7.6,7.6,0,17,0z"/>
<path fill="#FFFFFF" d="M25.9,116.2c0,0,2.6-6.6,8.9-13.6c6.3-7,11.3-10.7,11.3-10.7s-6.6-4-11.2-10.1c-4.6-6.1-8.9-14-8.9-14
	s-3.8,7.5-9.2,13.9C11.9,87.6,6.1,91.9,6.1,91.9s5,3.7,11.2,10.7C23.7,109.6,25.9,116.2,25.9,116.2z"/>
<path fill="#FFFFFF" d="M25.9,12.3L25.9,12.3c-5.3,0-9.6,4.4-9.6,9.6l0,0h3.9c0.6-2.6,3-4.7,5.8-4.7l0,0c3.3,0,5.9,2.7,5.9,6
	c0,1.7-0.5,2.6-1.2,4l-14.3,30l19.1,0.1l0,0v-10h-3.7v5.4h-8.4l0,0l-0.6,0.1l11.3-23.2c1.5-3,1.8-5,1.6-7.8c-0.1-1-0.2-2-0.5-2.8
	v-0.2l0,0C33.8,15.1,30.2,12.3,25.9,12.3z"/>
<linearGradient id="SVGID_2_" gradientUnits="userSpaceOnUse" x1="107.6842" y1="66.4546" x2="107.6842" y2="205.0417">
	<stop  offset="0" style="stop-color:#FFFFFF"/>
	<stop  offset="1" style="stop-color:#6F7073"/>
</linearGradient>
<path fill="url(#SVGID_2_)" d="M107.4,66.5L107.4,66.5c-16.2,0-29.6,13.4-29.6,29.6l0,0h11.9c1.8-8.1,9.1-14.4,18-14.4l0,0
	c10.1,0,18.2,8.4,18.2,18.5c0,5.3-1.5,7.9-3.8,12.4l-44.1,92.2l58.8,0.3l0,0v-30.7h-11.4v16.5H99.6l0,0l-1.8,0.3l34.7-71.2
	c4.6-9.4,5.6-15.5,4.8-24.1c-0.3-3-0.8-6.1-1.5-8.6v-0.5l0,0C131.8,75.1,120.6,66.5,107.4,66.5z"/>
</svg>
