<?xml version="1.0" encoding="utf-8"?>
<!-- Generator: Adobe Illustrator 19.2.0, SVG Export Plug-In . SVG Version: 6.00 Build 0)  -->
<svg version="1.2" baseProfile="tiny" id="Layer_3" xmlns="http://www.w3.org/2000/svg" xmlns:xlink="http://www.w3.org/1999/xlink"
	 x="0px" y="0px" viewBox="0 0 170 244" xml:space="preserve">
<title>2_spades</title>
<metadata><?xpacket begin="﻿" id="W5M0MpCehiHzreSzNTczkc9d"?>
<x:xmpmeta xmlns:x="adobe:ns:meta/" x:xmptk="Adobe XMP Core 5.6-c111 79.158366, 2015/09/25-01:12:00        ">
   <rdf:RDF xmlns:rdf="http://www.w3.org/1999/02/22-rdf-syntax-ns#">
      <rdf:Description rdf:about=""
            xmlns:dc="http://purl.org/dc/elements/1.1/">
         <dc:title>
            <rdf:Alt>
               <rdf:li xml:lang="x-default">2_spades</rdf:li>
            </rdf:Alt>
         </dc:title>
      </rdf:Description>
   </rdf:RDF>
</x:xmpmeta>
                                                                                                    
                                                                                                    
                                                                                                    
                                                                                                    
                                                                                                    
                                                                                                    
                                                                                                    
                                                                                                    
                                                                                                    
                                                                                                    
                                                                                                    
                                                                                                    
                                                                                                    
                                                                                                    
                                                                                                    
                                                                                                    
                                                                                                    
                                                                                                    
                                                                                                    
                                                                                                    
                           
<?xpacket end="w"?></metadata>
<linearGradient id="SVGID_1_" gradientUnits="userSpaceOnUse" x1="85" y1="-5.598849e-09" x2="85" y2="244">
	<stop  offset="0" style="stop-color:#77787A"/>
	<stop  offset="1" style="stop-color:#000000"/>
</linearGradient>
<path fill="url(#SVGID_1_)" d="M17,0h136c9.4,0,17,7.6,17,17c0,0,0,0.1,0,0.1v209.8c0,9.4-7.6,17.1-17,17.1H17c-9.4,0-17-7.6-17-17
	c0,0,0-0.1,0-0.1V17.1C-0.1,7.7,7.5,0.1,16.9,0C16.9,0,17,0,17,0z"/>
<linearGradient id="SVGID_2_" gradientUnits="userSpaceOnUse" x1="107.6748" y1="66.5" x2="107.6748" y2="205.1">
	<stop  offset="0" style="stop-color:#FFFFFF"/>
	<stop  offset="1" style="stop-color:#6F7073"/>
</linearGradient>
<path fill="url(#SVGID_2_)" d="M107.4,66.5L107.4,66.5c-16.3,0.1-29.5,13.3-29.6,29.6h11.9c1.9-8.4,9.4-14.4,18-14.4l0,0
	c10.1,0.1,18.3,8.4,18.2,18.5c0,5.3-1.5,7.9-3.8,12.4L78,204.8l58.8,0.3l0,0v-30.7h-11.4v16.5H99.6l-1.8,0.3l34.7-71.2
	c4.6-9.4,5.6-15.5,4.8-24.1c-0.3-2.9-0.8-5.8-1.5-8.6v-0.5l0,0C131.6,74.7,120.2,66.5,107.4,66.5z"/>
<path fill="#FFFFFF" d="M32.3,114.9c-1.3-1.6-2.3-3.3-3.1-5.1c-0.7-1.7-1.3-3.4-1.8-5.2c0,0,4.7,2.1,7.7,2.1s9.7-1.8,9.9-9
	s-7.2-12.7-11.7-18c-2.7-3-5.1-6.3-7.2-9.8c-2.2,3.4-4.6,6.7-7.2,9.8c-4.6,5.1-12,10.7-11.8,17.9s6.8,9,9.9,9s7.7-2.1,7.7-2.1
	c-0.5,1.8-1.1,3.5-1.8,5.2c-0.8,1.8-1.8,3.5-3.1,5.1L32.3,114.9C32.3,114.9,32.3,114.9,32.3,114.9z"/>
<path fill="#FFFFFF" d="M25.9,12.3L25.9,12.3c-5.3,0-9.6,4.3-9.6,9.6h3.9c0.6-2.7,3-4.6,5.8-4.7l0,0c3.3,0,5.9,2.7,5.9,6
	c0,0,0,0,0,0c0,1.4-0.4,2.8-1.2,4l-14.3,30l19.1,0.1l0,0v-10h-3.7v5.4h-8.4l-0.6,0.1l11.3-23.2c1.3-2.4,1.9-5.1,1.6-7.8
	c-0.1-1-0.2-1.9-0.5-2.8v-0.2l0,0C33.7,14.9,30,12.3,25.9,12.3z"/>
</svg>
