<?xml version="1.0" encoding="utf-8"?>
<!-- Generator: Adobe Illustrator 19.2.0, SVG Export Plug-In . SVG Version: 6.00 Build 0)  -->
<svg version="1.2" baseProfile="tiny" id="Layer_2" xmlns="http://www.w3.org/2000/svg" xmlns:xlink="http://www.w3.org/1999/xlink"
	 x="0px" y="0px" viewBox="0 0 170 244" xml:space="preserve">
<metadata><?xpacket begin="﻿" id="W5M0MpCehiHzreSzNTczkc9d"?>
<x:xmpmeta xmlns:x="adobe:ns:meta/" x:xmptk="Adobe XMP Core 5.6-c111 79.158366, 2015/09/25-01:12:00        ">
   <rdf:RDF xmlns:rdf="http://www.w3.org/1999/02/22-rdf-syntax-ns#">
      <rdf:Description rdf:about=""/>
   </rdf:RDF>
</x:xmpmeta>
                                                                                                    
                                                                                                    
                                                                                                    
                                                                                                    
                                                                                                    
                                                                                                    
                                                                                                    
                                                                                                    
                                                                                                    
                                                                                                    
                                                                                                    
                                                                                                    
                                                                                                    
                                                                                                    
                                                                                                    
                                                                                                    
                                                                                                    
                                                                                                    
                                                                                                    
                                                                                                    
                           
<?xpacket end="w"?></metadata>
<linearGradient id="SVGID_1_" gradientUnits="userSpaceOnUse" x1="85" y1="-3.053174e-09" x2="85" y2="244">
	<stop  offset="0" style="stop-color:#00874C"/>
	<stop  offset="1" style="stop-color:#000201"/>
</linearGradient>
<path fill="url(#SVGID_1_)" d="M17,0h136c9.4,0,17,7.6,17,17.1v209.8c0,9.4-7.6,17.1-17,17.1H17c-9.4,0-17-7.6-17-17.1V17.1
	C0,7.6,7.6,0,17,0z"/>
<path fill="#FFFFFF" d="M32.7,114.7c0,0-2.1-2.8-3.2-6.1s-1.6-7.8-1.6-7.8s3.2,5,8.7,4.9c5.6-0.1,9.5-4.9,9.5-9.5
	c0-4.9-4.1-9.4-8.6-9.6c-4.4-0.2-5.6,0.7-5.6,0.7s3.4-2.9,3.3-8.6c-0.2-8.8-9.1-9.1-9.1-9.1S17,69.8,17,78.7
	c-0.1,5.6,3.3,8.6,3.3,8.6s-1.2-0.9-5.6-0.7c-4.4,0.2-8.6,4.9-8.6,9.6c0,4.9,4,9.5,9.5,9.5s8.7-4.9,8.7-4.9s-0.4,4.5-1.6,7.8
	s-3.2,6.1-3.2,6.1H32.7z"/>
<path fill="#FFFFFF" d="M31.9,34c2.7,1.9,4.4,5,4.4,8.5v4.7c0,5.8-4.7,10.4-10.4,10.4l0,0c-5.7,0-10.4-4.7-10.4-10.4v-0.9h3.9
	c0.1,3.5,3,6.3,6.4,6.3l0,0c3.5,0,6.4-2.9,6.4-6.5V44c0-3.5-2.9-6.5-6.4-6.5l0,0c-0.2,0-0.4,0-0.6,0v-6.2c0.2,0,0.3,0,0.6,0l0,0
	c3.3,0,6-2.7,6-6v-2.1c0-3.3-2.7-6-6-6l0,0c-3.3,0-6,2.7-6,6l0,0h-3.6V22c0-5.3,4.4-9.7,9.6-9.7l0,0c5.3,0,9.6,4.4,9.6,9.7v4.4
	C35.6,29.4,34.2,32.2,31.9,34z"/>
<linearGradient id="SVGID_2_" gradientUnits="userSpaceOnUse" x1="108.0478" y1="66.3262" x2="108.0478" y2="206.0024">
	<stop  offset="0" style="stop-color:#FFFFFF"/>
	<stop  offset="1" style="stop-color:#6F7073"/>
</linearGradient>
<path fill="url(#SVGID_2_)" d="M126.3,133.1c8.4,5.8,13.7,15.4,13.7,26.3v14.4c0,17.7-14.4,32.1-31.9,32.1l0,0
	c-17.5,0-31.9-14.4-31.9-32.1v-2.8h12.1c0.3,10.6,9.1,19.5,19.7,19.5l0,0c10.9,0,19.7-8.9,19.7-20V164c0-10.9-8.9-20-19.7-20l0,0
	c-0.5,0-1.3,0-1.8,0v-19c0.5,0,1,0,1.8,0l0,0c10.1,0,18.5-8.4,18.5-18.5v-6.3c0-10.1-8.4-18.5-18.5-18.5l0,0
	c-10.1,0-18.5,8.4-18.5,18.5l0,0H78.4v-4c0-16.4,13.4-29.9,29.6-29.9l0,0c16.2,0,29.6,13.4,29.6,29.9v13.4
	C137.9,119,133.4,127.6,126.3,133.1z"/>
</svg>
