<?xml version="1.0" encoding="utf-8"?>
<!-- Generator: Adobe Illustrator 19.2.0, SVG Export Plug-In . SVG Version: 6.00 Build 0)  -->
<svg version="1.2" baseProfile="tiny" id="Layer_2" xmlns="http://www.w3.org/2000/svg" xmlns:xlink="http://www.w3.org/1999/xlink"
	 x="0px" y="0px" viewBox="0 0 170 244" xml:space="preserve">
<metadata><?xpacket begin="﻿" id="W5M0MpCehiHzreSzNTczkc9d"?>
<x:xmpmeta xmlns:x="adobe:ns:meta/" x:xmptk="Adobe XMP Core 5.6-c111 79.158366, 2015/09/25-01:12:00        ">
   <rdf:RDF xmlns:rdf="http://www.w3.org/1999/02/22-rdf-syntax-ns#">
      <rdf:Description rdf:about=""/>
   </rdf:RDF>
</x:xmpmeta>
                                                                                                    
                                                                                                    
                                                                                                    
                                                                                                    
                                                                                                    
                                                                                                    
                                                                                                    
                                                                                                    
                                                                                                    
                                                                                                    
                                                                                                    
                                                                                                    
                                                                                                    
                                                                                                    
                                                                                                    
                                                                                                    
                                                                                                    
                                                                                                    
                                                                                                    
                                                                                                    
                           
<?xpacket end="w"?></metadata>
<linearGradient id="SVGID_1_" gradientUnits="userSpaceOnUse" x1="85" y1="-3.053174e-09" x2="85" y2="244">
	<stop  offset="0" style="stop-color:#A9001C"/>
	<stop  offset="1" style="stop-color:#010000"/>
</linearGradient>
<path fill="url(#SVGID_1_)" d="M17,0h136c9.4,0,17,7.6,17,17.1v209.8c0,9.4-7.6,17.1-17,17.1H17c-9.4,0-17-7.6-17-17.1V17.1
	C0,7.6,7.6,0,17,0z"/>
<path fill="#FFFFFF" d="M26.1,113.3c0,0,4.7-9.8,10.1-16.7s9.5-10.5,9.6-16.6c0-3.7-3-8.9-9.1-9.1c-8.1-0.2-10.6,7.4-10.6,7.4
	s-2.5-7.7-10.6-7.4c-6.1,0.2-9.2,5.4-9.1,9.1c0.1,6,4.2,9.7,9.6,16.6C21.3,103.4,26.1,113.3,26.1,113.3z"/>
<polygon fill="#FFFFFF" points="19,51 17.8,51 13.9,51 25.7,12.6 29.5,12.6 19.6,46.5 25.4,46.5 25.4,39.1 29.1,39.1 29.1,46.5 
	35.5,46.5 35.5,51 35.5,51 31.7,51 29.1,51 29.1,57.3 25.4,57.3 25.4,51 "/>
<linearGradient id="SVGID_2_" gradientUnits="userSpaceOnUse" x1="105.6153" y1="65.7465" x2="105.6153" y2="205.7364">
	<stop  offset="0" style="stop-color:#FFFFFF"/>
	<stop  offset="1" style="stop-color:#6F7073"/>
</linearGradient>
<polygon fill="url(#SVGID_2_)" points="87.8,186.2 84.2,186.2 71.8,186.2 108.8,65.7 120.6,65.7 89.6,172.1 107.8,172.1 
	107.8,148.7 119.4,148.7 119.4,172.1 139.4,172.1 139.4,186.2 139.4,186.2 127.6,186.2 119.4,186.2 119.4,205.7 107.8,205.7 
	107.8,186.2 "/>
</svg>
