<?xml version="1.0" encoding="utf-8"?>
<!-- Generator: Adobe Illustrator 19.2.0, SVG Export Plug-In . SVG Version: 6.00 Build 0)  -->
<svg version="1.2" baseProfile="tiny" id="Layer_2" xmlns="http://www.w3.org/2000/svg" xmlns:xlink="http://www.w3.org/1999/xlink"
	 x="0px" y="0px" viewBox="0 0 170 244" xml:space="preserve">
<metadata><?xpacket begin="﻿" id="W5M0MpCehiHzreSzNTczkc9d"?>
<x:xmpmeta xmlns:x="adobe:ns:meta/" x:xmptk="Adobe XMP Core 5.6-c111 79.158366, 2015/09/25-01:12:00        ">
   <rdf:RDF xmlns:rdf="http://www.w3.org/1999/02/22-rdf-syntax-ns#">
      <rdf:Description rdf:about=""/>
   </rdf:RDF>
</x:xmpmeta>
                                                                                                    
                                                                                                    
                                                                                                    
                                                                                                    
                                                                                                    
                                                                                                    
                                                                                                    
                                                                                                    
                                                                                                    
                                                                                                    
                                                                                                    
                                                                                                    
                                                                                                    
                                                                                                    
                                                                                                    
                                                                                                    
                                                                                                    
                                                                                                    
                                                                                                    
                                                                                                    
                           
<?xpacket end="w"?></metadata>
<linearGradient id="SVGID_1_" gradientUnits="userSpaceOnUse" x1="85" y1="-3.053174e-09" x2="85" y2="244">
	<stop  offset="0" style="stop-color:#00874C"/>
	<stop  offset="1" style="stop-color:#000201"/>
</linearGradient>
<path fill="url(#SVGID_1_)" d="M17,0h136c9.4,0,17,7.6,17,17.1v209.8c0,9.4-7.6,17.1-17,17.1H17c-9.4,0-17-7.6-17-17.1V17.1
	C0,7.6,7.6,0,17,0z"/>
<path fill="#FFFFFF" d="M32.7,114.7c0,0-2.1-2.8-3.2-6.1s-1.6-7.8-1.6-7.8s3.2,5,8.7,4.9c5.6-0.1,9.5-4.9,9.5-9.5
	c0-4.9-4.1-9.4-8.6-9.6c-4.4-0.2-5.6,0.7-5.6,0.7s3.4-2.9,3.3-8.6c-0.2-8.8-9.1-9.1-9.1-9.1S17,69.8,17,78.7
	c-0.1,5.6,3.3,8.6,3.3,8.6s-1.2-0.9-5.6-0.7c-4.4,0.2-8.6,4.9-8.6,9.6c0,4.9,4,9.5,9.5,9.5s8.7-4.9,8.7-4.9s-0.4,4.5-1.6,7.8
	s-3.2,6.1-3.2,6.1H32.7z"/>
<path fill="#FFFFFF" d="M25.9,57.7L25.9,57.7c-5.2,0-9.6-4.3-9.6-9.6l0,0H20c0.6,2.7,3,4.7,5.8,4.7l0,0c3.2,0,6-2.7,6-6v-8.3
	c0-3.3-2.7-6-6-6l0,0c-2.9,0-5.3,2.1-5.8,4.9h-3.7c0-0.2,0-0.3,0-0.5l0,0V12.8l19.2-0.1l0,0v10h-3.7v-5.4H20v12.6
	c1.7-1.2,3.7-2,5.8-2l0,0c5.2,0,9.6,4.3,9.6,9.6v10.6C35.5,53.4,31.2,57.7,25.9,57.7z"/>
<linearGradient id="SVGID_2_" gradientUnits="userSpaceOnUse" x1="107.7246" y1="67.0728" x2="107.7246" y2="205.9714">
	<stop  offset="0" style="stop-color:#FFFFFF"/>
	<stop  offset="1" style="stop-color:#6F7073"/>
</linearGradient>
<path fill="url(#SVGID_2_)" d="M107.6,206L107.6,206c-16.1,0-29.5-13.3-29.5-29.7l0,0h11.5c1.8,8.2,9.2,14.4,17.9,14.4l0,0
	c10,0,18.5-8.2,18.5-18.5v-25.6c0-10.3-8.2-18.5-18.5-18.5l0,0c-9,0-16.4,6.4-17.9,15.1H78.1c0-0.5,0-1,0-1.5l0,0V67.3l59.2-0.3l0,0
	v30.8h-11.5V81.2H89.7v39c5.1-3.8,11.3-6.2,17.9-6.2l0,0c16.1,0,29.5,13.3,29.5,29.7v32.5C137.3,192.6,124,206,107.6,206z"/>
</svg>
