<?xml version="1.0" encoding="utf-8"?>
<!-- Generator: Adobe Illustrator 19.2.0, SVG Export Plug-In . SVG Version: 6.00 Build 0)  -->
<svg version="1.2" baseProfile="tiny" id="Layer_2_2_"
	 xmlns="http://www.w3.org/2000/svg" xmlns:xlink="http://www.w3.org/1999/xlink" x="0px" y="0px" viewBox="0 0 170 244"
	 xml:space="preserve">
<metadata><?xpacket begin="﻿" id="W5M0MpCehiHzreSzNTczkc9d"?>
<x:xmpmeta xmlns:x="adobe:ns:meta/" x:xmptk="Adobe XMP Core 5.6-c111 79.158366, 2015/09/25-01:12:00        ">
   <rdf:RDF xmlns:rdf="http://www.w3.org/1999/02/22-rdf-syntax-ns#">
      <rdf:Description rdf:about=""/>
   </rdf:RDF>
</x:xmpmeta>
                                                                                                    
                                                                                                    
                                                                                                    
                                                                                                    
                                                                                                    
                                                                                                    
                                                                                                    
                                                                                                    
                                                                                                    
                                                                                                    
                                                                                                    
                                                                                                    
                                                                                                    
                                                                                                    
                                                                                                    
                                                                                                    
                                                                                                    
                                                                                                    
                                                                                                    
                                                                                                    
                           
<?xpacket end="w"?></metadata>
<linearGradient id="SVGID_1_" gradientUnits="userSpaceOnUse" x1="85" y1="-3.053174e-09" x2="85" y2="244">
	<stop  offset="0" style="stop-color:#A9001C"/>
	<stop  offset="1" style="stop-color:#010000"/>
</linearGradient>
<path fill="url(#SVGID_1_)" d="M17,0h136c9.4,0,17,7.6,17,17.1v209.8c0,9.4-7.6,17.1-17,17.1H17c-9.4,0-17-7.6-17-17.1V17.1
	C0,7.6,7.6,0,17,0z"/>
<path fill="#FFFFFF" d="M26.1,113.3c0,0,4.7-9.8,10.1-16.7s9.5-10.5,9.6-16.6c0-3.7-3-8.9-9.1-9.1c-8.1-0.2-10.6,7.4-10.6,7.4
	s-2.5-7.7-10.6-7.4c-6.1,0.2-9.2,5.4-9.1,9.1c0.1,6,4.2,9.7,9.6,16.6C21.3,103.4,26.1,113.3,26.1,113.3z"/>
<polygon fill="#FFFFFF" points="38.2,13 22.7,57.8 17.5,57.8 31.3,17.7 19.9,17.7 19.9,23.1 16.1,23.1 16.1,13 16.1,13 "/>
<linearGradient id="SVGID_2_" gradientUnits="userSpaceOnUse" x1="110.9614" y1="67" x2="110.9614" y2="203.636">
	<stop  offset="0" style="stop-color:#FFFFFF"/>
	<stop  offset="1" style="stop-color:#6F7073"/>
</linearGradient>
<polygon fill="url(#SVGID_2_)" points="144.5,67 97.5,203.6 81.7,203.6 123.7,81.2 88.8,81.2 88.8,97.8 77.4,97.8 77.4,67 77.4,67 
	"/>
</svg>
