<?xml version="1.0" encoding="utf-8"?>
<!-- Generator: Adobe Illustrator 19.2.0, SVG Export Plug-In . SVG Version: 6.00 Build 0)  -->
<svg version="1.2" baseProfile="tiny" id="Layer_2_1_"
	 xmlns="http://www.w3.org/2000/svg" xmlns:xlink="http://www.w3.org/1999/xlink" x="0px" y="0px" viewBox="0 0 170 244"
	 xml:space="preserve">
<metadata><?xpacket begin="﻿" id="W5M0MpCehiHzreSzNTczkc9d"?>
<x:xmpmeta xmlns:x="adobe:ns:meta/" x:xmptk="Adobe XMP Core 5.6-c111 79.158366, 2015/09/25-01:12:00        ">
   <rdf:RDF xmlns:rdf="http://www.w3.org/1999/02/22-rdf-syntax-ns#">
      <rdf:Description rdf:about=""/>
   </rdf:RDF>
</x:xmpmeta>                          
<?xpacket end="w"?></metadata>
<linearGradient id="SVGID_1_" gradientUnits="userSpaceOnUse" x1="85" y1="-3.053174e-09" x2="85" y2="244">
	<stop  offset="0" style="stop-color:#00874C"/>
	<stop  offset="1" style="stop-color:#000201"/>
</linearGradient>
<path fill="url(#SVGID_1_)" d="M17,0h136c9.4,0,17,7.6,17,17.1v209.8c0,9.4-7.6,17.1-17,17.1H17c-9.4,0-17-7.6-17-17.1V17.1
	C0,7.6,7.6,0,17,0z"/>
<path fill="#FFFFFF" d="M32.7,114.7c0,0-2.1-2.8-3.2-6.1s-1.6-7.8-1.6-7.8s3.2,5,8.7,4.9c5.6-0.1,9.5-4.9,9.5-9.5
	c0-4.9-4.1-9.4-8.6-9.6c-4.4-0.2-5.6,0.7-5.6,0.7s3.4-2.9,3.3-8.6c-0.2-8.8-9.1-9.1-9.1-9.1S17,69.8,17,78.7
	c-0.1,5.6,3.3,8.6,3.3,8.6s-1.2-0.9-5.6-0.7c-4.4,0.2-8.6,4.9-8.6,9.6c0,4.9,4,9.5,9.5,9.5s8.7-4.9,8.7-4.9s-0.4,4.5-1.6,7.8
	s-3.2,6.1-3.2,6.1H32.7z"/>
<path fill="#FFFFFF" d="M31.9,33.9c2.7,1.9,4.6,5,4.6,8.5v4.7c0,5.7-4.8,10.4-10.6,10.4l0,0c-5.9,0-10.7-4.7-10.7-10.4v-4.7
	c0-3.5,1.8-6.7,4.6-8.5c-2.3-1.8-3.9-4.5-3.9-7.6v-4.4c0-5.3,4.4-9.7,9.9-9.7l0,0c5.4,0,9.9,4.4,9.9,9.7v4.4
	C35.7,29.4,34.2,32.2,31.9,33.9L31.9,33.9z M25.9,17.3c-3.4,0-6.2,2.7-6.2,6v2.1c0,3.3,2.8,6,6.2,6l0,0c3.4,0,6.2-2.7,6.2-6v-2.1
	C32,20.1,29.2,17.3,25.9,17.3L25.9,17.3L25.9,17.3z M25.9,37.5c-3.6,0-6.6,2.9-6.6,6.5v2.1c0,3.5,3,6.5,6.6,6.5l0,0
	c3.6,0,6.6-3,6.6-6.5v-2.1C32.4,40.3,29.5,37.5,25.9,37.5L25.9,37.5z"/>
<linearGradient id="SVGID_2_" gradientUnits="userSpaceOnUse" x1="105.4439" y1="66.0833" x2="105.4439" y2="205.8963">
	<stop  offset="0" style="stop-color:#FFFFFF"/>
	<stop  offset="1" style="stop-color:#6F7073"/>
</linearGradient>
<path fill="url(#SVGID_2_)" d="M124.1,133c8.4,5.8,14.2,15.5,14.2,26.3v14.4c0,17.7-14.7,32.2-32.7,32.2l0,0
	c-18.2,0-32.9-14.4-32.9-32.2v-14.4c0-10.9,5.6-20.5,14.2-26.3c-7.1-5.6-11.9-13.9-11.9-23.6V96c0-16.5,13.7-29.9,30.4-29.9l0,0
	c16.7,0,30.4,13.4,30.4,29.9v13.4C136,119,131.2,127.6,124.1,133L124.1,133z M105.6,81.8c-10.4,0-19,8.4-19,18.5v6.3
	c0,10.1,8.6,18.5,19,18.5l0,0c10.4,0,19-8.4,19-18.5v-6.3C124.6,90.1,116,81.8,105.6,81.8L105.6,81.8L105.6,81.8z M105.6,143.8
	c-11.1,0-20.3,8.9-20.3,20v6.6c0,10.9,9.1,20,20.3,20l0,0c11.1,0,20.3-9.1,20.3-20v-6.6C125.8,152.7,116.7,143.8,105.6,143.8
	L105.6,143.8z"/>
</svg>
