<?xml version="1.0" encoding="utf-8"?>
<!-- Generator: Adobe Illustrator 19.2.0, SVG Export Plug-In . SVG Version: 6.00 Build 0)  -->
<svg version="1.2" baseProfile="tiny" id="Layer_3" xmlns="http://www.w3.org/2000/svg" xmlns:xlink="http://www.w3.org/1999/xlink"
	 x="0px" y="0px" viewBox="0 0 170 244" xml:space="preserve">
<metadata><?xpacket begin="﻿" id="W5M0MpCehiHzreSzNTczkc9d"?>
<x:xmpmeta xmlns:x="adobe:ns:meta/" x:xmptk="Adobe XMP Core 5.6-c111 79.158366, 2015/09/25-01:12:00        ">
   <rdf:RDF xmlns:rdf="http://www.w3.org/1999/02/22-rdf-syntax-ns#">
      <rdf:Description rdf:about=""/>
   </rdf:RDF>
</x:xmpmeta>                           
<?xpacket end="w"?></metadata>
<linearGradient id="SVGID_1_" gradientUnits="userSpaceOnUse" x1="85" y1="-3.053174e-09" x2="85" y2="244">
	<stop  offset="0" style="stop-color:#0069D6"/>
	<stop  offset="1" style="stop-color:#000203"/>
</linearGradient>
<path fill="url(#SVGID_1_)" d="M17,0h136c9.4,0,17,7.6,17,17.1v209.8c0,9.4-7.6,17.1-17,17.1H17c-9.4,0-17-7.6-17-17.1V17.1
	C0,7.6,7.6,0,17,0z"/>
<path fill="#FFFFFF" d="M25.9,116.2c0,0,2.6-6.6,8.9-13.6c6.3-7,11.3-10.7,11.3-10.7s-6.6-4-11.2-10.1c-4.6-6.1-8.9-14-8.9-14
	s-3.8,7.5-9.2,13.9C11.9,87.6,6.1,91.9,6.1,91.9s5,3.7,11.2,10.7C23.7,109.6,25.9,116.2,25.9,116.2z"/>
<path fill="#FFFFFF" d="M25.9,12.3L25.9,12.3c5.3,0,9.5,4.4,9.5,9.6v5.9c0,0.2,0,0.4,0,0.6l0,0v16.9v1.4V48c0,5.3-4.3,9.6-9.5,9.6
	l0,0c-5.3,0-9.5-4.4-9.5-9.6v-2.7H20V47c0,3.3,2.7,6,5.9,6l0,0c3.3,0,5.8-2.7,5.8-6v-0.3l0,0V35.4c-1.6,1.2-3.6,2-5.8,2l0,0
	c-5.3,0-9.5-4.4-9.5-9.6v-5.9C16.3,16.5,20.6,12.3,25.9,12.3L25.9,12.3z M25.9,17.2c-3.3,0-5.9,2.7-5.9,6v3.6c0,3.3,2.7,6,5.9,6l0,0
	c3.3,0,5.9-2.7,5.9-6v-3.6C31.8,19.9,29.2,17.2,25.9,17.2L25.9,17.2z"/>
<linearGradient id="SVGID_2_" gradientUnits="userSpaceOnUse" x1="107.9459" y1="66.0964" x2="107.9459" y2="205.8703">
	<stop  offset="0" style="stop-color:#FFFFFF"/>
	<stop  offset="1" style="stop-color:#6F7073"/>
</linearGradient>
<path fill="url(#SVGID_2_)" d="M107.9,66.1L107.9,66.1c16.2,0,29.4,13.4,29.4,29.7V114c0,0.5,0,1.3,0,1.8l0,0v52v4.3v4.1
	c0,16.2-13.2,29.7-29.4,29.7l0,0c-16.2,0-29.4-13.4-29.4-29.7v-8.4h11.2v5.3c0,10.1,8.4,18.5,18.3,18.5l0,0c10.1,0,18-8.4,18-18.5
	v-1l0,0v-34.8c-5.1,3.8-11.2,6.1-18,6.1l0,0c-16.2,0-29.4-13.4-29.4-29.7V95.5C78.5,79.3,91.7,66.1,107.9,66.1L107.9,66.1z
	 M107.9,81.3c-10.1,0-18.3,8.4-18.3,18.5V111c0,10.1,8.4,18.5,18.3,18.5l0,0c10.1,0,18.3-8.4,18.3-18.5V99.8
	C126.2,89.7,118.1,81.3,107.9,81.3L107.9,81.3z"/>
</svg>
