<?xml version="1.0" encoding="utf-8"?>
<!-- Generator: Adobe Illustrator 19.2.0, SVG Export Plug-In . SVG Version: 6.00 Build 0)  -->
<svg version="1.2" baseProfile="tiny" id="Layer_6" xmlns="http://www.w3.org/2000/svg" xmlns:xlink="http://www.w3.org/1999/xlink"
	 x="0px" y="0px" viewBox="0 0 170 244" xml:space="preserve">
<metadata><?xpacket begin="﻿" id="W5M0MpCehiHzreSzNTczkc9d"?>
<x:xmpmeta xmlns:x="adobe:ns:meta/" x:xmptk="Adobe XMP Core 5.6-c111 79.158366, 2015/09/25-01:12:00        ">
   <rdf:RDF xmlns:rdf="http://www.w3.org/1999/02/22-rdf-syntax-ns#">
      <rdf:Description rdf:about=""/>
   </rdf:RDF>
</x:xmpmeta>
                                                                                                    
                                                                                                    
                                                                                                    
                                                                                                    
                                                                                                    
                                                                                                    
                                                                                                    
                                                                                                    
                                                                                                    
                                                                                                    
                                                                                                    
                                                                                                    
                                                                                                    
                                                                                                    
                                                                                                    
                                                                                                    
                                                                                                    
                                                                                                    
                                                                                                    
                                                                                                    
                           
<?xpacket end="w"?></metadata>
<linearGradient id="SVGID_1_" gradientUnits="userSpaceOnUse" x1="85" y1="-3.053174e-09" x2="85" y2="244">
	<stop  offset="0" style="stop-color:#A9001C"/>
	<stop  offset="1" style="stop-color:#010000"/>
</linearGradient>
<path fill="url(#SVGID_1_)" d="M17,0h136c9.4,0,17,7.6,17,17.1v209.8c0,9.4-7.6,17.1-17,17.1H17c-9.4,0-17-7.6-17-17.1V17.1
	C0,7.6,7.6,0,17,0z"/>
<linearGradient id="SVGID_2_" gradientUnits="userSpaceOnUse" x1="104.4834" y1="69.7337" x2="104.4834" y2="202.9333">
	<stop  offset="0" style="stop-color:#FFFFFF"/>
	<stop  offset="1" style="stop-color:#6F7073"/>
</linearGradient>
<path fill="url(#SVGID_2_)" d="M54.2,189.7h7.9c12.3-39.6,24.6-81.3,36.7-120h11.4c12.3,39.6,24.1,80.1,36.4,120h8.2v13.1
	c-13.2,0-26.7,0-40.2,0v-13.1h18.2l-8.8-29.1H85l-8.8,29H92v13.2H54.2V189.7L54.2,189.7z M104.6,96.4l-15.5,51.1h31.1L104.6,96.4z"
	/>
<path fill="#FFFFFF" d="M26.1,113.3c0,0,4.7-9.8,10.1-16.7s9.5-10.5,9.6-16.6c0-3.7-3-8.9-9.1-9.1c-8.1-0.2-10.6,7.4-10.6,7.4
	s-2.5-7.7-10.6-7.4c-6.1,0.2-9.2,5.4-9.1,9.1c0.1,6,4.2,9.7,9.6,16.6C21.3,103.4,26.1,113.3,26.1,113.3z"/>
<path fill="#FFFFFF" d="M8.5,53.1h2.7c4.2-13.5,8.4-27.7,12.5-40.9h3.9C31.8,25.7,35.8,39.4,40,53h2.8v4.5c-4.5,0-9.1-0.1-13.7-0.1
	v-4.5h6.2l-3-9.7H19l-3,9.9h5.4v4.5H8.5V53.1L8.5,53.1z M25.7,21.3l-5.3,17.4H31L25.7,21.3z"/>
</svg>
