<?xml version="1.0" encoding="utf-8"?>
<!-- Generator: Adobe Illustrator 19.2.0, SVG Export Plug-In . SVG Version: 6.00 Build 0)  -->
<svg version="1.2" baseProfile="tiny" id="Layer_2" xmlns="http://www.w3.org/2000/svg" xmlns:xlink="http://www.w3.org/1999/xlink"
	 x="0px" y="0px" viewBox="0 0 170 244" xml:space="preserve">
<metadata><?xpacket begin="﻿" id="W5M0MpCehiHzreSzNTczkc9d"?>
<x:xmpmeta xmlns:x="adobe:ns:meta/" x:xmptk="Adobe XMP Core 5.6-c111 79.158366, 2015/09/25-01:12:00        ">
   <rdf:RDF xmlns:rdf="http://www.w3.org/1999/02/22-rdf-syntax-ns#">
      <rdf:Description rdf:about=""/>
   </rdf:RDF>
</x:xmpmeta>
                                                                                                    
                                                                                                    
                                                                                                    
                                                                                                    
                                                                                                    
                                                                                                    
                                                                                                    
                                                                                                    
                                                                                                    
                                                                                                    
                                                                                                    
                                                                                                    
                                                                                                    
                                                                                                    
                                                                                                    
                                                                                                    
                                                                                                    
                                                                                                    
                                                                                                    
                                                                                                    
                           
<?xpacket end="w"?></metadata>
<linearGradient id="SVGID_1_" gradientUnits="userSpaceOnUse" x1="85" y1="-3.053174e-09" x2="85" y2="244">
	<stop  offset="0" style="stop-color:#0069D6"/>
	<stop  offset="1" style="stop-color:#000203"/>
</linearGradient>
<path fill="url(#SVGID_1_)" d="M17,0h136c9.4,0,17,7.6,17,17.1v209.8c0,9.4-7.6,17.1-17,17.1H17c-9.4,0-17-7.6-17-17.1V17.1
	C0,7.6,7.6,0,17,0z"/>
<path fill="#FFFFFF" d="M25.9,116.2c0,0,2.6-6.6,8.9-13.6c6.3-7,11.3-10.7,11.3-10.7s-6.6-4-11.2-10.1c-4.6-6.1-8.9-14-8.9-14
	s-3.8,7.5-9.2,13.9C11.9,87.6,6.1,91.9,6.1,91.9s5,3.7,11.2,10.7C23.7,109.6,25.9,116.2,25.9,116.2z"/>
<path fill="#FFFFFF" d="M36.4,17h5.5v-4.9H25.7V17h5.8v32.2l0,0C31.3,53,28.3,56,24.5,56s-6.9-3-7.1-6.8v-7.7h-4.9v7.9h0.1
	c0.3,6.3,5.5,11.5,11.9,11.5c6.5,0,11.7-5.2,11.9-11.7l0,0L36.4,17L36.4,17z"/>
<linearGradient id="SVGID_2_" gradientUnits="userSpaceOnUse" x1="107.8546" y1="69.75" x2="107.8546" y2="208.2186">
	<stop  offset="0" style="stop-color:#FFFFFF"/>
	<stop  offset="1" style="stop-color:#6F7073"/>
</linearGradient>
<path fill="url(#SVGID_2_)" d="M133.9,83.6h15.7V69.8h-46.2v13.8h16.6v91.5l0,0c-0.5,10.9-9.2,19.3-20.1,19.3s-19.5-8.4-20.1-19.3
	v-22H66v22.5h0.3c0.8,17.9,15.7,32.6,33.9,32.6c18.5,0,33.4-14.7,33.9-33.4l0,0L133.9,83.6L133.9,83.6z"/>
</svg>
