<?xml version="1.0" encoding="utf-8"?>
<!-- Generator: Adobe Illustrator 19.2.0, SVG Export Plug-In . SVG Version: 6.00 Build 0)  -->
<svg version="1.2" baseProfile="tiny" id="Layer_3" xmlns="http://www.w3.org/2000/svg" xmlns:xlink="http://www.w3.org/1999/xlink"
	 x="0px" y="0px" viewBox="0 0 170 244" xml:space="preserve">
<metadata><?xpacket begin="﻿" id="W5M0MpCehiHzreSzNTczkc9d"?>
<x:xmpmeta xmlns:x="adobe:ns:meta/" x:xmptk="Adobe XMP Core 5.6-c111 79.158366, 2015/09/25-01:12:00        ">
   <rdf:RDF xmlns:rdf="http://www.w3.org/1999/02/22-rdf-syntax-ns#">
      <rdf:Description rdf:about=""/>
   </rdf:RDF>
</x:xmpmeta>
                                                                                                    
                                                                                                    
                                                                                                    
                                                                                                    
                                                                                                    
                                                                                                    
                                                                                                    
                                                                                                    
                                                                                                    
                                                                                                    
                                                                                                    
                                                                                                    
                                                                                                    
                                                                                                    
                                                                                                    
                                                                                                    
                                                                                                    
                                                                                                    
                                                                                                    
                                                                                                    
                           
<?xpacket end="w"?></metadata>
<linearGradient id="SVGID_1_" gradientUnits="userSpaceOnUse" x1="85" y1="-3.053174e-09" x2="85" y2="244">
	<stop  offset="0" style="stop-color:#00874C"/>
	<stop  offset="1" style="stop-color:#000201"/>
</linearGradient>
<path fill="url(#SVGID_1_)" d="M17,0h136c9.4,0,17,7.6,17,17.1v209.8c0,9.4-7.6,17.1-17,17.1H17c-9.4,0-17-7.6-17-17.1V17.1
	C0,7.6,7.6,0,17,0z"/>
<path fill="#FFFFFF" d="M32.7,114.7c0,0-2.1-2.8-3.2-6.1s-1.6-7.8-1.6-7.8s3.2,5,8.7,4.9c5.6-0.1,9.5-4.9,9.5-9.5
	c0-4.9-4.1-9.4-8.6-9.6c-4.4-0.2-5.6,0.7-5.6,0.7s3.4-2.9,3.3-8.6c-0.2-8.8-9.1-9.1-9.1-9.1S17,69.8,17,78.7
	c-0.1,5.6,3.3,8.6,3.3,8.6s-1.2-0.9-5.6-0.7c-4.4,0.2-8.6,4.9-8.6,9.6c0,4.9,4,9.5,9.5,9.5s8.7-4.9,8.7-4.9s-0.4,4.5-1.6,7.8
	s-3.2,6.1-3.2,6.1H32.7z"/>
<polygon fill="#FFFFFF" points="37.5,52.9 29.9,30.2 38.1,17 42.4,17 42.4,12.4 28.4,12.4 28.4,17 32.6,17 19.3,38.6 19.3,16.8 
	23.2,16.8 23.2,12.2 9.3,12.2 9.3,16.8 14.6,16.8 14.6,52.9 9.3,52.9 9.3,57.5 23.2,57.5 23.2,52.9 19.3,52.9 19.3,47.2 26.7,35.2 
	32.7,52.9 28.6,52.9 28.6,57.5 42.6,57.5 42.6,52.9 "/>
<linearGradient id="SVGID_2_" gradientUnits="userSpaceOnUse" x1="105.6089" y1="69.8196" x2="105.6089" y2="203.1262">
	<stop  offset="0" style="stop-color:#FFFFFF"/>
	<stop  offset="1" style="stop-color:#6F7073"/>
</linearGradient>
<polygon fill="url(#SVGID_2_)" points="139.7,189.8 117.3,122.8 141.3,83.4 154,83.4 154,69.9 112.8,69.9 112.8,83.4 125.3,83.4 
	86.2,147.5 86.2,83.4 97.6,83.4 97.6,69.8 56.7,69.8 56.7,83.4 72.3,83.4 72.3,189.8 56.7,189.8 56.7,203.1 97.6,203.1 97.6,189.8 
	86.2,189.8 86.2,173.1 107.7,137.7 125.6,189.8 113.3,189.8 113.3,203.1 154.6,203.1 154.6,189.8 "/>
</svg>
