<?xml version="1.0" encoding="utf-8"?>
<!-- Generator: Adobe Illustrator 19.2.0, SVG Export Plug-In . SVG Version: 6.00 Build 0)  -->
<svg version="1.2" baseProfile="tiny" id="Layer_2" xmlns="http://www.w3.org/2000/svg" xmlns:xlink="http://www.w3.org/1999/xlink"
	 x="0px" y="0px" viewBox="0 0 170 244" xml:space="preserve">
<metadata><?xpacket begin="﻿" id="W5M0MpCehiHzreSzNTczkc9d"?>
<x:xmpmeta xmlns:x="adobe:ns:meta/" x:xmptk="Adobe XMP Core 5.6-c111 79.158366, 2015/09/25-01:12:00        ">
   <rdf:RDF xmlns:rdf="http://www.w3.org/1999/02/22-rdf-syntax-ns#">
      <rdf:Description rdf:about=""/>
   </rdf:RDF>
</x:xmpmeta>
                                                                                                    
                                                                                                    
                                                                                                    
                                                                                                    
                                                                                                    
                                                                                                    
                                                                                                    
                                                                                                    
                                                                                                    
                                                                                                    
                                                                                                    
                                                                                                    
                                                                                                    
                                                                                                    
                                                                                                    
                                                                                                    
                                                                                                    
                                                                                                    
                                                                                                    
                                                                                                    
                           
<?xpacket end="w"?></metadata>
<linearGradient id="SVGID_1_" gradientUnits="userSpaceOnUse" x1="85" y1="-3.053174e-09" x2="85" y2="244">
	<stop  offset="0" style="stop-color:#0069D6"/>
	<stop  offset="1" style="stop-color:#000203"/>
</linearGradient>
<path fill="url(#SVGID_1_)" d="M17,0h136c9.4,0,17,7.6,17,17.1v209.8c0,9.4-7.6,17.1-17,17.1H17c-9.4,0-17-7.6-17-17.1V17.1
	C0,7.6,7.6,0,17,0z"/>
<path fill="#FFFFFF" d="M25.9,116.2c0,0,2.6-6.6,8.9-13.6c6.3-7,11.3-10.7,11.3-10.7s-6.6-4-11.2-10.1c-4.6-6.1-8.9-14-8.9-14
	s-3.8,7.5-9.2,13.9C11.9,87.6,6.1,91.9,6.1,91.9s5,3.7,11.2,10.7C23.7,109.6,25.9,116.2,25.9,116.2z"/>
<path fill="#FFFFFF" d="M37.5,58c-1.4,0-2.4-1-2.9-1.6c2.8-1.5,4.7-4.5,4.7-8V21.2c0-5.1-4.1-9.2-9.3-9.2h-7.1
	c-5.1,0-9.3,4.1-9.3,9.2v20l-3.5,0.1l0.2,5.8l3.2-0.1v1.4c0,5.1,4.1,9.2,9.3,9.2h5.3c0.5,0.6,0.9,1.2,1.3,1.7v-0.2
	c1.1,1.7,4,4.7,8.1,4.7h4.4V58L37.5,58L37.5,58z M24.3,17.1h4.4c3.2,0,5.6,3.2,5.6,7.1v21.2c0,2.8-1.3,5.2-3.2,6.5
	c-2.5-3.3-5.6-7.4-6.6-8.5c-1.6-1.8-4-2.2-5.8-2.2v-17C18.7,20.3,21.1,17.1,24.3,17.1L24.3,17.1z M24.3,52.6c-2.7,0-5-2.4-5.6-5.6
	c0.7,0.1,1.3,0.2,1.5,0.4C20.8,47.9,22.5,50,24.3,52.6L24.3,52.6L24.3,52.6z"/>
<linearGradient id="SVGID_2_" gradientUnits="userSpaceOnUse" x1="105.85" y1="69.6382" x2="105.85" y2="221.9112">
	<stop  offset="0" style="stop-color:#FFFFFF"/>
	<stop  offset="1" style="stop-color:#6F7073"/>
</linearGradient>
<path fill="url(#SVGID_2_)" d="M139.5,204.8c-4,0-6.9-2.9-8.5-4.8c8.3-4.5,13.9-13.4,13.9-23.5V96.6c0-15-12-27-27.2-27H96.8
	c-15,0-27.2,12-27.2,27v58.8l-10.2,0.3l0.5,17.1l9.4-0.3v4c0,15,12,27,27.2,27H112c1.3,1.9,2.7,3.5,3.7,5.1V208
	c3.2,5.1,11.8,13.9,23.8,13.9h12.8v-17.1L139.5,204.8L139.5,204.8z M100.8,84.6h12.8c9.4,0,16.6,9.4,16.6,20.8v62.2
	c0,8.3-3.7,15.2-9.4,19c-7.2-9.6-16.6-21.6-19.5-24.8c-4.8-5.3-11.8-6.4-17.1-6.4v-50C84.2,93.9,91.4,84.6,100.8,84.6L100.8,84.6z
	 M100.8,188.8c-8,0-14.7-6.9-16.3-16.6c2.1,0.3,3.7,0.5,4.3,1.1C90.4,175.2,95.4,181.3,100.8,188.8L100.8,188.8L100.8,188.8z"/>
</svg>
