<svg id="Layer_1" data-name="Layer 1" xmlns="http://www.w3.org/2000/svg" viewBox="0 0 170 244"><title>10_clubs</title><metadata><?xpacket begin="﻿" id="W5M0MpCehiHzreSzNTczkc9d"?>
<x:xmpmeta xmlns:x="adobe:ns:meta/" x:xmptk="Adobe XMP Core 5.6-c111 79.158366, 2015/09/25-01:12:00        ">
   <rdf:RDF xmlns:rdf="http://www.w3.org/1999/02/22-rdf-syntax-ns#">
      <rdf:Description rdf:about=""
            xmlns:dc="http://purl.org/dc/elements/1.1/">
         <dc:title>
            <rdf:Alt>
               <rdf:li xml:lang="x-default">10_clubs</rdf:li>
            </rdf:Alt>
         </dc:title>
      </rdf:Description>
   </rdf:RDF>
</x:xmpmeta>
                                                                                                    
                                                                                                    
                                                                                                    
                                                                                                    
                                                                                                    
                                                                                                    
                                                                                                    
                                                                                                    
                                                                                                    
                                                                                                    
                                                                                                    
                                                                                                    
                                                                                                    
                                                                                                    
                                                                                                    
                                                                                                    
                                                                                                    
                                                                                                    
                                                                                                    
                                                                                                    
                           
<?xpacket end="w"?></metadata>
<path d="M17,0H153a17,17,0,0,1,17,17.1V226.9A17.07,17.07,0,0,1,153,244H17A17,17,0,0,1,0,226.9V17.1A17,17,0,0,1,17,0Z"/><path d="M115.8,229.2a78.77,78.77,0,0,1-9.1-17.6c-3.2-9.5-4.4-22.3-4.4-22.3s9.2,14.4,25.2,14.2,27.4-13.8,27.4-27.5-12.1-27.1-24.6-27.7-16.1,2.2-16.1,2.2,9.9-8.5,9.7-24.7c-0.4-25.5-26.4-26.3-26.4-26.3s-26,.8-26.4,26.3c-0.3,16.2,9.7,24.7,9.7,24.7s-3.6-2.8-16.1-2.2-24.6,14-24.6,27.7,11.5,27.3,27.4,27.5,25.2-14.2,25.2-14.2-1.2,12.8-4.4,22.3a74.32,74.32,0,0,1-9.1,17.6h36.6Z" style="fill:#a2a2a2"/><path d="M90.6,66.8a31.54,31.54,0,0,1-3.9-7.5,47.7,47.7,0,0,1-1.9-9.5s3.9,6.1,10.7,6a11.88,11.88,0,0,0,11.6-11.7c0-5.9-5.1-11.5-10.4-11.8s-6.9.9-6.9,0.9a14,14,0,0,0,4.1-10.5c-0.1-10.7-11.1-11-11.1-11s-11,.3-11.2,11.2a14,14,0,0,0,4.1,10.5s-1.5-1.2-6.9-.9S58.4,38.4,58.4,44.3A11.89,11.89,0,0,0,70,56c6.8,0.1,10.7-6,10.7-6a49.06,49.06,0,0,1-1.9,9.5A34.16,34.16,0,0,1,74.9,67H90.6V66.8Z" style="fill:#fff"/><path d="M38.7,12.6h0A11.61,11.61,0,0,1,50.3,24.2V56A11.61,11.61,0,0,1,38.7,67.6h0A11.61,11.61,0,0,1,27.1,56V24.2A11.74,11.74,0,0,1,38.7,12.6h0Zm0,6a7.3,7.3,0,0,0-7.2,7.2V54.7a7.17,7.17,0,0,0,7.2,7.2h0a7.23,7.23,0,0,0,7.2-7.2V25.8a7.23,7.23,0,0,0-7.2-7.2h0Z" style="fill:#fff"/><rect x="15.5" y="12.6" width="4.5" height="55" style="fill:#fff"/></svg>