<svg id="Layer_1" data-name="Layer 1" xmlns="http://www.w3.org/2000/svg" viewBox="0 0 170.4 243.4"><title>10_diamonds</title><metadata><?xpacket begin="﻿" id="W5M0MpCehiHzreSzNTczkc9d"?>
<x:xmpmeta xmlns:x="adobe:ns:meta/" x:xmptk="Adobe XMP Core 5.6-c111 79.158366, 2015/09/25-01:12:00        ">
   <rdf:RDF xmlns:rdf="http://www.w3.org/1999/02/22-rdf-syntax-ns#">
      <rdf:Description rdf:about=""
            xmlns:dc="http://purl.org/dc/elements/1.1/">
         <dc:title>
            <rdf:Alt>
               <rdf:li xml:lang="x-default">10_diamonds</rdf:li>
            </rdf:Alt>
         </dc:title>
      </rdf:Description>
   </rdf:RDF>
</x:xmpmeta>
                                                                                                    
                                                                                                    
                                                                                                    
                                                                                                    
                                                                                                    
                                                                                                    
                                                                                                    
                                                                                                    
                                                                                                    
                                                                                                    
                                                                                                    
                                                                                                    
                                                                                                    
                                                                                                    
                                                                                                    
                                                                                                    
                                                                                                    
                                                                                                    
                                                                                                    
                                                                                                    
                           
<?xpacket end="w"?></metadata>
<path d="M17,0H153.4a17,17,0,0,1,17,17V226.4a17,17,0,0,1-17,17H17a17,17,0,0,1-17-17H0V17A17,17,0,0,1,17,0Z" transform="translate(0)" style="fill:#c80813"/><path d="M96.9,234.4s7.8-19.5,26.4-40.3,33.5-31.8,33.5-31.8-19.5-11.9-33-30.1S97.4,90.8,97.4,90.8s-11.3,22.4-27.2,41.3a211.21,211.21,0,0,1-32.1,30.3s14.8,11,33.5,31.8S96.9,234.4,96.9,234.4Z" transform="translate(0)" style="fill:#e99ca1"/><path d="M83.3,66.6A60.83,60.83,0,0,1,93.8,50.5a97.28,97.28,0,0,1,13.4-12.7A52,52,0,0,1,94,25.8,163,163,0,0,1,83.5,9.3,97.68,97.68,0,0,1,72.6,25.8,86.08,86.08,0,0,1,59.8,37.9,104.63,104.63,0,0,1,73.2,50.6,53.47,53.47,0,0,1,83.3,66.6Z" transform="translate(0)" style="fill:#fff"/><path d="M39.5,12.5h0A11.61,11.61,0,0,1,51.1,24.1V55.8A11.61,11.61,0,0,1,39.5,67.4h0A11.61,11.61,0,0,1,27.9,55.8V24.1A11.67,11.67,0,0,1,39.5,12.5h0Zm0,6a7.17,7.17,0,0,0-7.2,7.14s0,0,0,.06V54.6a7.23,7.23,0,0,0,7.2,7.2h0a7.17,7.17,0,0,0,7.2-7.14s0,0,0-.06V25.7a7.23,7.23,0,0,0-7.2-7.2h0Z" transform="translate(0)" style="fill:#fff"/><rect x="16.2" y="12.5" width="4.5" height="54.9" style="fill:#fff"/></svg>