<svg id="Layer_1" data-name="Layer 1" xmlns="http://www.w3.org/2000/svg" viewBox="0 0 170 244"><title>10_spades</title><metadata><?xpacket begin="﻿" id="W5M0MpCehiHzreSzNTczkc9d"?>
<x:xmpmeta xmlns:x="adobe:ns:meta/" x:xmptk="Adobe XMP Core 5.6-c111 79.158366, 2015/09/25-01:12:00        ">
   <rdf:RDF xmlns:rdf="http://www.w3.org/1999/02/22-rdf-syntax-ns#">
      <rdf:Description rdf:about=""
            xmlns:dc="http://purl.org/dc/elements/1.1/">
         <dc:title>
            <rdf:Alt>
               <rdf:li xml:lang="x-default">10_spades</rdf:li>
            </rdf:Alt>
         </dc:title>
      </rdf:Description>
   </rdf:RDF>
</x:xmpmeta>
                                                                                                    
                                                                                                    
                                                                                                    
                                                                                                    
                                                                                                    
                                                                                                    
                                                                                                    
                                                                                                    
                                                                                                    
                                                                                                    
                                                                                                    
                                                                                                    
                                                                                                    
                                                                                                    
                                                                                                    
                                                                                                    
                                                                                                    
                                                                                                    
                                                                                                    
                                                                                                    
                           
<?xpacket end="w"?></metadata>
<path d="M17,0H153a17,17,0,0,1,17,17.1V226.9A17.07,17.07,0,0,1,153,244H17A17,17,0,0,1,0,226.9V17.1A17,17,0,0,1,17,0Z"/><path d="M38.4,12.6h0A11.61,11.61,0,0,1,50,24.2V56A11.61,11.61,0,0,1,38.4,67.6h0A11.61,11.61,0,0,1,26.8,56V24.2A11.74,11.74,0,0,1,38.4,12.6h0Zm0,6a7.3,7.3,0,0,0-7.2,7.2V54.7a7.17,7.17,0,0,0,7.2,7.2h0a7.23,7.23,0,0,0,7.2-7.2V25.8a7.23,7.23,0,0,0-7.2-7.2h0Z" style="fill:#fff"/><rect x="15.2" y="12.6" width="4.5" height="55" style="fill:#fff"/><path d="M117.2,229.1a60.78,60.78,0,0,1-9-15,96.05,96.05,0,0,1-5.1-15.3s13.8,6.1,22.6,6.1,28.3-5.3,28.7-26.5-20.9-37.2-34.3-52.5A211.87,211.87,0,0,1,98.8,97.5a211.87,211.87,0,0,1-21.3,28.4C64,141.2,42.8,157.3,43.2,178.4s19.9,26.5,28.7,26.5,22.6-6.1,22.6-6.1a96.05,96.05,0,0,1-5.1,15.3,63.28,63.28,0,0,1-9,15h36.8Z" style="fill:#a2a2a2"/><path d="M89.2,70.9a27.33,27.33,0,0,1-3.8-6.4A38.56,38.56,0,0,1,83.2,58s5.9,2.6,9.6,2.6,12-2.2,12.2-11.2S96.1,33.6,90.4,27.1a89.32,89.32,0,0,1-9-12.1,89.32,89.32,0,0,1-9,12.1c-5.7,6.5-14.8,13.3-14.6,22.3S66.3,60.6,70,60.6,79.6,58,79.6,58a42.22,42.22,0,0,1-2.2,6.5,30.27,30.27,0,0,1-3.8,6.4H89.2Z" style="fill:#fff"/></svg>