<svg id="Layer_1" data-name="Layer 1" xmlns="http://www.w3.org/2000/svg" viewBox="0 0 170 244"><title>2_diamonds</title><metadata><?xpacket begin="﻿" id="W5M0MpCehiHzreSzNTczkc9d"?>
<x:xmpmeta xmlns:x="adobe:ns:meta/" x:xmptk="Adobe XMP Core 5.6-c111 79.158366, 2015/09/25-01:12:00        ">
   <rdf:RDF xmlns:rdf="http://www.w3.org/1999/02/22-rdf-syntax-ns#">
      <rdf:Description rdf:about=""
            xmlns:dc="http://purl.org/dc/elements/1.1/">
         <dc:title>
            <rdf:Alt>
               <rdf:li xml:lang="x-default">2_diamonds</rdf:li>
            </rdf:Alt>
         </dc:title>
      </rdf:Description>
   </rdf:RDF>
</x:xmpmeta>
                                                                                                    
                                                                                                    
                                                                                                    
                                                                                                    
                                                                                                    
                                                                                                    
                                                                                                    
                                                                                                    
                                                                                                    
                                                                                                    
                                                                                                    
                                                                                                    
                                                                                                    
                                                                                                    
                                                                                                    
                                                                                                    
                                                                                                    
                                                                                                    
                                                                                                    
                                                                                                    
                           
<?xpacket end="w"?></metadata>
<path d="M17,0H153a17,17,0,0,1,17,17.1V226.9A17.07,17.07,0,0,1,153,244H17A17,17,0,0,1,0,226.9V17.1A17,17,0,0,1,17,0Z" style="fill:#c80813"/><path d="M96.9,234.8s7.7-19.6,26.3-40.4,33.4-31.8,33.4-31.8-19.4-11.9-33-30.1S97.4,90.9,97.4,90.9s-11.3,22.4-27.2,41.4a213.22,213.22,0,0,1-32,30.3s14.8,11,33.4,31.8S96.9,234.8,96.9,234.8Z" style="fill:#e99ca1"/><path d="M74.1,66.8A60.83,60.83,0,0,1,84.6,50.7,104.63,104.63,0,0,1,98,38,52,52,0,0,1,84.8,26,160.85,160.85,0,0,1,74.4,9.4,93.49,93.49,0,0,1,63.5,25.9,80.23,80.23,0,0,1,50.7,38,100.76,100.76,0,0,1,64,50.7,50.8,50.8,0,0,1,74.1,66.8Z" style="fill:#fff"/><path d="M26.6,12.6h0A11.78,11.78,0,0,0,14.9,24.3h4.6a7.3,7.3,0,0,1,7.1-5.7h0a7.26,7.26,0,0,1,7.2,7.3c0,2.1-.6,3.1-1.5,4.9L14.9,67.2h2.4l16.3,0.1h4.5V61.7h0V55.2H33.6v6.5H23.5l-0.7.1L36.5,33.7a16.11,16.11,0,0,0,1.9-9.5,17.17,17.17,0,0,0-.6-3.4V20.6h0A11.91,11.91,0,0,0,26.6,12.6Z" style="fill:#fff"/></svg>