<svg id="Layer_1" data-name="Layer 1" xmlns="http://www.w3.org/2000/svg" viewBox="0 0 170 243.9"><title>2_spades</title><metadata><?xpacket begin="﻿" id="W5M0MpCehiHzreSzNTczkc9d"?>
<x:xmpmeta xmlns:x="adobe:ns:meta/" x:xmptk="Adobe XMP Core 5.6-c111 79.158366, 2015/09/25-01:12:00        ">
   <rdf:RDF xmlns:rdf="http://www.w3.org/1999/02/22-rdf-syntax-ns#">
      <rdf:Description rdf:about=""
            xmlns:dc="http://purl.org/dc/elements/1.1/">
         <dc:title>
            <rdf:Alt>
               <rdf:li xml:lang="x-default">2_spades</rdf:li>
            </rdf:Alt>
         </dc:title>
      </rdf:Description>
   </rdf:RDF>
</x:xmpmeta>
                                                                                                    
                                                                                                    
                                                                                                    
                                                                                                    
                                                                                                    
                                                                                                    
                                                                                                    
                                                                                                    
                                                                                                    
                                                                                                    
                                                                                                    
                                                                                                    
                                                                                                    
                                                                                                    
                                                                                                    
                                                                                                    
                                                                                                    
                                                                                                    
                                                                                                    
                                                                                                    
                           
<?xpacket end="w"?></metadata>
<path d="M17,0H153a17,17,0,0,1,17,17.1V226.8a17.07,17.07,0,0,1-17,17.1H17A17,17,0,0,1,0,226.8V17.1A17,17,0,0,1,17,0Z"/><path d="M27,12.6h0A11.78,11.78,0,0,0,15.3,24.3H20a7.3,7.3,0,0,1,7.1-5.7h0a7.26,7.26,0,0,1,7.2,7.3c0,2.1-.6,3.1-1.5,4.9L15.4,67.2h2.4l16.3,0.1h4.5V61.7h0V55.2H34.1v6.5H23.9l-0.7.1L36.9,33.7a16,16,0,0,0,1.9-9.5,17.17,17.17,0,0,0-.6-3.4V20.6h0A11.91,11.91,0,0,0,27,12.6Z" style="fill:#fff"/><path d="M117.4,228.8a61.31,61.31,0,0,1-9-14.9,96.05,96.05,0,0,1-5.1-15.3s13.8,6.1,22.6,6.1,28.3-5.3,28.7-26.4-20.9-37.2-34.3-52.5A211.87,211.87,0,0,1,99,97.4a211.87,211.87,0,0,1-21.3,28.4C64.4,141,43.1,157,43.5,178.2s19.9,26.4,28.7,26.4,22.6-6.1,22.6-6.1a96.05,96.05,0,0,1-5.1,15.3,61.31,61.31,0,0,1-9,14.9h36.7v0.1Z" style="fill:#a2a2a2"/><path d="M83.3,66.8a27.33,27.33,0,0,1-3.8-6.4,38.56,38.56,0,0,1-2.2-6.5s5.9,2.6,9.6,2.6,12-2.2,12.2-11.2S90.2,29.5,84.5,23a89.32,89.32,0,0,1-9-12.1,89.32,89.32,0,0,1-9,12.1c-5.7,6.5-14.8,13.3-14.6,22.3s8.5,11.2,12.2,11.2,9.6-2.6,9.6-2.6a42.22,42.22,0,0,1-2.2,6.5,30.27,30.27,0,0,1-3.8,6.4H83.3Z" style="fill:#fff"/></svg>