<svg id="Layer_1" data-name="Layer 1" xmlns="http://www.w3.org/2000/svg" viewBox="0 0 170 243.8"><title>3_diamonds</title><metadata><?xpacket begin="﻿" id="W5M0MpCehiHzreSzNTczkc9d"?>
<x:xmpmeta xmlns:x="adobe:ns:meta/" x:xmptk="Adobe XMP Core 5.6-c111 79.158366, 2015/09/25-01:12:00        ">
   <rdf:RDF xmlns:rdf="http://www.w3.org/1999/02/22-rdf-syntax-ns#">
      <rdf:Description rdf:about=""
            xmlns:dc="http://purl.org/dc/elements/1.1/">
         <dc:title>
            <rdf:Alt>
               <rdf:li xml:lang="x-default">3_diamonds</rdf:li>
            </rdf:Alt>
         </dc:title>
      </rdf:Description>
   </rdf:RDF>
</x:xmpmeta>
                                                                                                    
                                                                                                    
                                                                                                    
                                                                                                    
                                                                                                    
                                                                                                    
                                                                                                    
                                                                                                    
                                                                                                    
                                                                                                    
                                                                                                    
                                                                                                    
                                                                                                    
                                                                                                    
                                                                                                    
                                                                                                    
                                                                                                    
                                                                                                    
                                                                                                    
                                                                                                    
                           
<?xpacket end="w"?></metadata>
<path d="M17,0H153a17,17,0,0,1,17,17.1V226.7a17.07,17.07,0,0,1-17,17.1H17A17,17,0,0,1,0,226.7V17.1A17,17,0,0,1,17,0Z" style="fill:#c80813"/><path d="M34.7,38.9a12.61,12.61,0,0,1,5.4,10.4V55A12.61,12.61,0,0,1,27.5,67.6h0A12.68,12.68,0,0,1,14.9,55V53.9h4.8a7.92,7.92,0,0,0,7.8,7.7h0a7.83,7.83,0,0,0,7.8-7.9V51a7.9,7.9,0,0,0-7.8-7.9H26.8V35.6h0.7a7.34,7.34,0,0,0,7.3-7.3V26a7.34,7.34,0,0,0-7.3-7.3h0A7.34,7.34,0,0,0,20.2,26H15.8V24.4A11.8,11.8,0,0,1,27.5,12.6h0A11.8,11.8,0,0,1,39.2,24.4v5.3A11.91,11.91,0,0,1,34.7,38.9Z" style="fill:#fff"/><path d="M96.9,234.6s7.7-19.5,26.3-40.3,33.4-31.8,33.4-31.8-19.4-11.9-33-30.1S97.4,90.8,97.4,90.8s-11.3,22.4-27.2,41.4a213.22,213.22,0,0,1-32,30.3s14.8,11,33.4,31.8S96.9,234.6,96.9,234.6Z" style="fill:#e99ca1"/><path d="M74.1,66.7A60.83,60.83,0,0,1,84.6,50.6,107.57,107.57,0,0,1,98,38,52,52,0,0,1,84.8,26,157,157,0,0,1,74.4,9.3,97.68,97.68,0,0,1,63.5,25.8,83.75,83.75,0,0,1,50.7,38,100.76,100.76,0,0,1,64,50.7,49.85,49.85,0,0,1,74.1,66.7Z" style="fill:#fff"/></svg>