<svg id="Layer_1" data-name="Layer 1" xmlns="http://www.w3.org/2000/svg" viewBox="0 0 170 244"><title>3_hearts</title><metadata><?xpacket begin="﻿" id="W5M0MpCehiHzreSzNTczkc9d"?>
<x:xmpmeta xmlns:x="adobe:ns:meta/" x:xmptk="Adobe XMP Core 5.6-c111 79.158366, 2015/09/25-01:12:00        ">
   <rdf:RDF xmlns:rdf="http://www.w3.org/1999/02/22-rdf-syntax-ns#">
      <rdf:Description rdf:about=""
            xmlns:dc="http://purl.org/dc/elements/1.1/">
         <dc:title>
            <rdf:Alt>
               <rdf:li xml:lang="x-default">3_hearts</rdf:li>
            </rdf:Alt>
         </dc:title>
      </rdf:Description>
   </rdf:RDF>
</x:xmpmeta>
                                                                                                    
                                                                                                    
                                                                                                    
                                                                                                    
                                                                                                    
                                                                                                    
                                                                                                    
                                                                                                    
                                                                                                    
                                                                                                    
                                                                                                    
                                                                                                    
                                                                                                    
                                                                                                    
                                                                                                    
                                                                                                    
                                                                                                    
                                                                                                    
                                                                                                    
                                                                                                    
                           
<?xpacket end="w"?></metadata>
<path d="M17,0H153a17,17,0,0,1,17,17.1V226.9A17.07,17.07,0,0,1,153,244H17A17,17,0,0,1,0,226.9V17.1A17,17,0,0,1,17,0Z" style="fill:#c80813"/><path d="M93.8,229.1s14.1-28.9,29.8-49,27.9-31,28-48.7a27.16,27.16,0,0,0-26.7-26.6c-24.1-.7-31.1,22-31.1,22s-7-22.7-31.1-22A27.16,27.16,0,0,0,36,131.4c0.2,17.7,12.3,28.6,28,48.7S93.8,229.1,93.8,229.1Z" style="fill:#e99ca1"/><path d="M74.9,66.8s5.9-12.2,12.5-20.6,11.7-13,11.8-20.5A11.44,11.44,0,0,0,88,14.5c-10.1-.3-13.1,9.2-13.1,9.2s-3-9.5-13.1-9.2A11.37,11.37,0,0,0,50.6,25.7c0.1,7.4,5.2,12,11.8,20.5S74.9,66.8,74.9,66.8Z" style="fill:#fff"/><path d="M34.8,39a12.61,12.61,0,0,1,5.4,10.4v5.7A12.7,12.7,0,0,1,27.6,67.8h0A12.83,12.83,0,0,1,15,55.1V54h4.8a7.92,7.92,0,0,0,7.8,7.7h0a7.83,7.83,0,0,0,7.8-7.9V51.2a7.9,7.9,0,0,0-7.8-7.9H26.9V35.8h0.7a7.34,7.34,0,0,0,7.3-7.3V26a7.34,7.34,0,0,0-7.3-7.3h0A7.34,7.34,0,0,0,20.3,26H15.9V24.4A11.8,11.8,0,0,1,27.6,12.6h0A11.8,11.8,0,0,1,39.3,24.4v5.3A11.51,11.51,0,0,1,34.8,39Z" style="fill:#fff"/></svg>