<svg id="Layer_1" data-name="Layer 1" xmlns="http://www.w3.org/2000/svg" viewBox="0 0 170 244"><title>3_spades</title><metadata><?xpacket begin="﻿" id="W5M0MpCehiHzreSzNTczkc9d"?>
<x:xmpmeta xmlns:x="adobe:ns:meta/" x:xmptk="Adobe XMP Core 5.6-c111 79.158366, 2015/09/25-01:12:00        ">
   <rdf:RDF xmlns:rdf="http://www.w3.org/1999/02/22-rdf-syntax-ns#">
      <rdf:Description rdf:about=""
            xmlns:dc="http://purl.org/dc/elements/1.1/">
         <dc:title>
            <rdf:Alt>
               <rdf:li xml:lang="x-default">3_spades</rdf:li>
            </rdf:Alt>
         </dc:title>
      </rdf:Description>
   </rdf:RDF>
</x:xmpmeta>
                                                                                                    
                                                                                                    
                                                                                                    
                                                                                                    
                                                                                                    
                                                                                                    
                                                                                                    
                                                                                                    
                                                                                                    
                                                                                                    
                                                                                                    
                                                                                                    
                                                                                                    
                                                                                                    
                                                                                                    
                                                                                                    
                                                                                                    
                                                                                                    
                                                                                                    
                                                                                                    
                           
<?xpacket end="w"?></metadata>
<path d="M17,0H153a17,17,0,0,1,17,17.1V226.9A17.07,17.07,0,0,1,153,244H17A17,17,0,0,1,0,226.9V17.1A17,17,0,0,1,17,0Z"/><path d="M34.9,39a12.61,12.61,0,0,1,5.4,10.4v5.7A12.7,12.7,0,0,1,27.7,67.8h0A12.7,12.7,0,0,1,15.1,55.1V54h4.8a7.92,7.92,0,0,0,7.8,7.7h0a7.83,7.83,0,0,0,7.8-7.9V51.2a7.9,7.9,0,0,0-7.8-7.9H27V35.8h0.7A7.34,7.34,0,0,0,35,28.5V26a7.34,7.34,0,0,0-7.3-7.3h0A7.34,7.34,0,0,0,20.4,26H16V24.4A11.8,11.8,0,0,1,27.7,12.6h0A11.8,11.8,0,0,1,39.4,24.4v5.3A11.51,11.51,0,0,1,34.9,39Z" style="fill:#fff"/><path d="M117.4,229.1a60.78,60.78,0,0,1-9-15,96.05,96.05,0,0,1-5.1-15.3s13.8,6.1,22.6,6.1,28.3-5.3,28.7-26.5-20.9-37.2-34.3-52.5A211.87,211.87,0,0,1,99,97.5a211.87,211.87,0,0,1-21.3,28.4C64.2,141.2,43,157.3,43.4,178.4s19.9,26.5,28.7,26.5,22.6-6.1,22.6-6.1a96.05,96.05,0,0,1-5.1,15.3,63.28,63.28,0,0,1-9,15h36.8Z" style="fill:#a2a2a2"/><path d="M83.3,66.8a27.33,27.33,0,0,1-3.8-6.4,38.56,38.56,0,0,1-2.2-6.5s5.9,2.6,9.6,2.6,12-2.2,12.2-11.2S90.2,29.5,84.5,23a89.32,89.32,0,0,1-9-12.1,89.32,89.32,0,0,1-9,12.1c-5.7,6.5-14.8,13.3-14.6,22.3s8.5,11.2,12.2,11.2,9.6-2.6,9.6-2.6a42.22,42.22,0,0,1-2.2,6.5,30.27,30.27,0,0,1-3.8,6.4H83.3Z" style="fill:#fff"/></svg>