<svg id="Layer_1" data-name="Layer 1" xmlns="http://www.w3.org/2000/svg" viewBox="0 0 170 244"><title>4_hearts</title><metadata><?xpacket begin="﻿" id="W5M0MpCehiHzreSzNTczkc9d"?>
<x:xmpmeta xmlns:x="adobe:ns:meta/" x:xmptk="Adobe XMP Core 5.6-c111 79.158366, 2015/09/25-01:12:00        ">
   <rdf:RDF xmlns:rdf="http://www.w3.org/1999/02/22-rdf-syntax-ns#">
      <rdf:Description rdf:about=""
            xmlns:dc="http://purl.org/dc/elements/1.1/">
         <dc:title>
            <rdf:Alt>
               <rdf:li xml:lang="x-default">4_hearts</rdf:li>
            </rdf:Alt>
         </dc:title>
      </rdf:Description>
   </rdf:RDF>
</x:xmpmeta>
                                                                                                    
                                                                                                    
                                                                                                    
                                                                                                    
                                                                                                    
                                                                                                    
                                                                                                    
                                                                                                    
                                                                                                    
                                                                                                    
                                                                                                    
                                                                                                    
                                                                                                    
                                                                                                    
                                                                                                    
                                                                                                    
                                                                                                    
                                                                                                    
                                                                                                    
                                                                                                    
                           
<?xpacket end="w"?></metadata>
<path d="M17,0H153a17,17,0,0,1,17,17.1V226.9A17.07,17.07,0,0,1,153,244H17A17,17,0,0,1,0,226.9V17.1A17,17,0,0,1,17,0Z" style="fill:#c80813"/><polygon points="20.8 59.6 19.4 59.6 14.6 59.6 29 12.6 33.7 12.6 21.5 54 28.6 54 28.6 45 33.1 45 33.1 54 40.9 54 40.9 59.6 40.9 59.6 36.4 59.6 33.1 59.6 33.1 67.2 28.6 67.2 28.6 59.6 20.8 59.6" style="fill:#fff"/><path d="M93.8,229.3s14.1-28.9,29.8-49,27.9-31,28-48.7A27.16,27.16,0,0,0,124.9,105c-24.1-.7-31.1,22-31.1,22s-7-22.7-31.1-22A27.16,27.16,0,0,0,36,131.6c0.2,17.7,12.3,28.6,28,48.7S93.8,229.3,93.8,229.3Z" style="fill:#e99ca1"/><path d="M74.9,66.8s5.9-12.2,12.5-20.6,11.7-13,11.8-20.5A11.44,11.44,0,0,0,88,14.5c-10.1-.3-13.1,9.2-13.1,9.2s-3-9.5-13.1-9.2A11.37,11.37,0,0,0,50.6,25.7c0.1,7.4,5.2,12,11.8,20.5S74.9,66.8,74.9,66.8Z" style="fill:#fff"/></svg>