<svg id="Layer_1" data-name="Layer 1" xmlns="http://www.w3.org/2000/svg" viewBox="0 0 169.8 244"><title>5_clubs</title><metadata><?xpacket begin="﻿" id="W5M0MpCehiHzreSzNTczkc9d"?>
<x:xmpmeta xmlns:x="adobe:ns:meta/" x:xmptk="Adobe XMP Core 5.6-c111 79.158366, 2015/09/25-01:12:00        ">
   <rdf:RDF xmlns:rdf="http://www.w3.org/1999/02/22-rdf-syntax-ns#">
      <rdf:Description rdf:about=""
            xmlns:dc="http://purl.org/dc/elements/1.1/">
         <dc:title>
            <rdf:Alt>
               <rdf:li xml:lang="x-default">5_clubs</rdf:li>
            </rdf:Alt>
         </dc:title>
      </rdf:Description>
   </rdf:RDF>
</x:xmpmeta>
                                                                                                    
                                                                                                    
                                                                                                    
                                                                                                    
                                                                                                    
                                                                                                    
                                                                                                    
                                                                                                    
                                                                                                    
                                                                                                    
                                                                                                    
                                                                                                    
                                                                                                    
                                                                                                    
                                                                                                    
                                                                                                    
                                                                                                    
                                                                                                    
                                                                                                    
                                                                                                    
                           
<?xpacket end="w"?></metadata>
<path d="M17,0H152.8a17,17,0,0,1,17,17.1V226.9a17.07,17.07,0,0,1-17,17.1H17A17,17,0,0,1,0,226.9V17.1A17,17,0,0,1,17,0Z"/><path d="M26.7,67.7h0A11.59,11.59,0,0,1,15.2,56.1h4.5a7.18,7.18,0,0,0,7,5.6h0a7.23,7.23,0,0,0,7.2-7.2v-10a7.17,7.17,0,0,0-7.2-7.2h0a7.09,7.09,0,0,0-7,5.9H15.2V42.6h0v-29l18.5-.1h4.5V19h0v6.5H33.7V19h-14V34.2a11.4,11.4,0,0,1,7-2.4h0A11.59,11.59,0,0,1,38.2,43.4V56.1A11.59,11.59,0,0,1,26.7,67.7Z" style="fill:#fff"/><path d="M115.9,229.5a78.77,78.77,0,0,1-9.1-17.6c-3.2-9.5-4.4-22.3-4.4-22.3s9.2,14.4,25.2,14.2S155,190,155,176.3s-12.1-27.1-24.6-27.7-16.1,2.2-16.1,2.2,9.9-8.5,9.7-24.7c-0.4-25.5-26.4-26.3-26.4-26.3s-26,.8-26.4,26.3c-0.3,16.2,9.7,24.7,9.7,24.7s-3.6-2.8-16.1-2.2-24.6,14-24.6,27.7,11.5,27.3,27.4,27.5,25.2-14.2,25.2-14.2-1.2,12.8-4.4,22.3a74.32,74.32,0,0,1-9.1,17.6h36.6Z" style="fill:#a2a2a2"/><path d="M81.5,66.8a29.28,29.28,0,0,1-3.8-7.5,47.7,47.7,0,0,1-1.9-9.5s3.9,6.1,10.7,6A11.88,11.88,0,0,0,98.1,44.1c0-5.9-5.1-11.5-10.4-11.8s-6.8.9-6.8,0.9A14,14,0,0,0,85,22.7c-0.3-10.7-11.3-11-11.3-11s-11,.3-11.2,11.2a14,14,0,0,0,4.1,10.5s-1.5-1.2-6.8-.9S49.4,38.4,49.4,44.3A11.89,11.89,0,0,0,61,56c6.8,0.1,10.7-6,10.7-6a49.06,49.06,0,0,1-1.9,9.5A36.37,36.37,0,0,1,66,67H81.5V66.8Z" style="fill:#fff"/></svg>