<svg id="Layer_1" data-name="Layer 1" xmlns="http://www.w3.org/2000/svg" viewBox="0 0 170 244"><title>5_hearts</title><metadata><?xpacket begin="﻿" id="W5M0MpCehiHzreSzNTczkc9d"?>
<x:xmpmeta xmlns:x="adobe:ns:meta/" x:xmptk="Adobe XMP Core 5.6-c111 79.158366, 2015/09/25-01:12:00        ">
   <rdf:RDF xmlns:rdf="http://www.w3.org/1999/02/22-rdf-syntax-ns#">
      <rdf:Description rdf:about=""
            xmlns:dc="http://purl.org/dc/elements/1.1/">
         <dc:title>
            <rdf:Alt>
               <rdf:li xml:lang="x-default">5_hearts</rdf:li>
            </rdf:Alt>
         </dc:title>
      </rdf:Description>
   </rdf:RDF>
</x:xmpmeta>
                                                                                                    
                                                                                                    
                                                                                                    
                                                                                                    
                                                                                                    
                                                                                                    
                                                                                                    
                                                                                                    
                                                                                                    
                                                                                                    
                                                                                                    
                                                                                                    
                                                                                                    
                                                                                                    
                                                                                                    
                                                                                                    
                                                                                                    
                                                                                                    
                                                                                                    
                                                                                                    
                           
<?xpacket end="w"?></metadata>
<path d="M17,0H153a17,17,0,0,1,17,17.1V226.9A17.07,17.07,0,0,1,153,244H17A17,17,0,0,1,0,226.9V17.1A17,17,0,0,1,17,0Z" style="fill:#c80813"/><path d="M27.1,67.7h0A11.59,11.59,0,0,1,15.6,56.1h4.5a7.18,7.18,0,0,0,7,5.6h0a7.23,7.23,0,0,0,7.2-7.2v-10a7.17,7.17,0,0,0-7.2-7.2h0a7.09,7.09,0,0,0-7,5.9H15.6V42.6h0v-29l18.6-.1h4.5V19h0v6.5H34.2V19H20.1V34.2a11.61,11.61,0,0,1,7-2.4h0A11.59,11.59,0,0,1,38.6,43.4V56.1A11.46,11.46,0,0,1,27.1,67.7Z" style="fill:#fff"/><path d="M93.8,229.4s14.1-28.9,29.8-49,27.9-31,28-48.7a27.16,27.16,0,0,0-26.7-26.6c-24.1-.7-31.1,22-31.1,22s-7-22.7-31.1-22A27.16,27.16,0,0,0,36,131.7c0.2,17.7,12.3,28.6,28,48.7S93.8,229.4,93.8,229.4Z" style="fill:#e99ca1"/><path d="M74.9,66.8s5.9-12.2,12.5-20.6,11.7-13,11.8-20.5A11.44,11.44,0,0,0,88,14.5c-10.1-.3-13.1,9.2-13.1,9.2s-3-9.5-13.1-9.2A11.37,11.37,0,0,0,50.6,25.7c0.1,7.4,5.2,12,11.8,20.5S74.9,66.8,74.9,66.8Z" style="fill:#fff"/></svg>