<svg id="Layer_1" data-name="Layer 1" xmlns="http://www.w3.org/2000/svg" viewBox="0 0 170 244"><title>5_spades</title><metadata><?xpacket begin="﻿" id="W5M0MpCehiHzreSzNTczkc9d"?>
<x:xmpmeta xmlns:x="adobe:ns:meta/" x:xmptk="Adobe XMP Core 5.6-c111 79.158366, 2015/09/25-01:12:00        ">
   <rdf:RDF xmlns:rdf="http://www.w3.org/1999/02/22-rdf-syntax-ns#">
      <rdf:Description rdf:about=""
            xmlns:dc="http://purl.org/dc/elements/1.1/">
         <dc:title>
            <rdf:Alt>
               <rdf:li xml:lang="x-default">5_spades</rdf:li>
            </rdf:Alt>
         </dc:title>
      </rdf:Description>
   </rdf:RDF>
</x:xmpmeta>
                                                                                                    
                                                                                                    
                                                                                                    
                                                                                                    
                                                                                                    
                                                                                                    
                                                                                                    
                                                                                                    
                                                                                                    
                                                                                                    
                                                                                                    
                                                                                                    
                                                                                                    
                                                                                                    
                                                                                                    
                                                                                                    
                                                                                                    
                                                                                                    
                                                                                                    
                                                                                                    
                           
<?xpacket end="w"?></metadata>
<path d="M17,0H153a17,17,0,0,1,17,17.1V226.9A17.07,17.07,0,0,1,153,244H17A17,17,0,0,1,0,226.9V17.1A17,17,0,0,1,17,0Z"/><path d="M27.3,67.7h0A11.59,11.59,0,0,1,15.8,56.1h4.5a7.18,7.18,0,0,0,7,5.6h0a7.23,7.23,0,0,0,7.2-7.2v-10a7.17,7.17,0,0,0-7.2-7.2h0a7.09,7.09,0,0,0-7,5.9H15.8V42.6h0v-29l18.6-.1h4.5V19h0v6.5H34.4V19H20.3V34.2a11.61,11.61,0,0,1,7-2.4h0A11.59,11.59,0,0,1,38.8,43.4V56.1A11.46,11.46,0,0,1,27.3,67.7Z" style="fill:#fff"/><path d="M117.4,229.4a60.78,60.78,0,0,1-9-15,96.05,96.05,0,0,1-5.1-15.3s13.8,6.1,22.6,6.1,28.3-5.3,28.7-26.5-20.9-37.2-34.3-52.5A211.6,211.6,0,0,1,99.1,97.9a211.87,211.87,0,0,1-21.3,28.4c-13.5,15.3-34.7,31.4-34.3,52.5s19.9,26.5,28.7,26.5,22.6-6.1,22.6-6.1a96.05,96.05,0,0,1-5.1,15.3,63.28,63.28,0,0,1-9,15h36.7v-0.1Z" style="fill:#a2a2a2"/><path d="M83.3,66.8a27.33,27.33,0,0,1-3.8-6.4,38.56,38.56,0,0,1-2.2-6.5s5.9,2.6,9.6,2.6,12-2.2,12.2-11.2S90.2,29.5,84.5,23a89.32,89.32,0,0,1-9-12.1,89.32,89.32,0,0,1-9,12.1c-5.7,6.5-14.8,13.3-14.6,22.3s8.5,11.2,12.2,11.2,9.6-2.6,9.6-2.6a42.22,42.22,0,0,1-2.2,6.5,30.27,30.27,0,0,1-3.8,6.4H83.3Z" style="fill:#fff"/></svg>