<svg id="Layer_1" data-name="Layer 1" xmlns="http://www.w3.org/2000/svg" viewBox="0 0 170 244"><title>6_hearts</title><metadata><?xpacket begin="﻿" id="W5M0MpCehiHzreSzNTczkc9d"?>
<x:xmpmeta xmlns:x="adobe:ns:meta/" x:xmptk="Adobe XMP Core 5.6-c111 79.158366, 2015/09/25-01:12:00        ">
   <rdf:RDF xmlns:rdf="http://www.w3.org/1999/02/22-rdf-syntax-ns#">
      <rdf:Description rdf:about=""
            xmlns:dc="http://purl.org/dc/elements/1.1/">
         <dc:title>
            <rdf:Alt>
               <rdf:li xml:lang="x-default">6_hearts</rdf:li>
            </rdf:Alt>
         </dc:title>
      </rdf:Description>
   </rdf:RDF>
</x:xmpmeta>
                                                                                                    
                                                                                                    
                                                                                                    
                                                                                                    
                                                                                                    
                                                                                                    
                                                                                                    
                                                                                                    
                                                                                                    
                                                                                                    
                                                                                                    
                                                                                                    
                                                                                                    
                                                                                                    
                                                                                                    
                                                                                                    
                                                                                                    
                                                                                                    
                                                                                                    
                                                                                                    
                           
<?xpacket end="w"?></metadata>
<path d="M17,0H153a17,17,0,0,1,17,17.1V226.9A17.07,17.07,0,0,1,153,244H17A17,17,0,0,1,0,226.9V17.1A17,17,0,0,1,17,0Z" style="fill:#c80813"/><path d="M93.8,229.6s14.1-28.9,29.8-49,27.9-31,28-48.7a27.16,27.16,0,0,0-26.7-26.6c-24.1-.7-31.1,22-31.1,22s-7-22.7-31.1-22A27.16,27.16,0,0,0,36,131.9c0.2,17.7,12.3,28.6,28,48.7S93.8,229.6,93.8,229.6Z" style="fill:#e99ca1"/><path d="M27.2,67.7h0A11.69,11.69,0,0,1,15.6,56V48.1h0V24.3A11.69,11.69,0,0,1,27.2,12.6h0A11.69,11.69,0,0,1,38.8,24.3v3.3H34.4V25.5a7.32,7.32,0,0,0-7.2-7.3h0A7.26,7.26,0,0,0,20,25.5v0.4h0.1V39.6a11.69,11.69,0,0,1,7.1-2.4h0A11.69,11.69,0,0,1,38.8,48.9V56A11.63,11.63,0,0,1,27.2,67.7h0Zm0-6a7.26,7.26,0,0,0,7.2-7.3V50a7.32,7.32,0,0,0-7.2-7.3h0A7.26,7.26,0,0,0,20,50v4.4a7.26,7.26,0,0,0,7.2,7.3h0Z" style="fill:#fff"/><path d="M74.9,66.8s5.9-12.2,12.5-20.6,11.7-13,11.8-20.5A11.44,11.44,0,0,0,88,14.5c-10.1-.3-13.1,9.2-13.1,9.2s-3-9.5-13.1-9.2A11.37,11.37,0,0,0,50.6,25.7c0.1,7.4,5.2,12,11.8,20.5S74.9,66.8,74.9,66.8Z" style="fill:#fff"/></svg>