<svg id="Layer_1" data-name="Layer 1" xmlns="http://www.w3.org/2000/svg" viewBox="0 0 169.8 244"><title>7_hearts</title><metadata><?xpacket begin="﻿" id="W5M0MpCehiHzreSzNTczkc9d"?>
<x:xmpmeta xmlns:x="adobe:ns:meta/" x:xmptk="Adobe XMP Core 5.6-c111 79.158366, 2015/09/25-01:12:00        ">
   <rdf:RDF xmlns:rdf="http://www.w3.org/1999/02/22-rdf-syntax-ns#">
      <rdf:Description rdf:about=""
            xmlns:dc="http://purl.org/dc/elements/1.1/">
         <dc:title>
            <rdf:Alt>
               <rdf:li xml:lang="x-default">7_hearts</rdf:li>
            </rdf:Alt>
         </dc:title>
      </rdf:Description>
   </rdf:RDF>
</x:xmpmeta>
                                                                                                    
                                                                                                    
                                                                                                    
                                                                                                    
                                                                                                    
                                                                                                    
                                                                                                    
                                                                                                    
                                                                                                    
                                                                                                    
                                                                                                    
                                                                                                    
                                                                                                    
                                                                                                    
                                                                                                    
                                                                                                    
                                                                                                    
                                                                                                    
                                                                                                    
                                                                                                    
                           
<?xpacket end="w"?></metadata>
<path d="M17,0H152.8a17,17,0,0,1,17,17.1V226.9a17.07,17.07,0,0,1-17,17.1H17A17,17,0,0,1,0,226.9V17.1A17,17,0,0,1,17,0Z" style="fill:#c80813"/><polygon points="35.7 13.6 37.1 13.6 41.9 13.6 23.5 67.3 17.2 67.3 33.8 19.2 20.1 19.2 20.1 25.7 15.5 25.7 15.5 19.2 15.5 19.2 15.5 13.6 15.5 13.6 20.1 13.6 35.7 13.6" style="fill:#fff"/><path d="M93.5,228.6s14.1-28.9,29.8-49,27.8-31,28-48.7a27.16,27.16,0,0,0-26.7-26.6c-24.1-.7-31.1,22-31.1,22s-7-22.7-31.1-22c-17.8.5-26.8,15.7-26.7,26.6,0.2,17.7,12.3,28.6,28,48.7S93.5,228.6,93.5,228.6Z" style="fill:#e99ca1"/><path d="M74.8,66.8s5.9-12.2,12.5-20.6S99,33.2,99.1,25.7A11.44,11.44,0,0,0,87.9,14.5c-10.1-.3-13.1,9.2-13.1,9.2s-3-9.5-13.1-9.2A11.37,11.37,0,0,0,50.5,25.7c0.1,7.4,5.2,12,11.8,20.5S74.8,66.8,74.8,66.8Z" style="fill:#fff"/></svg>