<svg id="Layer_1" data-name="Layer 1" xmlns="http://www.w3.org/2000/svg" viewBox="0 0 170 244"><title>8_hearts</title><metadata><?xpacket begin="﻿" id="W5M0MpCehiHzreSzNTczkc9d"?>
<x:xmpmeta xmlns:x="adobe:ns:meta/" x:xmptk="Adobe XMP Core 5.6-c111 79.158366, 2015/09/25-01:12:00        ">
   <rdf:RDF xmlns:rdf="http://www.w3.org/1999/02/22-rdf-syntax-ns#">
      <rdf:Description rdf:about=""
            xmlns:dc="http://purl.org/dc/elements/1.1/">
         <dc:title>
            <rdf:Alt>
               <rdf:li xml:lang="x-default">8_hearts</rdf:li>
            </rdf:Alt>
         </dc:title>
      </rdf:Description>
   </rdf:RDF>
</x:xmpmeta>
                                                                                                    
                                                                                                    
                                                                                                    
                                                                                                    
                                                                                                    
                                                                                                    
                                                                                                    
                                                                                                    
                                                                                                    
                                                                                                    
                                                                                                    
                                                                                                    
                                                                                                    
                                                                                                    
                                                                                                    
                                                                                                    
                                                                                                    
                                                                                                    
                                                                                                    
                                                                                                    
                           
<?xpacket end="w"?></metadata>
<path d="M17,0H153a17,17,0,0,1,17,17.1V226.9A17.07,17.07,0,0,1,153,244H17A17,17,0,0,1,0,226.9V17.1A17,17,0,0,1,17,0Z" style="fill:#c80813"/><path d="M93.6,228.8s14.1-28.9,29.8-49,27.9-31,28-48.7a27.16,27.16,0,0,0-26.7-26.6c-24.1-.7-31.1,22-31.1,22s-7-22.7-31.1-22a27.16,27.16,0,0,0-26.7,26.6c0.2,17.7,12.3,28.6,28,48.7S93.6,228.8,93.6,228.8Z" style="fill:#e99ca1"/><path d="M74.9,66.8s5.9-12.2,12.5-20.6,11.7-13,11.8-20.5A11.44,11.44,0,0,0,88,14.5c-10.1-.3-13.1,9.2-13.1,9.2s-3-9.5-13.1-9.2A11.37,11.37,0,0,0,50.6,25.7c0.1,7.4,5.2,12,11.8,20.5S74.9,66.8,74.9,66.8Z" style="fill:#fff"/><path d="M35.8,38.9a12.79,12.79,0,0,1,5.6,10.4V55A12.83,12.83,0,0,1,28.5,67.7h0A12.83,12.83,0,0,1,15.6,55V49.3a12.54,12.54,0,0,1,5.6-10.4,11.84,11.84,0,0,1-4.7-9.3V24.3a11.93,11.93,0,0,1,12-11.8h0a11.93,11.93,0,0,1,12,11.8v5.3a11.69,11.69,0,0,1-4.7,9.3h0ZM28.5,18.7A7.45,7.45,0,0,0,21,26v2.5a7.45,7.45,0,0,0,7.5,7.3h0A7.45,7.45,0,0,0,36,28.5V26a7.52,7.52,0,0,0-7.5-7.3h0Zm0,24.5a7.94,7.94,0,0,0-8,7.9v2.6a8,8,0,0,0,8,7.9h0a8,8,0,0,0,8-7.9V51.1a7.94,7.94,0,0,0-8-7.9h0Z" style="fill:#fff"/></svg>