<svg id="Layer_1" data-name="Layer 1" xmlns="http://www.w3.org/2000/svg" viewBox="0 0 170 244"><title>8_spades</title><metadata><?xpacket begin="﻿" id="W5M0MpCehiHzreSzNTczkc9d"?>
<x:xmpmeta xmlns:x="adobe:ns:meta/" x:xmptk="Adobe XMP Core 5.6-c111 79.158366, 2015/09/25-01:12:00        ">
   <rdf:RDF xmlns:rdf="http://www.w3.org/1999/02/22-rdf-syntax-ns#">
      <rdf:Description rdf:about=""
            xmlns:dc="http://purl.org/dc/elements/1.1/">
         <dc:title>
            <rdf:Alt>
               <rdf:li xml:lang="x-default">8_spades</rdf:li>
            </rdf:Alt>
         </dc:title>
      </rdf:Description>
   </rdf:RDF>
</x:xmpmeta>
                                                                                                    
                                                                                                    
                                                                                                    
                                                                                                    
                                                                                                    
                                                                                                    
                                                                                                    
                                                                                                    
                                                                                                    
                                                                                                    
                                                                                                    
                                                                                                    
                                                                                                    
                                                                                                    
                                                                                                    
                                                                                                    
                                                                                                    
                                                                                                    
                                                                                                    
                                                                                                    
                           
<?xpacket end="w"?></metadata>
<path d="M17,0H153a17,17,0,0,1,17,17.1V226.9A17.07,17.07,0,0,1,153,244H17A17,17,0,0,1,0,226.9V17.1A17,17,0,0,1,17,0Z"/><path d="M117.2,228.8a60.78,60.78,0,0,1-9-15,96.05,96.05,0,0,1-5.1-15.3s13.8,6.1,22.6,6.1,28.3-5.3,28.7-26.5-20.9-37.2-34.3-52.5A211.87,211.87,0,0,1,98.8,97.2a211.87,211.87,0,0,1-21.3,28.4C64,140.9,42.8,157,43.2,178.1s19.9,26.5,28.7,26.5,22.6-6.1,22.6-6.1a96.05,96.05,0,0,1-5.1,15.3,63.28,63.28,0,0,1-9,15h36.8Z" style="fill:#a2a2a2"/><path d="M83.3,66.8a27.33,27.33,0,0,1-3.8-6.4,38.56,38.56,0,0,1-2.2-6.5s5.9,2.6,9.6,2.6,12-2.2,12.2-11.2S90.2,29.5,84.5,23a89.32,89.32,0,0,1-9-12.1,89.32,89.32,0,0,1-9,12.1c-5.7,6.5-14.8,13.3-14.6,22.3s8.5,11.2,12.2,11.2,9.6-2.6,9.6-2.6a42.22,42.22,0,0,1-2.2,6.5,30.27,30.27,0,0,1-3.8,6.4H83.3Z" style="fill:#fff"/><path d="M35.3,38.9a12.79,12.79,0,0,1,5.6,10.4V55A12.83,12.83,0,0,1,28,67.7h0A12.85,12.85,0,0,1,15,55V49.3a12.54,12.54,0,0,1,5.6-10.4,11.84,11.84,0,0,1-4.7-9.3V24.3a11.93,11.93,0,0,1,12-11.8h0a11.93,11.93,0,0,1,12,11.8v5.3a11.6,11.6,0,0,1-4.6,9.3h0ZM27.9,18.7A7.45,7.45,0,0,0,20.4,26v2.5a7.45,7.45,0,0,0,7.5,7.3h0a7.45,7.45,0,0,0,7.5-7.3V26a7.45,7.45,0,0,0-7.5-7.3h0Zm0,24.5a7.94,7.94,0,0,0-8,7.9v2.6a8,8,0,0,0,8,7.9h0a8,8,0,0,0,8-7.9V51.1a7.88,7.88,0,0,0-8-7.9h0Z" style="fill:#fff"/></svg>