<svg id="Layer_1" data-name="Layer 1" xmlns="http://www.w3.org/2000/svg" viewBox="0 0 170 244"><title>9_diamonds</title><metadata><?xpacket begin="﻿" id="W5M0MpCehiHzreSzNTczkc9d"?>
<x:xmpmeta xmlns:x="adobe:ns:meta/" x:xmptk="Adobe XMP Core 5.6-c111 79.158366, 2015/09/25-01:12:00        ">
   <rdf:RDF xmlns:rdf="http://www.w3.org/1999/02/22-rdf-syntax-ns#">
      <rdf:Description rdf:about=""
            xmlns:dc="http://purl.org/dc/elements/1.1/">
         <dc:title>
            <rdf:Alt>
               <rdf:li xml:lang="x-default">9_diamonds</rdf:li>
            </rdf:Alt>
         </dc:title>
      </rdf:Description>
   </rdf:RDF>
</x:xmpmeta>
                                                                                                    
                                                                                                    
                                                                                                    
                                                                                                    
                                                                                                    
                                                                                                    
                                                                                                    
                                                                                                    
                                                                                                    
                                                                                                    
                                                                                                    
                                                                                                    
                                                                                                    
                                                                                                    
                                                                                                    
                                                                                                    
                                                                                                    
                                                                                                    
                                                                                                    
                                                                                                    
                           
<?xpacket end="w"?></metadata>
<path d="M17,0H153a17,17,0,0,1,17,17.1V226.9A17.07,17.07,0,0,1,153,244H17A17,17,0,0,1,0,226.9V17.1A17,17,0,0,1,17,0Z" style="fill:#c80813"/><path d="M27.2,12.6h0A11.69,11.69,0,0,1,38.8,24.3v7.9h0V56A11.69,11.69,0,0,1,27.2,67.7h0A11.69,11.69,0,0,1,15.6,56V52.7H20v2.1a7.32,7.32,0,0,0,7.2,7.3h0a7.26,7.26,0,0,0,7.2-7.3V54.4H34.3V40.7a11.69,11.69,0,0,1-7.1,2.4h0A11.69,11.69,0,0,1,15.6,31.4V24.2A11.54,11.54,0,0,1,27.2,12.6h0Zm0,6A7.26,7.26,0,0,0,20,25.9v4.4a7.32,7.32,0,0,0,7.2,7.3h0a7.26,7.26,0,0,0,7.2-7.3V25.9a7.26,7.26,0,0,0-7.2-7.3h0Z" style="fill:#fff"/><path d="M96.7,234.8s7.7-19.6,26.3-40.4,33.4-31.8,33.4-31.8-19.4-11.9-33-30.1S97.2,90.9,97.2,90.9,85.9,113.3,70,132.3a213.22,213.22,0,0,1-32,30.3s14.8,11,33.4,31.8S96.7,234.8,96.7,234.8Z" style="fill:#e99ca1"/><path d="M74.1,66.8A60.83,60.83,0,0,1,84.6,50.7,104.63,104.63,0,0,1,98,38,52,52,0,0,1,84.8,26,160.85,160.85,0,0,1,74.4,9.4,93.49,93.49,0,0,1,63.5,25.9,80.23,80.23,0,0,1,50.7,38,100.76,100.76,0,0,1,64,50.7,50.8,50.8,0,0,1,74.1,66.8Z" style="fill:#fff"/></svg>