<svg id="Layer_1" data-name="Layer 1" xmlns="http://www.w3.org/2000/svg" viewBox="0 0 170 244"><title>A_diamonds</title><metadata><?xpacket begin="﻿" id="W5M0MpCehiHzreSzNTczkc9d"?>
<x:xmpmeta xmlns:x="adobe:ns:meta/" x:xmptk="Adobe XMP Core 5.6-c111 79.158366, 2015/09/25-01:12:00        ">
   <rdf:RDF xmlns:rdf="http://www.w3.org/1999/02/22-rdf-syntax-ns#">
      <rdf:Description rdf:about=""
            xmlns:dc="http://purl.org/dc/elements/1.1/">
         <dc:title>
            <rdf:Alt>
               <rdf:li xml:lang="x-default">A_diamonds</rdf:li>
            </rdf:Alt>
         </dc:title>
      </rdf:Description>
   </rdf:RDF>
</x:xmpmeta>
                                                                                                    
                                                                                                    
                                                                                                    
                                                                                                    
                                                                                                    
                                                                                                    
                                                                                                    
                                                                                                    
                                                                                                    
                                                                                                    
                                                                                                    
                                                                                                    
                                                                                                    
                                                                                                    
                                                                                                    
                                                                                                    
                                                                                                    
                                                                                                    
                                                                                                    
                                                                                                    
                           
<?xpacket end="w"?></metadata>
<path d="M17,0H153a17,17,0,0,1,17,17.1V226.9A17.07,17.07,0,0,1,153,244H17A17,17,0,0,1,0,226.9V17.1A17,17,0,0,1,17,0Z" style="fill:#c80813"/><path d="M74,66.8A60.83,60.83,0,0,1,84.5,50.7,100.77,100.77,0,0,1,97.8,38,52,52,0,0,1,84.6,26,183.23,183.23,0,0,1,74.2,9.4,93.49,93.49,0,0,1,63.3,25.9,77.32,77.32,0,0,1,50.6,38,100.76,100.76,0,0,1,63.9,50.7,50.8,50.8,0,0,1,74,66.8Z" style="fill:#fff"/><path d="M96.9,234.6s7.7-19.6,26.3-40.4,33.4-31.8,33.4-31.8-19.4-11.9-33-30.1S97.4,90.7,97.4,90.7s-11.3,22.4-27.2,41.4a213.22,213.22,0,0,1-32,30.3s14.8,11,33.4,31.8S96.9,234.6,96.9,234.6Z" style="fill:#e99ca1"/><path d="M9.5,61.8h3.3c5-16.3,10.2-33.6,15.1-49.6h4.7c5,16.3,10,32.9,15,49.3H51V67c-5.5,0-11-.1-16.6-0.1V61.4h7.5L38.3,49.7H22.2l-3.6,12h6.6v5.5H9.5V61.8h0ZM30.2,23.2L23.8,44.3H36.6Z" style="fill:#fff"/></svg>