<svg id="Layer_1" data-name="Layer 1" xmlns="http://www.w3.org/2000/svg" viewBox="0 0 170 244"><title>A_spades</title><metadata><?xpacket begin="﻿" id="W5M0MpCehiHzreSzNTczkc9d"?>
<x:xmpmeta xmlns:x="adobe:ns:meta/" x:xmptk="Adobe XMP Core 5.6-c111 79.158366, 2015/09/25-01:12:00        ">
   <rdf:RDF xmlns:rdf="http://www.w3.org/1999/02/22-rdf-syntax-ns#">
      <rdf:Description rdf:about=""
            xmlns:dc="http://purl.org/dc/elements/1.1/">
         <dc:title>
            <rdf:Alt>
               <rdf:li xml:lang="x-default">A_spades</rdf:li>
            </rdf:Alt>
         </dc:title>
      </rdf:Description>
   </rdf:RDF>
</x:xmpmeta>
                                                                                                    
                                                                                                    
                                                                                                    
                                                                                                    
                                                                                                    
                                                                                                    
                                                                                                    
                                                                                                    
                                                                                                    
                                                                                                    
                                                                                                    
                                                                                                    
                                                                                                    
                                                                                                    
                                                                                                    
                                                                                                    
                                                                                                    
                                                                                                    
                                                                                                    
                                                                                                    
                           
<?xpacket end="w"?></metadata>
<path d="M17,0H153a17,17,0,0,1,17,17V226.9A17.07,17.07,0,0,1,153,244H17A17,17,0,0,1,0,227s0-.07,0-0.1V17.1A17,17,0,0,1,16.9,0H17Z" transform="translate(0 0)"/><path d="M117.4,228.8a60.78,60.78,0,0,1-9-15,96.05,96.05,0,0,1-5.1-15.3s13.8,6.1,22.6,6.1,28.3-5.3,28.7-26.5-20.9-37.2-34.3-52.5A211.87,211.87,0,0,1,99,97.2a211.87,211.87,0,0,1-21.3,28.4C64.2,140.9,43,157,43.4,178.1s19.9,26.5,28.7,26.5,22.6-6.1,22.6-6.1a96,96,0,0,1-5.1,15.3,63.28,63.28,0,0,1-9,15h36.8Z" transform="translate(0 0)" style="fill:#a2a2a2"/><path d="M9.4,61.8h3.3c5-16.3,10.2-33.6,15.1-49.6h4.7c5,16.3,10,32.9,15,49.3h3.4V67c-5.5,0-11-.1-16.6-0.1V61.4h7.5L38.2,49.7H22l-3.6,12H25v5.5H9.4V61.8h0ZM30.1,23.2L23.7,44.3H36.5Z" transform="translate(0 0)" style="fill:#fff"/><path d="M83.3,66.8a27.33,27.33,0,0,1-3.8-6.4,38.56,38.56,0,0,1-2.2-6.5s5.9,2.6,9.6,2.6,12-2.2,12.2-11.2S90.2,29.5,84.5,23a89.32,89.32,0,0,1-9-12.1,89.32,89.32,0,0,1-9,12.1c-5.7,6.5-14.8,13.3-14.6,22.3s8.5,11.2,12.2,11.2,9.6-2.6,9.6-2.6a42.22,42.22,0,0,1-2.2,6.5,30.27,30.27,0,0,1-3.8,6.4H83.3Z" transform="translate(0 0)" style="fill:#fff"/></svg>