<svg id="Layer_1" data-name="Layer 1" xmlns="http://www.w3.org/2000/svg" viewBox="0 0 170 244"><title>J_diamonds</title><metadata><?xpacket begin="﻿" id="W5M0MpCehiHzreSzNTczkc9d"?>
<x:xmpmeta xmlns:x="adobe:ns:meta/" x:xmptk="Adobe XMP Core 5.6-c111 79.158366, 2015/09/25-01:12:00        ">
   <rdf:RDF xmlns:rdf="http://www.w3.org/1999/02/22-rdf-syntax-ns#">
      <rdf:Description rdf:about=""
            xmlns:dc="http://purl.org/dc/elements/1.1/">
         <dc:title>
            <rdf:Alt>
               <rdf:li xml:lang="x-default">J_diamonds</rdf:li>
            </rdf:Alt>
         </dc:title>
      </rdf:Description>
   </rdf:RDF>
</x:xmpmeta>
                                                                                                    
                                                                                                    
                                                                                                    
                                                                                                    
                                                                                                    
                                                                                                    
                                                                                                    
                                                                                                    
                                                                                                    
                                                                                                    
                                                                                                    
                                                                                                    
                                                                                                    
                                                                                                    
                                                                                                    
                                                                                                    
                                                                                                    
                                                                                                    
                                                                                                    
                                                                                                    
                           
<?xpacket end="w"?></metadata>
<path d="M17,0H153a17,17,0,0,1,17,17.1V226.9A17.07,17.07,0,0,1,153,244H17A17,17,0,0,1,0,226.9V17.1A17,17,0,0,1,17,0Z" style="fill:#c80813"/><path d="M96.7,235.1s7.7-19.6,26.3-40.4,33.4-31.8,33.4-31.8-19.4-11.9-33-30.1S97.2,91.2,97.2,91.2,85.9,113.6,70,132.6a213.22,213.22,0,0,1-32,30.3s14.8,11,33.4,31.8S96.7,235.1,96.7,235.1Z" style="fill:#e99ca1"/><path d="M74.1,72.5A60.83,60.83,0,0,1,84.6,56.4,104.63,104.63,0,0,1,98,43.7a52,52,0,0,1-13.2-12A168.87,168.87,0,0,1,74.4,15,93.49,93.49,0,0,1,63.5,31.5,80.23,80.23,0,0,1,50.7,43.6,100.77,100.77,0,0,1,64,56.3,51.77,51.77,0,0,1,74.1,72.5Z" style="fill:#fff"/><path d="M38,22.2h6.1V16.8H26.3v5.4h6.4V57.7h0a7.81,7.81,0,0,1-15.6,0V49.2H11.7V58h0.1a13.21,13.21,0,0,0,26.4-.3h0V22.2H38Z" style="fill:#fff"/></svg>