<svg id="Layer_1" data-name="Layer 1" xmlns="http://www.w3.org/2000/svg" viewBox="0 0 170 244"><title>J_hearts</title><metadata><?xpacket begin="﻿" id="W5M0MpCehiHzreSzNTczkc9d"?>
<x:xmpmeta xmlns:x="adobe:ns:meta/" x:xmptk="Adobe XMP Core 5.6-c111 79.158366, 2015/09/25-01:12:00        ">
   <rdf:RDF xmlns:rdf="http://www.w3.org/1999/02/22-rdf-syntax-ns#">
      <rdf:Description rdf:about=""
            xmlns:dc="http://purl.org/dc/elements/1.1/">
         <dc:title>
            <rdf:Alt>
               <rdf:li xml:lang="x-default">J_hearts</rdf:li>
            </rdf:Alt>
         </dc:title>
      </rdf:Description>
   </rdf:RDF>
</x:xmpmeta>
                                                                                                    
                                                                                                    
                                                                                                    
                                                                                                    
                                                                                                    
                                                                                                    
                                                                                                    
                                                                                                    
                                                                                                    
                                                                                                    
                                                                                                    
                                                                                                    
                                                                                                    
                                                                                                    
                                                                                                    
                                                                                                    
                                                                                                    
                                                                                                    
                                                                                                    
                                                                                                    
                           
<?xpacket end="w"?></metadata>
<path d="M17,0H153a17,17,0,0,1,17,17.1V226.9A17.07,17.07,0,0,1,153,244H17A17,17,0,0,1,0,226.9V17.1A17,17,0,0,1,17,0Z" style="fill:#c80813"/><path d="M93.6,229.3s14.1-28.9,29.8-49,27.9-31,28-48.7A27.16,27.16,0,0,0,124.7,105c-24.1-.7-31.1,22-31.1,22s-7-22.7-31.1-22a27.16,27.16,0,0,0-26.7,26.6c0.2,17.7,12.3,28.6,28,48.7S93.6,229.3,93.6,229.3Z" style="fill:#e99ca1"/><path d="M74.9,67.3s5.9-12.2,12.5-20.6,11.7-13,11.8-20.5A11.44,11.44,0,0,0,88,15c-10.1-.3-13.1,9.2-13.1,9.2s-3-9.5-13.1-9.2A11.37,11.37,0,0,0,50.6,26.2c0.1,7.4,5.2,12,11.8,20.5S74.9,67.3,74.9,67.3Z" style="fill:#fff"/><path d="M38.1,22.2h6.1V16.8H26.4v5.4h6.4V57.7h0a7.81,7.81,0,0,1-15.6,0V49.2H11.8V58h0.1a13.21,13.21,0,0,0,26.4-.3h0V22.2H38.1Z" style="fill:#fff"/></svg>