<svg id="Layer_1" data-name="Layer 1" xmlns="http://www.w3.org/2000/svg" viewBox="0 0 169.9 243.9"><title>K_clubs</title><metadata><?xpacket begin="﻿" id="W5M0MpCehiHzreSzNTczkc9d"?>
<x:xmpmeta xmlns:x="adobe:ns:meta/" x:xmptk="Adobe XMP Core 5.6-c111 79.158366, 2015/09/25-01:12:00        ">
   <rdf:RDF xmlns:rdf="http://www.w3.org/1999/02/22-rdf-syntax-ns#">
      <rdf:Description rdf:about=""
            xmlns:dc="http://purl.org/dc/elements/1.1/">
         <dc:title>
            <rdf:Alt>
               <rdf:li xml:lang="x-default">K_clubs</rdf:li>
            </rdf:Alt>
         </dc:title>
      </rdf:Description>
   </rdf:RDF>
</x:xmpmeta>
                                                                                                    
                                                                                                    
                                                                                                    
                                                                                                    
                                                                                                    
                                                                                                    
                                                                                                    
                                                                                                    
                                                                                                    
                                                                                                    
                                                                                                    
                                                                                                    
                                                                                                    
                                                                                                    
                                                                                                    
                                                                                                    
                                                                                                    
                                                                                                    
                                                                                                    
                                                                                                    
                           
<?xpacket end="w"?></metadata>
<path d="M17.1,0.1H153a17,17,0,0,1,17,17.1V226.9A17.07,17.07,0,0,1,153,244H17.1a17,17,0,0,1-17-17.1V17.2A17.07,17.07,0,0,1,17.1.1Z" transform="translate(-0.1 -0.1)"/><path d="M115.9,229.6a78.77,78.77,0,0,1-9.1-17.6c-3.2-9.5-4.4-22.3-4.4-22.3s9.2,14.4,25.2,14.2S155,190.1,155,176.4s-12.1-27.1-24.6-27.7-16.1,2.2-16.1,2.2,9.9-8.5,9.7-24.7c-0.4-25.5-26.4-26.3-26.4-26.3s-26,.8-26.4,26.3c-0.3,16.2,9.7,24.7,9.7,24.7s-3.6-2.8-16.1-2.2-24.6,14-24.6,27.7,11.5,27.3,27.4,27.5,25.2-14.2,25.2-14.2-1.2,12.8-4.4,22.3a74.32,74.32,0,0,1-9.1,17.6h36.6Z" transform="translate(-0.1 -0.1)" style="fill:#a2a2a2"/><path d="M81.6,69.4a31.54,31.54,0,0,1-3.9-7.5,47.7,47.7,0,0,1-1.9-9.5s3.9,6.1,10.7,6A11.82,11.82,0,0,0,98.1,46.7c0-5.8-5.1-11.5-10.4-11.8s-6.8.9-6.8,0.9A14,14,0,0,0,85,25.3C84.8,14.5,73.8,14.1,73.8,14.1s-11,.3-11.2,11.2a14,14,0,0,0,4.1,10.5s-1.5-1.2-6.8-.9S49.5,40.8,49.5,46.7A12,12,0,0,0,61.1,58.4c6.8,0.1,10.7-6,10.7-6a49.06,49.06,0,0,1-1.9,9.5A34.16,34.16,0,0,1,66,69.4H81.6Z" transform="translate(-0.1 -0.1)" style="fill:#fff"/><polygon points="45 63.1 36.1 36.7 45.5 21.4 50.5 21.4 50.5 16 34.3 16 34.3 21.4 39.3 21.4 23.7 46.5 23.7 21.1 28.4 21.1 28.4 15.8 12.2 15.8 12.2 21.1 18.4 21.1 18.4 63.1 12.2 63.1 12.2 68.5 28.4 68.5 28.4 63.1 23.7 63.1 23.7 56.6 32.4 42.6 39.4 63.1 34.5 63.1 34.5 68.5 50.8 68.5 50.8 63.1 45 63.1" style="fill:#fff"/></svg>