<svg id="Layer_1" data-name="Layer 1" xmlns="http://www.w3.org/2000/svg" viewBox="0 0 170 244"><title>K_diamonds</title><metadata><?xpacket begin="﻿" id="W5M0MpCehiHzreSzNTczkc9d"?>
<x:xmpmeta xmlns:x="adobe:ns:meta/" x:xmptk="Adobe XMP Core 5.6-c111 79.158366, 2015/09/25-01:12:00        ">
   <rdf:RDF xmlns:rdf="http://www.w3.org/1999/02/22-rdf-syntax-ns#">
      <rdf:Description rdf:about=""
            xmlns:dc="http://purl.org/dc/elements/1.1/">
         <dc:title>
            <rdf:Alt>
               <rdf:li xml:lang="x-default">K_diamonds</rdf:li>
            </rdf:Alt>
         </dc:title>
      </rdf:Description>
   </rdf:RDF>
</x:xmpmeta>
                                                                                                    
                                                                                                    
                                                                                                    
                                                                                                    
                                                                                                    
                                                                                                    
                                                                                                    
                                                                                                    
                                                                                                    
                                                                                                    
                                                                                                    
                                                                                                    
                                                                                                    
                                                                                                    
                                                                                                    
                                                                                                    
                                                                                                    
                                                                                                    
                                                                                                    
                                                                                                    
                           
<?xpacket end="w"?></metadata>
<path d="M17,0H153a17,17,0,0,1,17,17.1V226.9A17.07,17.07,0,0,1,153,244H17A17,17,0,0,1,0,226.9V17.1A17,17,0,0,1,17,0Z" style="fill:#c80813"/><path d="M96.7,235.5s7.7-19.6,26.3-40.4,33.4-31.8,33.4-31.8-19.4-11.9-33-30.1S97.2,91.6,97.2,91.6,85.9,113.9,70,132.9a213.22,213.22,0,0,1-32,30.3s14.8,11,33.4,31.8S96.7,235.5,96.7,235.5Z" style="fill:#e99ca1"/><path d="M74.1,71.6A60.83,60.83,0,0,1,84.6,55.5,104.63,104.63,0,0,1,98,42.8a52,52,0,0,1-13.2-12A171.37,171.37,0,0,1,74.3,14.2,93.49,93.49,0,0,1,63.4,30.7,80.23,80.23,0,0,1,50.6,42.8,100.76,100.76,0,0,1,63.9,55.5,50.12,50.12,0,0,1,74.1,71.6Z" style="fill:#fff"/><polygon points="43.5 63.2 34.5 36.7 44 21.4 49 21.4 49 16 32.7 16 32.7 21.4 37.8 21.4 22.2 46.5 22.2 21.1 26.9 21.1 26.9 15.8 10.6 15.8 10.6 21.1 16.9 21.1 16.9 63.2 10.6 63.2 10.6 68.5 26.9 68.5 26.9 63.2 22.2 63.2 22.2 56.6 30.9 42.6 37.9 63.2 33 63.2 33 68.5 49.3 68.5 49.3 63.2 43.5 63.2" style="fill:#fff"/></svg>