<svg id="Layer_1" data-name="Layer 1" xmlns="http://www.w3.org/2000/svg" viewBox="0 0 169.9 244"><title>K_hearts</title><metadata><?xpacket begin="﻿" id="W5M0MpCehiHzreSzNTczkc9d"?>
<x:xmpmeta xmlns:x="adobe:ns:meta/" x:xmptk="Adobe XMP Core 5.6-c111 79.158366, 2015/09/25-01:12:00        ">
   <rdf:RDF xmlns:rdf="http://www.w3.org/1999/02/22-rdf-syntax-ns#">
      <rdf:Description rdf:about=""
            xmlns:dc="http://purl.org/dc/elements/1.1/">
         <dc:title>
            <rdf:Alt>
               <rdf:li xml:lang="x-default">K_hearts</rdf:li>
            </rdf:Alt>
         </dc:title>
      </rdf:Description>
   </rdf:RDF>
</x:xmpmeta>
                                                                                                    
                                                                                                    
                                                                                                    
                                                                                                    
                                                                                                    
                                                                                                    
                                                                                                    
                                                                                                    
                                                                                                    
                                                                                                    
                                                                                                    
                                                                                                    
                                                                                                    
                                                                                                    
                                                                                                    
                                                                                                    
                                                                                                    
                                                                                                    
                                                                                                    
                                                                                                    
                           
<?xpacket end="w"?></metadata>
<path d="M17.1,0H153a17,17,0,0,1,17,17.1V226.9A17.07,17.07,0,0,1,153,244H17.1a17,17,0,0,1-17-17.1V17.1A17,17,0,0,1,17.1,0Z" transform="translate(-0.1)" style="fill:#c80813"/><path d="M93.7,229.6s14.1-28.9,29.8-49,27.8-31,28-48.7a27.16,27.16,0,0,0-26.7-26.6c-24.1-.7-31.1,22-31.1,22s-7-22.7-31.1-22a27.16,27.16,0,0,0-26.7,26.6c0.2,17.7,12.3,28.6,28,48.7S93.7,229.6,93.7,229.6Z" transform="translate(-0.1)" style="fill:#e99ca1"/><path d="M75,66.5s5.9-12.2,12.5-20.6,11.7-13,11.8-20.5A11.44,11.44,0,0,0,88.1,14.2C77.9,13.9,75,23.4,75,23.4s-3-9.5-13.1-9.2A11.37,11.37,0,0,0,50.7,25.4c0.1,7.4,5.2,12,11.8,20.5S75,66.5,75,66.5Z" transform="translate(-0.1)" style="fill:#fff"/><polygon points="44.2 63.1 35.3 36.7 44.7 21.4 49.7 21.4 49.7 16 33.5 16 33.5 21.4 38.5 21.4 22.9 46.5 22.9 21.1 27.6 21.1 27.6 15.8 11.4 15.8 11.4 21.1 17.6 21.1 17.6 63.1 11.4 63.1 11.4 68.5 27.6 68.5 27.6 63.1 22.9 63.1 22.9 56.6 31.6 42.6 38.6 63.1 33.7 63.1 33.7 68.5 50 68.5 50 63.1 44.2 63.1" style="fill:#fff"/></svg>