<svg id="Layer_1" data-name="Layer 1" xmlns="http://www.w3.org/2000/svg" viewBox="0 0 169.9 244"><title>K_spades</title><metadata><?xpacket begin="﻿" id="W5M0MpCehiHzreSzNTczkc9d"?>
<x:xmpmeta xmlns:x="adobe:ns:meta/" x:xmptk="Adobe XMP Core 5.6-c111 79.158366, 2015/09/25-01:12:00        ">
   <rdf:RDF xmlns:rdf="http://www.w3.org/1999/02/22-rdf-syntax-ns#">
      <rdf:Description rdf:about=""
            xmlns:dc="http://purl.org/dc/elements/1.1/">
         <dc:title>
            <rdf:Alt>
               <rdf:li xml:lang="x-default">K_spades</rdf:li>
            </rdf:Alt>
         </dc:title>
      </rdf:Description>
   </rdf:RDF>
</x:xmpmeta>
                                                                                                    
                                                                                                    
                                                                                                    
                                                                                                    
                                                                                                    
                                                                                                    
                                                                                                    
                                                                                                    
                                                                                                    
                                                                                                    
                                                                                                    
                                                                                                    
                                                                                                    
                                                                                                    
                                                                                                    
                                                                                                    
                                                                                                    
                                                                                                    
                                                                                                    
                                                                                                    
                           
<?xpacket end="w"?></metadata>
<path d="M17,0H152.9a17,17,0,0,1,17,17V226.9a17.07,17.07,0,0,1-17,17.1H17A17,17,0,0,1,0,227s0-.07,0-0.1V17.1A17,17,0,0,1,16.9,0H17Z" transform="translate(0 0)"/><path d="M117.2,229.6a60.78,60.78,0,0,1-9-15,96.05,96.05,0,0,1-5.1-15.3s13.8,6.1,22.6,6.1,28.3-5.3,28.7-26.5-20.9-37.2-34.3-52.5A204.69,204.69,0,0,1,98.8,98a215.83,215.83,0,0,1-21.2,28.4c-13.5,15.3-34.7,31.3-34.3,52.5S63.2,205.4,72,205.4s22.6-6.1,22.6-6.1a96,96,0,0,1-5.1,15.3,63.28,63.28,0,0,1-9,15h36.7Z" transform="translate(0 0)" style="fill:#a2a2a2"/><polygon points="44.5 63.1 35.5 36.7 45 21.4 50 21.4 50 16 33.7 16 33.7 21.4 38.7 21.4 23.2 46.5 23.2 21.1 27.9 21.1 27.9 15.8 11.6 15.8 11.6 21.1 17.9 21.1 17.9 63.1 11.6 63.1 11.6 68.5 27.9 68.5 27.9 63.1 23.2 63.1 23.2 56.6 31.9 42.6 38.8 63.1 34 63.1 34 68.5 50.3 68.5 50.3 63.1 44.5 63.1" style="fill:#fff"/><path d="M83.2,66.8a27.33,27.33,0,0,1-3.8-6.4,38.56,38.56,0,0,1-2.2-6.5s5.9,2.6,9.6,2.6,12-2.2,12.2-11.2S90.1,29.5,84.4,23a89.32,89.32,0,0,1-9-12.1,89.32,89.32,0,0,1-9,12.1c-5.7,6.5-14.7,13.3-14.6,22.3S60.3,56.5,64,56.5s9.6-2.6,9.6-2.6a42.22,42.22,0,0,1-2.2,6.5,30.27,30.27,0,0,1-3.8,6.4H83.2Z" transform="translate(0 0)" style="fill:#fff"/></svg>