<svg id="Layer_1" data-name="Layer 1" xmlns="http://www.w3.org/2000/svg" viewBox="0 0 170 244"><title>Q_clubs</title><metadata><?xpacket begin="﻿" id="W5M0MpCehiHzreSzNTczkc9d"?>
<x:xmpmeta xmlns:x="adobe:ns:meta/" x:xmptk="Adobe XMP Core 5.6-c111 79.158366, 2015/09/25-01:12:00        ">
   <rdf:RDF xmlns:rdf="http://www.w3.org/1999/02/22-rdf-syntax-ns#">
      <rdf:Description rdf:about=""
            xmlns:dc="http://purl.org/dc/elements/1.1/">
         <dc:title>
            <rdf:Alt>
               <rdf:li xml:lang="x-default">Q_clubs</rdf:li>
            </rdf:Alt>
         </dc:title>
      </rdf:Description>
   </rdf:RDF>
</x:xmpmeta>
                                                                                                    
                                                                                                    
                                                                                                    
                                                                                                    
                                                                                                    
                                                                                                    
                                                                                                    
                                                                                                    
                                                                                                    
                                                                                                    
                                                                                                    
                                                                                                    
                                                                                                    
                                                                                                    
                                                                                                    
                                                                                                    
                                                                                                    
                                                                                                    
                                                                                                    
                                                                                                    
                           
<?xpacket end="w"?></metadata>
<path d="M17,0H153a17,17,0,0,1,17,17.1V226.9A17.07,17.07,0,0,1,153,244H17A17,17,0,0,1,0,226.9V17.1A17,17,0,0,1,17,0Z"/><path d="M115.8,229.5a78.77,78.77,0,0,1-9.1-17.6c-3.2-9.5-4.4-22.3-4.4-22.3s9.2,14.4,25.2,14.2,27.4-13.8,27.4-27.5-12.1-27.1-24.6-27.7-16.1,2.2-16.1,2.2,9.9-8.5,9.7-24.7c-0.4-25.5-26.4-26.3-26.4-26.3s-26,.8-26.4,26.3c-0.3,16.2,9.7,24.7,9.7,24.7s-3.6-2.8-16.1-2.2-24.6,14-24.6,27.7,11.5,27.3,27.4,27.5,25.2-14.2,25.2-14.2-1.2,12.8-4.4,22.3a74.32,74.32,0,0,1-9.1,17.6h36.6Z" style="fill:#a2a2a2"/><path d="M81.6,69.8a31.54,31.54,0,0,1-3.9-7.5,47.7,47.7,0,0,1-1.9-9.5s3.9,6.1,10.7,6A11.88,11.88,0,0,0,98.1,47.1c0-5.9-5.1-11.5-10.4-11.8s-6.9.9-6.9,0.9a14,14,0,0,0,4.1-10.5c-0.1-10.7-11.1-11-11.1-11s-11,.3-11.2,11.2a14,14,0,0,0,4.1,10.5s-1.5-1.2-6.9-.9S49.4,41.4,49.4,47.3A11.89,11.89,0,0,0,61,59c6.8,0.1,10.7-6,10.7-6a49.06,49.06,0,0,1-1.9,9.5A34.16,34.16,0,0,1,65.9,70H81.6V69.8Z" style="fill:#fff"/><path d="M43.4,69.5A4.76,4.76,0,0,1,40,67.6a10.57,10.57,0,0,0,5.5-9.3V26.5A10.73,10.73,0,0,0,34.7,15.8H26.4A10.73,10.73,0,0,0,15.6,26.5V49.9l-4,.1,0.2,6.8,3.7-.1v1.6A10.73,10.73,0,0,0,26.3,69h6.2c0.5,0.7,1.1,1.4,1.5,2V70.8c1.3,2,4.7,5.5,9.5,5.5h5.1V69.5H43.4ZM28,21.7h5.1c3.7,0,6.6,3.7,6.6,8.3V54.8A8.78,8.78,0,0,1,36,62.3c-2.9-3.8-6.6-8.6-7.8-9.9a9,9,0,0,0-6.8-2.6V30c0-4.6,2.9-8.3,6.6-8.3h0Zm0,41.5c-3.2,0-5.8-2.8-6.5-6.6a4.13,4.13,0,0,1,1.7.4c0.7,0.7,2.7,3.2,4.9,6.1l-0.1.1h0Z" style="fill:#fff"/></svg>