<svg id="Layer_1" data-name="Layer 1" xmlns="http://www.w3.org/2000/svg" viewBox="0 0 170 244"><title>Q_diamonds</title><metadata><?xpacket begin="﻿" id="W5M0MpCehiHzreSzNTczkc9d"?>
<x:xmpmeta xmlns:x="adobe:ns:meta/" x:xmptk="Adobe XMP Core 5.6-c111 79.158366, 2015/09/25-01:12:00        ">
   <rdf:RDF xmlns:rdf="http://www.w3.org/1999/02/22-rdf-syntax-ns#">
      <rdf:Description rdf:about=""
            xmlns:dc="http://purl.org/dc/elements/1.1/">
         <dc:title>
            <rdf:Alt>
               <rdf:li xml:lang="x-default">Q_diamonds</rdf:li>
            </rdf:Alt>
         </dc:title>
      </rdf:Description>
   </rdf:RDF>
</x:xmpmeta>
                                                                                                    
                                                                                                    
                                                                                                    
                                                                                                    
                                                                                                    
                                                                                                    
                                                                                                    
                                                                                                    
                                                                                                    
                                                                                                    
                                                                                                    
                                                                                                    
                                                                                                    
                                                                                                    
                                                                                                    
                                                                                                    
                                                                                                    
                                                                                                    
                                                                                                    
                                                                                                    
                           
<?xpacket end="w"?></metadata>
<path d="M17,0H153a17,17,0,0,1,17,17.1V226.9A17.07,17.07,0,0,1,153,244H17A17,17,0,0,1,0,226.9V17.1A17,17,0,0,1,17,0Z" style="fill:#c80813"/><path d="M96.7,235.3s7.7-19.6,26.3-40.4,33.4-31.8,33.4-31.8-19.4-11.9-33-30.1S97.2,91.4,97.2,91.4,85.9,113.8,70,132.8a213.22,213.22,0,0,1-32,30.3s14.8,11,33.4,31.8S96.7,235.3,96.7,235.3Z" style="fill:#e99ca1"/><path d="M74.1,72.1A60.83,60.83,0,0,1,84.6,56,104.63,104.63,0,0,1,98,43.3a52,52,0,0,1-13.2-12A160.85,160.85,0,0,1,74.4,14.7,93.49,93.49,0,0,1,63.5,31.2,80.23,80.23,0,0,1,50.7,43.3,100.76,100.76,0,0,1,64,56,50.8,50.8,0,0,1,74.1,72.1Z" style="fill:#fff"/><path d="M42.1,69.5a4.76,4.76,0,0,1-3.4-1.9,10.57,10.57,0,0,0,5.5-9.3V26.5A10.73,10.73,0,0,0,33.4,15.8H25A10.73,10.73,0,0,0,14.2,26.5V49.9l-3.9.1,0.2,6.8,3.7-.1v1.6A10.8,10.8,0,0,0,25,69h6.2c0.5,0.7,1.1,1.4,1.5,2l-0.2-.2c1.3,2,4.7,5.5,9.5,5.5h5.1V69.5h-5ZM26.7,21.7h5.1c3.7,0,6.6,3.7,6.6,8.3V54.8a8.78,8.78,0,0,1-3.7,7.5c-2.9-3.8-6.6-8.6-7.8-9.9a9,9,0,0,0-6.8-2.6V30c-0.1-4.6,2.9-8.3,6.6-8.3h0Zm0,41.5c-3.2,0-5.8-2.8-6.5-6.6a4.13,4.13,0,0,1,1.7.4c0.7,0.7,2.7,3.2,4.9,6.1l-0.1.1h0Z" style="fill:#fff"/></svg>