<svg id="Layer_1" data-name="Layer 1" xmlns="http://www.w3.org/2000/svg" viewBox="0 0 170 244"><title>Q_hearts</title><metadata><?xpacket begin="﻿" id="W5M0MpCehiHzreSzNTczkc9d"?>
<x:xmpmeta xmlns:x="adobe:ns:meta/" x:xmptk="Adobe XMP Core 5.6-c111 79.158366, 2015/09/25-01:12:00        ">
   <rdf:RDF xmlns:rdf="http://www.w3.org/1999/02/22-rdf-syntax-ns#">
      <rdf:Description rdf:about=""
            xmlns:dc="http://purl.org/dc/elements/1.1/">
         <dc:title>
            <rdf:Alt>
               <rdf:li xml:lang="x-default">Q_hearts</rdf:li>
            </rdf:Alt>
         </dc:title>
      </rdf:Description>
   </rdf:RDF>
</x:xmpmeta>
                                                                                                    
                                                                                                    
                                                                                                    
                                                                                                    
                                                                                                    
                                                                                                    
                                                                                                    
                                                                                                    
                                                                                                    
                                                                                                    
                                                                                                    
                                                                                                    
                                                                                                    
                                                                                                    
                                                                                                    
                                                                                                    
                                                                                                    
                                                                                                    
                                                                                                    
                                                                                                    
                           
<?xpacket end="w"?></metadata>
<path d="M17,0H153a17,17,0,0,1,17,17.1V226.9A17.07,17.07,0,0,1,153,244H17A17,17,0,0,1,0,226.9V17.1A17,17,0,0,1,17,0Z" style="fill:#c80813"/><path d="M93.6,229.4s14.1-28.9,29.8-49,27.9-31,28-48.7a27.16,27.16,0,0,0-26.7-26.6c-24.1-.7-31.1,22-31.1,22s-7-22.7-31.1-22a27.16,27.16,0,0,0-26.7,26.6c0.2,17.7,12.3,28.6,28,48.7S93.6,229.4,93.6,229.4Z" style="fill:#e99ca1"/><path d="M74.9,67s5.9-12.2,12.5-20.6,11.7-13,11.8-20.5A11.44,11.44,0,0,0,88,14.7c-10.1-.3-13.1,9.2-13.1,9.2s-3-9.5-13.1-9.2A11.37,11.37,0,0,0,50.6,25.9c0.1,7.4,5.2,12,11.8,20.5S74.9,67,74.9,67Z" style="fill:#fff"/><path d="M42.2,69.5a4.76,4.76,0,0,1-3.4-1.9,10.57,10.57,0,0,0,5.5-9.3V26.5A10.73,10.73,0,0,0,33.5,15.8H25.2A10.73,10.73,0,0,0,14.4,26.5V49.9l-4,.1,0.2,6.8,3.7-.1v1.6A10.73,10.73,0,0,0,25.1,69h6.2c0.5,0.7,1.1,1.4,1.5,2l-0.2-.2c1.3,2,4.7,5.5,9.5,5.5h5.1V69.5h-5ZM26.8,21.7h5.1c3.7,0,6.6,3.7,6.6,8.3V54.8a8.78,8.78,0,0,1-3.7,7.5c-2.9-3.8-6.6-8.6-7.8-9.9a9,9,0,0,0-6.8-2.6V30c-0.1-4.6,2.9-8.3,6.6-8.3h0Zm0,41.5c-3.2,0-5.8-2.8-6.5-6.6A4.13,4.13,0,0,1,22,57c0.7,0.7,2.7,3.2,4.9,6.1l-0.1.1h0Z" style="fill:#fff"/></svg>