<svg id="Layer_1" data-name="Layer 1" xmlns="http://www.w3.org/2000/svg" viewBox="0 0 170 244"><title>Q_spades</title><metadata><?xpacket begin="﻿" id="W5M0MpCehiHzreSzNTczkc9d"?>
<x:xmpmeta xmlns:x="adobe:ns:meta/" x:xmptk="Adobe XMP Core 5.6-c111 79.158366, 2015/09/25-01:12:00        ">
   <rdf:RDF xmlns:rdf="http://www.w3.org/1999/02/22-rdf-syntax-ns#">
      <rdf:Description rdf:about=""
            xmlns:dc="http://purl.org/dc/elements/1.1/">
         <dc:title>
            <rdf:Alt>
               <rdf:li xml:lang="x-default">Q_spades</rdf:li>
            </rdf:Alt>
         </dc:title>
      </rdf:Description>
   </rdf:RDF>
</x:xmpmeta>
                                                                                                    
                                                                                                    
                                                                                                    
                                                                                                    
                                                                                                    
                                                                                                    
                                                                                                    
                                                                                                    
                                                                                                    
                                                                                                    
                                                                                                    
                                                                                                    
                                                                                                    
                                                                                                    
                                                                                                    
                                                                                                    
                                                                                                    
                                                                                                    
                                                                                                    
                                                                                                    
                           
<?xpacket end="w"?></metadata>
<path d="M17,0H153a17,17,0,0,1,17,17.1V226.9A17.07,17.07,0,0,1,153,244H17A17,17,0,0,1,0,226.9V17.1A17,17,0,0,1,17,0Z"/><path d="M117.2,229.4a60.78,60.78,0,0,1-9-15,96.05,96.05,0,0,1-5.1-15.3s13.8,6.1,22.6,6.1,28.3-5.3,28.7-26.5-20.9-37.2-34.3-52.5A211.6,211.6,0,0,1,98.9,97.9a211.87,211.87,0,0,1-21.3,28.4c-13.5,15.3-34.7,31.4-34.3,52.5S63.2,205.3,72,205.3s22.6-6.1,22.6-6.1a96.05,96.05,0,0,1-5.1,15.3,63.28,63.28,0,0,1-9,15h36.7v-0.1h0Z" style="fill:#a2a2a2"/><path d="M42.8,69.5a4.76,4.76,0,0,1-3.4-1.9,10.57,10.57,0,0,0,5.5-9.3V26.5A10.73,10.73,0,0,0,34.1,15.8H25.8A10.73,10.73,0,0,0,15,26.5V49.9L11,50l0.2,6.8,3.7-.1v1.6A10.73,10.73,0,0,0,25.7,69h6.2c0.5,0.7,1.1,1.4,1.5,2l-0.2-.2c1.3,2,4.7,5.5,9.5,5.5h5.1V69.5h-5ZM27.3,21.7h5.1c3.7,0,6.6,3.7,6.6,8.3V54.8a8.78,8.78,0,0,1-3.7,7.5c-2.9-3.8-6.6-8.6-7.8-9.9a9,9,0,0,0-6.8-2.6V30c0-4.6,3-8.3,6.6-8.3h0Zm0,41.5c-3.2,0-5.8-2.8-6.5-6.6a4.13,4.13,0,0,1,1.7.4c0.7,0.7,2.7,3.2,4.9,6.1l-0.1.1h0Z" style="fill:#fff"/><path d="M83.3,70.1a27.33,27.33,0,0,1-3.8-6.4,38.56,38.56,0,0,1-2.2-6.5s5.9,2.6,9.6,2.6,12-2.2,12.2-11.2S90.2,32.8,84.5,26.3a89.32,89.32,0,0,1-9-12.1,89.32,89.32,0,0,1-9,12.1c-5.7,6.5-14.8,13.3-14.6,22.3s8.5,11.2,12.2,11.2,9.6-2.6,9.6-2.6a42.22,42.22,0,0,1-2.2,6.5,30.27,30.27,0,0,1-3.8,6.4H83.3Z" style="fill:#fff"/></svg>